<?xml version="1.0" encoding="utf-8"?>
<!-- Generator: Adobe Illustrator 24.0.1, SVG Export Plug-In . SVG Version: 6.00 Build 0)  -->
<svg version="1.1" id="Capa_1" xmlns="http://www.w3.org/2000/svg" xmlns:xlink="http://www.w3.org/1999/xlink" x="0px" y="0px"
	 viewBox="0 0 25 25" style="enable-background:new 0 0 25 25;" xml:space="preserve">
<style type="text/css">
	.st0{fill:#B4B4B4;}
	.st1{fill:url(#SVGID_1_);}
	.st2{fill:url(#SVGID_2_);}
	.st3{fill:url(#SVGID_3_);}
	.st4{opacity:0.3;fill:url(#SVGID_4_);}
</style>
<g>
	<path class="st0" d="M13.6,1.2c-0.5,0-0.9,0.1-1.4,0.2c-2.4,0.6-4.8,2.6-5.9,5C6,7,5.8,7.8,5.8,8.6l0,0.1c-0.1,0.8-0.2,2.1,0.4,2.8
		c0.1,0.1,0.2,0.2,0.4,0.3c-0.1,0-0.1-0.1-0.2-0.1l1.3,0.9c0.2,0.1,0.4,0.2,0.7,0.2c0.1,0,0.1,0,0.2,0c0.1,0,0.2,0,0.3-0.1l0.1,0
		c0.1,0,0.2,0,0.2-0.1l0.1,0c0.1,0,0.2-0.1,0.2-0.1l0.1,0c0.1,0,0.2-0.1,0.3-0.2l0.1,0c0.1,0,0.1-0.1,0.2-0.1l0.1-0.1
		c0.1,0,0.1-0.1,0.2-0.2l0.1-0.1c0.1-0.1,0.1-0.2,0.2-0.2l0,0c0.1-0.1,0.1-0.2,0.2-0.2l0,0l0,0c0.1-0.2,0.3-0.4,0.4-0.6l0,0
		c0.1-0.2,0.2-0.4,0.4-0.7c0.1-0.2,0.2-0.5,0.4-0.7l0,0c0.1-0.2,0.3-0.4,0.4-0.6l0,0c0.1-0.1,0.1-0.2,0.2-0.2l0-0.1
		c0-0.1,0.1-0.1,0.1-0.2L12.9,8C12.9,8,13,8,13,7.9l0.1-0.1c0.1-0.1,0.1-0.1,0.2-0.1l0,0c0.1-0.1,0.1-0.1,0.2-0.1l0.1,0
		c0.1,0,0.1-0.1,0.2-0.1l0.1,0c0.1,0,0.1,0,0.2-0.1l0.1,0c0.1,0,0.2,0,0.3-0.1c0.1,0,0.2,0,0.3,0c0,0,0,0,0,0c0.2,0,0.4,0,0.6,0.1
		c0.3,0.4,0.4,0.9,0.4,1.4c-0.2,1.5-1.6,2.6-2.8,3.5l-0.2,0.2c-0.5,0.4-1,0.7-1.5,1.1C10.2,14.2,9,15,8,16c-0.9,0.8-1.8,1.7-2.5,2.8
		c-0.7,1.1-0.9,2.2-0.5,3c0.2,0.4,0.5,0.8,1,1.1c0,0-0.1-0.1-0.1-0.1l1.3,0.9C7.5,24,8,24.2,8.6,24.3c0.2,0,0.3,0.1,0.5,0.1
		c0.7,0.1,1.5,0.2,2.3,0.2c0,0,0,0,0.1,0c0.2,0,0.3,0,0.5,0c0.1,0,0.1,0,0.2,0c0.1,0,0.2,0,0.3,0c0.2,0,0.4,0,0.5,0
		c0.1,0,0.2,0,0.3,0c0.2,0,0.4,0,0.6-0.1c0.1,0,0.2,0,0.2,0c0.3,0,0.5-0.1,0.8-0.1c0.3,0,0.6-0.1,0.8-0.1c0.2,0,0.4,0,0.7-0.1
		c0.1,0,0.1,0,0.2,0c0.2,0,0.4,0,0.5-0.1c0,0,0.1,0,0.1,0l0.1,0l0,0c0.1,0,0.1,0,0.2,0c0.1,0,0.2,0,0.3-0.1c0.1,0,0.1,0,0.2-0.1
		c0.1,0,0.2-0.1,0.3-0.1c0.1,0,0.1,0,0.2-0.1c0.1,0,0.2-0.1,0.3-0.1c0.1,0,0.1,0,0.2-0.1l0.1,0c0.1,0,0.2-0.1,0.2-0.1l0.1,0l0,0l0,0
		l0.1,0c0.1,0,0.1-0.1,0.2-0.1c0,0,0.1-0.1,0.1-0.1c0.1-0.1,0.2-0.1,0.2-0.2l0,0c0,0,0.1-0.1,0.1-0.1l0,0l0,0c0-0.1,0.1-0.1,0.1-0.2
		l0,0l0,0l0,0l0,0c0,0,0-0.1,0.1-0.1l0,0l0,0l0-0.1l0,0l0,0l0,0c0-0.1,0-0.1,0-0.2l0,0l0,0l0,0l0,0l0,0c0,0,0-0.1,0-0.1
		c0-0.1,0-0.2,0-0.2l0-0.1c0-0.1,0-0.2,0-0.2l0-0.1l0,0l0,0l0,0c0,0,0-0.1,0-0.1l0-0.1l0-0.1l0-0.1c0-0.1-0.1-0.3-0.1-0.5
		c0-0.1-0.1-0.3-0.1-0.4l0,0l0,0l0,0l0,0l0,0c0-0.1,0-0.1-0.1-0.2c0,0,0-0.1-0.1-0.1l0,0l0,0c0,0-0.1-0.1-0.1-0.1l-0.1-0.1l0,0l0,0
		C20,19.1,19.9,19,19.9,19l0,0L18.5,18l0.1,0.1c-0.3-0.2-0.7-0.4-1.2-0.4c0,0,0,0,0,0c-0.3,0-0.7,0-1.1,0.1
		c-0.4,0.1-0.8,0.2-1.2,0.3l0,0c0.2-0.2,0.4-0.4,0.7-0.5c0.1-0.1,0.1-0.1,0.2-0.2c0.1-0.1,0.3-0.3,0.4-0.4c0.1-0.1,0.2-0.1,0.2-0.2
		c0.1-0.1,0.3-0.2,0.4-0.4c0.1-0.1,0.2-0.2,0.3-0.2c0.1-0.1,0.2-0.2,0.4-0.3c0.1-0.1,0.2-0.2,0.3-0.3c0.1-0.1,0.2-0.2,0.3-0.3
		c0.1-0.1,0.2-0.2,0.2-0.3c0.1-0.1,0.2-0.2,0.3-0.4c0.1-0.1,0.2-0.2,0.2-0.3c0.1-0.1,0.2-0.2,0.3-0.4c0.1-0.1,0.1-0.2,0.2-0.3
		c0,0,0.1-0.1,0.1-0.1c0-0.1,0.1-0.1,0.1-0.2c0.1-0.1,0.1-0.2,0.2-0.3c0-0.1,0.1-0.1,0.1-0.2l0-0.1l0.1-0.1c0.1-0.2,0.3-0.5,0.4-0.7
		l0,0l0,0l0,0l0-0.1l0,0l0,0c0-0.1,0.1-0.2,0.1-0.3c0,0,0-0.1,0.1-0.1l0,0c0,0,0-0.1,0.1-0.1c0,0,0-0.1,0-0.1c0-0.1,0.1-0.1,0.1-0.2
		c0-0.1,0-0.1,0.1-0.2c0,0,0-0.1,0-0.1c0,0,0-0.1,0-0.1c0-0.1,0-0.1,0-0.2c0,0,0-0.1,0-0.1c0,0,0-0.1,0-0.1c0-0.1,0-0.1,0-0.2
		c0-0.1,0-0.2,0-0.2c0-0.1,0-0.1,0-0.2c0-0.2,0-0.4,0-0.6l0,0c0-0.2,0-0.4,0-0.6c0-0.1,0-0.1,0-0.2c0-0.1,0-0.2,0-0.3
		c0-0.1,0-0.1,0-0.2c0,0,0-0.1,0-0.1c0-0.2-0.1-0.4-0.1-0.6l0-0.1c-0.1-0.2-0.1-0.4-0.2-0.5l0-0.1l0,0c0-0.1-0.1-0.2-0.2-0.4
		c0-0.1-0.1-0.1-0.1-0.2c-0.1-0.2-0.2-0.3-0.3-0.5l0-0.1c-0.1-0.2-0.2-0.4-0.4-0.5c0-0.1-0.1-0.1-0.1-0.1c-0.1-0.1-0.2-0.2-0.3-0.3
		l0,0c-0.3-0.3-0.6-0.6-1-0.8l-0.8-0.5L17,2.2l0,0l0,0l0,0C16,1.6,14.9,1.2,13.6,1.2C13.7,1.2,13.7,1.2,13.6,1.2L13.6,1.2z"/>
	<linearGradient id="SVGID_1_" gradientUnits="userSpaceOnUse" x1="17.144" y1="0.9101" x2="9.0673" y2="23.525">
		<stop  offset="0" style="stop-color:#47B27A"/>
		<stop  offset="0.2784" style="stop-color:#06653F"/>
		<stop  offset="0.3105" style="stop-color:#087A4E"/>
		<stop  offset="0.9447" style="stop-color:#001707"/>
	</linearGradient>
	<path class="st1" d="M20.2,8.1L20.2,8.1c0-0.2,0-0.4,0-0.6c0-0.1,0-0.1,0-0.2c0-0.1,0-0.2,0-0.3c0-0.1,0-0.1,0-0.2c0,0,0-0.1,0-0.1
		c0-0.2-0.1-0.4-0.1-0.6c0,0,0-0.1,0-0.1c-0.1-0.2-0.1-0.4-0.2-0.5c0,0,0-0.1,0-0.1c0,0,0,0,0,0c0-0.1-0.1-0.2-0.2-0.4
		c0-0.1-0.1-0.1-0.1-0.2c-0.1-0.2-0.2-0.3-0.3-0.5c0,0,0-0.1,0-0.1C19,4,18.9,3.9,18.7,3.7c0-0.1-0.1-0.1-0.1-0.1
		c-0.1-0.1-0.2-0.2-0.3-0.3l0,0c-0.3-0.3-0.6-0.6-1-0.8l-0.8-0.5l-0.5-0.4c0,0,0,0,0,0l0,0c0.3,0.2,0.7,0.5,1,0.8
		C17,2.3,17,2.4,17.1,2.4l-1.3-0.9c-0.2-0.1-0.3-0.2-0.5-0.3c0,0-0.1,0-0.1-0.1C15,1.1,14.8,1,14.7,1c0,0-0.1,0-0.1,0
		c-0.2-0.1-0.3-0.1-0.5-0.2c0,0-0.1,0-0.1,0c-0.2,0-0.4-0.1-0.6-0.1c0,0,0,0-0.1,0l0,0c0,0,0,0,0,0l0,0c0,0,0,0,0,0c0,0,0,0-0.1,0
		c-0.2,0-0.4,0-0.6,0h0l0,0c-0.5,0-0.9,0.1-1.4,0.2c-0.6,0.2-1.3,0.4-1.9,0.8l0.2,0.1C9.4,1.7,9.3,1.8,9.1,1.8C9.1,1.9,9,1.9,9,1.9
		C8.8,2,8.7,2.1,8.6,2.2c-0.1,0-0.1,0.1-0.2,0.1C8.2,2.5,8.1,2.6,7.9,2.7c0,0,0,0,0,0C7.7,2.9,7.5,3,7.4,3.2c0,0-0.1,0.1-0.1,0.1
		C7.1,3.5,7,3.6,6.9,3.7c0,0.1-0.1,0.1-0.1,0.2C6.6,4,6.5,4.2,6.4,4.4c0,0,0,0,0,0c0,0,0,0.1-0.1,0.1C6.2,4.7,6.1,4.8,6,5
		c0,0.1-0.1,0.1-0.1,0.2C5.8,5.4,5.7,5.5,5.7,5.6l0,0.1C5.6,5.8,5.5,6,5.4,6.1c0,0,0,0.1,0,0.1c0,0.1,0,0.1-0.1,0.2
		c0,0.1,0,0.1,0,0.2c0,0,0,0.1,0,0.1c0,0.2-0.1,0.3-0.1,0.5c0,0.2,0,0.4-0.1,0.5l0,0.1c0,0.1,0,0.2,0,0.3c0,0,0,0.1,0,0.1
		c0,0.1,0,0.2,0,0.3c0,0,0,0,0,0.1c0,0,0,0,0,0.1c0,0.1,0,0.2,0,0.3C5,9,5,9,5,9.1c0,0.1,0,0.2,0,0.3c0,0,0,0.1,0,0.1c0,0,0,0,0,0
		c0,0,0,0.1,0,0.1c0,0.1,0,0.1,0,0.2c0,0,0,0.1,0,0.1c0,0,0,0.1,0,0.1c0,0,0,0,0,0.1c0,0,0,0,0,0.1c0,0.1,0.1,0.1,0.1,0.2l0,0
		c0,0,0.1,0.1,0.1,0.1l0.7,0.5c0,0-0.1,0-0.1,0c-0.1,0-0.1,0-0.2,0c-0.3,0-0.5-0.1-0.7-0.2l1.3,0.9c0.2,0.1,0.4,0.2,0.7,0.2
		c0.1,0,0.1,0,0.2,0c0.1,0,0.2,0,0.3-0.1c0,0,0.1,0,0.1,0c0.1,0,0.2,0,0.2-0.1c0,0,0.1,0,0.1,0c0.1,0,0.2-0.1,0.2-0.1c0,0,0,0,0.1,0
		c0.1,0,0.2-0.1,0.3-0.2c0,0,0,0,0.1,0c0.1,0,0.1-0.1,0.2-0.1c0,0,0.1,0,0.1-0.1c0.1,0,0.1-0.1,0.2-0.2c0,0,0,0,0.1-0.1
		c0.1-0.1,0.1-0.2,0.2-0.2c0,0,0,0,0,0c0.1-0.1,0.1-0.2,0.2-0.2c0,0,0,0,0,0c0,0,0,0,0,0c0.1-0.2,0.3-0.4,0.4-0.6c0,0,0,0,0,0
		c0.1-0.2,0.2-0.4,0.4-0.7c0.1-0.2,0.2-0.5,0.4-0.7c0,0,0,0,0,0c0.1-0.2,0.3-0.4,0.4-0.6c0,0,0,0,0,0c0.1-0.1,0.1-0.2,0.2-0.2
		c0,0,0,0,0-0.1c0-0.1,0.1-0.1,0.1-0.2c0,0,0,0,0.1-0.1c0,0,0.1-0.1,0.1-0.1c0,0,0,0,0.1-0.1c0.1-0.1,0.1-0.1,0.2-0.1c0,0,0,0,0,0
		c0.1-0.1,0.1-0.1,0.2-0.1c0,0,0,0,0.1,0c0.1,0,0.1-0.1,0.2-0.1c0,0,0.1,0,0.1,0c0.1,0,0.1,0,0.2-0.1c0,0,0.1,0,0.1,0
		c0.1,0,0.2,0,0.3-0.1c0.1,0,0.2,0,0.3,0c0.4,0,0.8,0.1,1.2,0.3c0,0,0,0,0,0c0,0,0,0.1,0,0.1C15,6.9,15,6.9,15,7c0,0,0,0.1,0,0.1
		c0,0.1,0,0.1,0,0.2c0,0,0,0.1,0,0.1c0,0.1,0,0.2,0,0.3c0,0.1,0,0.2,0,0.2c0,0.1,0,0.1,0,0.2c0,0.1,0,0.2-0.1,0.3c0,0,0,0,0,0
		c0,0.1-0.1,0.3-0.2,0.4c0,0,0,0.1,0,0.1c0,0.1-0.1,0.1-0.1,0.2c0,0,0,0.1-0.1,0.1c0,0.1-0.1,0.1-0.1,0.2c0,0,0,0.1-0.1,0.1
		c-0.1,0.1-0.1,0.2-0.2,0.3c0,0,0,0,0,0.1C14.1,9.9,14,10,14,10.1c0,0-0.1,0.1-0.1,0.1c-0.1,0.1-0.1,0.1-0.2,0.2
		c0,0-0.1,0.1-0.1,0.1c-0.1,0.1-0.1,0.1-0.2,0.2c0,0,0,0-0.1,0c-0.1,0.1-0.2,0.2-0.3,0.2c0,0,0,0-0.1,0.1c-0.1,0.1-0.1,0.1-0.2,0.2
		c0,0-0.1,0.1-0.1,0.1c-0.1,0.1-0.1,0.1-0.2,0.2c0,0-0.1,0-0.1,0.1c-0.1,0.1-0.2,0.1-0.3,0.2l-0.2,0.2c-0.5,0.4-1,0.7-1.5,1.1
		c-1.1,0.8-2.2,1.6-3.2,2.5c-0.2,0.2-0.3,0.3-0.5,0.5c0,0-0.1,0.1-0.1,0.1c-0.2,0.2-0.3,0.3-0.5,0.5c0,0-0.1,0.1-0.1,0.1
		c-0.2,0.2-0.3,0.3-0.5,0.5c0,0,0,0-0.1,0.1c-0.1,0.2-0.3,0.4-0.4,0.5c0,0,0,0,0,0c0,0,0,0,0,0C5,17.9,4.9,18,4.8,18.2
		c-0.1,0.2-0.2,0.3-0.3,0.5c0,0,0,0,0,0.1c0,0,0,0.1-0.1,0.1c0,0,0,0.1,0,0.1c0,0.1-0.1,0.2-0.1,0.3c0,0,0,0,0,0c0,0,0,0,0,0
		c0,0,0,0,0,0c0,0.1-0.1,0.2-0.1,0.4c0,0,0,0,0,0c0,0,0,0.1,0,0.1c0,0.1,0,0.1,0,0.2c0,0,0,0,0,0.1c0,0,0,0.1,0,0.1
		c0,0.1,0,0.1,0,0.2c0,0,0,0,0,0.1c0,0,0,0.1,0,0.1c0,0,0,0,0,0.1c0,0.1,0,0.2,0.1,0.2l0,0c0,0.1,0.1,0.2,0.1,0.3c0,0,0,0.1,0.1,0.1
		c0,0.1,0.1,0.1,0.1,0.2c0,0,0,0,0,0c0,0,0.1,0.1,0.1,0.1c0,0,0,0,0.1,0.1c0.1,0.1,0.1,0.1,0.2,0.2l1.3,0.9c0,0,0,0,0.1,0
		c-0.1,0-0.2,0-0.2-0.1c-0.5-0.1-1-0.3-1.4-0.6l1.3,0.9c0.4,0.3,0.8,0.4,1.4,0.6c0.2,0,0.3,0.1,0.5,0.1c0.7,0.1,1.5,0.2,2.3,0.2
		c0.2,0,0.4,0,0.6,0c0.1,0,0.1,0,0.2,0c0.1,0,0.2,0,0.3,0c0.2,0,0.4,0,0.5,0c0.1,0,0.2,0,0.3,0c0.2,0,0.4,0,0.6-0.1
		c0.1,0,0.2,0,0.3,0c0.3,0,0.5-0.1,0.8-0.1c0.3,0,0.6-0.1,0.8-0.1c0.2,0,0.4,0,0.7-0.1c0.1,0,0.1,0,0.2,0c0.2,0,0.3,0,0.5-0.1
		c0.1,0,0.1,0,0.2,0l0.1,0c0,0,0,0,0.1,0c0.1,0,0.1,0,0.2,0c0.1,0,0.2,0,0.3-0.1c0.1,0,0.2,0,0.2-0.1c0.1,0,0.2-0.1,0.3-0.1
		c0.1,0,0.1,0,0.2-0.1c0.1,0,0.2-0.1,0.3-0.1c0.1,0,0.1,0,0.2-0.1c0,0,0.1,0,0.1,0c0.1,0,0.2-0.1,0.2-0.1l0.1,0c0,0,0,0,0,0l0,0
		l0.1,0c0.1,0,0.1-0.1,0.2-0.1c0,0,0.1-0.1,0.1-0.1c0.1-0.1,0.2-0.1,0.2-0.2c0,0,0,0,0,0c0,0,0.1-0.1,0.1-0.1c0,0,0,0,0,0
		c0,0,0,0,0,0c0.1-0.1,0.1-0.1,0.1-0.2c0,0,0,0,0,0c0,0,0,0,0,0c0,0,0,0,0,0c0,0,0,0,0,0c0,0,0-0.1,0.1-0.1c0,0,0-0.1,0-0.1
		c0,0,0,0,0,0c0,0,0,0,0,0c0,0,0,0,0,0c0-0.1,0-0.1,0-0.2c0,0,0,0,0,0l0,0c0,0,0,0,0,0l0,0c0,0,0,0,0,0c0,0,0,0,0,0c0,0,0-0.1,0-0.1
		c0-0.1,0-0.2,0-0.2c0,0,0,0,0-0.1c0-0.1,0-0.2,0-0.2c0,0,0,0,0-0.1l0,0c0,0,0,0,0,0l0,0c0,0,0-0.1,0-0.1c0,0,0-0.1,0-0.1
		c0,0,0-0.1,0-0.1c0,0,0,0,0-0.1c0-0.1-0.1-0.3-0.1-0.5c0-0.1-0.1-0.3-0.1-0.4c0,0,0,0,0,0l0,0l0,0l0,0c0,0,0,0,0,0c0,0,0,0,0,0
		c0,0,0,0,0,0c0,0,0,0,0,0c0-0.1,0-0.1-0.1-0.2c0,0,0-0.1-0.1-0.1c0,0,0,0,0,0c0,0,0,0,0,0c0,0-0.1-0.1-0.1-0.1l0,0h0l0,0
		c0,0,0,0-0.1-0.1c0,0,0,0,0,0c0,0,0,0,0,0c-0.1-0.1-0.1-0.1-0.2-0.2c0,0,0,0,0,0l-1.3-0.9c0.1,0.1,0.2,0.1,0.2,0.2c0,0,0,0,0.1,0.1
		c0.1,0.1,0.1,0.1,0.2,0.2c0,0,0,0,0,0c0,0,0,0,0,0l-0.6-0.4c0,0-0.1,0-0.1-0.1c0,0-0.1,0-0.1-0.1c0,0,0,0,0,0c0,0-0.1,0-0.1,0
		c0,0,0,0,0,0c0,0-0.1,0-0.1,0c0,0,0,0,0,0l0,0c0,0,0,0,0,0l-0.1,0c0,0-0.1,0-0.1,0c0,0,0,0-0.1,0c0,0,0,0,0,0c-0.1,0-0.2,0-0.3,0
		l0,0h0l-0.1,0c0,0,0,0,0,0c-0.2,0-0.3,0-0.5,0c0,0.1,0.1,0.1,0.1,0.2c-0.2,0-0.3,0-0.5,0.1c-0.5,0.1-1.1,0.2-1.6,0.4
		c-0.1,0-0.2,0.1-0.3,0.1c0.3-0.2,0.5-0.4,0.7-0.6c0.2-0.2,0.4-0.4,0.7-0.5c0.1-0.1,0.1-0.1,0.2-0.2c0.1-0.1,0.3-0.3,0.4-0.4
		c0.1-0.1,0.2-0.1,0.2-0.2c0.1-0.1,0.3-0.2,0.4-0.4c0.1-0.1,0.2-0.2,0.3-0.2c0.1-0.1,0.2-0.2,0.4-0.3c0.1-0.1,0.2-0.2,0.3-0.3
		c0.1-0.1,0.2-0.2,0.3-0.3c0.1-0.1,0.2-0.2,0.2-0.3c0.1-0.1,0.2-0.2,0.3-0.4c0.1-0.1,0.2-0.2,0.2-0.3c0.1-0.1,0.2-0.2,0.3-0.4
		c0.1-0.1,0.1-0.2,0.2-0.3c0,0,0.1-0.1,0.1-0.1c0-0.1,0.1-0.1,0.1-0.2c0.1-0.1,0.1-0.2,0.2-0.3c0-0.1,0.1-0.1,0.1-0.2c0,0,0,0,0-0.1
		c0,0,0-0.1,0.1-0.1c0.1-0.2,0.3-0.5,0.4-0.7c0,0,0,0,0,0c0,0,0,0,0,0c0,0,0,0,0,0l0-0.1c0,0,0,0,0,0l0,0c0,0,0,0,0,0
		c0-0.1,0.1-0.2,0.1-0.3c0,0,0-0.1,0.1-0.1c0,0,0,0,0,0c0,0,0-0.1,0.1-0.1c0,0,0-0.1,0-0.1c0-0.1,0.1-0.1,0.1-0.2
		c0-0.1,0-0.1,0.1-0.2c0,0,0-0.1,0-0.1c0,0,0-0.1,0-0.1c0-0.1,0-0.1,0-0.2c0,0,0-0.1,0-0.1c0,0,0-0.1,0-0.1c0-0.1,0-0.1,0-0.2
		c0-0.1,0-0.2,0-0.2c0-0.1,0-0.1,0-0.2C20.2,8.5,20.2,8.3,20.2,8.1z"/>
	<linearGradient id="SVGID_2_" gradientUnits="userSpaceOnUse" x1="9.1873" y1="5.9192" x2="16.3831" y2="30.9371">
		<stop  offset="0" style="stop-color:#47B27A"/>
		<stop  offset="1" style="stop-color:#087A4E"/>
	</linearGradient>
	<path class="st2" d="M16.3,17.3c-0.2,0-0.3,0-0.5,0c0.3,0.6,0.4,1.4,0,2c0.4-0.6,0.3-1.4,0-2c-0.2,0-0.3,0-0.5,0.1
		c-0.5,0.1-1.1,0.2-1.6,0.4c-0.5,0.1-1,0.3-1.6,0.4c-0.1,0-0.7,0.2-1.2,0.3c-0.5,0.1-0.9,0.2-1.1,0.3l-0.8,0.2l0.6-0.5
		c0.1-0.1,0.2-0.2,0.3-0.2c0.4-0.3,0.9-0.7,1.3-1.1c0.4-0.4,0.8-0.7,1.1-1c3-2.5,6-5.3,6.1-8.9c0-1.7-0.6-3.4-1.8-4.6
		c-1.1-1.1-2.5-1.7-4-1.8c-0.5,0-0.9,0-1.4,0.2c-0.5,0.1-1,0.3-1.5,0.6C8,2.4,6.4,3.9,5.6,5.7C5.3,6.3,5.1,7,5.1,7.8l0,0.1
		c0,0.7-0.1,2,0.3,2.5c0.1,0.2,0.3,0.2,0.6,0.2c0,0,0.1,0,0.1,0C7.6,10.4,8.2,9.2,8.9,8c0.7-1.3,1.4-2.6,3-2.8c0.1,0,0.3,0,0.4,0
		c0.8,0,1.6,0.4,2.1,1c0.5,0.5,0.7,1.2,0.6,1.9c-0.2,1.6-1.7,2.8-2.9,3.7l-0.2,0.2c-0.5,0.4-1,0.7-1.5,1.1c-1.1,0.8-2.2,1.6-3.2,2.5
		c-0.9,0.8-1.8,1.7-2.4,2.7c-0.6,1-0.8,1.9-0.5,2.6c0.3,0.7,0.9,1.1,2,1.4c0.1,0,0.3,0.1,0.4,0.1c0.6,0.1,1.1,0.2,1.8,0.2
		c0.1,0,0.3,0,0.5,0c1.2,0,2.4-0.1,3.5-0.2c0.3,0,0.6-0.1,0.9-0.1c1.4-0.1,3.2-0.4,4.1-1.1c0.6-0.4,0.7-1.2,0.4-2.4
		C17.7,17.7,17.2,17.3,16.3,17.3z"/>
	<linearGradient id="SVGID_3_" gradientUnits="userSpaceOnUse" x1="6.8302" y1="2.1325" x2="15.097" y2="22.4764">
		<stop  offset="1.020410e-02" style="stop-color:#73FFC7"/>
		<stop  offset="1" style="stop-color:#47B27A"/>
	</linearGradient>
	<path class="st3" d="M16.3,16.9c-0.3,0-0.7,0-1.1,0.1c-0.6,0.1-1.1,0.2-1.7,0.4c-0.5,0.1-1,0.3-1.5,0.4c-0.2,0-0.7,0.2-1.2,0.3
		c-0.1,0-0.2,0-0.2,0.1c0.3-0.3,0.6-0.5,1-0.8c0.4-0.4,0.8-0.7,1.1-1c3.1-2.6,6.1-5.4,6.2-9.2c0-1.8-0.7-3.6-1.9-4.9
		c-1.2-1.2-2.7-1.9-4.3-1.9c-0.5,0-1,0.1-1.5,0.2c-2.4,0.6-4.8,2.6-5.9,5C4.9,6.2,4.7,7,4.7,7.8l0,0.1C4.6,8.6,4.5,10,5.1,10.6
		C5.4,10.8,5.6,11,6,11c0.1,0,0.1,0,0.2,0c1.7-0.2,2.4-1.5,3.1-2.8c0.7-1.3,1.3-2.4,2.8-2.6c0.1,0,0.2,0,0.3,0
		c0.7,0,1.4,0.3,1.8,0.8c0.4,0.4,0.6,1,0.5,1.6c-0.2,1.5-1.6,2.6-2.8,3.5l-0.2,0.2c-0.5,0.4-1,0.7-1.5,1.1c-1.1,0.8-2.2,1.6-3.3,2.6
		C6,16,5.1,16.9,4.5,18c-0.7,1.1-0.9,2.2-0.5,3c0.3,0.8,1.1,1.3,2.2,1.6c0.2,0,0.3,0.1,0.5,0.1c0.7,0.1,1.5,0.2,2.3,0.2
		c1.2,0,2.4-0.1,3.6-0.2c0.3,0,0.6-0.1,0.8-0.1c1.5-0.1,3.3-0.4,4.3-1.1c0.7-0.5,0.9-1.5,0.6-2.8C18,17.5,17.4,16.9,16.3,16.9z
		 M6.2,22.2c-1-0.2-1.7-0.7-2-1.4c-0.3-0.7-0.1-1.6,0.5-2.6c0.6-1.1,1.5-1.9,2.4-2.7c1-0.9,2.1-1.7,3.2-2.5c0.5-0.4,1-0.7,1.5-1.1
		l0.2-0.2c1.2-0.9,2.8-2.1,2.9-3.7c0.1-0.7-0.1-1.3-0.6-1.9c-0.5-0.6-1.3-0.9-2.1-1c-0.1,0-0.3,0-0.4,0c-1.6,0.2-2.3,1.6-3,2.8
		c-0.7,1.3-1.3,2.5-2.8,2.6c0,0-0.1,0-0.1,0c-0.2,0-0.4-0.1-0.6-0.2C4.9,9.8,5,8.6,5.1,7.9l0-0.1C5.1,7,5.3,6.3,5.6,5.7
		C6.4,3.9,8,2.4,9.7,1.5c0.5-0.3,1-0.4,1.5-0.6c0.5-0.1,0.9-0.2,1.4-0.2c1.5,0,2.9,0.6,4,1.8c1.2,1.2,1.9,2.9,1.8,4.6
		c-0.1,3.7-3,6.4-6.1,8.9c-0.3,0.3-0.7,0.6-1.1,1c-0.5,0.4-0.9,0.8-1.3,1.1c-0.1,0.1-0.2,0.2-0.3,0.2l-0.6,0.5l0.8-0.2
		c0.1,0,0.6-0.1,1.1-0.3c0.5-0.1,1-0.3,1.2-0.3c0.5-0.1,1-0.2,1.6-0.4c0.5-0.1,1.1-0.3,1.6-0.4c0.2,0,0.4-0.1,0.5-0.1
		c0.2,0,0.4,0,0.5,0c0.9,0,1.4,0.4,1.6,1.4c0.3,1.2,0.1,2-0.4,2.4c-0.9,0.7-2.7,0.9-4.1,1.1c-0.3,0-0.6,0.1-0.8,0.1
		c-1.2,0.1-2.4,0.2-3.5,0.2c-0.2,0-0.3,0-0.5,0c-0.6,0-1.2-0.1-1.8-0.2C6.5,22.3,6.4,22.2,6.2,22.2z"/>
	<linearGradient id="SVGID_4_" gradientUnits="userSpaceOnUse" x1="9.1078" y1="9.4779" x2="18.4623" y2="9.4779">
		<stop  offset="0" style="stop-color:#47B27A"/>
		<stop  offset="1" style="stop-color:#087A4E"/>
	</linearGradient>
	<path class="st4" d="M12.6,0.8c1.5,0,2.9,0.6,4,1.8c1.2,1.2,1.9,2.9,1.8,4.6c-0.1,3.7-3,6.4-6.1,8.9c-0.3,0.3-0.7,0.6-1.1,1
		c-0.5,0.4-0.9,0.8-1.3,1.1c-0.1,0-0.2,0-0.3,0c-0.5,0-0.8-0.2-0.4-1c0.4-0.9,1.3-1.6,2-2.3c1.3-1.2,2.6-2.2,3.6-3.6
		c1.5-2.1,2-5,0.3-7.1c-1.3-1.5-3.4-2.6-5.4-2.7c0.5-0.3,1-0.4,1.5-0.6C11.7,0.8,12.2,0.8,12.6,0.8z"/>
</g>
</svg>
