<?xml version="1.0" encoding="utf-8"?>
<!-- Generator: Adobe Illustrator 24.0.1, SVG Export Plug-In . SVG Version: 6.00 Build 0)  -->
<svg version="1.1" id="Capa_1" xmlns="http://www.w3.org/2000/svg" xmlns:xlink="http://www.w3.org/1999/xlink" x="0px" y="0px"
	 viewBox="0 0 25 25" style="enable-background:new 0 0 25 25;" xml:space="preserve">
<style type="text/css">
	.st0{fill:#B4B4B4;}
	.st1{fill:url(#SVGID_1_);}
	.st2{fill:url(#SVGID_2_);}
	.st3{fill:url(#SVGID_3_);}
	.st4{fill:url(#SVGID_4_);}
	.st5{fill:url(#SVGID_5_);}
	.st6{opacity:0.6;fill:url(#SVGID_6_);}
</style>
<g>
	<path class="st0" d="M10.6,14l0.1-0.1c0.2-0.3,0.5-0.6,0.7-0.9c0.2-0.3,0.5-0.6,0.7-0.9c0.1-0.1,0.1-0.2,0.2-0.3
		c0.1-0.2,0.3-0.4,0.4-0.6c0.1-0.1,0.1-0.2,0.2-0.3c0.2-0.3,0.4-0.5,0.6-0.8c0,0.4,0,0.7,0,1.1c0,0.8-0.1,1.7-0.1,2.8
		c-0.4,0-0.8,0-1.2,0c-0.4,0-0.8,0-1.3,0C10.7,14,10.7,14,10.6,14L10.6,14z M15.5,1.2c-0.5,0-1,0.2-1.5,0.7
		c-1.9,1.7-3.5,3.8-4.9,5.9c-0.6,0.8-1.2,1.6-1.8,2.4c-0.7,0.9-1.5,1.9-2.2,2.9C5,13.2,5,13.3,4.9,13.4c-0.6,0.8-1.4,2-0.6,3
		C4.5,16.6,4.7,16.9,5,17l0,0l0,0l0,0l1.3,0.9c0.9,0.6,2.1,0.7,2.9,0.7c0,0,0,0,0.1,0c0.1,0,0.3,0,0.4,0l0.3,0
		c0.6,0,1.9-0.1,2.9-0.1c0,0,0,0.1,0,0.1c-0.1,0.8-0.1,1.5-0.2,2.3c0,0.1,0,0.2,0,0.2c-0.1,0.6-0.1,1.5,0.4,1.9
		c0.1,0.1,0.2,0.1,0.3,0.2c-0.1,0-0.1-0.1-0.2-0.1l0,0l0,0l0.5,0.4l0.8,0.5c0.5,0.3,1,0.5,1.6,0.5c0,0,0,0,0,0c0.1,0,0.2,0,0.3,0
		l0.1,0c0.1,0,0.1,0,0.2,0c0,0,0.1,0,0.1,0c0.1,0,0.1,0,0.2,0c0,0,0.1,0,0.1,0c0,0,0.1,0,0.1,0h0l0,0c0,0,0.1,0,0.1-0.1l0.1,0
		c0,0,0.1,0,0.1-0.1l0.1,0c0,0,0.1-0.1,0.1-0.1l0.1-0.1c0.1,0,0.1-0.1,0.2-0.2c0.1-0.1,0.1-0.1,0.2-0.2l0,0l0-0.1
		c0-0.1,0.1-0.1,0.1-0.2l0,0l0-0.1c0,0,0-0.1,0-0.1c0,0,0-0.1,0-0.1l0-0.1l0,0c0-0.1,0-0.2,0-0.2v0c0-0.1,0-0.1,0-0.2v0
		c0-0.1,0-0.3,0-0.4c0,0,0-0.1,0-0.1c0-0.1,0-0.2,0-0.3c0-0.1,0-0.2,0-0.3c0,0,0-0.1,0-0.1c0-0.2,0-0.3,0-0.5l0,0c0-0.7,0-1.4,0-2
		c0.1,0,0.3,0,0.4,0l0.1,0c0.1,0,0.2,0,0.3,0l0,0l0,0c0.2,0,0.4,0,0.5,0c0.1,0,0.2,0,0.2,0l0.1,0c0.1,0,0.1,0,0.2-0.1l0,0l0,0l0.1,0
		l0,0l0,0c0,0,0.1-0.1,0.1-0.1l0.1,0c0,0,0.1-0.1,0.1-0.1l0,0h0h0l0,0l0,0l0,0l0,0c0,0,0.1-0.1,0.1-0.1l0,0l0,0l0,0l0,0l0.1-0.1
		c0-0.1,0.1-0.1,0.1-0.2l0,0l0,0l0,0l0-0.1c0-0.1,0.1-0.1,0.1-0.2l0,0l0-0.1l0-0.1l0,0l0,0l0,0c0-0.1,0-0.2,0-0.2l0,0
		c0-0.1,0-0.2,0-0.2l0,0l0,0c0-0.1,0-0.1,0-0.2l0-0.1l0,0l0-0.1l0-0.1l0-0.1l0,0l0,0l0,0l0,0c0,0-0.1-0.1-0.1-0.1l0-0.1l0,0l0,0
		c-0.1-0.1-0.1-0.1-0.2-0.2l-1.3-0.9l0,0l0,0l0,0c-0.2-0.1-0.4-0.2-0.8-0.3c-0.2,0-0.3,0-0.5,0c0-0.2,0-0.3,0-0.5c0-0.1,0-0.3,0-0.4
		c0-0.4,0-0.7,0-1.1c0-0.2,0-0.3,0-0.5c0-0.5,0-1,0-1.5c0-0.6,0-1.1,0-1.7l0-0.5c0-0.3,0-0.6,0-0.9c0-0.1,0-0.2,0-0.3l0-0.1
		c0-0.1,0-0.2,0-0.4c0,0,0-0.1,0-0.1c0-0.1,0-0.3,0-0.4c0-0.2,0-0.4,0-0.6c0-0.1,0-0.1,0-0.2c0-0.1,0-0.2,0-0.3l0-0.1l0-0.1
		c0,0,0-0.1,0-0.1c0-0.1,0-0.1,0-0.2l0-0.1c0,0,0-0.1,0-0.1c0-0.1,0-0.2,0-0.2l0-0.1l0-0.1c0-0.1,0-0.2-0.1-0.3l0-0.1
		c0,0,0-0.1,0-0.1c0,0,0-0.1,0-0.1l0,0l0,0l0,0c-0.1-0.1-0.1-0.2-0.2-0.4l0-0.1l0,0l0,0c-0.1-0.1-0.2-0.2-0.2-0.3l0,0l0,0l0,0
		c-0.1-0.1-0.2-0.2-0.3-0.2C17.5,2.2,17.2,2,17,1.9l-0.6-0.4l0,0l0,0l0,0l0,0C16.2,1.3,15.8,1.2,15.5,1.2
		C15.5,1.2,15.5,1.2,15.5,1.2L15.5,1.2z"/>
	<g>
		<linearGradient id="SVGID_1_" gradientUnits="userSpaceOnUse" x1="12.1484" y1="0.6391" x2="9.237" y2="22.7284">
			<stop  offset="0.3093" style="stop-color:#802B0A"/>
			<stop  offset="1" style="stop-color:#000000"/>
		</linearGradient>
		<path class="st1" d="M8.5,14.5c0.8,0,1.7,0,2.5,0c0.4,0,0.8,0,1.3,0c0.5,0,0.9,0,1.4,0l0.2,0l0-0.2c0.1-1.2,0.1-2.1,0.1-2.9
			c0-1.5,0.1-3.1,0.3-4.7L14.4,6l-1.3-0.9l-0.4,0.6c-0.3,0.4-0.6,0.8-0.9,1.2c-0.1,0.1-0.1,0.2-0.2,0.3c-0.3,0.4-0.6,0.8-0.9,1.2
			c0,0-0.1,0.1-0.1,0.1c-0.1,0.2-0.3,0.4-0.4,0.5c0,0,0,0,0,0v0C10,9.3,9.8,9.6,9.6,9.8C9.6,9.9,9.5,10,9.4,10.1
			c-0.2,0.3-0.5,0.6-0.7,1c-0.2,0.3-0.5,0.7-0.7,1c-0.1,0.1-0.2,0.2-0.2,0.3c-0.1,0.2-0.2,0.3-0.4,0.5c-0.1,0.2-0.2,0.3-0.3,0.5
			l-0.2,0.3l1.3,0.9L8.5,14.5z M12.6,13.6l-0.2,0c-0.5,0-0.9,0-1.4,0c-0.4,0-0.8,0-1.3,0c-0.1,0-0.3,0-0.5,0c0-0.1,0.1-0.1,0.1-0.2
			c0.1-0.1,0.1-0.2,0.2-0.3c0.2-0.3,0.5-0.6,0.7-0.9c0.2-0.3,0.5-0.6,0.7-0.9c0.1-0.1,0.1-0.2,0.2-0.3c0.1-0.2,0.3-0.4,0.4-0.6
			c0.1-0.1,0.1-0.2,0.2-0.3c0.3-0.4,0.6-0.8,0.8-1.2c0-0.1,0.1-0.1,0.1-0.2c0,0.6,0,1.1-0.1,1.6c0,0.9-0.1,1.8-0.1,2.9L12.6,13.6z"
			/>
		<linearGradient id="SVGID_2_" gradientUnits="userSpaceOnUse" x1="13.8413" y1="0.8622" x2="10.9298" y2="22.9518">
			<stop  offset="0.3093" style="stop-color:#802B0A"/>
			<stop  offset="1" style="stop-color:#000000"/>
		</linearGradient>
		<path class="st2" d="M20.6,15.8C20.6,15.8,20.6,15.8,20.6,15.8C20.6,15.8,20.6,15.8,20.6,15.8c0-0.1,0-0.2,0-0.2c0,0,0,0,0-0.1
			c0,0,0,0,0,0c0,0,0,0,0-0.1c0,0,0,0,0-0.1l0-0.1l0,0l0,0l0,0c0,0,0,0,0,0c0,0-0.1-0.1-0.1-0.1c0,0,0,0,0-0.1c0,0,0,0,0,0
			c0,0,0,0,0,0C20.2,15.1,20.1,15,20,15l-1.3-0.9c0,0,0,0,0,0c0,0,0,0,0,0c0.1,0,0.1,0.1,0.2,0.2c0,0,0,0,0,0.1c0,0,0.1,0.1,0.1,0.1
			c0,0,0,0.1,0.1,0.1c0,0,0,0,0,0c-0.2-0.1-0.4-0.2-0.5-0.4c-0.1,0-0.1-0.1-0.2-0.1c0,0,0,0,0,0c0,0,0,0,0,0C18.2,14,18.1,14,18,14
			c-0.2,0-0.3,0-0.5,0c0-0.2,0-0.5,0-0.7c0-0.1,0-0.3,0-0.4c0-0.4,0-0.7,0-1.1c0-0.2,0-0.3,0-0.5c0-0.5,0-1,0-1.5c0-0.6,0-1.1,0-1.7
			l0-0.5c0-0.3,0-0.6,0-0.9c0-0.1,0-0.2,0-0.3c0,0,0,0,0-0.1c0-0.1,0-0.2,0-0.4c0,0,0-0.1,0-0.1c0-0.1,0-0.3,0-0.4
			c0-0.2,0-0.4,0-0.6c0-0.1,0-0.1,0-0.2c0-0.1,0-0.2,0-0.3c0,0,0-0.1,0-0.1c0,0,0,0,0-0.1c0,0,0-0.1,0-0.1c0-0.1,0-0.1,0-0.2
			c0,0,0-0.1,0-0.1c0,0,0-0.1,0-0.1c0-0.1,0-0.2,0-0.2c0,0,0-0.1,0-0.1l0-0.1c0-0.1,0-0.2-0.1-0.3c0,0,0-0.1,0-0.1c0,0,0-0.1,0-0.1
			c0,0,0-0.1,0-0.1c0,0,0,0,0,0c0,0,0,0,0,0c0,0,0,0,0,0c-0.1-0.1-0.1-0.2-0.2-0.4l0-0.1c0,0,0,0,0,0l0,0C17.2,2.1,17.1,2,17,1.9
			c0,0,0,0,0,0c0,0,0,0,0,0c0,0,0,0,0,0c-0.1-0.1-0.2-0.2-0.3-0.2c-0.2-0.1-0.5-0.3-0.7-0.5l-0.6-0.4c0,0,0,0,0,0s0,0,0,0
			c0,0,0,0,0,0c0.1,0.1,0.2,0.2,0.3,0.2c0,0,0,0,0,0c0.1,0.1,0.2,0.2,0.3,0.3c0,0,0,0,0,0c0,0,0,0,0,0c-0.2-0.2-0.5-0.3-0.7-0.5
			c-0.1-0.1-0.2-0.1-0.2-0.1c0,0,0,0,0,0l0,0c0,0,0,0,0,0c0,0-0.1,0-0.1,0c0,0,0,0-0.1,0c-0.1,0-0.1,0-0.2,0c0,0.1,0.1,0.1,0.1,0.2
			c-0.1,0-0.2,0-0.3,0c-0.4,0-0.8,0.2-1.3,0.6C11.3,3,9.8,5.1,8.3,7.2C7.7,8,7.1,8.8,6.5,9.6C6.2,9.9,6,10.3,5.7,10.7
			c-0.1,0.1-0.1,0.1-0.2,0.2c-0.3,0.4-0.5,0.7-0.8,1.1c0,0-0.1,0.1-0.1,0.1c-0.1,0.2-0.2,0.3-0.3,0.5c-0.1,0.1-0.1,0.2-0.2,0.3
			C4.1,12.9,4.1,12.9,4,13c0,0,0,0,0,0c-0.1,0.1-0.1,0.2-0.2,0.2c0,0,0,0,0,0c0,0.1-0.1,0.2-0.1,0.2c0,0,0,0,0,0
			c0,0.1-0.1,0.2-0.1,0.2c0,0,0,0,0,0c0,0,0,0,0,0c0,0.1-0.1,0.2-0.1,0.3c0,0,0,0,0,0c0,0,0,0,0,0c0,0.1,0,0.1-0.1,0.2c0,0,0,0,0,0
			c0,0,0,0,0,0c0,0.1,0,0.1,0,0.2c0,0,0,0,0,0c0,0,0,0,0,0c0,0,0,0.1,0,0.1c0,0,0,0,0,0c0,0,0,0,0,0c0,0.1,0,0.2,0.1,0.2
			c0,0,0,0,0,0c0,0,0,0.1,0,0.1c0,0,0,0,0,0.1c0,0,0.1,0.1,0.1,0.1c0.1,0.1,0.1,0.1,0.2,0.2c0,0,0,0,0.1,0.1c0,0,0,0,0.1,0.1
			c0.1,0.1,0.2,0.2,0.3,0.2l1,0.7l0.3,0.2c0,0,0,0,0,0l0,0c0,0,0,0,0,0c-0.5-0.1-1.1-0.3-1.5-0.6l1.3,0.9c0.9,0.6,2.1,0.7,2.9,0.7
			c0.2,0,0.3,0,0.5,0l0.3,0c0.7,0,2.2-0.1,3.3-0.1c0,0.1,0,0.1,0,0.2c-0.1,0.8-0.1,1.5-0.2,2.2c0,0.1,0,0.2,0,0.3c0,0.2,0,0.3,0,0.5
			c0,0,0,0,0,0c0,0,0,0,0,0.1c0,0,0,0.1,0,0.1c0,0,0,0.1,0,0.1c0,0,0,0.1,0,0.1c0,0,0,0,0,0c0,0,0,0,0,0c0,0.1,0,0.2,0.1,0.3
			c0,0,0,0,0,0c0,0,0,0,0,0c0,0,0,0,0,0c0,0,0,0.1,0.1,0.1c0,0,0,0,0,0c0,0,0,0,0,0l0.1,0.1c0,0,0.1,0.1,0.1,0.1l1.1,0.8
			c-0.1,0-0.1,0-0.2,0c-0.4-0.1-0.9-0.2-1.2-0.5l0,0c0,0,0,0,0,0l0.3,0.2l1,0.7c0.3,0.2,0.8,0.4,1.2,0.5c0.1,0,0.3,0,0.5,0
			c0.1,0,0.2,0,0.3,0c0,0,0.1,0,0.1,0c0,0,0.1,0,0.1,0c0,0,0.1,0,0.1,0c0,0,0.1,0,0.1,0c0,0,0.1,0,0.1,0c0,0,0.1,0,0.1,0h0
			c0,0,0,0,0,0c0.1,0,0.1,0,0.1-0.1c0,0,0.1,0,0.1,0c0,0,0.1,0,0.1-0.1c0,0,0.1,0,0.1-0.1c0,0,0.1-0.1,0.1-0.1c0,0,0.1,0,0.1-0.1
			c0.1,0,0.1-0.1,0.2-0.2c0.1-0.1,0.1-0.1,0.2-0.2c0,0,0,0,0,0c0,0,0-0.1,0-0.1c0,0,0.1-0.1,0.1-0.2c0,0,0,0,0,0c0,0,0,0,0-0.1
			c0,0,0-0.1,0-0.1c0,0,0-0.1,0-0.1c0,0,0,0,0-0.1c0,0,0,0,0,0c0-0.1,0-0.2,0-0.2v0c0-0.1,0-0.1,0-0.2c0,0,0,0,0,0
			c0-0.1,0-0.2,0-0.4c0,0,0-0.1,0-0.1c0-0.1,0-0.2,0-0.3c0-0.1,0-0.2,0-0.3c0,0,0-0.1,0-0.1c0-0.2,0-0.3,0-0.5c0,0,0,0,0,0
			c0-0.7,0-1.4,0-2c0.1,0,0.3,0,0.4,0c0,0,0.1,0,0.1,0c0.1,0,0.2,0,0.3,0c0,0,0,0,0,0c0,0,0,0,0,0c0.2,0,0.4,0,0.5,0
			c0.1,0,0.2,0,0.2,0c0,0,0,0,0.1,0c0.1,0,0.1,0,0.2-0.1c0,0,0,0,0,0c0,0,0,0,0,0c0,0,0,0,0.1,0c0,0,0,0,0,0c0,0,0,0,0,0
			c0,0,0.1,0,0.1-0.1c0,0,0,0,0.1,0c0.1,0,0.1-0.1,0.1-0.1c0,0,0,0,0,0c0,0,0,0,0,0l0,0c0,0,0,0,0,0l0,0c0,0,0,0,0,0l0,0
			c0,0,0,0,0,0c0,0,0.1-0.1,0.1-0.1c0,0,0,0,0,0c0,0,0,0,0,0c0,0,0,0,0,0c0,0,0,0,0,0c0,0,0,0,0.1-0.1c0,0,0,0,0,0l0,0l0,0
			c0-0.1,0.1-0.1,0.1-0.2l0,0c0,0,0,0,0,0c0,0,0,0,0,0c0,0,0,0,0-0.1c0-0.1,0.1-0.1,0.1-0.2c0,0,0,0,0,0c0,0,0-0.1,0-0.1
			c0,0,0-0.1,0-0.1l0,0c0,0,0,0,0,0c0,0,0,0,0,0c0-0.1,0-0.2,0-0.2l0,0C20.6,16,20.6,15.9,20.6,15.8z M17.1,15l0.2,0
			c0.4,0,1,0,1.6,0c0,0,0,0,0,0.1c0,0.1,0,0.2,0,0.2c0,0,0,0,0,0.1c0,0.1,0,0.1,0,0.2c0,0,0,0.1,0,0.1c0,0,0,0.1-0.1,0.1
			c0,0,0,0.1-0.1,0.1c0,0,0,0.1-0.1,0.1c0,0-0.1,0.1-0.1,0.1c0,0-0.1,0.1-0.1,0.1c0,0-0.1,0.1-0.1,0.1c0,0-0.1,0-0.1,0.1
			c-0.1,0-0.1,0.1-0.2,0.1c0,0-0.1,0-0.1,0c-0.1,0-0.2,0-0.3,0.1c-0.4,0-0.7,0-1.2,0c0-0.7,0-1.4,0.1-2L17.1,15z M13.9,22.5
			c-0.2,0-0.3,0-0.5,0c0,0,0-0.1,0-0.1c0,0,0,0,0-0.1c0,0,0-0.1,0-0.1c0,0,0-0.1,0-0.1c0,0,0-0.1,0-0.1c0,0,0-0.1,0-0.1
			c0-0.2,0-0.4,0-0.5c0-0.1,0-0.2,0-0.3c0-0.8,0.1-1.5,0.2-2.2c0-0.4,0.1-0.8,0.1-1.1l0-0.1l-0.1-0.1l0,0l0,0l-1.3-0.9
			c-0.1-0.1-0.3-0.1-1.1-0.1c-1.1,0-2.8,0.1-3.5,0.1l-0.3,0c-0.2,0-0.3,0-0.5,0c-0.6,0-1.3-0.1-2-0.3c0,0,0,0,0,0
			c0,0-0.1-0.1-0.1-0.1c0,0,0,0,0,0c0,0,0-0.1,0-0.1c0-0.1-0.1-0.2-0.1-0.2c0,0,0,0,0-0.1c0,0,0-0.1,0-0.1c0,0,0,0,0-0.1
			c0-0.1,0-0.1,0-0.2c0,0,0,0,0,0c0-0.1,0-0.1,0-0.2c0,0,0,0,0,0c0-0.1,0.1-0.2,0.1-0.3c0,0,0,0,0,0c0-0.1,0.1-0.2,0.1-0.2
			c0,0,0,0,0,0c0-0.1,0.1-0.1,0.1-0.2c0,0,0,0,0-0.1c0-0.1,0.1-0.1,0.1-0.2c0,0,0,0,0-0.1c0-0.1,0.1-0.1,0.1-0.2c0,0,0,0,0,0l0,0
			c0.1-0.1,0.1-0.1,0.1-0.2c0.1-0.2,0.3-0.4,0.4-0.6c0.3-0.4,0.5-0.7,0.8-1.1C6.9,11.7,7,11.6,7,11.5c0.3-0.4,0.5-0.7,0.8-1.1
			c0.6-0.8,1.2-1.6,1.8-2.4c1.4-2,3-4.2,4.9-5.8c0.2-0.2,0.5-0.4,0.7-0.5c0,0.1,0.1,0.3,0.1,0.4c0,0,0,0.1,0,0.1
			c0,0.1,0.1,0.3,0.1,0.4c0,0,0,0.1,0,0.1c0,0.1,0,0.3,0.1,0.5c0,0,0,0.1,0,0.1c0,0.2,0,0.4,0,0.6c0,0.1,0,0.1,0,0.2
			c0,0.1,0,0.3,0,0.4c0,0.1,0,0.2,0,0.3c0,0.1,0,0.2,0,0.4c0,0.1,0,0.3,0,0.4c0,0.1,0,0.2,0,0.3c0,0.2,0,0.3,0,0.5
			c0,0.1,0,0.2,0,0.3c0,0.2,0,0.3,0,0.5c0,0.1,0,0.2,0,0.2c0,0.2,0,0.4,0,0.6c0,0.2,0,0.3,0,0.5c0,0.1,0,0.3,0,0.4
			c0,0.2,0,0.3,0,0.5c0,0.1,0,0.2,0,0.3c0,0.2,0,0.4,0,0.6c0,0.1,0,0.1,0,0.2c0,0.3,0,0.5,0,0.8c0,0.7,0,1.4,0,2.1
			c0,0.7,0,1.4-0.1,2.1c0,0,0,0,0,0v0c0,0.3,0,0.6,0,0.9c-0.1,1.1-0.1,2.2-0.3,3.3c0,0.1,0,0.1,0,0.2c0,0,0,0,0,0c0,0.1,0,0.2,0,0.3
			c0,0,0,0,0,0c0,0.1,0,0.2,0,0.2c0,0,0,0.1,0,0.1c0,0.1,0,0.1,0,0.2c0,0.1,0,0.1,0,0.2c0,0.1,0,0.1,0,0.2c0,0.1,0,0.1,0,0.2
			c0,0.1,0,0.1-0.1,0.2c0,0.1,0,0.1,0,0.2c0,0.1-0.1,0.2-0.1,0.2c0,0,0,0.1,0,0.1L13.9,22.5z"/>
	</g>
	<g>
		<linearGradient id="SVGID_3_" gradientUnits="userSpaceOnUse" x1="5.2268" y1="5.0399" x2="20.227" y2="18.7109">
			<stop  offset="2.040820e-02" style="stop-color:#FF9500"/>
			<stop  offset="1" style="stop-color:#BA4321"/>
		</linearGradient>
		<path class="st3" d="M10.2,9c-0.5,0.7-1,1.4-1.5,2.1c-0.6,0.7-1.1,1.5-1.6,2.3l-0.2,0.3l0.4,0c0.8,0,1.7,0,2.5,0
			c0.4,0,0.8,0,1.3,0c0.5,0,0.9,0,1.4,0l0.2,0l0-0.2c0.1-1.2,0.1-2.1,0.1-2.9c0-1.5,0.1-3.1,0.3-4.7l0.1-0.7l-0.4,0.6
			C11.9,6.7,11,7.9,10.2,9z M12.4,10.4c0,0.8-0.1,1.7-0.1,2.8c-0.4,0-0.8,0-1.2,0c-0.4,0-0.8,0-1.3,0c-0.7,0-1.4,0-2.2,0
			C8,12.6,8.5,12,9,11.3c0.5-0.7,1-1.4,1.5-2.1c0.7-1,1.4-1.9,2.1-2.8C12.5,7.8,12.4,9.1,12.4,10.4z"/>
		<linearGradient id="SVGID_4_" gradientUnits="userSpaceOnUse" x1="5.5265" y1="4.7105" x2="20.5272" y2="18.382">
			<stop  offset="2.040820e-02" style="stop-color:#FF9500"/>
			<stop  offset="1" style="stop-color:#BA4321"/>
		</linearGradient>
		<path class="st4" d="M18,13.8c-0.6,0-1.3-0.1-1.8-0.1c0-2.1,0-4.3,0.1-6.5l0-0.5c0-0.3,0-0.6,0-0.9c0-0.3,0-0.8,0.1-1.3
			c0.1-0.8,0.1-1.6,0-2.1c-0.2-1.2-1-2-1.9-2c-0.5,0-1,0.2-1.5,0.7C11.1,2.8,9.5,4.9,8,7C7.4,7.8,6.8,8.6,6.2,9.4
			c-0.7,0.9-1.5,1.9-2.2,2.9c-0.1,0.1-0.1,0.2-0.2,0.3c-0.6,0.8-1.4,2-0.6,3c0.9,1.2,2.5,1.4,3.6,1.4c0.2,0,0.3,0,0.5,0l0.3,0
			c0.7,0,2.4-0.1,3.5-0.1c0.5,0,0.7,0,0.8,0c0,0.3-0.1,0.7-0.1,1c-0.1,0.8-0.1,1.5-0.2,2.3c0,0.1,0,0.2,0,0.2
			c-0.1,0.6-0.1,1.5,0.4,1.9c0.5,0.4,1.1,0.6,1.8,0.6c0.7,0,1.4-0.2,1.9-0.7c0.3-0.3,0.5-0.7,0.5-1.2c0-1.1,0-2.8,0-4
			c0.5,0,1,0,1.4-0.1c1-0.1,1.6-1,1.6-1.8C19.3,14.5,18.9,13.9,18,13.8z M12.4,22c-0.4-0.3-0.3-1-0.3-1.6c0-0.1,0-0.2,0-0.3
			c0-0.8,0.1-1.5,0.2-2.2c0-0.4,0.1-0.8,0.1-1.1l0-0.1l-0.1-0.1c-0.1-0.1-0.1-0.1-1.1-0.1c-1.1,0-2.8,0.1-3.5,0.1l-0.3,0
			c-0.2,0-0.3,0-0.5,0c-1.1,0-2.5-0.2-3.3-1.2c-0.6-0.8,0-1.7,0.6-2.6c0.1-0.1,0.1-0.2,0.2-0.3c0.7-1,1.4-2,2.2-2.9
			C7.1,8.8,7.7,8,8.3,7.2c1.4-2,3-4.2,4.9-5.8c0.4-0.4,0.9-0.6,1.3-0.6c0.1,0,0.2,0,0.3,0C15.4,1,15.9,1.7,16,2.5c0.1,0.5,0,1.3,0,2
			c0,0.5-0.1,1-0.1,1.3c0,0.3,0,0.6,0,0.9l0,0.5c-0.1,2.3-0.1,4.6-0.1,6.7l0,0.2l0.2,0c0.5,0,1.3,0,2,0.1c0.8,0.1,0.9,0.7,0.9,0.9
			c0,0.7-0.5,1.4-1.3,1.4c-0.5,0-1,0-1.6,0.1l-0.2,0l0,0.2c0,1.2,0,3,0,4.2c0,0.3-0.1,0.7-0.4,0.9c-0.3,0.3-0.8,0.5-1.3,0.6
			c-0.1,0-0.2,0-0.3,0C13.3,22.5,12.8,22.3,12.4,22z"/>
	</g>
	<linearGradient id="SVGID_5_" gradientUnits="userSpaceOnUse" x1="6.7722" y1="5.9869" x2="21.773" y2="18.899">
		<stop  offset="3.061220e-02" style="stop-color:#FF9D77"/>
		<stop  offset="0.3243" style="stop-color:#FF9500"/>
		<stop  offset="1" style="stop-color:#BA4321"/>
	</linearGradient>
	<path class="st5" d="M18,14.2c-0.7,0-1.4-0.1-2-0.1l-0.2,0l0-0.2c0-2.1,0-4.4,0.1-6.7l0-0.5c0-0.3,0-0.6,0-0.9c0-0.3,0-0.8,0.1-1.3
		c0.1-0.7,0.1-1.6,0-2c-0.1-0.8-0.6-1.5-1.2-1.7c-0.1,0-0.2,0-0.3,0c-0.4,0-0.8,0.2-1.3,0.6C11.3,3,9.8,5.1,8.3,7.2
		C7.7,8,7.1,8.8,6.5,9.6c-0.7,0.9-1.5,1.9-2.2,2.9c-0.1,0.1-0.1,0.2-0.2,0.3c-0.6,0.8-1.2,1.7-0.6,2.6c0.8,1.1,2.2,1.2,3.3,1.2
		c0.2,0,0.3,0,0.5,0l0.3,0c0.7,0,2.4-0.1,3.5-0.1c1,0,1.1,0.1,1.1,0.1l0.1,0.1l0,0.1c0,0.4-0.1,0.8-0.1,1.1
		c-0.1,0.8-0.1,1.5-0.2,2.2c0,0.1,0,0.2,0,0.3c0,0.6-0.1,1.3,0.3,1.6c0.4,0.3,1,0.5,1.5,0.5c0.1,0,0.2,0,0.3,0c0.5,0,1-0.2,1.3-0.6
		c0.2-0.2,0.4-0.6,0.4-0.9c0-1.2,0-3,0-4.2l0-0.2l0.2,0c0.6,0,1.1,0,1.6-0.1c0.7,0,1.3-0.8,1.3-1.4C18.9,14.9,18.8,14.3,18,14.2z
		 M13,5.8c-0.2,1.6-0.2,3.2-0.3,4.7c0,0.9-0.1,1.8-0.1,2.9l0,0.2l-0.2,0c-0.5,0-0.9,0-1.4,0c-0.4,0-0.8,0-1.3,0c-0.8,0-1.7,0-2.5,0
		l-0.4,0l0.2-0.3c0.5-0.8,1.1-1.5,1.6-2.3c0.5-0.7,1-1.4,1.5-2.1c0.8-1.2,1.7-2.3,2.5-3.4l0.4-0.6L13,5.8z"/>
	<linearGradient id="SVGID_6_" gradientUnits="userSpaceOnUse" x1="14.1432" y1="11.6522" x2="18.8761" y2="11.6522">
		<stop  offset="2.040820e-02" style="stop-color:#FF9500"/>
		<stop  offset="1" style="stop-color:#BA4321"/>
	</linearGradient>
	<path class="st6" d="M14.7,0.8C15.4,1,15.9,1.7,16,2.5c0.1,0.5,0,1.3,0,2c0,0.5-0.1,1-0.1,1.3c0,0.3,0,0.6,0,0.9l0,0.5
		c-0.1,2.3-0.1,4.6-0.1,6.7l0,0.2l0.2,0c0.5,0,1.3,0,2,0.1c0.8,0.1,0.9,0.7,0.9,0.9c0,0.7-0.5,1.4-1.3,1.4c-0.5,0-1,0-1.6,0.1
		l-0.2,0l0,0.2c0,1.2,0,3,0,4.2c0,0.3-0.1,0.7-0.4,0.9c-0.3,0.3-0.8,0.5-1.3,0.6c0.4-0.9,0.6-2.2,0.7-2.8c0.4-2.8,0.4-5.6,0.4-8.4
		C15.3,7.3,16.1,3,14.7,0.8z"/>
</g>
</svg>
