<?xml version="1.0" encoding="utf-8"?>
<!-- Generator: Adobe Illustrator 24.0.1, SVG Export Plug-In . SVG Version: 6.00 Build 0)  -->
<svg version="1.1" id="Capa_1" xmlns="http://www.w3.org/2000/svg" xmlns:xlink="http://www.w3.org/1999/xlink" x="0px" y="0px"
	 viewBox="0 0 25 25" style="enable-background:new 0 0 25 25;" xml:space="preserve">
<style type="text/css">
	.st0{fill:#B4B4B4;}
	.st1{fill:url(#SVGID_1_);}
	.st2{fill:url(#SVGID_2_);}
	.st3{fill:url(#SVGID_3_);}
	.st4{fill:url(#SVGID_4_);}
	.st5{opacity:0.5;fill:url(#SVGID_5_);}
</style>
<g>
	<path class="st0" d="M5.6,22.2L5.6,22.2L5.6,22.2L5.6,22.2L5.6,22.2z M6.7,16.7L6.7,16.7L6.7,16.7z M6.9,23L6.9,23l-0.1,0
		C6.9,22.9,6.9,22.9,6.9,23L6.9,23z M6.6,22.8C6.5,22.8,6.5,22.8,6.6,22.8C6.5,22.8,6.5,22.8,6.6,22.8L6.6,22.8z M14.6,12.1
		L14.6,12.1L14.6,12.1L14.6,12.1L14.6,12.1z M18.8,10.3L18.8,10.3L18.8,10.3L18.8,10.3L18.8,10.3L18.8,10.3z M14.8,1.8
		c-0.5,0-1.1,0-1.6,0c-0.4,0-0.8,0-1.2,0c-0.8,0-1.7,0-2.6,0l-0.2,0c-0.8,0-1.9,0.1-2.6,0.6c-0.9,0.8-1,1.9-1.1,3
		C5.4,6.8,5.2,8.3,5.3,9.8l0,0.2c0,0.8,0.1,2.3,0.8,2.7l0,0l1.3,0.9c0.1,0,0.1,0.1,0.2,0.1c0.1,0,0.2,0.1,0.4,0.1c0,0,0,0,0,0
		c0.4,0,0.8-0.2,1.2-0.5c0.9-0.7,2.1-1.1,3.4-1.1c0,0,0,0,0,0c0.2,0,0.3,0,0.5,0c0.8,0.1,1.7,0.3,2.4,0.6c0.1,0.1,0.3,0.2,0.4,0.4
		c0.7,0.9,1,2,0.8,3.1c-0.4,2.2-2.7,3.4-4.6,3.5c-0.1,0-0.1,0-0.2,0c0,0,0,0,0,0c-0.6,0-1.2-0.2-1.8-0.5c-0.3-0.2-0.6-0.5-0.9-0.7
		c-0.4-0.4-0.8-0.7-1.3-1.1L8,17.6l-1.3-0.9l0,0c-0.3-0.2-0.6-0.3-0.9-0.3c0,0,0,0,0,0c-1,0-1.5,1.3-1.6,2.6c-0.1,1-0.2,1.8,0.6,2.6
		C5,21.8,5.3,22,5.6,22.3l0,0l0,0l1.3,0.9c0.4,0.3,0.9,0.5,1.3,0.7C8.4,23.9,8.5,24,8.6,24c1,0.4,2.2,0.6,3.4,0.6c0,0,0,0,0.1,0
		c1.3,0,2.7-0.2,3.9-0.7c0.2-0.1,0.4-0.2,0.6-0.3c0.1,0,0.1-0.1,0.2-0.1c0.1-0.1,0.3-0.1,0.4-0.2c0.1,0,0.1-0.1,0.2-0.1
		c0.1-0.1,0.3-0.1,0.4-0.2c0.1,0,0.1-0.1,0.2-0.1c0.1-0.1,0.3-0.2,0.4-0.3l0.1-0.1c0.2-0.1,0.3-0.3,0.5-0.4c0,0,0.1-0.1,0.1-0.1
		c0.1-0.1,0.2-0.2,0.3-0.3c0.1-0.1,0.1-0.1,0.2-0.2c0.1-0.1,0.2-0.2,0.3-0.3c0-0.1,0.1-0.1,0.1-0.2c0.1-0.1,0.2-0.3,0.3-0.4l0.1-0.1
		l0,0c0.1-0.2,0.3-0.4,0.4-0.6c0-0.1,0.1-0.1,0.1-0.2c0.1-0.2,0.2-0.3,0.3-0.5c0,0,0-0.1,0.1-0.1l0-0.1c0.1-0.1,0.1-0.3,0.2-0.4
		c0-0.1,0.1-0.1,0.1-0.2c0.1-0.2,0.1-0.4,0.2-0.6l0,0c0.1-0.2,0.1-0.3,0.1-0.5c0-0.2,0.1-0.4,0.1-0.5l0-0.1l0-0.1c0-0.1,0-0.2,0-0.3
		c0,0,0-0.1,0-0.1c0-0.2,0-0.3,0-0.5l0,0l0-0.1c0-0.1,0-0.3,0-0.4c0,0,0-0.1,0-0.1c0-0.1,0-0.3,0-0.4l0,0l0,0c0-0.1,0-0.2,0-0.3
		c0-0.1,0-0.2-0.1-0.2c0-0.1,0-0.2-0.1-0.2c0,0,0-0.1,0-0.1c0-0.1,0-0.1-0.1-0.2c0-0.1,0-0.1-0.1-0.2c0-0.1,0-0.1-0.1-0.2l0,0l0-0.1
		c0-0.1-0.1-0.2-0.1-0.3c0,0,0-0.1-0.1-0.1c0-0.1-0.1-0.2-0.1-0.3c0,0-0.1-0.1-0.1-0.1c-0.1-0.1-0.1-0.2-0.2-0.3c0,0,0-0.1-0.1-0.1
		c-0.1-0.1-0.2-0.2-0.3-0.4c-0.1-0.2-0.3-0.3-0.4-0.5l0,0L20,11.1c-0.1-0.1-0.3-0.3-0.4-0.4c-0.1,0-0.1-0.1-0.2-0.1
		c-0.2-0.2-0.4-0.3-0.6-0.5c-0.4-0.3-0.9-0.6-1.3-0.9l0,0l0,0l0,0c-1.5-1-3.4-1.6-5.4-1.6c0,0,0,0,0,0c-0.2,0-0.4,0-0.5,0
		c0-0.1,0-0.2,0-0.3c0.8,0.1,1.6,0.1,2.3,0.1c0.4,0,0.8,0,1.2,0c0.4,0,0.8,0.1,1.2,0.1c0.6,0.1,1.2,0.1,1.9,0.1l0.2,0
		c0.1,0,0.3,0,0.4,0l0,0l0,0l0.1,0c0.1,0,0.2,0,0.3-0.1l0.1,0l0,0l0,0c0,0,0.1,0,0.1,0l0.1,0c0.1,0,0.2-0.1,0.3-0.1l0,0
		C19.9,7.2,20,7.1,20,7L20.1,7c0.1,0,0.1-0.1,0.2-0.2l0.1-0.1c0.1-0.1,0.1-0.1,0.2-0.2l0.1-0.1c0.1-0.1,0.1-0.2,0.2-0.3l0,0l0,0
		c0-0.1,0.1-0.1,0.1-0.2l0,0c0,0,0.1-0.1,0.1-0.2l0,0l0,0l0,0c0-0.1,0.1-0.1,0.1-0.2c0,0,0-0.1,0-0.1l0,0l0,0c0-0.1,0.1-0.2,0.1-0.3
		l0,0l0-0.1l0,0c0-0.1,0-0.1,0.1-0.2l0,0l0,0c0-0.1,0-0.2,0-0.3l0,0l0,0c0-0.1,0-0.2,0-0.3l0,0l0,0c0-0.1,0-0.2,0-0.2l0-0.1
		c0-0.1,0-0.1-0.1-0.2l0,0c0-0.1,0-0.1-0.1-0.2c0,0,0-0.1-0.1-0.1l-0.1-0.1C21,3.2,20.9,3.1,20.8,3l-1.3-0.9l0,0
		c-0.1-0.1-0.2-0.1-0.4-0.2l-0.1,0c-1.1-0.1-2.3-0.1-3.5-0.1C15.3,1.8,15,1.8,14.8,1.8L14.8,1.8z"/>
	<g>
		<linearGradient id="SVGID_1_" gradientUnits="userSpaceOnUse" x1="10.6993" y1="0.9542" x2="5.9923" y2="27.4152">
			<stop  offset="5.526550e-02" style="stop-color:#3E2857"/>
			<stop  offset="0.1696" style="stop-color:#1B1125"/>
			<stop  offset="0.2488" style="stop-color:#482F65"/>
			<stop  offset="0.958" style="stop-color:#000000"/>
		</linearGradient>
		<path class="st1" d="M5.7,15.9C6.2,16.2,6.6,16.6,7,17c0.5,0.4,1,0.9,1.5,1.3l1.3,0.9c-0.5-0.4-1-0.8-1.6-1.3
			c-0.4-0.4-0.8-0.7-1.3-1.1L7,16.8L5.7,15.9L5.7,15.9L5.7,15.9L5.7,15.9z"/>
		<linearGradient id="SVGID_2_" gradientUnits="userSpaceOnUse" x1="14.3831" y1="1.6071" x2="9.6754" y2="28.0716">
			<stop  offset="5.526550e-02" style="stop-color:#3E2857"/>
			<stop  offset="0.1696" style="stop-color:#1B1125"/>
			<stop  offset="0.2488" style="stop-color:#482F65"/>
			<stop  offset="0.958" style="stop-color:#000000"/>
		</linearGradient>
		<path class="st2" d="M20.9,15.6c0-0.2,0-0.3,0-0.5c0,0,0,0,0,0c0,0,0,0,0-0.1c0-0.1,0-0.3,0-0.4c0,0,0-0.1,0-0.1
			c0-0.1,0-0.3,0-0.4c0,0,0,0,0,0c0,0,0,0,0,0c0-0.1,0-0.2-0.1-0.3c0-0.1,0-0.1,0-0.2c0-0.1,0-0.2-0.1-0.2c0,0,0-0.1,0-0.1
			c0-0.1,0-0.1-0.1-0.2c0-0.1,0-0.1-0.1-0.2c0-0.1,0-0.1-0.1-0.2c0,0,0,0,0,0c0,0,0,0,0-0.1c0-0.1-0.1-0.2-0.1-0.3
			c0,0,0-0.1-0.1-0.1c0-0.1-0.1-0.2-0.1-0.3c0,0-0.1-0.1-0.1-0.1c-0.1-0.1-0.1-0.2-0.2-0.3c0,0,0-0.1-0.1-0.1
			c-0.1-0.1-0.2-0.2-0.3-0.4c-0.1-0.2-0.3-0.3-0.4-0.5c0,0,0,0,0,0c0,0-0.1-0.1-0.1-0.1c-0.1-0.1-0.3-0.3-0.4-0.4
			c-0.1,0-0.1-0.1-0.2-0.1c-0.2-0.2-0.4-0.3-0.6-0.5c-0.4-0.3-0.9-0.6-1.3-0.9c0,0,0,0,0,0l0,0c0.2,0.1,0.4,0.3,0.6,0.5
			c0.1,0,0.1,0.1,0.2,0.1c0.2,0.1,0.3,0.3,0.4,0.4c0,0,0.1,0.1,0.1,0.1c0,0,0,0,0,0c0,0-0.1-0.1-0.1-0.1c-0.4-0.3-0.9-0.6-1.3-0.9
			l0,0l0,0c-0.1,0-0.1-0.1-0.2-0.1c-1.5-0.9-3.3-1.5-5.1-1.5c-0.2,0-0.4,0-0.6,0c0-0.2,0-0.3,0-0.5c0.8,0.1,1.6,0.1,2.3,0.1
			c0.4,0,0.8,0,1.2,0c0.4,0,0.8,0.1,1.2,0.1c0.6,0.1,1.2,0.1,1.9,0.1l0.2,0c0.1,0,0.3,0,0.4,0c0,0,0,0,0,0c0,0,0,0,0,0l0,0l0,0l0,0
			c0,0,0.1,0,0.1,0c0.1,0,0.2,0,0.3-0.1c0,0,0,0,0.1,0l0,0l0,0c0,0,0.1,0,0.1,0c0,0,0.1,0,0.1,0c0.1,0,0.2-0.1,0.3-0.1c0,0,0,0,0,0
			c0.1-0.1,0.2-0.1,0.3-0.2c0,0,0.1,0,0.1-0.1c0.1,0,0.1-0.1,0.2-0.2c0,0,0.1,0,0.1-0.1c0.1-0.1,0.1-0.1,0.2-0.2c0,0,0,0,0.1-0.1
			c0.1-0.1,0.1-0.2,0.2-0.3c0,0,0,0,0,0c0,0,0,0,0,0c0-0.1,0.1-0.1,0.1-0.2l0,0C20,5.2,20,5.1,20,5.1l0,0c0,0,0,0,0,0c0,0,0,0,0,0
			c0-0.1,0.1-0.1,0.1-0.2c0,0,0-0.1,0-0.1c0,0,0,0,0,0c0,0,0,0,0,0c0-0.1,0.1-0.2,0.1-0.3l0,0l0-0.1c0,0,0,0,0,0
			c0-0.1,0-0.1,0.1-0.2c0,0,0,0,0,0c0,0,0,0,0,0c0-0.1,0-0.2,0-0.3c0,0,0,0,0,0c0,0,0,0,0,0c0-0.1,0-0.2,0-0.3c0,0,0,0,0,0
			c0,0,0,0,0,0c0-0.1,0-0.2,0-0.2c0,0,0,0,0-0.1c0-0.1,0-0.1-0.1-0.2c0,0,0,0,0,0c0-0.1,0-0.1-0.1-0.2c0,0,0-0.1-0.1-0.1L20,2.5
			c-0.1-0.1-0.2-0.2-0.3-0.2l-1.3-0.9c0.1,0.1,0.2,0.2,0.3,0.2l0.1,0.1c0,0,0,0.1,0.1,0.1c0,0,0,0.1,0.1,0.1l-0.6-0.4
			c-0.1-0.1-0.2-0.1-0.3-0.2c-0.2,0-0.4,0-0.6,0c0,0.1,0,0.1,0,0.2c-0.9,0-1.9-0.1-2.9-0.1c-0.8,0-1.6,0-2.4,0c-0.4,0-0.8,0-1.2,0
			c-0.8,0-1.7,0-2.6,0l-0.2,0c-0.8,0-1.8,0-2.3,0.5C5.8,2.1,5.7,2.2,5.6,2.3c0,0,0,0-0.1,0.1c0,0,0,0.1-0.1,0.1c0,0,0,0.1,0,0.1
			c0,0.1-0.1,0.1-0.1,0.2c0,0,0,0,0,0.1c0,0,0,0,0,0.1c0,0.1-0.1,0.2-0.1,0.3c0,0,0,0,0,0.1c0,0,0,0,0,0c0,0.1,0,0.1,0,0.2
			c0,0.1,0,0.1,0,0.2c0,0.1,0,0.1,0,0.2c0,0.1,0,0.1,0,0.1c0,0,0,0,0,0c0,0.3-0.1,0.5-0.1,0.8c0,0.3-0.1,0.6-0.1,0.9
			c0,0.1,0,0.2,0,0.2c0,0.3-0.1,0.6-0.1,0.9c0,0,0,0,0,0c0,0.2,0,0.5,0,0.7c0,0.1,0,0.2,0,0.2c0,0.1,0,0.2,0,0.2c0,0.3,0,0.7,0,1
			l0,0.2c0,0.1,0,0.1,0,0.2c0,0,0,0,0,0.1c0,0.1,0,0.1,0,0.2c0,0,0,0,0,0.1c0,0.1,0,0.2,0,0.3c0,0,0,0,0,0.1c0,0.1,0,0.2,0,0.3
			c0,0,0,0,0,0c0,0,0,0,0,0c0,0.1,0,0.1,0,0.2c0,0,0,0,0,0.1c0,0.1,0,0.1,0,0.1c0,0,0,0,0,0.1c0,0.1,0,0.1,0,0.2c0,0,0,0,0,0
			c0,0.1,0,0.1,0.1,0.2c0,0,0,0,0,0c0,0,0,0,0,0c0,0,0,0.1,0.1,0.1c0,0,0,0,0,0c0,0,0.1,0.1,0.1,0.1c0,0,0,0,0,0l0,0
			c0,0,0.1,0.1,0.1,0.1L5.9,12c-0.1,0-0.2,0-0.3,0c-0.1,0-0.3,0-0.4-0.1c-0.1,0-0.1-0.1-0.2-0.1l1.3,0.9c0.1,0,0.1,0.1,0.2,0.1
			C6.7,13,6.9,13,7,13c0.4,0,0.8-0.2,1.3-0.5c0.9-0.7,2.2-1.1,3.5-1.1c0.2,0,0.3,0,0.5,0c1.1,0.1,2.2,0.5,3.1,1L14,11.5
			c-0.1-0.1-0.3-0.2-0.4-0.3c0,0-0.1,0-0.1-0.1c0.5,0.1,0.9,0.3,1.4,0.5c0.1,0.1,0.2,0.1,0.2,0.2c0.1,0.1,0.1,0.2,0.2,0.2
			c0.1,0.1,0.2,0.2,0.3,0.3c0,0,0,0.1,0.1,0.1c0.1,0.1,0.1,0.2,0.2,0.3c0,0,0,0.1,0,0.1c0.1,0.1,0.1,0.2,0.2,0.4
			c0,0.1,0.1,0.2,0.1,0.3c0,0.1,0,0.1,0.1,0.2c0,0.1,0,0.2,0.1,0.3c0,0,0,0.1,0,0.1c0,0,0,0,0,0c0,0.1,0,0.2,0,0.4c0,0,0,0.1,0,0.1
			c0,0.1,0,0.2,0,0.3c0,0,0,0.1,0,0.1c0,0.1,0,0.3-0.1,0.4c0,0.2-0.1,0.3-0.1,0.5c0,0,0,0.1,0,0.1c0,0.1-0.1,0.3-0.2,0.4
			c0,0.1-0.1,0.1-0.1,0.2c0,0,0,0.1-0.1,0.1c0,0.1-0.1,0.2-0.1,0.2c0,0,0,0.1-0.1,0.1c0,0,0,0.1-0.1,0.1c-0.1,0.1-0.2,0.2-0.3,0.4
			c0,0-0.1,0.1-0.1,0.1c-0.1,0.1-0.3,0.3-0.4,0.4c0,0,0,0-0.1,0c-0.1,0.1-0.3,0.2-0.4,0.3c0,0-0.1,0.1-0.1,0.1
			c-0.2,0.1-0.3,0.2-0.5,0.3c0,0,0,0-0.1,0c-0.2,0.1-0.3,0.1-0.5,0.2c0,0-0.1,0-0.1,0.1c-0.2,0.1-0.3,0.1-0.5,0.2c0,0,0,0,0,0
			c-0.2,0-0.3,0.1-0.5,0.1c0,0-0.1,0-0.1,0c-0.2,0-0.4,0-0.5,0.1c-0.1,0-0.1,0-0.2,0c-0.7,0-1.4-0.2-2-0.5c-0.3-0.2-0.6-0.5-0.9-0.8
			c-0.4-0.4-0.8-0.7-1.2-1l-0.1-0.1c-0.4-0.3-0.9-0.6-1.3-0.9c-0.3-0.2-0.5-0.3-0.7-0.3c-0.1,0-0.1,0-0.2,0c0,0,0,0,0,0
			c-0.1,0-0.1,0-0.2,0.1c0,0,0,0,0,0c-0.1,0-0.1,0.1-0.1,0.1c0,0,0,0,0,0c-0.1,0.1-0.2,0.3-0.3,0.5c0,0,0,0,0,0c0,0,0,0,0,0
			c-0.1,0.1-0.1,0.3-0.2,0.4c0,0,0,0,0,0c0,0,0,0,0,0c0,0.1-0.1,0.2-0.1,0.3c0,0,0,0,0,0.1c0,0.1,0,0.2-0.1,0.3c0,0,0,0,0,0
			c0,0,0,0,0,0c0,0.1,0,0.2,0,0.4c0,0.1,0,0.3,0,0.4c0,0,0,0.1,0,0.1c0,0.1,0,0.2,0,0.3c0,0,0,0,0,0.1c0,0,0,0.1,0,0.1
			c0,0,0,0.1,0,0.1c0,0.1,0,0.1,0,0.2c0,0,0,0.1,0,0.1c0,0,0,0,0,0c0,0.1,0,0.2,0,0.2c0,0,0,0,0,0c0,0.1,0,0.1,0.1,0.2c0,0,0,0,0,0
			c0,0.1,0.1,0.1,0.1,0.2c0,0,0,0.1,0.1,0.1c0.1,0.1,0.1,0.2,0.2,0.3L4,20.5c0.1,0.1,0.1,0.1,0.2,0.2c0,0,0.1,0.1,0.1,0.1
			c0.1,0.1,0.3,0.2,0.4,0.3l0,0c0,0,0,0,0,0l0,0L6.1,22c0.3,0.2,0.7,0.4,1,0.6c-0.3-0.1-0.6-0.2-0.9-0.3c-0.1,0-0.3-0.1-0.4-0.2
			C5.4,22,5,21.7,4.5,21.4l0,0c0,0,0,0,0,0l1.3,0.9c0.4,0.3,0.9,0.5,1.3,0.7c0.1,0.1,0.3,0.1,0.4,0.2c1,0.4,2.2,0.6,3.4,0.6
			c1.4,0,2.7-0.2,3.9-0.7c0.2-0.1,0.4-0.2,0.6-0.3c0.1,0,0.1-0.1,0.2-0.1c0.1-0.1,0.3-0.1,0.4-0.2c0.1,0,0.1-0.1,0.2-0.1
			c0.1-0.1,0.3-0.1,0.4-0.2c0.1,0,0.1-0.1,0.2-0.1c0.2-0.1,0.3-0.2,0.4-0.3c0,0,0.1,0,0.1-0.1c0.2-0.1,0.3-0.3,0.5-0.4
			c0,0,0.1-0.1,0.1-0.1c0.1-0.1,0.2-0.2,0.3-0.3c0.1-0.1,0.1-0.1,0.2-0.2c0.1-0.1,0.2-0.2,0.3-0.3c0-0.1,0.1-0.1,0.1-0.2
			c0.1-0.1,0.2-0.2,0.3-0.4c0,0,0.1-0.1,0.1-0.1c0,0,0,0,0,0c0.1-0.2,0.3-0.4,0.4-0.6c0-0.1,0.1-0.1,0.1-0.2
			c0.1-0.2,0.2-0.3,0.3-0.5c0,0,0-0.1,0.1-0.1c0,0,0,0,0-0.1c0.1-0.1,0.1-0.3,0.2-0.4c0-0.1,0-0.1,0.1-0.2c0.1-0.2,0.1-0.4,0.2-0.6
			c0,0,0,0,0,0c0.1-0.2,0.1-0.3,0.1-0.5c0-0.2,0.1-0.4,0.1-0.5c0,0,0,0,0-0.1c0,0,0,0,0-0.1c0-0.1,0-0.2,0-0.4
			C20.9,15.7,20.9,15.6,20.9,15.6z"/>
	</g>
	<linearGradient id="SVGID_3_" gradientUnits="userSpaceOnUse" x1="3.038" y1="11.986" x2="19.5897" y2="11.986">
		<stop  offset="2.551020e-02" style="stop-color:#D5C0FF"/>
		<stop  offset="0.3868" style="stop-color:#D58BFF"/>
		<stop  offset="0.9631" style="stop-color:#6A2191"/>
	</linearGradient>
	<path class="st3" d="M18.2,10c-1.6-2-4.3-3.3-7.2-3.3c-0.7,0-1.3,0.1-2,0.2c0-0.1,0-0.2,0-0.3c0-0.4,0.1-0.8,0.1-1.1
		c0.8,0.1,1.6,0.1,2.3,0.1c0.4,0,0.8,0,1.2,0c0.4,0,0.8,0.1,1.2,0.1c0.6,0.1,1.2,0.1,1.9,0.1l0.2,0c1.4,0,2.7-1.2,2.9-2.5
		c0.2-0.6,0.2-1.2-0.1-1.7c0,0,0-0.1-0.1-0.1l-0.1-0.1c-0.2-0.2-0.4-0.3-0.6-0.4l-0.1,0C16.9,1.1,15.7,1,14.5,1c-0.8,0-1.6,0-2.4,0
		c-0.4,0-0.8,0-1.2,0c-0.8,0-1.7,0-2.6,0l-0.2,0c-0.8,0-1.9,0.1-2.6,0.6c-0.9,0.8-1,1.9-1.1,3C4.3,6,4.2,7.5,4.3,9l0,0.2
		c0.1,0.9,0.1,2.6,1,2.8c0.1,0,0.2,0.1,0.4,0.1c0.4,0,0.8-0.2,1.3-0.5c0.9-0.7,2.2-1.1,3.5-1.1c1.8,0,3.6,0.8,4.6,1.9
		c0.7,0.9,1,2,0.8,3.1c-0.4,2.2-2.7,3.4-4.6,3.5c-0.1,0-0.1,0-0.2,0C9.4,19.1,8.2,18,7,17c-0.4-0.4-0.8-0.7-1.3-1.1
		c-0.3-0.3-0.7-0.4-1-0.4c-1,0-1.5,1.3-1.6,2.6c-0.1,1-0.2,1.8,0.6,2.6c0.8,0.8,1.8,1.3,2.6,1.6c1,0.4,2.2,0.6,3.4,0.6
		c1.4,0,2.7-0.2,3.9-0.7c2.9-1.1,5-3.5,5.8-6.4C19.9,13.7,19.5,11.7,18.2,10z M13.5,21.9c-1.2,0.4-2.5,0.7-3.8,0.7
		c-1.2,0-2.3-0.2-3.3-0.6c-0.7-0.3-1.7-0.7-2.4-1.5c-0.6-0.7-0.5-1.4-0.5-2.3c0.1-1,0.5-2.2,1.2-2.2c0.2,0,0.5,0.1,0.8,0.3
		c0.4,0.3,0.8,0.7,1.2,1c1.2,1.1,2.5,2.2,4.2,2.2c0.1,0,0.1,0,0.2,0c2.2-0.1,4.6-1.4,5-3.8c0.2-1.3-0.1-2.5-0.9-3.5
		c-1.1-1.3-2.9-2.1-4.8-2.1c-1.4,0-2.7,0.4-3.7,1.2c-0.3,0.3-0.7,0.4-1,0.4c-0.1,0-0.2,0-0.3,0c-0.6-0.2-0.7-1.8-0.7-2.5l0-0.2
		C4.6,7.5,4.7,6,4.8,4.7c0.1-1,0.2-2.1,1-2.7c0.6-0.5,1.6-0.5,2.3-0.5l0.2,0c0.9,0,1.7,0,2.6,0c0.4,0,0.8,0,1.2,0c0.8,0,1.6,0,2.4,0
		c1.1,0,2,0,2.9,0.1v0c0.2,0,0.4,0,0.5,0c0.2,0.1,0.4,0.2,0.5,0.4l0,0.1c0.2,0.4,0.2,0.9,0.1,1.4c-0.1,1-1.3,2.1-2.5,2.1l-0.2,0
		c-0.6,0-1.2-0.1-1.8-0.1c-0.4,0-0.8-0.1-1.3-0.1c-0.4,0-0.8,0-1.3,0c-0.8,0-1.7,0-2.5-0.2l-0.2,0l0,0.2c0,0.4,0,0.8-0.1,1.3
		c0,0.2,0,0.4,0,0.6l0,0.3l0.2-0.1c0.7-0.2,1.4-0.2,2.1-0.2c2.7,0,5.3,1.2,6.9,3.2c1.2,1.6,1.6,3.5,1.1,5.5
		c-0.2,0.7-0.4,1.3-0.7,1.9C17.3,19.6,15.6,21.1,13.5,21.9z"/>
	<linearGradient id="SVGID_4_" gradientUnits="userSpaceOnUse" x1="-4.9672" y1="-1.2528" x2="26.9684" y2="23.3033">
		<stop  offset="2.264030e-02" style="stop-color:#D25CFF"/>
		<stop  offset="0.9337" style="stop-color:#995995"/>
	</linearGradient>
	<path class="st4" d="M17.9,10.3c-1.5-1.9-4.1-3.2-6.9-3.2c-0.7,0-1.4,0.1-2.1,0.2L8.7,7.4l0-0.3c0-0.2,0-0.4,0-0.6
		c0-0.5,0.1-0.9,0.1-1.3l0-0.2l0.2,0c0.8,0.1,1.7,0.1,2.5,0.2c0.4,0,0.8,0,1.3,0c0.4,0,0.8,0.1,1.3,0.1c0.6,0.1,1.2,0.1,1.8,0.1
		l0.2,0c1.3,0,2.4-1.1,2.6-2.2c0.2-0.5,0.1-1-0.1-1.4l-0.1-0.1c-0.1-0.1-0.3-0.2-0.5-0.3c-0.2,0-0.4,0-0.5,0c-0.9,0-1.9-0.1-2.9-0.1
		c-0.8,0-1.6,0-2.4,0c-0.4,0-0.8,0-1.2,0c-0.8,0-1.7,0-2.6,0l-0.2,0c-0.8,0-1.8,0-2.3,0.5C5.1,2.7,5,3.7,4.8,4.8
		C4.7,6,4.6,7.5,4.7,8.9l0,0.2c0,0.6,0.1,2.3,0.7,2.5c0.1,0,0.2,0,0.3,0c0.3,0,0.7-0.1,1-0.4c1-0.8,2.3-1.2,3.7-1.2
		c1.9,0,3.8,0.8,4.8,2.1c0.8,1,1.1,2.2,0.9,3.5c-0.4,2.4-2.8,3.7-5,3.8c-0.1,0-0.1,0-0.2,0c-1.7,0-3-1.1-4.2-2.2
		c-0.4-0.4-0.8-0.7-1.2-1C5.2,16,5,15.9,4.7,15.9c-0.8,0-1.2,1.2-1.2,2.2c-0.1,0.9-0.2,1.6,0.5,2.3c0.7,0.8,1.7,1.3,2.4,1.5
		c1,0.4,2.1,0.6,3.3,0.6c1.3,0,2.6-0.2,3.8-0.7c2.1-0.8,3.8-2.3,4.8-4.2c0.3-0.6,0.6-1.2,0.7-1.9C19.5,13.7,19.1,11.9,17.9,10.3z"/>
	<linearGradient id="SVGID_5_" gradientUnits="userSpaceOnUse" x1="7.3305" y1="9.565" x2="19.2089" y2="9.565">
		<stop  offset="2.264030e-02" style="stop-color:#D25CFF"/>
		<stop  offset="0.9337" style="stop-color:#995995"/>
	</linearGradient>
	<path class="st5" d="M17.4,1.5c0.2,0,0.4,0,0.5,0c0.2,0.1,0.4,0.2,0.5,0.3l0.1,0.1c0.2,0.4,0.2,0.9,0.1,1.4c-0.1,1-1.3,2.2-2.6,2.2
		l-0.2,0c-0.6,0-1.2-0.1-1.8-0.1c-0.4,0-0.8-0.1-1.3-0.1c-0.4,0-0.8,0-1.3,0c-0.8,0-1.7,0-2.5-0.2l-0.2,0l0,0.2c0,0.4,0,0.8-0.1,1.3
		c0,0.2,0,0.4,0,0.6l0,0.3l0.2-0.1c0.7-0.2,1.4-0.2,2.1-0.2c2.7,0,5.3,1.2,6.9,3.2c1.2,1.6,1.6,3.5,1.1,5.5
		c-0.2,0.7-0.4,1.3-0.7,1.9c0.2-0.6,0.3-1.2,0.4-1.8C19,13,17.8,10.5,15.4,9c-1.5-0.9-3.2-1.4-5-1.4C9.4,7.6,8.5,7.7,7.6,8
		C7.4,7.1,7.3,6.1,7.3,5.2c0-0.4,0.3-0.5,0.6-0.5c0.1,0,0.2,0,0.3,0c0.1,0,0.2,0,0.3,0c0.5,0,1,0,1.5,0c1.8-0.1,3.6-0.2,5.3-0.7
		c1.1-0.3,2-0.8,2.2-2C17.5,1.9,17.4,1.7,17.4,1.5z"/>
</g>
</svg>
