<?xml version="1.0" encoding="utf-8"?>
<!-- Generator: Adobe Illustrator 24.0.1, SVG Export Plug-In . SVG Version: 6.00 Build 0)  -->
<svg version="1.1" id="Capa_1" xmlns="http://www.w3.org/2000/svg" xmlns:xlink="http://www.w3.org/1999/xlink" x="0px" y="0px"
	 viewBox="0 0 25 25" style="enable-background:new 0 0 25 25;" xml:space="preserve">
<style type="text/css">
	.st0{fill:#B4B4B4;}
	.st1{fill:url(#SVGID_1_);}
	.st2{fill:url(#SVGID_2_);}
	.st3{fill:url(#SVGID_3_);}
	.st4{opacity:0.6;fill:url(#SVGID_4_);}
	.st5{fill:url(#SVGID_5_);}
	.st6{fill:url(#SVGID_6_);}
</style>
<g>
	<path class="st0" d="M9,22.2L9,22.2L9,22.2L9,22.2L9,22.2z M9,22.2L9,22.2L9,22.2L9,22.2z M13.4,18.9
		C13.4,18.9,13.4,18.9,13.4,18.9c-0.5,0-1-0.1-1.5-0.3l-0.1-0.1c0,0-0.1-0.1-0.1-0.1l-0.1-0.1c0,0-0.1-0.1-0.1-0.1
		c0,0,0-0.1-0.1-0.1c0,0,0-0.1-0.1-0.1c0,0,0-0.1-0.1-0.1c0,0,0-0.1,0-0.1c0-0.1-0.1-0.2-0.1-0.3c0-0.1,0-0.2,0-0.3
		c0-0.1,0-0.2,0-0.4l0-0.1c0-0.1,0-0.2,0-0.3c0,0,0-0.1,0-0.1c0-0.1,0-0.2,0.1-0.3l0-0.1c0-0.1,0.1-0.2,0.1-0.3l0-0.1
		c0.1-0.1,0.1-0.3,0.2-0.4c0,0,0.1-0.1,0.1-0.1l0.1-0.1c0,0,0.1-0.1,0.1-0.1l0.1-0.1c0,0,0.1-0.1,0.1-0.1l0.1-0.1
		c0,0,0.1-0.1,0.1-0.1l0.1-0.1c0,0,0.1-0.1,0.1-0.1l0.1-0.1c0,0,0.1-0.1,0.1-0.1l0.1,0c0.1,0,0.1-0.1,0.2-0.1l0.1,0
		c0.1,0,0.2-0.1,0.2-0.1c0.2-0.1,0.5-0.1,0.7-0.1c0,0,0,0,0,0c0.3,0,0.5,0,0.7,0.1c0.5,0.5,0.8,1.2,0.9,1.9c0.3,1.7-0.8,2.7-1.5,2.9
		C14,18.8,13.7,18.9,13.4,18.9L13.4,18.9z M17.9,11.6c-0.1-0.1-0.2-0.2-0.3-0.3C17.8,11.4,17.8,11.5,17.9,11.6L17.9,11.6L17.9,11.6z
		 M17.5,11.2c-0.1-0.1-0.3-0.2-0.4-0.4C17.2,11,17.4,11.1,17.5,11.2L17.5,11.2L17.5,11.2z M18.8,3.7L18.8,3.7L18.8,3.7L18.8,3.7
		L18.8,3.7z M18.7,3.5c-0.1-0.1-0.1-0.2-0.2-0.3l0,0l0,0C18.6,3.3,18.7,3.4,18.7,3.5L18.7,3.5z M18.2,2.8L18.2,2.8L18.2,2.8
		L18.2,2.8L18.2,2.8z M13.6,1.4c-1.7,0-3.5,0.5-4.9,1.6c-3.5,2.6-4.6,7.6-4.1,11.3c0.3,2.5,1,4.3,2.1,5.7c0.5,0.7,1.4,1.6,2.4,2.2
		c0,0-0.1,0-0.1-0.1l0.9,0.6l0.4,0.3c0.1,0,0.1,0.1,0.2,0.1c0.3,0.2,0.7,0.4,1,0.5c0.8,0.3,1.6,0.5,2.5,0.5c0,0,0,0,0,0
		c0.1,0,0.3,0,0.4,0c0,0,0.1,0,0.1,0c0.1,0,0.2,0,0.3,0c0.1,0,0.1,0,0.2,0c0.1,0,0.2,0,0.3,0c0.1,0,0.1,0,0.2,0c0.1,0,0.2,0,0.3-0.1
		c0.1,0,0.1,0,0.2,0c0.1,0,0.2,0,0.2-0.1c0.1,0,0.1,0,0.2-0.1c0.1,0,0.2-0.1,0.2-0.1c0.1,0,0.1,0,0.2-0.1c0.1,0,0.2-0.1,0.2-0.1
		c0.1,0,0.1,0,0.2-0.1c0.1,0,0.2-0.1,0.2-0.1c0,0,0.1,0,0.1-0.1c0.1,0,0.2-0.1,0.3-0.1l0.1,0c0.1-0.1,0.2-0.1,0.4-0.2l0.1-0.1
		c0.1-0.1,0.2-0.1,0.3-0.2c0,0,0.1-0.1,0.1-0.1c0.1-0.1,0.1-0.1,0.2-0.2c0,0,0.1-0.1,0.1-0.1c0.1-0.1,0.1-0.1,0.2-0.2
		c0,0,0.1-0.1,0.1-0.1c0.1-0.1,0.1-0.1,0.2-0.2c0,0,0.1-0.1,0.1-0.1l0.1-0.1l0,0v0l0-0.1c0.1-0.1,0.1-0.2,0.2-0.3
		c0,0,0.1-0.1,0.1-0.1l0,0c0.1-0.1,0.2-0.2,0.2-0.4c0.1-0.1,0.2-0.3,0.2-0.4l0,0c0.1-0.1,0.1-0.3,0.2-0.4c0,0,0-0.1,0-0.1
		c0-0.1,0.1-0.2,0.1-0.2l0-0.1c0-0.1,0-0.1,0-0.2c0-0.1,0-0.2,0.1-0.3c0-0.1,0-0.1,0-0.2c0,0,0-0.1,0-0.1c0,0,0-0.1,0-0.1
		c0-0.1,0-0.2,0-0.2c0-0.1,0-0.2,0-0.3c0-0.1,0-0.2,0-0.2c0,0,0-0.1,0-0.1c0,0,0-0.1,0-0.1c0-0.1,0-0.2,0-0.4c0-0.1,0-0.1,0-0.2
		c0-0.1,0-0.3,0-0.4c0,0,0-0.1,0-0.1l0,0c0-0.1,0-0.1,0-0.2c0-0.1,0-0.2-0.1-0.3c0-0.1,0-0.1-0.1-0.2c0-0.1,0-0.2-0.1-0.3
		c0-0.1,0-0.1-0.1-0.2c0-0.1-0.1-0.2-0.1-0.3c0-0.1-0.1-0.1-0.1-0.2c0-0.1,0-0.1-0.1-0.2l0-0.1c-0.1-0.2-0.1-0.3-0.2-0.5l0-0.1
		c-0.1-0.2-0.2-0.4-0.3-0.5c0,0-0.1-0.1-0.1-0.1c0-0.1-0.1-0.1-0.1-0.2l0,0l0,0c0,0-0.1-0.1-0.1-0.1c0-0.1-0.1-0.1-0.1-0.2
		c-0.1-0.1-0.2-0.2-0.3-0.3l-0.1-0.1l0,0c-0.1-0.1-0.2-0.2-0.3-0.3c0,0-0.1-0.1-0.1-0.1c-0.1-0.1-0.3-0.2-0.4-0.3
		c0,0-0.1-0.1-0.1-0.1l-0.1-0.1c-0.2-0.1-0.3-0.2-0.5-0.4L17,10.8c-1.1-0.7-2.4-1.1-3.8-1.1c0,0,0,0,0,0c-1,0-2,0.2-2.9,0.6l0-0.1
		c0-0.1,0-0.1,0-0.2c0-0.1,0-0.1,0-0.2c0-0.1,0-0.1,0-0.2c0-0.1,0-0.1,0-0.2c0-0.1,0-0.1,0-0.2c0-0.1,0-0.1,0.1-0.2
		c0-0.1,0-0.1,0.1-0.2c0-0.1,0-0.1,0.1-0.2c0-0.1,0-0.1,0.1-0.2c0,0,0-0.1,0.1-0.1c0-0.1,0.1-0.1,0.1-0.2c0,0,0.1-0.1,0.1-0.1
		C11,8.2,11,8.1,11,8.1c0,0,0.1-0.1,0.1-0.1c0.1-0.1,0.2-0.2,0.2-0.3l0,0c0.1-0.1,0.2-0.2,0.3-0.3l0.1-0.1c0.1-0.1,0.2-0.1,0.2-0.2
		c0,0,0.1,0,0.1-0.1c0.1-0.1,0.2-0.1,0.4-0.2c0.5-0.2,1.1-0.3,1.7-0.3c0,0,0,0,0,0c1,0,2.1,0.3,3.2,0.9l1,0.7
		c0.2,0.1,0.3,0.2,0.5,0.2c0,0,0,0,0,0c0.2,0,0.5-0.1,0.8-0.4l0.1-0.1l0,0v0l0,0l0,0l0-0.1c0,0,0.1-0.1,0.1-0.1l0-0.1l0,0l0,0
		c0-0.1,0.1-0.2,0.1-0.3l0,0l0,0l0,0l0-0.1c0-0.1,0.1-0.2,0.1-0.3l0,0l0,0c0-0.2,0-0.3,0-0.5l0,0l0,0c0,0,0-0.1,0-0.1
		c0-0.1,0-0.1,0-0.2c0,0,0-0.1,0-0.1c0,0,0-0.1,0-0.1l0,0c0-0.1,0-0.1,0-0.2c0,0,0-0.1,0-0.1c0-0.1-0.1-0.2-0.1-0.3l0,0
		c0-0.1-0.1-0.2-0.1-0.2c-0.1-0.1-0.1-0.2-0.2-0.2v0l0,0l0,0c0-0.1-0.1-0.1-0.2-0.2c0,0-0.1-0.1-0.1-0.1l-0.1-0.1
		c-0.1-0.1-0.2-0.2-0.4-0.3l-1.3-0.9l0,0l0,0l0,0c-0.6-0.4-1.3-0.7-2.3-1C14.9,1.5,14.3,1.4,13.6,1.4C13.7,1.4,13.6,1.4,13.6,1.4
		L13.6,1.4z"/>
	<g>
		<linearGradient id="SVGID_1_" gradientUnits="userSpaceOnUse" x1="15.7739" y1="2.4014" x2="10.8786" y2="22.4626">
			<stop  offset="8.510040e-03" style="stop-color:#2E3D21"/>
			<stop  offset="0.166" style="stop-color:#417323"/>
			<stop  offset="0.3604" style="stop-color:#417323"/>
			<stop  offset="0.5365" style="stop-color:#385A22"/>
			<stop  offset="0.6667" style="stop-color:#334C22"/>
			<stop  offset="0.7953" style="stop-color:#1F380B"/>
			<stop  offset="0.886" style="stop-color:#162E00"/>
			<stop  offset="0.9164" style="stop-color:#233B0F"/>
			<stop  offset="0.9423" style="stop-color:#284015"/>
			<stop  offset="0.9494" style="stop-color:#1F3211"/>
			<stop  offset="0.9663" style="stop-color:#0E1707"/>
			<stop  offset="0.9812" style="stop-color:#040602"/>
			<stop  offset="0.9924" style="stop-color:#000000"/>
		</linearGradient>
		<path class="st1" d="M8.5,15.5C8.5,15.5,8.5,15.5,8.5,15.5c0,0.1,0,0.2,0,0.3c0,0.1,0.1,0.2,0.1,0.3c0,0,0,0.1,0,0.1c0,0,0,0,0,0
			c0,0,0,0,0,0.1c0,0,0,0.1,0,0.1c0,0,0,0,0,0.1c0,0,0,0.1,0.1,0.1c0,0,0,0.1,0.1,0.1c0,0,0,0,0,0c0,0,0,0.1,0.1,0.1
			c0,0,0,0.1,0.1,0.1c0,0,0,0,0,0c0,0,0.1,0.1,0.1,0.1c0,0,0.1,0.1,0.1,0.1c0,0,0,0,0,0c0,0,0,0,0,0c0,0,0,0,0,0c0,0,0,0,0,0
			c0,0,0.1,0.1,0.1,0.1c0,0,0.1,0,0.1,0.1c0,0,0,0,0.1,0.1c0,0,0.1,0,0.1,0.1c0,0,0.1,0.1,0.1,0.1c0,0,0.1,0,0.1,0.1l1.3,0.9
			c0.7,0.5,1.6,0.8,2.4,0.8c0.3,0,0.7,0,1-0.1c0.1,0,0.2-0.1,0.3-0.1c0,0,0,0,0,0c0.1-0.1,0.2-0.1,0.3-0.2c0,0,0,0,0.1,0
			c0.1-0.1,0.2-0.2,0.3-0.2c0,0,0,0,0,0c0.1-0.1,0.2-0.2,0.2-0.3c0,0,0,0,0,0c0,0,0,0,0,0c0.1-0.1,0.2-0.2,0.2-0.4c0,0,0,0,0,0
			c0,0,0,0,0,0c0-0.1,0.1-0.2,0.1-0.3c0,0,0,0,0,0c0,0,0,0,0,0c0-0.1,0.1-0.2,0.1-0.4c0,0,0,0,0,0c0,0,0,0,0,0c0-0.1,0-0.2,0-0.4
			c0,0,0,0,0,0c0,0,0,0,0,0c0,0,0-0.1,0-0.1c0-0.1,0-0.1,0-0.2c0,0,0-0.1,0-0.1c0,0,0-0.1,0-0.1l0-0.1c0-0.1-0.1-0.3-0.1-0.4
			c0,0,0-0.1,0-0.1c0-0.1-0.1-0.2-0.1-0.3c0,0,0,0,0,0c0-0.1-0.1-0.1-0.1-0.2c0-0.1,0-0.1-0.1-0.2c0-0.1-0.1-0.1-0.1-0.2
			c0,0,0-0.1-0.1-0.1c0-0.1-0.1-0.2-0.2-0.2c0,0-0.1-0.1-0.1-0.1c-0.1-0.1-0.1-0.1-0.2-0.2c0,0-0.1-0.1-0.1-0.1c0,0,0,0,0,0
			c-0.1-0.1-0.1-0.1-0.2-0.2c0,0-0.1-0.1-0.1-0.1c-0.1-0.1-0.2-0.2-0.3-0.2l0,0l0,0c-0.2-0.1-0.4-0.3-0.6-0.4l-0.7-0.5l0,0
			c0,0,0,0-0.1,0c0,0-0.1,0-0.1-0.1c0,0-0.1-0.1-0.1-0.1c0,0,0,0-0.1,0c0,0,0,0-0.1,0c-0.1,0-0.1-0.1-0.2-0.1c0,0,0,0-0.1,0
			c0,0,0,0,0,0c0,0,0,0,0,0c-0.1,0-0.1,0-0.2-0.1c0,0,0,0,0,0c0,0-0.1,0-0.1,0c0,0-0.1,0-0.1,0c0,0,0,0-0.1,0c-0.1,0-0.2,0-0.3,0
			c-0.3,0-0.5,0-0.8,0.1c-0.1,0-0.2,0.1-0.3,0.1c0,0-0.1,0-0.1,0c-0.1,0-0.1,0.1-0.2,0.1c0,0-0.1,0-0.1,0.1c-0.1,0-0.1,0.1-0.2,0.1
			c0,0-0.1,0-0.1,0.1c0,0-0.1,0.1-0.1,0.1c0,0-0.1,0.1-0.1,0.1c0,0-0.1,0.1-0.1,0.1c0,0-0.1,0.1-0.1,0.1c0,0-0.1,0.1-0.1,0.1
			c0,0-0.1,0.1-0.1,0.1c0,0-0.1,0.1-0.1,0.1c0,0-0.1,0.1-0.1,0.1c0,0,0,0.1-0.1,0.1c0,0,0,0,0,0c0,0-0.1,0.1-0.1,0.1
			c0,0-0.1,0.1-0.1,0.1c0,0,0,0.1-0.1,0.1c0,0,0,0.1,0,0.1c0,0,0,0,0,0c-0.1,0.1-0.1,0.3-0.2,0.4c0,0,0,0,0,0c0,0,0,0,0,0.1
			c0,0.1-0.1,0.2-0.1,0.3c0,0,0,0,0,0.1l0,0l0,0l0,0c0,0,0,0,0,0.1c0,0.1,0,0.2,0,0.3c0,0,0,0.1,0,0.1c0,0,0,0,0,0
			C8.5,15.2,8.5,15.4,8.5,15.5z M12.4,18.1c-0.5,0-1-0.1-1.5-0.3c0,0,0,0-0.1-0.1c0,0-0.1-0.1-0.1-0.1c0,0,0-0.1-0.1-0.1
			c0,0-0.1-0.1-0.1-0.1c0,0,0-0.1-0.1-0.1c0,0,0-0.1-0.1-0.1c0,0,0-0.1-0.1-0.1c0,0,0-0.1,0-0.1c0-0.1-0.1-0.2-0.1-0.3
			c0-0.1,0-0.2,0-0.2c0-0.1,0-0.2,0-0.4c0,0,0-0.1,0-0.1c0-0.1,0-0.2,0-0.3c0,0,0-0.1,0-0.1c0-0.1,0-0.2,0.1-0.3c0,0,0-0.1,0-0.1
			c0-0.1,0.1-0.2,0.1-0.3c0,0,0,0,0-0.1c0.1-0.1,0.1-0.3,0.2-0.4c0,0,0.1-0.1,0.1-0.1c0,0,0-0.1,0.1-0.1c0,0,0.1-0.1,0.1-0.1
			c0,0,0.1-0.1,0.1-0.1c0,0,0.1-0.1,0.1-0.1c0,0,0.1-0.1,0.1-0.1c0,0,0.1-0.1,0.1-0.1c0,0,0.1,0,0.1-0.1c0,0,0.1-0.1,0.1-0.1
			c0,0,0.1,0,0.1-0.1c0,0,0.1-0.1,0.1-0.1c0,0,0.1,0,0.1-0.1c0,0,0.1,0,0.1-0.1c0,0,0.1,0,0.1,0c0.1,0,0.2-0.1,0.2-0.1
			c0.2-0.1,0.5-0.1,0.7-0.1c0.3,0,0.5,0,0.7,0.1c0.5,0.5,0.8,1.2,0.9,1.9c0.3,1.7-0.8,2.7-1.5,2.9C13,18,12.7,18.1,12.4,18.1z
			 M11.5,18.3c0,0-0.1,0-0.1,0C11.4,18.3,11.4,18.3,11.5,18.3z M11.1,18.3c0,0-0.1,0-0.1,0C11.1,18.2,11.1,18.3,11.1,18.3z
			 M10.8,18.2c0,0-0.1,0-0.1-0.1C10.7,18.1,10.8,18.1,10.8,18.2z M15.1,14.6C15,14.6,15,14.6,15.1,14.6C15,14.6,15,14.6,15.1,14.6
			C15.1,14.6,15.1,14.6,15.1,14.6z M14.9,14.2C14.9,14.2,14.9,14.2,14.9,14.2C14.9,14.2,14.9,14.2,14.9,14.2
			C14.9,14.2,14.9,14.2,14.9,14.2z M14.6,13.5C14.5,13.5,14.5,13.5,14.6,13.5C14.5,13.5,14.5,13.5,14.6,13.5
			C14.5,13.5,14.5,13.5,14.6,13.5z M14.3,13.2C14.3,13.2,14.3,13.1,14.3,13.2C14.3,13.1,14.3,13.1,14.3,13.2
			C14.3,13.2,14.3,13.2,14.3,13.2z M14.1,12.9C14.1,12.9,14.1,12.9,14.1,12.9C14.1,12.9,14.1,12.9,14.1,12.9
			C14.1,12.9,14.1,12.9,14.1,12.9z M11.6,18.4c0,0,0.1,0,0.1,0C11.7,18.4,11.7,18.4,11.6,18.4z M12,18.4c0,0,0.1,0,0.1,0
			C12,18.4,12,18.4,12,18.4z"/>
		<linearGradient id="SVGID_2_" gradientUnits="userSpaceOnUse" x1="14.8758" y1="2.1826" x2="9.9805" y2="22.2435">
			<stop  offset="8.510040e-03" style="stop-color:#2E3D21"/>
			<stop  offset="0.166" style="stop-color:#417323"/>
			<stop  offset="0.2662" style="stop-color:#334C22"/>
			<stop  offset="0.333" style="stop-color:#1F380B"/>
			<stop  offset="0.38" style="stop-color:#162E00"/>
			<stop  offset="0.4265" style="stop-color:#203D08"/>
			<stop  offset="0.5317" style="stop-color:#325B17"/>
			<stop  offset="0.6226" style="stop-color:#3D6D20"/>
			<stop  offset="0.688" style="stop-color:#417323"/>
			<stop  offset="0.7025" style="stop-color:#3D6C21"/>
			<stop  offset="0.8385" style="stop-color:#1C320F"/>
			<stop  offset="0.939" style="stop-color:#080E04"/>
			<stop  offset="0.9924" style="stop-color:#000000"/>
		</linearGradient>
		<path class="st2" d="M20.2,17.4c0-0.1,0-0.2,0-0.3c0,0,0-0.1,0-0.1c0,0,0-0.1,0-0.1c0-0.1,0-0.3,0-0.4c0-0.1,0-0.1,0-0.2
			c0-0.1,0-0.3,0-0.4c0,0,0-0.1,0-0.1c0,0,0,0,0,0c0-0.1,0-0.1,0-0.2c0-0.1,0-0.2-0.1-0.3c0-0.1,0-0.1-0.1-0.2c0-0.1,0-0.2-0.1-0.3
			c0-0.1,0-0.1-0.1-0.2c0-0.1-0.1-0.2-0.1-0.3c0-0.1-0.1-0.1-0.1-0.2c0-0.1,0-0.1-0.1-0.2c0,0,0,0,0-0.1c-0.1-0.2-0.1-0.3-0.2-0.5
			c0,0,0,0,0-0.1c-0.1-0.2-0.2-0.4-0.3-0.5c0-0.1-0.1-0.1-0.1-0.1c0-0.1-0.1-0.1-0.1-0.2l0,0l0,0l0,0l0,0c0,0,0,0,0,0
			c0,0-0.1-0.1-0.1-0.1c0-0.1-0.1-0.1-0.1-0.2c-0.1-0.1-0.2-0.2-0.3-0.3c0,0-0.1-0.1-0.1-0.1c0,0,0,0,0,0c-0.1-0.1-0.2-0.2-0.3-0.3
			c0,0-0.1-0.1-0.1-0.1c-0.1-0.1-0.3-0.2-0.4-0.3c0,0-0.1-0.1-0.1-0.1l-0.1-0.1c-0.2-0.1-0.3-0.2-0.5-0.3L15.9,10
			c0,0,0.1,0.1,0.1,0.1c0.1,0.1,0.3,0.2,0.4,0.3c0,0,0.1,0.1,0.1,0.1c0.1,0.1,0.2,0.2,0.3,0.3c0,0,0.1,0.1,0.1,0.1c0,0,0,0,0,0.1
			l-1.2-0.8C14.7,9.4,13.4,9,12.1,9c-1,0-2,0.2-2.9,0.6c0,0,0-0.1,0-0.1c0-0.1,0-0.1,0-0.2c0-0.1,0-0.1,0-0.2c0-0.1,0-0.1,0-0.2
			c0-0.1,0-0.1,0-0.2c0-0.1,0-0.1,0-0.2c0-0.1,0-0.1,0-0.2c0-0.1,0-0.1,0-0.2c0-0.1,0-0.1,0.1-0.2c0-0.1,0-0.1,0.1-0.2
			c0-0.1,0-0.1,0.1-0.2c0-0.1,0-0.1,0.1-0.2c0-0.1,0.1-0.1,0.1-0.2c0,0,0.1-0.1,0.1-0.1c0-0.1,0.1-0.1,0.1-0.2c0,0,0.1-0.1,0.1-0.1
			c0.1-0.1,0.2-0.2,0.2-0.3c0,0,0,0,0,0c0.1-0.1,0.2-0.2,0.3-0.3c0,0,0.1-0.1,0.1-0.1c0.1-0.1,0.2-0.1,0.2-0.2c0,0,0.1,0,0.1-0.1
			c0.1-0.1,0.2-0.1,0.4-0.2c0.5-0.2,1.1-0.4,1.7-0.3c1,0,2.1,0.3,3.2,0.9l1,0.7c0.2,0.1,0.3,0.2,0.5,0.2c0.2,0,0.5-0.1,0.8-0.4
			l0.1-0.1l0,0v0c0,0,0,0,0,0c0,0,0,0,0,0c0,0,0,0,0-0.1c0,0,0-0.1,0.1-0.1c0,0,0-0.1,0-0.1c0,0,0,0,0,0c0,0,0,0,0,0
			c0-0.1,0.1-0.2,0.1-0.3c0,0,0,0,0,0v0c0,0,0,0,0,0l0-0.1c0-0.1,0.1-0.2,0.1-0.3c0,0,0,0,0,0c0,0,0,0,0-0.1c0-0.2,0-0.3,0-0.5
			c0,0,0,0,0-0.1c0,0,0,0,0,0c0,0,0-0.1,0-0.1c0-0.1,0-0.1,0-0.2c0,0,0-0.1,0-0.1c0,0,0-0.1,0-0.1c0,0,0,0,0,0c0-0.1,0-0.1,0-0.2
			c0,0,0-0.1,0-0.1c0-0.1-0.1-0.2-0.1-0.3c0,0,0,0,0,0c0-0.1-0.1-0.2-0.1-0.2c-0.1-0.1-0.1-0.2-0.2-0.2v0l0,0c0,0,0,0,0,0
			c0-0.1-0.1-0.1-0.2-0.2c0,0-0.1-0.1-0.1-0.1c0,0-0.1-0.1-0.1-0.1c-0.1-0.1-0.2-0.2-0.4-0.3l-1.3-0.9c0,0,0,0,0,0c0,0,0,0,0,0
			C16.8,1.8,17,1.9,17.1,2c0,0,0.1,0.1,0.1,0.1c0.1,0.1,0.2,0.2,0.3,0.3c0,0,0,0,0,0.1l0,0l0,0c0.1,0.1,0.1,0.2,0.2,0.2
			c0,0.1,0.1,0.1,0.1,0.2L16.5,2c-0.4-0.3-0.9-0.5-1.5-0.7c-0.2-0.1-0.4-0.1-0.6-0.2C13.8,1,13.2,1,12.6,1c-1.7,0-3.3,0.5-4.7,1.5
			C7.7,2.6,7.5,2.8,7.3,2.9C7.3,3,7.2,3.1,7.2,3.1C7,3.2,6.9,3.3,6.8,3.5C6.7,3.5,6.7,3.6,6.6,3.7C6.5,3.8,6.4,3.9,6.3,4
			C6.2,4.1,6.2,4.2,6.1,4.3C6.1,4.3,6,4.4,6,4.5c0,0,0,0.1-0.1,0.1C5.8,4.7,5.7,4.9,5.6,5C5.5,5.1,5.5,5.2,5.4,5.3
			C5.3,5.5,5.2,5.7,5.1,5.9C5.1,5.9,5.1,6,5.1,6c0,0,0,0,0,0C4.9,6.3,4.8,6.5,4.7,6.8c0,0,0,0.1,0,0.1C4.6,7.1,4.5,7.4,4.5,7.6
			c0,0,0,0,0,0c0,0.1,0,0.1-0.1,0.2C4.3,8,4.3,8.2,4.2,8.4c0,0.1,0,0.2-0.1,0.3c0,0.2-0.1,0.4-0.1,0.5c0,0.1,0,0.1,0,0.2
			c0,0,0,0.1,0,0.1c0,0.2-0.1,0.5-0.1,0.7c0,0.1,0,0.1,0,0.2c0,0.3,0,0.6,0,0.9c0,0,0,0,0,0.1c0,0.1,0,0.1,0,0.2c0,0.2,0,0.5,0,0.7
			c0,0.1,0,0.2,0,0.3c0,0.3,0,0.6,0.1,0.9c0,0.1,0,0.2,0,0.2c0,0.1,0,0.2,0.1,0.3c0,0.2,0.1,0.3,0.1,0.5c0,0.1,0.1,0.3,0.1,0.4
			c0,0.2,0.1,0.3,0.1,0.5c0,0.1,0.1,0.2,0.1,0.3c0,0.1,0.1,0.3,0.1,0.4c0,0.1,0.1,0.2,0.1,0.3c0,0.1,0.1,0.3,0.1,0.4
			c0,0.1,0,0.1,0.1,0.2c0,0.1,0.1,0.1,0.1,0.2c0,0.1,0.1,0.2,0.1,0.3c0.1,0.1,0.1,0.2,0.2,0.3c0,0.1,0.1,0.2,0.1,0.2
			c0.1,0.1,0.1,0.2,0.2,0.3c0,0.1,0.1,0.1,0.1,0.2C5.7,18.6,5.8,18.8,6,19c0.1,0.1,0.2,0.2,0.3,0.4c0,0,0.1,0.1,0.1,0.1
			c0.1,0.1,0.1,0.2,0.2,0.2l0,0c-0.2-0.1-0.4-0.2-0.6-0.3c0.1,0.1,0.3,0.3,0.4,0.5c0,0,0,0,0,0c0,0,0.1,0.1,0.1,0.1
			c0.1,0.1,0.2,0.2,0.4,0.3c0,0,0.1,0.1,0.2,0.1c0.1,0.1,0.2,0.2,0.3,0.3c0,0,0.1,0.1,0.1,0.1c0.2,0.1,0.3,0.3,0.5,0.4l0,0
			c0,0,0,0,0,0l0.8,0.5l0.5,0.4c-0.1,0-0.1,0-0.2-0.1c-0.4-0.2-0.8-0.4-1.2-0.7l1.3,0.9c0.4,0.3,0.8,0.5,1.2,0.7
			c0.8,0.3,1.6,0.5,2.5,0.5c0.1,0,0.3,0,0.4,0c0,0,0.1,0,0.1,0c0.1,0,0.2,0,0.3,0c0.1,0,0.1,0,0.2,0c0.1,0,0.2,0,0.3,0
			c0.1,0,0.1,0,0.2,0c0.1,0,0.2,0,0.3-0.1c0.1,0,0.1,0,0.2,0c0.1,0,0.2,0,0.3-0.1c0.1,0,0.1,0,0.2,0c0.1,0,0.2-0.1,0.2-0.1
			c0.1,0,0.1,0,0.2-0.1c0.1,0,0.2-0.1,0.2-0.1c0.1,0,0.1,0,0.2-0.1c0.1,0,0.2-0.1,0.3-0.1c0,0,0.1,0,0.1-0.1c0.1,0,0.2-0.1,0.3-0.1
			c0,0,0.1,0,0.1,0c0.1-0.1,0.2-0.1,0.4-0.2c0,0,0.1,0,0.1-0.1c0.1-0.1,0.2-0.1,0.2-0.2c0,0,0.1-0.1,0.1-0.1c0.1,0,0.1-0.1,0.2-0.2
			c0,0,0.1-0.1,0.1-0.1c0.1,0,0.1-0.1,0.2-0.2c0,0,0.1-0.1,0.1-0.1c0.1-0.1,0.1-0.1,0.2-0.2c0,0,0.1-0.1,0.1-0.1c0,0,0-0.1,0.1-0.1
			l0,0v0c0,0,0,0,0-0.1c0.1-0.1,0.1-0.2,0.2-0.3c0,0,0.1-0.1,0.1-0.1c0,0,0,0,0,0c0.1-0.1,0.2-0.2,0.2-0.4c0.1-0.1,0.2-0.3,0.2-0.4
			c0,0,0,0,0,0c0.1-0.1,0.1-0.3,0.2-0.4c0,0,0-0.1,0-0.1c0-0.1,0.1-0.2,0.1-0.2c0,0,0-0.1,0-0.1c0-0.1,0-0.1,0-0.2
			c0-0.1,0-0.2,0.1-0.3c0-0.1,0-0.1,0-0.2c0,0,0-0.1,0-0.1c0,0,0-0.1,0-0.1c0-0.1,0-0.2,0-0.2C20.2,17.6,20.2,17.5,20.2,17.4z
			 M8.3,21.2C8.2,21.1,8,21,7.9,20.9C8,20.9,8.1,21,8.2,21l1.3,0.9c-0.1,0-0.1,0-0.2-0.1c-0.2-0.1-0.4-0.2-0.5-0.3
			c-0.1-0.1-0.2-0.2-0.3-0.3C8.4,21.3,8.3,21.2,8.3,21.2z M16.6,6.2C16.6,6.2,16.6,6.2,16.6,6.2C16.6,6.3,16.6,6.3,16.6,6.2
			c-0.1,0.1-0.1,0-0.1,0c-0.2-0.1-0.4-0.2-0.5-0.3c-0.1,0-0.1-0.1-0.2-0.1C16,5.9,16.3,6.1,16.6,6.2z M16.4,10.6
			C16.4,10.7,16.5,10.7,16.4,10.6c0.2,0.2,0.3,0.3,0.3,0.3c0,0,0.1,0.1,0.1,0.1l-1.1-0.7C16,10.4,16.2,10.5,16.4,10.6z M15.6,6
			c0.3,0.1,0.5,0.2,0.8,0.4l0.1,0.1c0,0,0,0-0.1,0c-0.1,0-0.2,0-0.2,0l-0.5-0.4C15.7,6,15.7,6,15.6,6z M13.9,1.9
			c0.6,0,1.2,0.1,1.8,0.2c0.5,0.1,1,0.3,1.4,0.4c0,0,0,0,0,0.1c0,0,0,0,0.1,0.1c0.1,0.1,0.1,0.1,0.2,0.2c0,0.1,0.1,0.1,0.1,0.2
			c0,0.1,0.1,0.2,0.1,0.2c0,0,0,0,0,0.1c0,0.1,0,0.1,0,0.2c0,0.1,0,0.1,0,0.2c0,0,0,0.1,0,0.1c0,0.1,0,0.1,0,0.2c0,0,0,0.1,0,0.1
			c0,0,0,0,0,0c0,0.2,0,0.3,0,0.5c0,0,0,0,0,0c0,0-0.1-0.1-0.1-0.1l-0.6-0.4l-0.8-0.5c-0.4-0.3-0.8-0.5-1.2-0.6
			c-0.7-0.3-1.4-0.4-2.2-0.4c0,0-0.1,0-0.1,0l0,0h0c-0.4,0-0.7,0-1.1,0.1C11,2.8,10.4,3,9.9,3.2c-0.3,0.2-0.7,0.3-1,0.6
			C8.7,3.9,8.6,4,8.5,4.1c0,0-0.1,0.1-0.1,0.1C8.2,4.3,8.1,4.4,8,4.5C8,4.6,8,4.6,7.9,4.7C7.8,4.8,7.7,4.9,7.7,5
			c0,0.1-0.1,0.1-0.1,0.2c0,0-0.1,0.1-0.1,0.1c0,0,0,0.1-0.1,0.1C7.3,5.5,7.2,5.6,7.1,5.7C7.1,5.8,7,5.9,7,6
			C6.9,6.1,6.9,6.2,6.8,6.3c0,0.1-0.1,0.1-0.1,0.2c0,0,0,0.1,0,0.1c0,0.1-0.1,0.2-0.1,0.3c0,0.1-0.1,0.2-0.1,0.3
			c0,0.1-0.1,0.2-0.1,0.3c0,0.1-0.1,0.1-0.1,0.2c0,0,0,0,0,0.1c0,0.1-0.1,0.2-0.1,0.3c0,0.1-0.1,0.2-0.1,0.3C6,8.5,6,8.6,6,8.7
			c0,0.1,0,0.2,0,0.2c0,0,0,0.1,0,0.1c0,0.1,0,0.2,0,0.3c0,0.1,0,0.2,0,0.3c0,0.1,0,0.2,0,0.3c0,0.1,0,0.2,0,0.2c0,0,0,0.1,0,0.1
			c0,0.1,0,0.2,0,0.3c0,0.1,0,0.2,0,0.3c0,0.1,0,0.2,0,0.3c0,0.1,0,0.2,0,0.2c0,0,0,0,0,0.1C5.9,11.7,6,11.8,6,12c0,0.1,0,0.1,0,0.2
			c0.1,0.2,0.1,0.4,0.2,0.6h0c0,0,0,0,0,0l1.3,0.9c1.6-1.6,3.7-2.7,5.8-2.7c0.9,0,1.7,0.2,2.6,0.6c0,0,0.1,0.1,0.1,0.1
			c0.1,0.1,0.1,0.1,0.1,0.2c0.1,0.1,0.1,0.1,0.2,0.2c0,0.1,0.1,0.1,0.1,0.2c0,0.1,0.1,0.1,0.1,0.2c0,0.1,0.1,0.1,0.1,0.2
			c0,0.1,0.1,0.1,0.1,0.2c0,0.1,0.1,0.1,0.1,0.2c0,0.1,0.1,0.1,0.1,0.2c0,0.1,0,0.1,0.1,0.2c0.1,0.1,0.1,0.3,0.1,0.4
			c0,0,0,0.1,0,0.1c0,0.2,0.1,0.4,0.1,0.5c0,0.1,0,0.2,0,0.3c0,0.1,0,0.1,0,0.2c0,0.1,0,0.2,0,0.3c0,0.1,0,0.1,0,0.2
			c0,0.1,0,0.3,0,0.4c0,0,0,0.1,0,0.1c0,0.1,0,0.2,0,0.3c0,0,0,0.1,0,0.1c0,0.1,0,0.2-0.1,0.3c0,0.1,0,0.1,0,0.2
			c0,0.1-0.1,0.2-0.1,0.3c0,0.1,0,0.1-0.1,0.2c0,0.1-0.1,0.2-0.1,0.3c0,0,0,0.1,0,0.1c-0.1,0.2-0.2,0.3-0.2,0.5
			c-0.1,0.1-0.2,0.3-0.3,0.4c0,0,0,0,0,0.1c-0.1,0.2-0.3,0.4-0.5,0.6c0,0,0,0,0,0c-0.2,0.2-0.3,0.3-0.5,0.5c0,0,0,0,0,0
			c-0.2,0.1-0.4,0.3-0.6,0.4c0,0,0,0-0.1,0c-0.2,0.1-0.4,0.2-0.6,0.3c0,0-0.1,0-0.1,0c-0.2,0.1-0.4,0.2-0.6,0.2c0,0-0.1,0-0.1,0
			c-0.2,0.1-0.4,0.1-0.6,0.2c0,0-0.1,0-0.1,0C12.4,21,12.2,21,12,21c0,0,0,0-0.1,0c-0.2,0-0.5,0-0.7,0c-0.8,0-1.5-0.1-2.3-0.4
			c-0.5-0.1-0.9-0.3-1.4-0.5c-0.1-0.1-0.2-0.2-0.3-0.3c-0.1-0.2-0.2-0.3-0.4-0.5c0-0.1-0.1-0.1-0.1-0.2c-0.1-0.1-0.1-0.2-0.2-0.4
			c0-0.1-0.1-0.1-0.1-0.2c-0.1-0.1-0.1-0.2-0.2-0.4c0-0.1-0.1-0.2-0.1-0.2c0-0.1-0.1-0.2-0.1-0.4c0-0.1-0.1-0.3-0.1-0.4
			c0-0.1-0.1-0.2-0.1-0.3c0-0.1-0.1-0.3-0.1-0.4c0-0.1-0.1-0.2-0.1-0.4c0-0.1-0.1-0.3-0.1-0.4c0-0.1-0.1-0.3-0.1-0.4
			c0-0.2-0.1-0.3-0.1-0.5c0-0.2-0.1-0.3-0.1-0.5c0-0.3-0.1-0.6-0.1-0.9c0-0.1,0-0.2,0-0.2c0-0.2,0-0.5,0-0.7c0-0.1,0-0.1,0-0.2
			c0-0.3,0-0.6,0-0.9c0-0.1,0-0.1,0-0.2c0-0.2,0.1-0.5,0.1-0.7c0-0.1,0-0.2,0-0.3c0-0.2,0.1-0.4,0.1-0.6c0-0.1,0-0.2,0.1-0.3
			c0-0.2,0.1-0.4,0.2-0.6c0-0.1,0-0.2,0.1-0.2C5.9,8.3,5.9,8,6,7.8c0,0,0-0.1,0-0.1C6.2,7.5,6.3,7.2,6.4,7c0-0.1,0.1-0.1,0.1-0.2
			c0.1-0.2,0.2-0.4,0.3-0.5C6.8,6.1,6.9,6,6.9,5.9C7,5.8,7.1,5.6,7.2,5.5c0.1-0.1,0.2-0.2,0.2-0.3C7.5,5.1,7.6,5,7.6,4.9
			c0.1-0.1,0.2-0.2,0.3-0.3C8,4.5,8.1,4.4,8.1,4.4C8.2,4.2,8.4,4.1,8.5,4C8.5,4,8.6,3.9,8.7,3.8C8.8,3.7,9,3.5,9.2,3.4
			C10.6,2.4,12.2,1.9,13.9,1.9z"/>
	</g>
	<linearGradient id="SVGID_3_" gradientUnits="userSpaceOnUse" x1="2.5878" y1="-3.0294" x2="17.8017" y2="20.4394">
		<stop  offset="0" style="stop-color:#ECFF17"/>
		<stop  offset="0.5415" style="stop-color:#81B900"/>
		<stop  offset="0.8991" style="stop-color:#63B900"/>
	</linearGradient>
	<path class="st3" d="M15.8,10.4c-1-0.7-2.3-1.1-3.7-1.1c-1.5,0-2.9,0.5-4,1.3l-0.2,0.1l-0.1-0.2C7.7,10.2,7.6,10,7.5,9.7
		c-0.3-2,0.7-4.2,2.4-5c0.6-0.3,1.2-0.4,1.9-0.4c1.3,0,2.9,0.5,4.2,1.4l0,0c0.1,0.2,0.3,0.3,0.5,0.3c0.2,0,0.4-0.1,0.6-0.3
		c0.2-0.2,0.3-0.4,0.4-0.7c0.2-0.7,0.1-1.7-0.1-2.2c-0.5-0.8-1.5-1.3-2.9-1.7C13.8,1,13.2,1,12.6,1c-1.7,0-3.3,0.5-4.7,1.5
		C4.5,5,3.5,9.8,3.9,13.4c0.3,2.4,1,4.2,2,5.5c0.2,0.2,0.4,0.5,0.6,0.7c0.7,0.8,1.7,1.6,2.7,2c0.7,0.3,1.5,0.4,2.3,0.4
		c2.5,0,4.9-1.3,6-3.2C19.3,16.4,18.3,12.2,15.8,10.4z M13.3,18.3c-0.3,0.1-0.6,0.1-1,0.1c-1.5,0-3.4-1-3.8-2.7
		c-0.4-1.8,0.9-3.5,2.4-3.9c0.3-0.1,0.5-0.1,0.8-0.1c1.7,0,3.1,1.7,3.4,3.2C15.4,16.7,14.5,18,13.3,18.3z"/>
	<linearGradient id="SVGID_4_" gradientUnits="userSpaceOnUse" x1="2.4657" y1="-4.3847" x2="16.8636" y2="20.8115">
		<stop  offset="0" style="stop-color:#ECFF17"/>
		<stop  offset="0.5415" style="stop-color:#81B900"/>
		<stop  offset="0.8991" style="stop-color:#6DBA2B"/>
	</linearGradient>
	<path class="st4" d="M12.6,2.6c1.9,0,3.8,0.8,4.9,2.4c-0.1,0.3-0.2,0.6-0.4,0.7c-0.2,0.2-0.4,0.3-0.6,0.3c-0.2,0-0.3-0.1-0.5-0.3
		l0,0c-1.3-0.9-2.8-1.4-4.2-1.4c-0.7,0-1.3,0.1-1.9,0.4c-1.7,0.8-2.7,3-2.4,5c0,0.2,0.1,0.5,0.2,0.8l0.1,0.2l0.2-0.1
		c1.1-0.9,2.5-1.3,4-1.3c1.4,0,2.7,0.4,3.7,1.1c2.5,1.8,3.5,6,2,8.6c-1.1,1.9-3.6,3.2-6,3.2c-0.8,0-1.6-0.1-2.3-0.4
		c-1-0.4-2-1.2-2.7-2c0.8,0.4,1.6,0.8,2.3,1c0.8,0.2,1.5,0.4,2.3,0.4c2.2,0,4.3-1,5.5-3c1.5-2.6,0.7-5.9-1.9-7.3
		c-0.9-0.5-1.8-0.7-2.8-0.7c-2.2,0-4.2,1.1-5.8,2.7c-1.1-3,0.1-7.2,2.7-9C10,3,11.3,2.6,12.6,2.6z"/>
	<linearGradient id="SVGID_5_" gradientUnits="userSpaceOnUse" x1="-2.3144" y1="5.0013" x2="19.7622" y2="14.8879">
		<stop  offset="0" style="stop-color:#ECFF17"/>
		<stop  offset="1" style="stop-color:#81B900"/>
	</linearGradient>
	<path class="st5" d="M16,10.1c-1.1-0.8-2.5-1.2-3.9-1.2c-1.5,0-2.9,0.4-4.1,1.2C8,9.9,7.9,9.8,7.9,9.6C7.6,8,8.4,5.9,10.1,5.1
		c0.5-0.2,1.1-0.4,1.7-0.3c1.3,0,2.7,0.5,3.9,1.3c0.2,0.2,0.5,0.4,0.8,0.4c0.2,0,0.5-0.1,0.8-0.4c0.7-0.8,0.8-2.5,0.3-3.4
		c-0.5-0.9-1.6-1.5-3.2-1.9c-0.6-0.1-1.2-0.2-1.9-0.2c-1.8,0-3.5,0.5-4.9,1.6C4.1,4.8,3.1,9.7,3.6,13.5c0.3,2.5,1,4.3,2.1,5.7
		c0.7,1,2.1,2.3,3.5,2.8c0.8,0.3,1.6,0.5,2.5,0.5c2.6,0,5.2-1.3,6.4-3.3C19.7,16.4,18.8,12,16,10.1z M3.9,13.4
		C3.5,9.8,4.5,5,7.9,2.5c1.3-1,3-1.5,4.7-1.5c0.6,0,1.2,0.1,1.8,0.2c1.5,0.4,2.5,0.9,2.9,1.7c0.3,0.5,0.4,1.4,0.1,2.2
		c-0.1,0.3-0.2,0.6-0.4,0.7c-0.2,0.2-0.4,0.3-0.6,0.3c-0.2,0-0.3-0.1-0.5-0.3l0,0c-1.3-0.9-2.8-1.4-4.2-1.4c-0.7,0-1.3,0.1-1.9,0.4
		c-1.7,0.8-2.7,3-2.4,5c0,0.2,0.1,0.5,0.2,0.8l0.1,0.2l0.2-0.1c1.1-0.9,2.5-1.3,4-1.3c1.4,0,2.7,0.4,3.7,1.1c2.5,1.8,3.5,6,2,8.6
		c-1.1,1.9-3.6,3.2-6,3.2c-0.8,0-1.6-0.1-2.3-0.4c-1-0.4-2-1.2-2.7-2C6.4,19.4,6.1,19.2,6,19C4.9,17.6,4.3,15.8,3.9,13.4z
		 M12.6,22.3c2.2-0.3,4.2-1.5,5.3-3.2C16.9,20.8,14.8,22,12.6,22.3z"/>
	<linearGradient id="SVGID_6_" gradientUnits="userSpaceOnUse" x1="2.6642" y1="3.9963" x2="16.9662" y2="21.4658">
		<stop  offset="0" style="stop-color:#ECFF17"/>
		<stop  offset="1" style="stop-color:#81B900"/>
	</linearGradient>
	<path class="st6" d="M11.8,11.8c1.7,0,3.1,1.7,3.4,3.2c0.3,1.7-0.7,3-1.8,3.3c-0.3,0.1-0.6,0.1-1,0.1c-1.5,0-3.4-1-3.8-2.7
		c-0.4-1.8,0.9-3.5,2.4-3.9C11.2,11.8,11.5,11.8,11.8,11.8z M13.2,18c0.8-0.2,1.8-1.2,1.5-2.9c-0.2-1.4-1.5-2.9-3-2.9
		c-0.2,0-0.5,0-0.7,0.1c-1.3,0.4-2.5,1.9-2.1,3.4c0.4,1.5,2,2.4,3.5,2.4C12.7,18.1,13,18,13.2,18L13.2,18z"/>
</g>
</svg>
