<?xml version="1.0" encoding="utf-8"?>
<!-- Generator: Adobe Illustrator 24.0.1, SVG Export Plug-In . SVG Version: 6.00 Build 0)  -->
<svg version="1.1" id="Capa_1" xmlns="http://www.w3.org/2000/svg" xmlns:xlink="http://www.w3.org/1999/xlink" x="0px" y="0px"
	 viewBox="0 0 25 25" style="enable-background:new 0 0 25 25;" xml:space="preserve">
<style type="text/css">
	.st0{fill:#B4B4B4;}
	.st1{fill:url(#SVGID_1_);}
	.st2{fill:url(#SVGID_2_);}
	.st3{fill:url(#SVGID_3_);}
	.st4{fill:url(#SVGID_4_);}
	.st5{opacity:0.5;fill:url(#SVGID_5_);}
	.st6{fill:url(#SVGID_6_);}
</style>
<g>
	<path class="st0" d="M12.6,19.6C12.6,19.6,12.6,19.6,12.6,19.6c-0.8,0-1.5-0.1-2-0.4c0,0-0.1-0.1-0.1-0.1c-0.1-0.1-0.1-0.2-0.2-0.2
		l0-0.1c0-0.1-0.1-0.1-0.1-0.2l0-0.1c0-0.1-0.1-0.1-0.1-0.2l0,0c0-0.1,0-0.2-0.1-0.2l0-0.1c0-0.1,0-0.2,0-0.3l0,0c0-0.1,0-0.2,0-0.3
		l0-0.1c0-0.1,0-0.1,0.1-0.2l0-0.1c0-0.1,0.1-0.2,0.1-0.3l0,0c0.1-0.1,0.1-0.2,0.2-0.3l0,0c0.1-0.1,0.1-0.1,0.2-0.2l0.1-0.1
		c0.1-0.1,0.2-0.2,0.2-0.2c0.8-0.7,2.1-1,3.6-1c0,0,0,0,0,0c0.4,0,0.8,0,1.2,0.1c0.4,0.1,0.7,0.2,1.1,0.3c0.1,0.2,0.3,0.3,0.3,0.5
		c0.3,0.6,0.2,1.3-0.2,1.9c-0.2,0.4-0.5,0.7-0.9,0.9C15.1,19.3,13.9,19.6,12.6,19.6L12.6,19.6z M12.4,9.7
		C12.4,9.7,12.4,9.7,12.4,9.7c-0.1,0-0.2,0-0.4,0c-0.1,0-0.1,0-0.2,0c0-0.1-0.1-0.1-0.1-0.2c0-0.1-0.1-0.1-0.1-0.2
		c0-0.1,0-0.1-0.1-0.2l0-0.1c0-0.1,0-0.2-0.1-0.2l0,0c0-0.1,0-0.2,0-0.3l0-0.1c0-0.1,0-0.1,0-0.2l0-0.1c0,0,0-0.1,0-0.1l0-0.1
		c0-0.1,0-0.1,0.1-0.2l0-0.1c0-0.1,0.1-0.2,0.2-0.3l0.1-0.1c0-0.1,0.1-0.1,0.2-0.2L12.1,7c0.1,0,0.1-0.1,0.2-0.1l0.1-0.1
		c0.1-0.1,0.2-0.1,0.3-0.2c0.4-0.2,0.9-0.3,1.4-0.3c0,0,0,0,0,0c0.3,0,0.5,0,0.8,0.1c0.1,0,0.2,0,0.3,0.1l0,0l0.1,0
		c0,0.1,0.1,0.1,0.1,0.2c0.3,0.6,0.1,1.1-0.1,1.5C14.7,9,13.5,9.7,12.4,9.7L12.4,9.7z M13,1.5c-2.3,0-4.8,1.4-6,3.4
		c-0.6,1-0.8,2.3-0.7,3.5c0.1,1,0.9,2.4,1.7,3.2c-1.2,0.7-2.2,1.6-2.8,2.6c-1.1,1.8-1.4,3.9-0.7,5.6c0.4,1.1,1.2,1.9,2.2,2.6l0,0
		l0,0l0,0L8,23.3c0.6,0.4,1.2,0.7,1.9,0.9c0.2,0.1,0.5,0.1,0.7,0.2c0.2,0.1,0.5,0.1,0.7,0.1l0.1,0c0,0,0.1,0,0.1,0
		c0.1,0,0.2,0,0.2,0c0,0,0.1,0,0.1,0c0.1,0,0.2,0,0.2,0l0.1,0l0,0c0.2,0,0.3,0,0.5,0c0,0,0,0,0,0c0.2,0,0.4,0,0.6,0
		c0.1,0,0.1,0,0.2,0c0.1,0,0.2,0,0.3,0l0.1,0c0,0,0.1,0,0.1,0c0.1,0,0.2,0,0.3,0c0,0,0.1,0,0.1,0c0.1,0,0.2,0,0.3,0
		c0.1,0,0.2,0,0.3-0.1c0.1,0,0.2,0,0.3-0.1c0.1,0,0.1,0,0.2,0c0.1,0,0.1,0,0.2,0c0.1,0,0.2,0,0.2-0.1c0.1,0,0.2-0.1,0.3-0.1
		c0.1,0,0.1,0,0.2-0.1l0.1,0c0.1,0,0.1,0,0.2-0.1c0.1,0,0.3-0.1,0.4-0.2c0.1,0,0.2-0.1,0.2-0.1c0.1-0.1,0.2-0.1,0.4-0.2
		c0.1,0,0.2-0.1,0.2-0.1c0.1-0.1,0.2-0.1,0.4-0.2c0.1,0,0.1-0.1,0.2-0.1c0.1-0.1,0.3-0.2,0.4-0.3l0.1-0.1l0,0l0,0
		c0,0,0.1-0.1,0.1-0.1c0.1,0,0.1-0.1,0.2-0.1c0.1-0.1,0.2-0.1,0.2-0.2c0.1-0.1,0.1-0.1,0.2-0.2c0.1-0.1,0.2-0.1,0.2-0.2
		c0.1-0.1,0.1-0.1,0.2-0.2c0.1-0.1,0.1-0.1,0.2-0.2c0.1-0.1,0.1-0.1,0.2-0.2c0.1-0.1,0.1-0.1,0.2-0.2l0.1-0.1
		c0.1-0.1,0.1-0.1,0.1-0.2l0.1-0.1l0,0l0,0c0.1-0.1,0.1-0.2,0.2-0.3l0,0l0,0l0,0c0,0,0-0.1,0.1-0.1l0,0c0-0.1,0.1-0.2,0.1-0.2
		c0-0.1,0.1-0.2,0.1-0.3c0-0.1,0-0.1,0.1-0.2c0,0,0-0.1,0.1-0.1l0-0.1c0.1-0.2,0.2-0.4,0.2-0.6l0,0l0,0c0-0.1,0-0.1,0-0.2
		c0-0.1,0-0.2,0.1-0.2l0,0l0,0c0-0.1,0-0.1,0-0.2l0-0.1c0-0.1,0-0.1,0-0.2c0-0.1,0-0.2,0-0.4l0-0.1c0-0.2,0-0.3,0-0.5
		c0,0,0-0.1,0-0.1c0-0.1,0-0.1,0-0.2c0-0.2,0-0.3,0-0.5c0,0,0-0.1,0-0.1l0-0.1c0-0.1,0-0.2,0-0.2c0-0.1,0-0.2-0.1-0.3l0-0.1l0,0
		c0,0,0-0.1,0-0.1c0-0.1-0.1-0.2-0.1-0.4l0,0l0-0.1l0-0.1l0-0.1c0-0.1-0.1-0.2-0.2-0.4c0-0.1-0.1-0.1-0.1-0.2
		c-0.1-0.2-0.2-0.4-0.4-0.6c-0.1-0.1-0.2-0.2-0.3-0.4l0,0L21,13l-0.1-0.1l0,0c0,0-0.1-0.1-0.1-0.1l-0.1-0.1
		c-0.1-0.1-0.2-0.2-0.3-0.2l0,0l-1.3-0.9c0.1,0,0.1-0.1,0.2-0.1c0,0,0.1-0.1,0.1-0.1c0.1-0.1,0.1-0.1,0.2-0.2c0,0,0.1-0.1,0.1-0.1
		c0.1-0.1,0.1-0.1,0.2-0.2c0,0,0.1-0.1,0.1-0.1c0,0,0.1-0.1,0.1-0.1l0-0.1l0.1-0.1c0.1-0.1,0.1-0.2,0.2-0.3l0,0
		c0.1-0.1,0.2-0.3,0.2-0.4l0-0.1l0,0c0.1-0.2,0.1-0.3,0.2-0.5c0,0,0-0.1,0-0.1c0-0.1,0-0.1,0.1-0.2c0-0.1,0-0.1,0.1-0.2l0-0.1
		c0-0.1,0.1-0.3,0.1-0.4l0-0.1l0,0l0,0l0,0l0-0.1c0-0.1,0-0.1,0-0.2l0-0.1l0-0.1c0,0,0-0.1,0-0.1c0-0.1,0-0.1,0-0.2c0,0,0-0.1,0-0.1
		c0-0.1,0-0.3,0-0.4l0,0c0,0,0-0.1,0-0.1c0-0.1,0-0.2-0.1-0.3c0-0.2-0.1-0.4-0.2-0.5l0-0.1l0,0l0,0c0-0.1-0.1-0.1-0.1-0.2
		c0,0,0-0.1-0.1-0.1l0,0l0,0l0,0c0-0.1-0.1-0.2-0.1-0.2L20.4,5c-0.1-0.1-0.1-0.2-0.2-0.3l0,0c0,0-0.1-0.1-0.1-0.1
		C20.1,4.5,20,4.5,20,4.4l0,0l0,0c-0.1-0.1-0.1-0.1-0.2-0.2l0,0l0,0l-0.1,0c-0.2-0.1-0.3-0.3-0.5-0.4l0,0l-0.4-0.3l-0.9-0.6l0,0l0,0
		l0,0C16.7,2,15,1.6,13,1.5C13.1,1.5,13,1.5,13,1.5L13,1.5z"/>
	<linearGradient id="SVGID_1_" gradientUnits="userSpaceOnUse" x1="16.4783" y1="2.3967" x2="9.7096" y2="22.9462">
		<stop  offset="0.1152" style="stop-color:#842C0C"/>
		<stop  offset="0.36" style="stop-color:#220B03"/>
		<stop  offset="0.6006" style="stop-color:#842C0C"/>
		<stop  offset="0.6553" style="stop-color:#7D2A0B"/>
		<stop  offset="0.7367" style="stop-color:#682309"/>
		<stop  offset="0.835" style="stop-color:#471806"/>
		<stop  offset="0.9454" style="stop-color:#190802"/>
		<stop  offset="1" style="stop-color:#000000"/>
	</linearGradient>
	<path class="st1" d="M21.4,16c0,0,0-0.1,0-0.1c0-0.1,0-0.1,0-0.2c0-0.2,0-0.3,0-0.5c0,0,0-0.1,0-0.1c0,0,0,0,0-0.1
		c0-0.1,0-0.2,0-0.2c0-0.1,0-0.2-0.1-0.3l0-0.1c0,0,0,0,0,0c0,0,0-0.1,0-0.1c0-0.1-0.1-0.2-0.1-0.4c0,0,0,0,0,0l0,0c0,0,0,0,0,0
		l0-0.1l0,0l0,0c0,0,0,0,0,0c0,0,0,0,0-0.1c0,0,0,0,0-0.1c0-0.1-0.1-0.2-0.2-0.4c0-0.1-0.1-0.1-0.1-0.2c-0.1-0.2-0.2-0.4-0.4-0.6
		c-0.1-0.1-0.2-0.2-0.3-0.4c0,0,0,0,0,0c0,0,0,0-0.1-0.1c0,0,0-0.1-0.1-0.1l0,0c0,0-0.1-0.1-0.1-0.1c0,0-0.1-0.1-0.1-0.1
		c-0.1-0.1-0.2-0.2-0.3-0.2c0,0,0,0,0,0L18,10.8c0.1,0,0.1-0.1,0.2-0.1c0,0,0.1-0.1,0.1-0.1c0.1-0.1,0.1-0.1,0.2-0.2
		c0,0,0.1-0.1,0.1-0.1c0.1-0.1,0.1-0.1,0.2-0.2c0,0,0.1-0.1,0.1-0.1c0,0,0.1-0.1,0.1-0.1c0,0,0,0,0-0.1c0,0,0-0.1,0.1-0.1
		c0.1-0.1,0.1-0.2,0.2-0.3c0,0,0,0,0,0c0.1-0.1,0.2-0.3,0.2-0.4c0,0,0,0,0-0.1c0,0,0,0,0,0c0.1-0.2,0.1-0.3,0.2-0.5c0,0,0-0.1,0-0.1
		c0-0.1,0-0.1,0.1-0.2c0-0.1,0-0.1,0.1-0.2c0,0,0,0,0-0.1C20,7.5,20,7.4,20,7.3c0,0,0-0.1,0-0.1c0,0,0,0,0,0c0,0,0-0.1,0-0.1
		c0-0.1,0-0.1,0-0.2c0,0,0,0,0-0.1c0,0,0,0,0-0.1c0,0,0-0.1,0-0.1c0-0.1,0-0.1,0-0.2c0,0,0-0.1,0-0.1c0-0.1,0-0.3,0-0.4c0,0,0,0,0,0
		c0,0,0-0.1,0-0.1c0-0.1,0-0.2-0.1-0.3c0-0.2-0.1-0.4-0.2-0.5c0,0,0,0,0,0c0,0,0,0,0,0c0,0,0,0,0,0c0-0.1-0.1-0.1-0.1-0.2
		c0,0,0-0.1-0.1-0.1c0,0,0,0,0,0l0,0l0,0c0,0,0,0,0,0c0-0.1-0.1-0.2-0.1-0.2c0,0,0-0.1,0-0.1c-0.1-0.1-0.1-0.2-0.2-0.3c0,0,0,0,0,0
		c0,0-0.1-0.1-0.1-0.1c-0.1-0.1-0.1-0.1-0.2-0.2c0,0,0,0,0,0c0,0,0,0,0,0c-0.1-0.1-0.1-0.1-0.2-0.2c0,0,0,0-0.1,0
		c-0.1-0.1-0.3-0.3-0.5-0.4c0,0,0,0,0,0l-0.6-0.4L16.7,2c0,0,0,0,0,0l0,0c0.2,0.1,0.3,0.2,0.5,0.4c0.1,0.1,0.2,0.2,0.3,0.3
		c0,0,0,0,0.1,0.1c0.1,0.1,0.1,0.1,0.2,0.2c0,0,0,0,0.1,0.1l-0.5-0.3c-0.2-0.2-0.5-0.3-0.7-0.5l0,0l0,0c0,0,0,0,0,0v0c0,0,0,0,0,0
		c-0.1,0-0.1-0.1-0.2-0.1c-0.1-0.1-0.2-0.1-0.3-0.2c0,0,0,0,0,0l0,0l0,0l0,0c0,0,0,0,0,0c0,0,0,0,0,0l0,0c-0.1,0-0.1-0.1-0.2-0.1
		c-0.1,0-0.2-0.1-0.3-0.1c-0.1,0-0.2-0.1-0.3-0.1c-0.1,0-0.2-0.1-0.3-0.1c0,0,0,0-0.1,0c0,0,0,0,0,0c-0.1,0-0.1,0-0.2-0.1
		c0,0-0.1,0-0.1,0c-0.1,0-0.2-0.1-0.3-0.1c-0.1,0-0.2,0-0.3-0.1c-0.1,0-0.2,0-0.4-0.1c-0.1,0-0.1,0-0.2,0l0,0c0,0-0.1,0-0.1,0
		c-0.1,0-0.3,0-0.4,0c-0.1,0-0.2,0-0.3,0c-0.1,0-0.3,0-0.5,0c-0.1,0-0.1,0-0.2,0l0,0c0,0,0,0-0.1,0c0,0-0.1,0-0.1,0c0,0,0,0,0,0
		c0,0,0,0,0,0c-0.1,0-0.2,0-0.3,0c0,0,0,0-0.1,0c-0.1,0-0.2,0-0.2,0l0.3,0.2c0,0,0,0-0.1,0c-0.1,0-0.2,0-0.3,0c-0.1,0-0.1,0-0.2,0
		c-0.1,0-0.2,0-0.2,0c-0.1,0-0.1,0-0.2,0c-0.1,0-0.2,0-0.2,0.1c-0.1,0-0.1,0-0.2,0.1c-0.1,0-0.2,0-0.2,0.1c-0.1,0-0.1,0-0.2,0.1
		c-0.1,0-0.1,0.1-0.2,0.1c-0.1,0-0.1,0-0.2,0.1c-0.1,0-0.1,0.1-0.2,0.1C9.2,1.8,9.1,1.8,9,1.9C9,1.9,8.9,1.9,8.8,2
		C8.8,2,8.7,2,8.7,2.1c-0.1,0-0.1,0.1-0.2,0.1c-0.1,0-0.1,0.1-0.2,0.1c-0.1,0-0.1,0.1-0.2,0.1C8.1,2.4,8,2.5,8,2.5
		c-0.1,0-0.1,0.1-0.2,0.1c0,0-0.1,0.1-0.1,0.1c-0.1,0-0.1,0.1-0.2,0.2C7.4,3,7.4,3,7.3,3C7.3,3.1,7.2,3.2,7.1,3.2
		c0,0-0.1,0.1-0.1,0.1C7,3.4,6.9,3.5,6.9,3.5c0,0-0.1,0.1-0.1,0.1C6.7,3.7,6.6,3.8,6.6,3.8c0,0-0.1,0.1-0.1,0.1c0,0,0,0,0,0
		C6.4,4.1,6.4,4.2,6.3,4.3C6.2,4.4,6.2,4.5,6.1,4.6c0,0,0,0,0,0c0,0,0,0,0,0C6,4.8,5.9,5,5.9,5.2c0,0,0,0,0,0.1c0,0,0,0,0,0.1
		c0,0.1,0,0.1,0,0.2c0,0.1,0,0.2-0.1,0.2c0,0.1,0,0.1,0,0.2c0,0,0,0.1,0,0.1c0,0,0,0.1,0,0.1c0,0.1,0,0.1,0,0.2c0,0.1,0,0.2,0,0.2
		c0,0.1,0,0.1,0,0.2c0,0,0,0.1,0,0.1c0,0.1,0,0.1,0,0.2c0,0,0,0.1,0,0.1c0,0.1,0,0.3,0,0.4l0,0.1c0,0.1,0,0.1,0,0.2
		c0,0.1,0,0.1,0,0.2c0,0.1,0,0.1,0.1,0.2c0,0.1,0,0.1,0.1,0.2c0,0,0,0,0,0C5.9,8.5,6,8.6,6,8.8c0,0,0,0.1,0,0.1
		C6.1,9,6.2,9.1,6.3,9.2c0,0,0,0,0,0c0.1,0.1,0.2,0.3,0.2,0.4c0,0,0,0.1,0.1,0.1C6.6,9.8,6.7,9.9,6.8,10c0,0,0,0,0,0
		c0.1,0.1,0.2,0.2,0.2,0.3c0,0,0,0,0.1,0.1c0,0,0,0,0,0.1c0.1,0.1,0.1,0.1,0.2,0.2l0.2,0.2l-0.2,0.1C7.2,11,7,11.1,6.9,11.2
		c0,0-0.1,0.1-0.1,0.1c-0.1,0.1-0.2,0.1-0.3,0.2c-0.1,0-0.1,0.1-0.2,0.1c-0.1,0.1-0.2,0.1-0.2,0.2c-0.1,0-0.1,0.1-0.2,0.1
		C5.9,12,5.8,12,5.7,12.1c-0.1,0-0.1,0.1-0.2,0.1c-0.1,0.1-0.1,0.1-0.2,0.2c0,0-0.1,0.1-0.1,0.1c-0.1,0.1-0.1,0.1-0.2,0.2
		c0,0-0.1,0.1-0.1,0.1c-0.1,0.1-0.1,0.1-0.2,0.2c0,0.1-0.1,0.1-0.1,0.2c0,0,0,0,0,0.1c-0.1,0.1-0.1,0.2-0.2,0.2
		c-0.1,0.2-0.2,0.3-0.3,0.5c0,0,0,0.1-0.1,0.1c0,0-0.1,0.1-0.1,0.1C4,14.3,4,14.4,4,14.5c0,0,0,0.1-0.1,0.1
		c-0.1,0.2-0.1,0.3-0.2,0.5c0,0,0,0,0,0c0,0,0,0,0,0c0,0.2-0.1,0.3-0.1,0.5c0,0,0,0.1,0,0.1c0,0.1,0,0.1,0,0.2c0,0.1,0,0.1,0,0.2
		c0,0,0,0.1,0,0.1c0,0.2,0,0.3,0,0.4c0,0,0,0,0,0c0,0,0,0.1,0,0.1c0,0.1,0,0.3,0,0.4c0,0.1,0,0.1,0,0.2c0,0.1,0,0.1,0,0.2
		c0,0,0,0.1,0,0.1c-0.1-0.1-0.2-0.1-0.2-0.2l0,0.1c0,0,0,0,0,0.1c0,0.2,0.1,0.4,0.1,0.5c0,0,0,0,0,0.1c0,0,0,0,0,0l0,0c0,0,0,0,0,0
		l0,0c0,0,0,0,0,0c0,0.2,0.1,0.3,0.2,0.5c0,0,0,0,0,0c0,0.1,0,0.1,0.1,0.2c0,0.1,0,0.1,0.1,0.2c0,0,0,0,0,0.1c0,0,0,0.1,0.1,0.1
		C4,19.5,4,19.6,4.1,19.7c0,0,0,0.1,0.1,0.1c0,0,0,0,0,0c0,0,0,0,0,0l0,0c0,0,0,0,0,0c0.1,0.1,0.1,0.2,0.2,0.3c0,0,0,0.1,0.1,0.1
		c0.1,0.1,0.2,0.2,0.3,0.3c0,0,0,0,0,0l0,0l0,0l0,0c0,0,0,0,0,0c0,0,0,0,0,0l0,0c0,0,0,0,0,0c0,0,0,0,0,0c0,0,0,0,0,0
		c0,0,0.1,0.1,0.1,0.1C5,20.8,5.2,20.9,5.3,21c0,0,0,0,0.1,0.1l0,0c0,0,0.1,0.1,0.1,0.1c0,0,0,0,0,0c0,0-0.1-0.1-0.1-0.1
		c0.1,0.1,0.2,0.2,0.4,0.3l1.3,0.9c-0.5-0.2-1-0.5-1.5-0.8l0,0c0,0,0,0,0,0L7,22.5c0.7,0.5,1.6,0.9,2.7,1.1c0.2,0.1,0.5,0.1,0.7,0.1
		c0,0,0.1,0,0.1,0c0,0,0.1,0,0.1,0c0.1,0,0.2,0,0.2,0c0,0,0.1,0,0.1,0c0.1,0,0.2,0,0.3,0c0,0,0,0,0,0c0,0,0,0,0,0c0.2,0,0.3,0,0.5,0
		c0.2,0,0.4,0,0.6,0c0.1,0,0.1,0,0.2,0c0.1,0,0.2,0,0.4,0c0,0,0,0,0.1,0c0,0,0.1,0,0.1,0c0.1,0,0.2,0,0.3,0c0,0,0,0,0,0l0,0l0,0
		c0,0,0.1,0,0.1,0c0.1,0,0.2,0,0.3,0c0.1,0,0.2,0,0.3-0.1c0.1,0,0.2,0,0.3-0.1c0.1,0,0.1,0,0.2,0c0.1,0,0.1,0,0.2,0
		c0.1,0,0.2,0,0.2-0.1c0.1,0,0.2-0.1,0.3-0.1c0.1,0,0.2-0.1,0.2-0.1c0,0,0.1,0,0.1,0c0.1,0,0.1,0,0.1-0.1c0.1-0.1,0.3-0.1,0.4-0.2
		c0.1,0,0.2-0.1,0.2-0.1c0.1-0.1,0.2-0.1,0.4-0.2c0.1,0,0.1-0.1,0.2-0.1c0.1-0.1,0.2-0.1,0.4-0.2c0.1,0,0.1-0.1,0.2-0.1
		c0.1-0.1,0.3-0.2,0.4-0.3c0,0,0.1,0,0.1-0.1c0,0,0,0,0,0c0,0,0,0,0,0c0,0,0.1-0.1,0.1-0.1c0.1,0,0.1-0.1,0.2-0.1
		c0.1-0.1,0.2-0.1,0.2-0.2c0.1-0.1,0.1-0.1,0.2-0.2c0.1-0.1,0.2-0.1,0.2-0.2c0.1-0.1,0.1-0.1,0.2-0.2c0.1-0.1,0.1-0.1,0.2-0.2
		c0.1-0.1,0.1-0.1,0.2-0.2c0.1-0.1,0.1-0.2,0.2-0.2c0,0,0,0,0.1-0.1c0-0.1,0.1-0.1,0.1-0.2c0,0,0-0.1,0.1-0.1c0,0,0,0,0,0
		c0,0,0,0,0,0c0.1-0.1,0.1-0.2,0.2-0.3l0,0c0,0,0,0,0,0l0,0c0,0,0-0.1,0.1-0.1l0,0c0-0.1,0.1-0.2,0.1-0.2c0-0.1,0.1-0.2,0.1-0.3
		c0-0.1,0-0.1,0.1-0.2c0,0,0-0.1,0.1-0.1c0,0,0-0.1,0-0.1c0.1-0.2,0.2-0.4,0.2-0.6c0,0,0,0,0,0c0,0,0,0,0,0c0-0.1,0-0.1,0-0.2
		c0-0.1,0-0.2,0.1-0.2c0,0,0,0,0,0c0,0,0,0,0,0c0-0.1,0-0.1,0-0.2c0,0,0-0.1,0-0.1c0-0.1,0-0.1,0-0.2c0-0.1,0-0.3,0-0.4c0,0,0,0,0,0
		C21.4,16.3,21.4,16.2,21.4,16z M15.9,17.4c0,0.1-0.1,0.1-0.1,0.2c0,0-0.1,0.1-0.1,0.1c-0.1,0.1-0.1,0.1-0.2,0.2c0,0-0.1,0-0.1,0.1
		c-0.1,0.1-0.2,0.1-0.3,0.2v0c-0.9,0.7-2.3,1.1-3.7,1.1c-0.1,0-0.3,0-0.4,0c-0.7,0-1.3-0.2-1.8-0.4c-0.1-0.1-0.1-0.1-0.2-0.2
		c-0.1-0.1-0.1-0.2-0.2-0.3c0,0,0-0.1-0.1-0.1c0,0,0-0.1,0-0.1l1.3,0.9c-0.1-0.1-0.2-0.2-0.3-0.3c0,0-0.1-0.1-0.1-0.1
		c-0.1-0.1-0.2-0.2-0.3-0.3c-0.1-0.1-0.1-0.2-0.2-0.2c0,0,0,0,0-0.1c0-0.1-0.1-0.1-0.1-0.2c0,0,0,0,0-0.1C9,17.7,9,17.6,9,17.5
		c0,0,0,0,0,0c0-0.1,0-0.2-0.1-0.2c0,0,0,0,0-0.1c0-0.1,0-0.2,0-0.3c0,0,0,0,0,0c0-0.1,0-0.2,0-0.3c0,0,0,0,0-0.1c0-0.1,0-0.1,0-0.2
		c0,0,0,0,0-0.1c0-0.1,0.1-0.2,0.1-0.3c0,0,0,0,0,0c0.1-0.1,0.1-0.2,0.2-0.3c0,0,0,0,0,0c0.1-0.1,0.1-0.1,0.2-0.2c0,0,0,0,0.1-0.1
		c0.1-0.1,0.2-0.1,0.2-0.2c0.8-0.7,2.1-1,3.6-1c0.4,0,0.8,0,1.2,0.1c0.7,0.1,1.3,0.3,1.8,0.6c0,0.1,0.1,0.1,0.1,0.2c0,0,0,0.1,0,0.1
		c0,0.1,0,0.1,0,0.2c0,0,0,0.1,0,0.1c0,0,0,0.1,0,0.1c0,0.1,0,0.2,0,0.2c0,0,0,0.1,0,0.1c0,0.1,0,0.1,0,0.2c0,0,0,0.1,0,0.1
		c0,0.1,0,0.1,0,0.2c0,0,0,0.1,0,0.1c0,0.1-0.1,0.2-0.1,0.3c0,0,0,0,0,0.1c0,0.1-0.1,0.2-0.2,0.3c-0.1,0.1-0.1,0.2-0.2,0.3
		C15.9,17.4,15.9,17.4,15.9,17.4z M17.2,2.6C17.2,2.6,17.2,2.6,17.2,2.6c0.1,0.1,0.1,0.1,0.2,0.1c0,0,0.1,0.1,0.1,0.1
		c0,0,0.1,0.1,0.1,0.1c0,0,0,0,0,0l-0.9-0.6c0.1,0,0.2,0.1,0.2,0.1C17,2.5,17.1,2.6,17.2,2.6z M18.4,11.1c0.1,0.1,0.1,0.1,0.2,0.2
		c0,0,0.1,0.1,0.1,0.1c0.1,0.1,0.1,0.2,0.2,0.2c-0.2-0.2-0.5-0.3-0.7-0.5c0,0-0.1,0-0.1-0.1c0,0-0.1-0.1-0.1-0.1
		c0,0,0.1-0.1,0.1-0.1C18.1,10.8,18.2,10.9,18.4,11.1C18.3,11,18.4,11,18.4,11.1z M18.8,11.7L18,11.2c0.2,0.1,0.4,0.1,0.5,0.2
		c0,0,0,0,0.1,0.1C18.6,11.6,18.7,11.6,18.8,11.7z M7.1,22.1c-0.2-0.1-0.5-0.2-0.7-0.3c-0.1-0.1-0.1-0.1-0.2-0.2
		c-0.1-0.1-0.1-0.1-0.2-0.2C6.1,21.4,6,21.3,6,21.3L7.1,22.1z M15.3,13.9c0.1,0,0.2,0.1,0.3,0.1c0.1,0,0.1,0,0.2,0.1
		c0,0,0.1,0,0.1,0c0.1,0.1,0.1,0.1,0.2,0.2c0,0,0.1,0.1,0.1,0.1c0.1,0.1,0.1,0.2,0.2,0.4l-1.3-0.9c-0.1,0-0.1-0.1-0.2-0.1
		c0.1,0,0.2,0,0.2,0.1C15.2,13.9,15.3,13.9,15.3,13.9z M14,8.2c0,0-0.1,0.1-0.1,0.1c-0.1,0.1-0.1,0.1-0.2,0.2
		c-0.1,0-0.1,0.1-0.2,0.1c-0.1,0-0.2,0.1-0.2,0.1c-0.1,0-0.1,0.1-0.2,0.1c-0.1,0-0.2,0.1-0.3,0.1c-0.1,0-0.1,0.1-0.2,0.1
		c-0.1,0-0.2,0.1-0.3,0.1c-0.1,0-0.1,0-0.2,0.1c-0.1,0-0.2,0-0.3,0.1c0,0-0.1,0-0.1,0c-0.2,0-0.3,0-0.5,0c0,0-0.1,0-0.1,0
		c0,0-0.1-0.1-0.1-0.1c0,0,0,0-0.1-0.1c0,0-0.1-0.1-0.1-0.1c0,0,0,0-0.1-0.1c-0.1-0.1-0.1-0.2-0.2-0.2c0-0.1-0.1-0.1-0.1-0.2
		c0,0,0-0.1-0.1-0.2c0,0,0-0.1,0-0.1c0-0.1,0-0.2,0-0.2c0,0,0,0,0,0c0-0.1,0-0.2,0-0.3c0,0,0-0.1,0-0.1c0-0.1,0-0.1,0-0.2
		c0,0,0-0.1,0-0.1c0,0,0-0.1,0-0.1c0,0,0-0.1,0-0.1c0-0.1,0-0.1,0.1-0.2c0,0,0-0.1,0-0.1c0-0.1,0.1-0.2,0.2-0.3c0,0,0,0,0-0.1
		c0-0.1,0.1-0.1,0.2-0.2c0,0,0.1,0,0.1-0.1c0.1,0,0.1-0.1,0.2-0.1c0,0,0.1,0,0.1-0.1c0.1-0.1,0.2-0.1,0.3-0.2
		C12,5.7,12.5,5.6,13,5.6c0.5,0,1,0.1,1.4,0.3c0,0,0.1,0,0.1,0c0,0,0,0,0,0c0,0,0.1,0,0.1,0.1c0,0,0,0,0,0c0,0,0,0.1,0,0.1
		c0,0,0,0.1,0,0.1c0,0,0,0.1,0,0.1c0,0.1,0,0.1,0,0.2c0,0,0,0.1,0,0.1c0,0,0,0.1,0,0.1c0,0,0,0.1,0,0.1c0,0,0,0.1,0,0.1
		c0,0,0,0.1,0,0.1c0,0.1-0.1,0.2-0.1,0.3c0,0.1-0.1,0.2-0.1,0.2c-0.1,0.1-0.1,0.2-0.2,0.2c0,0.1-0.1,0.1-0.1,0.1
		C14.2,8.1,14.1,8.1,14,8.2z M14.2,5.4c0.1,0,0.2,0.1,0.3,0.1c0,0,0,0,0,0c0.1,0.1,0.1,0.2,0.2,0.3c0,0.1,0.1,0.1,0.1,0.2
		c0,0,0,0,0,0l-1.1-0.7c0.1,0,0.3,0,0.4,0.1C14.1,5.3,14.1,5.3,14.2,5.4z M10.6,9.2C10.6,9.1,10.5,9.1,10.6,9.2
		c-0.1-0.2-0.2-0.3-0.2-0.4c0,0,0-0.1-0.1-0.1l0.9,0.6c-0.1,0-0.2,0-0.2,0C10.8,9.2,10.7,9.2,10.6,9.2z"/>
	<g>
		<linearGradient id="SVGID_2_" gradientUnits="userSpaceOnUse" x1="8.3715" y1="6.6393" x2="15.773" y2="6.9314">
			<stop  offset="0.1152" style="stop-color:#FF8A2E"/>
			<stop  offset="0.3016" style="stop-color:#F9842D"/>
			<stop  offset="0.5436" style="stop-color:#EA742A"/>
			<stop  offset="0.815" style="stop-color:#D05925"/>
			<stop  offset="1" style="stop-color:#BA4321"/>
		</linearGradient>
		<path class="st2" d="M10.9,9.2c-0.8-0.1-1.6-0.6-2-1.4C8.6,7.2,8.6,6.4,8.9,5.7c0.2-0.5,0.6-0.9,1.2-1.1c0.4-0.2,1-0.3,1.6-0.3
			c1.1,0,2.5,0.5,3,1.5c0.3,0.6,0.3,1.2-0.1,1.9c-0.6,1-2,1.7-3.2,1.7C11.2,9.3,11.1,9.3,10.9,9.2z M9.3,5.9C9,6.4,9,7.1,9.3,7.7
			c0.3,0.6,0.9,1.1,1.7,1.2c0.1,0,0.2,0,0.3,0c1.1,0,2.3-0.6,2.9-1.5c0.2-0.3,0.4-0.9,0.1-1.5c-0.4-0.7-1.5-1.3-2.6-1.3
			c-0.5,0-1,0.1-1.4,0.3C9.8,5.2,9.5,5.5,9.3,5.9L9.3,5.9z"/>
		<linearGradient id="SVGID_3_" gradientUnits="userSpaceOnUse" x1="8.0087" y1="15.8291" x2="15.4105" y2="16.1213">
			<stop  offset="0.1152" style="stop-color:#FF8A2E"/>
			<stop  offset="0.3016" style="stop-color:#F9842D"/>
			<stop  offset="0.5436" style="stop-color:#EA742A"/>
			<stop  offset="0.815" style="stop-color:#D05925"/>
			<stop  offset="1" style="stop-color:#BA4321"/>
		</linearGradient>
		<path class="st3" d="M13.3,12.8c1.4,0.2,2.6,1,3.1,1.9c0.3,0.7,0.3,1.5-0.2,2.3c-0.3,0.4-0.6,0.8-1,1.1c-0.9,0.7-2.3,1.1-3.7,1.1
			c-1.6,0-3-0.6-3.8-1.6c-0.9-1.2-0.7-2.8,0.5-3.8c0.9-0.7,2.3-1.1,3.9-1.1C12.5,12.8,12.9,12.8,13.3,12.8z M15.8,16.9
			c0.4-0.7,0.5-1.3,0.2-1.9c-0.4-0.9-1.4-1.5-2.8-1.7c-0.4-0.1-0.8-0.1-1.2-0.1c-1.5,0-2.8,0.4-3.6,1c-1,0.8-1.2,2.2-0.4,3.2
			c0.7,0.9,2,1.4,3.5,1.4c1.3,0,2.6-0.4,3.5-1C15.3,17.6,15.6,17.3,15.8,16.9L15.8,16.9z"/>
	</g>
	<linearGradient id="SVGID_4_" gradientUnits="userSpaceOnUse" x1="18.328" y1="20.6146" x2="-1.28" y2="-3.5387">
		<stop  offset="0.1377" style="stop-color:#E54E13"/>
		<stop  offset="0.2856" style="stop-color:#E55512"/>
		<stop  offset="0.5061" style="stop-color:#E66A0D"/>
		<stop  offset="0.7706" style="stop-color:#E68B07"/>
		<stop  offset="1" style="stop-color:#E7AD00"/>
	</linearGradient>
	<path class="st4" d="M18.7,11.9c-0.5-0.7-1.4-1.3-2.6-1.6l-0.4-0.1L16,10c1.8-1.5,2.7-3.5,2.2-5.3c-0.8-3.1-4.5-3.6-6.1-3.6
		c0,0,0,0-0.1,0c-2.2,0-4.6,1.3-5.7,3.2C5.8,5.2,5.5,6.4,5.6,7.5c0.1,1,1,2.5,1.7,3.1l0.2,0.2l-0.2,0.1c-1.2,0.7-2.3,1.6-2.9,2.6
		c-0.9,1.4-1.2,3-0.9,4.4c0.1,0.3,0.2,0.6,0.3,0.9c0.7,1.7,2.3,3,4.5,3.5c0.7,0.2,1.4,0.2,2.1,0.2c3.5,0,7-1.8,8.4-4.5
		C20,15.9,19.9,13.7,18.7,11.9z M8.9,5.7c0.2-0.5,0.6-0.9,1.2-1.1c0.4-0.2,1-0.3,1.6-0.3c1.1,0,2.5,0.5,3,1.5
		c0.3,0.6,0.3,1.2-0.1,1.9c-0.6,1-2,1.7-3.2,1.7c-0.1,0-0.3,0-0.4,0c-0.8-0.1-1.6-0.6-2-1.4C8.6,7.2,8.6,6.4,8.9,5.7z M8.2,13.9
		c0.9-0.7,2.3-1.1,3.9-1.1c0.4,0,0.8,0,1.2,0.1c1.4,0.2,2.6,1,3.1,1.9c0.3,0.7,0.3,1.5-0.2,2.3c-0.3,0.4-0.6,0.8-1,1.1
		c-0.9,0.7-2.3,1.1-3.7,1.1c-1.6,0-3-0.6-3.8-1.6C6.8,16.5,7,14.9,8.2,13.9z"/>
	<linearGradient id="SVGID_5_" gradientUnits="userSpaceOnUse" x1="3.5658" y1="11.8191" x2="19.6296" y2="11.8191">
		<stop  offset="0.1377" style="stop-color:#E54E13"/>
		<stop  offset="0.2856" style="stop-color:#E55512"/>
		<stop  offset="0.5061" style="stop-color:#E66A0D"/>
		<stop  offset="0.7706" style="stop-color:#E68B07"/>
		<stop  offset="1" style="stop-color:#E7AD00"/>
	</linearGradient>
	<path class="st5" d="M12.1,1.1c1.6,0,5.3,0.4,6.1,3.6c0.5,1.7-0.4,3.7-2.2,5.3l-0.3,0.2l0.4,0.1c1.2,0.3,2.1,0.9,2.6,1.6
		c1.2,1.8,1.3,4,0.2,6.1c-1.4,2.7-4.9,4.5-8.4,4.5c-0.7,0-1.4-0.1-2.1-0.2c-2.2-0.5-3.8-1.8-4.5-3.5c-0.1-0.3-0.2-0.6-0.3-0.9
		c1.6,2.1,4.5,3.5,7.2,3.5c0.4,0,0.9,0,1.3-0.1c3.1-0.5,6-2.8,6.1-6.1c0.1-2.8-2.9-4.1-5.3-4.4c1.4-0.9,3-1.8,3.8-3.3
		c0.7-1.6-0.1-3.4-1.2-4.5C14.6,2.1,13.4,1.5,12.1,1.1z"/>
	<linearGradient id="SVGID_6_" gradientUnits="userSpaceOnUse" x1="5.9844" y1="11.2738" x2="19.1326" y2="12.6374">
		<stop  offset="0.1152" style="stop-color:#FF8A2E"/>
		<stop  offset="0.3016" style="stop-color:#F9842D"/>
		<stop  offset="0.5436" style="stop-color:#EA742A"/>
		<stop  offset="0.815" style="stop-color:#D05925"/>
		<stop  offset="1" style="stop-color:#BA4321"/>
	</linearGradient>
	<path class="st6" d="M19,11.7c-0.5-0.7-1.4-1.3-2.5-1.7c1.8-1.6,2.6-3.6,2.1-5.4c-0.6-2.4-3-3.8-6.6-3.9c-2.3,0-4.8,1.4-6,3.4
		C5.4,5,5.1,6.3,5.3,7.6c0.1,1,0.9,2.4,1.7,3.2c-1.2,0.7-2.2,1.6-2.8,2.6c-1.1,1.8-1.4,3.9-0.7,5.6c0.8,1.9,2.5,3.2,4.8,3.7
		c0.7,0.2,1.4,0.2,2.2,0.2c3.7,0,7.3-1.9,8.8-4.7C20.4,15.9,20.3,13.6,19,11.7z M4.5,13.5c0.6-0.9,1.6-1.9,2.9-2.6l0.2-0.1l-0.2-0.2
		C6.7,10,5.7,8.5,5.6,7.5C5.5,6.4,5.8,5.2,6.3,4.3c1.1-1.8,3.5-3.2,5.8-3.2c1.6,0,5.3,0.4,6.1,3.6c0.5,1.7-0.4,3.7-2.2,5.3l-0.3,0.2
		l0.4,0.1c1.2,0.3,2.1,0.9,2.6,1.6c1.2,1.8,1.3,4,0.2,6.1c-1.4,2.7-4.9,4.5-8.4,4.5c-0.7,0-1.4-0.1-2.1-0.2
		c-2.2-0.5-3.8-1.8-4.5-3.5c-0.1-0.3-0.2-0.6-0.3-0.9C3.3,16.5,3.6,14.9,4.5,13.5z"/>
</g>
</svg>
