<?xml version="1.0" encoding="utf-8"?>
<!-- Generator: Adobe Illustrator 24.0.1, SVG Export Plug-In . SVG Version: 6.00 Build 0)  -->
<svg version="1.1" id="Capa_1" xmlns="http://www.w3.org/2000/svg" xmlns:xlink="http://www.w3.org/1999/xlink" x="0px" y="0px"
	 viewBox="0 0 25 25" style="enable-background:new 0 0 25 25;" xml:space="preserve">
<style type="text/css">
	.st0{fill:#B4B4B4;}
	.st1{fill:#1F2C66;}
	.st2{fill:url(#SVGID_1_);}
	.st3{fill:url(#SVGID_2_);}
	.st4{opacity:0.5;fill:url(#SVGID_3_);}
	.st5{fill:url(#SVGID_4_);}
	.st6{fill:url(#SVGID_5_);}
</style>
<g>
	<path class="st0" d="M7.7,18c0,0-0.1-0.1-0.1-0.1l0,0C7.6,17.9,7.6,18,7.7,18L7.7,18z M10.2,11.3L10.2,11.3L10.2,11.3L10.2,11.3
		L10.2,11.3z M11.8,11.8C11.7,11.8,11.7,11.8,11.8,11.8c-0.3,0-0.5,0-0.8-0.1l0-0.1c0-0.1-0.1-0.1-0.1-0.2c0,0-0.1-0.1-0.1-0.1
		c0-0.1-0.1-0.1-0.1-0.2c0,0-0.1-0.1-0.1-0.2c0-0.1-0.1-0.1-0.1-0.2c0-0.1,0-0.1-0.1-0.2c0-0.1-0.1-0.1-0.1-0.2
		c0-0.1-0.1-0.2-0.1-0.2c0,0,0-0.1,0-0.1c0-0.1-0.1-0.2-0.1-0.4c0-0.1,0-0.2,0-0.2c0,0,0-0.1,0-0.1c0-0.1,0-0.1,0-0.2l0-0.1l0,0
		c0-0.1,0-0.2,0-0.3l0-0.1c0-0.1,0-0.2,0.1-0.3l0,0c0-0.1,0.1-0.2,0.1-0.3l0-0.1c0.1-0.1,0.1-0.2,0.2-0.3l0,0
		c0.1-0.1,0.2-0.2,0.2-0.3l0,0c0.1-0.1,0.2-0.2,0.3-0.2l0,0C11.1,7.1,11.2,7,11.3,7l0,0c0.1,0,0.2-0.1,0.3-0.1
		c0.2-0.1,0.5-0.1,0.8-0.1c0,0,0,0,0,0c0.5,0,1,0.1,1.5,0.3c0.3,0.3,0.5,0.7,0.6,1.2c0.4,1.6-0.8,3.1-2.2,3.5
		C12.2,11.8,12,11.8,11.8,11.8L11.8,11.8z M13.3,6.5L13.3,6.5L13.3,6.5L13.3,6.5L13.3,6.5z M17.1,3.8L17.1,3.8
		c-0.1-0.1-0.2-0.2-0.2-0.2l0,0C17,3.6,17,3.7,17.1,3.8L17.1,3.8z M16.7,3.4c-0.1-0.1-0.2-0.2-0.3-0.2l0.1,0.1
		C16.6,3.3,16.6,3.3,16.7,3.4L16.7,3.4z M16.2,3C16.1,2.9,16,2.8,16,2.8l0,0c0,0,0.1,0.1,0.1,0.1C16.2,2.9,16.2,3,16.2,3L16.2,3z
		 M11.8,1.3c-2.6,0-5.2,1.4-6.4,3.4C3.6,7.6,4.6,12,7.4,14c0.1,0.1,0.2,0.1,0.3,0.2c-0.1,0-0.1-0.1-0.2-0.1L8.9,15
		c1.1,0.7,2.4,1.1,3.8,1.1c0,0,0,0,0,0c1,0,2-0.2,2.9-0.6c-0.1,1.4-0.9,2.9-2.2,3.5c-0.5,0.2-1.1,0.4-1.7,0.4c0,0,0,0,0,0
		c-1,0-2.2-0.3-3.2-0.9l-1-0.7l0,0c-0.2-0.1-0.4-0.2-0.6-0.2c0,0,0,0,0,0c-0.2,0-0.5,0.1-0.9,0.4c-0.7,0.8-0.8,2.6-0.3,3.4
		c0.2,0.4,0.6,0.7,1.1,1l-0.1-0.1l0,0l0,0l1.3,0.9c0.6,0.4,1.3,0.7,2.3,0.9c0.6,0.2,1.3,0.2,1.9,0.2c0,0,0,0,0,0c0.2,0,0.4,0,0.6,0
		c0.1,0,0.1,0,0.2,0c0.1,0,0.3,0,0.4-0.1c0.1,0,0.1,0,0.2,0c0.2,0,0.4-0.1,0.6-0.1l0,0c0.2,0,0.4-0.1,0.6-0.2c0.1,0,0.1,0,0.2-0.1
		c0.1,0,0.3-0.1,0.4-0.2c0.1,0,0.1,0,0.2-0.1c0.2-0.1,0.3-0.1,0.5-0.2l0.1,0l0,0c0.1,0,0.2-0.1,0.3-0.1c0,0,0.1,0,0.1-0.1
		c0,0,0.1,0,0.1-0.1c0,0,0.1,0,0.1-0.1c0,0,0.1-0.1,0.1-0.1l0.1-0.1l0.1,0c0.1-0.1,0.1-0.1,0.2-0.2c0.2-0.1,0.4-0.3,0.6-0.5v0
		c0.1-0.1,0.2-0.2,0.3-0.3l0.1-0.1c0.1-0.1,0.2-0.2,0.3-0.3c0.1-0.1,0.1-0.1,0.2-0.2c0,0,0.1-0.1,0.1-0.1c0,0,0.1-0.1,0.1-0.1
		c0,0,0.1-0.1,0.1-0.1l0,0l0,0c0-0.1,0.1-0.1,0.1-0.2c0.1-0.1,0.1-0.1,0.2-0.2c0-0.1,0.1-0.1,0.1-0.2c0-0.1,0.1-0.1,0.1-0.2
		c0.1-0.1,0.1-0.2,0.2-0.3c0-0.1,0.1-0.1,0.1-0.2l0-0.1c0,0,0-0.1,0.1-0.1c0.1-0.2,0.2-0.4,0.3-0.7l0,0c0,0,0-0.1,0.1-0.1
		c0.1-0.1,0.1-0.3,0.2-0.4c0-0.1,0.1-0.1,0.1-0.2c0-0.1,0.1-0.2,0.1-0.2c0.1-0.2,0.1-0.4,0.2-0.6c0,0,0-0.1,0-0.1l0,0
		c0.1-0.3,0.2-0.5,0.2-0.8c0-0.1,0-0.1,0-0.2c0-0.1,0.1-0.2,0.1-0.3c0-0.1,0-0.1,0-0.2c0-0.1,0-0.1,0-0.2l0-0.1c0,0,0-0.1,0-0.1
		c0-0.3,0.1-0.6,0.1-0.9l0-0.1c0-0.3,0-0.6,0-0.9l0-0.1l0-0.1c0,0,0-0.1,0-0.1c0-0.1,0-0.1,0-0.2c0-0.2,0-0.3,0-0.4
		c0-0.1,0-0.2,0-0.3c0-0.3,0-0.6-0.1-0.9c0-0.1,0-0.2,0-0.2c0-0.1,0-0.2-0.1-0.3c0-0.2-0.1-0.3-0.1-0.5c0-0.1-0.1-0.3-0.1-0.4
		c0-0.2-0.1-0.3-0.1-0.5c0-0.1-0.1-0.3-0.1-0.4c0-0.1-0.1-0.3-0.1-0.4c0-0.1-0.1-0.2-0.1-0.4c0-0.1-0.1-0.3-0.1-0.4
		c0-0.1,0-0.1-0.1-0.2c0-0.1-0.1-0.1-0.1-0.2c0-0.1-0.1-0.2-0.1-0.3c-0.1-0.1-0.1-0.3-0.2-0.4c0-0.1-0.1-0.2-0.1-0.2
		c-0.1-0.1-0.2-0.3-0.2-0.4c0-0.1-0.1-0.1-0.1-0.2c-0.1-0.2-0.2-0.4-0.4-0.5c-0.1-0.1-0.2-0.2-0.3-0.3l-0.1-0.1
		c-0.1-0.1-0.2-0.2-0.2-0.3l-0.1-0.1l0,0c-0.1-0.1-0.2-0.2-0.3-0.3l-0.1-0.1c-0.1-0.1-0.2-0.2-0.3-0.3c0,0-0.1-0.1-0.1-0.1
		c-0.1-0.1-0.2-0.2-0.3-0.2c0,0-0.1-0.1-0.1-0.1c-0.1-0.1-0.3-0.2-0.4-0.3l-1.3-0.9c0.1,0,0.1,0.1,0.2,0.1c-0.5-0.3-0.9-0.6-1.4-0.8
		C13.5,1.5,12.7,1.3,11.8,1.3C11.8,1.3,11.8,1.3,11.8,1.3L11.8,1.3z"/>
	<g>
		<path class="st1" d="M9,10.9l1.3,0.9c0.5,0.3,1.1,0.5,1.7,0.5c0.3,0,0.5,0,0.8-0.1c0.1,0,0.2-0.1,0.3-0.1c0,0,0.1,0,0.1,0
			c0.1,0,0.1-0.1,0.2-0.1c0,0,0.1,0,0.1-0.1c0.1,0,0.1-0.1,0.2-0.1c0,0,0.1,0,0.1-0.1c0,0,0.1-0.1,0.1-0.1c0,0,0.1-0.1,0.1-0.1
			c0,0,0.1-0.1,0.1-0.1c0,0,0.1-0.1,0.1-0.1c0,0,0.1-0.1,0.1-0.1c0,0,0.1-0.1,0.1-0.1c0,0,0.1-0.1,0.1-0.1c0,0,0.1-0.1,0.1-0.1
			c0,0,0.1-0.1,0.1-0.1c0,0,0,0,0,0c0,0,0.1-0.1,0.1-0.1c0,0,0.1-0.1,0.1-0.1c0,0,0-0.1,0.1-0.1c0,0,0-0.1,0-0.1c0,0,0,0,0,0
			c0.1-0.1,0.1-0.3,0.2-0.4c0,0,0,0,0,0c0,0,0,0,0-0.1c0-0.1,0.1-0.2,0.1-0.3c0,0,0,0,0-0.1c0,0,0,0,0-0.1c0-0.1,0-0.2,0-0.3
			c0,0,0-0.1,0-0.1c0,0,0,0,0,0c0-0.1,0-0.3,0-0.4c0,0,0,0,0,0c0-0.1,0-0.2,0-0.3c0-0.1-0.1-0.3-0.1-0.4c0,0,0,0,0,0c0,0,0,0,0-0.1
			c0,0,0-0.1-0.1-0.1c0,0,0-0.1-0.1-0.1c0,0,0-0.1-0.1-0.1c0,0-0.1-0.1-0.1-0.1c0,0-0.1-0.1-0.1-0.1c0,0-0.1-0.1-0.1-0.1
			c0,0-0.1-0.1-0.1-0.1c0,0,0,0,0,0c0,0,0,0,0,0c-0.1-0.1-0.1-0.1-0.2-0.2c0,0-0.1,0-0.1-0.1c-0.1-0.1-0.2-0.2-0.3-0.2l-0.3-0.2
			c-0.3-0.2-0.7-0.5-1-0.7c0,0,0,0,0,0c-0.1-0.1-0.3-0.2-0.4-0.3c0,0-0.1,0-0.1,0C11.9,5,11.7,5,11.6,4.9c0,0,0,0,0,0c0,0,0,0-0.1,0
			c-0.1,0-0.2-0.1-0.3-0.1c0,0-0.1,0-0.1,0c-0.1,0-0.2-0.1-0.4-0.1c0,0,0,0,0,0c0,0,0,0,0,0c-0.1,0-0.2,0-0.2,0c0,0,0,0-0.1,0
			c-0.1,0-0.2,0-0.3,0c-0.4,0-0.7,0-1,0.1C9,4.8,8.8,4.8,8.7,4.9c0,0,0,0,0,0C8.6,5,8.5,5,8.4,5.1c0,0,0,0,0,0
			C8.2,5.2,8.1,5.3,8,5.4c0,0,0,0,0,0C7.9,5.5,7.8,5.6,7.7,5.7c0,0,0,0,0,0c0,0,0,0,0,0C7.6,5.9,7.5,6,7.5,6.2c0,0,0,0,0,0
			c0,0,0,0,0,0c0,0.1-0.1,0.2-0.1,0.3c0,0,0,0,0,0c0,0,0,0,0,0c0,0.1-0.1,0.2-0.1,0.4c0,0,0,0,0,0c0,0,0,0,0,0c0,0.1,0,0.2,0,0.4
			c0,0,0,0,0,0c0,0,0,0,0,0c0,0,0,0.1,0,0.1c0,0.1,0,0.1,0,0.2c0,0,0,0.1,0,0.1c0,0,0,0.1,0,0.1l0,0.1c0,0.1,0.1,0.3,0.1,0.4
			c0,0,0,0.1,0,0.1c0,0.1,0.1,0.2,0.1,0.3c0,0,0,0,0,0c0,0.1,0.1,0.1,0.1,0.2c0,0.1,0,0.1,0.1,0.2c0,0.1,0.1,0.1,0.1,0.2
			c0,0,0.1,0.1,0.1,0.1c0,0.1,0.1,0.1,0.1,0.2C8,9.9,8,10,8.1,10c0.1,0.1,0.1,0.1,0.2,0.2c0,0,0.1,0.1,0.1,0.1c0,0,0,0,0,0
			c0.1,0.1,0.1,0.1,0.2,0.2c0,0,0.1,0.1,0.1,0.1C8.8,10.7,8.9,10.8,9,10.9z M12.5,5.7c0.1,0,0.2,0.1,0.3,0.1c0,0,0.1,0,0.1,0
			c0.1,0,0.2,0.1,0.2,0.1c0,0,0,0,0,0c0,0,0.1,0.1,0.1,0.1c0,0,0.1,0.1,0.1,0.1c0,0,0.1,0.1,0.1,0.1c0,0,0.1,0.1,0.1,0.1
			c0,0,0,0.1,0.1,0.1c0,0,0,0.1,0,0.1l-1.3-0.9c0,0-0.1-0.1-0.2-0.1c0.1,0,0.2,0,0.2,0.1C12.4,5.7,12.5,5.7,12.5,5.7z M9.6,11.1
			c-0.1-0.1-0.1-0.1-0.2-0.2c0,0-0.1-0.1-0.1-0.2c0-0.1-0.1-0.1-0.1-0.2c0,0,0-0.1,0-0.1c0,0,0,0,0.1,0l1.3,0.9
			c-0.3,0-0.5-0.1-0.8-0.2C9.7,11.2,9.6,11.2,9.6,11.1z M10.7,11.4c-0.1,0-0.1,0-0.2,0c-0.1-0.1-0.1-0.1-0.2-0.2
			c0,0-0.1-0.1-0.1-0.1C10.1,11.1,10,11,10,11c0,0-0.1-0.1-0.1-0.1c0,0-0.1-0.1-0.1-0.1c0-0.1-0.1-0.1-0.1-0.2c0,0-0.1-0.1-0.1-0.1
			c0-0.1-0.1-0.1-0.1-0.2c0-0.1-0.1-0.1-0.1-0.2c0-0.1-0.1-0.1-0.1-0.2c0-0.1-0.1-0.1-0.1-0.2c0-0.1-0.1-0.2-0.1-0.2
			c0,0,0-0.1,0-0.1C9,9.2,9,9.1,9,9c0-0.1,0-0.1,0-0.2c0,0,0-0.1,0-0.1c0-0.1,0-0.1,0-0.2c0,0,0,0,0-0.1c0,0,0,0,0,0
			c0-0.1,0-0.2,0-0.3C9,8,9,8,9,7.9C9,7.8,9,7.7,9,7.6c0,0,0,0,0,0c0-0.1,0.1-0.2,0.1-0.3c0,0,0,0,0-0.1C9.2,7.1,9.3,7,9.4,6.9
			c0,0,0,0,0,0c0.1-0.1,0.2-0.2,0.2-0.3c0,0,0,0,0,0c0.1-0.1,0.2-0.2,0.3-0.2c0,0,0,0,0,0c0.1-0.1,0.2-0.1,0.3-0.2c0,0,0,0,0,0
			c0.1,0,0.2-0.1,0.3-0.1c0.3-0.1,0.5-0.1,0.9-0.1c0.8,0,1.6,0.2,2.3,0.7c0,0,0,0,0,0.1c0,0,0,0.1,0.1,0.1c0,0,0,0.1,0.1,0.1
			c0,0.1,0.1,0.3,0.1,0.4c0,0.1,0,0.2,0,0.3c0,0.1,0,0.3,0,0.4c0,0,0,0.1,0,0.1c0,0.1,0,0.2,0,0.3c0,0,0,0.1,0,0.1
			c0,0.1,0,0.2-0.1,0.3c0,0,0,0,0,0.1c0,0.1-0.1,0.3-0.2,0.4c0,0,0,0.1-0.1,0.1c0,0,0,0.1-0.1,0.1c0,0-0.1,0.1-0.1,0.1
			c0,0-0.1,0.1-0.1,0.1c0,0-0.1,0.1-0.1,0.1c0,0-0.1,0.1-0.1,0.1c0,0-0.1,0.1-0.1,0.1c0,0-0.1,0.1-0.1,0.1c0,0-0.1,0.1-0.1,0.1
			c0,0-0.1,0.1-0.1,0.1c0,0-0.1,0.1-0.1,0.1c0,0-0.1,0.1-0.1,0.1c0,0-0.1,0.1-0.1,0.1c0,0-0.1,0.1-0.1,0.1c-0.1,0-0.1,0.1-0.2,0.1
			c0,0-0.1,0-0.1,0.1c-0.1,0-0.1,0.1-0.2,0.1c0,0-0.1,0-0.1,0c-0.1,0-0.2,0.1-0.3,0.1C11.2,11.4,10.9,11.4,10.7,11.4z"/>
		<path class="st1" d="M7.9,18.1L7.9,18.1C7.9,18,7.9,18,7.9,18c0,0-0.1-0.1-0.1-0.1c-0.4-0.3-0.9-0.6-1.3-0.9
			c0.1,0,0.1,0.1,0.1,0.1c0,0,0.1,0.1,0.1,0.1L7.9,18.1z"/>
		<linearGradient id="SVGID_1_" gradientUnits="userSpaceOnUse" x1="15.0148" y1="2.076" x2="7.2271" y2="24.6603">
			<stop  offset="0.4534" style="stop-color:#1F2C66"/>
			<stop  offset="0.9337" style="stop-color:#000000"/>
		</linearGradient>
		<path class="st2" d="M20.4,12.3c0-0.2,0-0.3,0-0.5c0-0.1,0-0.2,0-0.3c0-0.3,0-0.6-0.1-0.9c0-0.1,0-0.2,0-0.2c0-0.1,0-0.2,0-0.3
			c0-0.2-0.1-0.4-0.1-0.5c0-0.1-0.1-0.3-0.1-0.4C20,9,20,8.8,20,8.7c0-0.1-0.1-0.2-0.1-0.4c0-0.2-0.1-0.3-0.1-0.4
			c0-0.1-0.1-0.2-0.1-0.3c0-0.1-0.1-0.3-0.1-0.4c0-0.1,0-0.1-0.1-0.2c0-0.1-0.1-0.1-0.1-0.2c0-0.1-0.1-0.2-0.1-0.3
			c-0.1-0.1-0.1-0.3-0.2-0.4C19,6,18.9,6,18.9,5.9c-0.1-0.1-0.1-0.3-0.2-0.4c0-0.1-0.1-0.1-0.1-0.2c-0.1-0.2-0.2-0.4-0.4-0.5
			c-0.1-0.1-0.2-0.2-0.3-0.3c0,0-0.1-0.1-0.1-0.1c-0.1-0.1-0.2-0.2-0.3-0.3c0,0,0,0-0.1-0.1c0,0,0,0,0,0c-0.1-0.1-0.2-0.2-0.3-0.3
			c0,0-0.1,0-0.1-0.1c-0.1-0.1-0.2-0.2-0.3-0.3c0,0-0.1-0.1-0.1-0.1c-0.1-0.1-0.2-0.2-0.3-0.2c0,0-0.1-0.1-0.1-0.1
			c-0.1-0.1-0.3-0.2-0.4-0.3l-1.3-0.9c0.1,0.1,0.3,0.2,0.4,0.3C15,2,15,2,15,2.1c0.1,0.1,0.2,0.2,0.3,0.2c0,0,0.1,0.1,0.1,0.1
			c0.1,0.1,0.2,0.2,0.3,0.3c0,0,0,0,0.1,0.1C15.9,2.8,16,2.9,16,3c-0.1-0.1-0.2-0.1-0.3-0.2l-1.3-0.9c-0.3-0.2-0.6-0.4-0.9-0.5
			c-0.1,0-0.2-0.1-0.3-0.1c-0.8-0.3-1.6-0.5-2.4-0.5c-0.2,0-0.4,0-0.6,0c-0.1,0-0.1,0-0.2,0c-0.2,0-0.4,0-0.5,0.1c0,0-0.1,0-0.1,0
			c0,0,0,0,0,0l0,0c0,0,0,0,0,0c0,0,0,0,0,0c-0.1,0-0.2,0-0.2,0C9,0.9,8.9,0.9,8.8,1C8.7,1,8.7,1,8.6,1C8.5,1,8.5,1,8.4,1.1
			c0,0,0,0,0,0l0,0c0,0,0,0,0,0c0,0,0,0,0,0C8.1,1.1,7.9,1.2,7.7,1.3c0,0-0.1,0-0.1,0.1C7.4,1.5,7.2,1.6,7,1.7l0.2,0.1
			c0,0-0.1,0-0.1,0.1c0,0-0.1,0.1-0.1,0.1C6.8,2,6.7,2,6.6,2.1c0,0-0.1,0.1-0.1,0.1C6.4,2.2,6.3,2.3,6.2,2.4c-0.1,0-0.1,0.1-0.1,0.1
			C6,2.5,5.9,2.6,5.9,2.6c0,0-0.1,0.1-0.1,0.1C5.7,2.8,5.6,2.9,5.5,2.9c0,0-0.1,0.1-0.1,0.1C5.3,3.1,5.3,3.2,5.2,3.3
			c0,0-0.1,0.1-0.1,0.1C5,3.5,5,3.6,4.9,3.6c0,0-0.1,0.1-0.1,0.1c0,0,0,0,0,0C4.7,3.9,4.7,4,4.6,4.1C4.5,4.2,4.4,4.4,4.4,4.5
			c0,0,0,0.1,0,0.1c0,0,0,0.1,0,0.1C4.2,4.8,4.2,5,4.1,5.1c0,0,0,0.1,0,0.1c0,0,0,0,0,0C4.1,5.4,4,5.5,4,5.7c0,0,0,0.1,0,0.1
			c0,0.1,0,0.1,0,0.2c0,0.1,0,0.1,0,0.2c0,0.1,0,0.1,0,0.2c0,0.2,0,0.3,0,0.5c0,0,0,0.1,0,0.1c0,0,0,0,0,0c0,0.1,0,0.2,0,0.4
			c0,0.1,0,0.1,0,0.2c0,0.1,0,0.3,0,0.4c0,0.1,0,0.1,0,0.2c0,0,0,0,0,0C3.9,8.3,4,8.5,4,8.7c0,0.1,0,0.1,0,0.2
			c0,0.1,0.1,0.3,0.1,0.4c0,0.1,0,0.1,0.1,0.2c0,0.2,0.1,0.3,0.2,0.5c0,0,0,0,0,0.1c0,0,0,0,0,0c0,0.1,0.1,0.1,0.1,0.2
			c0.1,0.1,0.1,0.3,0.2,0.4c0,0.1,0.1,0.1,0.1,0.2C4.9,10.9,4.9,11,5,11.1c0,0.1,0.1,0.1,0.2,0.2c0.1,0.1,0.1,0.2,0.2,0.3
			c0.1,0.1,0.1,0.1,0.2,0.2c0.1,0.1,0.1,0.2,0.2,0.3c0,0,0,0,0,0.1c0.1,0.1,0.1,0.1,0.2,0.2c0,0,0.1,0.1,0.1,0.1
			c0.1,0.1,0.3,0.2,0.4,0.4c0,0,0.1,0.1,0.1,0.1L8,13.8c0,0,0,0,0,0l0,0c0.2,0.1,0.4,0.2,0.6,0.3c-0.8-0.2-1.5-0.5-2.1-0.9l1.4,0.9
			c1.1,0.7,2.4,1.1,3.8,1.1c1.2,0,2.3-0.3,3.4-0.8c0,0,0,0,0,0c0,0.1,0,0.1,0,0.2c0,0.1,0,0.2,0,0.2c0,0,0,0.1,0,0.1
			c0,0.1,0,0.2-0.1,0.3c0,0,0,0.1,0,0.1c0,0.1-0.1,0.2-0.1,0.4c0,0.1,0,0.1-0.1,0.2c0,0.1,0,0.1-0.1,0.2c0,0.1,0,0.1-0.1,0.2
			c0,0.1-0.1,0.1-0.1,0.2c-0.1,0.1-0.1,0.2-0.2,0.4c0,0,0,0,0,0.1c-0.1,0.1-0.1,0.2-0.2,0.3c0,0,0,0.1-0.1,0.1
			c-0.1,0.1-0.2,0.2-0.2,0.3c0,0-0.1,0.1-0.1,0.1c-0.1,0.1-0.2,0.2-0.3,0.3c0,0,0,0-0.1,0c-0.1,0.1-0.2,0.2-0.3,0.2
			c0,0-0.1,0-0.1,0.1c-0.1,0.1-0.3,0.2-0.4,0.2c-0.6,0.3-1.2,0.4-1.9,0.4c-1.1,0-2.3-0.3-3.4-1l-1-0.7c-0.1-0.1-0.2-0.1-0.3-0.1
			c-0.2,0-0.4,0.1-0.6,0.3c0,0-0.1,0.1-0.1,0.1c0,0,0,0,0,0c0,0,0,0,0,0c0,0.1-0.1,0.1-0.1,0.2c0,0,0,0,0,0c0,0,0,0,0,0
			C5,18,4.9,18,4.9,18.1c0,0,0,0,0,0c0,0,0,0,0,0c0,0.1-0.1,0.2-0.1,0.4c0,0,0,0,0,0c0,0,0,0,0,0c0,0.2,0,0.3,0,0.5c0,0,0,0,0,0
			c0,0,0,0,0,0c0,0.1,0,0.2,0,0.3c0,0,0,0,0,0.1c0,0.1,0,0.1,0,0.2c0,0,0,0,0,0c0,0,0,0,0,0c0,0.1,0,0.2,0.1,0.3c0,0,0,0,0,0
			c0,0.1,0,0.1,0.1,0.2c0,0,0,0,0,0c0,0,0,0,0,0C5,20.3,5,20.4,5,20.4c0,0.1,0.1,0.2,0.2,0.2c0,0,0,0,0.1,0.1c0,0,0.1,0.1,0.1,0.1
			c0,0,0,0,0,0c0,0,0.1,0.1,0.1,0.1c0,0,0.1,0.1,0.1,0.1c0.1,0.1,0.2,0.1,0.3,0.2L6,21.3c-0.1,0-0.3,0-0.4-0.1
			c0.1,0.1,0.1,0.1,0.2,0.2l1.1,0.8C6.4,22,6,21.8,5.6,21.6l0,0c0,0,0,0,0,0L7,22.5c0.6,0.4,1.3,0.7,2.3,0.9
			c0.6,0.2,1.3,0.2,1.9,0.2c0.2,0,0.4,0,0.6,0c0.1,0,0.1,0,0.2,0c0.1,0,0.3,0,0.4-0.1c0.1,0,0.1,0,0.2,0c0.2,0,0.4-0.1,0.6-0.1
			c0,0,0,0,0,0c0.2,0,0.4-0.1,0.6-0.2c0.1,0,0.1,0,0.2-0.1c0.1,0,0.3-0.1,0.4-0.2c0.1,0,0.1,0,0.2-0.1c0.2-0.1,0.3-0.2,0.5-0.2
			c0,0,0,0,0,0c0,0,0,0,0,0c0.1,0,0.2-0.1,0.3-0.1c0,0,0.1,0,0.1-0.1c0,0,0.1,0,0.1-0.1c0,0,0.1,0,0.1-0.1c0,0,0.1-0.1,0.1-0.1
			l0.1-0.1l0.1,0c0.1-0.1,0.1-0.1,0.2-0.2c0.2-0.1,0.4-0.3,0.6-0.5c0.1-0.1,0.2-0.2,0.3-0.3c0,0,0.1-0.1,0.1-0.1
			c0.1-0.1,0.2-0.2,0.3-0.3c0.1-0.1,0.1-0.1,0.2-0.2c0,0,0.1-0.1,0.1-0.1c0,0,0.1-0.1,0.1-0.1c0,0,0.1-0.1,0.1-0.1c0,0,0,0,0,0l0,0
			c0,0,0,0,0,0c0-0.1,0.1-0.1,0.1-0.2c0.1-0.1,0.1-0.1,0.2-0.2c0,0,0.1-0.1,0.1-0.2c0-0.1,0.1-0.1,0.1-0.2c0.1-0.1,0.1-0.2,0.2-0.3
			c0-0.1,0.1-0.1,0.1-0.2c0,0,0,0,0-0.1c0,0,0-0.1,0.1-0.1c0.1-0.2,0.2-0.4,0.3-0.7c0,0,0,0,0,0c0,0,0-0.1,0.1-0.1
			c0.1-0.1,0.1-0.3,0.2-0.4c0-0.1,0.1-0.1,0.1-0.2c0-0.1,0.1-0.2,0.1-0.2c0.1-0.2,0.1-0.4,0.2-0.6c0,0,0-0.1,0-0.1c0,0,0,0,0,0
			c0.1-0.3,0.2-0.6,0.2-0.8c0-0.1,0-0.1,0-0.2c0-0.1,0.1-0.2,0.1-0.3c0-0.1,0-0.1,0-0.2c0-0.1,0-0.1,0-0.2c0,0,0-0.1,0-0.1
			c0,0,0-0.1,0-0.1c0-0.3,0.1-0.6,0.1-0.9c0,0,0,0,0-0.1c0-0.3,0-0.6,0-0.9c0,0,0-0.1,0-0.1c0,0,0,0,0-0.1c0,0,0-0.1,0-0.1
			C20.4,12.4,20.4,12.4,20.4,12.3z M15.3,2.5c0.1,0.1,0.2,0.2,0.4,0.3c0,0,0,0,0,0C15.8,3,15.8,3,15.9,3.1C15.8,3,15.7,3,15.6,2.9
			c-0.4-0.3-0.9-0.6-1.3-0.9c0.1,0,0.1,0,0.2,0.1c0.2,0.1,0.4,0.2,0.5,0.3c0,0,0.1,0.1,0.1,0.1C15.2,2.5,15.3,2.5,15.3,2.5z
			 M7.4,13.3C7.4,13.3,7.4,13.3,7.4,13.3c-0.2-0.1-0.2-0.2-0.3-0.3c-0.1-0.1-0.1-0.2-0.2-0.3c-0.1-0.1-0.1-0.1-0.2-0.2
			c-0.1-0.1-0.1-0.2-0.2-0.3c-0.1-0.1-0.1-0.1-0.2-0.2c-0.1-0.1-0.1-0.2-0.2-0.3c0-0.1-0.1-0.1-0.1-0.2c-0.1-0.1-0.1-0.2-0.2-0.4
			c0-0.1-0.1-0.1-0.1-0.2c0,0,0,0,0-0.1c-0.1-0.2-0.1-0.3-0.2-0.5c0-0.1,0-0.1,0-0.2c0-0.1-0.1-0.3-0.1-0.4c0-0.1,0-0.1,0-0.2
			c0-0.2-0.1-0.4-0.1-0.6c0,0,0-0.1,0-0.1c0-0.2,0-0.3-0.1-0.5c0-0.1,0-0.1,0-0.2c0-0.1,0-0.3,0-0.4c0,0,0-0.1,0-0.1
			c0-0.2,0-0.3,0-0.5c0-0.1,0-0.1,0-0.2c0-0.1,0-0.3,0.1-0.4c0,0,0-0.1,0-0.1c0-0.2,0.1-0.3,0.1-0.5c0,0,0,0,0-0.1
			c0-0.1,0.1-0.3,0.2-0.4c0,0,0-0.1,0-0.1C5.8,5.3,5.9,5.2,5.9,5C6,4.9,6.1,4.8,6.2,4.7c0,0,0-0.1,0.1-0.1c0.1-0.1,0.1-0.2,0.2-0.3
			c0,0,0.1-0.1,0.1-0.1C6.6,4.1,6.7,4.1,6.8,4c0,0,0.1-0.1,0.1-0.1C7,3.8,7,3.7,7.1,3.7c0,0,0.1-0.1,0.1-0.1
			c0.1-0.1,0.1-0.1,0.2-0.2c0,0,0.1-0.1,0.1-0.1c0.1-0.1,0.2-0.1,0.2-0.2C7.9,3.1,7.9,3,8,3C8.1,3,8.1,2.9,8.2,2.9
			c0,0,0.1-0.1,0.1-0.1c0.1-0.1,0.3-0.1,0.4-0.2c0.1,0,0.2,0,0.3,0c1,0,2,0.2,2.8,0.4c0.6,0.2,1.1,0.4,1.6,0.6c0,0,0.1,0.1,0.1,0.1
			C13.8,3.8,13.9,3.9,14,4c0.1,0.1,0.1,0.1,0.2,0.2c0.1,0.1,0.2,0.3,0.4,0.4c0,0.1,0.1,0.1,0.1,0.2C14.8,5,15,5.2,15.1,5.4
			c0,0,0,0.1,0.1,0.1c0.1,0.2,0.2,0.4,0.3,0.5c0,0.1,0.1,0.2,0.1,0.2c0.1,0.2,0.2,0.3,0.2,0.5c0,0.1,0.1,0.2,0.1,0.2
			c0,0.1,0.1,0.2,0.1,0.3c0,0.1,0.1,0.2,0.1,0.3c0,0.1,0.1,0.2,0.1,0.4c0,0.1,0.1,0.2,0.1,0.3c0,0.1,0.1,0.2,0.1,0.4
			c0,0.1,0,0.2,0.1,0.3c0,0.1,0,0.2,0.1,0.4c0,0.1,0,0.2,0,0.3c0,0.3,0.1,0.6,0.1,0.9c0,0.1,0,0.1,0,0.2c0,0.3,0,0.5,0,0.8
			c0,0,0,0.1,0,0.1c0,0.2,0,0.5,0,0.7c0,0.3-0.1,0.6-0.1,1c0,0.1,0,0.3-0.1,0.4c0,0.1-0.1,0.3-0.1,0.4c0,0.1-0.1,0.3-0.1,0.4
			c0,0,0,0,0,0.1c0,0,0-0.1,0-0.1l0-0.1c0-0.1,0-0.2-0.1-0.3c0,0,0-0.1,0-0.1c0,0,0-0.1,0-0.1c0-0.1-0.1-0.1-0.1-0.2l-0.1-0.2
			l-1.3-0.9l-0.2,0.1c-1.1,0.9-2.6,1.3-4.1,1.3C9.3,14,8.3,13.7,7.4,13.3z"/>
	</g>
	<linearGradient id="SVGID_2_" gradientUnits="userSpaceOnUse" x1="-4.546" y1="7.7696" x2="22.451" y2="14.8434">
		<stop  offset="0" style="stop-color:#BE73FF"/>
		<stop  offset="0.852" style="stop-color:#725495"/>
	</linearGradient>
	<path class="st3" d="M18.6,9.7c-0.3-2.4-1-4.3-2.1-5.6c-0.7-0.9-2.1-2.2-3.4-2.8c-0.7-0.3-1.5-0.4-2.4-0.4c-1.1,0-2.3,0.3-3.3,0.7
		C6.2,2.2,5.2,3.1,4.6,4.1C3,6.7,4,11,6.6,12.8c1,0.7,2.3,1.1,3.7,1.2c1.5,0,3-0.5,4.1-1.3l0.2-0.1l0.1,0.2c0.1,0.3,0.2,0.5,0.3,0.8
		c0.3,2-0.7,4.3-2.4,5c-0.6,0.3-1.2,0.4-1.9,0.4c-1.4,0-2.9-0.5-4.2-1.4l0,0c-0.1-0.2-0.3-0.3-0.5-0.3c-0.2,0-0.4,0.1-0.6,0.3
		c-0.6,0.6-0.7,2.3-0.2,2.9c0.2,0.4,0.5,0.7,0.9,0.9h0c0.5,0.3,1.2,0.6,2,0.8c0.6,0.1,1.2,0.2,1.8,0.2c1.7,0,3.4-0.5,4.8-1.5
		C18,18.3,19.1,13.4,18.6,9.7z M11.5,11.3c-0.3,0.1-0.5,0.1-0.8,0.1c-1.8,0-3.2-1.7-3.4-3.3c-0.3-1.8,0.7-3,1.8-3.4
		c0.3-0.1,0.6-0.1,1-0.1c1.6,0,3.5,1,3.9,2.7C14.3,9.1,13,10.8,11.5,11.3z"/>
	<linearGradient id="SVGID_3_" gradientUnits="userSpaceOnUse" x1="5.9674" y1="11.6316" x2="18.7014" y2="11.6316">
		<stop  offset="0" style="stop-color:#BE73FF"/>
		<stop  offset="0.852" style="stop-color:#725495"/>
	</linearGradient>
	<path class="st4" d="M10.7,0.9c0.8,0,1.6,0.2,2.4,0.4c1.4,0.5,2.7,1.8,3.4,2.8c1.1,1.4,1.7,3.2,2.1,5.6c0.5,3.7-0.6,8.5-4,11.1
		c-1.4,1-3.1,1.5-4.8,1.5c-0.6,0-1.2-0.1-1.8-0.2c-0.8-0.2-1.5-0.5-2-0.8c0.6,0.1,1.1,0.1,1.7,0.1c0.4,0,0.8,0,1.2,0
		c4.8-0.4,7.5-4.5,7.9-9.1C17,8,15.1,3.2,10.6,2C9.8,1.8,8.8,1.6,7.8,1.6c-0.1,0-0.2,0-0.3,0C8.4,1.2,9.6,0.9,10.7,0.9z"/>
	<g>
		<linearGradient id="SVGID_4_" gradientUnits="userSpaceOnUse" x1="2.3599" y1="1.4508" x2="22.0889" y2="17.1561">
			<stop  offset="0" style="stop-color:#745CFF"/>
			<stop  offset="0.8118" style="stop-color:#334991"/>
		</linearGradient>
		<path class="st5" d="M10,4.6c1.6,0,3.5,1,3.9,2.7c0.4,1.8-0.9,3.5-2.4,4c-0.3,0.1-0.5,0.1-0.8,0.1c-1.8,0-3.2-1.7-3.4-3.3
			c-0.3-1.8,0.7-3,1.8-3.4C9.4,4.7,9.7,4.6,10,4.6z M11.4,10.9c1.3-0.4,2.5-1.9,2.2-3.5C13.2,5.9,11.5,5,10,5c-0.3,0-0.6,0-0.9,0.1
			C8.4,5.4,7.3,6.4,7.6,8.1c0.2,1.4,1.5,2.9,3,3C10.9,11,11.1,11,11.4,10.9L11.4,10.9z"/>
		<linearGradient id="SVGID_5_" gradientUnits="userSpaceOnUse" x1="0.3926" y1="3.9216" x2="20.1219" y2="19.6271">
			<stop  offset="0" style="stop-color:#745CFF"/>
			<stop  offset="0.8118" style="stop-color:#334991"/>
		</linearGradient>
		<path class="st6" d="M19,9.7c-0.3-2.5-1-4.4-2.1-5.8c-0.8-1-2.2-2.3-3.6-2.9c-0.8-0.3-1.6-0.5-2.5-0.5c-2.6,0-5.2,1.4-6.5,3.4
			c-1.7,2.8-0.7,7.2,2.1,9.2c1.1,0.8,2.5,1.2,3.9,1.2c1.5,0,3-0.4,4.1-1.3c0.1,0.2,0.1,0.3,0.1,0.4c0.3,1.6-0.5,3.8-2.2,4.6
			c-0.5,0.2-1.1,0.4-1.8,0.4c-1.3,0-2.7-0.5-4-1.3c-0.2-0.3-0.5-0.4-0.8-0.4c-0.2,0-0.5,0.1-0.9,0.4c-0.7,0.8-0.8,2.6-0.3,3.4
			c0.5,0.9,1.6,1.5,3.2,1.9c0.6,0.2,1.3,0.2,1.9,0.2c1.8,0,3.5-0.6,5-1.6C18.4,18.5,19.5,13.5,19,9.7z M5,20.4
			c-0.4-0.7-0.4-2.3,0.2-2.9c0.2-0.2,0.4-0.3,0.6-0.3c0.2,0,0.4,0.1,0.5,0.3l0,0c1.3,0.9,2.9,1.4,4.2,1.4c0.7,0,1.3-0.1,1.9-0.4
			c1.7-0.8,2.8-3,2.4-5c0-0.3-0.1-0.5-0.3-0.8l-0.1-0.2l-0.2,0.1c-1.1,0.9-2.6,1.3-4.1,1.3c-1.4,0-2.7-0.4-3.7-1.2
			C4,11,3,6.7,4.6,4.1c0.6-1.1,1.6-1.9,2.8-2.5c1-0.5,2.1-0.7,3.3-0.7c0.8,0,1.6,0.2,2.4,0.4c1.4,0.5,2.7,1.8,3.4,2.8
			c1.1,1.4,1.7,3.2,2.1,5.6c0.5,3.7-0.6,8.5-4,11.1c-1.4,1-3.1,1.5-4.8,1.5c-0.6,0-1.2-0.1-1.8-0.2c-0.8-0.2-1.5-0.5-2-0.8h0
			C5.5,21.1,5.2,20.8,5,20.4z"/>
	</g>
</g>
</svg>
