<?xml version="1.0" encoding="utf-8"?>
<!-- Generator: Adobe Illustrator 24.0.1, SVG Export Plug-In . SVG Version: 6.00 Build 0)  -->
<svg version="1.1" id="Capa_1" xmlns="http://www.w3.org/2000/svg" xmlns:xlink="http://www.w3.org/1999/xlink" x="0px" y="0px"
	 viewBox="0 0 30.5 25" style="enable-background:new 0 0 30.5 25;" xml:space="preserve">
<style type="text/css">
	.st0{fill:#B4B4B4;}
	.st1{fill:#93FF58;}
	.st2{opacity:0.4;fill:#004E05;}
	.st3{fill:#081D00;}
	.st4{fill:#2B4400;}
	.st5{fill:#001308;}
	.st6{opacity:0.6;fill:#2B4E00;enable-background:new    ;}
	.st7{fill:#040900;}
</style>
<g>
	<path class="st0" d="M18.2,20.9C18.2,20.9,18.2,20.9,18.2,20.9L18.2,20.9L18.2,20.9z M19.4,21.5c-0.1,0-0.2-0.1-0.3-0.1
		C19.2,21.4,19.3,21.5,19.4,21.5L19.4,21.5L19.4,21.5z M21.6,17.8C21.6,17.8,21.5,17.8,21.6,17.8c-0.4,0-0.7-0.1-1.1-0.2l-0.1-0.1
		c-0.1-0.1-0.1-0.1-0.2-0.2c0,0-0.1-0.1-0.1-0.1c-0.1-0.1-0.1-0.2-0.2-0.3c-0.1-0.2-0.2-0.3-0.2-0.5c0-0.1-0.1-0.2-0.1-0.3
		c0,0,0-0.1,0-0.1c0-0.1-0.1-0.3-0.1-0.4l0,0c0-0.1-0.1-0.3-0.1-0.4c0,0,0-0.1,0-0.1c0-0.1,0-0.2,0-0.3c0-0.1,0-0.2,0-0.3
		c0-0.1,0-0.1,0-0.2c0-0.1,0-0.2,0-0.3c0-0.1,0-0.1,0-0.2c0-0.2,0-0.3,0-0.5c0-0.2,0-0.4,0.1-0.5c0-0.2,0.1-0.3,0.1-0.5l0-0.1
		c0-0.2,0.1-0.3,0.1-0.5c0-0.1,0.1-0.3,0.1-0.4c0-0.1,0.1-0.2,0.1-0.2l0,0c0-0.1,0.1-0.2,0.1-0.3l0-0.1c0.1-0.1,0.1-0.2,0.2-0.3
		l0-0.1c0.1-0.1,0.1-0.1,0.2-0.2l0-0.1c0.1-0.1,0.1-0.2,0.2-0.2l0,0c0.1-0.1,0.1-0.1,0.2-0.2L21,9.6c0.1-0.1,0.2-0.1,0.3-0.2l0,0
		c0.1-0.1,0.2-0.1,0.2-0.1l0.1,0c0.1,0,0.2-0.1,0.3-0.1l0,0C22,9.1,22.1,9,22.2,9l0.1,0c0.1,0,0.2,0,0.3,0c0,0,0,0,0,0
		C22.7,9,22.8,9,23,9c0.3,0.4,0.5,0.8,0.8,1.4c0.8,2,0.9,5.5-0.9,6.9C22.5,17.7,22,17.8,21.6,17.8L21.6,17.8z M26.2,5.4L26.2,5.4
		C26.1,5.3,26,5.3,26,5.2c0,0,0.1,0.1,0.1,0.1C26.1,5.3,26.2,5.4,26.2,5.4L26.2,5.4z M25.8,5c-0.1-0.1-0.2-0.1-0.3-0.2
		c0,0,0.1,0.1,0.1,0.1C25.7,4.9,25.7,4.9,25.8,5L25.8,5L25.8,5z M21.8,3.7c-0.5,0-1,0-1.5,0.1C17.9,4.3,15.9,6.2,15,9
		c-1,2.9-0.6,6.8,0.9,9.5c0.6,1.1,1.4,1.9,2.3,2.5c0,0-0.1-0.1-0.1-0.1l1.1,0.7c0.6,0.4,1.4,0.8,2.1,0.9c0.1,0,0.2,0,0.4,0.1
		c0,0,0.1,0,0.1,0c0.1,0,0.2,0,0.2,0l0,0c0.1,0,0.2,0,0.2,0l0.1,0h0l0,0c0.1,0,0.2,0,0.3,0c0,0,0,0,0,0c0.2,0,0.3,0,0.5,0
		c0,0,0.1,0,0.1,0c0.2,0,0.3,0,0.5-0.1l0,0l0,0l0.1,0c0.1,0,0.3-0.1,0.4-0.1l0.1,0l0,0c0.1,0,0.3-0.1,0.4-0.2l0,0l0,0
		c0.2-0.1,0.3-0.2,0.5-0.2l0,0c0.2-0.1,0.3-0.2,0.5-0.3l0.1,0c0.1-0.1,0.3-0.2,0.4-0.3l0.1-0.1c0.1-0.1,0.3-0.2,0.4-0.4l0,0l0,0l0,0
		l0,0l0,0c0.1-0.1,0.2-0.2,0.2-0.3l0,0c0.1-0.1,0.1-0.2,0.2-0.3l0,0c0.1-0.2,0.3-0.4,0.4-0.6c0,0,0-0.1,0.1-0.1
		c0.1-0.2,0.2-0.4,0.3-0.6l0,0l0,0c0.1-0.2,0.2-0.5,0.3-0.7c0,0,0-0.1,0-0.1c0.1-0.2,0.2-0.5,0.3-0.7l0-0.1l0-0.1
		c0.1-0.3,0.2-0.5,0.2-0.8c0,0,0-0.1,0-0.1c0.1-0.3,0.1-0.5,0.2-0.8l0-0.1l0-0.1c0-0.2,0.1-0.5,0.1-0.7l0-0.1c0-0.2,0-0.5,0-0.7
		c0-0.1,0-0.1,0-0.2l0,0c0,0,0-0.1,0-0.1c0-0.1,0-0.1,0-0.2c0,0,0-0.1,0-0.1c0-0.1,0-0.2,0-0.3l0,0c0-0.1,0-0.2,0-0.3
		c0,0,0-0.1,0-0.1c0-0.1,0-0.2,0-0.3c0,0,0-0.1,0-0.1c0-0.1,0-0.3,0-0.4l0,0c0-0.1,0-0.3,0-0.4l0,0c0-0.2-0.1-0.4-0.1-0.6
		c0,0,0-0.1,0-0.1c0-0.2-0.1-0.3-0.1-0.5c0-0.1,0-0.1-0.1-0.2c0-0.1-0.1-0.3-0.1-0.4c0-0.1,0-0.1-0.1-0.2c-0.1-0.2-0.1-0.3-0.2-0.5
		c0,0,0-0.1,0-0.1l0,0c0-0.1-0.1-0.2-0.1-0.3c0-0.1-0.1-0.2-0.1-0.2c0-0.1-0.1-0.2-0.2-0.3c0-0.1-0.1-0.1-0.1-0.2
		C28,7.1,27.9,7,27.9,6.9c0-0.1-0.1-0.1-0.1-0.2c-0.1-0.2-0.2-0.3-0.3-0.5c-0.1-0.1-0.1-0.2-0.2-0.2l0,0c-0.1-0.1-0.2-0.2-0.4-0.3
		c0,0-0.1,0-0.1-0.1c-0.1-0.1-0.3-0.2-0.4-0.3C26.2,5.2,26,5.1,25.8,5l-0.5-0.4c0,0,0.1,0,0.1,0.1c-0.3-0.2-0.6-0.4-1-0.5
		C23.7,3.8,22.8,3.7,21.8,3.7C21.9,3.7,21.8,3.7,21.8,3.7L21.8,3.7z"/>
	<g>
		<path d="M16.9,13.1c0,0.1,0,0.2,0,0.3c0,0,0,0.1,0,0.1c0,0.1,0,0.1,0,0.2c0,0.1,0,0.1,0,0.2c0,0.1,0.1,0.3,0.1,0.4c0,0,0,0,0,0.1
			c0,0.1,0.1,0.3,0.1,0.4c0,0,0,0.1,0.1,0.1c0,0.1,0,0.1,0.1,0.2c0,0,0,0,0,0.1c0.1,0.2,0.2,0.4,0.3,0.6c0.1,0.1,0.1,0.2,0.2,0.4
			c0,0,0.1,0.1,0.1,0.1c0.1,0.1,0.1,0.2,0.2,0.2c0,0,0,0,0,0c0.1,0.1,0.1,0.1,0.2,0.2c0,0,0.1,0.1,0.1,0.1c0.1,0.1,0.2,0.2,0.3,0.3
			l1.1,0.8c0.6,0.4,1.2,0.6,1.8,0.6c0.6,0,1.1-0.2,1.5-0.5c0.1-0.1,0.2-0.2,0.3-0.3c0,0,0.1-0.1,0.1-0.1c0.1-0.1,0.1-0.1,0.2-0.2
			c0,0,0,0,0,0c0,0,0,0,0-0.1c0.1-0.1,0.1-0.2,0.2-0.3c0,0,0-0.1,0.1-0.1c0,0,0-0.1,0.1-0.1c0-0.1,0-0.1,0.1-0.2c0,0,0-0.1,0.1-0.1
			c0.1-0.1,0.1-0.3,0.1-0.4v0c0,0,0,0,0,0c0-0.1,0.1-0.3,0.1-0.4c0-0.1,0-0.1,0-0.2c0-0.1,0-0.2,0.1-0.3c0,0,0,0,0-0.1
			c0-0.1,0-0.3,0.1-0.4c0,0,0-0.1,0-0.1c0-0.2,0-0.4,0-0.6c0,0,0,0,0,0c0,0,0,0,0,0c0-0.2,0-0.4,0-0.6c0-0.1,0-0.1,0-0.2
			c0-0.2,0-0.4-0.1-0.7c0,0,0,0,0,0c0-0.1,0-0.2,0-0.3c0-0.1,0-0.1,0-0.2c0-0.1,0-0.2-0.1-0.3c0-0.1,0-0.1,0-0.2
			c0-0.1-0.1-0.2-0.1-0.3c0,0,0-0.1,0-0.1c0-0.1-0.1-0.3-0.1-0.4c0,0,0-0.1-0.1-0.1c0,0,0,0,0-0.1c-0.1-0.1-0.1-0.2-0.2-0.4
			c0,0,0-0.1,0-0.1c-0.1-0.1-0.1-0.3-0.2-0.4c0,0,0,0,0-0.1c-0.1-0.1-0.1-0.2-0.2-0.3c0,0,0-0.1-0.1-0.1c-0.2-0.3-0.4-0.5-0.6-0.6
			L22.3,8c-0.2-0.1-0.4-0.3-0.6-0.4c-0.1-0.1-0.3-0.2-0.4-0.2c-0.1,0-0.2-0.1-0.3-0.1c0,0,0,0-0.1,0c-0.1,0-0.2,0-0.3,0c0,0,0,0,0,0
			c0,0-0.1,0-0.1,0c-1,0-2,0.7-2.6,1.6L18.2,9c0,0,0,0,0,0c0,0,0,0,0,0c-0.1,0.1-0.1,0.2-0.2,0.3c0,0,0,0,0,0.1
			c-0.1,0.1-0.1,0.2-0.2,0.3c0,0,0,0,0,0c0,0,0,0,0,0c0,0,0,0,0,0l-0.3-0.2c0,0.1-0.1,0.2-0.1,0.3c-0.1,0.1-0.1,0.3-0.1,0.4
			c0,0,0,0,0,0c0,0.2-0.1,0.3-0.1,0.5c0,0.1,0,0.1,0,0.2c0,0.1-0.1,0.3-0.1,0.4c0,0,0,0,0,0c0,0.2-0.1,0.3-0.1,0.5
			c0,0.2,0,0.4,0,0.5c0,0,0,0,0,0c0,0.1,0,0.1,0,0.2c0,0.1,0,0.2,0,0.3C16.9,13,16.9,13,16.9,13.1z M22.1,8
			C22.1,8.1,22.2,8.1,22.1,8c0.1,0,0.1,0,0.2,0c0,0,0.1,0.1,0.1,0.1c0,0,0,0.1,0.1,0.1c0.1,0.1,0.1,0.2,0.2,0.3c0,0,0,0,0,0L21.8,8
			c0,0,0,0,0,0C21.9,8,22,8,22.1,8z M20.7,17.5c-0.4,0-0.8-0.1-1.3-0.3c0,0-0.1-0.1-0.1-0.1c-0.1-0.1-0.1-0.1-0.2-0.2
			c0,0-0.1-0.1-0.1-0.1c-0.1-0.1-0.1-0.1-0.1-0.2c0,0,0.1,0.1,0.1,0.1l1.1,0.8c0,0,0,0,0,0l0,0c0,0,0,0,0,0
			c-0.1-0.1-0.2-0.1-0.3-0.2c0,0-0.1-0.1-0.1-0.1c-0.1-0.1-0.1-0.1-0.2-0.2c-0.1-0.1-0.1-0.1-0.2-0.2c0,0-0.1-0.1-0.1-0.1
			c-0.1-0.1-0.1-0.2-0.2-0.3c-0.1-0.2-0.2-0.3-0.2-0.5c0-0.1-0.1-0.2-0.1-0.3c0,0,0-0.1-0.1-0.1c0-0.1-0.1-0.3-0.1-0.4c0,0,0,0,0,0
			c0-0.1-0.1-0.2-0.1-0.4c0,0,0-0.1,0-0.1c0-0.1,0-0.2,0-0.3c0-0.1,0-0.2,0-0.3c0-0.1,0-0.1,0-0.2c0-0.1,0-0.2,0-0.3
			c0-0.1,0-0.1,0-0.2c0-0.2,0-0.3,0-0.5c0-0.2,0-0.4,0.1-0.5c0-0.2,0.1-0.3,0.1-0.5c0,0,0,0,0,0c0-0.2,0.1-0.3,0.1-0.5
			c0-0.1,0.1-0.3,0.1-0.4c0-0.1,0.1-0.2,0.1-0.2c0,0,0,0,0,0c0-0.1,0.1-0.2,0.1-0.3c0,0,0,0,0-0.1c0.1-0.1,0.1-0.2,0.2-0.3
			c0,0,0,0,0-0.1c0.1-0.1,0.1-0.1,0.2-0.2c0,0,0,0,0-0.1c0.1-0.1,0.1-0.2,0.2-0.2c0,0,0,0,0,0C19.9,9.1,20,9.1,20,9c0,0,0,0,0.1-0.1
			c0.1-0.1,0.2-0.1,0.3-0.2c0,0,0,0,0,0c0.1-0.1,0.2-0.1,0.2-0.1c0,0,0,0,0.1,0c0.1,0,0.2-0.1,0.3-0.1c0,0,0,0,0,0
			c0.1,0,0.2-0.1,0.3-0.1c0,0,0.1,0,0.1,0c0.1,0,0.2,0,0.3,0c0.2,0,0.5,0,0.7,0.1c0.1,0,0.2,0.1,0.3,0.2c0,0,0,0,0,0.1
			c0.1,0.1,0.1,0.2,0.2,0.4c0,0,0,0.1,0,0.1C23,9.2,23,9.4,23.1,9.5c0,0.1,0.1,0.1,0.1,0.2c0,0.1,0.1,0.3,0.1,0.4c0,0,0,0.1,0,0.1
			c0,0.1,0.1,0.2,0.1,0.3c0,0.1,0,0.1,0,0.2c0,0.1,0,0.2,0.1,0.3c0,0.1,0,0.1,0,0.2c0,0.1,0,0.2,0,0.3c0,0.2,0.1,0.4,0.1,0.7
			c0,0.1,0,0.1,0,0.2c0,0.2,0,0.4,0,0.6c0,0,0,0.1,0,0.1c0,0.2,0,0.4,0,0.5c0,0,0,0.1,0,0.1c0,0.1,0,0.3-0.1,0.4
			c0,0.1,0,0.2-0.1,0.3c0,0.1,0,0.1,0,0.2c-0.1,0.3-0.2,0.6-0.3,0.9c0,0,0,0.1-0.1,0.1c0,0.1-0.1,0.2-0.1,0.3c0,0,0,0.1-0.1,0.1
			c-0.1,0.1-0.1,0.2-0.2,0.3c0,0,0,0,0,0c-0.1,0.1-0.1,0.2-0.2,0.3c0,0,0,0.1-0.1,0.1c-0.1,0.1-0.2,0.2-0.3,0.3
			C21.8,17.3,21.2,17.5,20.7,17.5z"/>
		<path d="M28.6,12.7c0-0.1,0-0.1,0-0.2c0,0,0-0.1,0-0.1c0-0.1,0-0.2,0-0.4c0,0,0,0,0,0c0-0.1,0-0.2,0-0.4c0,0,0-0.1,0-0.1
			c0-0.1,0-0.2,0-0.3c0,0,0-0.1,0-0.1c0-0.3-0.1-0.5-0.1-0.8c0,0,0,0,0-0.1c0-0.2-0.1-0.4-0.1-0.6c0,0,0-0.1,0-0.1
			c0-0.2-0.1-0.3-0.1-0.5c0-0.1,0-0.1-0.1-0.2c0-0.1-0.1-0.3-0.1-0.4c0-0.1,0-0.1-0.1-0.2c-0.1-0.2-0.1-0.3-0.2-0.5c0,0,0-0.1,0-0.1
			c0,0,0,0,0,0c0-0.1-0.1-0.2-0.1-0.3c0-0.1-0.1-0.1-0.1-0.2c-0.1-0.1-0.1-0.2-0.2-0.3c0-0.1-0.1-0.1-0.1-0.2
			C27.1,6.5,27,6.3,27,6.2c0,0-0.1-0.1-0.1-0.1c-0.1-0.2-0.2-0.3-0.4-0.5c-0.1-0.1-0.1-0.2-0.2-0.2c0,0,0,0,0,0
			c-0.1-0.1-0.2-0.2-0.4-0.3c0,0-0.1,0-0.1-0.1c-0.1-0.1-0.3-0.2-0.4-0.3l-1.1-0.7c0.1,0.1,0.3,0.2,0.4,0.3c0,0,0.1,0,0.1,0.1
			c0.1,0.1,0.2,0.2,0.4,0.3c0,0,0.1,0.1,0.1,0.1l-1-0.7c0,0-0.1-0.1-0.1-0.1c-0.1,0-0.1-0.1-0.2-0.1l0,0c0,0,0,0,0,0
			c-0.2-0.1-0.3-0.2-0.5-0.2c-0.1,0-0.2-0.1-0.3-0.1c0,0,0,0,0,0c0,0-0.1,0-0.1,0c-0.1,0-0.1,0-0.2,0c0,0-0.1,0-0.1,0
			c-0.1,0-0.1,0-0.2,0c0,0-0.1,0-0.1,0c-0.1,0-0.1,0-0.2,0c-0.1,0-0.1,0-0.2,0c-0.1,0-0.1,0-0.2,0c0,0-0.1,0-0.1,0c0,0-0.1,0-0.1,0
			c-0.2,0-0.4,0-0.6,0c-0.5,0-1.1,0-1.5,0.1c-0.1,0-0.2,0.1-0.4,0.1l0.2,0.1c-0.1,0-0.2,0.1-0.4,0.1c0,0-0.1,0-0.1,0.1
			c-0.1,0-0.3,0.1-0.4,0.1c0,0-0.1,0-0.1,0.1C18.1,3.9,18,4,17.8,4.1c0,0,0,0-0.1,0c-0.1,0.1-0.3,0.2-0.4,0.2c0,0-0.1,0.1-0.1,0.1
			c-0.1,0.1-0.2,0.2-0.3,0.2c0,0-0.1,0.1-0.1,0.1c-0.1,0.1-0.3,0.2-0.4,0.4c0,0,0,0-0.1,0.1c-0.1,0.1-0.2,0.2-0.3,0.3
			c0,0-0.1,0.1-0.1,0.1c-0.1,0.1-0.2,0.2-0.3,0.3c0,0,0,0.1-0.1,0.1c0,0,0,0,0,0c-0.1,0.2-0.2,0.3-0.3,0.5c0,0,0,0.1-0.1,0.1
			c-0.1,0.1-0.2,0.3-0.2,0.5c0,0,0,0.1,0,0.1c0,0,0,0,0,0.1c0,0.1-0.1,0.2-0.1,0.3c0,0.1,0,0.1-0.1,0.2c-0.1,0.2-0.1,0.3-0.2,0.5
			c0,0.1,0,0.1-0.1,0.2c0,0,0,0.1,0,0.1c0,0.1-0.1,0.3-0.1,0.4c0,0.1,0,0.2-0.1,0.2c0,0.1-0.1,0.3-0.1,0.4c0,0,0,0.1,0,0.1
			c0,0,0,0,0,0.1c0,0.2-0.1,0.5-0.1,0.7c0,0,0,0.1,0,0.1c0,0.2,0,0.4,0,0.7c0,0,0,0.1,0,0.1c0,0.1,0,0.1,0,0.2c0,0.1,0,0.2,0,0.2
			c0,0.1,0,0.2,0,0.4c0,0.1,0,0.1,0,0.2c0,0.1,0,0.3,0,0.4c0,0.1,0,0.1,0,0.2c0,0.2,0,0.3,0.1,0.5c0,0.3,0.1,0.5,0.1,0.8
			c0,0.1,0,0.1,0,0.2c0,0.2,0.1,0.3,0.1,0.5c0,0.1,0,0.2,0.1,0.2c0,0.1,0.1,0.3,0.1,0.4c0,0.1,0,0.2,0.1,0.2
			c0.1,0.1,0.1,0.3,0.2,0.4c0,0,0,0.1,0.1,0.1c0,0,0,0,0,0c0.1,0.1,0.1,0.2,0.2,0.4c0,0.1,0.1,0.1,0.1,0.2c0.1,0.2,0.2,0.4,0.3,0.5
			c0.1,0.2,0.2,0.4,0.3,0.5c0,0,0.1,0.1,0.1,0.1c0.1,0.2,0.2,0.3,0.3,0.4c0,0,0,0,0,0c0.1,0.1,0.2,0.2,0.3,0.3c0,0,0.1,0.1,0.1,0.1
			c0,0,0.1,0.1,0.1,0.1c0.1,0.1,0.3,0.3,0.4,0.4c-0.1,0-0.2,0-0.3-0.1c0.1,0.1,0.2,0.2,0.3,0.3c0,0,0.1,0,0.1,0.1
			c0.1,0,0.1,0.1,0.2,0.1l0,0c0,0,0,0,0,0c0,0,0,0-0.1,0l0.1,0l1.1,0.8c0,0,0,0,0,0l0,0c0,0,0,0,0,0c-0.4-0.2-0.8-0.4-1.2-0.6
			l1.1,0.8c0.6,0.4,1.4,0.8,2.1,0.9c0.1,0,0.2,0,0.4,0.1c0,0,0.1,0,0.1,0c0.1,0,0.2,0,0.2,0c0,0,0,0,0,0c0.1,0,0.1,0,0.2,0
			c0,0,0,0,0.1,0h0l0,0c0.1,0,0.2,0,0.3,0c0.2,0,0.3,0,0.5,0c0,0,0.1,0,0.1,0c0.2,0,0.3,0,0.5-0.1c0,0,0,0,0,0l0,0c0,0,0,0,0,0
			c0.1,0,0.3-0.1,0.4-0.1c0,0,0,0,0.1,0c0,0,0,0,0,0c0.1,0,0.3-0.1,0.4-0.2c0,0,0,0,0,0c0,0,0,0,0,0c0.2-0.1,0.3-0.2,0.5-0.2
			c0,0,0,0,0,0c0.2-0.1,0.3-0.2,0.4-0.3c0,0,0,0,0.1-0.1c0.1-0.1,0.3-0.2,0.4-0.3c0,0,0,0,0.1-0.1c0.1-0.1,0.3-0.2,0.4-0.4
			c0,0,0,0,0,0l0,0l0,0l0,0c0,0,0,0,0,0c0.1-0.1,0.2-0.2,0.2-0.3c0,0,0,0,0,0c0.1-0.1,0.1-0.2,0.2-0.3c0,0,0,0,0,0
			c0.1-0.2,0.3-0.4,0.4-0.6c0,0,0.1-0.1,0.1-0.1c0.1-0.2,0.2-0.4,0.3-0.6c0,0,0,0,0,0c0,0,0,0,0,0c0.1-0.2,0.2-0.5,0.3-0.7
			c0,0,0-0.1,0-0.1c0.1-0.2,0.2-0.5,0.2-0.7c0,0,0,0,0-0.1c0,0,0,0,0-0.1c0.1-0.3,0.2-0.5,0.2-0.8c0,0,0-0.1,0-0.1
			c0.1-0.3,0.1-0.5,0.2-0.8c0,0,0,0,0,0c0,0,0,0,0-0.1c0-0.2,0.1-0.5,0.1-0.7c0,0,0-0.1,0-0.1c0-0.2,0-0.5,0-0.7c0-0.1,0-0.1,0-0.2
			C28.6,12.8,28.6,12.8,28.6,12.7C28.6,12.8,28.6,12.7,28.6,12.7z M17.2,19.5c-0.1-0.1-0.2-0.3-0.3-0.4c0,0-0.1-0.1-0.1-0.1
			c-0.1-0.2-0.2-0.3-0.3-0.5c-0.1-0.2-0.2-0.3-0.3-0.5c0-0.1-0.1-0.1-0.1-0.2c-0.1-0.1-0.1-0.2-0.2-0.4c0-0.1,0-0.1-0.1-0.2
			c-0.1-0.1-0.1-0.3-0.2-0.4c0-0.1,0-0.1-0.1-0.2c0-0.1-0.1-0.3-0.1-0.4c0-0.1,0-0.2-0.1-0.2c0-0.2-0.1-0.3-0.1-0.5
			c0-0.1,0-0.1,0-0.2c0-0.2-0.1-0.4-0.1-0.7c0,0,0,0,0,0c0,0,0,0,0,0c0-0.2,0-0.4-0.1-0.6c0-0.1,0-0.1,0-0.2c0-0.1,0-0.2,0-0.4
			c0-0.1,0-0.2,0-0.2c0-0.1,0-0.2,0-0.3c0-0.1,0-0.2,0-0.2c0-0.1,0-0.2,0-0.3c0-0.2,0-0.4,0-0.6c0,0,0-0.1,0-0.1
			c0-0.2,0.1-0.5,0.1-0.7c0-0.1,0-0.2,0-0.2c0-0.1,0.1-0.3,0.1-0.4c0-0.1,0-0.2,0.1-0.2c0-0.1,0.1-0.3,0.1-0.4
			c0-0.1,0.1-0.2,0.1-0.3c0.1-0.2,0.1-0.3,0.2-0.5c0-0.1,0-0.1,0.1-0.2c0-0.1,0.1-0.2,0.1-0.3c0,0,0-0.1,0.1-0.1
			c0.1-0.2,0.2-0.3,0.2-0.5c0,0,0-0.1,0.1-0.1c0.1-0.2,0.2-0.3,0.3-0.5c0,0,0.1-0.1,0.1-0.1c0.1-0.1,0.2-0.2,0.3-0.3
			c0,0,0.1-0.1,0.1-0.1c0.1-0.1,0.2-0.2,0.3-0.3c0,0,0,0,0.1-0.1c0.1-0.1,0.3-0.2,0.4-0.4c0,0,0.1-0.1,0.1-0.1
			c0.1-0.1,0.2-0.2,0.3-0.2c0,0,0.1-0.1,0.1-0.1c0.1-0.1,0.3-0.2,0.4-0.3c0,0,0,0,0,0c0.2-0.1,0.3-0.2,0.5-0.2c0,0,0.1,0,0.1-0.1
			c0.1-0.1,0.2-0.1,0.4-0.1c0,0,0.1,0,0.1-0.1c0.2-0.1,0.3-0.1,0.5-0.1c1,0.2,1.9,0.5,2.8,1c0,0,0,0,0,0c0.1,0.1,0.2,0.2,0.4,0.3
			c0,0,0.1,0,0.1,0.1c0.1,0.1,0.3,0.3,0.4,0.4c0.1,0.1,0.1,0.1,0.2,0.2c0.1,0.1,0.2,0.2,0.2,0.3c0.1,0.1,0.1,0.2,0.2,0.2
			C24.8,6.9,24.9,7,25,7.1c0.1,0.1,0.1,0.2,0.1,0.2c0.1,0.1,0.1,0.2,0.2,0.3c0,0.1,0.1,0.2,0.1,0.3c0.1,0.1,0.1,0.2,0.1,0.3
			c0,0,0,0.1,0,0.1c0.1,0.2,0.1,0.4,0.2,0.6c0.1,0.2,0.1,0.5,0.1,0.7c0,0.1,0,0.1,0,0.2c0,0.2,0,0.4,0.1,0.6c0,0.1,0,0.2,0,0.3
			c0,0.2,0,0.3,0,0.5c0,0.1,0,0.2,0,0.3c0,0.1,0,0.3,0,0.4c0,0.1,0,0.2,0,0.3c0,0.1,0,0.3-0.1,0.4c0,0.1,0,0.2-0.1,0.3
			c0,0.1-0.1,0.3-0.1,0.4c0,0.1-0.1,0.2-0.1,0.3c0,0.1-0.1,0.3-0.1,0.4c-0.1,0.2-0.1,0.4-0.2,0.6c-0.1,0.2-0.2,0.5-0.3,0.7
			c0,0.1-0.1,0.1-0.1,0.2c-0.1,0.1-0.1,0.3-0.2,0.4c0,0.1-0.1,0.1-0.1,0.2c-0.1,0.1-0.2,0.3-0.3,0.4c0,0-0.1,0.1-0.1,0.1
			c0,0,0,0.1-0.1,0.1C24.1,17,24,17.2,24,17.3c0,0-0.1,0.1-0.1,0.1c-0.1,0.1-0.2,0.2-0.3,0.3c0,0-0.1,0.1-0.1,0.1
			c-0.1,0.1-0.2,0.2-0.4,0.3c0,0,0,0-0.1,0.1c-0.1,0.1-0.2,0.2-0.3,0.3c0,0-0.1,0.1-0.1,0.1c-0.1,0.1-0.2,0.1-0.3,0.2
			c0,0-0.1,0-0.1,0.1C22.1,18.9,22,19,21.8,19c0,0,0,0-0.1,0c-0.1,0.1-0.3,0.1-0.4,0.2c0,0-0.1,0-0.1,0.1c-0.1,0-0.2,0.1-0.3,0.1
			c0,0-0.1,0-0.1,0c-0.2,0.1-0.3,0.1-0.5,0.1c0,0,0,0,0,0c-0.1,0-0.3,0.1-0.5,0.1c-0.1,0-0.1,0-0.2,0c-0.1,0-0.2,0-0.4,0
			c-0.1,0-0.1,0-0.2,0c-0.2,0-0.3,0-0.5,0c-0.4,0-0.8,0-1.1-0.1C17.4,19.7,17.3,19.6,17.2,19.5C17.2,19.5,17.2,19.5,17.2,19.5z
			 M25.2,4.9c-0.3-0.2-0.6-0.4-0.9-0.6c0.1,0,0.2,0.1,0.2,0.1c0.1,0,0.2,0.1,0.3,0.1c0.1,0.1,0.2,0.2,0.3,0.3
			C25.1,4.8,25.2,4.8,25.2,4.9z M17.9,20.4c0,0-0.1-0.1-0.1-0.1c0.1,0,0.2,0,0.3,0.1l0.5,0.3c0,0,0,0,0,0
			C18.4,20.6,18.1,20.5,17.9,20.4z"/>
	</g>
	<path class="st1" d="M25.2,5.1c-0.5-0.6-1.1-1.1-1.8-1.4c-0.6-0.3-1.5-0.4-2.4-0.4c-0.5,0-1,0-1.5,0.1l-0.1,0
		c-2.3,0.5-4.1,2.3-5,4.9c-0.9,2.8-0.6,6.6,0.9,9.2c0.5,0.8,1,1.5,1.7,2.1c0.7,0.6,1.5,1,2.4,1.2c0.4,0.1,0.9,0.1,1.3,0.1
		c4.4,0,6.3-5.3,6.4-8.7C27.2,11.2,27.1,7.4,25.2,5.1z M17,11.9c0.1-0.8,0.2-1.5,0.5-2c0.5-1.3,1.8-2.6,3.2-2.6
		c0.3,0,0.5,0.1,0.8,0.2c0.7,0.3,1.3,1,1.8,2.3c0.8,2.1,0.9,5.7-1,7.3c-0.4,0.3-0.9,0.5-1.5,0.5c-1.2,0-2.4-0.8-3-1.9
		C17.1,14.4,16.8,13.1,17,11.9z"/>
	<path class="st2" d="M21,3.3c0.9,0,1.8,0.2,2.4,0.4c0.7,0.3,1.3,0.8,1.8,1.4c1.9,2.3,2,6.1,1.9,7.2C27,15.7,25.2,21,20.8,21
		c-0.4,0-0.8-0.1-1.3-0.1c-0.9-0.2-1.7-0.6-2.4-1.2c0.1,0,0.2,0,0.3,0.1c0.4,0.1,0.8,0.1,1.2,0.1c3.1,0,5.7-2,6.8-5
		c0.7-1.8,0.9-4,0.4-5.9c-0.4-1.8-1.7-3.2-3.2-4.2c-1-0.6-2-1-3.1-1.3l0.1,0C20,3.4,20.5,3.3,21,3.3z"/>
	<path class="st3" d="M25.4,4.9c-0.5-0.7-1.2-1.1-2-1.5C22.8,3.2,22,3,21,3c-0.6,0-1.1,0-1.5,0.1c-2.5,0.5-4.4,2.4-5.3,5.1
		c-1,2.9-0.6,6.8,0.9,9.5c1,1.8,2.5,3,4.3,3.4c0.5,0.1,0.9,0.2,1.4,0.2c4.7,0,6.6-5.5,6.7-9C27.5,10.8,27.4,7.2,25.4,4.9z
		 M15.4,17.6c-1.5-2.6-1.8-6.4-0.9-9.2c0.9-2.6,2.7-4.4,5-4.9l0.1,0C20,3.4,20.5,3.3,21,3.3c0.9,0,1.8,0.2,2.4,0.4
		c0.7,0.3,1.3,0.8,1.8,1.4c1.9,2.3,2,6.1,1.9,7.2C27,15.7,25.2,21,20.8,21c-0.4,0-0.8-0.1-1.3-0.1c-0.9-0.2-1.7-0.6-2.4-1.2
		C16.4,19.1,15.8,18.4,15.4,17.6z"/>
	<path class="st4" d="M21.4,7.4c0.7,0.3,1.3,1,1.8,2.3c0.8,2.1,0.9,5.7-1,7.3c-0.4,0.3-0.9,0.5-1.5,0.5c-1.2,0-2.4-0.8-3-1.9
		c-0.6-1.2-0.9-2.5-0.7-3.7c0.1-0.8,0.2-1.5,0.5-2c0.5-1.3,1.8-2.6,3.2-2.6C20.8,7.2,21.1,7.3,21.4,7.4z M22,16.7
		c1.8-1.4,1.7-4.9,0.9-6.9c-0.5-1.2-1-1.9-1.6-2.1c-0.2-0.1-0.5-0.1-0.7-0.1c-1.2,0-2.4,1.2-2.9,2.4c-0.2,0.5-0.3,1.1-0.4,1.9
		c-0.1,1.2,0.1,2.4,0.7,3.6c0.5,1,1.7,1.7,2.7,1.7C21.2,17.2,21.6,17,22,16.7L22,16.7z"/>
</g>
<path class="st0" d="M10.5,1.3c-0.3,0-0.6,0.1-1,0.2C8.4,2.1,7.2,3.1,6.2,4C5.8,4.4,5.4,4.7,5,5C4.9,5.2,4.8,5.3,4.6,5.4
	c-0.1,0-0.2,0.1-0.3,0.2c-0.8,0.7-2,1.6-1.9,2.7C2.4,9,3,10,3.7,10.5l0,0L5,11.4c0.2,0.2,0.5,0.3,0.8,0.3l0,0h0.1
	c0.4,0,0.8-0.3,1.2-0.6c-0.1,0.5-0.1,1-0.2,1.5c-0.1,1.1-0.3,2.2-0.4,3.3c-0.2,1.4-0.4,2.9-0.5,4.4v0.1c-0.1,0.9-0.2,2.1,0.7,2.8
	l0,0l0,0l0.1,0.1c-0.1,0-0.1-0.1-0.1-0.1L8,24c0.1,0,0.1,0.1,0.2,0.1c0.5,0.3,1.1,0.3,1.5,0.3l0,0c0.2,0,0.5,0,0.7,0
	c0.1,0,0.3,0,0.4,0c0.8,0,1.4-0.3,1.8-0.7c0.1-0.1,0.1-0.1,0.2-0.2l0,0l0,0c0-0.1,0.1-0.1,0.1-0.2v-0.1v-0.1V23l0,0l0,0l0,0
	c0-0.1,0-0.1,0.1-0.2c0-0.1,0.1-0.1,0.1-0.2v-0.1c0-0.1,0.1-0.2,0.1-0.4V22c0-0.1,0-0.1,0-0.2s0-0.1,0-0.2s0-0.2,0-0.3
	c0-0.1,0-0.2,0-0.3v-0.1l0,0v-0.1v-0.1v-0.1c0-0.2,0-0.5,0-0.7c0-0.5,0-0.9,0-1.4c0-0.1,0-0.3,0-0.4c0-0.4,0-0.7,0-1.1
	c0-0.1,0-0.2,0-0.3c0-0.4,0-0.9,0-1.3v-0.1c0-0.4,0-0.8,0.1-1.3c0-0.1,0-0.3,0-0.4c0-0.3,0-0.7,0.1-1c0-0.1,0-0.2,0-0.4
	c0-0.4,0-0.9,0.1-1.3v-0.3c0-0.5,0.1-1,0.1-1.6c0-0.2,0-0.4,0.1-0.6c0-0.1,0-0.2,0-0.3s0-0.3,0-0.4s0-0.2,0-0.3c0-0.1,0-0.2,0-0.4
	c0-0.1,0-0.2,0-0.3c0-0.1,0-0.2,0-0.4V6.2c0-0.2,0-0.3,0-0.5V5.6c0-0.2,0-0.3,0-0.5c0-0.1,0-0.1,0-0.2s0-0.3,0-0.4V4.4V4.3
	c0-0.2-0.1-0.4-0.1-0.5s-0.1-0.2-0.1-0.3l0,0c0-0.1-0.1-0.2-0.1-0.3V3.1c0-0.1-0.1-0.2-0.2-0.3V2.7c-0.1-0.1-0.1-0.2-0.2-0.3
	l-0.1-0.1c-0.1-0.1-0.2-0.2-0.3-0.2l-1.3-0.9l0,0C11.3,1.5,11,1.3,10.5,1.3C10.6,1.3,10.5,1.3,10.5,1.3L10.5,1.3z"/>
<path class="st5" d="M13.1,7.2c0-0.1,0-0.2,0-0.3c0-0.1,0-0.2,0-0.4c0-0.1,0-0.2,0-0.3c0-0.1,0-0.2,0-0.4c0,0,0,0,0-0.1
	c0-0.2,0-0.3,0-0.5V5.1c0-0.2,0-0.3,0-0.5c0-0.1,0-0.1,0-0.2s0-0.3,0-0.4V3.9c0,0,0,0,0-0.1c0-0.2-0.1-0.4-0.1-0.5S12.9,3.1,12.9,3
	l0,0c0-0.1-0.1-0.2-0.1-0.3V2.6c0-0.1-0.1-0.2-0.2-0.3c0,0,0,0,0-0.1c-0.1-0.1-0.1-0.2-0.2-0.3L12.2,2c-0.1-0.1-0.2-0.2-0.3-0.2
	l-1.3-0.9C10.7,1,10.8,1,10.9,1.1c0.1,0.1,0.2,0.2,0.3,0.3c0,0,0,0,0,0.1l0,0L10.4,1c-0.1-0.1-0.3-0.2-0.5-0.2l0,0H9.8
	c-0.1,0-0.3,0-0.4,0c-0.3,0-0.6,0.1-0.9,0.1C7.9,1.2,7.4,1.6,6.8,2.1L7,2.2C6.5,2.6,5.9,3.1,5.4,3.5C5,3.9,4.6,4.2,4.2,4.5
	C4.1,4.6,4,4.7,3.8,4.9C3.7,4.9,3.6,5,3.5,5.1c-0.1,0-0.1,0.1-0.2,0.1c0,0,0,0-0.1,0.1L3.1,5.4c0,0,0,0-0.1,0.1L2.9,5.6
	c0,0,0,0-0.1,0.1c0,0,0,0-0.1,0.1l0,0c-0.1,0-0.1,0.1-0.2,0.1c0,0,0,0-0.1,0.1L2.3,6.1c0,0,0,0-0.1,0.1L2.1,6.3c0,0,0,0,0,0.1
	S2,6.5,2,6.6l0,0l0,0c-0.1,0-0.1,0.1-0.2,0.2l0,0l0,0c0,0,0,0.1-0.1,0.1l0,0l0,0V7l0,0l0,0v0.1l0,0v0.1v0.1c0,0,0,0,0,0.1v0.1v0.1
	c0,0,0,0.1,0.1,0.1c0,0,0,0,0,0.1c0,0,0,0,0,0.1c0,0,0,0.1,0.1,0.1c0,0,0,0.1,0.1,0.1c0,0,0,0.1,0.1,0.1l0.1,0.1l0.1,0.1l0.1,0.1
	l0.1,0.1c0,0,0,0,0,0.1c0,0,0,0,0.1,0.1c0,0,0,0,0.1,0.1S2.8,9,2.9,9.1l0.8,0.6H3.6H3.5C3.2,9.7,3,9.6,2.7,9.4L4,10.3
	c0.2,0.2,0.5,0.3,0.8,0.3h0.1c0.6-0.1,1.1-0.5,1.7-1c0,0.1,0,0.2,0,0.3c-0.1,0.6-0.1,1.2-0.2,1.7c-0.1,1.1-0.3,2.2-0.4,3.3
	c-0.2,1.4-0.4,2.9-0.5,4.4v0.1c0,0.1,0,0.2,0,0.3v0.1c0,0.1,0,0.2,0,0.2l0,0c0,0.1,0,0.1,0,0.2v0.1c0,0.1,0,0.2,0,0.2v0.1l0,0
	c0,0.1,0,0.2,0.1,0.3c0,0,0,0,0,0.1v0.1c0,0,0,0,0,0.1v0.1c0,0.1,0.1,0.1,0.1,0.2c0,0,0,0,0.1,0.1l0,0c-0.1,0.3,0,0.4,0.1,0.4l0,0
	l0,0l0,0l0.9,0.6l0.1,0.1c-0.3,0-0.7-0.1-1.1-0.3c-0.1,0-0.1-0.1-0.2-0.1l1.3,0.9c0.1,0,0.1,0.1,0.2,0.1c0.5,0.3,1.1,0.3,1.5,0.3
	c0.3,0,0.5,0,0.8,0c0.1,0,0.3,0,0.4,0c0.8,0,1.4-0.3,1.8-0.7c0.1-0.1,0.1-0.1,0.2-0.2l0,0l0,0c0-0.1,0.1-0.1,0.1-0.2v-0.1
	c0,0,0,0,0-0.1c0,0,0,0,0-0.1l0,0l0,0l0,0c0-0.1,0-0.1,0.1-0.2c0-0.1,0.1-0.1,0.1-0.2c0,0,0,0,0-0.1s0.1-0.2,0.1-0.4v-0.1
	c0-0.1,0-0.1,0-0.2s0-0.1,0-0.2s0-0.2,0-0.3c0-0.1,0-0.2,0-0.3V20l0,0v-0.1v-0.1v-0.1c0-0.2,0-0.5,0-0.7c0-0.5,0-0.9,0-1.4
	c0-0.1,0-0.3,0-0.4c0-0.4,0-0.7,0-1.1c0-0.1,0-0.2,0-0.3c0-0.4,0-0.9,0-1.3v-0.1c0-0.4,0-0.8,0.1-1.3c0-0.1,0-0.3,0-0.4
	c0-0.3,0-0.7,0.1-1c0-0.1,0-0.2,0-0.4c0-0.4,0-0.9,0.1-1.3V9.7c0-0.5,0.1-1,0.1-1.6C13,8.3,13,8,13,7.8c0-0.1,0-0.2,0-0.3
	C13,7.4,13,7.3,13.1,7.2z"/>
<path class="st1" d="M11.2,2.6c-0.2-0.6-0.4-1-0.7-1.2C10.2,1.1,9.9,1,9.5,1C9.3,1,9,1,8.7,1.1c-0.5,0.3-1,0.6-1.5,1
	C6.5,2.6,6,3.1,5.4,3.5C5,3.9,4.6,4.2,4.2,4.5C4.1,4.6,4,4.7,3.8,4.9C3.7,4.9,3.6,5,3.5,5.1C2.7,5.8,1.6,6.6,1.7,7.5
	c0.1,0.8,0.9,2.1,1.7,2.1h0.1c0.8-0.1,1.7-1.2,2.4-2.1C6.1,7.2,6.3,7,6.5,6.7l0.4-0.5L6.8,6.8C6.7,7.9,6.6,9,6.5,10
	c-0.1,0.6-0.1,1.2-0.2,1.7C6.2,12.8,6,13.9,5.9,15c-0.2,1.4-0.4,2.9-0.5,4.4v0.1c-0.1,0.9-0.2,2.1,0.7,2.5c0.3,0.2,0.8,0.2,1.3,0.3
	c0.3,0,0.5,0,0.8,0c0.1,0,0.2,0,0.3,0h0.1c0.7,0,1.2-0.2,1.5-0.6c0.7-0.8,0.8-2.1,0.7-3.3c-0.1-3,0.1-6,0.3-9V9.1
	c0-0.5,0.1-1,0.1-1.6C11.4,5.9,11.6,4.1,11.2,2.6z"/>
<path class="st6" d="M9.5,0.9c0.4,0,0.8,0.1,1,0.4C10.8,1.6,11,2,11.2,2.6c0.3,1.5,0.1,3.3,0,4.9c-0.1,0.6-0.1,1.1-0.1,1.6v0.3
	c-0.2,2.9-0.3,6-0.3,9c0,1.2,0,2.6-0.7,3.3c-0.4,0.4-0.9,0.6-1.5,0.6H8.5c0.7-5,1.2-10.1,1-15.2c0-1.7,0-4.1-1.9-4.9
	C7.4,2.1,7.3,2.1,7.1,2c0.5-0.4,1-0.8,1.5-1C9,1,9.3,0.9,9.5,0.9z"/>
<path class="st7" d="M11.6,2.5c-0.1-0.4-0.4-1-0.8-1.4C10.4,0.7,10,0.6,9.5,0.6c-0.3,0-0.6,0.1-1,0.2C7.4,1.4,6.2,2.4,5.2,3.3
	C4.8,3.7,4.4,4,4,4.3C3.8,4.4,3.7,4.5,3.6,4.6c-0.1,0-0.2,0.1-0.4,0.2c-0.8,0.7-2,1.6-1.9,2.7c0.1,1,1,2.4,2.1,2.4h0.1
	c1-0.1,1.9-1.3,2.7-2.2c0.1-0.1,0.1-0.2,0.2-0.2c-0.1,0.9-0.2,1.7-0.3,2.6C6,10.7,6,11.3,5.9,11.8c-0.1,1.1-0.3,2.2-0.4,3.3
	C5.3,16.5,5,18,4.9,19.5v0.1c-0.1,1-0.2,2.3,0.9,2.9c0.5,0.3,1.1,0.3,1.5,0.3c0.3,0,0.5,0,0.8,0c0.1,0,0.3,0,0.4,0
	c0.8,0,1.4-0.3,1.8-0.7c0.8-0.9,0.9-2.3,0.8-3.6c-0.1-3,0.1-6,0.2-8.9V9.2c0-0.5,0.1-1,0.1-1.6C11.8,5.9,11.9,4.1,11.6,2.5z
	 M8.1,22.3c-0.2,0-0.5,0-0.8,0c-0.6,0-1-0.1-1.3-0.3c-0.9-0.4-0.8-1.6-0.7-2.5v-0.1c0.1-1.5,0.3-3,0.5-4.4c0.2-1.1,0.3-2.2,0.4-3.3
	c0.1-0.6,0.1-1.1,0.2-1.7c0.1-1.1,0.2-2.2,0.3-3.2l0.1-0.6L6.4,6.7C6.2,6.9,6,7.2,5.8,7.5c-0.7,0.9-1.6,2-2.4,2.1H3.3
	c-0.8,0-1.6-1.3-1.7-2.1c-0.1-0.9,1-1.7,1.8-2.3C3.6,5,3.7,4.9,3.8,4.9C4,4.7,4.1,4.6,4.2,4.5c0.4-0.3,0.8-0.7,1.2-1
	c0.5-0.5,1.1-1,1.7-1.4c0.5-0.4,1-0.8,1.5-1C9,1,9.3,0.9,9.5,0.9c0.4,0,0.8,0.1,1,0.4C10.8,1.6,11,2,11.2,2.6c0.3,1.5,0.1,3.3,0,4.9
	c-0.1,0.6-0.1,1.1-0.1,1.6v0.3c-0.2,2.9-0.3,6-0.3,9c0,1.2,0,2.6-0.7,3.3c-0.4,0.4-0.9,0.6-1.5,0.6H8.5C8.3,22.3,8.2,22.3,8.1,22.3z
	"/>
</svg>
