<?xml version="1.0" encoding="utf-8"?>
<!-- Generator: Adobe Illustrator 24.0.1, SVG Export Plug-In . SVG Version: 6.00 Build 0)  -->
<svg version="1.1" id="Capa_1" xmlns="http://www.w3.org/2000/svg" xmlns:xlink="http://www.w3.org/1999/xlink" x="0px" y="0px"
	 viewBox="0 0 30.5 25" style="enable-background:new 0 0 30.5 25;" xml:space="preserve">
<style type="text/css">
	.st0{fill:#B4B4B4;}
	.st1{fill:#001308;}
	.st2{fill:#58B2FF;}
	.st3{opacity:0.6;fill:#001B27;enable-background:new    ;}
	.st4{fill:#040900;}
	.st5{fill:#62E6FF;}
</style>
<path class="st0" d="M10.5,1.3c-0.3,0-0.6,0.1-1,0.2C8.4,2.1,7.2,3.1,6.2,4C5.8,4.4,5.4,4.7,5,5C4.9,5.2,4.8,5.3,4.6,5.4
	c-0.1,0-0.2,0.1-0.3,0.2c-0.8,0.7-2,1.6-1.9,2.7C2.4,9,3,10,3.7,10.5l0,0L5,11.4c0.2,0.2,0.5,0.3,0.8,0.3l0,0h0.1
	c0.4,0,0.8-0.3,1.2-0.6c-0.1,0.5-0.1,1-0.2,1.5c-0.1,1.1-0.3,2.2-0.4,3.3c-0.2,1.4-0.4,2.9-0.5,4.4v0.1c-0.1,0.9-0.2,2.1,0.7,2.8
	l0,0l0,0l0.1,0.1c-0.1,0-0.1-0.1-0.1-0.1L8,24c0.1,0,0.1,0.1,0.2,0.1c0.5,0.3,1.1,0.3,1.5,0.3l0,0c0.2,0,0.5,0,0.7,0
	c0.1,0,0.3,0,0.4,0c0.8,0,1.4-0.3,1.8-0.7c0.1-0.1,0.1-0.1,0.2-0.2l0,0l0,0c0-0.1,0.1-0.1,0.1-0.2v-0.1v-0.1V23l0,0l0,0l0,0
	c0-0.1,0-0.1,0.1-0.2c0-0.1,0.1-0.1,0.1-0.2v-0.1c0-0.1,0.1-0.2,0.1-0.4V22c0-0.1,0-0.1,0-0.2s0-0.1,0-0.2s0-0.2,0-0.3
	c0-0.1,0-0.2,0-0.3v-0.1l0,0v-0.1v-0.1v-0.1c0-0.2,0-0.5,0-0.7c0-0.5,0-0.9,0-1.4c0-0.1,0-0.3,0-0.4c0-0.4,0-0.7,0-1.1
	c0-0.1,0-0.2,0-0.3c0-0.4,0-0.9,0-1.3v-0.1c0-0.4,0-0.8,0.1-1.3c0-0.1,0-0.3,0-0.4c0-0.3,0-0.7,0.1-1c0-0.1,0-0.2,0-0.4
	c0-0.4,0-0.9,0.1-1.3v-0.3c0-0.5,0.1-1,0.1-1.6c0-0.2,0-0.4,0.1-0.6c0-0.1,0-0.2,0-0.3s0-0.3,0-0.4s0-0.2,0-0.3c0-0.1,0-0.2,0-0.4
	c0-0.1,0-0.2,0-0.3c0-0.1,0-0.2,0-0.4V6.2c0-0.2,0-0.3,0-0.5V5.6c0-0.2,0-0.3,0-0.5c0-0.1,0-0.1,0-0.2s0-0.3,0-0.4V4.4V4.3
	c0-0.2-0.1-0.4-0.1-0.5s-0.1-0.2-0.1-0.3l0,0c0-0.1-0.1-0.2-0.1-0.3V3.1c0-0.1-0.1-0.2-0.2-0.3V2.7c-0.1-0.1-0.1-0.2-0.2-0.3
	l-0.1-0.1c-0.1-0.1-0.2-0.2-0.3-0.2l-1.3-0.9l0,0C11.3,1.5,11,1.3,10.5,1.3C10.6,1.3,10.5,1.3,10.5,1.3L10.5,1.3z"/>
<path class="st1" d="M13.1,7.2c0-0.1,0-0.2,0-0.3c0-0.1,0-0.2,0-0.4c0-0.1,0-0.2,0-0.3c0-0.1,0-0.2,0-0.4c0,0,0,0,0-0.1
	c0-0.2,0-0.3,0-0.5V5.1c0-0.2,0-0.3,0-0.5c0-0.1,0-0.1,0-0.2s0-0.3,0-0.4V3.9c0,0,0,0,0-0.1c0-0.2-0.1-0.4-0.1-0.5S12.9,3.1,12.9,3
	l0,0c0-0.1-0.1-0.2-0.1-0.3V2.6c0-0.1-0.1-0.2-0.2-0.3c0,0,0,0,0-0.1c-0.1-0.1-0.1-0.2-0.2-0.3L12.2,2c-0.1-0.1-0.2-0.2-0.3-0.2
	l-1.3-0.9C10.7,1,10.8,1,10.9,1.1c0.1,0.1,0.2,0.2,0.3,0.3c0,0,0,0,0,0.1l0,0L10.4,1c-0.1-0.1-0.3-0.2-0.5-0.2l0,0H9.8
	c-0.1,0-0.3,0-0.4,0c-0.3,0-0.6,0.1-0.9,0.1C7.9,1.2,7.4,1.6,6.8,2.1L7,2.2C6.5,2.6,5.9,3.1,5.4,3.5C5,3.9,4.6,4.2,4.2,4.5
	C4.1,4.6,4,4.7,3.8,4.9C3.7,4.9,3.6,5,3.5,5.1c-0.1,0-0.1,0.1-0.2,0.1c0,0,0,0-0.1,0.1L3.1,5.4c0,0,0,0-0.1,0.1L2.9,5.6
	c0,0,0,0-0.1,0.1c0,0,0,0-0.1,0.1l0,0c-0.1,0-0.1,0.1-0.2,0.1c0,0,0,0-0.1,0.1L2.3,6.1c0,0,0,0-0.1,0.1L2.1,6.3c0,0,0,0,0,0.1
	S2,6.5,2,6.6l0,0l0,0c-0.1,0-0.1,0.1-0.2,0.2l0,0l0,0c0,0,0,0.1-0.1,0.1l0,0l0,0V7l0,0l0,0v0.1l0,0v0.1v0.1c0,0,0,0,0,0.1v0.1v0.1
	c0,0,0,0.1,0.1,0.1c0,0,0,0,0,0.1c0,0,0,0,0,0.1c0,0,0,0.1,0.1,0.1c0,0,0,0.1,0.1,0.1c0,0,0,0.1,0.1,0.1l0.1,0.1l0.1,0.1l0.1,0.1
	l0.1,0.1c0,0,0,0,0,0.1c0,0,0,0,0.1,0.1c0,0,0,0,0.1,0.1S2.8,9,2.9,9.1l0.8,0.6H3.6H3.5C3.2,9.7,3,9.6,2.7,9.4L4,10.3
	c0.2,0.2,0.5,0.3,0.8,0.3h0.1c0.6-0.1,1.1-0.5,1.7-1c0,0.1,0,0.2,0,0.3c-0.1,0.6-0.1,1.2-0.2,1.7c-0.1,1.1-0.3,2.2-0.4,3.3
	c-0.2,1.4-0.4,2.9-0.5,4.4v0.1c0,0.1,0,0.2,0,0.3v0.1c0,0.1,0,0.2,0,0.2l0,0c0,0.1,0,0.1,0,0.2v0.1c0,0.1,0,0.2,0,0.2v0.1l0,0
	c0,0.1,0,0.2,0.1,0.3c0,0,0,0,0,0.1v0.1c0,0,0,0,0,0.1v0.1c0,0.1,0.1,0.1,0.1,0.2c0,0,0,0,0.1,0.1l0,0c-0.1,0.3,0,0.4,0.1,0.4l0,0
	l0,0l0,0l0.9,0.6l0.1,0.1c-0.3,0-0.7-0.1-1.1-0.3c-0.1,0-0.1-0.1-0.2-0.1l1.3,0.9c0.1,0,0.1,0.1,0.2,0.1c0.5,0.3,1.1,0.3,1.5,0.3
	c0.3,0,0.5,0,0.8,0c0.1,0,0.3,0,0.4,0c0.8,0,1.4-0.3,1.8-0.7c0.1-0.1,0.1-0.1,0.2-0.2l0,0l0,0c0-0.1,0.1-0.1,0.1-0.2v-0.1
	c0,0,0,0,0-0.1c0,0,0,0,0-0.1l0,0l0,0l0,0c0-0.1,0-0.1,0.1-0.2c0-0.1,0.1-0.1,0.1-0.2c0,0,0,0,0-0.1s0.1-0.2,0.1-0.4v-0.1
	c0-0.1,0-0.1,0-0.2s0-0.1,0-0.2s0-0.2,0-0.3c0-0.1,0-0.2,0-0.3V20l0,0v-0.1v-0.1v-0.1c0-0.2,0-0.5,0-0.7c0-0.5,0-0.9,0-1.4
	c0-0.1,0-0.3,0-0.4c0-0.4,0-0.7,0-1.1c0-0.1,0-0.2,0-0.3c0-0.4,0-0.9,0-1.3v-0.1c0-0.4,0-0.8,0.1-1.3c0-0.1,0-0.3,0-0.4
	c0-0.3,0-0.7,0.1-1c0-0.1,0-0.2,0-0.4c0-0.4,0-0.9,0.1-1.3V9.7c0-0.5,0.1-1,0.1-1.6C13,8.3,13,8,13,7.8c0-0.1,0-0.2,0-0.3
	C13,7.4,13,7.3,13.1,7.2z"/>
<path class="st2" d="M11.2,2.6c-0.2-0.6-0.4-1-0.7-1.2C10.2,1.1,9.9,1,9.5,1C9.3,1,9,1,8.7,1.1c-0.5,0.3-1,0.6-1.5,1
	C6.5,2.6,6,3.1,5.4,3.5C5,3.9,4.6,4.2,4.2,4.5C4.1,4.6,4,4.7,3.8,4.9C3.7,4.9,3.6,5,3.5,5.1C2.7,5.8,1.6,6.6,1.7,7.5
	c0.1,0.8,0.9,2.1,1.7,2.1h0.1c0.8-0.1,1.7-1.2,2.4-2.1C6.1,7.2,6.3,7,6.5,6.7l0.4-0.5L6.8,6.8C6.7,7.9,6.6,9,6.5,10
	c-0.1,0.6-0.1,1.2-0.2,1.7C6.2,12.8,6,13.9,5.9,15c-0.2,1.4-0.4,2.9-0.5,4.4v0.1c-0.1,0.9-0.2,2.1,0.7,2.5c0.3,0.2,0.8,0.2,1.3,0.3
	c0.3,0,0.5,0,0.8,0c0.1,0,0.2,0,0.3,0h0.1c0.7,0,1.2-0.2,1.5-0.6c0.7-0.8,0.8-2.1,0.7-3.3c-0.1-3,0.1-6,0.3-9V9.1
	c0-0.5,0.1-1,0.1-1.6C11.4,5.9,11.6,4.1,11.2,2.6z"/>
<path class="st3" d="M9.5,0.9c0.4,0,0.8,0.1,1,0.4C10.8,1.6,11,2,11.2,2.6c0.3,1.5,0.1,3.3,0,4.9c-0.1,0.6-0.1,1.1-0.1,1.6v0.3
	c-0.2,2.9-0.3,6-0.3,9c0,1.2,0,2.6-0.7,3.3c-0.4,0.4-0.9,0.6-1.5,0.6H8.5c0.7-5,1.2-10.1,1-15.2c0-1.7,0-4.1-1.9-4.9
	C7.4,2.1,7.3,2.1,7.1,2c0.5-0.4,1-0.8,1.5-1C9,1,9.3,0.9,9.5,0.9z"/>
<path class="st4" d="M11.6,2.5c-0.1-0.4-0.4-1-0.8-1.4C10.4,0.7,10,0.6,9.5,0.6c-0.3,0-0.6,0.1-1,0.2C7.4,1.4,6.2,2.4,5.2,3.3
	C4.8,3.7,4.4,4,4,4.3C3.8,4.4,3.7,4.5,3.6,4.6c-0.1,0-0.2,0.1-0.4,0.2c-0.8,0.7-2,1.6-1.9,2.7c0.1,1,1,2.4,2.1,2.4h0.1
	c1-0.1,1.9-1.3,2.7-2.2c0.1-0.1,0.1-0.2,0.2-0.2c-0.1,0.9-0.2,1.7-0.3,2.6C6,10.7,6,11.3,5.9,11.8c-0.1,1.1-0.3,2.2-0.4,3.3
	C5.3,16.5,5,18,4.9,19.5v0.1c-0.1,1-0.2,2.3,0.9,2.9c0.5,0.3,1.1,0.3,1.5,0.3c0.3,0,0.5,0,0.8,0c0.1,0,0.3,0,0.4,0
	c0.8,0,1.4-0.3,1.8-0.7c0.8-0.9,0.9-2.3,0.8-3.6c-0.1-3,0.1-6,0.2-8.9V9.2c0-0.5,0.1-1,0.1-1.6C11.8,5.9,11.9,4.1,11.6,2.5z
	 M8.1,22.3c-0.2,0-0.5,0-0.8,0c-0.6,0-1-0.1-1.3-0.3c-0.9-0.4-0.8-1.6-0.7-2.5v-0.1c0.1-1.5,0.3-3,0.5-4.4c0.2-1.1,0.3-2.2,0.4-3.3
	c0.1-0.6,0.1-1.1,0.2-1.7c0.1-1.1,0.2-2.2,0.3-3.2l0.1-0.6L6.4,6.7C6.2,6.9,6,7.2,5.8,7.5c-0.7,0.9-1.6,2-2.4,2.1H3.3
	c-0.8,0-1.6-1.3-1.7-2.1c-0.1-0.9,1-1.7,1.8-2.3C3.6,5,3.7,4.9,3.8,4.9C4,4.7,4.1,4.6,4.2,4.5c0.4-0.3,0.8-0.7,1.2-1
	c0.5-0.5,1.1-1,1.7-1.4c0.5-0.4,1-0.8,1.5-1C9,1,9.3,0.9,9.5,0.9c0.4,0,0.8,0.1,1,0.4C10.8,1.6,11,2,11.2,2.6c0.3,1.5,0.1,3.3,0,4.9
	c-0.1,0.6-0.1,1.1-0.1,1.6v0.3c-0.2,2.9-0.3,6-0.3,9c0,1.2,0,2.6-0.7,3.3c-0.4,0.4-0.9,0.6-1.5,0.6H8.5C8.3,22.3,8.2,22.3,8.1,22.3z
	"/>
<path class="st0" d="M24.5,1.3c-0.3,0-0.6,0.1-1,0.2c-1.1,0.6-2.3,1.6-3.3,2.5c-0.4,0.4-0.8,0.7-1.2,1c-0.1,0.2-0.2,0.3-0.4,0.4
	c-0.1,0-0.2,0.1-0.3,0.2c-0.8,0.7-2,1.6-1.9,2.7c0,0.7,0.6,1.7,1.3,2.2l0,0l1.3,0.9c0.2,0.2,0.5,0.3,0.8,0.3l0,0h0.1
	c0.4,0,0.8-0.3,1.2-0.6c-0.1,0.5-0.1,1-0.2,1.5c-0.1,1.1-0.3,2.2-0.4,3.3c-0.2,1.4-0.4,2.9-0.5,4.4v0.1c-0.1,0.9-0.2,2.1,0.7,2.8
	l0,0l0,0l0.1,0.1c-0.1,0-0.1-0.1-0.1-0.1L22,24c0.1,0,0.1,0.1,0.2,0.1c0.5,0.3,1.1,0.3,1.5,0.3l0,0c0.2,0,0.5,0,0.7,0
	c0.1,0,0.3,0,0.4,0c0.8,0,1.4-0.3,1.8-0.7c0.1-0.1,0.1-0.1,0.2-0.2l0,0l0,0c0-0.1,0.1-0.1,0.1-0.2v-0.1v-0.1V23l0,0l0,0l0,0
	c0-0.1,0-0.1,0.1-0.2c0-0.1,0.1-0.1,0.1-0.2v-0.1c0-0.1,0.1-0.2,0.1-0.4V22c0-0.1,0-0.1,0-0.2s0-0.1,0-0.2s0-0.2,0-0.3
	c0-0.1,0-0.2,0-0.3v-0.1l0,0v-0.1v-0.1v-0.1c0-0.2,0-0.5,0-0.7c0-0.5,0-0.9,0-1.4c0-0.1,0-0.3,0-0.4c0-0.4,0-0.7,0-1.1
	c0-0.1,0-0.2,0-0.3c0-0.4,0-0.9,0-1.3v-0.1c0-0.4,0-0.8,0.1-1.3c0-0.1,0-0.3,0-0.4c0-0.3,0-0.7,0.1-1c0-0.1,0-0.2,0-0.4
	c0-0.4,0-0.9,0.1-1.3v-0.3c0-0.5,0.1-1,0.1-1.6c0-0.2,0-0.4,0.1-0.6c0-0.1,0-0.2,0-0.3s0-0.3,0-0.4s0-0.2,0-0.3c0-0.1,0-0.2,0-0.4
	c0-0.1,0-0.2,0-0.3c0-0.1,0-0.2,0-0.4V6.2c0-0.2,0-0.3,0-0.5V5.6c0-0.2,0-0.3,0-0.5c0-0.1,0-0.1,0-0.2s0-0.3,0-0.4V4.4V4.3
	c0-0.2-0.1-0.4-0.1-0.5s-0.1-0.2-0.1-0.3l0,0c0-0.1-0.1-0.2-0.1-0.3V3.1c0-0.1-0.1-0.2-0.2-0.3V2.7c-0.1-0.1-0.1-0.2-0.2-0.3
	l-0.1-0.1c-0.1-0.1-0.2-0.2-0.3-0.2l-1.3-0.9l0,0C25.3,1.5,25,1.3,24.5,1.3C24.6,1.3,24.5,1.3,24.5,1.3L24.5,1.3z"/>
<path class="st1" d="M27.1,7.2c0-0.1,0-0.2,0-0.3c0-0.1,0-0.2,0-0.4c0-0.1,0-0.2,0-0.3c0-0.1,0-0.2,0-0.4c0,0,0,0,0-0.1
	c0-0.2,0-0.3,0-0.5V5.1c0-0.2,0-0.3,0-0.5c0-0.1,0-0.1,0-0.2s0-0.3,0-0.4V3.9c0,0,0,0,0-0.1c0-0.2-0.1-0.4-0.1-0.5S26.9,3.1,26.9,3
	l0,0c0-0.1-0.1-0.2-0.1-0.3V2.6c0-0.1-0.1-0.2-0.2-0.3c0,0,0,0,0-0.1c-0.1-0.1-0.1-0.2-0.2-0.3L26.2,2c-0.1-0.1-0.2-0.2-0.3-0.2
	l-1.3-0.9C24.7,1,24.8,1,24.9,1.1c0.1,0.1,0.2,0.2,0.3,0.3c0,0,0,0,0,0.1l0,0L24.4,1c-0.1-0.1-0.3-0.2-0.5-0.2l0,0h-0.1
	c-0.1,0-0.3,0-0.4,0c-0.3,0-0.6,0.1-0.9,0.1c-0.6,0.3-1.1,0.7-1.7,1.2L21,2.2c-0.5,0.4-1.1,0.9-1.6,1.3c-0.4,0.4-0.8,0.7-1.2,1
	c-0.1,0.1-0.2,0.2-0.4,0.4c-0.1,0-0.2,0.1-0.3,0.2c-0.1,0-0.1,0.1-0.2,0.1c0,0,0,0-0.1,0.1l-0.1,0.1c0,0,0,0-0.1,0.1l-0.1,0.1
	c0,0,0,0-0.1,0.1c0,0,0,0-0.1,0.1l0,0c-0.1,0-0.1,0.1-0.2,0.1c0,0,0,0-0.1,0.1l-0.1,0.1c0,0,0,0-0.1,0.1l-0.1,0.1c0,0,0,0,0,0.1
	S16,6.5,16,6.6l0,0l0,0c-0.1,0-0.1,0.1-0.2,0.2l0,0l0,0c0,0,0,0.1-0.1,0.1l0,0l0,0V7l0,0l0,0v0.1l0,0v0.1v0.1c0,0,0,0,0,0.1v0.1v0.1
	c0,0,0,0.1,0.1,0.1c0,0,0,0,0,0.1c0,0,0,0,0,0.1c0,0,0,0.1,0.1,0.1c0,0,0,0.1,0.1,0.1c0,0,0,0.1,0.1,0.1l0.1,0.1l0.1,0.1l0.1,0.1
	l0.1,0.1c0,0,0,0,0,0.1c0,0,0,0,0.1,0.1c0,0,0,0,0.1,0.1s0.1,0.1,0.2,0.2l0.8,0.6h-0.1h-0.1c-0.3,0-0.5-0.1-0.8-0.3l1.3,0.9
	c0.2,0.2,0.5,0.3,0.8,0.3h0.1c0.6-0.1,1.1-0.5,1.7-1c0,0.1,0,0.2,0,0.3c-0.1,0.6-0.1,1.2-0.2,1.7c-0.1,1.1-0.3,2.2-0.4,3.3
	c-0.2,1.4-0.4,2.9-0.5,4.4v0.1c0,0.1,0,0.2,0,0.3v0.1c0,0.1,0,0.2,0,0.2l0,0c0,0.1,0,0.1,0,0.2v0.1c0,0.1,0,0.2,0,0.2v0.1l0,0
	c0,0.1,0,0.2,0.1,0.3c0,0,0,0,0,0.1v0.1c0,0,0,0,0,0.1v0.1c0,0.1,0.1,0.1,0.1,0.2c0,0,0,0,0.1,0.1l0,0c-0.1,0.3,0,0.4,0.1,0.4l0,0
	l0,0l0,0l0.9,0.6l0.1,0.1c-0.3,0-0.7-0.1-1.1-0.3c-0.1,0-0.1-0.1-0.2-0.1l1.3,0.9c0.1,0,0.1,0.1,0.2,0.1c0.5,0.3,1.1,0.3,1.5,0.3
	c0.3,0,0.5,0,0.8,0c0.1,0,0.3,0,0.4,0c0.8,0,1.4-0.3,1.8-0.7c0.1-0.1,0.1-0.1,0.2-0.2l0,0l0,0c0-0.1,0.1-0.1,0.1-0.2v-0.1
	c0,0,0,0,0-0.1c0,0,0,0,0-0.1l0,0l0,0l0,0c0-0.1,0-0.1,0.1-0.2c0-0.1,0.1-0.1,0.1-0.2c0,0,0,0,0-0.1s0.1-0.2,0.1-0.4v-0.1
	c0-0.1,0-0.1,0-0.2s0-0.1,0-0.2s0-0.2,0-0.3c0-0.1,0-0.2,0-0.3V20l0,0v-0.1v-0.1v-0.1c0-0.2,0-0.5,0-0.7c0-0.5,0-0.9,0-1.4
	c0-0.1,0-0.3,0-0.4c0-0.4,0-0.7,0-1.1c0-0.1,0-0.2,0-0.3c0-0.4,0-0.9,0-1.3v-0.1c0-0.4,0-0.8,0.1-1.3c0-0.1,0-0.3,0-0.4
	c0-0.3,0-0.7,0.1-1c0-0.1,0-0.2,0-0.4c0-0.4,0-0.9,0.1-1.3V9.7c0-0.5,0.1-1,0.1-1.6C27,8.3,27,8,27,7.8c0-0.1,0-0.2,0-0.3
	C27,7.4,27,7.3,27.1,7.2z"/>
<path class="st5" d="M25.2,2.6c-0.2-0.6-0.4-1-0.7-1.2c-0.3-0.3-0.6-0.4-1-0.4c-0.2,0-0.5,0-0.8,0.1c-0.5,0.3-1,0.6-1.5,1
	c-0.7,0.5-1.2,1-1.8,1.4c-0.4,0.4-0.8,0.7-1.2,1c-0.1,0.1-0.2,0.2-0.4,0.4c-0.1,0-0.2,0.1-0.3,0.2c-0.8,0.7-1.9,1.5-1.8,2.4
	c0.1,0.8,0.9,2.1,1.7,2.1h0.1c0.8-0.1,1.7-1.2,2.4-2.1c0.2-0.3,0.4-0.5,0.6-0.8l0.4-0.5l-0.1,0.6C20.7,7.9,20.6,9,20.5,10
	c-0.1,0.6-0.1,1.2-0.2,1.7c-0.1,1.1-0.3,2.2-0.4,3.3c-0.2,1.4-0.4,2.9-0.5,4.4v0.1c-0.1,0.9-0.2,2.1,0.7,2.5
	c0.3,0.2,0.8,0.2,1.3,0.3c0.3,0,0.5,0,0.8,0c0.1,0,0.2,0,0.3,0h0.1c0.7,0,1.2-0.2,1.5-0.6c0.7-0.8,0.8-2.1,0.7-3.3
	c-0.1-3,0.1-6,0.3-9V9.1c0-0.5,0.1-1,0.1-1.6C25.4,5.9,25.6,4.1,25.2,2.6z"/>
<path class="st3" d="M23.5,0.9c0.4,0,0.8,0.1,1,0.4C24.8,1.6,25,2,25.2,2.6c0.3,1.5,0.1,3.3,0,4.9c-0.1,0.6-0.1,1.1-0.1,1.6v0.3
	c-0.2,2.9-0.3,6-0.3,9c0,1.2,0,2.6-0.7,3.3c-0.4,0.4-0.9,0.6-1.5,0.6h-0.1c0.7-5,1.2-10.1,1-15.2c0-1.7,0-4.1-1.9-4.9
	c-0.2-0.1-0.3-0.1-0.5-0.2c0.5-0.4,1-0.8,1.5-1C23,1,23.3,0.9,23.5,0.9z"/>
<path class="st4" d="M25.6,2.5c-0.1-0.4-0.4-1-0.8-1.4c-0.4-0.4-0.8-0.5-1.3-0.5c-0.3,0-0.6,0.1-1,0.2c-1.1,0.6-2.3,1.6-3.3,2.5
	c-0.4,0.4-0.8,0.7-1.2,1c-0.2,0.1-0.3,0.2-0.4,0.3c-0.1,0-0.2,0.1-0.4,0.2c-0.8,0.7-2,1.6-1.9,2.7c0.1,1,1,2.4,2.1,2.4h0.1
	c1-0.1,1.9-1.3,2.7-2.2c0.1-0.1,0.1-0.2,0.2-0.2c-0.1,0.9-0.2,1.7-0.3,2.6c-0.1,0.6-0.1,1.2-0.2,1.7c-0.1,1.1-0.3,2.2-0.4,3.3
	c-0.2,1.4-0.5,2.9-0.6,4.4v0.1c-0.1,1-0.2,2.3,0.9,2.9c0.5,0.3,1.1,0.3,1.5,0.3c0.3,0,0.5,0,0.8,0c0.1,0,0.3,0,0.4,0
	c0.8,0,1.4-0.3,1.8-0.7c0.8-0.9,0.9-2.3,0.8-3.6c-0.1-3,0.1-6,0.2-8.9V9.2c0-0.5,0.1-1,0.1-1.6C25.8,5.9,25.9,4.1,25.6,2.5z
	 M22.1,22.3c-0.2,0-0.5,0-0.8,0c-0.6,0-1-0.1-1.3-0.3c-0.9-0.4-0.8-1.6-0.7-2.5v-0.1c0.1-1.5,0.3-3,0.5-4.4c0.2-1.1,0.3-2.2,0.4-3.3
	c0.1-0.6,0.1-1.1,0.2-1.7c0.1-1.1,0.2-2.2,0.3-3.2l0.1-0.6l-0.4,0.5c-0.2,0.2-0.4,0.5-0.6,0.8c-0.7,0.9-1.6,2-2.4,2.1h-0.1
	c-0.8,0-1.6-1.3-1.7-2.1c-0.1-0.9,1-1.7,1.8-2.3c0.2-0.2,0.3-0.3,0.4-0.3c0.2-0.2,0.3-0.3,0.4-0.4c0.4-0.3,0.8-0.7,1.2-1
	c0.5-0.5,1.1-1,1.7-1.4c0.5-0.4,1-0.8,1.5-1C23,1,23.3,0.9,23.5,0.9c0.4,0,0.8,0.1,1,0.4C24.8,1.6,25,2,25.2,2.6
	c0.3,1.5,0.1,3.3,0,4.9c-0.1,0.6-0.1,1.1-0.1,1.6v0.3c-0.2,2.9-0.3,6-0.3,9c0,1.2,0,2.6-0.7,3.3c-0.4,0.4-0.9,0.6-1.5,0.6h-0.1
	C22.3,22.3,22.2,22.3,22.1,22.3z"/>
</svg>
