<?xml version="1.0" encoding="utf-8"?>
<!-- Generator: Adobe Illustrator 24.0.1, SVG Export Plug-In . SVG Version: 6.00 Build 0)  -->
<svg version="1.1" id="Capa_1" xmlns="http://www.w3.org/2000/svg" xmlns:xlink="http://www.w3.org/1999/xlink" x="0px" y="0px"
	 viewBox="0 0 25 25" style="enable-background:new 0 0 25 25;" xml:space="preserve">
<style type="text/css">
	.st0{fill:#EDB391;}
	.st1{fill:#89421A;}
	.st2{fill:#FBD0B4;}
	.st3{fill:#B56A4D;}
	.st4{fill:#FFFFFF;}
	.st5{fill:#414D54;}
	.st6{opacity:0.9;}
	.st7{fill:#C3C6CB;}
	.st8{fill:#3173C1;}
	.st9{fill:#1F5C93;}
	.st10{fill:#0F2440;}
	.st11{opacity:0.45;fill:#1F5C93;enable-background:new    ;}
	.st12{fill:#0A1827;}
	.st13{fill:#8CC63F;}
	.st14{fill:#009245;}
	.st15{fill:#FCECE3;}
	.st16{fill:#A05B23;}
	.st17{fill:#EFC2A7;}
	.st18{opacity:0.48;}
	.st19{opacity:0.6;}
	.st20{fill:#FAE1D1;}
	.st21{opacity:0.6;fill:#FBD0B4;enable-background:new    ;}
	.st22{fill:#FF0000;}
	.st23{fill:#97272D;}
	.st24{opacity:0.5;}
	.st25{opacity:0.55;fill:#9E272D;enable-background:new    ;}
	.st26{fill:#9E272D;}
	.st27{fill:#582E18;}
	.st28{fill:#33160A;}
	.st29{fill:#FEF6EC;}
	.st30{fill:#9E5116;}
	.st31{fill:#BBAC9A;}
	.st32{fill:#984C08;}
	.st33{fill:#A0A427;}
	.st34{fill:#9A5648;}
	.st35{fill:#0A010B;}
	.st36{opacity:0.7;fill:url(#SVGID_1_);enable-background:new    ;}
	.st37{opacity:0.7;fill:url(#SVGID_2_);enable-background:new    ;}
	.st38{fill:#FDE4C7;}
	.st39{fill:#9E4C0B;}
	.st40{opacity:0.46;}
	.st41{fill:none;}
	.st42{opacity:0.52;}
	.st43{fill:#C46634;}
	.st44{fill:#C92337;}
	.st45{fill:#FFFAF7;}
	.st46{fill:#EF7673;}
</style>
<g>
	<g>
		<g>
			<g>
				<g>
					<path class="st0" d="M19.3,18.7l-0.2-0.1c0,0-0.5,0.2-0.9,0.6c0,0-0.3,0-0.6,0.2c-1.5-0.1-3.7,1.1-4.3,1.4c0,0,0,0,0,0.1
						c0.2,0.3,0.5,0.9,0.6,1.3c0,0,2.2-0.5,3.9-1C19.9,20.6,20.2,19.1,19.3,18.7z"/>
					<g>
						<path class="st1" d="M19.3,18.6c-0.3-0.1-0.5,0-0.7,0.2c-0.1,0.1-0.3,0.3-0.4,0.3c-0.1,0-0.2,0-0.2,0c-0.1,0-0.3,0.1-0.4,0.1
							c-0.2,0-0.4,0-0.5,0c-1.3,0.1-2.6,0.8-3.7,1.4c0,0,0,0,0,0c0.3,0.4,0.5,0.8,0.7,1.3c0,0,0,0,0.1,0c0.5-0.1,1.1-0.2,1.6-0.4
							c0.9-0.2,1.9-0.4,2.8-0.8c0.6-0.2,1.2-0.7,1.3-1.3C19.9,19.3,19.8,18.9,19.3,18.6C19.3,18.6,19.2,18.7,19.3,18.6
							c0.5,0.3,0.5,0.8,0.3,1.3c-0.3,0.8-1.2,1.1-1.9,1.3c-0.8,0.2-1.6,0.4-2.4,0.6c-0.3,0.1-0.6,0.1-0.9,0.2c-0.1,0-0.2,0-0.3,0.1
							c-0.1,0-0.1,0-0.1,0c-0.1-0.3-0.3-0.6-0.4-0.9c0,0-0.2-0.4-0.2-0.4c0.1-0.1,0.2-0.1,0.3-0.2c0.7-0.4,1.3-0.7,2.1-0.9
							c0.4-0.1,0.8-0.2,1.2-0.3c0.2,0,0.4,0,0.6,0c0.2,0,0.4-0.1,0.5-0.2c0.2,0,0.3-0.2,0.5-0.3c0.1-0.1,0.3-0.2,0.4-0.3
							C19.2,18.6,19.2,18.6,19.3,18.6C19.3,18.7,19.4,18.7,19.3,18.6z"/>
					</g>
				</g>
				<g>
					<path class="st2" d="M19.3,18.7l-0.2-0.1c0,0-0.5,0.2-0.9,0.6c0,0-0.3,0-0.6,0.2c-1.5-0.1-3.7,1.1-4.3,1.4c0,0,0,0,0,0.1
						c0.2,0.3,0.5,0.9,0.6,1.3c0,0,2.2-0.5,3.9-1C19.9,20.6,20.2,19.1,19.3,18.7z"/>
					<g>
						<path class="st3" d="M19.3,18.7c-0.3-0.1-0.4,0-0.7,0.2c-0.1,0.1-0.3,0.3-0.4,0.3c-0.1,0-0.1,0-0.2,0c-0.2,0-0.4,0.2-0.5,0.2
							c-0.2,0-0.4,0-0.5,0c-1.3,0.1-2.6,0.8-3.7,1.4c0,0,0,0,0,0c0.3,0.4,0.5,0.8,0.7,1.3c0,0,0,0,0.1,0c0.5-0.1,1-0.2,1.5-0.3
							c0.9-0.2,1.9-0.4,2.8-0.8c0.6-0.3,1.2-0.7,1.4-1.3C19.9,19.3,19.8,18.8,19.3,18.7C19.3,18.6,19.2,18.6,19.3,18.7
							c0.5,0.3,0.5,0.8,0.3,1.3c-0.3,0.7-1.1,1.1-1.8,1.3c-1.3,0.4-2.5,0.7-3.8,0.9c0.1,0-0.3-0.9-0.4-0.9c0,0-0.2-0.4-0.2-0.4
							c0.1-0.1,0.2-0.1,0.3-0.2c0.6-0.4,1.3-0.7,2-0.9c0.4-0.1,0.8-0.2,1.2-0.3c0.2,0,0.4,0,0.6,0c0.2,0,0.3-0.1,0.5-0.1
							c0.1,0,0.2,0,0.3,0c0.1,0,0.3-0.3,0.4-0.3C18.9,18.7,19.1,18.6,19.3,18.7C19.3,18.7,19.4,18.7,19.3,18.7z"/>
					</g>
				</g>
				<g>
					<path class="st1" d="M18.1,19.2C18.1,19.2,18.2,19.2,18.1,19.2c0.1,0,0.1,0,0.2,0c0,0,0.1,0,0.2,0c0,0,0.1,0,0.1,0s0.1,0,0.1,0
						c0,0,0.1,0,0.1,0c0,0,0.1,0,0.1,0c0,0,0.1,0,0.1,0c0,0,0,0,0.1,0c0.1,0,0.1,0.1,0.1,0.1s-0.1,0-0.2,0c0,0-0.1,0-0.2,0
						c0,0,0,0,0,0c0,0,0,0,0,0c0,0-0.1,0-0.1,0c0,0-0.1,0-0.1,0c0,0-0.1,0-0.1,0c-0.1,0-0.1,0-0.2,0C18.2,19.2,18.2,19.2,18.1,19.2
						C18.2,19.2,18.1,19.2,18.1,19.2z"/>
				</g>
			</g>
			<g>
				<g>
					<path class="st4" d="M11.8,23.1c0-0.4-0.1-0.5-0.3-0.5c-0.2-0.1-0.4-0.2-0.4-0.2c-0.1,0-0.4,0-0.8,0c-0.2,0.3-0.3,0.8,0,1.1
						c0.3,0.3,0.7,0.4,1,0.4c0.2,0,0.3-0.1,0.4-0.3C11.8,23.4,11.8,23.2,11.8,23.1z"/>
					<g>
						<path class="st5" d="M11.8,23.1c0-0.5-0.2-0.5-0.6-0.7c-0.3-0.2-0.7-0.1-1-0.1c0,0,0,0,0,0c-0.1,0.3-0.2,0.6-0.2,0.9
							c0.1,0.3,0.4,0.5,0.7,0.6c0.2,0.1,0.5,0.2,0.7,0.1c0.1,0,0.3-0.1,0.4-0.2C11.9,23.5,11.8,23.2,11.8,23.1
							C11.8,23.1,11.8,23.1,11.8,23.1c-0.1,0.1,0,0.5-0.1,0.6c-0.2,0.2-0.5,0.2-0.7,0.1c-0.3-0.1-0.7-0.3-0.8-0.6
							c-0.1-0.2,0-0.4,0-0.6c0.1-0.2,0.2-0.2,0.4-0.2c0.2,0,0.3,0,0.5,0c0.1,0,0.2,0.1,0.3,0.2C11.7,22.7,11.8,22.8,11.8,23.1
							C11.8,23.1,11.8,23.1,11.8,23.1z"/>
					</g>
				</g>
				<g>
					<path class="st4" d="M10.3,22.3c-0.1,0-0.2,0-0.2,0C10,22.5,9.8,23,10,23.4c0.2,0.3,0.9,0.6,1.4,0.5c-0.3-0.1-0.7-0.2-1-0.4
						C10,23.1,10.1,22.6,10.3,22.3z"/>
					<g>
						<path class="st5" d="M10.3,22.3c-0.1,0-0.2,0-0.2,0c0,0,0,0,0,0c-0.2,0.4-0.3,1,0.1,1.3c0.3,0.3,0.9,0.4,1.3,0.3c0,0,0,0,0,0
							c-0.4-0.1-0.9-0.2-1.1-0.6C10,23,10.2,22.6,10.3,22.3C10.4,22.3,10.3,22.3,10.3,22.3c-0.2,0.3-0.3,0.6-0.2,0.9
							c0.1,0.4,0.6,0.5,0.9,0.6c0.1,0,0.2,0,0.3,0.1c-0.1,0-0.2,0-0.3,0c-0.1,0-0.2,0-0.4,0c-0.2-0.1-0.5-0.2-0.7-0.4
							c-0.1-0.2-0.1-0.5-0.1-0.7c0-0.1,0.1-0.3,0.1-0.4C10.1,22.3,10.2,22.3,10.3,22.3C10.4,22.3,10.3,22.3,10.3,22.3z"/>
					</g>
				</g>
				<g class="st6">
					<path class="st7" d="M11.8,23.1c0-0.4-0.1-0.5-0.3-0.5c-0.2-0.1-0.4-0.2-0.4-0.2c-0.1,0-0.4,0-0.8,0c-0.2,0.3-0.3,0.8,0,1.1
						c0.3,0.3,0.7,0.4,1,0.4c0.2,0,0.3-0.1,0.4-0.3C11.8,23.4,11.8,23.2,11.8,23.1z M11.1,23.7c-0.7-0.1-1-0.8-0.8-1.1
						c0.1-0.2,0.6,0.1,1,0.3C11.6,23.1,11.8,23.8,11.1,23.7z"/>
				</g>
				<g class="st6">
					<path class="st7" d="M10.2,23.2c-0.1-0.3,0-0.6,0.1-0.9c-0.1,0-0.2,0-0.2,0c-0.1,0.2-0.2,0.5-0.2,0.8
						C10,23.1,10,23.1,10.2,23.2z"/>
				</g>
			</g>
			<g>
				<g>
					<path class="st8" d="M11.5,20.4c-0.3,0-0.5,0.1-0.7,0.3c0,0,0,0,0,0c0.1,0,0.1,0,0.2,0c0,0,0,0,0.1,0
						C11.2,20.7,11.4,20.6,11.5,20.4C11.6,20.5,11.5,20.4,11.5,20.4c-0.2,0.1-0.3,0.2-0.5,0.4c0,0,0,0,0.1,0c0,0-0.2,0-0.2-0.1
						c0-0.1,0.1-0.1,0.2-0.2C11.2,20.5,11.4,20.5,11.5,20.4C11.6,20.5,11.6,20.4,11.5,20.4z"/>
				</g>
				<g>
					<path class="st8" d="M11.1,20.8c0.1,0,0.2,0,0.3,0.1c0,0,0,0,0,0c0-0.2,0.3-0.3,0.5-0.3c0,0,0,0,0,0c-0.1,0-0.3-0.1-0.4-0.1
						C11.3,20.5,11.2,20.7,11.1,20.8C11,20.8,11.1,20.9,11.1,20.8c0.2-0.1,0.3-0.3,0.4-0.4c0,0,0.1,0,0.1,0c0,0,0.2,0.1,0.1,0.1
						c-0.1,0-0.1,0-0.2,0.1c-0.1,0.1-0.2,0.1-0.2,0.3c0,0,0,0,0,0C11.3,20.9,11.2,20.8,11.1,20.8C11.1,20.8,11,20.8,11.1,20.8z"/>
				</g>
			</g>
			<g>
				<g>
					<g>
						<path class="st9" d="M18.3,19.2c0.4-0.4,0.9-0.6,0.9-0.6l0.2,0.1c0,0,0-0.1,0-0.1c0-0.1-0.6-0.5-0.8-0.3c0,0-0.3,0.3-0.6,0.6
							c-0.3,0.3-0.4,0.6-0.4,0.6C18,19.2,18.3,19.2,18.3,19.2z"/>
						<g>
							<path class="st10" d="M18.3,19.2c0.2-0.2,0.4-0.4,0.7-0.5c0.2-0.1,0.1-0.1,0.3,0c0,0,0.1,0,0.1,0c0.1-0.3-0.4-0.6-0.7-0.5
								c-0.2,0-0.4,0.3-0.5,0.5c-0.2,0.2-0.4,0.5-0.5,0.8c0,0,0.1,0,0.1,0C17.9,19.3,18.1,19.2,18.3,19.2
								C18.3,19.2,18.3,19.2,18.3,19.2c-0.1,0-0.3,0-0.4,0c-0.1,0-0.2,0-0.2,0.1c0-0.1,0.1-0.2,0.1-0.2c0.1-0.3,0.4-0.5,0.6-0.7
								c0.1-0.1,0.1-0.1,0.2-0.2c0.1-0.1,0.4,0,0.5,0.1c0.1,0,0.2,0.1,0.2,0.2c0,0,0,0.1,0,0.2c0,0,0,0,0,0c0,0-0.1-0.1-0.1,0
								C18.8,18.7,18.5,18.9,18.3,19.2C18.2,19.2,18.3,19.2,18.3,19.2z"/>
						</g>
					</g>
					<g>
						<path class="st9" d="M7,19.2c0,0-0.1,0-0.4,0c-0.3,0.1-0.4,0.2-0.4,0.2v0.1c0,0,0.3-0.2,1.1,0.4c0,0,0.3,0,0.6,0.1
							C7.6,19.4,7,19.2,7,19.2z"/>
						<g>
							<path class="st10" d="M7.1,19.2c-0.2-0.1-0.9,0.1-0.9,0.3c0,0,0.1,0,0.1,0c0.2-0.1,0.6,0.2,0.8,0.3c0.3,0.2,0.5,0.2,0.8,0.2
								c0,0,0,0,0,0C7.7,19.6,7.4,19.3,7.1,19.2C7,19.2,7,19.2,7.1,19.2c0.3,0.2,0.6,0.4,0.8,0.7c0.1,0.1-0.3,0-0.3,0
								c-0.1,0-0.1,0-0.2,0c-0.1,0-0.3-0.2-0.4-0.2c-0.1,0-0.2-0.1-0.2-0.1c-0.1-0.1-0.3-0.1-0.5-0.1c-0.1,0,0,0,0,0
								C6.4,19.3,6.9,19.1,7.1,19.2C7,19.2,7.1,19.2,7.1,19.2z"/>
						</g>
					</g>
					<g>
						<path class="st9" d="M16.4,17.9c-0.2,0.5-1.7,1.5-3.2,1.7c-1.5,0.2-3.2-0.3-3.4-0.6c0-0.1-0.1-0.1-0.1-0.2
							c-0.6,0-1.7,0-2.6,0.4c0,0,0.6,0.3,0.9,0.8c0.4,0.1,1,0.2,1.5,0.4c0.9,0.3,2,0.6,2,0.6s0.1-0.4,1-0.4c0.8,0,0.9,0.1,1,0.3
							c0.6-0.4,2.7-1.5,4.3-1.4c0,0,0.1-0.3,0.4-0.6c0.3-0.3,0.6-0.6,0.6-0.6C18.1,18,17.3,17.9,16.4,17.9z"/>
						<g>
							<path class="st11" d="M16.4,17.9c-0.2,0.5-1.7,1.5-3.2,1.7c-1.5,0.2-3.2-0.3-3.4-0.6c0-0.1-0.1-0.1-0.1-0.2
								c-0.2,0-0.4,0-0.6,0c0,0,0.1,0.1,0.1,0.2c0,0.4,1,1.1,1.7,1.4c0.4,0.1,0-0.3-0.3-0.5c0,0,2,0.5,3.2,0.1
								c0.3-0.1-0.1,0.7-0.4,0.6c-0.3-0.1-1.4-0.2-1.9-0.1s-0.5,0.3-1.3,0c-0.8-0.3-1.4-0.5-1.7-0.6c-0.4-0.1,0.1-0.3,0.2-0.5
								c0.1-0.1,0.1-0.3,0-0.6c-0.5,0-1.1,0.1-1.7,0.3c0,0,0.6,0.3,0.9,0.8c0.4,0.1,1,0.2,1.5,0.4c0.9,0.3,2,0.6,2,0.6
								s0.1-0.4,1-0.4c0.8,0,0.9,0.1,1,0.3c0.6-0.4,2.7-1.5,4.3-1.4c0,0,0.1-0.3,0.4-0.6c0.3-0.3,0.6-0.6,0.6-0.6
								C18.1,18,17.3,17.9,16.4,17.9z"/>
						</g>
						<g>
							<path class="st10" d="M16.4,17.9c-0.2,0.4-0.7,0.7-1.1,1c-0.7,0.4-1.2,0.5-1.9,0.7c-0.8,0.2-1.7,0.1-2.5-0.2
								c-0.4-0.1-1-0.2-1.1-0.6c0,0,0,0,0,0c-0.9,0-1.8,0.1-2.6,0.4c0,0,0,0,0,0c0.3,0.2,0.6,0.4,0.8,0.7C7.9,20,7.8,20,8,20
								c0.3,0.1,0.6,0.1,0.9,0.2c0.8,0.2,1.6,0.5,2.4,0.7c0,0,0,0,0.1,0c0.1-0.3,0.5-0.3,0.7-0.4c0.4,0,1-0.1,1.2,0.3c0,0,0,0,0.1,0
								c1.2-0.7,2.8-1.5,4.2-1.4c0,0,0,0,0,0c0.2-0.5,0.6-0.9,0.9-1.2c0,0,0,0,0,0C17.9,18,17.1,17.9,16.4,17.9
								C16.4,17.9,16.4,17.9,16.4,17.9c0.6,0,1.2,0.1,1.8,0.2c0.1,0,0.4,0,0.3,0.2c-0.2,0.2-0.4,0.4-0.6,0.6
								c-0.1,0.1-0.2,0.3-0.3,0.5c0,0.1-0.3,0-0.4,0c-0.4,0-0.8,0.1-1.2,0.2c-0.8,0.2-1.6,0.6-2.3,1c-0.1,0.1-0.2,0.1-0.3,0.2
								c0,0-0.1-0.1-0.1-0.1c-0.1-0.1-0.4-0.1-0.5-0.2c-0.4,0-1.2-0.1-1.4,0.4c0,0,0.1,0-0.1,0c-0.2,0-0.3-0.1-0.5-0.1
								c-0.5-0.1-1-0.3-1.6-0.5c-0.3-0.1-0.5-0.2-0.8-0.2C8.2,20,8,20,7.8,19.8c-0.2-0.3-0.5-0.5-0.7-0.6c0,0,0.2-0.1,0.2-0.1
								C7.5,19,7.7,19,7.8,19c0.3-0.1,0.6-0.1,0.9-0.1c0.2,0,0.5,0,0.7,0c0.2,0,0.2,0.2,0.3,0.2c0.4,0.3,0.8,0.3,1.2,0.5
								c0.7,0.2,1.6,0.2,2.3,0.1c0.7-0.1,1.4-0.2,2-0.6C15.7,18.7,16.2,18.4,16.4,17.9C16.4,17.9,16.4,17.9,16.4,17.9z"/>
						</g>
					</g>
				</g>
				<g>
					<g>
						<path class="st10" d="M13.9,20.4C13.9,20.4,13.9,20.3,13.9,20.4c0.1-0.1,0.1-0.2,0.2-0.2c0.1-0.1,0.1-0.1,0.2-0.2
							c0.1-0.1,0.2-0.1,0.3-0.2c0,0,0.1-0.1,0.1-0.1c0,0,0.1-0.1,0.1-0.1c0,0,0.1-0.1,0.1-0.1c0,0,0.1,0,0.1-0.1
							c0.1,0,0.2-0.1,0.2-0.1c0.1,0,0.1,0,0.1,0s0,0-0.1,0c0,0-0.1,0-0.1,0c0,0-0.1,0-0.1,0.1c0,0-0.1,0-0.1,0.1
							c0,0-0.1,0.1-0.1,0.1c0,0-0.1,0.1-0.1,0.1c0,0-0.1,0.1-0.1,0.1c0,0-0.1,0.1-0.1,0.1c0,0-0.1,0.1-0.1,0.1
							c-0.1,0.1-0.2,0.1-0.2,0.2S14,20.3,13.9,20.4C13.9,20.3,13.9,20.4,13.9,20.4z"/>
					</g>
					<g>
						<path class="st10" d="M9.8,19.7c0,0,0.1,0,0.2,0.1c0.1,0,0.1,0.1,0.2,0.1c0.1,0,0.2,0.1,0.2,0.1c0.1,0,0.2,0.1,0.2,0.1
							c0,0,0.1,0,0.1,0.1c0,0,0.1,0,0.1,0c0.1,0,0.1,0.1,0.2,0.1c0,0,0.1,0,0.1,0s0,0-0.1,0c0,0-0.1,0-0.2,0c-0.1,0-0.1-0.1-0.2-0.1
							c0,0-0.1,0-0.1-0.1c0,0-0.1,0-0.1-0.1c-0.1,0-0.2-0.1-0.2-0.1c-0.1,0-0.1-0.1-0.2-0.1C9.9,19.9,9.9,19.8,9.8,19.7
							C9.8,19.8,9.8,19.7,9.8,19.7z"/>
					</g>
				</g>
			</g>
			<g>
				<g>
					<path class="st2" d="M10.7,20.7c-0.4-0.1-0.9-0.2-1.3-0.4c-0.9-0.3-2.1-0.5-2.1-0.5c-0.8-0.6-1.1-0.4-1.1-0.4S5.3,19.9,5.5,21
						c0.2,1,3.5,1.2,5,1.3C10.9,21.6,10.8,21,10.7,20.7z"/>
					<g>
						<path class="st3" d="M10.7,20.7c-0.8-0.2-1.5-0.5-2.3-0.6C8.1,20,7.8,20,7.5,19.9c-0.3,0-0.5-0.2-0.7-0.3
							c-0.5-0.2-0.9,0-1.2,0.5c-0.2,0.4-0.2,1,0.1,1.3C6,21.6,6.5,21.8,7,21.9c1.2,0.3,2.4,0.4,3.6,0.4c0,0,0,0,0,0
							C10.8,21.8,10.9,21.3,10.7,20.7C10.7,20.7,10.7,20.7,10.7,20.7c0,0.2,0,0.5,0,0.7c0,0.2-0.1,0.4-0.1,0.6
							c-0.1,0.2-0.2,0.3-0.4,0.2c-0.6,0-1.2-0.1-1.8-0.2c-0.6-0.1-1.2-0.2-1.8-0.4c-0.4-0.1-0.9-0.3-1.1-0.7
							c-0.2-0.5,0.1-1.1,0.5-1.4c0.3-0.3,0.8,0,1.1,0.2C7.5,20,7.9,20,8.3,20.1C9.1,20.3,9.9,20.5,10.7,20.7
							C10.7,20.8,10.8,20.7,10.7,20.7z"/>
					</g>
				</g>
				<g>
					<g>
						<path class="st1" d="M6.3,20c0,0,0.1,0,0.2-0.1c0,0,0.1,0,0.1,0c0,0,0.1,0,0.1,0c0,0,0.1,0,0.1,0c0,0,0.1,0,0.1,0
							c0,0,0.1,0,0.1,0c0,0,0.1,0,0.1,0c0,0,0.1,0,0.1,0c0,0,0.1,0,0.1,0c0.1,0,0.1,0,0.1,0c0,0,0.1,0,0.1,0s0,0-0.1,0
							c0,0-0.1,0-0.1,0c0,0-0.1,0-0.1,0c0,0-0.1,0-0.1,0c-0.1,0-0.2,0-0.2,0c0,0-0.1,0-0.1,0c0,0-0.1,0-0.1,0c-0.1,0-0.1,0-0.2,0
							C6.4,20,6.4,20,6.3,20C6.3,20,6.3,20,6.3,20z"/>
					</g>
				</g>
				<g>
					<path class="st4" d="M14,22.2c-0.1-0.4-0.5-1-0.6-1.3c-0.1-0.2-0.1-0.3-0.6-0.4c0.1,0.1,0.3,0.4,0.5,1c0.3,1,0.8,2.4-0.1,3.3
						c0,0,0,0,0,0c0.4,0,0.6-0.1,0.8-0.6C14.4,23.2,14,22.2,14,22.2z"/>
					<g>
						<path class="st5" d="M14.1,22.2c-0.1-0.5-0.4-0.9-0.7-1.3c-0.1-0.2-0.3-0.3-0.6-0.3c0,0,0,0,0,0c0.5,0.5,0.6,1.3,0.8,1.9
							c0.2,0.8,0.2,1.7-0.4,2.3c0,0,0,0,0,0C14.5,24.8,14.4,23,14.1,22.2C14.1,22.1,14,22.1,14.1,22.2c0.2,0.7,0.2,1.7-0.2,2.3
							c-0.1,0.1-0.3,0.2-0.4,0.2c-0.2,0,0.1-0.2,0.1-0.3c0.2-0.4,0.3-0.8,0.2-1.3c0-0.8-0.3-1.7-0.7-2.4c0-0.1-0.1-0.1-0.2-0.2
							c0.2,0.3,0.3,0,0.4,0.3c0,0.1,0.1,0.1,0.1,0.2C13.7,21.4,13.9,21.8,14.1,22.2C14,22.2,14.1,22.2,14.1,22.2z"/>
					</g>
				</g>
				<g>
					<path class="st10" d="M11.5,22.6c0.1,0,0.1,0.1,0.2,0.1c0,0-0.1-0.2-0.2-0.3h-0.3C11.1,22.3,11.4,22.5,11.5,22.6z"/>
					<g>
						<path class="st12" d="M11.5,22.6c0.1,0,0.1,0.1,0.1,0.1c0,0,0.1,0,0.1,0c-0.1-0.1-0.2-0.2-0.2-0.3c0,0,0,0,0,0
							c-0.1,0-0.2,0-0.3,0c0,0,0,0,0,0C11.2,22.4,11.4,22.5,11.5,22.6C11.5,22.6,11.6,22.6,11.5,22.6c-0.1-0.1-0.2-0.2-0.3-0.2
							c0,0,0,0,0,0c0.1,0,0.2,0,0.3,0c0,0,0,0,0,0c0,0.1,0.1,0.2,0.2,0.3c0,0,0,0,0.1,0C11.7,22.6,11.6,22.6,11.5,22.6
							C11.5,22.5,11.5,22.6,11.5,22.6z"/>
					</g>
				</g>
				<g>
					<path class="st4" d="M11.9,21.4c0,0,0.1-0.3,0-0.4c-0.1-0.1-0.5-0.1-0.5-0.1s-0.3-0.1-0.7-0.2c0.1,0.3,0.2,0.8-0.2,1.6
						c0.3,0,0.5,0,0.6,0h0.3c0-0.1-0.1-0.2,0-0.4C11.5,21.5,11.9,21.4,11.9,21.4z"/>
					<g>
						<path class="st5" d="M11.9,21.4c0.1-0.3,0-0.4-0.3-0.5c-0.3-0.1-0.6-0.1-0.9-0.2c0,0,0,0,0,0c0.2,0.5,0,1.1-0.2,1.6
							c0,0,0,0,0,0c0.3,0,0.6,0,1,0c0,0,0,0,0,0C11.4,22,11.5,21.6,11.9,21.4C11.9,21.4,11.9,21.4,11.9,21.4
							c-0.4,0.1-0.5,0.4-0.5,0.7c0,0.1,0.1,0.2,0,0.2c-0.1,0-0.2,0-0.3,0c-0.1,0-0.2,0-0.3,0c-0.3,0-0.2-0.1-0.1-0.3
							c0.1-0.3,0.1-0.5,0.1-0.8c0-0.1,0-0.2,0-0.3c0-0.1,0.2,0,0.2,0c0.1,0,0.3,0.1,0.4,0.1C11.7,21,12,21.1,11.9,21.4
							C11.8,21.4,11.9,21.4,11.9,21.4z"/>
					</g>
				</g>
				<g>
					<path class="st4" d="M12,24.2c0.2,0.4,0.5,0.7,1.2,0.6c0.8-0.7,0.6-1.9,0.3-2.9C12.3,22.1,11.9,23.3,12,24.2z"/>
					<g>
						<path class="st5" d="M12,24.2c0.2,0.3,0.4,0.5,0.7,0.6c0.2,0.1,0.6,0.1,0.7,0c0.7-0.7,0.4-1.9,0.2-2.8c0,0,0,0,0,0
							C12.4,22.1,11.9,23.2,12,24.2C12,24.2,12,24.2,12,24.2c0-0.4,0.1-0.9,0.3-1.3c0.1-0.3,1.1-1.4,1.3-0.7
							c0.2,0.6,0.3,1.2,0.1,1.9c-0.1,0.2-0.3,0.8-0.6,0.8C12.6,24.8,12.2,24.6,12,24.2C12,24.2,12,24.2,12,24.2z"/>
					</g>
				</g>
				<g>
					<path class="st13" d="M12.8,20.5c-0.1,0-0.3,0-0.5,0c-0.9,0-1,0.4-1,0.4s0.3,0.1,0.5,0.1c0.1,0.1,0,0.4,0,0.4s-0.4,0.1-0.5,0.5
						c-0.1,0.4,0.2,0.7,0.2,0.7c0,0,0,0,0,0c0,0,0,0,0,0h0c0.1,0.1,0.1,0.2,0.1,0.4c0,0.2,0,0.7,0.2,1.1c-0.1-0.8,0.3-2.1,1.5-2.3
						c0-0.1-0.1-0.3-0.1-0.4C13.2,20.9,13,20.7,12.8,20.5z"/>
					<g>
						<path class="st14" d="M12.8,20.5c-0.4,0-1.4-0.1-1.5,0.4c0,0,0,0,0,0c0.3,0.1,0.6,0.1,0.5,0.5c0,0-0.3,0.2-0.3,0.3
							c-0.1,0.2-0.1,0.4-0.1,0.6c0,0.1,0.1,0.4,0.2,0.4c0,0,0,0,0,0c0.2,0.2,0.1,0.5,0.1,0.8c0,0.3,0.1,0.5,0.2,0.7c0,0,0.1,0,0.1,0
							c-0.1-1,0.4-2.1,1.5-2.3c0,0,0,0,0,0C13.4,21.4,13.2,20.9,12.8,20.5C12.9,20.5,12.8,20.5,12.8,20.5c0.2,0.2,0.8,1.3,0.4,1.4
							c-0.4,0.1-0.8,0.4-1,0.8c-0.2,0.4-0.4,0.9-0.3,1.4c0-0.3-0.1-0.6-0.1-0.9c0-0.1,0-0.5-0.1-0.5c0,0,0,0,0,0
							c-0.3-0.3-0.4-0.8,0-1.1c0,0,0.2-0.1,0.2-0.1c0-0.1,0.1-0.3,0-0.3C11.8,21,11.7,21,11.6,21c-0.1,0-0.1,0-0.2,0c-0.1,0,0,0,0,0
							C11.6,20.4,12.5,20.5,12.8,20.5C12.9,20.6,12.9,20.5,12.8,20.5z"/>
					</g>
				</g>
				<g class="st6">
					<path class="st7" d="M13.5,21.9c-1.2,0.2-1.6,1.4-1.5,2.3c0.2,0.4,0.5,0.7,1.2,0.6C14,24,13.8,22.9,13.5,21.9z M12.2,23.7
						c-0.2-1,1.3-2.3,1.4-0.8C13.8,24.4,12.4,24.7,12.2,23.7z"/>
				</g>
				<g>
					<path class="st13" d="M13.5,21.9c0-0.1-0.1-0.3-0.1-0.4c-0.2-0.6-0.4-0.9-0.5-1c-0.1,0-0.3,0-0.5,0c-0.9,0-1,0.4-1,0.4
						s0.3,0.1,0.5,0.1c0.1,0.1,0,0.4,0,0.4s-0.4,0.1-0.5,0.5c-0.1,0.4,0.2,0.7,0.2,0.7c0,0,0,0,0,0c0,0,0,0,0,0h0
						c0.1,0.1,0.1,0.2,0.1,0.4c0,0.2,0,0.7,0.2,1.1C11.9,23.3,12.3,22.1,13.5,21.9z M11.6,22.2c-0.1-0.3,0.1-0.5,0.4-0.6
						c0.2-0.1,0.3-0.3,0.2-0.5c-0.1-0.2-0.2-0.4,0.3-0.4c0.5,0,0.7,0.4,0.8,0.9c0.1,0.4-0.5,0.6-0.9,0.9
						C11.9,22.6,11.6,22.5,11.6,22.2z"/>
				</g>
				<g class="st6">
					<path class="st7" d="M14.1,22.3c0,0.3-0.2,0.3-0.4,0.1c0.2,0.8,0.2,1.7-0.4,2.4c0,0,0,0,0,0c0.4,0,0.6-0.1,0.8-0.6
						C14.3,23.4,14.2,22.6,14.1,22.3z"/>
				</g>
				<g class="st6">
					<path class="st7" d="M11.9,21c-0.1-0.1-0.5-0.1-0.5-0.1s-0.3-0.1-0.7-0.2c0.1,0.3,0.2,0.8-0.2,1.6c0.3,0,0.5,0,0.6,0h0.3
						c0-0.1-0.1-0.2,0-0.4c0.1-0.4,0.5-0.5,0.5-0.5S12,21.1,11.9,21z M11.5,21.3C11.3,21.6,11.5,22,11,22c-0.5,0-0.1-0.1-0.1-0.6
						c0-0.5-0.1-0.6,0.1-0.5C11.4,21,11.8,21.1,11.5,21.3z"/>
				</g>
			</g>
			<g>
				<path class="st2" d="M10.7,20.7c-0.4-0.1-0.9-0.2-1.3-0.4c-0.9-0.3-2.1-0.5-2.1-0.5c-0.8-0.6-1.1-0.4-1.1-0.4S6,19.6,5.9,19.8
					c0.2-0.1,0.3,0,0.3,0.3c-0.1,0.7-0.1,1.2,0.5,1.3c0.6,0.1,0.8-0.2,0.8-0.1c0.4,0.2,0.7,0,0.7-0.2c0.3,0,0.4-0.3,0.4-0.5
					c0-0.2,0.2-0.1,1.2,0.1c0.9,0.2,1,1,0.3,1.1c-0.6,0.1-2.5,0.2-4-0.3c-0.5-0.2-0.6-0.5-0.7-0.8c0,0.1,0,0.2,0,0.4
					c0.2,1,3.5,1.2,5,1.3C10.9,21.6,10.8,21,10.7,20.7z"/>
			</g>
		</g>
		<g>
			<path class="st2" d="M15.7,21.2c-1,0.3-1.7,0.2-1.8-0.2c-0.1-0.5,1.3-0.9,1.8-1.1c0.6-0.2,0.9-0.3,0.9,0c0,0.3-0.2,0.5,0.1,0.5
				c0.4,0,0.4-0.4,0.4-0.6c0-0.3,0.3-0.1,0.4,0.5c0.1,0.6,0.4,0.7,0.7,0.6c0.3-0.1,0.9-0.8,0.9-1.3c0.1-0.5-0.3-0.7,0-0.8
				c0.1,0,0.3,0,0.4,0.1c-0.1-0.1-0.2-0.2-0.4-0.3l-0.2-0.1c0,0-0.5,0.2-0.9,0.6c0,0-0.3,0-0.6,0.2c-1.5-0.1-3.7,1.1-4.3,1.4
				c0,0,0,0,0,0.1c0.2,0.3,0.5,0.9,0.6,1.3c0,0,2.2-0.5,3.9-1c0.1,0,0.2-0.1,0.3-0.1c-0.3-0.1-0.6-0.2-0.6-0.2S16.8,21,15.7,21.2z"
				/>
		</g>
		<path class="st15" d="M16.4,19.8c-0.1,0-0.2,0-0.3,0.1c-0.1,0-0.2,0-0.3,0.1c-0.2,0.1-0.4,0.1-0.6,0.2c-0.4,0.1-0.7,0.3-1,0.5
			c0,0,0,0,0,0c0.3-0.2,0.7-0.4,1-0.5c0.2-0.1,0.3-0.1,0.5-0.2c0.1,0,0.2,0,0.3-0.1C16.2,19.8,16.3,19.8,16.4,19.8
			C16.4,19.8,16.4,19.8,16.4,19.8z"/>
		<path class="st15" d="M10.4,20.8c-0.2-0.1-0.5-0.2-0.7-0.3c-0.3-0.1-0.5-0.1-0.8-0.1c0,0,0,0,0,0c0.3,0,0.5,0.1,0.8,0.2
			C9.8,20.7,10.1,20.8,10.4,20.8C10.4,20.9,10.4,20.8,10.4,20.8z"/>
		<path class="st15" d="M5.9,19.8c-0.1,0.1-0.2,0.2-0.2,0.3c0,0.1,0,0.1-0.1,0.2c0,0.1,0,0.1,0,0.2c0,0,0,0,0,0c0-0.1,0-0.1,0-0.2
			c0-0.1,0-0.1,0.1-0.2C5.7,20,5.8,19.9,5.9,19.8C5.9,19.8,5.9,19.8,5.9,19.8z"/>
		<path class="st15" d="M19.5,18.9C19.5,18.9,19.5,18.9,19.5,18.9c0,0.2,0.1,0.3,0.1,0.4c0,0.1,0,0.3,0,0.4c0,0,0,0,0.1,0
			C19.8,19.4,19.7,19.1,19.5,18.9z"/>
	</g>
	<g>
		<g>
			<g>
				<g>
					<path class="st2" d="M10.7,11.8c0,0-0.8-0.3-1.4,1.3S7.7,17.6,7,18.2c-0.5,0.4-1.5,0.3-1.3,0.7C5.8,19.3,6.5,19,6.5,19
						s-0.3,0.4-0.3,1.3c0,0.8,0.6,0.7,0.6,0.5c0.2,0.3,0.7,0.1,0.7-0.1C7.7,21,8.1,20.9,8,20.6c0.3,0.2,0.5-0.2,0.2-0.4
						c-0.3-0.2-0.3-0.6,0-0.9c0.4-0.3,0.2-0.8,0.2-1c0.4-0.8,1-2.5,1-2.5L10.7,11.8z"/>
					<path class="st3" d="M7.1,21c-0.1,0-0.2,0-0.3-0.1c0,0,0,0,0,0.1c-0.1,0-0.2,0-0.3,0c-0.1-0.1-0.3-0.2-0.3-0.7
						c0-0.6,0.1-1,0.2-1.2c-0.1,0-0.4,0.1-0.6,0c-0.1,0-0.1-0.1-0.2-0.2c0-0.1,0-0.1,0-0.2c0.1-0.1,0.3-0.2,0.6-0.3
						c0.3-0.1,0.5-0.2,0.7-0.3c0.5-0.4,1.2-2.2,1.7-3.7c0.2-0.5,0.4-1,0.5-1.4c0.3-0.7,0.6-1.1,1-1.3c0.3-0.1,0.5,0,0.5,0
						c0,0,0,0,0,0l-1.3,3.9c0,0-0.6,1.7-1,2.5c0.1,0.4,0.1,0.8-0.2,1c-0.2,0.1-0.2,0.3-0.2,0.5c0,0.1,0.1,0.3,0.2,0.4
						c0.2,0.1,0.2,0.3,0.1,0.4c-0.1,0.1-0.2,0.1-0.3,0.1c0,0.1,0,0.2-0.1,0.2c-0.1,0.1-0.3,0-0.5-0.1c0,0.1-0.1,0.2-0.3,0.2
						C7.2,21,7.2,21,7.1,21z M6.8,20.8C6.8,20.8,6.8,20.8,6.8,20.8c0.2,0.2,0.4,0.1,0.4,0.1c0.1,0,0.2-0.1,0.2-0.2c0,0,0,0,0,0
						c0,0,0,0,0,0c0.1,0.1,0.3,0.2,0.4,0.1C8,20.8,8,20.7,8,20.6c0,0,0,0,0,0s0,0,0,0c0.1,0.1,0.2,0,0.3,0c0.1-0.1,0.1-0.2-0.1-0.4
						C8.1,20.1,8,19.9,8,19.7c0-0.2,0.1-0.4,0.3-0.5c0.3-0.3,0.2-0.7,0.1-0.9c0,0,0,0,0,0c0.4-0.8,1-2.5,1-2.5l1.3-3.9
						c-0.1,0-0.8-0.1-1.4,1.3c-0.2,0.4-0.3,0.9-0.5,1.4C8.2,16,7.6,17.8,7,18.2c-0.2,0.2-0.5,0.3-0.8,0.3c-0.3,0.1-0.5,0.1-0.5,0.2
						c0,0,0,0.1,0,0.1c0,0.1,0.1,0.1,0.1,0.1C6.1,19.2,6.5,19,6.5,19c0,0,0,0,0,0c0,0,0,0,0,0c0,0-0.3,0.4-0.3,1.2
						c0,0.4,0.2,0.6,0.3,0.6C6.6,20.9,6.7,20.9,6.8,20.8C6.7,20.8,6.8,20.8,6.8,20.8C6.8,20.8,6.8,20.8,6.8,20.8
						C6.8,20.8,6.8,20.8,6.8,20.8z"/>
				</g>
				<path class="st16" d="M8.1,20.6C8,20.5,8,20.5,8.1,20.6c-0.1-0.1-0.1-0.2-0.2-0.2c-0.1-0.1-0.1-0.2-0.1-0.2
					c-0.1-0.2-0.1-0.4,0-0.5c0,0,0,0,0,0c0,0.2,0,0.4,0,0.5c0,0.1,0.1,0.2,0.1,0.3c0,0,0.1,0.1,0.1,0.1C8,20.5,8,20.6,8.1,20.6
					C8.1,20.6,8.1,20.6,8.1,20.6z"/>
				<path class="st16" d="M7.4,20.3c-0.1-0.2-0.3-0.4-0.2-0.7c0,0,0,0,0,0c-0.2,0.4,0.5,0.8,0.2,1.2c0,0,0,0,0,0
					c0.1-0.1,0.1-0.1,0.1-0.2C7.5,20.5,7.5,20.4,7.4,20.3z"/>
				<path class="st16" d="M6.8,20.4c-0.1-0.2-0.3-0.5-0.1-0.8c0,0,0,0,0,0c-0.1,0.2-0.1,0.4,0,0.6c0.1,0.2,0.2,0.5,0,0.7
					c0,0,0,0.1,0,0C6.9,20.8,6.9,20.5,6.8,20.4z"/>
				<g>
					<path class="st17" d="M7.5,20.7C7.5,20.7,7.5,20.7,7.5,20.7L7.5,20.7C7.5,20.7,7.5,20.7,7.5,20.7z"/>
				</g>
				<path class="st2" d="M6.4,20.6c0,0,0-0.1-0.1-0.1c0-0.1-0.1-0.2-0.1-0.3c0-0.1,0-0.2,0-0.3c0-0.1,0-0.2,0.1-0.3c0,0,0,0,0,0
					c-0.1,0.2-0.1,0.4-0.1,0.6c0,0.1,0,0.2,0,0.3C6.3,20.5,6.4,20.6,6.4,20.6c-0.1,0.1,0,0.2,0,0.2c0,0,0,0,0-0.1
					C6.5,20.7,6.5,20.6,6.4,20.6z"/>
			</g>
			<g class="st18">
				<path class="st17" d="M9.4,15.7l1.3-3.9c0,0-0.8-0.3-1.4,1.3S7.7,17.6,7,18.2c-0.5,0.4-1.5,0.3-1.3,0.7l0,0
					c0-0.1,0.1-0.2,0.3-0.2c0.4,0,0.9-0.2,1.1-0.4c0.3-0.3,0.5-0.2,0.6-0.1c0.1,0.1,0.5-0.1,0.7,0.2c0,0,0.1,0.1,0.1,0.2
					c0-0.2-0.1-0.3-0.1-0.3C8.8,17.4,9.4,15.7,9.4,15.7z"/>
			</g>
			<g class="st19">
				<path class="st2" d="M8.3,20.1c-0.3-0.2-0.3-0.6,0-0.9c0.1-0.1,0.1-0.2,0.2-0.3c0,0,0,0-0.1,0.1c-0.2,0.3-0.5,0.4-0.8,0.4
					c-0.3,0.1-0.9,0.1-0.8-0.2c0-0.3,0.7-0.1,0.7-0.3c-0.4,0.1-0.7-0.2-0.7-0.2s-0.1,0-0.2,0.2c0,0-0.3,0.4-0.3,1.3
					c0,0.2,0,0.3,0.1,0.4c0-0.3-0.1-0.8,0.1-1c0.1-0.2,0.2,0,0.2,0.2c0,0.3,0.1,0.3,0.1,0.5c0.1,0.2,0,0.4-0.1,0.5
					c0.1,0,0.2,0,0.2-0.1c0,0,0.1,0.1,0.1,0.1c0-0.1,0.1-0.2,0-0.5c-0.1-0.4-0.3-0.7,0-0.8c0.2,0,0.1,0.3,0.3,0.6
					c0.1,0.2,0.2,0.5,0.2,0.7c0.1,0,0.1-0.1,0.1-0.1c0,0,0.1,0.1,0.1,0.1c0-0.1,0-0.3-0.1-0.5c-0.2-0.4-0.2-0.7,0-0.7
					c0.2,0,0.1,0.3,0.2,0.5c0,0.2,0.2,0.4,0.4,0.7c0,0,0-0.1,0-0.2c0,0,0.1,0,0.1,0c-0.1-0.1-0.3-0.4-0.3-0.7c0-0.3,0-0.4,0.1-0.3
					c0.1,0,0,0.4,0.3,0.6c0.1,0.1,0.2,0.1,0.2,0.2C8.4,20.3,8.4,20.2,8.3,20.1z"/>
			</g>
			<path class="st2" d="M8.2,19.2c0,0-0.1,0.1-0.1,0.1c0,0-0.1,0.1-0.2,0.1c-0.1,0-0.2,0.1-0.3,0.1c-0.2,0-0.5,0-0.7,0c0,0,0,0,0,0
				c0.2,0.1,0.4,0.1,0.7,0.1c0.1,0,0.2,0,0.3-0.1C8,19.4,8.2,19.3,8.2,19.2C8.2,19.2,8.3,19.2,8.2,19.2z"/>
			<path class="st2" d="M6.5,18.9c-0.1,0-0.1,0-0.2,0c-0.1,0-0.1,0-0.2,0c-0.1,0-0.3,0-0.4-0.1c0,0,0,0,0,0c0,0.1,0.2,0.2,0.3,0.2
				C6.2,19.1,6.4,19,6.5,18.9C6.5,19,6.6,18.9,6.5,18.9z"/>
			<path class="st20" d="M7,20.3c0-0.2-0.1-0.4-0.2-0.5c0,0,0,0,0,0C6.8,20,6.9,20.1,7,20.3c-0.1,0.1,0,0.2,0,0.3c0,0,0,0.1,0,0.1
				c0,0,0,0.1,0,0.1c0,0,0,0,0,0C7,20.7,7,20.7,7,20.6C7,20.5,7,20.4,7,20.3z"/>
			<path class="st2" d="M7.7,20.6C7.6,20.5,7.6,20.5,7.7,20.6c-0.1-0.2-0.1-0.2-0.2-0.3c-0.1-0.1-0.1-0.3-0.2-0.4c0,0,0,0,0,0
				c0,0.2,0.1,0.3,0.1,0.4c0,0.1,0.1,0.1,0.1,0.2C7.6,20.6,7.6,20.6,7.7,20.6c0,0.1,0,0.1,0,0.1c0,0,0,0,0,0
				C7.7,20.6,7.7,20.6,7.7,20.6z"/>
			<path class="st2" d="M8.1,20.5C8.1,20.4,8.1,20.4,8.1,20.5C8.1,20.4,8,20.4,8,20.3c0-0.1-0.1-0.1-0.1-0.2
				c-0.1-0.1-0.1-0.2-0.1-0.4c0,0,0,0,0,0c0,0.1,0,0.3,0.1,0.4c0,0.1,0.1,0.1,0.1,0.2c0,0,0,0,0.1,0.1C8,20.5,8.1,20.5,8.1,20.5
				C8.1,20.5,8.2,20.5,8.1,20.5z"/>
			<g class="st19">
				<path class="st2" d="M10.7,11.8c0,0-0.8-0.3-1.4,1.3c0,0,0,0.1,0,0.1c0.1-0.2,0.2-0.4,0.4-0.3c0.3,0.1,0.2,0.6,0,1.1
					s-0.5,1.7-0.6,2.4c0,0.1,0,0.4,0,0.5c0.2-0.5,0.4-1,0.4-1L10.7,11.8z"/>
			</g>
			<path class="st21" d="M7.7,17c0,0,0,1,1,0.7c-0.2,0.3-0.2,0.4-0.2,0.5c-0.1-0.2-0.5-0.3-0.8-0.3c-0.2,0-0.4,0-0.5,0.1
				C7.2,18,7.7,17.2,7.7,17z"/>
		</g>
		<path class="st16" d="M7.7,19c-0.3,0.1-0.7,0-1-0.2c0,0,0,0,0,0C6.9,19,7.3,19.1,7.7,19C7.7,19,7.7,19,7.7,19z"/>
		<g>
			<g>
				<g>
					<path class="st2" d="M12.2,12.9c1-0.1,1.2-0.9,1.2-1.6c-0.8,0-1.7,0.2-2.3,0.3C11.1,12.1,11.2,13,12.2,12.9z"/>
					<path class="st3" d="M12,12.9c-0.3,0-0.5-0.1-0.6-0.2c-0.3-0.3-0.4-0.8-0.4-1.1c0,0,0,0,0,0c0.7-0.1,1.6-0.2,2.3-0.3
						c0,0,0,0,0,0c0,0,0,0,0,0c-0.1,0.7-0.3,1.5-1.3,1.6l0,0C12.1,12.9,12.1,12.9,12,12.9z M12.2,12.9L12.2,12.9L12.2,12.9z
						 M11.1,11.6c0,0.3,0.1,0.8,0.4,1.1c0.2,0.2,0.4,0.2,0.7,0.2l0,0c0.9-0.1,1.1-0.9,1.2-1.5C12.7,11.3,11.8,11.5,11.1,11.6z"/>
				</g>
				<path class="st17" d="M11.7,12.1c0.6,0,1.1-0.2,1.6-0.4c0-0.2,0.1-0.3,0.1-0.5c-0.8,0-1.7,0.2-2.3,0.3c0,0.2,0,0.3,0.1,0.5
					C11.3,12.1,11.5,12.1,11.7,12.1z"/>
				<g>
					<path class="st22" d="M14.6,13.2c-0.5-0.7-0.3-1.1-0.2-1.9c-0.2-0.1-0.5-0.1-1-0.1c-0.1,0.6-0.2,1.5-1.2,1.6
						c-1,0.1-1.1-0.8-1.1-1.3c-0.4,0.1-0.6,0.1-0.6,0.1s0,0.5-0.1,1.2c-0.1,0.7-1.4,2.3-1.1,5.8c1,1.5,5.5,1.8,8-0.5
						C16.5,14.8,15.2,14.1,14.6,13.2z"/>
					<path class="st23" d="M12.6,19.9c-0.3,0-0.5,0-0.8,0c-1.2-0.1-2.2-0.5-2.6-1.1c0,0,0,0,0,0C9,16,9.7,14.4,10.1,13.5
						c0.1-0.3,0.2-0.5,0.2-0.7c0.1-0.7,0.1-1.2,0.1-1.2c0,0,0,0,0,0c0,0,0.2,0,0.6-0.1c0,0,0,0,0,0c0,0,0,0,0,0
						c0,0.4,0.1,0.8,0.4,1.1c0.2,0.2,0.4,0.2,0.7,0.2c1-0.1,1.1-0.9,1.2-1.6c0,0,0,0,0,0c0.5,0,0.8,0,1,0.1c0,0,0,0,0,0
						c0,0.1,0,0.3,0,0.4c-0.1,0.6-0.1,0.9,0.3,1.5c0.1,0.2,0.3,0.3,0.4,0.5c0.7,0.7,1.6,1.8,2.2,4.4c0,0,0,0,0,0
						C16,19.4,14.1,19.9,12.6,19.9z M9.3,18.7c0.4,0.6,1.3,1,2.5,1.1c1.6,0.2,3.9-0.2,5.4-1.6c-0.6-2.6-1.5-3.6-2.2-4.3
						c-0.2-0.2-0.3-0.4-0.5-0.5c0,0,0,0,0,0c-0.4-0.6-0.4-1-0.3-1.5c0-0.1,0-0.2,0-0.4c-0.2-0.1-0.5-0.1-0.9,0
						c-0.1,0.7-0.3,1.5-1.3,1.6c-0.3,0-0.6,0-0.8-0.2c-0.3-0.3-0.4-0.7-0.4-1.1c-0.3,0-0.5,0.1-0.5,0.1c0,0.1,0,0.6-0.1,1.2
						c0,0.2-0.1,0.4-0.2,0.7C9.7,14.5,9.1,16,9.3,18.7z"/>
				</g>
			</g>
			<g class="st24">
				<path class="st25" d="M14.6,13.2c-0.5-0.7-0.3-1.1-0.2-1.9c-0.2-0.1-0.5-0.1-1-0.1c-0.1,0.6-0.2,1.5-1.2,1.6
					c-1,0.1-1.1-0.8-1.1-1.3c-0.4,0.1-0.6,0.1-0.6,0.1s0,0.1,0,0.4c0.1,0,0.2,0,0.4,0c0,0-0.3,1.4,1,1.4c1.3,0,1.5-0.2,2.2,1.2
					c0.6,1.4,1,3.3-0.6,3.8c0.8,0.1,1.5-0.8,1.8-0.3c0.2,0.5,0.1,1.6-2.8,1.4c-2.9-0.2-2.8-0.8-2.9-1.2c0-0.4,0.2-0.4,0.8-0.2
					c-0.7-0.8-0.8-1.7-0.6-2.6c0.2-0.9,0.6-1.8,0.6-2.5c0,0,0,0,0,0c-0.2,0.7-1.4,2.4-1.1,5.7c1,1.5,5.5,1.8,8-0.5
					C16.5,14.8,15.2,14.1,14.6,13.2z"/>
			</g>
			<g class="st24">
				<path class="st26" d="M14.6,13.2c-0.5-0.7-0.3-1.1-0.2-1.9c-0.2-0.1-0.5-0.1-1-0.1c-0.1,0.6-0.2,1.5-1.2,1.6
					c-1,0.1-1.1-0.8-1.1-1.3c-0.1,0-0.2,0-0.2,0c0,0.5,0.3,1.4,1,1.5c1.1,0.2,1.7-0.6,1.8-1.2l0.2,0c0,0-0.3,0.9,0.2,1.3
					c0.4,0.4,1.2,1.1,1.5,2.5c0.4,1.4,0,1.6-0.1,1.8c-0.1,0.2,0.3,0.1,0.7-0.2c0.4-0.3,0.4,0.3,0.5,0.7c0.1,0.3-0.2,0.7-0.8,1.1
					c0.5-0.2,1-0.6,1.4-1C16.5,14.8,15.2,14.1,14.6,13.2z"/>
			</g>
		</g>
		<g>
			<g>
				<g>
					<path class="st2" d="M16.3,8.6c1.5,0.7,1.9-1.9,1.1-2.2c-0.6-0.2-1,0.2-1.1,0.9c-0.5-0.6,0-1.7-0.5-2.3c0,0.6-0.3,0.8-0.3,0.8
						s0.1-0.7-0.3-1.5c0.1,0.8-0.3,1-0.3,1s0.3-1-1-1.7s-1-1.3-1-1.3c-0.6,0.6-0.2,1.1-0.2,1.1S12,2.9,12.2,2.1
						c-0.5,1-1.4,0.8-1.4,0.8s0.6-0.5,0.3-0.9c-0.9,1.1-1.8,0.7-1.8,0.7s0.5-0.2,0.4-0.6c-1.2,1-2.5,1.3-2.5,1.3S6.5,4.2,6.5,5.4
						c0.1,1.1,0,1.4-0.2,2.1C6.1,8.3,6,11.1,9.8,11.7c3.8,0.6,5.4-1.5,5.4-1.5C15.8,9.7,16.2,9.3,16.3,8.6z"/>
					<path class="st3" d="M11.1,11.9c-0.4,0-0.8,0-1.3-0.1c-1.5-0.2-2.5-0.8-3.1-1.7C6.1,9,6.2,7.9,6.3,7.5c0-0.1,0-0.1,0.1-0.2
						c0.2-0.6,0.3-0.9,0.2-1.9C6.4,4.2,7.1,3.4,7.1,3.4c0,0,0,0,0,0c0,0,1.4-0.3,2.5-1.3c0,0,0,0,0,0c0,0,0,0,0,0
						c0.1,0.4-0.2,0.6-0.4,0.7c0.1,0,0.3,0.1,0.5,0.1c0.4,0,0.8-0.3,1.2-0.8c0,0,0,0,0,0c0,0,0,0,0,0c0.3,0.4-0.1,0.7-0.2,0.9
						c0.2,0,0.9,0,1.3-0.8c0,0,0,0,0,0c0,0,0,0,0,0c-0.1,0.5,0.2,0.9,0.4,1.1c-0.1-0.2-0.1-0.6,0.2-1c0,0,0,0,0,0c0,0,0,0,0,0
						c0,0-0.2,0.6,1,1.3c0.7,0.4,0.9,0.8,1,1.1C15,4.9,15,5.1,15,5.2c0.1-0.1,0.3-0.3,0.2-0.9c0,0,0,0,0,0c0,0,0,0,0,0
						c0.3,0.6,0.3,1.2,0.3,1.4c0.1-0.1,0.2-0.3,0.3-0.8c0,0,0,0,0,0c0,0,0,0,0,0c0.3,0.3,0.3,0.8,0.3,1.2c0,0.4,0,0.8,0.2,1.1
						c0.1-0.4,0.3-0.6,0.5-0.8c0.2-0.1,0.4-0.1,0.7-0.1c0.2,0.1,0.3,0.3,0.4,0.6c0.1,0.5-0.1,1.2-0.5,1.6c-0.3,0.2-0.6,0.2-1,0.1
						c-0.2,0.8-0.6,1.2-1.1,1.6C15.2,10.3,13.9,11.9,11.1,11.9z M7.2,3.5C7.1,3.6,6.5,4.3,6.6,5.4c0.1,1,0,1.3-0.2,2
						c0,0.1,0,0.1-0.1,0.2C6.2,7.9,6.2,9,6.8,10c0.6,0.9,1.6,1.5,3.1,1.7c1.9,0.3,3.3-0.1,4.1-0.5c0.9-0.4,1.3-1,1.3-1
						c0.5-0.5,1-0.9,1.1-1.6c0,0,0,0,0,0c0,0,0,0,0,0c0.4,0.2,0.7,0.1,0.9-0.1c0.4-0.3,0.6-1,0.5-1.5c0-0.3-0.2-0.5-0.4-0.5
						c-0.2-0.1-0.4-0.1-0.6,0c-0.2,0.1-0.4,0.4-0.5,0.8c0,0,0,0,0,0c0,0,0,0,0,0C16,7,16,6.6,16,6.1c0-0.4,0-0.8-0.2-1.1
						c-0.1,0.6-0.3,0.8-0.3,0.8c0,0,0,0,0,0c0,0,0,0,0,0c0,0,0.1-0.6-0.2-1.3c0,0.7-0.3,0.8-0.3,0.8c0,0,0,0,0,0c0,0,0,0,0,0
						c0,0,0.1-0.2,0-0.6c-0.1-0.3-0.3-0.7-1-1.1c-1-0.5-1.1-1-1.1-1.2c-0.4,0.5-0.1,1-0.1,1c0,0,0,0,0,0c0,0,0,0,0,0
						c0,0-0.6-0.5-0.6-1.2c-0.3,0.4-0.6,0.6-0.9,0.7C11,3,10.7,3,10.7,3c0,0,0,0,0,0c0,0,0,0,0,0c0,0,0.5-0.4,0.3-0.8
						c-0.4,0.6-0.9,0.7-1.2,0.7c-0.3,0-0.6-0.1-0.6-0.1c0,0,0,0,0,0c0,0,0,0,0,0c0,0,0.5-0.1,0.4-0.6C8.5,3.1,7.3,3.5,7.2,3.5z"/>
				</g>
				<g>
					<path class="st17" d="M17.4,6.4c-0.6-0.2-1,0.2-1.1,0.9c-0.5-0.6,0-1.7-0.5-2.3c0,0.6-0.3,0.8-0.3,0.8s0.1-0.7-0.3-1.5
						c0.1,0.8-0.3,1-0.3,1s0.3-1-1-1.7s-1-1.3-1-1.3c-0.6,0.6-0.2,1.1-0.2,1.1S12,2.9,12.2,2.1c-0.5,1-1.4,0.8-1.4,0.8
						s0.6-0.5,0.3-0.9c-0.9,1.1-1.8,0.7-1.8,0.7s0.5-0.2,0.4-0.6c-1.2,1-2.5,1.3-2.5,1.3S7,3.6,6.9,3.9c0.2,0,0.5,0,0.7-0.2
						c0,0-0.1,0.3-0.3,0.4c1.2,0.1,1.5-0.5,1.7-0.6c0,0,0,0.1,0,0.3c0.7,0,1.6-0.4,1.7-0.7c-0.1,0.4-0.1,0.4-0.1,0.4s0.9,0,1.6-0.6
						c0,0,0.2,0.9,1.1,1.4C12.8,3.8,13,3.5,13,3.5s2,0.9,1.6,2.9C15,6,15,5.7,15,5.7s0.3,0.1,0.2,1.3c0.2-0.1,0.3-0.6,0.3-0.6
						s0.7,6.1-6,5.3c0,0-0.1,0-0.1,0c0.1,0,0.2,0,0.4,0.1c3.8,0.6,5.4-1.5,5.4-1.5c0.5-0.5,1-0.9,1.1-1.7
						C17.8,9.3,18.3,6.7,17.4,6.4z"/>
				</g>
				<g>
					<path class="st27" d="M7.9,3.2c0,0,0.1,0.2-0.1,0.5c0,0,0.8,0.1,1.4-0.9c0,0,0.1,0.2-0.1,0.5c0.7,0,1.7-0.5,1.9-1.2
						C11.3,2.5,10.7,3,10.7,3s0.9,0.2,1.4-0.8c-0.2,0.8,0.5,1.3,0.5,1.3s-0.4-0.5,0.2-1.1c0,0-0.3,0.6,1,1.3s1,1.7,1,1.7
						s0.4-0.2,0.3-1c0.3,0.8,0.3,1.5,0.3,1.5s0.3-0.2,0.3-0.8c0.5,0.6,0,1.7,0.5,2.3c0.2-0.7,0.6-1.1,1.1-0.9
						c0.8,0.3,0.4,2.8-1.1,2.2c-0.2,0.8-0.6,1.2-1.1,1.7c0,0,2.9-0.4,3-3.7C18.6,7.2,19,6.8,19,6.8s-0.7-0.4-0.6-1.2
						c0.1-0.8-0.6-3.8-2.4-4.2c0,0,0.6-0.3,0.9,0c-0.4-0.9-1.1-0.3-1.1-0.3s0-0.7-0.7-0.9C15.5,0.5,15.3,1,15.3,1
						c-1.9-1.6-5.6-0.5-6.6,0.1C7.9,1.7,7.4,1.9,7.1,1.3c-0.2,0.9,0.5,1,0.5,1S6.7,2.3,6.5,3.2c0.4-0.3,1-0.4,1-0.4S7.3,3.5,6.2,3.5
						C6.7,4.1,7.8,3.6,7.9,3.2z"/>
					<path class="st28" d="M15.2,10.3C15.2,10.3,15.2,10.3,15.2,10.3C15.2,10.2,15.2,10.2,15.2,10.3c0.5-0.5,0.9-0.9,1.1-1.7
						c0,0,0,0,0,0c0,0,0,0,0,0c0.4,0.2,0.7,0.1,0.9-0.1c0.4-0.3,0.6-1,0.5-1.5c0-0.3-0.2-0.5-0.4-0.5c-0.2-0.1-0.4-0.1-0.6,0
						c-0.2,0.1-0.4,0.4-0.5,0.8c0,0,0,0,0,0c0,0,0,0,0,0C16,7,16,6.6,16,6.1c0-0.4,0-0.8-0.2-1.1c-0.1,0.6-0.3,0.8-0.3,0.8
						c0,0,0,0,0,0c0,0,0,0,0,0c0,0,0.1-0.6-0.2-1.3c0,0.7-0.3,0.8-0.3,0.8c0,0,0,0,0,0c0,0,0,0,0,0c0,0,0.1-0.2,0-0.6
						c-0.1-0.3-0.3-0.7-1-1.1c-1-0.5-1.1-1-1.1-1.2c-0.4,0.5-0.1,1-0.1,1c0,0,0,0,0,0c0,0,0,0,0,0c0,0-0.6-0.5-0.6-1.2
						C11.6,3.1,10.7,3,10.7,3c0,0,0,0,0,0c0,0,0,0,0,0c0,0,0.5-0.4,0.3-0.8c-0.3,0.7-1.2,1.2-1.9,1.2c0,0,0,0,0,0c0,0,0,0,0,0
						c0.1-0.2,0.1-0.3,0.1-0.4C8.6,3.8,7.8,3.7,7.8,3.7c0,0,0,0,0,0c0,0,0,0,0,0C8,3.5,8,3.3,7.9,3.3C7.8,3.5,7.5,3.7,7.1,3.8
						c-0.4,0.1-0.7,0-0.9-0.3c0,0,0,0,0,0c0,0,0,0,0,0C7.1,3.5,7.4,3,7.4,2.8c-0.2,0-0.6,0.1-1,0.4c0,0,0,0,0,0c0,0,0,0,0,0
						c0.2-0.7,0.8-0.9,1.1-0.9C7.4,2.2,7.3,2.1,7.2,2C7.1,1.8,7,1.6,7.1,1.3c0,0,0,0,0,0c0,0,0,0,0,0c0.1,0.2,0.2,0.3,0.3,0.4
						c0.3,0.1,0.7-0.1,1.2-0.5c0.9-0.6,4.6-1.8,6.6-0.2c0-0.1,0.1-0.5-0.2-0.7c0,0,0,0,0,0c0,0,0,0,0,0c0.6,0.2,0.7,0.7,0.7,0.9
						c0.1-0.1,0.3-0.2,0.5-0.1c0.2,0,0.4,0.2,0.6,0.5c0,0,0,0,0,0c0,0,0,0,0,0c-0.3-0.2-0.7-0.1-0.8,0c1.8,0.5,2.4,3.4,2.3,4.2
						C18.3,6.4,19,6.8,19,6.8c0,0,0,0,0,0s0,0,0,0c0,0-0.1,0.1-0.3,0.1c-0.1,0-0.3-0.1-0.4-0.3c0,1.6-0.8,2.5-1.5,3
						C16,10.2,15.2,10.3,15.2,10.3C15.2,10.3,15.2,10.3,15.2,10.3z M16.4,8.6c-0.2,0.7-0.6,1.1-1,1.6c0.5-0.1,2.8-0.8,2.8-3.6
						c0,0,0,0,0,0c0,0,0,0,0,0c0.1,0.2,0.3,0.3,0.4,0.3c0.1,0,0.2,0,0.2,0c-0.2-0.1-0.7-0.5-0.6-1.2c0.1-0.8-0.6-3.7-2.4-4.2
						c0,0,0,0,0,0c0,0,0,0,0,0c0,0,0.5-0.3,0.9-0.1C16.7,1.1,16.5,1,16.3,1c-0.3-0.1-0.5,0.2-0.5,0.2c0,0,0,0,0,0c0,0,0,0,0,0
						c0,0,0-0.5-0.5-0.8C15.5,0.6,15.4,1,15.4,1c0,0,0,0,0,0c0,0,0,0,0,0c-1.9-1.6-5.6-0.5-6.5,0.1c-0.6,0.4-1,0.6-1.3,0.5
						c-0.1,0-0.2-0.1-0.3-0.3c0,0.2,0,0.4,0.1,0.6c0.1,0.2,0.4,0.3,0.4,0.3c0,0,0,0,0,0c0,0,0,0,0,0c0,0-0.8,0.1-1.1,0.8
						c0.4-0.3,1-0.3,1-0.3c0,0,0,0,0,0c0,0,0,0,0,0c0,0-0.2,0.7-1.2,0.7c0.2,0.3,0.6,0.2,0.8,0.2c0.4-0.1,0.8-0.3,0.8-0.5
						c0,0,0,0,0,0c0,0,0,0,0,0c0,0,0.1,0.2-0.1,0.5c0.2,0,0.8-0.1,1.3-0.9c0,0,0,0,0,0c0,0,0,0,0,0c0,0,0.1,0.2-0.1,0.5
						c0.7,0,1.6-0.5,1.8-1.2c0,0,0,0,0,0c0,0,0,0,0,0c0.3,0.4-0.1,0.7-0.2,0.9c0.2,0,0.9,0,1.3-0.8c0,0,0,0,0,0c0,0,0,0,0,0
						c-0.1,0.5,0.2,0.9,0.4,1.1c-0.1-0.2-0.1-0.6,0.2-1c0,0,0,0,0,0c0,0,0,0,0,0c0,0-0.2,0.6,1,1.3c0.7,0.4,0.9,0.8,1,1.1
						C15,4.9,15,5.1,15,5.2c0.1-0.1,0.3-0.3,0.2-0.9c0,0,0,0,0,0c0,0,0,0,0,0c0.3,0.6,0.3,1.2,0.3,1.4c0.1-0.1,0.2-0.3,0.3-0.8
						c0,0,0,0,0,0c0,0,0,0,0,0c0.3,0.3,0.3,0.8,0.3,1.2c0,0.4,0,0.8,0.2,1.1c0.1-0.4,0.3-0.6,0.5-0.8c0.2-0.1,0.4-0.1,0.7-0.1
						c0.2,0.1,0.3,0.3,0.4,0.6c0.1,0.5-0.1,1.2-0.5,1.6C17.1,8.7,16.7,8.8,16.4,8.6z"/>
				</g>
			</g>
			<g>
				<g>
					<path class="st21" d="M6.5,7.1c0,0,0.6,0,1.2,0.5c0-0.2,0-0.2,0-0.2s0.7-0.1,0.6-1.1c0-0.3-0.2-0.8-0.5-0.9
						C7.4,5.3,7.1,5.5,7,5.8C6.9,6,6.9,6.3,6.9,6.5c0,0,0,0.4,0,0.4C6.9,6.9,6.7,7,6.5,7.1z"/>
					<path class="st3" d="M6.6,7.1C6.6,7.1,6.6,7.1,6.6,7.1c0.1,0,0.1,0,0.2,0c0,0,0.1,0,0.1,0c0,0,0.1,0,0.1,0c0,0,0.1,0,0.1,0
						c0,0,0.1,0,0.1,0c0,0,0.1,0,0.1,0c0,0,0.1,0,0.1,0.1c0,0,0.1,0,0.1,0.1c0,0,0,0,0.1,0.1c0.1,0.1,0.1,0.1,0.1,0.1
						s-0.1,0-0.1-0.1c0,0,0,0-0.1-0.1c0,0-0.1,0-0.1-0.1c0,0-0.1,0-0.1-0.1c0,0-0.1,0-0.1,0c0,0-0.1,0-0.1,0c0,0-0.1,0-0.1,0
						c0,0-0.1,0-0.1,0s-0.1,0-0.1,0C6.7,7.1,6.7,7.1,6.6,7.1C6.6,7.1,6.6,7.1,6.6,7.1z"/>
					<g>
						<g>
							<path class="st29" d="M8.2,6.2c0,0.3,0,0.6-0.2,0.8C7.9,7.3,7.6,7.4,7.4,7.3C7.2,7.2,7,7,7,6.7c-0.1-0.4,0-1,0.4-1.2
								C7.7,5.4,8.1,5.7,8.2,6C8.2,6.1,8.2,6.2,8.2,6.2z"/>
							<path class="st30" d="M8.2,6.2C8.2,6.2,8.2,6.3,8.2,6.2c0,0.1,0,0.1,0,0.2c0,0.1,0,0.1,0,0.2c0,0.1,0,0.2-0.1,0.3
								c0,0,0,0.1,0,0.1c0,0,0,0-0.1,0.1c0,0,0,0-0.1,0.1c0,0-0.1,0-0.1,0.1C7.7,7.3,7.6,7.4,7.4,7.3c0,0-0.1,0-0.1,0
								c0,0-0.1,0-0.1-0.1c-0.1,0-0.1-0.1-0.2-0.2C7,6.9,6.9,6.8,6.9,6.6c0-0.2,0-0.3,0-0.5C7,6,7,5.9,7.1,5.7
								c0.1-0.1,0.2-0.2,0.3-0.2c0.1,0,0.3,0,0.4,0.1C7.9,5.6,8,5.7,8.1,5.8S8.1,6,8.2,6C8.2,6.2,8.2,6.2,8.2,6.2z M8.2,6.2
								c0,0,0-0.1,0-0.2C8.1,6,8.1,5.9,8,5.8C8,5.7,7.9,5.6,7.8,5.6C7.7,5.5,7.6,5.5,7.5,5.5c-0.1,0-0.2,0.1-0.3,0.2
								C7,6,6.9,6.3,7,6.6C7,6.8,7,6.9,7.1,7c0.1,0.1,0.2,0.2,0.3,0.3c0.1,0,0.3,0,0.4-0.1c0,0,0.1,0,0.1-0.1c0,0,0,0,0.1-0.1
								c0,0,0,0,0.1-0.1c0,0,0-0.1,0-0.1c0.1-0.1,0.1-0.2,0.1-0.3c0-0.1,0-0.2,0-0.2C8.2,6.4,8.2,6.3,8.2,6.2
								C8.2,6.3,8.2,6.2,8.2,6.2z"/>
						</g>
						<g class="st24">
							<path class="st31" d="M7.4,5.5C7.4,5.5,7.4,5.5,7.4,5.5C7.1,5.7,7,6.2,7,6.6c0,0.2,0.2,0.5,0.4,0.5C7.6,7.2,7.9,7.1,8,6.9
								c0.1-0.2,0.2-0.5,0.2-0.8c0-0.1,0-0.1,0-0.2c0,0,0,0,0-0.1c0,0,0,0.1,0,0.1c0,0.1,0,0.1,0,0.2c0,0.3,0,0.6-0.2,0.8
								C7.9,7.3,7.6,7.4,7.4,7.3C7.2,7.2,7,7,7,6.7C6.9,6.3,7,5.7,7.4,5.5z"/>
						</g>
						<g>
							<path class="st32" d="M7.1,6.4c0,0.4,0.1,0.7,0.4,0.8c0.3,0,0.5-0.2,0.5-0.6c0-0.4-0.2-0.8-0.5-0.8C7.4,5.7,7.2,6,7.1,6.4z"
								/>
							<g>
								<path class="st33" d="M7.5,7.2c0.3,0,0.5-0.2,0.5-0.6c0-0.4-0.2-0.8-0.5-0.8C7.4,5.8,7.2,6,7.1,6.4C7.1,6.8,7.3,7.1,7.5,7.2
									z M7.2,6.4c0-0.4,0.2-0.6,0.5-0.6c0.2,0,0.4,0.4,0.4,0.7c0,0.4-0.2,0.6-0.5,0.5C7.3,7,7.1,6.7,7.2,6.4z"/>
							</g>
							<g class="st19">
								<path class="st34" d="M7.5,7.2c0.3,0,0.5-0.2,0.5-0.6c0-0.4-0.2-0.8-0.5-0.8C7.4,5.8,7.2,6,7.1,6.4C7.1,6.8,7.3,7.1,7.5,7.2
									z M7.3,6.1C7.4,6,7.4,6.1,7.3,6.1c0,0.2-0.1,0.5,0,0.7C7.4,6.9,7.5,6.9,7.5,7c0,0-0.2,0-0.3-0.2C7.1,6.5,7.2,6.2,7.3,6.1z"
									/>
							</g>
							<g class="st19">
								<path class="st34" d="M7.3,6.5c0-0.3,0.2-0.4,0.4-0.4c0,0,0,0,0,0c0,0,0.1-0.1,0.1-0.1c0.1,0,0.2,0.1,0.2,0.2
									c0,0.1,0,0.1,0,0.1c0,0.1,0,0.1,0,0.2c0,0.3-0.2,0.4-0.4,0.4C7.4,7,7.3,6.8,7.3,6.5z"/>
							</g>
							<path class="st35" d="M7.4,6.5c0,0.2,0.1,0.4,0.2,0.4c0.1,0,0.3-0.1,0.3-0.3c0-0.2-0.1-0.4-0.2-0.4C7.5,6.2,7.4,6.3,7.4,6.5z
								"/>
							<g class="st19">
								<path class="st34" d="M7.5,6.3c0.1,0.2,0.2,0.3,0.4,0.3C8,6.5,8.1,6.3,8,6.2C7.9,6,7.8,5.8,7.7,5.9C7.5,5.9,7.5,6.1,7.5,6.3
									z"/>
							</g>
							<path class="st4" d="M7.6,6.2c0,0.1,0.2,0.2,0.3,0.2C8,6.4,8,6.3,8,6.2C7.9,6,7.8,5.9,7.7,5.9C7.6,6,7.6,6.1,7.6,6.2z"/>
							<g>
								<path class="st32" d="M7.3,6.3c0,0.2,0,0.5,0.2,0.6C7.5,7,7.2,7,7.2,6.6C7.2,6.4,7.3,6.1,7.3,6.3z"/>
							</g>
							<g>
								<path class="st32" d="M7.3,6.2C7.3,6.2,7.3,6.3,7.3,6.2C7.2,6.2,7.3,6.1,7.3,6.2z"/>
							</g>
						</g>
					</g>
				</g>
			</g>
			<g>
				<g>
					<g>
						<g>
							<path class="st21" d="M13,7.2c0,0-0.8-0.1-1.6,0.6c0-0.2,0-0.2,0-0.2s-0.9-0.2-0.8-1.5c0-0.4,0.3-0.9,0.7-1
								c0.5-0.1,0.9,0.2,1,0.6c0.1,0.2,0.1,0.5,0.2,0.7c0,0,0,0.5,0,0.5C12.5,6.9,12.8,7,13,7.2z"/>
							<path class="st3" d="M12.9,7.2C12.9,7.2,12.9,7.2,12.9,7.2c-0.1,0-0.2,0-0.2,0c0,0-0.1,0-0.1,0c0,0-0.1,0-0.1,0
								c0,0-0.1,0-0.1,0c0,0-0.1,0-0.1,0.1c0,0-0.1,0-0.1,0.1c0,0-0.1,0-0.1,0.1c0,0-0.1,0-0.1,0.1c0,0-0.1,0-0.1,0.1
								c-0.1,0.1-0.2,0.1-0.2,0.1s0.1-0.1,0.2-0.2c0,0,0.1-0.1,0.1-0.1c0,0,0.1,0,0.1-0.1c0,0,0.1,0,0.1-0.1c0,0,0.1,0,0.1-0.1
								c0,0,0.1,0,0.1-0.1c0,0,0.1,0,0.1,0c0,0,0.1,0,0.1,0c0,0,0.1,0,0.1,0C12.7,7.2,12.8,7.2,12.9,7.2C12.9,7.2,12.9,7.2,12.9,7.2
								z"/>
							<g>
								<g>
									<path class="st29" d="M10.8,6.2c-0.1,0.3,0,0.7,0.2,1c0.1,0.2,0.5,0.4,0.8,0.3c0.3-0.1,0.5-0.4,0.6-0.7
										c0.1-0.5,0-1.2-0.5-1.4c-0.4-0.2-0.8,0.2-1,0.6C10.9,6,10.8,6.1,10.8,6.2z"/>
									<path class="st30" d="M10.8,6.2C10.8,6.2,10.8,6.2,10.8,6.2c0,0.1,0,0.2,0,0.3c0,0,0,0.1,0,0.1c0,0,0,0.1,0,0.2
										c0,0.1,0.1,0.2,0.1,0.4c0.1,0.1,0.2,0.2,0.3,0.3c0.1,0.1,0.3,0.1,0.5,0.1c0.2,0,0.3-0.2,0.4-0.3c0.1-0.1,0.2-0.3,0.2-0.5
										c0-0.2,0-0.4,0-0.5c0-0.2-0.1-0.3-0.2-0.5c-0.1-0.1-0.2-0.2-0.4-0.3c-0.1,0-0.3,0-0.4,0.1c-0.1,0.1-0.2,0.2-0.3,0.3
										c-0.1,0.1-0.1,0.2-0.1,0.3C10.9,6,10.9,6.1,10.8,6.2C10.8,6.1,10.8,6.2,10.8,6.2z M10.8,6.2C10.8,6.2,10.8,6.1,10.8,6.2
										c0-0.1,0-0.2,0.1-0.2c0-0.1,0.1-0.2,0.1-0.3c0.1-0.1,0.2-0.2,0.3-0.3c0.1-0.1,0.3-0.1,0.4-0.1c0.2,0,0.3,0.1,0.4,0.3
										c0.1,0.1,0.2,0.3,0.2,0.5c0,0.2,0.1,0.4,0,0.6c0,0.2-0.1,0.4-0.2,0.5c-0.1,0.1-0.1,0.1-0.2,0.2c0,0-0.1,0-0.1,0.1
										c0,0-0.1,0-0.1,0c-0.2,0-0.4,0-0.5-0.1c-0.1,0-0.1-0.1-0.2-0.1c0,0,0-0.1-0.1-0.1c0,0,0-0.1-0.1-0.1
										c-0.1-0.1-0.1-0.2-0.1-0.4c0-0.1,0-0.1,0-0.2c0,0,0-0.1,0-0.1C10.8,6.3,10.8,6.3,10.8,6.2C10.8,6.2,10.8,6.2,10.8,6.2z"/>
								</g>
								<g class="st24">
									<path class="st31" d="M11.8,5.4C11.8,5.3,11.8,5.3,11.8,5.4c0.4,0.2,0.5,0.8,0.4,1.3c-0.1,0.3-0.2,0.5-0.5,0.6
										C11.5,7.3,11.2,7.2,11,7c-0.2-0.3-0.2-0.6-0.2-0.9c0-0.1,0-0.1,0.1-0.2c0,0,0-0.1,0-0.1c0,0,0,0.1-0.1,0.1
										c0,0.1,0,0.2-0.1,0.2c-0.1,0.3,0,0.7,0.2,1c0.1,0.2,0.5,0.4,0.8,0.3c0.3-0.1,0.5-0.4,0.6-0.7C12.5,6.3,12.3,5.6,11.8,5.4z"
										/>
								</g>
								<g>
									<path class="st32" d="M11,6.4c0,0.5,0.1,0.9,0.5,0.9c0.3,0.1,0.6-0.2,0.7-0.7c0-0.5-0.2-0.9-0.5-1C11.3,5.6,11,5.9,11,6.4z
										"/>
									<g>
										<path class="st33" d="M11.5,7.3c0.3,0.1,0.6-0.2,0.7-0.7c0-0.5-0.2-0.9-0.5-1c-0.3,0-0.6,0.3-0.6,0.8
											C11,6.9,11.2,7.2,11.5,7.3z M11.1,6.3c0-0.4,0.3-0.7,0.5-0.7c0.3,0,0.5,0.5,0.5,0.9c0,0.4-0.3,0.7-0.6,0.7
											C11.2,7.1,11,6.8,11.1,6.3z"/>
									</g>
									<g class="st19">
										<path class="st34" d="M11.5,7.3c0.3,0.1,0.6-0.2,0.7-0.7c0-0.5-0.2-0.9-0.5-1c-0.3,0-0.6,0.3-0.6,0.8
											C11,6.9,11.2,7.2,11.5,7.3z M11.2,6C11.3,5.9,11.3,6,11.2,6c0,0.2-0.1,0.6,0,0.8C11.3,7,11.4,7,11.4,7.1
											c0,0-0.3,0-0.3-0.2C11,6.5,11.1,6.1,11.2,6z"/>
									</g>
									<g class="st19">
										<path class="st34" d="M11.2,6.5c0-0.3,0.2-0.5,0.4-0.5c0,0,0,0,0,0c0,0,0.1-0.1,0.1-0.1C11.9,5.9,12,6,12,6.2
											c0,0.1,0,0.1,0,0.2c0,0.1,0,0.2,0,0.3c0,0.3-0.2,0.5-0.5,0.5C11.3,7.1,11.2,6.8,11.2,6.5z"/>
									</g>
									<path class="st35" d="M11.3,6.5c0,0.2,0.1,0.4,0.3,0.5c0.2,0,0.3-0.1,0.4-0.4c0-0.2-0.1-0.5-0.3-0.5
										C11.5,6.1,11.3,6.2,11.3,6.5z"/>
									<g class="st19">
										<path class="st34" d="M11.5,6.2c0.1,0.2,0.3,0.4,0.4,0.3c0.1,0,0.2-0.3,0.1-0.5c-0.1-0.2-0.3-0.4-0.4-0.4
											C11.5,5.8,11.4,6,11.5,6.2z"/>
									</g>
									<path class="st4" d="M11.6,6.2c0.1,0.2,0.2,0.3,0.3,0.3s0.1-0.2,0.1-0.4c-0.1-0.2-0.2-0.3-0.3-0.3
										C11.6,5.8,11.6,6,11.6,6.2z"/>
									<g>
										<path class="st32" d="M11.2,6.3c0,0.2-0.1,0.6,0.2,0.7c0.1,0.1-0.2,0.1-0.3-0.3C11,6.3,11.2,6,11.2,6.3z"/>
									</g>
									<g>
										<path class="st32" d="M11.2,6.1C11.3,6.1,11.2,6.2,11.2,6.1C11.1,6.1,11.2,6.1,11.2,6.1z"/>
									</g>
								</g>
							</g>
						</g>
					</g>
				</g>
			</g>
			<g>
				
					<radialGradient id="SVGID_1_" cx="-560.9172" cy="1562.1177" r="2.0963" gradientTransform="matrix(-0.7982 -0.6025 0.6025 -0.7982 -1376.5779 916.0182)" gradientUnits="userSpaceOnUse">
					<stop  offset="0.1184" style="stop-color:#F6A0A0"/>
					<stop  offset="1" style="stop-color:#FFFFFF"/>
				</radialGradient>
				<path class="st36" d="M11.4,9c0.1,0.7,0.7,0.7,1.2,0.5c0.9-0.4,1.4-1.1,1.3-1.6c-0.2-0.5-0.6-0.9-1.4-0.6
					C11.7,7.6,11.3,8.2,11.4,9z"/>
				<g>
					<path class="st4" d="M13.1,7.6c0,0.1-0.1,0.1-0.2,0.1c-0.1,0-0.3,0-0.3-0.1c0-0.1,0.1-0.1,0.2-0.1C13,7.5,13.1,7.5,13.1,7.6z"
						/>
				</g>
				<g>
					<path class="st4" d="M13.5,7.7c0,0-0.1,0.1-0.1,0c-0.1,0-0.1,0-0.1-0.1C13.3,7.7,13.3,7.6,13.5,7.7C13.4,7.7,13.5,7.7,13.5,7.7
						z"/>
				</g>
			</g>
			<g>
				
					<radialGradient id="SVGID_2_" cx="-321.2254" cy="1436.1172" r="1.4381" gradientTransform="matrix(0.933 -0.3602 -0.3602 -0.933 824.5531 1231.4662)" gradientUnits="userSpaceOnUse">
					<stop  offset="0.1184" style="stop-color:#F6A0A0"/>
					<stop  offset="1" style="stop-color:#FFFFFF"/>
				</radialGradient>
				<path class="st37" d="M7.8,8.7C7.6,9.1,7.2,9.1,6.9,8.8c-0.5-0.4-0.7-1-0.5-1.3c0.2-0.3,0.6-0.4,1.1-0.1C7.9,7.7,8,8.2,7.8,8.7z
					"/>
				<g>
					<path class="st4" d="M6.9,7.5c0,0,0,0.1,0.1,0.1c0.1,0,0.2,0,0.2,0c0,0,0-0.1-0.1-0.1C7,7.4,6.9,7.4,6.9,7.5z"/>
				</g>
				<g>
					<path class="st4" d="M6.6,7.5C6.6,7.5,6.6,7.6,6.6,7.5c0.1,0.1,0.1,0,0.1,0C6.7,7.5,6.7,7.5,6.6,7.5C6.6,7.5,6.6,7.5,6.6,7.5z"
						/>
				</g>
			</g>
			<g>
				<path class="st21" d="M8.9,8C8.5,7.9,8.5,7.7,8.8,7.6c-0.2-0.1-0.5,0-0.5,0.3c0,0.1,0,0.3,0.1,0.4c0.2,0.2,0.6,0.4,0.8,0.3
					c0.1,0,0.4-0.1,0.3-0.5C9.4,7.9,9.5,8.2,8.9,8z"/>
				<path class="st21" d="M8.5,7.8c0-0.1,0.1-0.1,0.1-0.1C8.5,7.7,8.4,8,8.5,8.1c0.1,0.1,0.2,0.3,0.3,0.3c0.1,0.1,0.3,0.1,0.4,0
					c0.1,0,0.2-0.1,0.1-0.3c0,0,0-0.1,0-0.1c0,0.1-0.1,0.2-0.2,0.2c-0.1,0-0.3-0.1-0.4-0.2C8.6,8.1,8.5,7.9,8.5,7.8z"/>
				<path class="st30" d="M9.3,8.2C9.2,8.5,8.7,8.2,8.6,8c0-0.1-0.1-0.1-0.1-0.2c0-0.1,0.1-0.2,0.2-0.2c0.1,0,0.1,0,0.2,0
					c0,0,0,0,0,0c-0.1,0-0.2,0-0.4,0C8.5,7.7,8.5,7.9,8.6,8C8.7,8.2,9.1,8.5,9.3,8.2C9.3,8.2,9.3,8.1,9.3,8.2z"/>
				<path class="st38" d="M9.3,7.9C9.2,8,9.1,8,9,7.9c-0.1,0-0.1,0-0.2-0.1c0,0-0.1-0.1-0.1-0.1c0,0,0,0,0,0C8.7,8,9.1,8,9.3,7.9
					C9.3,8,9.3,7.9,9.3,7.9z"/>
			</g>
			<path class="st17" d="M6.7,5.6c0,0,0.5-1,1.5-0.1C7.9,4.9,7.1,4.4,6.7,5.6z"/>
			<path class="st17" d="M10.5,5.4c0,0,1-1.5,2-0.1C12.2,4.4,11.2,3.9,10.5,5.4z"/>
			<g>
				<path class="st27" d="M6.7,5.5c0,0,0.5-1,1.5-0.1C7.9,4.7,7.1,4.2,6.7,5.5z"/>
				<path class="st28" d="M6.7,5.5C6.6,5.5,6.6,5.5,6.7,5.5C6.6,5.5,6.6,5.5,6.7,5.5c0.2-0.7,0.5-0.8,0.7-0.8C7.7,4.7,8,5,8.2,5.3
					c0,0,0,0,0,0c0,0,0,0,0,0C7.8,5.1,7.5,5,7.3,5C6.9,5.1,6.7,5.5,6.7,5.5C6.7,5.5,6.7,5.5,6.7,5.5z M7.4,4.7
					C7.4,4.7,7.4,4.7,7.4,4.7C7.2,4.7,7,4.8,6.8,5.2C6.9,5.1,7,5,7.2,5c0.3,0,0.5,0,0.8,0.3C7.9,5,7.7,4.7,7.4,4.7z"/>
			</g>
			<g>
				<path class="st27" d="M10.5,5.3c0,0,1-1.5,2-0.1C12.2,4.2,11.2,3.7,10.5,5.3z"/>
				<path class="st28" d="M10.5,5.3C10.4,5.3,10.4,5.3,10.5,5.3C10.4,5.3,10.4,5.3,10.5,5.3c0.3-0.7,0.7-1.1,1.1-1.1
					c0.4,0,0.8,0.4,1,0.9c0,0,0,0,0,0c0,0,0,0,0,0c-0.3-0.4-0.6-0.6-1-0.6C10.9,4.6,10.5,5.3,10.5,5.3C10.5,5.3,10.5,5.3,10.5,5.3z
					 M11.5,4.5c0.3,0,0.6,0.2,0.9,0.5c-0.2-0.4-0.5-0.7-0.8-0.7c-0.3,0-0.7,0.2-0.9,0.7C10.8,4.8,11.1,4.5,11.5,4.5
					C11.5,4.5,11.5,4.5,11.5,4.5z"/>
			</g>
			<path class="st39" d="M16.7,7.4c-0.1,0.3-0.1,0.6,0.1,0.8c0,0,0,0,0,0c-0.1-0.2-0.1-0.3-0.1-0.4c0,0.1,0.1,0.1,0.1,0.2
				c0.1,0.1,0.3,0.1,0.4,0c0,0,0-0.1,0-0.1c-0.1,0-0.2,0-0.3,0c-0.1,0-0.2-0.1-0.2-0.2C16.7,7.6,16.7,7.5,16.7,7.4
				c0.1-0.1,0.2-0.2,0.3-0.3c0.1-0.1,0.2,0,0.4,0c0,0,0-0.1,0-0.1C17,6.8,16.8,7.2,16.7,7.4z"/>
			<g>
				<path class="st17" d="M17.1,8.5c-0.1,0-0.2-0.1-0.2-0.3c0-0.2,0.1-0.3,0.3-0.4c0.1,0,0.2,0,0.3,0.1c0-0.1,0-0.2-0.1-0.3
					c-0.1-0.1-0.2,0-0.3-0.1c-0.2-0.1-0.2-0.3-0.1-0.5c0.1-0.1,0.3-0.2,0.4-0.2c0.2,0,0.4,0.1,0.5,0.2c0,0,0,0,0,0
					c0-0.3-0.2-0.6-0.4-0.6c-0.6-0.2-1,0.2-1.1,0.9c-0.5-0.6,0-1.7-0.5-2.3c0,0.6-0.3,0.8-0.3,0.8s0.1-0.7-0.3-1.5
					c0.1,0.8-0.3,1-0.3,1s0.3-1-1-1.7s-1-1.3-1-1.3c-0.6,0.6-0.2,1.1-0.2,1.1S12,2.9,12.2,2.1c0,0.1-0.1,0.1-0.1,0.2
					c0,0.4,0.1,0.9,0.8,1.4c0,0-0.1-0.4,0-0.7c0,0,0,0.3,0.7,0.7c0.7,0.4,1.4,1,1.3,1.9c0,0,0.3-0.1,0.3-0.3
					c0.2,0.8,0.2,1.1,0.2,1.1s0.3-0.3,0.4-0.7c0.1,1.1,0.7,4.5-2.9,5.9c0,0,0,0,0,0c1.6-0.4,2.3-1.4,2.3-1.4c0.5-0.5,1-0.9,1.1-1.7
					c0.4,0.2,0.7,0.1,0.9,0C17.2,8.6,17.1,8.6,17.1,8.5z"/>
			</g>
			<g class="st24">
				<path class="st27" d="M18.3,5.7c0.1-0.8-0.6-3.8-2.4-4.2c0,0,0.6-0.3,0.9,0c-0.4-0.9-1.1-0.3-1.1-0.3s0-0.7-0.7-0.9
					C15.5,0.5,15.3,1,15.3,1c-0.8-0.7-2-0.9-3.1-0.8c0,0,0,0,0,0c2.5-0.1,3,1.3,3,1.3s-0.5-0.2-0.9,0.2c1.2-0.3,1.9,0.9,1.9,0.9
					s0-0.5-0.7-0.9C17,1.8,18,3.9,17.7,4.9s0.2,1.4,0.2,1.4c-0.6,0.1-0.8-0.5-1.1-0.9c0.1,0.8-0.4,1.3-0.4,1.3s0-0.2,0-0.9
					c0.1-1.4-0.6-2-0.6-2s0.1,0.9-0.1,1c0-0.8-0.7-1.5-0.7-1.5s0.3,0.8,0.1,1.1c0-0.4-0.3-0.9-1.3-1.5S13,1.7,13,1.7
					s-0.7,0.3-0.6,1.1c-0.2-0.5-0.2-0.8-0.1-1.2c-0.4,0.9-1,1.1-1,1.1s0.4-0.6-0.3-1C10.5,2.9,9.4,3,9.4,3s0.2-0.6-0.1-0.8
					C9.1,3.1,8.2,3.4,8.2,3.4s0.1-0.5-0.3-0.5C7.4,3.5,6.7,3.5,6.3,3.5c0.4,0.6,1.6,0.1,1.7-0.3c0,0,0.1,0.2-0.1,0.5
					c0,0,0.8,0.1,1.4-0.9c0,0,0.1,0.2-0.1,0.5c0.7,0,1.7-0.5,1.9-1.2C11.3,2.5,10.7,3,10.7,3s0.9,0.2,1.4-0.8
					c-0.2,0.8,0.5,1.3,0.5,1.3s-0.4-0.5,0.2-1.1c0,0-0.3,0.6,1,1.3s1,1.7,1,1.7s0.4-0.2,0.3-1c0.3,0.8,0.3,1.5,0.3,1.5
					s0.3-0.2,0.3-0.8c0.5,0.6,0,1.7,0.5,2.3c0.2-0.7,0.6-1.1,1.1-0.9c0.8,0.3,0.4,2.8-1.1,2.2c-0.2,0.8-0.6,1.2-1.1,1.7
					c0,0,2.9-0.4,3-3.7C18.6,7.2,19,6.8,19,6.8S18.2,6.5,18.3,5.7z"/>
			</g>
			<path class="st27" d="M13.9,2.1c0.5,0.4,0.8,1,0.9,1.6c0,0-0.1-0.6-0.9-1c-0.7-0.4-1-0.8-0.7-1.1C12.8,1.4,12.4,2,12.4,2
				s-0.2-0.4,0-0.9c-0.2,0.1-0.5,0.9-0.9,1.1c0.3-0.8-0.8-1-0.8-1s0.1,0.6-0.6,1.1c0,0,0.3-0.4,0.1-0.9c-0.1-0.5-0.9,1-0.5,0.2
				C10,0.9,9.4,1.4,9.1,2.1C8.8,2.8,8.4,2.9,8.4,2.9s0.4-0.3,0.4-1.1C8.1,2.7,7.4,2,7.3,1.7c0,0,0.6,0.4,1.3-0.2
				c0.6-0.4,1.5-1,3.3-1.1c-0.9,0.1-1.3,0.5-1.3,0.5s0.4-0.2,1.6-0.3c-0.9,0.2-0.5,0.6,0.2,0.4c0.6-0.2,0.5-0.2,0.3,0.1
				c-0.1,0.2,0.1,0.3,0.5,0.1C13.7,1,13.1,1.5,13.9,2.1z"/>
			<path class="st27" d="M15.5,2.6c0,0,0.9,0.7,1.1,2.3c0.2-0.4,0-1.2,0-1.2s0.4,0.6,0.4,0c0-0.6,0.4,0.2,0.3,1.1
				c-0.1,0.9,0.8-1.4-0.8-2.6c0.4,0.8,0.4,1.1,0,0.7C16.1,2.4,17,3.7,15.5,2.6z"/>
		</g>
		<g class="st40">
			<path class="st4" d="M10.8,18.1c-0.1-0.2-0.2-0.3-0.3-0.5c-0.1-0.2-0.2-0.3-0.2-0.5c-0.1-0.3-0.2-0.7-0.3-1
				c-0.1-0.7,0-1.4,0.4-2.1c0,0,0,0,0,0c-0.4,0.7-0.5,1.4-0.5,2.2c0,0.4,0.1,0.7,0.2,1.1c0.1,0.3,0.3,0.7,0.6,0.9
				C10.7,18.3,10.8,18.1,10.8,18.1z"/>
			<path class="st4" d="M12.4,19.3c-0.3,0-0.5,0-0.8-0.1c-0.3,0-0.5-0.1-0.8-0.2c-0.2-0.1-0.5-0.2-0.7-0.3c-0.2-0.1-0.4-0.3-0.4-0.6
				c0,0,0,0,0,0c-0.1,0.6,0.5,0.9,1,1.1C11.2,19.4,11.8,19.5,12.4,19.3C12.4,19.4,12.4,19.3,12.4,19.3z"/>
		</g>
		<g>
			<g>
				<path class="st2" d="M14.4,11.3c0,0,1.1,0,2.2,2.3c1.1,2.3,1,3.6,1.6,4.1c0.6,0.5,0.7,0.7,0.8,1c0.1,0.3,0.1,0.8,0,0.7
					c0,0.2-0.2,0.6-0.3,0.6c0,0.1-0.1,0.3-0.2,0.4c0,0.2-0.1,0.5-0.3,0.3c-0.2-0.1-0.3-0.9-0.4-1.1c0-0.2-0.4-0.6-0.6-0.6
					c-0.2,0-0.2,0.2-0.1,0.5s-0.1,0.5-0.3,0.5s-0.2-0.2-0.1-0.4c0-0.2,0-0.3,0-0.7c0-0.7,0.3-1,0.3-1s-0.9-3-1.7-4
					C14.4,13,13.6,12.5,14.4,11.3z"/>
				<path class="st3" d="M18.3,20.9c0,0-0.1,0-0.1,0c-0.2-0.1-0.3-0.5-0.4-0.9c0-0.1,0-0.1,0-0.2c0-0.2-0.4-0.6-0.6-0.6
					c0,0-0.1,0-0.1,0c-0.1,0.1-0.1,0.2,0,0.4c0,0.2,0,0.4-0.1,0.5c-0.1,0.1-0.1,0.1-0.2,0.1c-0.2-0.1-0.2-0.2-0.2-0.4
					c0-0.1,0-0.2,0-0.4c0-0.1,0-0.1,0-0.2c0-0.6,0.2-0.9,0.3-1c-0.1-0.3-0.9-3-1.7-4c-0.2-0.2-0.3-0.4-0.5-0.5
					c-0.6-0.7-1-1.2-0.4-2.2c0,0,0,0,0,0c0,0,1.1,0,2.2,2.3c0.5,1.1,0.8,2,1,2.7c0.2,0.7,0.3,1.2,0.6,1.4c0.6,0.5,0.7,0.8,0.8,1.1
					c0.1,0.2,0.1,0.6,0,0.7c0,0,0,0,0,0c0,0.2-0.2,0.5-0.3,0.6c0,0.1-0.1,0.3-0.2,0.4c0,0.2,0,0.3-0.1,0.4
					C18.3,20.9,18.3,20.9,18.3,20.9z M17.1,19.1C17.1,19.1,17.1,19.1,17.1,19.1c0.2,0,0.6,0.5,0.6,0.7c0,0,0,0.1,0,0.2
					c0.1,0.3,0.2,0.8,0.3,0.8c0.1,0,0.1,0,0.2,0c0.1,0,0.1-0.2,0.1-0.3c0,0,0,0,0,0c0.1-0.1,0.2-0.3,0.2-0.4c0,0,0,0,0,0
					c0.1,0,0.3-0.4,0.3-0.6c0,0,0,0,0,0c0,0,0,0,0,0c0,0,0,0,0,0c0.1,0,0.1-0.4,0-0.6c-0.1-0.3-0.3-0.6-0.8-1
					c-0.3-0.2-0.5-0.7-0.7-1.4c-0.2-0.7-0.4-1.6-1-2.7c-1-2.1-2-2.3-2.2-2.3c-0.6,0.9-0.2,1.4,0.4,2.1c0.1,0.2,0.3,0.3,0.5,0.6
					c0.8,1,1.7,4,1.7,4c0,0,0,0,0,0c0,0-0.3,0.3-0.3,0.9c0,0.1,0,0.2,0,0.2c0,0.2,0,0.3,0,0.5c0,0.2,0,0.3,0.1,0.3
					c0.1,0,0.1,0,0.2,0c0.1-0.1,0.1-0.2,0.1-0.4c0-0.2,0-0.4,0-0.5C17.1,19.1,17.1,19.1,17.1,19.1z"/>
			</g>
			<g>
				<path class="st3" d="M18.3,19.8c0-0.1-0.1-0.2-0.2-0.4c-0.1-0.1-0.1-0.2-0.2-0.3c0,0,0,0,0,0c0.1,0.1,0.1,0.2,0.2,0.3
					C18.1,19.6,18.2,19.7,18.3,19.8c0.1,0.3,0.1,0.5,0.2,0.8c0,0,0,0,0,0C18.4,20.3,18.4,20,18.3,19.8z"/>
				<path class="st3" d="M18.7,20c0-0.1,0-0.1,0-0.2c0-0.1,0-0.2-0.1-0.3c-0.1-0.2-0.1-0.4-0.2-0.6c0,0,0,0,0,0
					c0.1,0.2,0.2,0.4,0.2,0.7c0,0.1,0,0.2,0.1,0.3C18.6,19.9,18.6,19.9,18.7,20c0,0.1,0,0.1,0,0.2c0,0,0,0,0,0
					C18.7,20.1,18.7,20,18.7,20z"/>
				<path class="st3" d="M19,19.3c0-0.1,0-0.1,0-0.2c0-0.1-0.1-0.3-0.2-0.4c0,0,0,0,0,0c0.1,0.1,0.1,0.3,0.1,0.4
					C18.9,19.2,18.9,19.2,19,19.3c0,0.1,0,0.1,0,0.1c0,0,0,0.1,0,0.1c0,0,0,0,0,0C19,19.4,19,19.3,19,19.3z"/>
			</g>
			<g>
				<path class="st41" d="M17.7,19.7C17.7,19.7,17.7,19.7,17.7,19.7C17.7,19.7,17.7,19.7,17.7,19.7z"/>
				<path class="st17" d="M19,18.8c0,0.2,0,0.3,0,0.3c-0.1,0-0.2-0.4-0.2-0.4s0,0,0.1,0.4c0.1,0.4-0.3,0.7-0.3,0.6
					c-0.1-0.3-0.3-0.9-0.3-0.9s0.1,0.4,0.2,0.9c0.1,0.4-0.2,0.5-0.2,0.5s-0.1-0.6-0.5-1.1c0.2,0.3,0.6,1.7,0.3,1.7
					c-0.3,0-0.4-0.7-0.5-1c0,0.2,0.1,0.9,0.4,1.1c0.2,0.1,0.3-0.1,0.3-0.3c0.1-0.1,0.2-0.3,0.2-0.4c0.2,0,0.3-0.4,0.3-0.6
					C19.1,19.5,19.1,19.1,19,18.8z"/>
				<path class="st17" d="M17,19c-0.2,0-0.2,0.2-0.2,0.7c0,0.3-0.2,0.3-0.3,0.2c0,0.1,0,0.1,0.2,0.2c0.2,0.1,0.3-0.2,0.3-0.5
					c0-0.3,0-0.5,0.1-0.5c0.1,0,0.5,0.4,0.6,0.6C17.6,19.4,17.3,18.9,17,19z"/>
			</g>
			<g>
				<path class="st21" d="M17.4,18c-0.3-0.4-0.5-1.5-1-2.7s-1.6-2.1-1.7-3c-0.1-0.9,0.3-0.7,0.8-0.3l0,0c-0.6-0.6-1-0.6-1-0.6
					c-0.8,1.2,0.1,1.7,0.9,2.7c0.8,1,1.7,4,1.7,4s-0.4,0.3-0.3,1C16.6,19,16.6,18.2,17.4,18z"/>
			</g>
			<g class="st42">
				<path class="st17" d="M19,18.8c-0.1-0.3-0.3-0.6-0.8-1c-0.5-0.4-0.5-1.3-1.1-2.8c-0.1,0.2-0.5,0-0.4,0.2
					c0.1,0.2,0.3,0.1,0.4,0.2c0.2,0.5,0.6,2.2,0.8,2.4c0.2,0.1,0.4,0.2,0.6,0.5c0.2,0.2,0,0.4-0.2,0.5c0,0.1-0.1,0.2-0.7,0.2
					c0.2,0.1,0.3,0.3,0.6,1.2c0.2,0.4,0.1,0.7,0,0.9c0.2,0,0.2-0.2,0.2-0.4c0.1-0.1,0.2-0.3,0.2-0.4c0.2,0,0.3-0.4,0.3-0.6
					C19.1,19.5,19.2,19.1,19,18.8z"/>
			</g>
			<g>
				<path class="st15" d="M15.4,11.9c0.7,0.9,1.4,1.8,1.6,2.9c0,0,0,0,0,0C16.7,13.7,16,12.9,15.4,11.9
					C15.3,11.9,15.4,11.9,15.4,11.9z"/>
			</g>
			<path class="st15" d="M17.7,17.9c0,0-0.1,0-0.1,0c0,0-0.1,0-0.1,0c-0.1,0-0.2,0.1-0.2,0.1c-0.1,0-0.1,0.1-0.2,0.2
				c-0.1,0.1-0.1,0.1-0.1,0.2c0,0,0,0,0,0c0-0.1,0.1-0.1,0.1-0.2c0.1-0.1,0.1-0.1,0.2-0.1c0.1,0,0.1-0.1,0.2-0.1
				C17.5,18,17.6,18,17.7,17.9C17.7,18,17.7,17.9,17.7,17.9z"/>
			<path class="st15" d="M18.3,20.3c0-0.1,0-0.2,0-0.2c0-0.2-0.1-0.3-0.2-0.5c-0.1-0.3-0.3-0.6-0.6-0.8c0,0,0,0,0,0
				c0.2,0.3,0.4,0.6,0.5,0.9c0.1,0.2,0.1,0.3,0.2,0.5C18.2,20.2,18.2,20.3,18.3,20.3c0,0.1,0,0.2,0,0.3c0,0,0,0,0,0
				C18.3,20.5,18.3,20.4,18.3,20.3z"/>
		</g>
	</g>
	<g>
		<path class="st43" d="M12.4,8.9c0-0.1,0-0.2-0.1-0.3c0-0.1-0.1-0.1-0.2,0c-0.1,0-0.2,0.1-0.2,0.1c-0.1,0.1-0.2,0.1-0.3,0.2
			c-0.2,0.1-0.4,0.2-0.6,0.3c-0.4,0.2-0.9,0.2-1.3,0.3c-0.5,0-0.9,0-1.4-0.2C8.2,9.2,8.1,9.1,8,9.1c0,0,0,0,0,0c0,0,0,0-0.1,0
			c0,0-0.1,0-0.1,0c-0.1,0-0.1,0.1-0.1,0.2c0,0.1,0,0.3,0.1,0.4C7.8,9.8,8,10,8.1,10.1c0.3,0.3,0.7,0.5,1.1,0.6
			c0.8,0.3,1.7,0.2,2.4-0.3c0.3-0.2,0.6-0.6,0.7-1C12.3,9.3,12.4,9.1,12.4,8.9z"/>
		<path class="st44" d="M12.3,9.2c-0.1,0.4-0.3,0.7-0.6,1c-0.6,0.6-1.4,0.7-2.2,0.6c-0.4-0.1-0.8-0.2-1.1-0.5C8.3,10.2,8.1,10,8,9.9
			C7.9,9.8,7.8,9.7,7.8,9.5c0,0,0,0,0,0l0,0c0,0,0,0,0,0c0,0,0-0.1,0-0.1c0-0.1,0-0.1,0-0.2c0,0,0.1-0.1,0.1-0.1c0,0,0,0,0,0
			c0,0,0.1,0,0.1,0c0.1,0,0.2,0.1,0.2,0.1C8.6,9.4,9,9.5,9.4,9.5c0.4,0,0.8-0.1,1.2-0.2c0.2-0.1,0.4-0.1,0.6-0.2
			c0.2-0.1,0.4-0.2,0.6-0.3c0.1-0.1,0.2-0.1,0.2-0.2c0.1,0,0.2-0.1,0.2,0c0.1,0.1,0.1,0.2,0.1,0.3C12.3,9,12.3,9.1,12.3,9.2z"/>
		<path class="st45" d="M8.3,9.5c0.1,0.1,0.2,0.2,0.3,0.3C8.9,10,9.3,10,9.7,10c0.4,0,0.7-0.1,1.1-0.2c0.2-0.1,0.3-0.2,0.4-0.3
			c0.1-0.1,0.2-0.2,0.3-0.4c0.1-0.1,0.1-0.2,0.1-0.3c-0.2,0.1-0.3,0.2-0.5,0.3c-0.2,0.1-0.4,0.2-0.6,0.2c-0.4,0.1-0.8,0.2-1.2,0.2
			C9,9.5,8.6,9.5,8.2,9.3c0,0,0,0-0.1,0C8.2,9.4,8.2,9.4,8.3,9.5z"/>
		<path class="st46" d="M11.3,10.2c-0.2,0-0.4,0-0.6,0.1c-0.2,0-0.4,0.1-0.6,0.1c-0.2,0.1-0.4,0.2-0.6,0.3c0,0,0,0,0,0
			c0.7,0.2,1.5,0,2.1-0.5C11.5,10.3,11.4,10.2,11.3,10.2z"/>
		<path class="st45" d="M8.9,9.9C9.1,10,9.5,10,9.8,10c0.4,0,0.8-0.1,1.2-0.2c0.3-0.1,0.6-0.3,0.9-0.5c0.1-0.1,0.2-0.2,0.3-0.4
			c0-0.1,0-0.2-0.1-0.2c-0.1-0.1-0.2,0-0.2,0c-0.1,0-0.2,0.1-0.2,0.2c-0.2,0.1-0.4,0.2-0.6,0.3c-0.2,0.1-0.4,0.2-0.6,0.2
			c-0.4,0.1-0.8,0.2-1.2,0.2c-0.4,0-0.7-0.1-1.1-0.2C8.5,9.6,8.6,9.8,8.9,9.9z"/>
	</g>
</g>
</svg>
