<?xml version="1.0" encoding="utf-8"?>
<!-- Generator: Adobe Illustrator 24.0.1, SVG Export Plug-In . SVG Version: 6.00 Build 0)  -->
<svg version="1.1" id="Capa_1" xmlns="http://www.w3.org/2000/svg" xmlns:xlink="http://www.w3.org/1999/xlink" x="0px" y="0px"
	 viewBox="0 0 25 25" style="enable-background:new 0 0 25 25;" xml:space="preserve">
<style type="text/css">
	.st0{fill:#FBD0B4;}
	.st1{fill:#B56A4D;}
	.st2{fill:#EFC2A7;}
	.st3{opacity:0.6;fill:#FBC98F;enable-background:new    ;}
	.st4{fill:#FFFFFF;}
	.st5{fill:#654B28;}
	.st6{opacity:0.5;fill:#70727F;enable-background:new    ;}
	.st7{fill:#804236;}
	.st8{fill:#5A3426;}
	.st9{opacity:0.2;fill:#5A3426;enable-background:new    ;}
	.st10{opacity:0.5;}
	.st11{opacity:0.2;}
	.st12{fill:#70727F;}
	.st13{fill:#793936;}
	.st14{fill:#263259;}
	.st15{fill:#111C39;}
	.st16{opacity:0.5;fill:#263259;enable-background:new    ;}
	.st17{fill:#F7913D;}
	.st18{fill:#9B4A0D;}
	.st19{opacity:0.5;fill:#F7913D;enable-background:new    ;}
	.st20{fill:#FCEE21;}
	.st21{fill:#F7931E;}
	.st22{opacity:0.69;fill:#FCC521;enable-background:new    ;}
	.st23{opacity:0.4;fill:#A31D1D;enable-background:new    ;}
	.st24{fill:#9E4C0B;}
	.st25{fill:#582E18;}
	.st26{fill:#33160A;}
	.st27{opacity:0.6;fill:#FBD0B4;enable-background:new    ;}
	.st28{fill:#FEF6EC;}
	.st29{fill:#9E5116;}
	.st30{fill:#BBAC9A;}
	.st31{fill:#984C08;}
	.st32{fill:#A0A427;}
	.st33{opacity:0.6;}
	.st34{fill:#9A5648;}
	.st35{fill:#0A010B;}
	.st36{opacity:0.7;fill:url(#SVGID_1_);enable-background:new    ;}
	.st37{opacity:0.7;fill:url(#SVGID_2_);enable-background:new    ;}
	.st38{fill:#FCECE3;}
	.st39{fill:none;}
	.st40{opacity:0.5;fill:#582E18;enable-background:new    ;}
	.st41{fill:#FAD6BE;}
	.st42{fill:#7B1500;}
	.st43{fill:#FF8C6A;}
	.st44{fill:#FFFAF7;}
	.st45{opacity:0.6;fill:#C4B6A6;enable-background:new    ;}
	.st46{fill:#6D6F73;}
	.st47{opacity:0.7;fill:#6D6F73;enable-background:new    ;}
	.st48{fill:#A7A7A7;}
	.st49{fill:#D5F5FF;}
	.st50{fill:#4AA0C3;}
	.st51{opacity:0.3;fill:url(#SVGID_3_);enable-background:new    ;}
	.st52{opacity:0.3;fill:url(#SVGID_4_);enable-background:new    ;}
	.st53{fill:#424347;}
</style>
<g>
	<g>
		<g>
			<g>
				<path class="st0" d="M12,22.9c0-1.3,0.3-2.6,0.2-4.2c0-1.2,0.1-2,0.1-2l-1.6-0.1c0,0,0,0.7,0.1,1.5c0.1,0.8,0.2,3.7,0.2,4.8
					C10.9,22.8,11.3,23.4,12,22.9z"/>
				<path class="st1" d="M11.5,23.1c0,0-0.1,0-0.1,0c-0.2,0-0.4-0.3-0.4-0.3l0,0c0-1-0.1-4-0.2-4.8c-0.1-0.8-0.1-1.5-0.1-1.5l0,0
					l0,0l1.6,0.1l0,0l0,0c0,0-0.1,0.8-0.1,2c0.1,0.9,0,1.8-0.1,2.6c0,0.5-0.1,1.1-0.1,1.6l0,0C11.8,23,11.6,23.1,11.5,23.1z
					 M11,22.8c0,0,0.1,0.2,0.4,0.3c0.2,0,0.4,0,0.6-0.1c0-0.5,0-1.1,0.1-1.6c0.1-0.8,0.2-1.6,0.1-2.5c0-1,0-1.8,0.1-2l-1.6-0.1
					c0,0.1,0,0.7,0.1,1.4C10.9,18.8,11,21.8,11,22.8z"/>
			</g>
			<path class="st1" d="M11.3,17.9c-0.1,0-0.2,0-0.3,0c0,0,0,0,0,0S11,18,11.1,18S11.2,18,11.3,17.9C11.3,17.9,11.3,17.9,11.3,17.9
				L11.3,17.9z"/>
			<g>
				<path class="st2" d="M12.2,16.6l-1.6-0.1c0,0,0,0.1,0,0.3c0.1,0,0.5,0.1,0.9,0.1c0.3,0,0.3,0.2,0.3,0.6c0,0.3-0.7,0.4-0.9,0.3
					c0.2,0.2,0.4,0.1,0.6,0c0.2,0,0.5,0.7,0.4,1.9c-0.1,1.2-0.4,2.5-0.6,2.6c-0.2,0-0.2-0.2-0.4-1.8c0,0.8,0,1.7,0,2.2
					c0,0,0.3,0.6,1,0.1c0-1.3,0.3-2.6,0.2-4.2C12.1,17.5,12.2,16.6,12.2,16.6z"/>
			</g>
			<path class="st3" d="M11,21.1c0-0.1,0-0.2,0-0.3c0-0.2,0-0.4,0-0.7c0-0.4,0-0.9-0.1-1.3c0-0.2,0-0.5,0-0.8l0,0
				c0,0.4,0,0.9,0.1,1.4c0,0.4,0,0.9,0.1,1.4C11,20.8,11,21,11,21.1c0,0,0,0.1,0,0.1c0,0,0,0.1,0,0.2h0C11.1,21.3,11.1,21.2,11,21.1
				z"/>
			<path class="st3" d="M10.9,17.8c0,0,0-0.1,0-0.1c0,0,0-0.1,0-0.2c0-0.1,0-0.2,0-0.4l0,0c0,0.1,0,0.2,0,0.4c0,0,0,0.1,0,0.2
				C10.8,17.7,10.8,17.7,10.9,17.8C10.9,17.8,10.9,17.8,10.9,17.8z"/>
		</g>
		<g>
			<g>
				<path class="st4" d="M10.8,24.3c1-0.2,1.5-0.6,1.7-0.8l0,0c0.1,0.3,0.1,0.5-0.9,0.9c-1.1,0.4-1.6,0.4-2.5,0.2
					c-0.7-0.2-0.8-0.4-0.8-0.6C8.5,24.2,9.4,24.6,10.8,24.3z"/>
				<path class="st5" d="M10.4,24.7c-0.4,0-0.8,0-1.4-0.1c-0.6-0.1-0.9-0.4-0.8-0.7l0,0c0,0,0,0,0,0c0.2,0.2,1,0.6,2.3,0.4l0,0
					c0,0,0.1,0,0.2,0c1-0.2,1.5-0.6,1.7-0.8c0,0,0,0,0,0l0,0l0,0c0.1,0.3,0.1,0.5-0.9,0.9C11.1,24.6,10.8,24.7,10.4,24.7z M8.2,24
					c0,0.2,0.1,0.4,0.8,0.6c0.5,0.1,0.9,0.2,1.3,0.1c0.3,0,0.6-0.1,1.1-0.3c1-0.4,1-0.5,0.9-0.8c-0.2,0.2-0.7,0.6-1.7,0.8
					c0,0-0.1,0-0.2,0l0,0C9.4,24.5,8.6,24.3,8.2,24z"/>
			</g>
			<path class="st6" d="M12.3,23.6c0,0,0.1-0.1,0.1-0.1l0,0c0,0.1,0.1,0.3,0,0.4C12.4,23.8,12.3,23.7,12.3,23.6z"/>
			<path class="st6" d="M12,23.8c0.1,0,0.1-0.1,0.2-0.1c0,0.1,0,0.2,0.1,0.3c0,0-0.1,0.1-0.2,0.1C12.1,24,12.1,23.9,12,23.8z"/>
			<path class="st6" d="M11.7,24c0.1,0,0.2-0.1,0.3-0.1c0,0.1,0,0.2,0,0.3c-0.1,0-0.1,0.1-0.3,0.1C11.8,24.2,11.8,24.1,11.7,24z"/>
			<path class="st6" d="M11.3,24.2c0.1,0,0.3-0.1,0.4-0.1c0,0.1,0,0.1,0.1,0.2c0,0-0.1,0-0.2,0.1c-0.1,0-0.1,0-0.2,0.1
				C11.3,24.4,11.3,24.3,11.3,24.2z"/>
			<path class="st6" d="M10.9,24.3c0.1,0,0.2,0,0.3,0c0,0.1,0,0.2,0,0.2c-0.1,0-0.2,0-0.2,0.1C11,24.5,10.9,24.4,10.9,24.3z"/>
			<path class="st6" d="M10.5,24.3c0.1,0,0.2,0,0.3,0h0c0,0.1,0,0.2,0.1,0.3c-0.1,0-0.2,0-0.4,0.1C10.5,24.6,10.5,24.5,10.5,24.3z"
				/>
			<path class="st6" d="M10.1,24.4c0.1,0,0.2,0,0.3,0c0,0.1,0,0.2,0,0.3c-0.1,0-0.2,0-0.3,0C10.1,24.6,10.1,24.5,10.1,24.4z"/>
			<path class="st6" d="M9.7,24.4c0.1,0,0.2,0,0.3,0c0,0.1,0,0.2,0.1,0.3c-0.1,0-0.2,0-0.3,0C9.7,24.6,9.7,24.5,9.7,24.4z"/>
			<path class="st6" d="M9.2,24.3c0.1,0,0.2,0,0.4,0c0,0.1,0,0.2,0,0.3c-0.1,0-0.3,0-0.4-0.1C9.2,24.5,9.2,24.4,9.2,24.3z"/>
			<path class="st6" d="M8.8,24.2c0.1,0,0.2,0,0.3,0.1c0,0.1,0,0.2,0,0.3c0,0,0,0-0.1,0c-0.1,0-0.2,0-0.2-0.1
				C8.8,24.4,8.8,24.3,8.8,24.2z"/>
			<path class="st6" d="M8.4,24.3c-0.1-0.1-0.1-0.2-0.1-0.3c0,0,0.1,0.1,0.1,0.1C8.4,24.1,8.4,24.2,8.4,24.3z"/>
			<path class="st6" d="M8.5,24.1c0.1,0,0.1,0.1,0.2,0.1c0,0.1,0,0.1,0,0.2c-0.1,0-0.2-0.1-0.2-0.1C8.4,24.3,8.5,24.2,8.5,24.1z"/>
			<g>
				<path class="st4" d="M8.3,23.8c0.1-0.3,0.3-0.8,1.4-0.6h0c0.6,0.2,0.7,0.9,0.7,1.1C9.3,24.5,8.5,24.2,8.3,23.8
					C8.2,23.9,8.2,23.8,8.3,23.8z"/>
				<path class="st5" d="M10.5,24.4L10.5,24.4c-1.1,0.1-2-0.1-2.3-0.4l0,0c0,0,0,0,0-0.1c0-0.2,0.2-0.5,0.8-0.6c0.2,0,0.4,0,0.6,0h0
					l0,0C10.4,23.4,10.5,24.1,10.5,24.4L10.5,24.4z M8.3,23.9c0.3,0.3,1.1,0.5,2.2,0.4c0-0.3-0.2-0.9-0.7-1.1h0c-0.2,0-0.4,0-0.6,0
					c-0.5,0.1-0.7,0.4-0.7,0.6C8.3,23.8,8.3,23.9,8.3,23.9z"/>
			</g>
			<g>
				<g>
					<path class="st7" d="M10.1,23.1c0,0,0.1,0,0.2,0.1c0.2,0,0.4,0.3,0.5,0.4c0,0,0.6-0.1,0.5-0.1c-0.1-0.3-0.4-0.4-0.7-0.4
						c0-0.3,0.3-0.4,0.5-0.3c0.2,0,0.3,0.1,0.4,0.4c0.2,0,0.3-0.1,0.3-0.1v-0.2c0,0,0.4-0.1,0.4,0.2c0,0.3,0.1,0.3,0.2,0.6
						c-0.2,0.2-0.6,0.6-1.7,0.8c-0.1,0-0.2,0-0.2,0c0-0.2-0.1-0.9-0.7-1.1C9.9,23.2,10,23.1,10.1,23.1z"/>
					<path class="st5" d="M10.6,24.4L10.6,24.4L10.6,24.4L10.6,24.4c-0.1-0.2-0.2-0.9-0.8-1.1c0,0,0,0,0,0c0,0,0,0,0,0s0,0,0,0
						c0.1,0,0.1,0,0.2-0.1c0,0,0,0,0,0l0,0c0,0,0.1,0,0.1,0c0.2,0,0.4,0.3,0.5,0.4l0,0c0,0,0,0,0.1,0c0.1,0,0.3-0.1,0.4-0.1
						c-0.1-0.2-0.4-0.3-0.6-0.4h0c0,0,0,0,0,0c0-0.3,0.3-0.4,0.5-0.3c0.2,0,0.3,0.1,0.4,0.4c0,0,0,0,0.1,0c0.1,0,0.1-0.1,0.1-0.1
						v-0.2c0,0,0,0,0,0c0,0,0,0,0.1,0c0.1,0,0.2,0,0.3,0c0,0,0.1,0.1,0.1,0.2c0,0.2,0,0.3,0.1,0.4c0,0,0,0.1,0.1,0.2c0,0,0,0,0,0
						c-0.2,0.2-0.6,0.6-1.7,0.8C10.7,24.3,10.6,24.4,10.6,24.4z M10.5,24.3L10.5,24.3c0.1,0,0.1,0,0.2,0c1-0.2,1.5-0.6,1.7-0.8
						c0-0.1,0-0.1-0.1-0.2c0-0.1-0.1-0.2-0.1-0.4c0,0,0-0.1,0-0.1c0,0-0.2,0-0.2,0h0v0.2l0,0c0,0,0,0.1-0.2,0.1c0,0-0.1,0-0.1,0l0,0
						c-0.1-0.3-0.2-0.3-0.4-0.4c-0.2,0-0.4,0-0.5,0.3l0,0c0.2,0.1,0.5,0.2,0.7,0.4v0c0,0-0.3,0.1-0.4,0.1c-0.1,0-0.1,0-0.1,0l0,0
						c0-0.1-0.2-0.3-0.4-0.3c-0.1,0-0.1,0-0.2,0c0,0-0.1,0-0.2,0C10.4,23.4,10.5,24,10.5,24.3z"/>
				</g>
				<g>
					<path class="st8" d="M11.3,23.4c0,0.1-0.5,0.2-0.5,0.1c0,0-0.2-0.3-0.5-0.4c-0.1,0-0.2,0-0.2-0.1c0,0,0,0,0,0s0.1-0.2,0.5-0.1
						C10.8,23,11.2,23.1,11.3,23.4z"/>
					<path class="st5" d="M10.9,23.6c-0.1,0-0.1,0-0.1,0l0,0c0-0.1-0.2-0.3-0.4-0.3c-0.1,0-0.2,0-0.2-0.1c0,0,0,0,0,0h0
						c0,0,0.1-0.1,0.2-0.1c0,0,0.1,0,0.2,0h0c0.2,0.1,0.5,0.2,0.7,0.4v0C11.3,23.5,11,23.6,10.9,23.6z M10.8,23.5
						C10.8,23.5,10.8,23.5,10.8,23.5c0.2,0,0.4-0.1,0.5-0.1c-0.1-0.2-0.4-0.3-0.6-0.4h0c-0.1,0-0.1,0-0.2,0c-0.1,0-0.2,0.1-0.2,0.1
						l0,0l0,0c0,0,0.1,0,0.1,0C10.5,23.1,10.7,23.4,10.8,23.5C10.7,23.5,10.7,23.5,10.8,23.5L10.8,23.5z"/>
				</g>
				<path class="st9" d="M10.1,23c0,0,0.1-0.2,0.5-0.1c0.2,0.1,0.5,0.1,0.7,0.4c0,0,0,0,0,0c-0.1-0.1-0.1-0.2-0.3-0.3
					c-0.1,0-0.2-0.1-0.3,0c-0.1,0.1,0,0.2,0,0.3c0,0.1,0.1,0.1,0.1,0.2c0,0,0,0-0.1,0C10.6,23.5,10.4,23.2,10.1,23
					C10.1,23.1,10.1,23.1,10.1,23C10.1,23.1,10.1,23,10.1,23z"/>
			</g>
			<g class="st10">
				<path class="st7" d="M10.1,23.1c0,0,0.1,0,0.2,0.1c0.2,0,0.4,0.3,0.5,0.4c0,0,0.6-0.1,0.5-0.1c-0.1-0.3-0.4-0.4-0.7-0.4
					c0-0.3,0.3-0.4,0.5-0.3c0.2,0,0.3,0.1,0.4,0.4c0.2,0,0.3-0.1,0.3-0.1v-0.2c0,0,0.4-0.1,0.4,0.2c0,0.1,0,0.2,0,0.2
					c-0.1-0.1-0.1-0.3-0.2-0.3c-0.2,0,0,0.3-0.3,0.4c-0.4,0.1-0.3,0-0.4-0.2c0-0.1-0.4-0.3-0.6-0.1c-0.1,0.1,0.5,0.1,0.6,0.6
					c0,0.1-0.6,0.3-0.7,0.2c-0.1-0.1-0.2-0.2-0.3-0.2c-0.1,0,0.2,0.3,0.3,0.6c0,0.2,0.1,0.3,0.7,0.1c-0.1,0-0.3,0.1-0.5,0.1
					c-0.1,0-0.2,0-0.2,0c0-0.2-0.1-0.9-0.7-1.1C9.9,23.2,10,23.1,10.1,23.1z"/>
			</g>
			<g class="st11">
				<path class="st12" d="M8.2,23.9C8.2,23.9,8.2,23.9,8.2,23.9c0.1-0.4,0.3-0.9,1.4-0.7h0c0.3,0.1,0.4,0.3,0.5,0.5l0,0
					c0,0-0.3-0.3-0.8-0.3c-0.6,0-0.9,0.8,0,1C8.8,24.3,8.4,24.1,8.2,23.9z"/>
			</g>
			<g class="st11">
				<path class="st12" d="M8.2,23.9C8.2,23.9,8.2,23.9,8.2,23.9c0.1-0.4,0.3-0.9,1.4-0.7h0c0,0,0.1,0,0.1,0.1c-0.2,0-0.6,0-0.9,0
					c-0.4,0.2-0.5,0.5-0.3,0.8C8.4,24.1,8.3,24,8.2,23.9z"/>
			</g>
			<g>
				<g class="st10">
					<path class="st4" d="M10,24.2c-0.2,0-0.3-0.1-0.4-0.3c0-0.1,0-0.3,0.2-0.3c0.1,0,0.2,0,0.3,0.1l0,0c0,0,0,0,0.1,0.1
						C10.3,24,10.3,24.2,10,24.2z"/>
				</g>
				<g class="st10">
					<path class="st4" d="M9.4,24.2c0,0,0.1,0,0.1,0l0,0l0,0l0,0c0,0,0,0,0,0c0,0,0,0,0-0.1s0,0,0,0h0C9.4,24,9.3,24.1,9.4,24.2
						C9.3,24.2,9.4,24.2,9.4,24.2z"/>
				</g>
			</g>
			<path class="st13" d="M12.2,23.5c0,0-0.3,0.3-0.9,0.5c-0.3,0.1,0,0.1,0.4-0.1C12.2,23.7,12.3,23.4,12.2,23.5z"/>
		</g>
	</g>
	<g>
		<g>
			<g>
				<path class="st0" d="M15.9,22.7c-0.2-1.3-0.1-2.6-0.6-4.2c-0.3-1.1-0.3-2-0.3-2l-1.6,0.2c0,0,0.1,0.7,0.4,1.4
					c0.2,0.7,0.9,3.6,1.1,4.6C14.9,22.8,15.3,23.3,15.9,22.7z"/>
				<path class="st1" d="M15.3,23L15.3,23c-0.3,0-0.4-0.2-0.5-0.2l0,0c-0.1-1-0.8-3.9-1.1-4.6c-0.2-0.7-0.4-1.4-0.4-1.4l0,0l0,0
					l1.6-0.1l0,0l0,0c0,0,0,0.8,0.3,2c0.2,0.9,0.3,1.7,0.4,2.5c0,0.5,0.1,1.1,0.2,1.6l0,0C15.7,22.9,15.5,23,15.3,23z M14.9,22.8
					c0,0,0.2,0.2,0.4,0.2l0,0c0.2,0,0.3-0.1,0.5-0.2c-0.1-0.5-0.1-1.1-0.2-1.6c0-0.8-0.1-1.6-0.4-2.5c-0.2-1-0.3-1.8-0.3-2l-1.6,0.1
					c0,0.1,0.1,0.7,0.4,1.4C14,18.9,14.7,21.8,14.9,22.8z"/>
			</g>
			<path class="st1" d="M14.2,18c-0.1,0.1-0.2,0.1-0.3,0v0c0,0,0.1,0,0.2,0C14.2,18.1,14.2,18.1,14.2,18C14.3,18,14.3,18,14.2,18
				C14.3,18,14.3,18,14.2,18z"/>
			<g>
				<path class="st2" d="M15,16.5l-1.6,0.2c0,0,0,0.1,0,0.3c0.1,0,0.5,0,0.9,0c0.3,0,0.4,0.2,0.4,0.5c0,0.3-0.6,0.6-0.8,0.5
					c0.2,0.1,0.4,0,0.6,0c0.2-0.1,0.6,0.6,0.7,1.8c0.1,1.2,0.1,2.6-0.1,2.6s-0.2-0.1-0.7-1.7c0.2,0.8,0.4,1.7,0.4,2.1
					c0,0,0.4,0.5,1,0c-0.2-1.3-0.1-2.6-0.6-4.2C15,17.4,15,16.5,15,16.5z"/>
			</g>
			<path class="st3" d="M14.7,21.2c0-0.1,0-0.2-0.1-0.3c0-0.2-0.1-0.4-0.2-0.6c-0.1-0.4-0.2-0.9-0.3-1.3c0-0.2-0.1-0.5-0.2-0.7l0,0
				c0.1,0.4,0.2,0.9,0.3,1.3c0.1,0.4,0.2,0.9,0.3,1.3C14.6,20.9,14.6,21.1,14.7,21.2c0,0,0,0.1,0,0.2c0,0,0,0.1,0,0.2c0,0,0,0,0,0
				C14.7,21.4,14.7,21.3,14.7,21.2z"/>
			<path class="st3" d="M13.9,17.9c0,0,0-0.1-0.1-0.1c0,0,0-0.1-0.1-0.2c0-0.1-0.1-0.2-0.1-0.3l0,0c0,0.1,0,0.2,0.1,0.4
				C13.7,17.7,13.7,17.7,13.9,17.9C13.7,17.8,13.8,17.9,13.9,17.9C13.8,18,13.9,17.9,13.9,17.9z"/>
		</g>
		<g>
			<g>
				<path class="st4" d="M14.7,24.3c1-0.2,1.5-0.7,1.6-0.9l0,0c0.1,0.3,0.2,0.4-0.9,0.9c-1.1,0.5-1.6,0.5-2.5,0.3
					c-0.7-0.1-0.9-0.4-0.8-0.6C12.4,24.3,13.3,24.6,14.7,24.3z"/>
				<path class="st5" d="M14.4,24.7c-0.4,0.1-0.8,0.1-1.4,0c-0.6-0.1-0.9-0.3-0.9-0.6l0,0c0,0,0,0,0,0c0.2,0.2,1,0.5,2.3,0.3l0,0
					c0,0,0.1,0,0.2,0c1-0.2,1.5-0.7,1.6-0.9c0,0,0,0,0,0l0,0l0,0c0.1,0.3,0.1,0.5-0.9,0.9C15,24.6,14.7,24.7,14.4,24.7z M12.1,24.1
					c0,0.2,0.1,0.4,0.8,0.5c0.5,0.1,0.9,0.1,1.3,0c0.3,0,0.6-0.2,1.1-0.4c1-0.4,1-0.6,0.9-0.8c-0.2,0.2-0.6,0.6-1.6,0.9
					c0,0-0.1,0-0.2,0l0,0C13.4,24.6,12.5,24.4,12.1,24.1z"/>
			</g>
			<path class="st6" d="M16.2,23.5c0,0,0.1-0.1,0.1-0.1l0,0c0,0.1,0.1,0.3,0,0.4C16.3,23.7,16.3,23.6,16.2,23.5z"/>
			<path class="st6" d="M16,23.8c0,0,0.1-0.1,0.2-0.1c0,0.1,0,0.2,0.1,0.3c0,0-0.1,0.1-0.2,0.1C16,23.9,16,23.8,16,23.8z"/>
			<path class="st6" d="M15.6,24c0.1,0,0.2-0.1,0.3-0.1c0,0.1,0,0.2,0.1,0.3c-0.1,0-0.1,0.1-0.2,0.1C15.7,24.1,15.7,24,15.6,24z"/>
			<path class="st6" d="M15.2,24.2c0.1,0,0.2-0.1,0.4-0.1c0,0.1,0,0.1,0.1,0.2c0,0-0.1,0-0.2,0.1c0,0-0.1,0-0.2,0.1
				C15.2,24.3,15.2,24.2,15.2,24.2z"/>
			<path class="st6" d="M14.8,24.3c0.1,0,0.2,0,0.3-0.1c0,0.1,0,0.2,0.1,0.2c-0.1,0-0.2,0-0.2,0.1C14.9,24.5,14.9,24.4,14.8,24.3z"
				/>
			<path class="st6" d="M14.4,24.4c0.1,0,0.2,0,0.3,0h0c0,0.1,0.1,0.2,0.1,0.3c-0.1,0-0.2,0.1-0.4,0.1
				C14.5,24.6,14.4,24.5,14.4,24.4z"/>
			<path class="st6" d="M14,24.4c0.1,0,0.2,0,0.3,0c0,0.1,0,0.2,0,0.3c-0.1,0-0.2,0-0.3,0C14,24.6,14,24.5,14,24.4z"/>
			<path class="st6" d="M13.6,24.4c0.1,0,0.2,0,0.3,0c0,0.1,0,0.2,0.1,0.3c-0.1,0-0.2,0-0.3,0C13.6,24.7,13.6,24.6,13.6,24.4z"/>
			<path class="st6" d="M13.1,24.4c0.1,0,0.2,0,0.4,0c0,0.1,0,0.2,0,0.3c-0.1,0-0.3,0-0.4,0C13.1,24.6,13.1,24.5,13.1,24.4z"/>
			<path class="st6" d="M12.7,24.3c0.1,0,0.2,0,0.3,0c0,0.1,0,0.2,0,0.3c0,0,0,0-0.1,0c-0.1,0-0.2,0-0.2,0
				C12.7,24.5,12.7,24.4,12.7,24.3z"/>
			<path class="st6" d="M12.3,24.4c-0.1-0.1-0.1-0.2-0.1-0.3c0,0,0.1,0.1,0.1,0.1C12.3,24.2,12.3,24.3,12.3,24.4z"/>
			<path class="st6" d="M12.4,24.2c0.1,0,0.1,0.1,0.3,0.1c0,0.1,0,0.1,0,0.2c-0.1,0-0.2-0.1-0.2-0.1C12.4,24.4,12.4,24.3,12.4,24.2z
				"/>
			<g>
				<path class="st4" d="M12.1,23.9c0-0.3,0.2-0.8,1.4-0.7h0c0.6,0.2,0.8,0.8,0.8,1.1c-1.2,0.2-2,0-2.3-0.3
					C12.1,24,12.1,24,12.1,23.9z"/>
				<path class="st5" d="M14.4,24.4L14.4,24.4c-1.1,0.2-2,0-2.3-0.3l0,0c0,0,0,0,0-0.1c0-0.2,0.2-0.6,0.7-0.7c0.2,0,0.4,0,0.6,0h0
					l0,0C14.2,23.4,14.4,24.1,14.4,24.4C14.5,24.4,14.4,24.4,14.4,24.4z M12.1,24c0.3,0.3,1.1,0.5,2.2,0.3c0-0.3-0.2-0.9-0.8-1.1h0
					c-0.2,0-0.4,0-0.6,0C12.3,23.4,12.2,23.7,12.1,24C12.2,24,12.2,24,12.1,24z"/>
			</g>
			<g>
				<g>
					<path class="st7" d="M13.9,23.1c0,0,0.1,0,0.2,0c0.2,0,0.4,0.3,0.5,0.3c0,0,0.5-0.1,0.5-0.2C15,23,14.7,23,14.5,22.9
						c0-0.3,0.3-0.4,0.5-0.3c0.2,0,0.3,0.1,0.5,0.4c0.2,0,0.3-0.1,0.3-0.1v-0.2c0,0,0.4-0.1,0.4,0.2s0.1,0.3,0.2,0.6
						c-0.1,0.2-0.6,0.6-1.6,0.9c-0.1,0-0.2,0-0.2,0c0-0.2-0.2-0.9-0.8-1.1C13.8,23.2,13.9,23.2,13.9,23.1z"/>
					<path class="st5" d="M14.5,24.4L14.5,24.4C14.4,24.4,14.4,24.4,14.5,24.4L14.5,24.4c-0.1-0.2-0.2-0.9-0.8-1.1c0,0,0,0,0,0
						c0,0,0,0,0,0h0c0.1,0,0.1,0,0.2-0.1l0,0l0,0c0,0,0.1,0,0.1,0c0.2,0,0.4,0.2,0.5,0.3l0,0c0,0,0,0,0.1,0c0.1,0,0.3-0.1,0.4-0.1
						c-0.1-0.2-0.4-0.3-0.6-0.4h0c0,0,0,0,0,0c0-0.3,0.3-0.4,0.5-0.4c0.2,0,0.3,0.1,0.5,0.4c0,0,0,0,0.1,0c0.1,0,0.1-0.1,0.1-0.1
						v-0.2c0,0,0,0,0,0c0,0,0,0,0.1,0c0.1,0,0.2,0,0.3,0c0,0,0.1,0.1,0.1,0.2c0,0.2,0,0.3,0.1,0.4c0,0,0,0.1,0.1,0.2c0,0,0,0,0,0
						c-0.1,0.2-0.6,0.6-1.7,0.9C14.6,24.3,14.6,24.4,14.5,24.4z M14.5,24.3L14.5,24.3c0.1,0,0.1,0,0.2,0c1-0.2,1.4-0.6,1.6-0.9
						c0-0.1,0-0.1-0.1-0.2c0-0.1-0.1-0.2-0.1-0.4c0,0,0-0.1-0.1-0.1c-0.1,0-0.2,0-0.2,0h0v0.2l0,0c0,0,0,0.1-0.2,0.1
						c0,0-0.1,0-0.1,0l0,0c-0.2-0.3-0.2-0.3-0.4-0.3c-0.2,0-0.4,0.1-0.4,0.3l0,0c0.2,0,0.5,0.1,0.7,0.4v0c0,0-0.3,0.1-0.4,0.2
						c-0.1,0-0.1,0-0.1,0l0,0c0-0.1-0.2-0.3-0.4-0.3c-0.1,0-0.1,0-0.2,0c0,0-0.1,0-0.2,0C14.2,23.5,14.4,24,14.5,24.3z"/>
				</g>
				<g>
					<path class="st8" d="M15.1,23.4c0,0.1-0.5,0.2-0.5,0.2c0,0-0.2-0.3-0.5-0.3c-0.1,0-0.2,0-0.2,0c0,0,0,0,0,0s0.1-0.2,0.4-0.1
						C14.7,23,15,23.1,15.1,23.4z"/>
					<path class="st5" d="M14.7,23.6c-0.1,0-0.1,0-0.1,0l0,0c0-0.1-0.2-0.3-0.4-0.3c-0.1,0-0.2,0-0.2-0.1c0,0,0,0,0,0c0,0,0,0,0,0
						c0,0,0.1-0.1,0.2-0.1c0,0,0.1,0,0.2,0h0c0.2,0,0.5,0.1,0.7,0.4v0C15.1,23.5,14.9,23.6,14.7,23.6z M14.6,23.5
						C14.6,23.5,14.7,23.5,14.6,23.5c0.2,0,0.4-0.1,0.5-0.1C15,23.1,14.7,23,14.5,23h0c-0.1,0-0.1,0-0.2,0c-0.1,0-0.2,0.1-0.2,0.1
						l0,0l0,0c0,0,0.1,0,0.1,0C14.3,23.2,14.5,23.4,14.6,23.5L14.6,23.5L14.6,23.5z"/>
				</g>
				<path class="st9" d="M13.9,23.1c0,0,0.1-0.2,0.4-0.1c0.2,0,0.6,0.1,0.7,0.4c0,0,0,0,0,0c-0.1-0.1-0.2-0.2-0.3-0.3
					c-0.1,0-0.2-0.1-0.3,0c0,0.1,0,0.2,0,0.3c0,0.1,0.1,0.1,0.1,0.2c0,0,0,0-0.1,0c0,0-0.2-0.3-0.5-0.3C14,23.2,13.9,23.2,13.9,23.1
					C13.9,23.1,13.9,23.1,13.9,23.1z"/>
			</g>
			<g class="st10">
				<path class="st7" d="M13.9,23.1c0,0,0.1,0,0.2,0c0.2,0,0.4,0.3,0.5,0.3c0,0,0.5-0.1,0.5-0.2C15,23,14.7,23,14.5,22.9
					c0-0.3,0.3-0.4,0.5-0.3c0.2,0,0.3,0.1,0.5,0.4c0.2,0,0.3-0.1,0.3-0.1v-0.2c0,0,0.4-0.1,0.4,0.2c0,0.1,0,0.2,0,0.2
					c-0.1-0.1-0.1-0.3-0.3-0.3s0.1,0.3-0.3,0.4c-0.3,0.1-0.3,0-0.4-0.2c-0.1-0.1-0.4-0.3-0.6-0.1c0,0.1,0.6,0.1,0.6,0.6
					c0,0.1-0.6,0.3-0.7,0.2c-0.1-0.1-0.2-0.2-0.3-0.2c-0.1,0,0.3,0.3,0.3,0.6c0,0.2,0.1,0.3,0.7,0.1c-0.1,0-0.3,0.1-0.5,0.1
					c-0.1,0-0.2,0-0.2,0c0-0.2-0.2-0.9-0.8-1.1C13.8,23.2,13.9,23.2,13.9,23.1z"/>
			</g>
			<g class="st11">
				<path class="st12" d="M12.1,24C12.1,24,12.1,24,12.1,24c0-0.4,0.2-0.9,1.4-0.8h0c0.3,0.1,0.5,0.3,0.6,0.5l0,0
					c0,0-0.3-0.3-0.8-0.3c-0.6,0-0.8,0.8,0,1C12.8,24.4,12.3,24.2,12.1,24z"/>
			</g>
			<g class="st11">
				<path class="st12" d="M12.1,24C12.1,24,12.1,24,12.1,24c0-0.4,0.2-0.9,1.4-0.8h0c0,0,0.1,0,0.1,0.1c-0.2,0-0.6,0-0.9,0.1
					c-0.4,0.2-0.5,0.6-0.3,0.8C12.3,24.2,12.2,24.1,12.1,24z"/>
			</g>
			<g>
				<g class="st10">
					<path class="st4" d="M13.9,24.3c-0.2,0-0.3-0.1-0.4-0.2c-0.1-0.1,0-0.3,0.1-0.3c0.1,0,0.2,0,0.3,0.1l0,0c0,0,0,0,0.1,0.1
						C14.2,24,14.2,24.2,13.9,24.3z"/>
				</g>
				<g class="st10">
					<path class="st4" d="M13.3,24.3c0,0,0.1,0,0.1,0l0,0l0,0l0,0c0,0,0,0,0,0c0,0,0,0,0-0.1c0,0,0,0,0,0h0
						C13.3,24.1,13.3,24.2,13.3,24.3C13.2,24.3,13.3,24.3,13.3,24.3z"/>
				</g>
			</g>
			<path class="st13" d="M16.1,23.4c0,0-0.3,0.3-0.9,0.5c-0.3,0.1,0,0.1,0.4-0.1C16.1,23.6,16.2,23.3,16.1,23.4z"/>
		</g>
	</g>
	<g>
		<g>
			<g>
				<path class="st14" d="M12.8,16.4c0,0,0,0,0,0.3c0,0.2,0.3,0.2,0.9,0.2s1.9-0.3,1.9-0.8c0-0.3-0.1-0.3-0.2-0.3
					C14.3,16.8,12.8,16.4,12.8,16.4z"/>
				<path class="st15" d="M13.7,16.9L13.7,16.9c-0.1,0-0.3,0-0.4,0c-0.3,0-0.6,0-0.6-0.2c0-0.3,0-0.3,0-0.3l0,0c0,0,1.4,0.4,2.5-0.6
					l0,0c0,0,0.1,0,0.1,0c0,0,0.1,0.1,0.1,0.3c0,0.1,0,0.2-0.1,0.2C15.1,16.7,14.2,16.9,13.7,16.9z M12.8,16.4c0,0,0,0,0,0.2
					c0,0.1,0.2,0.2,0.5,0.2c0.1,0,0.2,0,0.3,0c0.4,0,1.4-0.2,1.8-0.5c0.1-0.1,0.1-0.1,0.1-0.2c0-0.2,0-0.3-0.1-0.3c0,0,0,0-0.1,0
					C14.3,16.8,12.9,16.4,12.8,16.4z"/>
			</g>
			<path class="st16" d="M13.2,16.5c-0.2,0-0.4,0-0.4,0s0,0,0,0.3c0,0.2,0.2,0.2,0.5,0.2C13.3,16.7,13.3,16.6,13.2,16.5z"/>
			<path class="st16" d="M15.4,15.8c-0.1,0.1-0.2,0.2-0.4,0.3c0,0.2,0,0.3,0.1,0.5c0.3-0.1,0.5-0.3,0.5-0.5
				C15.6,15.8,15.5,15.7,15.4,15.8z"/>
			<g>
				<path class="st14" d="M15.5,13.7c-0.5,0.2-3.4,1.5-5.3,0.3c0,0,0,1.4,0,1.9c0,0,0.4,0.3,2.4,0.4c0,0,0-0.5,0.1-0.6
					c0,0.1,0.1,0.6,0.1,0.6s1.4,0.4,2.6-0.6C15.4,15.2,15.5,14.3,15.5,13.7z"/>
				<path class="st15" d="M13.5,16.5c-0.4,0-0.7-0.1-0.7-0.1l0,0c0,0,0-0.4-0.1-0.6c0,0.2-0.1,0.6-0.1,0.6l0,0c-2,0-2.4-0.4-2.4-0.4
					l0,0c0-0.5,0-1.9,0-2l0,0l0,0c0.8,0.5,1.9,0.6,3.2,0.4c1.1-0.2,2-0.7,2.1-0.7l0,0l0,0c0,0.5,0,1.3-0.1,2.1l0,0
					C14.8,16.4,14.1,16.5,13.5,16.5z M12.8,16.4c0.1,0,1.5,0.3,2.5-0.6c0-0.7,0.1-1.5,0.1-2c-0.2,0.1-1,0.5-2.1,0.7
					c-1.3,0.2-2.3,0.1-3.2-0.4c0,0.2,0,1.4,0,1.9c0,0,0.5,0.3,2.4,0.4c0-0.1,0-0.5,0.1-0.6l0,0l0,0C12.8,15.9,12.8,16.3,12.8,16.4z"
					/>
			</g>
		</g>
		<g>
			<path class="st14" d="M12.9,15.5c-0.1,0-0.3,0-0.5,0c-0.1,0-0.3-0.1-0.4-0.1h0C12.2,15.6,12.5,15.6,12.9,15.5
				C12.9,15.6,12.9,15.5,12.9,15.5z"/>
			<path class="st14" d="M10.8,15.9c-0.1,0-0.2-0.1-0.2-0.2c0-0.1,0-0.3-0.1-0.4l0,0c0,0.1,0,0.3,0,0.5C10.6,15.9,10.7,16,10.8,15.9
				C10.8,16,10.9,15.9,10.8,15.9z"/>
			<path class="st14" d="M13.2,16C13.2,16,13.2,15.9,13.2,16c-0.1-0.1-0.1-0.2-0.2-0.2c0,0,0,0,0,0c0,0,0,0.1,0,0.1
				C13.1,16,13.1,16.1,13.2,16C13.2,16,13.2,16.1,13.2,16c0,0,0,0.1,0,0.1C13.3,16.2,13.2,16.1,13.2,16z"/>
		</g>
		<g class="st10">
			<path class="st14" d="M15.5,13.7c-0.5,0.2-3.4,1.5-5.3,0.3c0,0,0,1.4,0,1.9c0,0,0.4,0.3,2.4,0.4c0,0,0-0.5,0.1-0.6
				c0,0.1,0.1,0.6,0.1,0.6s1.4,0.4,2.6-0.6C15.4,15.2,15.5,14.3,15.5,13.7z M14,16.2c-0.8,0.1-1,0.1-1-0.5c0,0,0.3,0,0.5-0.2
				c-0.8,0.2-0.9,0.3-1.4,0.1c0.5,0.2,0.4,0.3,0.4,0.5s0,0.1-0.7,0.1c-0.7,0-1.2,0-1.2-0.3s-0.1-0.7,0-0.6s0.2-0.1,0-0.4
				c0,0,1.4,1,3.6,0.2c0.6-0.2,0.8-0.2,0.5,0.1c-0.2,0.3,0.1,0.1,0.2,0.4C14.9,15.8,14.8,16.1,14,16.2z"/>
		</g>
		<g>
			<path class="st14" d="M10.1,16.3c0,0.2,0,0.3,0.3,0.4c0.3,0.1,1.9,0.2,2.1,0.1c0.2,0,0.2-0.2,0.2-0.3c0-0.1-0.1-0.1-0.1-0.1
				c-2,0-2.4-0.4-2.4-0.4S10.1,16.1,10.1,16.3z"/>
			<path class="st15" d="M12.4,16.9c-0.3,0-1.7-0.1-2.1-0.2C10,16.6,10,16.5,10,16.3v0c0-0.2,0.1-0.3,0.1-0.3l0,0
				c0,0,0.4,0.3,2.4,0.4h0c0,0,0,0,0,0.1C12.7,16.6,12.7,16.9,12.4,16.9C12.5,16.9,12.5,16.9,12.4,16.9z M10.1,16.3L10.1,16.3
				L10.1,16.3c0,0.2,0,0.3,0.3,0.3c0.3,0.1,1.9,0.2,2.1,0.1c0.2,0,0.2-0.2,0.2-0.3c0-0.1,0-0.1-0.1-0.1c-1.8,0-2.3-0.3-2.4-0.4
				C10.2,16,10.1,16.1,10.1,16.3L10.1,16.3z"/>
		</g>
		<path class="st16" d="M10.5,16.1C10.3,16,10.2,16,10.2,16s-0.1,0-0.1,0.3c0,0.2,0,0.3,0.3,0.4h0C10.5,16.5,10.5,16.3,10.5,16.1z"
			/>
		<path class="st16" d="M12.6,16.4c-0.2,0-0.3,0-0.5,0c0,0.1,0,0.3,0,0.4c0.2,0,0.3,0,0.4,0C12.7,16.8,12.7,16.6,12.6,16.4
			C12.7,16.4,12.6,16.4,12.6,16.4z"/>
	</g>
	<g>
		<g>
			<g>
				<path class="st17" d="M15.7,13c-0.2-0.3-0.4-0.6-0.4-0.6c0.1-0.8,0.1-1.4,0.1-1.4s0.4-0.8,0.1-1.9c-0.4-1.2-1.7-1.3-1.7-1.3
					c-0.1,0-0.1,0-0.2,0c0,0.4-0.3,1.1-1.1,1.1c-0.7,0-0.7-0.6-0.7-0.9c0,0,0,0,0,0S11.2,8,11,8.1c-0.2,0.1-0.4,0.1-0.6,0.5
					C10.1,8.9,9.4,10,9.4,10s0.6,0,1.2,0.2l0,0.3l-0.2,1.7c-0.1,1,0,1.4,0,1.4s-0.1,0.1-0.2,0.2c-0.1,0.2,0,0.3,0,0.3
					s0.4,0.6,2.1,0.6c1.7,0,3.1-0.7,3.1-0.7C16.1,13.8,15.9,13.2,15.7,13z"/>
				<path class="st18" d="M12.3,14.8C12.2,14.8,12.2,14.8,12.3,14.8c-1.7,0-2.1-0.6-2.2-0.7c0,0-0.1-0.1,0-0.3
					c0-0.1,0.1-0.2,0.2-0.2c0,0-0.1-0.5,0-1.4l0.2-1.7l0-0.3C10,9.9,9.5,10,9.5,10l0,0l0,0c0,0,0.7-1.1,0.8-1.4
					c0.1-0.3,0.3-0.3,0.5-0.4c0,0,0,0,0,0c0.2-0.1,0.7-0.2,0.8-0.2l0,0c0,0,0,0,0,0l0,0l0,0c0,0.1,0,0.5,0.1,0.7
					c0.1,0.1,0.3,0.2,0.5,0.2l0,0c0.7,0,1-0.6,1-1.1l0,0c0.1,0,0.1,0,0.2,0c0,0,1.3,0.1,1.7,1.3c0.3,1-0.1,1.8-0.1,1.9
					c0,0,0,0.6-0.1,1.4c0,0,0.2,0.3,0.4,0.6l0,0c0.1,0.2,0.2,0.4,0.2,0.6c0,0.2-0.2,0.4-0.5,0.5C15.4,14.1,13.9,14.8,12.3,14.8z
					 M9.6,10c0.2,0,0.6,0,1,0.2l0,0l0,0.3l-0.2,1.7c-0.1,1,0,1.4,0,1.4l0,0c0,0-0.1,0.1-0.2,0.2c-0.1,0.2,0,0.2,0,0.2l0,0
					c0,0,0.4,0.6,2.1,0.6c0,0,0,0,0.1,0c1.6,0,3-0.7,3-0.7c0.2-0.1,0.4-0.3,0.5-0.5c0-0.2,0-0.4-0.2-0.6c-0.2-0.3-0.4-0.6-0.4-0.6
					l0,0c0.1-0.8,0.1-1.4,0.1-1.4l0,0c0,0,0.4-0.9,0.1-1.9c-0.4-1.2-1.6-1.3-1.6-1.3c0,0-0.1,0-0.2,0c0,0.2-0.1,0.5-0.2,0.7
					c-0.2,0.2-0.4,0.4-0.8,0.4l0,0c-0.2,0-0.4-0.1-0.6-0.2c-0.2-0.2-0.2-0.5-0.1-0.7h0c0,0-0.5,0-0.7,0.2c0,0,0,0-0.1,0
					c-0.2,0.1-0.4,0.1-0.5,0.4C10.2,8.9,9.6,9.8,9.6,10C9.5,10,9.6,10,9.6,10z"/>
			</g>
			<path class="st19" d="M11.7,7.9c0,0-0.5,0-0.7,0.2c-0.2,0.1-0.4,0.1-0.6,0.5C10.1,8.9,9.4,10,9.4,10s0.6,0,1.2,0.2l0,0.3
				l-0.2,1.7c0,0.2,0,0.4,0,0.5l0,0c0,0,0-0.3,0.4-0.4c0.4-0.1,0.4,0,1.5,0.4c1,0.4,1.5,0.1,1.9,0c0.4-0.2,0.9-0.1,0.5,0.5
				c-0.1,0.2-0.3,0.6-0.8,0.8c0,0,0.7-0.1,0.9-0.3c0.2-0.2,0.5,0.5-1.1,0.8s-2.3,0-2.7-0.1c-0.3-0.2,0-0.2,0.2-0.1
				c0.2,0.1-0.6-0.3-0.9-1c0,0.3,0.1,0.5,0.1,0.5s-0.1,0.1-0.2,0.2c-0.1,0.2,0,0.3,0,0.3s0.4,0.6,2.1,0.6c1.7,0,3.1-0.7,3.1-0.7
				c0.7-0.3,0.5-0.8,0.3-1.1c-0.2-0.3-0.4-0.6-0.4-0.6c0.1-0.8,0.1-1.4,0.1-1.4s0.4-0.8,0.1-1.9c-0.4-1.2-1.7-1.3-1.7-1.3 M15.2,8.8
				c0.3,0.7,0.1,2.1-0.5,2.1c-0.6,0-0.5-0.7-0.4-0.9c0.1-0.4,0.5-0.6,0.5-0.6s-0.1,0-0.3,0c-0.1,0,0,0,0-0.4c0-0.1-0.1,0.5-1.2,0.7
				c-0.6,0.1-0.7,0.7-1.3,0.7c-0.4,0-0.5-0.3-0.8-0.5c-0.3-0.2-0.2-0.8-0.2-0.8c-0.1,0.1-0.2,0.4-0.2,0.4c-0.1-0.2-0.3-0.2-0.3-0.2
				c0.2,0.4-0.1,0.9-0.3,0.7c-0.3-0.2,0-0.6,0.4-1.2c0.2-0.3,0.3-0.4,0.7-0.5C11.5,8,11.7,8,11.7,8.2c0,0.2,0,0.7,0.8,0.8
				s1.1-0.5,1.2-1C13.7,7.8,14.7,7.9,15.2,8.8z"/>
		</g>
		<g>
			<g>
				<g>
					<g>
						<path class="st18" d="M14.4,9c0,0,0,0.1,0,0.2c0,0,0,0.1,0,0.2v0.1l0,0.1c0,0,0,0,0,0.1l0,0.1c0,0,0,0,0,0.1l0,0.1
							c0,0,0,0.1-0.1,0.2c0,0.1-0.1,0.3-0.2,0.4c0,0,0,0,0,0l0,0c0,0-0.1,0-0.1,0c0,0-0.1,0-0.1,0.1l0,0l0,0l0,0l0,0l0,0l0,0
							c0,0,0,0,0,0c0,0,0,0,0,0.1c0,0,0,0.1,0,0.1c0,0.1,0.1,0.2,0.2,0.3c0.1,0.1,0.1,0.1,0.2,0.2c0.1,0.1,0.1,0.1,0.2,0.2
							c0,0,0.1,0,0.1,0.1c0,0,0.1,0,0.1,0c0,0,0.1,0,0.1,0c0,0,0,0,0,0c0,0,0,0,0,0c0,0,0,0,0,0c0,0,0-0.1,0-0.1s0-0.1,0-0.1l0,0
							l0,0l0.1-0.2c0,0,0,0,0-0.1l0-0.1l0.2-0.4L15,11c0,0.1,0,0.1-0.1,0.2l-0.1,0.2l0,0c0,0,0,0.1,0,0.2c0,0,0,0.1,0,0.1
							c0,0,0,0,0,0c0,0,0,0,0,0c0,0,0,0-0.1,0c0,0-0.1,0-0.2,0c0,0-0.1,0-0.1,0c0,0-0.1,0-0.1-0.1c-0.1,0-0.2-0.1-0.3-0.2
							c-0.1-0.1-0.1-0.1-0.2-0.2c-0.1-0.1-0.1-0.2-0.2-0.3c0,0,0-0.1,0-0.1c0,0,0,0,0-0.1v0l0,0l0,0l0,0l0,0l0,0l0,0
							c0,0,0.1-0.1,0.1-0.1c0,0,0.1,0,0.2,0h0c0-0.1,0.1-0.2,0.2-0.4c0,0,0-0.1,0.1-0.2l0-0.1c0,0,0,0,0-0.1l0-0.1c0,0,0,0,0-0.1
							l0-0.1l0-0.1c0,0,0-0.1,0-0.2C14.4,9.1,14.4,9.1,14.4,9z"/>
					</g>
					<g>
						<path class="st18" d="M15.2,12.1C15.2,12.1,15.2,12.1,15.2,12.1c0,0.1,0,0.1,0,0.2c0,0,0,0.1,0,0.2c0,0.1,0,0.1,0,0.2
							c0,0.1,0,0.1,0,0.2c0,0.1,0,0.1,0,0.2c0,0,0,0.1,0,0.1c0,0,0,0,0,0s0,0,0,0c0,0,0-0.1,0-0.1s0-0.1,0-0.2c0-0.1,0-0.1,0-0.2
							c0,0,0-0.1,0-0.1c0,0,0-0.1,0-0.1c0-0.1,0-0.1,0-0.2C15.3,12.3,15.3,12.3,15.2,12.1C15.2,12.1,15.2,12.1,15.2,12.1z"/>
					</g>
					<g>
						<path class="st18" d="M10.3,13.3L10.3,13.3c0,0,0,0.1,0,0.1c0,0,0,0.1,0,0.1s0,0,0,0.1c0,0,0,0,0,0.1c0,0,0,0,0,0.1
							c0,0,0,0,0,0.1c0,0,0,0,0,0l0,0c0,0,0,0,0,0c0,0,0,0,0,0v0c0,0,0,0,0,0c0,0,0,0,0,0l0,0l0,0l0,0c0,0,0-0.1-0.1-0.1
							c0,0,0-0.1,0-0.2c0,0,0-0.1,0-0.1C10.2,13.3,10.3,13.3,10.3,13.3z"/>
					</g>
					<g>
						<path class="st18" d="M14.2,9.9C14.2,9.9,14.2,9.9,14.2,9.9c0-0.1,0.1-0.1,0.1-0.2s0-0.1,0.1-0.1c0,0,0,0,0.1-0.1l0,0
							c0,0,0,0,0,0c0,0,0,0,0.1,0h0l0,0l0,0l0,0l0,0l0,0l0,0c0,0-0.1,0.1-0.1,0.2C14.2,9.9,14.2,9.9,14.2,9.9z"/>
					</g>
					<g>
						<g>
							<path class="st18" d="M10.8,9C10.8,9,10.8,9.1,10.8,9c0,0,0,0.1,0,0.1c0,0,0,0.1,0,0.1c0,0,0,0.1,0,0.1c0,0,0,0.1,0,0.1
								c0,0,0,0.1,0,0.1c0,0,0,0.1,0,0.1v0c0,0,0,0,0,0s0,0,0-0.1c0,0,0-0.1,0-0.1c0,0,0-0.1,0-0.1c0,0,0-0.1,0-0.1c0,0,0-0.1,0-0.1
								C10.8,9.1,10.8,9.1,10.8,9C10.8,9.1,10.8,9,10.8,9z"/>
						</g>
						<path class="st18" d="M10.4,9.2L10.4,9.2C10.4,9.2,10.4,9.2,10.4,9.2l0.1,0.1c0,0,0,0,0,0c0,0,0,0,0,0c0,0,0,0,0,0v0
							c0,0,0,0,0,0.1s0,0.1,0,0.1s0,0,0-0.1v0v0c0,0,0,0,0,0c0,0,0,0,0,0c0,0,0,0,0,0C10.5,9.3,10.5,9.3,10.4,9.2
							C10.5,9.3,10.5,9.2,10.4,9.2C10.4,9.2,10.4,9.2,10.4,9.2C10.4,9.2,10.4,9.2,10.4,9.2L10.4,9.2z"/>
					</g>
				</g>
				<g>
					<g>
						<path class="st20" d="M9.4,10c0,0-0.2,0-0.2,0.2c0,0.1,0.1,0.2,0.1,0.2s0.5-0.1,1.2,0.1l0-0.3C10,10,9.4,10,9.4,10z"/>
						<path class="st21" d="M10.6,10.6L10.6,10.6c-0.7-0.3-1.2-0.1-1.2-0.1l0,0c0,0-0.1,0-0.1-0.2C9.2,10,9.4,10,9.4,10
							c0,0,0.6,0,1.2,0.2l0,0L10.6,10.6L10.6,10.6L10.6,10.6z M9.7,10.4c0.2,0,0.5,0,0.8,0.1l0-0.3C10,10,9.5,10,9.5,10l0,0
							c0,0-0.2,0-0.2,0.1c0,0.1,0.1,0.1,0.1,0.1C9.3,10.4,9.5,10.4,9.7,10.4z"/>
					</g>
					<path class="st22" d="M9.9,10c0.1,0.1,0,0.2-0.1,0.2c-0.2,0-0.3,0-0.5,0c0,0,0.1,0.1,0.1,0.1s0.5-0.1,1.2,0.1l0-0.3
						C10.4,10.1,10.1,10.1,9.9,10z"/>
				</g>
				<path class="st23" d="M9.9,9.4c0,0,0.2-0.4,0.4-0.7c0.2-0.3,0.3-0.4,0.7-0.5c0,0-0.3,0.1-0.4,0.3C10.4,8.8,9.9,9.4,9.9,9.4z"/>
			</g>
			<g>
				<g>
					<path class="st0" d="M13.2,9.9c-0.7,0.1-0.6,0.7-0.6,0.7c-0.1,0-0.7,0.1-0.7,0.1l-1.3,0.1c-0.2,0-0.4,0-0.5,0.1
						c-0.1,0-0.2,0.1-0.3,0c-0.1-0.1,0-0.2,0-0.2c-0.1-0.2,0.1-0.3,0.1-0.3c0,0,0-0.1,0-0.1c-0.3-0.1-0.5,0-0.5,0
						c-0.4,0.8-0.4,1.4-0.1,1.8c0.3,0.3,1.1,0,1.1,0s1.4-0.3,2.3-0.8c0,0,0.4,0.2,1-0.3l0,0c0-0.1-0.1-0.2,0-0.3
						c0-0.1,0.3-0.1,0.3-0.1s0.1-0.3,0.2-0.6c0,0,0-0.1,0-0.1C14.1,10,13.9,9.7,13.2,9.9z"/>
					<path class="st1" d="M9.7,12.4c-0.2,0-0.4,0-0.5-0.1c-0.3-0.3-0.3-1,0.1-1.8l0,0c0,0,0.2-0.1,0.6,0l0,0c0,0,0,0,0,0l0,0l0,0
						c0,0-0.1,0-0.1,0.2c0,0,0,0.1,0,0.1l0,0c0,0-0.1,0.1,0,0.2c0,0.1,0.2,0,0.3,0c0.1,0,0.3-0.1,0.5-0.1l1.2-0.1
						c0,0,0.5-0.1,0.7-0.1c0-0.1,0-0.6,0.7-0.7c0.5-0.1,0.8,0,0.9,0.1c0,0,0,0,0,0l0,0c0,0,0,0.1,0,0.1c-0.1,0.2-0.2,0.6-0.2,0.6
						l0,0c0,0-0.2,0-0.3,0.1c0,0,0,0.1,0,0.3l0,0c-0.2,0.3-0.5,0.3-0.7,0.3s-0.2,0-0.3,0c-0.9,0.4-2.3,0.8-2.3,0.8
						C10.3,12.3,10,12.4,9.7,12.4z M9.3,10.4c-0.4,0.8-0.4,1.4-0.1,1.7c0.3,0.3,1,0,1,0s1.4-0.3,2.3-0.8l0,0c0,0,0.1,0,0.3,0
						c0.1,0,0.4-0.1,0.6-0.3c0-0.1,0-0.2,0-0.3c0-0.1,0.2-0.1,0.3-0.1c0,0,0.1-0.3,0.2-0.5c0,0,0,0,0-0.1c0,0-0.3-0.2-0.9-0.1l0,0
						c-0.7,0.1-0.6,0.7-0.6,0.7l0,0c-0.1,0-0.7,0.1-0.7,0.1L10.5,11c-0.2,0-0.4,0-0.5,0.1c0,0-0.2,0.1-0.3,0c-0.1-0.1,0-0.2,0-0.2
						c0,0,0-0.1,0-0.1c0-0.1,0.1-0.1,0.1-0.2c0,0,0,0,0,0C9.6,10.3,9.4,10.4,9.3,10.4z M13.2,9.9L13.2,9.9L13.2,9.9z"/>
				</g>
				<g>
					<g>
						<g>
							<path class="st1" d="M14.1,10.1L14.1,10.1C14,10.1,14,10.1,14.1,10.1l-0.1,0h0h0h0h0h0h0h0c-0.1,0-0.1,0-0.1,0s0,0,0.1,0h0h0
								h0c0,0,0,0,0.1,0c0,0,0,0,0.1,0s0,0,0,0L14.1,10.1L14.1,10.1L14.1,10.1C14,10.1,14,10.1,14.1,10.1L14.1,10.1z"/>
						</g>
					</g>
					<g>
						<g>
							<path class="st1" d="M14,10.4c0,0,0,0-0.1,0c0,0-0.1,0-0.1,0h0h0c0,0,0,0,0,0s0,0,0,0c0,0,0,0,0,0c0,0-0.1,0-0.1,0
								s-0.1,0-0.1,0s0,0,0.1,0h0h0h0c0,0,0,0,0.1,0c0,0,0,0,0.1,0s0,0,0,0c0,0,0.1,0,0.1,0C13.9,10.3,13.9,10.3,14,10.4
								C14,10.3,14,10.4,14,10.4z"/>
						</g>
					</g>
					<g>
						<g>
							<path class="st1" d="M13.9,10.6C13.9,10.6,13.8,10.6,13.9,10.6c-0.1,0-0.1,0-0.2,0.1c0,0-0.1,0-0.1,0c0,0-0.1,0-0.1,0
								c0,0-0.1,0-0.1,0c0,0-0.1,0-0.1,0s0,0,0.1,0c0,0,0,0,0.1,0h0h0c0,0,0.1,0,0.1,0h0h0C13.8,10.5,13.9,10.6,13.9,10.6z"/>
							<path class="st2" d="M13.2,9.9c-0.7,0.1-0.6,0.7-0.6,0.7c-0.1,0-0.7,0.1-0.7,0.1l-1.3,0.1c-0.2,0-0.4,0-0.5,0.1
								c-0.1,0-0.2,0.1-0.3,0c-0.1-0.1,0-0.2,0-0.2c-0.1-0.2,0.1-0.3,0.1-0.3c0,0,0-0.1,0-0.1c-0.3-0.1-0.5,0-0.5,0
								c0,0.1-0.1,0.2-0.1,0.4c0.2-0.2,0.5-0.3,0.4,0.2c-0.1,0.7,0.2,0.1,1.1,0c0.9-0.1,1.7-0.2,1.8-0.3c0,0,0-0.1,0.1-0.3
								C12.7,10.1,12.8,10,13.2,9.9c0.4-0.1,0.7,0,0.7,0s-0.3,0-0.6,0.2c0,0,0.2,0,0.4,0c0.3,0,0.2,0.1,0,0.1
								c-0.2,0-0.4,0.1-0.5,0.1c0,0,0.1,0,0.4,0c0.2,0,0.4,0,0.1,0.1c-0.3,0.1-0.5,0.2-0.5,0.2s0.1,0,0.2,0c0.2,0,0,0.4-0.8,0.5
								c-0.1,0-1.1,0.6-2.1,0.8c-0.5,0.1-0.9,0.2-1.2,0.2c0.3,0.3,1,0,1,0s1.4-0.3,2.3-0.8c0,0,0.4,0.2,1-0.3l0,0
								c0-0.1-0.1-0.2,0-0.3c0-0.1,0.3-0.1,0.3-0.1s0.1-0.3,0.2-0.6c0,0,0-0.1,0-0.1C14.1,10,13.9,9.7,13.2,9.9z"/>
						</g>
					</g>
				</g>
			</g>
			<g>
				<path class="st20" d="M13.8,10.7c0,0-0.2,0-0.3,0.1c0,0.1,0.1,0.4,0.4,0.8c0.3,0.3,0.7,0.5,0.9,0.4c0.2-0.1,0.1-0.4,0.1-0.4
					C14.7,10.9,13.8,10.7,13.8,10.7z"/>
				<path class="st21" d="M14.7,12.1c-0.2,0-0.5-0.1-0.7-0.4c-0.3-0.3-0.5-0.6-0.4-0.8c0-0.2,0.3-0.1,0.3-0.1l0,0
					c0,0,0.8,0.2,1.1,0.9c0,0,0.1,0.2-0.1,0.4C14.8,12.1,14.8,12.1,14.7,12.1z M13.8,10.7c0,0-0.2,0-0.2,0.1s0.1,0.4,0.4,0.7
					c0.3,0.4,0.7,0.5,0.9,0.4c0.2-0.1,0.1-0.4,0.1-0.4C14.7,10.9,13.9,10.7,13.8,10.7C13.8,10.7,13.8,10.7,13.8,10.7z"/>
			</g>
			<path class="st22" d="M15,11.6c-0.1-0.2-0.2-0.3-0.3-0.5c0.1,0.2,0,0.4-0.2,0.2c-0.2-0.1-0.5-0.3-0.6-0.3c-0.1,0-0.2,0-0.2-0.1
				c0,0.1,0.1,0.4,0.4,0.7c0.3,0.3,0.7,0.5,0.9,0.4C15.1,11.9,15,11.6,15,11.6z"/>
			<g>
				<g>
					<path class="st0" d="M9.9,10.5c0,0-0.2,0.1-0.1,0.3c0,0-0.1,0.1,0,0.2c0.1,0.1,0.2,0,0.3,0c0.1,0,0.2-0.1,0.5-0.1l1.3-0.1
						c0,0-0.3-0.4-0.5-0.6c-0.2-0.2-0.4-0.2-0.7-0.1c-0.3,0-0.3,0.1-0.3,0.1s-0.1,0-0.2,0.1C10,10.3,10,10.4,9.9,10.5
						C10,10.4,9.9,10.5,9.9,10.5z"/>
					<path class="st1" d="M9.8,11.1c0,0-0.1,0-0.1,0c-0.1-0.1,0-0.2,0-0.2c0,0,0-0.1,0-0.1c0-0.1,0.1-0.1,0.1-0.2c0,0,0,0,0-0.1
						c0,0,0-0.1,0.1-0.1c0.1,0,0.2-0.1,0.2-0.1c0,0,0-0.1,0.3-0.1h0c0.3,0,0.5,0,0.7,0.1c0.2,0.2,0.5,0.6,0.5,0.6l0,0l0,0l-1.3,0.1
						c-0.2,0-0.4,0-0.5,0.1C10,11.1,9.9,11.1,9.8,11.1z M10.8,10c-0.1,0-0.1,0-0.2,0h0c-0.3,0-0.3,0.1-0.3,0.1l0,0
						c0,0-0.1,0-0.2,0.1c-0.1,0-0.1,0.1-0.1,0.1s0,0,0,0l0,0l0,0c0,0-0.1,0-0.1,0.2c0,0,0,0.1,0,0.1l0,0c0,0-0.1,0.1,0,0.2
						c0,0.1,0.2,0,0.3,0c0.1,0,0.3-0.1,0.5-0.1l1.2-0.1c0-0.1-0.3-0.4-0.5-0.6C11.1,10,11,10,10.8,10z"/>
				</g>
				<g>
					<g>
						<g>
							<path class="st1" d="M10.1,10.2C10.1,10.2,10.2,10.1,10.1,10.2l0.1,0h0c0,0,0.1,0,0.1,0c0,0,0,0,0.1,0s0,0,0.1,0h0h0
								c0.1,0,0.1,0,0.1,0s0,0-0.1,0c0,0-0.1,0-0.1,0c0,0-0.1,0-0.1,0s-0.1,0-0.1,0h0H10.1C10.2,10.2,10.1,10.2,10.1,10.2z"/>
						</g>
					</g>
					<g>
						<g>
							<path class="st1" d="M9.8,10.6C9.8,10.6,9.8,10.5,9.8,10.6C9.9,10.5,9.9,10.5,9.8,10.6C9.9,10.5,9.9,10.5,9.8,10.6
								c0.1-0.1,0.1-0.1,0.1-0.1c0,0,0,0,0.1,0c0,0,0,0,0.1,0c0,0,0,0,0.1,0s0.1,0,0.2,0c0,0,0,0,0.1,0s0,0,0.1,0c0,0,0.1,0,0.1,0
								c0,0,0,0,0,0s0,0,0,0s0,0-0.1,0c0,0,0,0-0.1,0s0,0-0.1,0c0,0,0,0-0.1,0c0,0,0,0-0.1,0s0,0-0.1,0c0,0,0,0-0.1,0c0,0,0,0-0.1,0
								h0h0C9.9,10.5,9.9,10.5,9.8,10.6L9.8,10.6z"/>
						</g>
					</g>
					<g>
						<g>
							<path class="st1" d="M9.7,10.9C9.7,10.9,9.7,10.9,9.7,10.9C9.7,10.9,9.8,10.9,9.7,10.9c0-0.1,0-0.1,0.1-0.1l0,0l0,0
								c0,0,0,0,0.1,0c0,0,0,0,0.1,0s0,0,0.1,0c0,0,0,0,0.1,0c0,0,0.1,0,0.1,0c0,0,0.1,0,0.1,0c0,0,0,0,0,0s0,0,0,0s0,0-0.1,0
								c0,0-0.1,0-0.1,0s-0.1,0-0.1,0c0,0,0,0-0.1,0c0,0,0,0-0.1,0s0,0,0,0c0,0,0,0,0,0C9.9,10.8,9.8,10.8,9.7,10.9
								C9.7,10.9,9.7,10.9,9.7,10.9C9.7,10.9,9.7,10.9,9.7,10.9z"/>
						</g>
					</g>
					<path class="st2" d="M11.3,10.2C11,9.9,10.8,10,10.5,10c-0.3,0-0.3,0.1-0.3,0.1s-0.1,0-0.2,0.1c-0.1,0.1-0.1,0.1-0.1,0.1
						s0,0,0,0.1c0,0-0.2,0.1-0.1,0.3c0,0-0.1,0.1,0,0.2s0.2,0,0.3,0s0.2-0.1,0.5-0.1l1.3-0.1C11.8,10.8,11.5,10.4,11.3,10.2z
						 M11.2,10.8c-0.4,0.1-0.7,0-1,0.1C9.9,11,9.8,11,9.8,11c0-0.1,0.2-0.3,0.8-0.3c0,0-0.2-0.1-0.5,0s-0.2,0,0-0.1
						c0.2,0,0.7-0.1,0.7-0.1s-0.2-0.1-0.6,0c-0.4,0-0.2-0.1,0-0.1c0.2,0,0.5,0,0.7,0c0.1,0,0,0-0.1-0.1c-0.1,0,0.2-0.1,0.4,0.1
						C11.5,10.5,11.6,10.7,11.2,10.8z"/>
				</g>
				<g>
					<path class="st0" d="M13.7,11.1c-0.1,0.1-0.2,0.2-0.3,0.2l0,0c-0.4,0.2-0.7,0.1-0.7,0.1c-0.4,0.2-0.8,0.3-1.3,0.5
						c0.4,0.2,1.1,0.6,1.7,0.6c0.7,0,1.3-0.6,1.5-0.8C14.3,11.2,13.9,11.1,13.7,11.1z"/>
					<path class="st1" d="M13.2,12.6C13.1,12.6,13.1,12.6,13.2,12.6c-0.8,0-1.5-0.4-1.9-0.6l0,0l0,0c0.5-0.1,0.9-0.3,1.3-0.5l0,0
						c0,0,0.3,0.1,0.7-0.1c0.1,0,0.3-0.2,0.3-0.2l0,0c0.1,0,0.6,0.2,0.8,0.7l0,0C14.4,12,13.9,12.6,13.2,12.6z M11.4,12
						c0.4,0.2,1.1,0.6,1.7,0.6c0.7,0,1.2-0.5,1.4-0.8c-0.3-0.5-0.6-0.6-0.8-0.7c-0.1,0.1-0.2,0.2-0.3,0.2c-0.4,0.2-0.7,0.1-0.7,0.1
						C12.3,11.6,11.9,11.8,11.4,12z"/>
				</g>
			</g>
			<g>
				<g>
					<path class="st21" d="M13.6,11C13.6,11,13.6,11,13.6,11c0.1,0,0.1,0,0.2,0c0,0,0,0,0.1,0s0.1,0,0.1,0c0,0,0.1,0,0.1,0.1l0,0
						l0,0c0,0,0,0,0.1,0.1c0,0,0,0.1,0.1,0.1c0,0,0,0.1,0,0.1c0,0,0,0,0,0.1c0,0,0,0,0,0.1c0,0,0,0,0,0c0,0,0,0,0,0s0,0,0,0
						c0,0,0,0,0,0c0,0,0,0,0-0.1c0,0,0,0,0-0.1s0,0-0.1-0.1c0.1,0,0.1,0,0.1,0c0,0,0,0-0.1-0.1l0,0l0,0c0,0-0.1,0-0.1-0.1
						c0,0-0.1,0-0.1,0c0,0,0,0-0.1,0C13.8,11,13.7,11,13.6,11C13.6,11,13.6,11,13.6,11z"/>
				</g>
			</g>
			<path class="st3" d="M12.5,10.8c0,0-0.8,0.1-1.5,0.2c-0.7,0.1-1.2,0.3-1.2,0.3c-0.1,0,0.5-0.1,1.3-0.2
				C11.8,11,12.5,10.8,12.5,10.8z"/>
		</g>
		<g>
			<path class="st2" d="M14.4,11.6c-0.4,0.4-1,0.9-1.6,0.7c-0.6-0.1-1-0.3-0.7-0.5c0.3-0.2,0.3-0.2,0.6-0.1c0.6,0,0.9-0.3,1.1-0.5
				c0,0-0.1,0-0.1,0c-0.1,0.1-0.2,0.2-0.3,0.2c-0.4,0.2-0.7,0.1-0.7,0.1c-0.4,0.2-0.8,0.3-1.3,0.5c0.4,0.2,1.1,0.6,1.7,0.6
				c0.7,0,1.3-0.6,1.5-0.8C14.5,11.7,14.5,11.6,14.4,11.6z"/>
		</g>
		<g>
			<path class="st20" d="M12.5,9c0.8,0,1.1-0.8,1.1-1.3c-1.1,0.1-1.7,0.1-1.9,0.2C11.7,8.2,11.7,8.9,12.5,9z"/>
			<path class="st21" d="M12.5,9L12.5,9c-0.2,0-0.4-0.1-0.6-0.2c-0.2-0.2-0.2-0.7-0.2-0.9l0,0c0.2,0,0.8-0.1,1.9-0.2l0,0l0,0
				C13.6,8.2,13.3,9,12.5,9z M11.8,7.8c0,0.2,0,0.6,0.2,0.8c0.1,0.1,0.3,0.2,0.5,0.2l0,0l0,0c0.7,0,1.1-0.7,1.1-1.3
				C12.5,7.7,11.9,7.8,11.8,7.8z"/>
		</g>
		<g>
			<path class="st0" d="M12.5,8.7c0.7,0,0.9-0.5,0.9-0.9c-0.8,0-1.4,0.1-1.5,0.1C11.9,8.1,11.9,8.7,12.5,8.7z"/>
			<path class="st1" d="M12.5,8.7L12.5,8.7c-0.2,0-0.4,0-0.5-0.2c-0.1-0.2-0.1-0.4-0.1-0.6l0,0c0.1,0,0.6-0.1,1.5-0.1l0,0l0,0
				C13.4,8.2,13.1,8.7,12.5,8.7z M11.9,7.9c0,0.1,0,0.4,0.1,0.6c0.1,0.1,0.2,0.2,0.4,0.2l0,0c0.6,0,0.8-0.5,0.9-0.9
				C12.5,7.8,12,7.9,11.9,7.9z"/>
		</g>
		<path class="st2" d="M11.9,7.9c0,0,0,0.1,0,0.2c0.3,0.1,0.7,0,1,0l0,0c0,0.1-0.1,0.2-0.3,0.3c-0.1,0-0.2,0.1-0.3,0.1
			c0,0,0.1,0,0.2,0c0.7,0,0.9-0.5,0.9-0.9C12.5,7.8,12,7.9,11.9,7.9z"/>
	</g>
	<g>
		<g>
			<g>
				<g>
					<path class="st0" d="M9.4,5.1c0,0-0.2-0.3-0.6,0c-0.3,0.3-0.3,0.8,0,1c0.4,0.2,0.8,0.1,0.7-0.3C9.5,5.5,9.4,5.1,9.4,5.1z"/>
					<path class="st1" d="M9.2,6.3c-0.1,0-0.2,0-0.4-0.1C8.7,6.1,8.6,5.9,8.5,5.7c0-0.2,0-0.4,0.2-0.6C8.9,5,9,4.9,9.1,4.9
						c0.1,0,0.2,0.1,0.2,0.1l0,0c0,0,0.1,0.4,0.2,0.8c0,0.1,0,0.3-0.1,0.3C9.4,6.3,9.3,6.3,9.2,6.3z M9.1,5C9,5,8.9,5.1,8.8,5.2
						C8.7,5.3,8.6,5.5,8.6,5.7c0,0.2,0.1,0.3,0.2,0.5c0.2,0.1,0.4,0.1,0.6,0c0.1,0,0.1-0.2,0.1-0.3C9.5,5.6,9.4,5.2,9.4,5.2
						C9.3,5.1,9.3,5,9.1,5L9.1,5z"/>
				</g>
				<path class="st2" d="M9.6,5.9C9.5,5.6,9.4,5.1,9.4,5.1s-0.2-0.3-0.6,0C8.6,5.3,8.6,5.5,8.5,5.6c0.1-0.1,0.2-0.2,0.3-0.1
					c0.1,0,0.2,0.2,0.2,0.3c0,0,0,0,0,0l0,0c0,0,0,0,0,0c0,0,0,0.1,0,0.1c0,0,0,0,0.1,0h0c0,0,0.1,0,0.1,0.1c0,0,0,0.1,0,0.2
					C9.5,6.3,9.6,6.2,9.6,5.9z"/>
				<path class="st24" d="M9.2,5.6c0,0.1,0,0.3,0,0.5l0,0c0-0.1,0-0.2,0-0.3c0,0,0,0.1-0.1,0.1C9,6,8.9,6,8.9,5.9v0c0,0,0.1,0,0.1,0
					c0.1,0,0.1,0,0.1-0.1S9.2,5.7,9.2,5.6C9.1,5.6,9.1,5.5,9,5.4c0,0-0.1,0-0.2,0v0C9,5.2,9.2,5.4,9.2,5.6z"/>
			</g>
			<g>
				<g>
					<path class="st0" d="M15.4,4.8c0,0,0.2-0.3,0.6,0c0.3,0.3,0.3,0.8,0,1c-0.3,0.3-0.8,0.1-0.7-0.2S15.4,4.8,15.4,4.8z"/>
					<path class="st1" d="M15.6,6c0,0-0.1,0-0.2,0c-0.1,0-0.1-0.2-0.1-0.3c0-0.4,0.1-0.8,0.1-0.8l0,0c0,0,0.1-0.1,0.2-0.1
						c0.1,0,0.2,0,0.3,0.1c0.2,0.1,0.3,0.3,0.3,0.5S16.1,5.7,16,5.9C15.9,6,15.7,6,15.6,6z M15.4,4.8c0,0,0,0.4-0.1,0.8
						c0,0.1,0,0.2,0.1,0.3c0.1,0,0.3,0,0.5-0.1c0.1-0.1,0.2-0.3,0.2-0.5c0-0.2-0.1-0.4-0.3-0.5c-0.1-0.1-0.2-0.1-0.3-0.1
						C15.5,4.7,15.4,4.8,15.4,4.8z"/>
				</g>
				<path class="st2" d="M15.3,5.6c0-0.4,0.1-0.8,0.1-0.8s0.2-0.3,0.6,0c0.1,0.1,0.2,0.3,0.3,0.5c-0.1-0.1-0.2-0.1-0.3-0.1
					c-0.1,0-0.2,0.2-0.2,0.3c0,0,0,0,0,0l0,0c0,0,0,0,0.1,0c0,0,0,0.1,0,0.1c0,0,0,0-0.1,0h0c0,0-0.1,0.1-0.1,0.1c0,0,0,0.1,0,0.2
					C15.4,6,15.2,5.9,15.3,5.6z"/>
				<path class="st24" d="M15.6,5.3c0,0.2,0,0.3,0.1,0.5l0,0c0-0.1-0.1-0.2-0.1-0.3c0,0,0,0.1,0.1,0.1c0.1,0,0.2,0,0.2,0v0
					c0,0-0.1,0-0.1,0c-0.1,0-0.1,0-0.1-0.1S15.6,5.4,15.6,5.3c0,0,0.1-0.1,0.1-0.2c0-0.1,0.1,0,0.2,0v0C15.7,4.9,15.6,5.1,15.6,5.3z
					"/>
			</g>
			<g>
				<g>
					<path class="st0" d="M15.1,3.3c0,0,0.1,0.4-0.1,0.5c-0.1-0.5-0.3-0.6-0.8-0.8c-0.5-0.1-0.6-0.4-0.6-0.4s-0.1,0.1,0,0.4
						c-0.3-0.1-0.3-0.4-0.3-0.4S13.2,3,12.8,3.2c0.2-0.3-0.1-0.6-0.1-0.6s0,0.3-0.1,0.3c0-0.2-0.1-0.3-0.1-0.3
						c-0.1,0.4-0.8,0.5-0.8,0.5s0.1-0.1,0.1-0.4C11.1,3.4,10,3.2,10,3.2s0.1,0.2,0.4,0.2c-0.1,0.1-0.7,0.3-1.1,0.1
						c0,0.5,0,1.7,0,1.7c0,0.9,0.5,2.8,3,2.8c2.4,0,3.1-1.4,3.2-3.3C15.7,3.9,15.1,3.3,15.1,3.3z"/>
					<path class="st1" d="M12.2,8c-1,0-1.8-0.3-2.3-1C9.3,6.3,9.3,5.4,9.3,5.2c0,0,0.1-1.2,0-1.7l0,0l0,0c0.1,0.1,0.4,0.1,0.5,0.1
						c0.2,0,0.4-0.1,0.5-0.2c-0.3,0-0.4-0.2-0.4-0.2l0,0l0,0c0,0,1.1,0.2,1.7-0.3l0,0l0,0c0,0.2,0,0.3-0.1,0.4
						c0.1,0,0.6-0.2,0.7-0.5l0,0l0,0c0,0,0.1,0.1,0.1,0.3c0.1,0,0.1-0.2,0.1-0.3l0,0l0,0c0,0,0.2,0.1,0.2,0.3c0,0,0,0.1,0,0.2
						C12.9,2.9,13,2.6,13,2.6l0,0l0,0c0,0,0,0.2,0.2,0.4c0-0.3,0-0.4,0-0.4l0,0l0,0c0,0,0,0.2,0.6,0.4c0.5,0.1,0.7,0.3,0.8,0.7
						c0.1-0.1,0-0.4,0-0.4l0,0l0,0c0,0,0.5,0.6,0.4,1.5c0,1-0.3,1.8-0.7,2.3C13.9,7.7,13.1,8,12,8C12.2,8,12.2,8,12.2,8z M9.4,3.5
						c0,0.5,0,1.7,0,1.7c0,0.2,0,1,0.6,1.7c0.5,0.7,1.3,1,2.4,1c1.1,0,1.9-0.3,2.4-0.9c0.4-0.5,0.7-1.3,0.7-2.3
						c0.1-0.7-0.2-1.2-0.3-1.4c0,0.1,0,0.3-0.1,0.4l0,0l0,0c-0.1-0.5-0.2-0.6-0.8-0.7c-0.4-0.1-0.5-0.3-0.6-0.3c0,0-0.1,0.2,0,0.4
						l0,0l0,0c-0.2-0.1-0.2-0.2-0.3-0.3c0,0.1-0.2,0.3-0.4,0.5l0,0l0,0c0-0.2,0-0.3,0-0.4c0-0.1-0.1-0.2-0.1-0.2
						c0,0.1,0,0.3-0.1,0.3l0,0l0,0c0-0.1-0.1-0.2-0.1-0.2c-0.1,0.4-0.7,0.5-0.8,0.5l0,0l0,0c0,0,0.1-0.1,0.1-0.3
						c-0.6,0.4-1.5,0.3-1.7,0.3c0,0,0.2,0.2,0.4,0.2l0,0l0,0l0,0c-0.1,0-0.3,0.1-0.6,0.1C9.8,3.7,9.6,3.7,9.4,3.5z"/>
				</g>
				<g>
					<path class="st25" d="M9.1,2.9C8.8,3,8.7,3.3,8.7,3.3C8.5,2.5,9.4,2.3,9.4,2.3C8.8,2.2,8.8,1.9,8.9,1.7C9,1.9,9.2,2.1,9.6,1.5
						c0.6-0.9,1.9-1.2,3-1.1c0.2,0,0.5,0,0.7,0.1c0,0,0.4,0.1,0.4,0.2c0,0,0-0.4-0.4-0.5c0.3,0,0.6,0.2,0.6,0.5
						c0.3-0.4,0.6,0.1,0.6,0.1s-0.3-0.2-0.4,0c0,0,0.7,0.1,1,0.8c0.1,0.2,0.4,0.1,0.4-0.1c0.2,0.5-0.2,0.4-0.3,0.4
						c0,0,0.2,0.1,0.2,0.5c0,0.4,0.1,0.7,0.4,0.6c0,0-0.1,0.3-0.3,0c0,0.2,0.2,1-0.1,1.4c0.1-0.8-0.4-1.4-0.4-1.4s0.1,0.4-0.1,0.5
						c-0.1-0.5-0.3-0.6-0.8-0.8c-0.5-0.1-0.6-0.4-0.6-0.4s-0.1,0.2,0,0.5c-0.3-0.1-0.3-0.4-0.3-0.4S13.2,3,12.8,3.2
						c0.2-0.3-0.1-0.6-0.1-0.6s0,0.3-0.1,0.3c0-0.2-0.1-0.3-0.1-0.3c-0.1,0.4-0.8,0.5-0.8,0.5s0.1-0.1,0.1-0.4
						C11.1,3.4,10,3.2,10,3.2s0.1,0.2,0.4,0.2c-0.1,0.1-0.7,0.3-1.1,0.1c0,0.5,0,1.7,0,1.7C9.1,4.8,9,4.4,9.1,4.2
						C8.8,4.4,8.6,4.1,8.6,4.1s0.5,0,0.5-0.3c0,0-0.4,0.2-0.7-0.2C8.8,3.7,9.2,3.4,9.1,2.9z"/>
					<path class="st26" d="M9.3,5.2L9.3,5.2C9.1,4.8,9,4.4,9.1,4.1C8.8,4.3,8.6,4,8.6,4l0,0l0,0c0,0,0.4,0,0.5-0.2
						C9,3.8,8.6,3.9,8.4,3.5l0,0l0,0c0.1,0,0.3,0,0.5,0C9,3.4,9.1,3.2,9.1,2.9C8.8,3,8.7,3.3,8.7,3.3l0,0l0,0
						C8.6,2.7,9.1,2.5,9.3,2.4c-0.2,0-0.4-0.1-0.4-0.3s0-0.2,0-0.3l0,0l0,0c0,0.1,0.1,0.2,0.2,0.2c0.1,0,0.3-0.1,0.4-0.4
						c0.3-0.4,0.7-0.8,1.3-1c0.5-0.1,1-0.2,1.7-0.2c0.3,0,0.5,0,0.7,0.1l0,0c0.2,0.1,0.3,0.1,0.4,0.2c0-0.1-0.1-0.3-0.3-0.4l0,0l0,0
						c0.2,0,0.3,0,0.5,0.1C14,0.5,14,0.6,14,0.7c0.1-0.1,0.1-0.1,0.2-0.1c0.2,0,0.3,0.3,0.3,0.3l0,0l0,0c0,0-0.1-0.1-0.2,0
						c0,0-0.1,0-0.1,0.1c0.1,0,0.8,0.2,1,0.8c0,0.1,0.1,0.1,0.2,0.1c0,0,0.1-0.1,0.1-0.2l0,0l0,0c0.1,0.2,0.1,0.3,0,0.4
						c0,0-0.2,0-0.3,0c0,0.1,0.1,0.2,0.2,0.5v0c0,0.2,0,0.4,0.2,0.5c0,0,0.1,0,0.2,0l0,0l0,0c0,0,0,0.1-0.2,0.1c0,0-0.1,0-0.1,0
						c0,0.1,0,0.3,0.1,0.5c0,0.2,0,0.6-0.2,0.8l0,0l0,0c0.1-0.7-0.2-1.2-0.3-1.4c0,0.1,0,0.3-0.1,0.4l0,0l0,0
						c-0.1-0.5-0.2-0.6-0.8-0.7c-0.4-0.1-0.5-0.3-0.6-0.3c0,0-0.1,0.2,0,0.4l0,0l0,0c-0.2-0.1-0.2-0.2-0.3-0.3
						c0,0.1-0.2,0.3-0.4,0.5l0,0l0,0c0.1-0.1,0.1-0.2,0.1-0.3c0-0.1-0.1-0.2-0.1-0.2c0,0.1,0,0.3-0.1,0.3l0,0l0,0
						c0-0.1-0.1-0.2-0.1-0.2c-0.1,0.4-0.7,0.5-0.8,0.5l0,0l0,0c0,0,0.1-0.1,0.1-0.3c-0.3,0.2-0.8,0.3-1.1,0.3s-0.5,0-0.6,0
						c0,0,0.2,0.2,0.4,0.2l0,0l0,0l0,0c-0.1,0-0.4,0.1-0.6,0.1c-0.1,0-0.4,0-0.5-0.1C9.4,4,9.3,5.2,9.3,5.2C9.3,5.2,9.3,5.2,9.3,5.2
						L9.3,5.2z M9.1,4.1L9.1,4.1L9.1,4.1c0,0.2,0,0.5,0.1,1c0-0.2,0.1-1.2,0-1.6l0,0l0,0c0.1,0.1,0.4,0.1,0.5,0.1
						c0.2,0,0.4-0.1,0.5-0.2c-0.3,0-0.4-0.2-0.4-0.2l0,0l0,0c0,0,1.1,0.2,1.7-0.3l0,0l0,0c0,0.2,0,0.3-0.1,0.4
						c0.1,0,0.6-0.2,0.7-0.5l0,0l0,0c0,0,0.1,0.1,0.1,0.3c0.1,0,0.1-0.2,0.1-0.3l0,0l0,0c0,0,0.2,0.1,0.2,0.3c0,0,0,0.1,0,0.2
						C12.9,3,13,2.7,13,2.7l0,0l0,0c0,0,0,0.2,0.2,0.4c0-0.3,0-0.4,0-0.4l0,0l0,0c0,0,0,0.2,0.6,0.4c0.5,0.1,0.7,0.3,0.8,0.7
						c0.1-0.1,0-0.4,0-0.4l0,0l0,0c0,0,0.5,0.6,0.4,1.4c0.3-0.4,0.1-1.2,0-1.3l0,0l0,0c0,0.1,0.1,0.1,0.2,0.1c0,0,0.1,0,0.1-0.1
						c0,0-0.1,0-0.1,0c-0.1,0-0.1-0.3-0.2-0.5v0c0-0.4-0.2-0.5-0.2-0.5l0,0l0,0c0,0,0.2,0,0.3,0c0,0,0-0.1,0-0.3
						c0,0.1,0,0.1-0.1,0.1c-0.1,0-0.2,0-0.2-0.1c-0.3-0.6-1-0.8-1-0.8l0,0l0,0c0-0.1,0-0.1,0.1-0.1c0.1,0,0.1,0,0.2,0
						c0-0.1-0.1-0.2-0.3-0.2c-0.1,0-0.1,0-0.2,0.1l0,0l0,0c0-0.1,0-0.2-0.1-0.3c0,0-0.2-0.1-0.3-0.1c0.2,0.1,0.3,0.4,0.3,0.5l0,0
						l0,0l0,0l0,0l0,0l0,0l0,0l0,0c0,0,0-0.1-0.4-0.2l0,0c-0.2-0.1-0.4-0.1-0.7-0.1c-1.9-0.1-2.7,0.7-3,1.1C9.2,2,9,2.1,8.9,2.1l0,0
						c-0.1,0-0.1,0-0.2-0.2c0,0.1,0,0.2,0,0.3s0.2,0.2,0.4,0.2l0,0l0,0c0,0-0.2,0-0.4,0.2C8.5,2.8,8.4,3.1,8.4,3.3
						c0-0.1,0.2-0.3,0.4-0.4l0,0l0,0c0,0.2,0,0.4-0.2,0.6c0.2,0,0,0.1-0.1,0c0.3,0.4,0.7,0.2,0.7,0.2l0,0l0,0C9.1,4,8.8,4,8.6,4.1
						C8.7,4.1,8.9,4.2,9.1,4.1L9.1,4.1z"/>
				</g>
				<g>
					<path class="st2" d="M15.1,3.3c0,0,0.1,0.4-0.1,0.5c-0.1-0.5-0.3-0.6-0.8-0.8c-0.5-0.1-0.6-0.4-0.6-0.4s-0.1,0.1,0,0.4
						c-0.3-0.1-0.3-0.4-0.3-0.4S13.2,3,12.8,3.2c0.2-0.3-0.1-0.6-0.1-0.6s0,0.3-0.1,0.3c0-0.2-0.1-0.3-0.1-0.3
						c-0.1,0.4-0.8,0.5-0.8,0.5s0.1-0.1,0.1-0.4C11.1,3.4,10,3.2,10,3.2s0.1,0.2,0.4,0.2c-0.1,0.1-0.7,0.3-1.1,0.1c0,0.2,0,0.7,0,1
						C9.4,4.3,9.5,4,9.5,3.8c0.3,0.2,1,0,1.3-0.3c0,0-0.1,0-0.3-0.1c0.5,0.2,1.1-0.2,1.1-0.2s0,0.1-0.2,0.3c0,0,0.6,0,0.9-0.4
						c0,0.2,0,0.4,0,0.4s0.3-0.1,0.3-0.3c0,0.2,0,0.4,0,0.4S13,3.3,13.2,3c0,0,0.3,0.4,0.6,0.3c-0.1-0.3-0.1-0.4-0.1-0.4
						s0.2,0.3,0.7,0.3c0.5,0,0.6,0.5,0.5,0.8c0.2-0.1,0.2-0.3,0.2-0.3s0.9,3.3-2,4.1c1.7-0.3,2.3-1.5,2.4-3.2
						C15.7,3.9,15.1,3.3,15.1,3.3z"/>
				</g>
			</g>
			<g>
				<g>
					<path class="st27" d="M9.8,5.4c0,0,0.5,0,0.9,0.4c0-0.1,0-0.1,0-0.1s0.5-0.1,0.5-0.9c0-0.2-0.2-0.6-0.4-0.7
						c-0.3-0.1-0.5,0.1-0.6,0.3c0,0.1-0.1,0.3-0.1,0.5c0,0,0,0.3,0,0.3C10.1,5.2,9.9,5.2,9.8,5.4z"/>
					<path class="st1" d="M9.9,5.3L9.9,5.3c0,0,0.1,0,0.1,0h0c0,0,0,0,0.1,0c0,0,0,0,0.1,0s0,0,0.1,0c0,0,0,0,0.1,0l0,0l0,0l0,0
						c0,0,0.1,0.1,0.1,0.1s0,0-0.1-0.1l0,0l0,0l0,0c0,0,0,0-0.1,0c0,0,0,0-0.1,0s0,0-0.1,0c0,0,0,0,0,0h0C10,5.3,9.9,5.3,9.9,5.3
						L9.9,5.3z"/>
					<g>
						<g>
							<path class="st28" d="M11.2,4.6c0,0.2,0,0.5-0.1,0.6c-0.1,0.1-0.3,0.2-0.5,0.2c-0.2,0-0.3-0.2-0.3-0.4c0-0.3,0-0.8,0.3-0.9
								c0.3-0.1,0.5,0.1,0.6,0.4C11.1,4.5,11.1,4.6,11.2,4.6z"/>
							<path class="st29" d="M11.2,4.6C11.2,4.6,11.2,4.7,11.2,4.6c0,0,0,0.1,0,0.1s0,0.1,0,0.2c0,0,0,0.1-0.1,0.2c0,0,0,0,0,0l0,0
								l0,0l0,0c-0.1,0-0.2,0.1-0.3,0c0,0,0,0-0.1,0c0,0,0,0-0.1,0c0,0-0.1-0.1-0.1-0.1c0-0.1-0.1-0.2-0.1-0.3c0-0.1,0-0.2,0-0.3
								c0-0.1,0-0.2,0.1-0.3c0-0.1,0.1-0.1,0.2-0.2c0.1,0,0.2,0,0.3,0c0.1,0,0.1,0.1,0.1,0.2c0,0,0,0.1,0.1,0.2
								C11.1,4.6,11.2,4.6,11.2,4.6z M11.2,4.6c0,0,0,0,0-0.1c0,0,0-0.1-0.1-0.1c0,0-0.1-0.1-0.1-0.2c-0.1,0-0.2-0.1-0.3,0
								c-0.1,0-0.2,0.1-0.2,0.2c-0.1,0.2-0.1,0.4-0.1,0.7c0,0.1,0,0.2,0.1,0.3c0,0.1,0.1,0.2,0.2,0.2c0.1,0,0.2,0,0.3,0l0,0l0,0l0,0
								c0,0,0,0,0,0c0-0.1,0-0.1,0.1-0.2c0,0,0-0.1,0-0.2C11.2,4.8,11.2,4.7,11.2,4.6C11.2,4.7,11.2,4.6,11.2,4.6z"/>
						</g>
						<g class="st10">
							<path class="st30" d="M10.5,4.1L10.5,4.1c-0.2,0.1-0.3,0.5-0.3,0.8c0,0.2,0.1,0.3,0.3,0.4c0.1,0,0.3,0,0.4-0.2
								c0.1-0.1,0.1-0.4,0.1-0.6c0,0,0-0.1,0-0.1v0c0,0,0,0,0,0.1s0,0.1,0,0.1c0,0.2,0,0.5-0.1,0.6c-0.1,0.1-0.3,0.2-0.5,0.2
								c-0.2,0-0.3-0.2-0.3-0.4C10.1,4.7,10.2,4.2,10.5,4.1z"/>
						</g>
						<g>
							<path class="st31" d="M10.3,4.8c0,0.3,0.1,0.5,0.3,0.6c0.2,0,0.4-0.1,0.4-0.4c0-0.3-0.1-0.6-0.3-0.6
								C10.5,4.3,10.3,4.5,10.3,4.8z"/>
							<g>
								<path class="st32" d="M10.6,5.4c0.2,0,0.4-0.1,0.4-0.4c0-0.3-0.1-0.6-0.3-0.6c-0.2,0-0.3,0.2-0.4,0.5
									C10.3,5.1,10.4,5.4,10.6,5.4z M10.3,4.8c0-0.3,0.2-0.5,0.3-0.4c0.2,0,0.3,0.3,0.3,0.6c0,0.3-0.2,0.4-0.4,0.4
									C10.4,5.3,10.3,5.1,10.3,4.8z"/>
							</g>
							<g class="st33">
								<path class="st34" d="M10.6,5.4c0.2,0,0.4-0.1,0.4-0.4c0-0.3-0.1-0.6-0.3-0.6c-0.2,0-0.3,0.2-0.4,0.5
									C10.3,5.1,10.4,5.4,10.6,5.4z M10.4,4.6C10.5,4.5,10.5,4.6,10.4,4.6c0,0.1-0.1,0.3,0,0.5c0,0.1,0.1,0.1,0.1,0.1
									c0,0-0.1,0-0.2-0.1C10.3,4.9,10.4,4.6,10.4,4.6z"/>
							</g>
							<g class="st33">
								<path class="st34" d="M10.4,4.9c0-0.2,0.1-0.3,0.2-0.3c0,0,0,0,0,0c0,0,0,0,0.1,0c0,0,0.1,0.1,0.1,0.2c0,0,0,0.1,0,0.1
									c0,0,0,0.1,0,0.1c0,0.2-0.1,0.3-0.3,0.3C10.5,5.2,10.4,5.1,10.4,4.9z"/>
							</g>
							<path class="st35" d="M10.5,4.9c0,0.1,0,0.3,0.1,0.3c0.1,0,0.2-0.1,0.2-0.2c0-0.1-0.1-0.3-0.2-0.3S10.5,4.7,10.5,4.9z"/>
							<g class="st33">
								<path class="st34" d="M10.6,4.7c0,0.1,0.2,0.2,0.3,0.2c0.1,0,0.1-0.2,0-0.3c0-0.1-0.1-0.2-0.2-0.2
									C10.6,4.4,10.6,4.5,10.6,4.7z"/>
							</g>
							<path class="st4" d="M10.7,4.7c0,0.1,0.1,0.2,0.2,0.1c0,0,0.1-0.1,0-0.2c0-0.1-0.1-0.2-0.2-0.2C10.7,4.4,10.7,4.6,10.7,4.7z"
								/>
							<g>
								<path class="st31" d="M10.4,4.7c0,0.1,0,0.3,0.1,0.4c0.1,0-0.1,0-0.2-0.2C10.3,4.8,10.4,4.6,10.4,4.7z"/>
							</g>
							<g>
								<path class="st31" d="M10.4,4.6C10.4,4.6,10.4,4.6,10.4,4.6C10.4,4.6,10.4,4.6,10.4,4.6z"/>
							</g>
						</g>
					</g>
				</g>
			</g>
			<g>
				<g>
					<g>
						<g>
							<path class="st27" d="M14.5,5.2c0,0-0.5,0-1,0.4c0-0.1,0-0.1,0-0.1S12.9,5.3,13,4.5c0-0.2,0.2-0.5,0.4-0.6
								c0.3-0.1,0.5,0.1,0.6,0.3c0,0.1,0.1,0.3,0.1,0.4c0,0,0,0.3,0,0.3C14.2,5,14.4,5,14.5,5.2z"/>
							<path class="st1" d="M14.5,5.1C14.5,5.1,14.4,5.1,14.5,5.1c0,0-0.1,0-0.1,0h0c0,0,0,0-0.1,0s0,0-0.1,0c0,0,0,0-0.1,0
								c0,0,0,0-0.1,0c0,0,0,0-0.1,0c0,0,0,0,0,0l0,0c0,0-0.1,0.1-0.1,0.1s0,0,0.1-0.1l0,0l0,0c0,0,0,0,0.1,0c0,0,0,0,0.1,0
								c0,0,0,0,0.1,0s0,0,0.1,0c0,0,0,0,0.1,0c0,0,0,0,0.1,0C14.3,5.1,14.4,5.1,14.5,5.1C14.4,5.1,14.5,5.1,14.5,5.1z"/>
							<g>
								<g>
									<path class="st28" d="M13.1,4.5c0,0.2,0,0.4,0.1,0.6c0.1,0.1,0.3,0.2,0.5,0.2c0.2,0,0.3-0.2,0.3-0.4c0-0.3,0-0.7-0.3-0.9
										c-0.2-0.1-0.5,0.1-0.6,0.3C13.2,4.4,13.1,4.4,13.1,4.5z"/>
									<path class="st29" d="M13.1,4.5L13.1,4.5c0,0,0,0.1,0,0.1s0,0,0,0.1s0,0,0,0.1c0,0,0,0.1,0.1,0.2c0,0.1,0.1,0.1,0.2,0.2
										c0.1,0,0.2,0,0.3,0c0.1,0,0.2-0.1,0.2-0.2c0-0.1,0.1-0.2,0.1-0.3c0-0.1,0-0.2,0-0.3s0-0.2-0.1-0.3c0-0.1-0.1-0.2-0.2-0.2
										c-0.1,0-0.2,0-0.2,0c-0.1,0-0.1,0.1-0.2,0.1c0,0,0,0.1-0.1,0.1C13.2,4.3,13.2,4.4,13.1,4.5C13.1,4.4,13.1,4.5,13.1,4.5z
										 M13.1,4.5C13.1,4.5,13.1,4.4,13.1,4.5c0,0,0-0.1,0-0.1c0,0,0-0.1,0.1-0.1c0-0.1,0.1-0.1,0.1-0.2c0.1,0,0.2-0.1,0.3,0
										c0.1,0,0.2,0.1,0.2,0.2c0,0.1,0.1,0.2,0.1,0.3c0,0.1,0,0.2,0,0.3c0,0.1,0,0.2-0.1,0.3c0,0-0.1,0.1-0.1,0.1c0,0,0,0-0.1,0
										s0,0-0.1,0c-0.1,0-0.2,0-0.3,0c0,0-0.1,0-0.1-0.1l0,0c0,0,0,0,0,0c0-0.1,0-0.1-0.1-0.2c0,0,0,0,0-0.1c0,0,0,0,0-0.1
										C13.1,4.6,13.1,4.5,13.1,4.5L13.1,4.5z"/>
								</g>
								<g class="st10">
									<path class="st30" d="M13.8,3.9L13.8,3.9C14,4,14.1,4.5,14,4.8c0,0.1-0.1,0.3-0.3,0.4c-0.1,0-0.3,0-0.4-0.1
										c-0.1-0.1-0.1-0.4-0.1-0.6c0,0,0-0.1,0-0.1v0c0,0,0,0,0,0.1c0,0,0,0.1,0,0.1c0,0.2,0,0.4,0.1,0.6c0.1,0.1,0.3,0.2,0.5,0.2
										c0.2,0,0.3-0.2,0.3-0.4C14.2,4.5,14.1,4.1,13.8,3.9z"/>
								</g>
								<g>
									<path class="st31" d="M13.3,4.6c0,0.3,0.1,0.5,0.3,0.6S14,5.1,14,4.8c0-0.3-0.1-0.6-0.3-0.6C13.4,4.1,13.3,4.3,13.3,4.6z"
										/>
									<g>
										<path class="st32" d="M13.6,5.2C13.8,5.2,14,5,14,4.7c0-0.3-0.1-0.6-0.3-0.6c-0.2,0-0.3,0.2-0.4,0.5
											C13.2,4.9,13.4,5.2,13.6,5.2z M13.3,4.6c0-0.3,0.2-0.5,0.3-0.4c0.2,0,0.3,0.3,0.3,0.6s-0.2,0.4-0.4,0.4
											C13.4,5.1,13.3,4.9,13.3,4.6z"/>
									</g>
									<g class="st33">
										<path class="st34" d="M13.6,5.2C13.8,5.2,14,5,14,4.7c0-0.3-0.1-0.6-0.3-0.6c-0.2,0-0.3,0.2-0.4,0.5
											C13.2,4.9,13.4,5.2,13.6,5.2z M13.4,4.4C13.5,4.3,13.5,4.4,13.4,4.4c0,0.1-0.1,0.3,0,0.5c0,0.1,0.1,0.1,0.1,0.1
											c0,0-0.1,0-0.2-0.1C13.2,4.7,13.3,4.4,13.4,4.4z"/>
									</g>
									<g class="st33">
										<path class="st34" d="M13.4,4.7c0-0.2,0.1-0.3,0.3-0.3c0,0,0,0,0,0c0,0,0,0,0.1,0c0,0,0.1,0.1,0.1,0.2c0,0,0,0.1,0,0.1
											c0,0,0,0.1,0,0.1c0,0.2-0.1,0.3-0.3,0.3C13.4,5,13.4,4.9,13.4,4.7z"/>
									</g>
									<path class="st35" d="M13.4,4.7c0,0.1,0,0.3,0.1,0.3c0.1,0,0.2-0.1,0.2-0.2c0-0.1-0.1-0.3-0.2-0.3S13.4,4.5,13.4,4.7z"/>
									<g class="st33">
										<path class="st34" d="M13.6,4.5c0,0.1,0.2,0.2,0.3,0.2c0.1,0,0.1-0.1,0-0.3c0-0.1-0.1-0.2-0.2-0.2
											C13.6,4.2,13.5,4.3,13.6,4.5z"/>
									</g>
									<path class="st4" d="M13.6,4.5c0,0.1,0.1,0.2,0.2,0.1c0,0,0.1-0.1,0-0.2c0-0.1-0.1-0.2-0.2-0.2C13.6,4.2,13.6,4.4,13.6,4.5
										z"/>
									<g>
										<path class="st31" d="M13.4,4.5c0,0.1,0,0.3,0.1,0.4c0.1,0-0.1,0-0.2-0.2C13.3,4.6,13.4,4.4,13.4,4.5z"/>
									</g>
									<g>
										<path class="st31" d="M13.4,4.4C13.4,4.4,13.4,4.4,13.4,4.4L13.4,4.4z"/>
									</g>
								</g>
							</g>
						</g>
					</g>
				</g>
			</g>
			<g>
				
					<radialGradient id="SVGID_1_" cx="-738.6985" cy="-1449.4724" r="1.3681" gradientTransform="matrix(-0.7778 -0.5897 -0.5871 0.7812 -1411.4326 701.8224)" gradientUnits="userSpaceOnUse">
					<stop  offset="0.1184" style="stop-color:#F6A0A0"/>
					<stop  offset="1" style="stop-color:#FFFFFF"/>
				</radialGradient>
				<path class="st36" d="M13.5,6.3c0.1,0.4,0.4,0.5,0.7,0.3c0.6-0.2,0.9-0.7,0.8-1c-0.1-0.3-0.4-0.5-0.9-0.3
					C13.7,5.4,13.4,5.8,13.5,6.3z"/>
				<g>
					<path class="st4" d="M14.6,5.4c0,0,0,0.1-0.1,0.1c-0.1,0-0.2,0-0.2,0s0-0.1,0.1-0.1C14.5,5.3,14.6,5.3,14.6,5.4z"/>
				</g>
				<g>
					<path class="st4" d="M14.8,5.5L14.8,5.5C14.7,5.5,14.7,5.5,14.8,5.5L14.8,5.5C14.8,5.4,14.8,5.4,14.8,5.5z"/>
				</g>
			</g>
			<g>
				
					<radialGradient id="SVGID_2_" cx="-349.4442" cy="-1240.3403" r="1.2353" gradientTransform="matrix(0.9091 -0.3525 0.351 0.9131 763.5027 1014.7788)" gradientUnits="userSpaceOnUse">
					<stop  offset="0.1184" style="stop-color:#F6A0A0"/>
					<stop  offset="1" style="stop-color:#FFFFFF"/>
				</radialGradient>
				<path class="st37" d="M10.7,6.6c-0.2,0.3-0.5,0.3-0.7,0.1C9.5,6.3,9.3,5.8,9.5,5.6c0.1-0.2,0.5-0.3,0.9-0.1
					C10.7,5.7,10.9,6.1,10.7,6.6z"/>
				<g>
					<path class="st4" d="M9.9,5.5C9.9,5.6,9.9,5.6,9.9,5.5c0.2,0.1,0.2,0.1,0.3,0.1c0,0,0-0.1-0.1-0.1C10,5.5,9.9,5.5,9.9,5.5z"/>
				</g>
				<g>
					<path class="st4" d="M9.7,5.5C9.7,5.5,9.7,5.6,9.7,5.5C9.8,5.6,9.8,5.6,9.7,5.5C9.8,5.5,9.8,5.5,9.7,5.5
						C9.7,5.5,9.7,5.5,9.7,5.5z"/>
				</g>
			</g>
			<path class="st2" d="M9.9,4.2c0,0,0.4-0.8,1.2-0.1C10.9,3.6,10.3,3.2,9.9,4.2z"/>
			<path class="st2" d="M12.9,4c0,0,0.6-1,1.3,0C14,3.4,13.4,3,12.9,4z"/>
			<g>
				<path class="st25" d="M9.9,4c0,0,0.4-0.8,1.2-0.1C10.9,3.5,10.2,3.1,9.9,4z"/>
				<path class="st26" d="M9.9,4.1L9.9,4.1C9.9,4.1,9.9,4,9.9,4.1c0.1-0.5,0.4-0.6,0.5-0.6l0,0c0.2,0,0.5,0.2,0.6,0.5l0,0l0,0
					c-0.2-0.2-0.5-0.3-0.7-0.3C10.1,3.8,9.9,4,9.9,4.1L9.9,4.1z M10.5,3.5C10.5,3.5,10.5,3.5,10.5,3.5c-0.1,0-0.3,0.1-0.5,0.4
					c0.1-0.1,0.2-0.2,0.4-0.2c0.2,0,0.4,0,0.6,0.2C11,3.7,10.7,3.5,10.5,3.5z"/>
			</g>
			<g>
				<path class="st25" d="M12.9,3.9c0,0,0.6-1,1.3,0C14,3.3,13.3,2.9,12.9,3.9z"/>
				<path class="st26" d="M12.9,3.9L12.9,3.9C12.9,3.9,12.9,3.9,12.9,3.9c0.2-0.4,0.4-0.7,0.7-0.6c0.2,0,0.5,0.2,0.6,0.6l0,0l0,0
					c-0.2-0.2-0.4-0.4-0.6-0.4l0,0C13.2,3.5,12.9,3.9,12.9,3.9C12.9,3.9,12.9,3.9,12.9,3.9z M13.6,3.3c-0.2,0-0.4,0.1-0.6,0.4
					c0.1-0.1,0.3-0.3,0.5-0.3c0.2,0,0.4,0.1,0.6,0.3C14,3.5,13.8,3.3,13.6,3.3L13.6,3.3z"/>
			</g>
			<g>
				<g>
					<path class="st1" d="M12.1,5.1L12.1,5.1c0,0,0,0.1,0,0.1c0,0,0,0,0,0c0,0,0,0,0,0h0h0h0h0l0,0c0,0,0,0,0,0.1
						c0.1,0.1,0.1,0.1,0.1,0.1l0,0l0,0c0,0,0,0,0,0h0c0,0,0,0,0,0s0,0,0,0h0c0,0,0,0,0,0l0,0l0,0c0,0,0,0,0-0.1s0,0,0-0.1
						c0,0,0,0,0,0h0h0h0c0,0,0,0,0,0c0,0,0,0,0,0l0,0C12.1,5.2,12.1,5.1,12.1,5.1L12.1,5.1z"/>
					<path class="st38" d="M12,4.5c0,0,0.3,0.5,0.1,0.7C12.1,5.4,12.5,5.1,12,4.5z"/>
					<path class="st38" d="M12,5.3C12,5.3,12,5.4,12,5.3C12,5.4,12,5.4,12,5.3C12,5.4,12,5.3,12,5.3C12,5.3,12,5.3,12,5.3z"/>
				</g>
				<path class="st27" d="M12,4.8c0,0,0,0.4-0.2,0.5c-0.2,0-0.2,0.3,0.3,0.4c0.2,0,0.4-0.1,0.3-0.3c0-0.1-0.2,0.3-0.6,0
					c0-0.1,0,0,0.2-0.1C12.1,5.2,12.1,5,12,4.8z"/>
			</g>
			<g>
				<path class="st39" d="M12.4,0.4c-0.1,0-0.3,0-0.5,0C12,0.4,12.2,0.4,12.4,0.4z"/>
				<path class="st40" d="M15.6,2.7c0-0.4-0.2-0.5-0.2-0.5c0.1,0,0.5,0.1,0.3-0.4c0,0.2-0.2,0.3-0.4,0.1c-0.3-0.6-1-0.8-1-0.8
					c0.1-0.2,0.4,0,0.4,0S14.3,0.4,14,0.9c0-0.2-0.2-0.5-0.6-0.5c0.3,0.1,0.4,0.5,0.4,0.5c0-0.1-0.4-0.2-0.4-0.2
					c-0.2-0.1-0.5-0.1-0.7-0.1c0,0-0.1,0-0.1,0c0.9,0.1,1.4,0.6,1.4,0.6S13.3,1,13.1,1.3C14,1,14.4,1.5,14.5,1.7
					c0-0.1-0.1-0.3-0.4-0.4c0.2,0,0.6,0.1,0.8,0.4s0.5,0.4,0.5,0.4c-0.1,0-0.2,0-0.4-0.1c0.5,0.3,0.6,0.9,0.5,1.4
					c-0.2-0.4-0.5-0.6-0.5-0.6C15.1,3.2,15,3.3,15,3.3s-0.1-0.4-0.6-0.5c-0.4-0.1-0.6-0.3-0.9-0.5c0,0.3-0.1,0.4-0.1,0.4
					s0-0.3-0.2-0.5c0.1,0.2,0,0.5-0.1,0.7c0-0.2-0.1-0.5-0.5-0.7c0.2,0.3,0.1,0.6,0.1,0.6s0-0.3-0.3-0.4c0,0.4-0.3,0.5-0.3,0.5
					c0.2-0.3,0-0.6,0-0.6s-0.3,0.6-1.2,0.7C9.8,3,10,2.5,10,2.5S9.6,2.8,9.7,3.1C9.5,3,9.4,2.7,9.5,2.5C9.1,2.6,8.8,2.8,8.7,3
					c0,0.1,0,0.1,0,0.2c0,0,0.1-0.3,0.4-0.4c0,0.5-0.3,0.8-0.7,0.6c0.3,0.4,0.7,0.2,0.7,0.2C9.1,4.1,8.6,4,8.6,4s0.2,0.2,0.5,0.1
					c0,0.2,0,0.6,0.2,1c0,0,0.1-1.2,0-1.7c0.3,0.3,1,0.1,1.1-0.1c-0.3,0-0.4-0.2-0.4-0.2s1.1,0.2,1.8-0.3c0,0.3-0.1,0.4-0.1,0.4
					s0.6-0.1,0.8-0.5c0,0,0.1,0.1,0.1,0.3c0.1,0,0.1-0.3,0.1-0.3s0.3,0.2,0.1,0.6c0.3-0.2,0.4-0.5,0.4-0.5s0,0.2,0.3,0.4
					c-0.1-0.3,0-0.4,0-0.4s0,0.2,0.6,0.4c0.5,0.1,0.7,0.3,0.8,0.8c0.2-0.1,0.1-0.5,0.1-0.5s0.5,0.6,0.4,1.4c0.3-0.4,0.2-1.2,0.1-1.4
					c0.2,0.3,0.3,0,0.3,0C15.7,3.4,15.6,3.1,15.6,2.7z"/>
			</g>
			<path class="st25" d="M8.9,1.9c0,0,0.3,0.3,0.6-0.1s1.3-1.5,3-1.2c0,0-0.7,0-0.8,0.2c0,0.2,1-0.4,0.6,0.2c-0.3,0.6,0.6-0.6,0.3,0
				c-0.3,0.6,0,0.4,0.3,0.3c0.2-0.1,0.5,0.3,0.4,0.7C13.2,1.7,13,1.7,13,1.7s0.3,0.3,0.1,0.7c0,0-0.2-0.5-0.9-0.6
				c0.2,0.1,0.3,0.4,0.3,0.4s-0.3-0.4-0.7-0.5c0.3,0.3,0.4,0.6,0.3,0.8c0-0.3-0.2-0.5-0.5-0.6c0.1,0.2-0.2,0.7-0.8,0.8
				c0,0,0.7-0.5,0.4-1c-0.3-0.4-0.6,0.7-0.6,0.1c0-0.5-0.8,0.6-0.5,0.1C10.3,1.3,9.4,2.7,8.9,1.9z"/>
			<path class="st25" d="M13.7,1.6c0,0-0.1,0.4,0.3,0.7c0.4,0.2,0.6,0.4,0.7,0.6c0-0.2-0.1-0.4-0.3-0.5c-0.2-0.1,0.1,0,0.1-0.1
				c0-0.1,0-0.2,0.1-0.1c0.1,0.1,0.1-0.1,0-0.1c0,0,0.3,0.2,0.3,0.5c0-0.2-0.2-0.6-0.4-0.7c-0.2-0.1-0.2-0.3-0.4-0.4
				c0.1,0.2,0.2,0.5,0,0.3c-0.2-0.2,0,0.4-0.1,0.1C13.9,1.7,14,2.3,13.7,1.6z"/>
		</g>
	</g>
	<g>
		<path class="st41" d="M11.4,6.7c0,0.1,0.1,0.3,0.2,0.4c0.2,0.1,0.6,0.2,0.9,0.1c0.3-0.1,0.4-0.2,0.6-0.5c0-0.1,0-0.2,0.1-0.3
			c0,0,0.2,0,0.1-0.1c0,0,0,0,0,0l0,0c0,0,0,0,0,0c0,0.1-0.3,0.1-0.4,0.1c-0.3,0-0.6,0-0.9,0.1c-0.1,0-0.3,0-0.5,0c0,0-0.1,0-0.2,0
			c0,0-0.1,0-0.1,0C11.1,6.6,11.3,6.6,11.4,6.7z"/>
		<path class="st42" d="M12.3,7.2c-0.1,0-0.3,0-0.5,0c-0.2,0-0.3-0.3-0.4-0.5c0,0,0.1,0,0.2,0c0,0,0.1,0,0.1,0c0.3,0,0.7,0,1,0
			c0.1,0,0.2,0,0.3,0C13,6.8,12.7,7.2,12.3,7.2z"/>
		<path class="st43" d="M11.8,7.1C11.8,7.1,11.8,7.1,11.8,7.1c0.2,0.1,0.4,0.1,0.6,0.1c0.1,0,0.3-0.1,0.4-0.2
			C12.4,7,12.1,7,11.8,7.1z"/>
		<path class="st44" d="M12.9,6.7c0,0,0-0.1,0.1-0.2c0,0-0.1,0-0.1,0c-0.3,0-0.7,0-1,0c0,0-0.1,0-0.1,0l0,0c0,0,0,0.1,0,0.1
			C11.9,7,12.5,7,12.9,6.7L12.9,6.7z"/>
		<path class="st45" d="M12.8,6.5c-0.3,0-0.7,0-1,0c0,0-0.1,0-0.1,0l0,0c0,0,0,0.1,0,0.1l0,0c0-0.1,0-0.1,0-0.1
			C12.1,6.7,12.4,6.7,12.8,6.5c0,0.1,0,0.1,0,0.1s0,0.1-0.1,0.1c0,0,0.1,0,0.1-0.1l0,0C12.8,6.7,12.8,6.6,12.8,6.5
			C12.9,6.5,12.8,6.5,12.8,6.5z"/>
		<path class="st1" d="M13.3,6.1L13.3,6.1c0,0,0,0.1-0.1,0.1l0,0c-0.1,0-0.2,0-0.2,0.1c-0.1,0-0.3,0.1-0.4,0.1c-0.3,0-0.6,0-0.9,0
			l0,0c-0.1,0-0.3,0-0.3,0l0,0l0,0v0c0,0.1,0.1,0.1,0.2,0.1c0,0.2,0.2,0.4,0.3,0.5c0.1,0.1,0.4,0.1,0.6,0.1c0.4,0,0.7-0.3,0.8-0.8
			l0,0c0,0,0.1,0,0.1,0C13.4,6.3,13.4,6.2,13.3,6.1z M12.3,7.2c-0.1,0-0.3,0-0.5,0c-0.2,0-0.3-0.3-0.4-0.5c0,0,0.1,0,0.2,0
			c0,0,0.1,0,0.1,0c0.3,0,0.7,0,1,0c0.1,0,0.2,0,0.3,0C13,6.8,12.7,7.2,12.3,7.2z"/>
		<g>
			<path class="st41" d="M12,7.6c0.1,0,0.2,0,0.4,0s0.3-0.2,0.4-0.3c-0.2,0-0.4,0.1-0.6,0.1s-0.3,0-0.5-0.1C11.9,7.5,12,7.6,12,7.6z
				"/>
			<path class="st2" d="M12.5,7.5c0.1,0,0.2,0,0.3-0.1c0,0,0,0,0-0.1c-0.2,0-0.4,0.1-0.6,0.1c-0.1,0-0.3,0-0.4,0
				C12,7.5,12.2,7.6,12.5,7.5z"/>
			<path class="st1" d="M12.6,7.4c-0.2,0-0.4,0.1-0.6,0l0,0C12.2,7.5,12.4,7.5,12.6,7.4L12.6,7.4z"/>
		</g>
	</g>
</g>
<g>
	<g>
		<path class="st46" d="M9.4,4.3C9.4,4.3,9.4,4.3,9.4,4.3c0,0.1,0.1,0.2,0.2,0.3c0,0,0,0,0,0c0-0.1,0-0.1,0-0.1
			C9.5,4.3,9.4,4.3,9.4,4.3z"/>
		<path class="st47" d="M9.4,4.3L9.4,4.3c0,0.1,0.1,0.2,0.2,0.2c0,0,0,0,0,0c0,0,0,0,0,0.1c0,0.1,0,0.1,0,0C9.5,4.5,9.3,4.3,9.4,4.3
			C9.4,4.3,9.3,4.3,9.4,4.3C9.3,4.3,9.4,4.3,9.4,4.3z"/>
		<path class="st48" d="M9.4,4.3l0.2,0.1v0L9.4,4.3z"/>
	</g>
	<path class="st49" d="M9.7,4.9c0-0.2-0.1-0.6,0.1-0.8c0.1-0.1,0.2-0.1,0.3-0.2C10,3.9,9.9,3.9,9.8,4C9.6,4.2,9.6,4.5,9.6,4.7
		c0,0.2,0.1,0.5,0.2,0.7c0.1,0.2,0.3,0.3,0.6,0.3c-0.1,0-0.2-0.1-0.3-0.1C9.9,5.5,9.8,5.2,9.7,4.9z"/>
	<path class="st49" d="M11.7,4.7c0,0.4-0.1,0.9-0.6,1.1c0.4-0.1,0.6-0.5,0.6-1c0-0.2,0-0.4-0.1-0.5c-0.1-0.2-0.3-0.4-0.6-0.4
		c0.1,0,0.2,0.1,0.4,0.2C11.7,4.2,11.7,4.5,11.7,4.7z"/>
	<path class="st50" d="M11.6,4c-0.2-0.2-0.4-0.2-0.7-0.2c0,0,0,0-0.1,0c0,0,0,0,0,0c-0.3,0-0.9,0-1.1,0.2C9.5,4.2,9.5,4.6,9.6,4.9
		c0,0.3,0.1,0.6,0.4,0.8c0.2,0.1,0.3,0.2,0.6,0.2c0,0,0.3,0,0.4,0c0.6-0.1,0.8-0.6,0.8-1.2C11.8,4.5,11.8,4.2,11.6,4z M9.8,5.5
		C9.7,5.3,9.6,5,9.6,4.7c0-0.2,0-0.5,0.1-0.7c0.1-0.1,0.2-0.2,0.4-0.2C10,3.9,9.9,3.9,9.8,4C9.6,4.2,9.6,4.6,9.7,4.9
		c0,0.3,0.1,0.6,0.4,0.8c0.1,0.1,0.2,0.1,0.3,0.1C10.2,5.8,10,5.7,9.8,5.5z M10,5.5C9.8,5.3,9.8,5,9.7,4.7c0-0.2,0-0.5,0.1-0.7
		c0.2-0.2,0.7-0.2,1-0.2c0.3,0,0.6,0.1,0.7,0.4c0,0.2,0.1,0.4,0.1,0.5c0,0.4-0.2,0.9-0.7,1c0,0-0.3,0-0.3,0
		C10.3,5.8,10.1,5.7,10,5.5z M11.7,4.7c0-0.2,0-0.5-0.2-0.6c-0.1-0.1-0.2-0.1-0.4-0.2c0.2,0,0.5,0.1,0.6,0.4
		C11.7,4.4,11.8,4.6,11.7,4.7c0,0.5-0.1,0.9-0.6,1.1C11.6,5.6,11.7,5.1,11.7,4.7z"/>
	
		<radialGradient id="SVGID_3_" cx="73.0327" cy="81.0422" r="2.6734" gradientTransform="matrix(0.9733 4.834840e-02 -4.511612e-02 0.918 -57.1178 -71.8527)" gradientUnits="userSpaceOnUse">
		<stop  offset="0.203" style="stop-color:#FCFFF7"/>
		<stop  offset="0.7862" style="stop-color:#009DF1"/>
	</radialGradient>
	<path class="st51" d="M10,5.5C9.8,5.3,9.8,5,9.7,4.7c0-0.2,0-0.5,0.1-0.7c0.2-0.2,0.7-0.2,1-0.2c0.3,0,0.6,0.1,0.7,0.4
		c0,0.2,0.1,0.4,0.1,0.5c0,0.4-0.2,0.9-0.7,1c0,0-0.3,0-0.3,0C10.3,5.8,10.1,5.7,10,5.5z"/>
	<path class="st4" d="M9.8,5.3c0,0-0.1-0.3-0.2-0.7c0-0.4,0.1-0.6,0.5-0.7c0.3,0,0.9,0,1.1,0c0,0-1-0.1-1.3,0.5
		C9.7,4.9,9.8,5.3,9.8,5.3z"/>
	<path class="st44" d="M11.6,5.2c-0.1,0.3-0.3,0.4-0.7,0.5c-0.3,0-0.8-0.1-1-0.3l0,0c0.1,0.3,0.7,0.4,1,0.4
		C11.2,5.8,11.5,5.6,11.6,5.2C11.6,5.2,11.6,5.2,11.6,5.2z"/>
	<g>
		<path class="st46" d="M11.8,4.6c0,0.1,0,0.3,0.1,0.2c0,0,0-0.3,0.4-0.3c0.3,0,0.4,0.1,0.5,0.2c0,0.1,0.1,0,0.1,0
			c0,0,0-0.4-0.6-0.4C12,4.4,11.8,4.4,11.8,4.6z"/>
		<path class="st47" d="M12.6,4.4C12.6,4.4,12.6,4.4,12.6,4.4c0,0.1,0,0.1,0,0.1c-0.2-0.1-0.5-0.1-0.7,0.1c0,0-0.1,0-0.1,0
			c0,0,0,0,0,0c0,0,0,0,0,0c0,0.1,0,0.3,0.1,0.2c0,0,0-0.3,0.4-0.3c0.3,0,0.4,0.1,0.5,0.2c0,0.1,0.1,0,0.1,0
			C12.9,4.8,12.9,4.5,12.6,4.4z"/>
		<path class="st48" d="M12.6,4.4c-0.2-0.1-0.7,0-0.7,0.1l0,0c0.1,0,0.2-0.1,0.3-0.1C12.3,4.4,12.4,4.4,12.6,4.4
			C12.6,4.4,12.6,4.5,12.6,4.4z"/>
	</g>
	<g>
		<path class="st49" d="M12.9,4.8c0-0.2-0.1-0.6,0.1-0.8c0.1-0.1,0.2-0.1,0.3-0.2c-0.1,0-0.3,0.1-0.4,0.2c-0.1,0.2-0.1,0.4-0.1,0.7
			c0,0.2,0.1,0.5,0.2,0.7c0.1,0.2,0.3,0.3,0.6,0.3c-0.1,0-0.2-0.1-0.3-0.1C13,5.3,12.9,5.1,12.9,4.8z"/>
		<path class="st49" d="M14.9,4.5c0,0.4-0.1,0.9-0.6,1.1c0.4-0.1,0.6-0.5,0.6-1c0-0.2,0-0.4-0.1-0.5c-0.1-0.2-0.3-0.4-0.6-0.4
			c0.1,0,0.2,0.1,0.4,0.2C14.8,4,14.9,4.3,14.9,4.5z"/>
		<path class="st50" d="M14.8,3.9c-0.2-0.1-0.4-0.2-0.7-0.2c0,0,0,0-0.1,0c0,0,0,0,0,0c-0.3,0-0.9,0-1.1,0.2
			c-0.2,0.2-0.1,0.6-0.1,0.8c0,0.3,0.1,0.6,0.4,0.8c0.1,0.1,0.3,0.2,0.6,0.2c0,0,0.3,0,0.4,0C14.8,5.7,15,5.1,15,4.6
			C15,4.3,15,4,14.8,3.9z M13,5.4c-0.1-0.2-0.2-0.5-0.2-0.7c0-0.2,0-0.5,0.1-0.7c0.1-0.1,0.2-0.2,0.4-0.2c-0.1,0-0.2,0.1-0.3,0.2
			c-0.2,0.2-0.1,0.6-0.1,0.8c0,0.3,0.1,0.6,0.4,0.8c0.1,0.1,0.2,0.1,0.3,0.1C13.4,5.7,13.1,5.6,13,5.4z M13.1,5.4
			c-0.1-0.2-0.2-0.5-0.2-0.7c0-0.2,0-0.5,0.1-0.7c0.2-0.2,0.7-0.2,1-0.2c0.3,0,0.6,0.1,0.7,0.4c0,0.2,0.1,0.4,0.1,0.5
			c0,0.4-0.2,0.9-0.7,1c0,0-0.3,0-0.3,0C13.5,5.7,13.3,5.6,13.1,5.4z M14.9,4.5c0-0.2,0-0.5-0.2-0.6c-0.1-0.1-0.2-0.1-0.4-0.2
			c0.2,0,0.5,0.1,0.6,0.4C14.9,4.3,14.9,4.5,14.9,4.5c0,0.5-0.1,0.9-0.6,1.1C14.7,5.5,14.9,5,14.9,4.5z"/>
		
			<radialGradient id="SVGID_4_" cx="76.2767" cy="80.7267" r="2.6732" gradientTransform="matrix(0.9733 4.834840e-02 -4.511612e-02 0.918 -57.1178 -71.8527)" gradientUnits="userSpaceOnUse">
			<stop  offset="0.203" style="stop-color:#FCFFF7"/>
			<stop  offset="0.7862" style="stop-color:#009DF1"/>
		</radialGradient>
		<path class="st52" d="M13.1,5.4c-0.1-0.2-0.2-0.5-0.2-0.7c0-0.2,0-0.5,0.1-0.7c0.2-0.2,0.7-0.2,1-0.2c0.3,0,0.6,0.1,0.7,0.4
			c0,0.2,0.1,0.4,0.1,0.5c0,0.4-0.2,0.9-0.7,1c0,0-0.3,0-0.3,0C13.5,5.7,13.3,5.6,13.1,5.4z"/>
		<path class="st4" d="M12.9,5.2c0,0-0.1-0.3-0.2-0.7c0-0.4,0.1-0.6,0.5-0.7c0.3,0,0.9,0,1.1,0c0,0-1-0.1-1.3,0.5
			C12.8,4.8,12.9,5.2,12.9,5.2z"/>
		<path class="st44" d="M14.8,5.1c-0.1,0.3-0.3,0.4-0.7,0.5c-0.3,0-0.8-0.1-1-0.3l0,0c0.1,0.3,0.7,0.4,1,0.4
			C14.4,5.7,14.7,5.4,14.8,5.1L14.8,5.1z"/>
	</g>
	<g>
		<path class="st46" d="M15.5,3.8C15.5,3.8,15.5,3.8,15.5,3.8c0,0.1-0.4,0.3-0.5,0.4c-0.1,0-0.1,0-0.1,0c0,0,0-0.1,0-0.1
			C15,3.9,15.5,3.8,15.5,3.8z"/>
		<path class="st47" d="M15.4,3.8C15.4,3.8,15.4,3.8,15.4,3.8c-0.1,0.1-0.5,0.3-0.6,0.3s0,0,0,0c0,0,0,0,0,0.1s0,0.1,0.1,0
			C15,4.1,15.4,3.9,15.4,3.8C15.5,3.9,15.5,3.8,15.4,3.8C15.5,3.8,15.5,3.8,15.4,3.8z"/>
		<path class="st48" d="M15.4,3.8L14.9,4c0,0,0,0,0,0L15.4,3.8z"/>
	</g>
	<g>
		<g>
			<path class="st53" d="M11.7,4.2c-0.1-0.3-0.5-0.4-0.8-0.4c-0.1,0-0.2,0-0.3,0c-0.3,0-0.6,0-0.9,0.2C9.4,4.2,9.4,4.4,9.4,4.6
				c0,0.5,0.2,1.1,0.8,1.2c0.3,0,0.7,0,1-0.1c0.2-0.1,0.3-0.3,0.4-0.6C11.8,4.9,11.8,4.5,11.7,4.2z M11.6,5c0,0.2-0.1,0.4-0.2,0.5
				c-0.2,0.2-0.7,0.2-1,0.2C9.8,5.6,9.7,5.1,9.6,4.6c0-0.2,0-0.3,0.1-0.5c0.2-0.2,0.5-0.2,0.8-0.2c0.3,0,0.8,0,0.9,0.3
				C11.6,4.4,11.6,4.8,11.6,5z"/>
			<path class="st48" d="M9.5,4.9c0,0-0.1-0.5,0-0.8c0.2-0.2,0.5-0.3,1-0.3c0,0-0.6,0-0.8,0.2S9.5,4.2,9.5,4.9z"/>
		</g>
		<g>
			<path class="st53" d="M14.9,4.1c-0.1-0.3-0.5-0.4-0.8-0.4c-0.1,0-0.2,0-0.3,0c-0.3,0-0.6,0-0.9,0.2c-0.1,0.1-0.2,0.3-0.2,0.5
				c0,0.5,0.2,1.1,0.8,1.2c0.3,0,0.7,0,1-0.1c0.2-0.1,0.3-0.3,0.4-0.6C15,4.7,15,4.3,14.9,4.1z M14.8,4.9c0,0.2-0.1,0.4-0.2,0.5
				c-0.2,0.2-0.7,0.2-1,0.2c-0.5-0.1-0.6-0.7-0.7-1.2c0-0.2,0-0.3,0.1-0.5c0.2-0.2,0.5-0.2,0.8-0.2c0.3,0,0.8,0,0.9,0.3
				C14.8,4.3,14.8,4.6,14.8,4.9z"/>
			<path class="st48" d="M12.7,4.7c0,0-0.1-0.5,0-0.8s0.5-0.3,1-0.3c0,0-0.6,0-0.8,0.2C12.7,4,12.6,4.1,12.7,4.7z"/>
		</g>
	</g>
</g>
</svg>
