<?xml version="1.0" encoding="utf-8"?>
<!-- Generator: Adobe Illustrator 24.0.1, SVG Export Plug-In . SVG Version: 6.00 Build 0)  -->
<svg version="1.1" id="Capa_1" xmlns="http://www.w3.org/2000/svg" xmlns:xlink="http://www.w3.org/1999/xlink" x="0px" y="0px"
	 viewBox="0 0 25 25" style="enable-background:new 0 0 25 25;" xml:space="preserve">
<style type="text/css">
	.st0{fill:#FBD0B4;}
	.st1{fill:#B56A4D;}
	.st2{fill:#F7931E;}
	.st3{fill:#F77A1E;}
	.st4{fill:#EFC2A7;}
	.st5{fill:none;}
	.st6{fill:#775E47;}
	.st7{fill:#7F3837;}
	.st8{opacity:0.7;fill:#7F3837;enable-background:new    ;}
	.st9{fill:#DBDCE9;}
	.st10{fill:#663732;}
	.st11{opacity:0.2;fill:#663732;enable-background:new    ;}
	.st12{opacity:0.4;fill:#7A3538;enable-background:new    ;}
	.st13{opacity:0.4;fill:#BAB8BA;enable-background:new    ;}
	.st14{opacity:0.5;fill:#9999A1;enable-background:new    ;}
	.st15{opacity:0.2;fill:#9999A1;enable-background:new    ;}
	.st16{opacity:0.5;fill:#FFFFFF;enable-background:new    ;}
	.st17{opacity:0.6;fill:#9999A1;enable-background:new    ;}
	.st18{fill:#775F47;}
	.st19{fill:#7F3937;}
	.st20{opacity:0.7;fill:#7F3937;enable-background:new    ;}
	.st21{fill:#663832;}
	.st22{opacity:0.2;fill:#663832;enable-background:new    ;}
	.st23{opacity:0.4;fill:#7A3537;enable-background:new    ;}
	.st24{opacity:0.4;fill:#BAB8B9;enable-background:new    ;}
	.st25{fill:#C63F93;}
	.st26{fill:#771154;}
	.st27{opacity:0.55;}
	.st28{opacity:0.55;fill:#C63F93;enable-background:new    ;}
	.st29{opacity:0.2;fill:#864EC8;enable-background:new    ;}
	.st30{opacity:0.6;fill:#FBC98F;enable-background:new    ;}
	.st31{fill:#6F4F9C;}
	.st32{fill:#3B2066;}
	.st33{opacity:0.5;}
	.st34{opacity:0.5;fill:#6F4F9C;enable-background:new    ;}
	.st35{opacity:0.45;fill:#FFFFFF;enable-background:new    ;}
	.st36{fill:#9E4C0B;}
	.st37{opacity:0.6;fill:#FBD0B4;enable-background:new    ;}
	.st38{fill:#FEF6EC;}
	.st39{fill:#9E5116;}
	.st40{fill:#BBAC9A;}
	.st41{fill:#984C08;}
	.st42{fill:#A0A427;}
	.st43{opacity:0.6;}
	.st44{fill:#9A5648;}
	.st45{fill:#0A010B;}
	.st46{fill:#FFFFFF;}
	.st47{opacity:0.7;fill:url(#SVGID_1_);enable-background:new    ;}
	.st48{fill:#A05B23;}
	.st49{fill:#602E09;}
	.st50{opacity:0.7;fill:url(#SVGID_2_);enable-background:new    ;}
	.st51{fill:#FCECE3;}
	.st52{fill:#A04C0B;}
	.st53{fill:#8C0C00;}
	.st54{opacity:0.6;fill:#B8A997;enable-background:new    ;}
	.st55{fill:#582E18;}
	.st56{fill:#33160A;}
</style>
<g>
	<g>
		<g>
			<g>
				<path class="st0" d="M10.1,16.3c0,0,0,0.8,0,1.6S10,20,10.1,22.4l1,0c0,0,0.3-2.4,0.4-4.5c0.1-1,0.2-1.5,0.2-1.5L10.1,16.3z"/>
				<path class="st1" d="M10.1,22.4C10.1,22.4,10.1,22.4,10.1,22.4c-0.1-1.7,0-2.9,0-3.7c0-0.3,0-0.6,0-0.8v-1.6c0,0,0,0,0,0
					c0,0,0,0,0,0l1.4,0.1c0,0,0,0,0,0c0,0,0,0,0,0c0,0,0,0.5-0.2,1.6c0,2-0.4,4.4-0.4,4.5c0,0,0,0,0,0L10.1,22.4L10.1,22.4z
					 M10.2,16.3v1.5c0,0.2,0,0.5,0,0.8c0,0.8-0.1,2,0,3.7l0.9,0c0-0.2,0.3-2.5,0.4-4.5c0.1-0.9,0.2-1.4,0.2-1.5L10.2,16.3z"/>
			</g>
			<g>
				<path class="st2" d="M10,20.5c0,0.6,0,1.2,0,1.9l1,0c0,0,0.1-0.8,0.2-1.9C10.9,20.6,10.4,20.6,10,20.5z"/>
				<path class="st3" d="M10.1,22.4C10.1,22.4,10.1,22.4,10.1,22.4C10,21.7,10,21.1,10,20.5c0,0,0,0,0,0c0,0,0,0,0,0
					c0.4,0.1,0.8,0.1,1.2,0c0,0,0,0,0,0c0,0,0,0,0,0c-0.1,1.1-0.2,1.9-0.2,1.9c0,0,0,0,0,0L10.1,22.4L10.1,22.4z M10.1,20.5
					c0,0.6,0,1.2,0,1.9l0.9,0c0-0.1,0.1-0.9,0.2-1.9C10.9,20.6,10.4,20.6,10.1,20.5z"/>
			</g>
			<path class="st1" d="M11.1,18c-0.1,0-0.1,0-0.2,0c-0.1,0-0.1,0-0.2,0c-0.1,0-0.2-0.1-0.3-0.2c0,0,0,0,0,0
				c0.1,0.1,0.2,0.2,0.3,0.2C10.8,18.1,11,18.1,11.1,18C11.1,18,11.1,18,11.1,18z"/>
			<g>
				<path class="st4" d="M10.1,16.3c0,0,0,0.8,0,1.6S10,20,10.1,22.4l1,0c0,0,0.3-2.4,0.4-4.5c0.1-1,0.2-1.5,0.2-1.5L10.1,16.3z
					 M10.3,17c0-0.5,0.8-0.2,0.8,0.2c0,0.4-0.1,0.8-0.5,0.7C10.3,17.7,10.3,17,10.3,17z M11.1,20.3c-0.1,1-0.3,1.6-0.5,1.6
					s-0.4,0-0.4-1.2c0-1.2,0.1-2,0.1-2c0.1-0.5,0.3-0.6,0.6-0.4C11.3,18.4,11.2,19.3,11.1,20.3z"/>
			</g>
			<g>
				<path class="st5" d="M10.7,17.9c0.4,0.2,0.5-0.2,0.5-0.7c0-0.4-0.8-0.7-0.8-0.2C10.3,17,10.3,17.7,10.7,17.9z"/>
				<path class="st5" d="M10.9,18.3c-0.3-0.1-0.5,0-0.6,0.4c0,0-0.1,0.8-0.1,2c0,1.1,0.2,1.1,0.4,1.2c0.2,0.1,0.5-0.5,0.5-1.6
					C11.2,19.3,11.3,18.4,10.9,18.3z"/>
				<path class="st4" d="M11.6,16.4l-1.4-0.1c0,0,0,0.1,0,0.3c0.2,0,0.6,0.1,0.9,0.1c0.3,0,0.3,0.5,0.2,0.9c0,0.4-0.4,0.4-0.7,0.4
					c0.2,0.2,0.4,0.2,0.6,0.2c0.2,0,0.1,1.1,0.1,2.1c0,0,0,0.1,0,0.1c0.1-0.8,0.1-1.6,0.1-2.4C11.6,16.9,11.6,16.4,11.6,16.4z"/>
			</g>
		</g>
		<g>
			<g>
				<path class="st6" d="M11.5,23.9c0-0.2,0-0.4-0.1-0.5c0-0.2-0.1-0.3-0.1-0.5c0-0.1-0.1-0.2-0.1-0.4c0.1-0.1,0.1-0.2,0-0.3
					C11.2,22.1,11,22,10.9,22c0,0,0,0,0,0c0,0,0,0,0,0c0,0,0,0.1,0,0.1c0,0,0,0,0,0c-0.1,0-0.1-0.1-0.2-0.1c-0.1,0-0.2,0-0.4,0.1
					c0,0,0,0,0-0.1c0,0,0,0,0,0c0,0,0,0,0,0c0,0,0,0,0,0c0,0,0,0,0,0c-0.1,0-0.1,0-0.2,0.1c-0.1,0-0.1,0.1-0.2,0.1
					c-0.1,0.1-0.1,0.2,0,0.3c0,0,0,0,0,0c-0.1,0.4-0.2,0.8-0.4,1.1c-0.1,0.1-0.1,0.2-0.1,0.4c0,0.3,0,0.5,0.1,0.7
					c0.2,0.2,0.5,0.3,0.7,0.3c0.2,0,0.3,0,0.5,0c0.1,0,0.3-0.1,0.4-0.1c0.1-0.1,0.2-0.1,0.3-0.2c0-0.1,0.1-0.2,0.1-0.3
					c0-0.1,0-0.1,0-0.2c0,0,0,0,0,0C11.5,24.1,11.5,24,11.5,23.9z"/>
				<path class="st7" d="M9.7,23.3c0.1-0.2,0.1-0.3,0.2-0.5c0-0.1,0.1-0.3,0.1-0.4c0,0,0,0,0,0c0,0,0,0,0,0.1c0-0.1,0-0.2,0.1-0.3
					c0.1,0,0.1,0,0.2-0.1c0,0,0,0,0,0c0,0,0,0.1,0,0.1c0,0-0.1,0.1-0.1,0.1c0,0,0,0,0,0c0,0-0.1,0-0.1-0.1c0,0,0,0,0,0
					c0,0,0,0,0.1,0.1c0,0,0,0,0.1,0c0,0.1,0,0.2,0,0.3c0,0,0,0,0,0c-0.2-0.4,0.3-0.5,0.6-0.5c0.1,0,0.2,0.1,0.3,0.2
					c0.1,0.1,0,0.3,0,0.4c0,0,0,0,0,0c0-0.1,0.1-0.3,0.1-0.4c0-0.1-0.1-0.1-0.2-0.1l0,0c0,0,0,0,0-0.1c0,0,0,0,0,0
					c0.1,0,0.2,0.1,0.2,0.2c0.1,0.1,0.1,0.2,0,0.3c0,0,0-0.1,0-0.1c0,0,0,0,0,0c0,0.3,0.1,0.5,0.2,0.8c0,0.2,0.1,0.4,0.1,0.6
					c-0.1-0.2-0.3-0.3-0.5-0.3c-0.2-0.1-0.5-0.1-0.7,0c-0.3,0-0.6,0.2-0.8,0.4C9.5,23.7,9.6,23.5,9.7,23.3z"/>
				<path class="st8" d="M11.3,23.2c-0.1-0.2-0.2-0.5-0.2-0.8c0,0,0,0,0,0c0,0,0,0.1,0,0.1c0-0.1,0-0.2,0-0.3
					C11.1,22.1,11,22,10.9,22c0,0,0,0,0,0c0,0,0,0.1,0,0.1l0,0c0.1,0,0.1,0.1,0.2,0.1c0.1,0.1,0,0.3-0.1,0.4c0,0,0,0,0,0
					c0-0.1,0.1-0.3,0-0.4c-0.1-0.1-0.2-0.2-0.3-0.2c0,0-0.1,0-0.1,0c0,0,0.1,0.1,0.1,0.2c0,0.1-0.1,0.1-0.2,0.1
					c-0.1,0-0.2,0-0.2,0.1c0,0,0,0,0,0c0,0-0.1,0.7-0.1,0.7c0.1,0,0.3,0,0.4,0.1c0.1,0,0.1,0.1,0.1,0.2c0.1,0,0.2,0,0.3,0.1
					c0.2,0.1,0.4,0.1,0.5,0.3C11.4,23.6,11.4,23.4,11.3,23.2z"/>
				<path class="st9" d="M9.4,23.9c0.2-0.3,0.5-0.4,0.8-0.5c0.2,0,0.4,0,0.6,0c0.1,0,0.2,0.1,0.3,0.1c0.1,0.1,0.2,0.2,0.2,0.2
					c0,0,0,0,0,0c0,0.1,0,0.2-0.1,0.3c-0.1,0.1-0.2,0.2-0.4,0.3c-0.2,0.1-0.5,0.2-0.7,0.1c-0.3,0-0.6-0.2-0.8-0.5
					C9.4,24,9.4,24,9.4,23.9z"/>
				<path class="st9" d="M10.9,24.8c-0.3,0.1-0.5,0.1-0.8,0.1c-0.2,0-0.4-0.1-0.5-0.2c-0.2-0.1-0.2-0.3-0.2-0.6
					c0,0.1,0.1,0.1,0.1,0.2c0,0,0,0,0,0c0.2,0.2,0.5,0.3,0.8,0.3c0.3,0,0.6-0.1,0.8-0.2c0.2-0.1,0.2-0.2,0.3-0.4c0,0.1,0,0.2,0,0.3
					c0,0,0,0.1,0,0.1c0,0,0,0.1,0,0.1c0,0,0,0-0.1,0.1C11.2,24.7,11.1,24.8,10.9,24.8z"/>
				<path class="st6" d="M11.1,22.9c0,0,0-0.1,0-0.1c0,0-0.1-0.1-0.1-0.1c-0.2-0.2-0.7-0.2-0.9,0c0,0,0,0,0,0c0,0-0.1,0-0.1,0.1
					c0,0,0,0.1,0,0.1c0,0,0,0,0,0c0,0,0,0,0,0c0,0.1,0,0.2-0.1,0.2c0,0-0.1,0.2,0,0.2c0.1,0.1,0.1,0,0.2,0c0.2-0.1,0.3-0.1,0.5-0.1
					c0.2,0,0.3,0.1,0.5,0.2c0.1,0,0.1,0,0.2-0.1C11.2,23.1,11.2,23,11.1,22.9z"/>
				<path class="st10" d="M11,23.2c-0.2-0.1-0.3-0.1-0.5-0.1c-0.2,0-0.3,0-0.5,0.1c-0.1,0-0.1-0.1-0.1-0.2c0,0,0,0,0-0.1
					c0-0.1,0.1-0.2,0.1-0.3c0,0,0-0.1,0.1-0.1c0.3-0.2,0.7-0.1,0.9,0.1c0,0.1,0.1,0.1,0.1,0.2C11.1,23,11.2,23.3,11,23.2z"/>
				<path class="st11" d="M11.1,22.9c0-0.1,0-0.1-0.1-0.2c-0.1-0.1-0.2-0.1-0.4-0.2c0,0,0.1,0,0.1,0.1c0.1,0.1,0.1,0.3,0,0.4
					c0,0-0.1,0-0.1,0c-0.1,0-0.2,0-0.2,0c-0.1,0-0.2,0.1-0.3,0.1c0,0-0.1,0-0.1,0c0,0.1,0,0.2,0.1,0.1c0.2-0.1,0.3-0.1,0.5-0.1
					c0.2,0,0.3,0.1,0.5,0.1C11.2,23.3,11.1,23,11.1,22.9z"/>
			</g>
			<path class="st12" d="M10.4,22.6c-0.1,0-0.2,0-0.3,0.1C10,22.7,10,22.9,10,23c0,0,0,0,0,0c0.1-0.1,0.1-0.2,0.2-0.3
				C10.3,22.7,10.4,22.6,10.4,22.6C10.4,22.6,10.5,22.6,10.4,22.6z"/>
			<path class="st13" d="M10.5,22.2c-0.1,0-0.1,0-0.2,0c0,0-0.1,0.1-0.1,0.2c0,0,0,0,0,0c0,0,0,0,0-0.1c0,0,0,0,0.1,0
				C10.4,22.2,10.4,22.2,10.5,22.2C10.5,22.2,10.5,22.2,10.5,22.2z"/>
			<g>
				<path class="st14" d="M10.4,24.6c0,0.1,0,0.2,0,0.3c0,0,0.1,0,0.1,0c0-0.1,0-0.1,0-0.2c0,0,0-0.1,0-0.1
					C10.5,24.6,10.5,24.6,10.4,24.6z"/>
				<path class="st14" d="M9.6,24.7C9.6,24.7,9.6,24.7,9.6,24.7C9.6,24.7,9.6,24.7,9.6,24.7c0.1,0,0.1-0.1,0.1-0.2
					c0,0-0.1,0-0.1-0.1C9.6,24.5,9.6,24.6,9.6,24.7z"/>
				<path class="st14" d="M9.5,24.3C9.5,24.3,9.5,24.3,9.5,24.3C9.5,24.3,9.5,24.3,9.5,24.3c-0.1-0.1-0.1-0.1-0.1-0.2
					c0,0.2,0,0.4,0.1,0.5C9.5,24.5,9.5,24.4,9.5,24.3z"/>
				<path class="st14" d="M9.7,24.8c0,0,0.1,0,0.1,0.1c0-0.1,0-0.2,0-0.3c0,0-0.1,0-0.1-0.1C9.7,24.6,9.7,24.7,9.7,24.8z"/>
				<path class="st14" d="M9.9,24.5c0,0.1,0,0.2,0,0.3c0,0,0.1,0,0.1,0c0-0.1,0-0.2,0-0.3C10,24.6,9.9,24.5,9.9,24.5z"/>
				<path class="st14" d="M10.2,24.6c0,0-0.1,0-0.1,0c0,0.1,0,0.2,0,0.3c0,0,0,0,0.1,0c0,0,0,0,0.1,0C10.2,24.8,10.2,24.7,10.2,24.6
					z"/>
				<path class="st14" d="M10.4,24.6C10.4,24.6,10.3,24.6,10.4,24.6c-0.1,0-0.1,0-0.1,0c0,0.1,0,0.2,0,0.3c0,0,0.1,0,0.1,0
					C10.4,24.8,10.4,24.7,10.4,24.6z"/>
				<path class="st14" d="M10.6,24.6c0,0.1,0,0.1,0,0.2c0,0,0,0.1,0,0.1c0,0,0.1,0,0.1,0v-0.3C10.7,24.6,10.6,24.6,10.6,24.6z"/>
				<path class="st14" d="M10.8,24.6v0.3c0,0,0.1,0,0.1,0c0-0.1,0-0.2,0-0.3C10.9,24.5,10.8,24.5,10.8,24.6z"/>
				<path class="st14" d="M11,24.5c0,0.1,0,0.2,0,0.3c0,0,0.1,0,0.1,0c0-0.1,0-0.2,0-0.3C11,24.4,11,24.5,11,24.5z"/>
				<path class="st14" d="M11.2,24.4C11.1,24.4,11.1,24.4,11.2,24.4c0,0.1,0,0.2,0,0.3c0,0,0.1,0,0.1-0.1
					C11.2,24.5,11.2,24.4,11.2,24.4C11.2,24.4,11.2,24.4,11.2,24.4z"/>
				<path class="st14" d="M11.3,24.3c0,0.1,0,0.2,0,0.3c0,0,0,0,0,0c0,0,0,0,0.1-0.1c0,0,0-0.1,0-0.1c0,0,0-0.1,0-0.1
					c0-0.1,0-0.2,0-0.3C11.4,24.1,11.4,24.2,11.3,24.3z"/>
			</g>
			<path class="st15" d="M11.4,23.8c-0.1-0.1-0.1-0.2-0.2-0.2c-0.1-0.1-0.2-0.1-0.3-0.1c-0.1,0-0.3-0.1-0.4-0.1
				c0.1,0,0.1,0.1,0.2,0.1c0.2,0.3,0,0.6-0.2,0.7c-0.2,0.1-0.6,0.1-0.8-0.1c-0.1-0.1-0.2-0.2-0.1-0.4c0,0-0.1,0.1-0.1,0.1
				c0,0.1,0,0.1,0,0.2c0.1,0.3,0.5,0.5,0.8,0.5c0.3,0,0.5,0,0.7-0.1c0.1-0.1,0.3-0.1,0.4-0.3C11.4,24.1,11.4,24,11.4,23.8
				C11.4,23.8,11.4,23.8,11.4,23.8z"/>
			<path class="st15" d="M11.4,23.8c-0.1-0.1-0.1-0.2-0.2-0.2c0,0,0,0,0,0c0,0.2,0,0.5-0.2,0.6c-0.2,0.2-0.4,0.3-0.6,0.3
				c-0.2,0-0.4,0-0.6-0.1c0.2,0.1,0.3,0.2,0.5,0.2c0.3,0,0.5,0,0.7-0.1c0.1-0.1,0.3-0.1,0.4-0.3C11.4,24.1,11.4,24,11.4,23.8
				C11.4,23.8,11.4,23.8,11.4,23.8z"/>
			<path class="st12" d="M10,22.4C10,22.4,10,22.5,10,22.4c0,0.2-0.1,0.4-0.2,0.5c0,0.2-0.1,0.3-0.2,0.4c0,0,0,0.1-0.1,0.1
				c0,0,0,0,0,0c0,0,0,0.1,0,0.1c0,0,0.1,0,0.1,0c0,0,0.1-0.1,0.1-0.1c0,0,0,0,0,0c-0.1,0-0.1,0-0.2,0.1c0,0,0,0,0,0c0,0,0,0,0,0
				c0,0,0.2-0.5,0.2-0.6c0-0.1,0.1-0.2,0.1-0.3C10,22.5,10,22.5,10,22.4C10,22.4,10,22.4,10,22.4z"/>
			<path class="st16" d="M10.3,23.7c-0.1-0.2-0.4-0.2-0.6,0c-0.1,0.1-0.1,0.2-0.1,0.3c0,0.3,0.3,0.3,0.5,0.2
				C10.2,24.1,10.4,23.9,10.3,23.7z"/>
			<path class="st16" d="M10.5,24c0,0-0.1,0-0.1,0c0,0,0,0,0,0c0,0,0,0,0,0.1c0,0.1,0,0.1,0.1,0.1c0,0,0,0,0,0c0,0,0.1,0,0.1,0
				c0,0,0,0,0,0C10.5,24.1,10.5,24,10.5,24z"/>
			<path class="st17" d="M9.9,24.6c0.2,0.1,0.4,0.1,0.7,0c0.1,0,0.2,0,0.4,0c0.1,0,0.1,0,0.2,0c0,0,0,0,0,0c0,0,0,0,0.1,0
				c0,0,0,0,0.1-0.1c0,0,0-0.1,0-0.1c0,0,0-0.1,0-0.1c0-0.1,0-0.2,0-0.3c0,0.2-0.1,0.3-0.3,0.4c-0.3,0.1-0.5,0.2-0.8,0.2
				c-0.3,0-0.6-0.1-0.8-0.3c0,0,0,0,0,0c-0.1,0-0.1-0.1-0.1-0.2c0,0,0,0,0,0.1C9.5,24.4,9.8,24.6,9.9,24.6z"/>
		</g>
	</g>
	<g>
		<g>
			<g>
				<path class="st0" d="M14.4,16.3c0,0,0,0.8,0,1.6c0,0.8,0.3,2.1,0.2,4.5l-1,0c0,0-0.4-2.4-0.5-4.5c-0.2-1-0.2-1.5-0.2-1.5
					L14.4,16.3z"/>
				<path class="st1" d="M13.7,22.4C13.7,22.4,13.7,22.4,13.7,22.4c0,0-0.4-2.4-0.5-4.5c-0.2-1-0.2-1.5-0.2-1.5s0,0,0,0c0,0,0,0,0,0
					l1.4-0.1c0,0,0,0,0,0c0,0,0,0,0,0l0,1.6c0,0.2,0,0.5,0.1,0.8c0.1,0.8,0.2,2,0.1,3.7c0,0,0,0,0,0L13.7,22.4
					C13.7,22.4,13.7,22.4,13.7,22.4z M13,16.4c0,0.1,0.1,0.6,0.2,1.5c0.1,1.9,0.4,4.2,0.5,4.4l0.9,0c0.1-1.7-0.1-2.9-0.1-3.7
					c0-0.3-0.1-0.6-0.1-0.8l0-1.5L13,16.4z"/>
			</g>
			<g>
				<path class="st2" d="M14.7,20.5c0,0.6,0,1.2,0,1.9l-1,0c0,0-0.1-0.8-0.3-1.9C13.8,20.6,14.3,20.6,14.7,20.5z"/>
				<path class="st3" d="M13.7,22.4C13.7,22.4,13.7,22.4,13.7,22.4c0,0-0.2-0.8-0.3-1.9c0,0,0,0,0,0c0,0,0,0,0,0
					c0.4,0.1,0.8,0.1,1.2,0c0,0,0,0,0,0c0,0,0,0,0,0c0,0.6,0,1.3,0,1.9c0,0,0,0,0,0L13.7,22.4C13.7,22.4,13.7,22.4,13.7,22.4z
					 M13.4,20.5c0.1,1,0.2,1.7,0.3,1.9l0.9,0c0-0.6,0-1.3,0-1.9C14.3,20.6,13.8,20.6,13.4,20.5z"/>
			</g>
			<path class="st1" d="M13.6,18c0.1,0,0.1,0,0.2,0c0.1,0,0.1,0,0.2,0c0.1,0,0.2-0.1,0.3-0.2c0,0,0,0,0,0C14.2,18,14.1,18,14,18.1
				C13.8,18.1,13.7,18.1,13.6,18C13.6,18,13.5,18,13.6,18z"/>
			<g>
				<path class="st4" d="M13,16.4c0,0,0,0.5,0.2,1.5c0.1,2.1,0.5,4.5,0.5,4.5l1,0c0.1-2.4-0.2-3.8-0.2-4.5c0-0.8,0-1.6,0-1.6
					L13,16.4z M13.9,17.9c-0.4,0.2-0.5-0.2-0.5-0.7c0-0.4,0.8-0.7,0.8-0.2C14.3,17,14.3,17.7,13.9,17.9z M13.7,18.3
					c0.3-0.1,0.5,0,0.6,0.4c0,0,0.2,0.8,0.2,2c0,1.1-0.1,1.1-0.4,1.2c-0.2,0.1-0.5-0.5-0.6-1.6C13.5,19.3,13.4,18.4,13.7,18.3z"/>
			</g>
			<g>
				<path class="st5" d="M13.9,17.9c-0.4,0.2-0.5-0.2-0.5-0.7c0-0.4,0.8-0.7,0.8-0.2C14.3,17,14.3,17.7,13.9,17.9z"/>
				<path class="st5" d="M13.7,18.3c0.3-0.1,0.5,0,0.6,0.4c0,0,0.2,0.8,0.2,2c0,1.1-0.1,1.1-0.4,1.2c-0.2,0.1-0.5-0.5-0.6-1.6
					C13.5,19.3,13.4,18.4,13.7,18.3z"/>
				<path class="st4" d="M13,16.4l1.4-0.1c0,0,0,0.1,0,0.3c-0.2,0-0.6,0.1-0.9,0.1c-0.3,0-0.2,0.5-0.2,0.9c0,0.4,0.4,0.4,0.7,0.4
					c-0.2,0.2-0.4,0.2-0.6,0.2c-0.2,0-0.1,1.1,0,2.1c0,0,0,0.1,0,0.1c-0.1-0.8-0.2-1.6-0.2-2.4C13,16.9,13,16.4,13,16.4z"/>
			</g>
		</g>
		<g>
			<g>
				<path class="st18" d="M13.3,23.9c0-0.2,0-0.4,0.1-0.5c0-0.2,0.1-0.3,0.1-0.5c0-0.1,0.1-0.2,0.1-0.4c-0.1-0.1-0.1-0.2,0-0.3
					c0.1-0.2,0.2-0.2,0.3-0.2c0,0,0,0,0,0c0,0,0,0,0,0c0,0,0,0.1,0,0.1c0,0,0,0,0,0c0.1,0,0.1-0.1,0.2-0.1c0.1,0,0.2,0,0.4,0.1
					c0,0,0,0,0-0.1c0,0,0,0,0,0c0,0,0,0,0,0c0,0,0,0,0,0c0,0,0,0,0,0c0.1,0,0.1,0,0.2,0.1c0.1,0,0.1,0.1,0.2,0.1
					c0.1,0.1,0.1,0.2,0,0.3c0,0,0,0,0,0c0.1,0.4,0.3,0.8,0.5,1.1c0.1,0.1,0.1,0.2,0.1,0.4c0,0.3,0,0.5-0.1,0.7
					c-0.2,0.2-0.5,0.3-0.7,0.3c-0.2,0-0.3,0-0.5,0c-0.1,0-0.3,0-0.4-0.1c-0.1-0.1-0.2-0.1-0.3-0.2c0-0.1-0.1-0.2-0.1-0.3
					c0-0.1,0-0.1,0-0.2c0,0,0,0,0,0C13.3,24.1,13.3,24,13.3,23.9z"/>
				<path class="st19" d="M15.1,23.3c-0.1-0.2-0.1-0.3-0.2-0.5c0-0.1-0.1-0.3-0.1-0.4c0,0,0,0,0,0c0,0,0,0,0,0.1
					c0-0.1,0-0.2-0.1-0.3c-0.1,0-0.1,0-0.2-0.1c0,0,0,0,0,0c0,0,0,0.1,0,0.1c0,0,0.1,0.1,0.1,0.1c0,0,0,0,0,0c0,0,0.1,0,0.1-0.1
					c0,0,0,0,0,0c0,0,0,0-0.1,0.1c0,0,0,0-0.1,0c0,0.1,0,0.2,0,0.3c0,0,0,0,0,0c0.2-0.4-0.3-0.5-0.6-0.5c-0.1,0-0.2,0.1-0.3,0.2
					c-0.1,0.1,0,0.3,0,0.4c0,0,0,0,0,0c0-0.1-0.1-0.3-0.1-0.4c0-0.1,0.1-0.1,0.2-0.1l0,0c0,0,0,0,0-0.1c0,0,0,0,0,0
					c-0.1,0-0.2,0.1-0.2,0.2c-0.1,0.1-0.1,0.2,0,0.3c0,0,0-0.1,0-0.1c0,0,0,0,0,0c0,0.3-0.1,0.5-0.1,0.8c0,0.2-0.1,0.4-0.1,0.6
					c0.1-0.2,0.3-0.3,0.5-0.3c0.2-0.1,0.5-0.1,0.7-0.1c0.3,0,0.6,0.1,0.8,0.4C15.3,23.6,15.2,23.5,15.1,23.3z"/>
				<path class="st20" d="M13.4,23.2c0.1-0.2,0.2-0.5,0.1-0.8c0,0,0,0,0,0c0,0,0,0.1,0,0.1c0-0.1,0-0.2,0-0.3
					c0.1-0.1,0.2-0.1,0.2-0.2c0,0,0,0,0,0c0,0,0,0.1,0,0.1l0,0c-0.1,0-0.1,0.1-0.2,0.1c-0.1,0.1,0,0.3,0.1,0.4c0,0,0,0,0,0
					c0-0.1-0.1-0.3,0-0.4c0.1-0.1,0.2-0.2,0.3-0.2c0,0,0.1,0,0.1,0c0,0-0.1,0.1-0.1,0.2c0,0.1,0.1,0.1,0.2,0.1c0.1,0,0.2,0,0.2,0.1
					c0,0,0,0,0,0c0,0,0.1,0.7,0.1,0.7c-0.1,0-0.3,0-0.4,0.1c-0.1,0-0.1,0.1-0.1,0.2c-0.1,0-0.2,0-0.3,0.1c-0.2,0.1-0.4,0.1-0.5,0.3
					C13.4,23.6,13.4,23.4,13.4,23.2z"/>
				<path class="st9" d="M15.4,23.9c-0.2-0.3-0.5-0.4-0.8-0.4c-0.2,0-0.4,0-0.6,0.1c-0.1,0-0.2,0.1-0.3,0.1
					c-0.1,0.1-0.2,0.2-0.2,0.2c0,0,0,0,0,0c0,0.1,0,0.2,0.1,0.3c0.1,0.1,0.3,0.2,0.4,0.3c0.2,0.1,0.5,0.1,0.7,0.1
					c0.3,0,0.6-0.2,0.8-0.5C15.4,24,15.4,23.9,15.4,23.9z"/>
				<path class="st9" d="M13.9,24.8c0.3,0.1,0.5,0.1,0.8,0.1c0.2,0,0.4-0.1,0.5-0.2c0.2-0.1,0.2-0.3,0.2-0.6c0,0.1-0.1,0.1-0.1,0.2
					c0,0,0,0,0,0c-0.2,0.2-0.5,0.3-0.8,0.3c-0.3,0-0.6,0-0.8-0.2c-0.2-0.1-0.2-0.2-0.3-0.4c0,0.1,0,0.2,0,0.3c0,0,0,0.1,0,0.1
					c0,0,0,0.1,0,0.1c0,0,0,0,0.1,0.1C13.6,24.7,13.7,24.8,13.9,24.8z"/>
				<path class="st18" d="M13.6,22.9c0,0,0-0.1,0-0.1c0,0,0.1-0.1,0.1-0.1c0.2-0.2,0.6-0.2,0.9-0.1c0,0,0,0,0,0c0,0,0.1,0,0.1,0.1
					c0,0,0,0.1,0,0.1c0,0,0,0,0,0c0,0,0,0,0,0c0,0.1,0,0.2,0.1,0.2c0,0,0.1,0.2,0,0.2c0,0.1-0.1,0-0.2,0c-0.2-0.1-0.3-0.1-0.5-0.1
					c-0.2,0-0.3,0.1-0.4,0.2c-0.1,0-0.1,0-0.2-0.1C13.6,23.2,13.6,23,13.6,22.9z"/>
				<path class="st21" d="M13.8,23.3c0.2-0.1,0.3-0.1,0.5-0.1c0.2,0,0.3,0,0.5,0.1c0.1,0,0.1-0.1,0.1-0.2c0,0,0,0,0-0.1
					c0-0.1-0.1-0.2-0.1-0.3c0,0,0-0.1-0.1-0.1c-0.3-0.2-0.7-0.1-0.9,0.1c0,0.1-0.1,0.1-0.1,0.2C13.6,23,13.6,23.3,13.8,23.3z"/>
				<path class="st22" d="M13.7,22.9c0-0.1,0-0.1,0.1-0.2c0.1-0.1,0.2-0.1,0.4-0.2c0,0-0.1,0-0.1,0.1c-0.1,0.1-0.1,0.3,0,0.4
					c0,0,0.1,0,0.1,0c0.1,0,0.2,0,0.2,0c0.1,0,0.2,0.1,0.3,0.1c0,0,0.1,0,0.1,0c0,0.1,0,0.2-0.1,0.1c-0.2-0.1-0.3-0.1-0.5-0.1
					c-0.2,0-0.3,0.1-0.5,0.1C13.6,23.3,13.6,23,13.7,22.9z"/>
			</g>
			<path class="st23" d="M14.3,22.6c0.1,0,0.2,0,0.3,0.1c0.1,0.1,0.1,0.2,0.2,0.3c0,0,0,0,0,0c-0.1-0.1-0.1-0.2-0.2-0.3
				C14.5,22.7,14.4,22.6,14.3,22.6C14.3,22.6,14.3,22.6,14.3,22.6z"/>
			<path class="st24" d="M14.3,22.2c0.1,0,0.1,0,0.2,0c0,0,0.2,0.1,0.1,0.2c0,0,0,0,0,0c0,0,0,0,0-0.1c0,0,0,0-0.1,0
				C14.4,22.2,14.3,22.2,14.3,22.2C14.3,22.2,14.3,22.2,14.3,22.2z"/>
			<g>
				<path class="st14" d="M14.4,24.6c0,0.1,0,0.2,0,0.3c0,0-0.1,0-0.1,0c0-0.1,0-0.1,0-0.2c0,0,0-0.1,0-0.1
					C14.3,24.6,14.3,24.6,14.4,24.6z"/>
				<path class="st14" d="M15.2,24.6C15.2,24.6,15.2,24.6,15.2,24.6C15.2,24.7,15.2,24.7,15.2,24.6c-0.1,0-0.1-0.1-0.1-0.2
					c0,0,0.1,0,0.1-0.1C15.2,24.4,15.2,24.5,15.2,24.6z"/>
				<path class="st14" d="M15.3,24.3C15.3,24.3,15.3,24.3,15.3,24.3C15.3,24.3,15.3,24.3,15.3,24.3c0.1-0.1,0.1-0.1,0.1-0.2
					c0,0.2,0,0.4-0.1,0.5C15.3,24.5,15.3,24.4,15.3,24.3z"/>
				<path class="st14" d="M15.1,24.7c0,0-0.1,0-0.1,0.1c0-0.1,0-0.2,0-0.3c0,0,0.1,0,0.1-0.1C15.1,24.5,15.1,24.6,15.1,24.7z"/>
				<path class="st14" d="M14.9,24.5c0,0.1,0,0.2,0,0.3c0,0-0.1,0-0.1,0c0-0.1,0-0.2,0-0.3C14.8,24.5,14.9,24.5,14.9,24.5z"/>
				<path class="st14" d="M14.6,24.6c0,0,0.1,0,0.1,0c0,0.1,0,0.2,0,0.3c0,0,0,0-0.1,0c0,0,0,0-0.1,0C14.6,24.8,14.6,24.7,14.6,24.6
					z"/>
				<path class="st14" d="M14.4,24.6C14.4,24.6,14.5,24.6,14.4,24.6c0.1,0,0.1,0,0.1,0c0,0.1,0,0.2,0,0.3c0,0-0.1,0-0.1,0
					C14.4,24.8,14.4,24.7,14.4,24.6z"/>
				<path class="st14" d="M14.2,24.6c0,0.1,0,0.1,0,0.2c0,0,0,0.1,0,0.1c0,0-0.1,0-0.1,0l0-0.3C14.1,24.6,14.2,24.6,14.2,24.6z"/>
				<path class="st14" d="M14,24.6l0,0.3c0,0-0.1,0-0.1,0c0-0.1,0-0.2,0-0.3C13.9,24.5,14,24.5,14,24.6z"/>
				<path class="st14" d="M13.8,24.5c0,0.1,0,0.2,0,0.3c0,0-0.1,0-0.1,0c0-0.1,0-0.2,0-0.3C13.8,24.5,13.8,24.5,13.8,24.5z"/>
				<path class="st14" d="M13.6,24.4C13.6,24.4,13.7,24.4,13.6,24.4c0,0.1,0,0.2,0.1,0.3c0,0-0.1,0-0.1-0.1
					C13.6,24.6,13.6,24.5,13.6,24.4C13.6,24.4,13.6,24.4,13.6,24.4z"/>
				<path class="st14" d="M13.5,24.3c0,0.1,0,0.2,0,0.3c0,0,0,0,0,0c0,0,0,0-0.1-0.1c0,0,0-0.1,0-0.1c0,0,0-0.1,0-0.1
					c0-0.1,0-0.2,0-0.3C13.4,24.2,13.4,24.2,13.5,24.3z"/>
			</g>
			<path class="st15" d="M13.4,23.9c0.1-0.1,0.1-0.2,0.2-0.2c0.1-0.1,0.2-0.1,0.3-0.1c0.1,0,0.3-0.1,0.4-0.1c-0.1,0-0.1,0.1-0.2,0.1
				c-0.2,0.3,0,0.6,0.2,0.7c0.2,0.1,0.6,0.1,0.8-0.1c0.1-0.1,0.2-0.3,0.1-0.4c0,0,0.1,0.1,0.1,0.1c0,0.1,0,0.1,0,0.2
				c-0.1,0.3-0.5,0.5-0.8,0.5c-0.3,0-0.5,0-0.7-0.1c-0.1-0.1-0.3-0.1-0.4-0.3C13.4,24.1,13.4,24,13.4,23.9
				C13.4,23.9,13.4,23.9,13.4,23.9z"/>
			<path class="st15" d="M13.4,23.9c0.1-0.1,0.1-0.2,0.2-0.2c0,0,0,0,0,0c0,0.2,0,0.5,0.2,0.6c0.2,0.2,0.4,0.3,0.6,0.3
				c0.2,0,0.4,0,0.6-0.1c-0.2,0.1-0.3,0.2-0.5,0.2c-0.3,0-0.5,0-0.7-0.1c-0.1-0.1-0.3-0.1-0.4-0.3C13.4,24.1,13.4,24,13.4,23.9
				C13.4,23.9,13.4,23.9,13.4,23.9z"/>
			<path class="st23" d="M14.7,22.4C14.7,22.4,14.8,22.5,14.7,22.4c0.1,0.2,0.1,0.4,0.2,0.5c0,0.1,0.1,0.3,0.2,0.4
				c0,0,0,0.1,0.1,0.1c0,0,0,0,0,0c0,0,0,0.1,0,0.1c0,0-0.1,0-0.1,0c0,0-0.1-0.1-0.1-0.1c0,0,0,0,0,0c0.1,0,0.1,0,0.2,0.1
				c0,0,0,0,0,0c0,0,0,0,0,0c0,0-0.2-0.5-0.2-0.6c0-0.1-0.1-0.2-0.1-0.3C14.7,22.5,14.8,22.5,14.7,22.4
				C14.7,22.4,14.7,22.4,14.7,22.4z"/>
			<path class="st16" d="M14.7,24.1c0.2,0.1,0.5,0.1,0.5-0.2c0-0.1-0.1-0.2-0.1-0.3c-0.1-0.1-0.5-0.2-0.6,0
				C14.3,23.9,14.6,24.1,14.7,24.1z"/>
			<path class="st16" d="M14.3,24.1C14.3,24.1,14.3,24.1,14.3,24.1c0,0,0.1,0.1,0.1,0.1c0,0,0,0,0,0c0,0,0.1,0,0.1-0.1
				c0,0,0-0.1,0-0.1c0,0,0,0,0,0c0,0-0.1,0-0.1,0C14.3,24,14.3,24.1,14.3,24.1z"/>
			<path class="st17" d="M14.9,24.6c-0.2,0.1-0.4,0.1-0.7,0.1c-0.1,0-0.2,0-0.4,0c-0.1,0-0.1,0-0.2,0c0,0,0,0,0,0c0,0,0,0-0.1,0
				c0,0,0,0-0.1-0.1c0,0,0-0.1,0-0.1c0,0,0-0.1,0-0.1c0-0.1,0-0.2,0-0.3c0,0.2,0.1,0.3,0.3,0.4c0.3,0.1,0.5,0.2,0.8,0.2
				c0.3,0,0.6-0.1,0.8-0.3c0,0,0,0,0,0c0.1,0,0.1-0.1,0.1-0.2c0,0,0,0,0,0.1C15.3,24.4,15,24.5,14.9,24.6z"/>
		</g>
	</g>
	<g>
		<g>
			<g>
				<path class="st25" d="M9.8,15.9l0-0.3c-0.2,0-0.3,0-0.3,0.3c0,0.3,0.1,0.5,0.5,0.6c0.4,0.1,1.4,0.2,1.8,0.1
					c0.1,0,0.3-0.1,0.3-0.3c0-0.2,0.1-0.4-0.2-0.5c0,0,0,0.1,0,0.4C10.9,16.3,9.8,15.9,9.8,15.9z"/>
				<path class="st26" d="M11.2,16.6c-0.5,0-1,0-1.3-0.1c-0.4-0.1-0.5-0.3-0.5-0.6c0-0.3,0.1-0.3,0.3-0.3l0,0c0,0,0,0,0,0
					c0,0,0,0,0,0l0,0.3c0.1,0,1.2,0.4,2.1,0.2l0-0.4c0,0,0,0,0,0c0,0,0,0,0,0c0.1,0,0.1,0,0.2,0.1c0.1,0.1,0,0.2,0,0.3
					c0,0,0,0.1,0,0.1c0,0.2-0.2,0.3-0.3,0.3C11.6,16.6,11.4,16.6,11.2,16.6z M9.7,15.6c-0.1,0-0.2,0-0.2,0.3c0,0.3,0.1,0.5,0.5,0.6
					c0.4,0.1,1.4,0.2,1.8,0.1c0.1,0,0.3-0.1,0.3-0.3c0,0,0-0.1,0-0.1c0-0.1,0-0.2,0-0.3c0,0-0.1-0.1-0.1-0.1l0,0.3c0,0,0,0,0,0
					c-0.9,0.2-2.1-0.2-2.1-0.2c0,0,0,0,0,0L9.7,15.6L9.7,15.6C9.7,15.6,9.7,15.6,9.7,15.6z"/>
			</g>
			<g>
				<path class="st25" d="M14.8,16c0-0.3,0-0.4,0-0.4c0,0,0,0,0,0c0-1.1-0.1-2.3-0.5-3c0,0-1.9-0.3-4,0.1c0,0-0.4,1.1-0.5,3l0,0.3
					c0,0,1.2,0.4,2.1,0.2c0-0.3,0-0.3,0-0.4h0c0-0.6,0.1-0.8,0.3-1c0.1,0,0.1,0,0.1,0s0.3,0,0.3,1.1l0,0.4
					C12.7,16.2,13.8,16.3,14.8,16z"/>
				<path class="st26" d="M11.3,16.2c-0.8,0-1.6-0.3-1.6-0.3c0,0,0,0,0,0l0-0.3c0-1.9,0.5-3,0.5-3c0,0,0,0,0,0c2.1-0.3,4-0.1,4-0.1
					c0,0,0,0,0,0c0.3,0.7,0.4,1.9,0.5,3c0,0,0,0,0,0V16c0,0,0,0,0,0c-0.9,0.3-2.1,0.2-2.1,0.2c0,0,0,0,0,0l0-0.4
					c-0.1-0.9-0.3-1-0.3-1.1l-0.1,0c-0.2,0.2-0.3,0.4-0.3,1c0,0,0,0,0,0l0,0.4c0,0,0,0,0,0C11.7,16.2,11.5,16.2,11.3,16.2z
					 M9.8,15.9c0.1,0,1.2,0.4,2.1,0.2l0-0.3c0,0,0,0,0,0c0-0.6,0.1-0.8,0.3-1.1c0,0,0,0,0,0l0.1,0c0,0,0,0,0,0c0,0,0.3,0.1,0.3,1.1
					l0,0.4c0.1,0,1.2,0.1,2-0.2v-0.4c0,0,0,0,0,0c0-1.1-0.1-2.3-0.4-3c-0.1,0-2-0.3-4,0.1c0,0.1-0.4,1.2-0.5,3L9.8,15.9z M14.8,16
					L14.8,16L14.8,16z"/>
			</g>
			<g>
				<path class="st25" d="M15,15.9c0-0.3-0.1-0.3-0.3-0.3c0,0,0,0.1,0,0.4c-0.9,0.3-2.1,0.2-2.1,0.2l0-0.4c-0.2,0.1-0.2,0.1-0.2,0.3
					c0,0.2,0,0.4,0.3,0.4c0.2,0,1.1,0.2,1.8-0.1C15.1,16.3,15.1,16.2,15,15.9z"/>
				<path class="st26" d="M13.6,16.6c-0.4,0-0.7,0-0.8-0.1c-0.2,0-0.3-0.2-0.3-0.4l0,0c0-0.2,0-0.3,0.2-0.3c0,0,0,0,0,0c0,0,0,0,0,0
					l0,0.4c0.1,0,1.2,0.1,2-0.2v-0.4c0,0,0,0,0,0c0.2,0,0.3,0,0.3,0.3c0,0.3,0,0.4-0.5,0.6C14.2,16.6,13.9,16.6,13.6,16.6z
					 M12.6,15.8c-0.2,0-0.2,0.1-0.1,0.3l0,0c0,0.2,0,0.3,0.2,0.4c0.2,0,1.1,0.1,1.8-0.1c0.5-0.2,0.5-0.3,0.5-0.5
					c0-0.3-0.1-0.3-0.3-0.3V16c0,0,0,0,0,0c-0.9,0.3-2.1,0.2-2.1,0.2c0,0,0,0,0,0L12.6,15.8z"/>
			</g>
			<g class="st27">
				<path class="st25" d="M14.8,15.6c0-1.1-0.1-2.3-0.5-3c0,0-1.9-0.3-4,0.1c0,0-0.4,1.1-0.5,3l0,0.3c0,0,1.2,0.4,2.1,0.2
					c0-0.3,0-0.3,0-0.4h0c0-0.6,0.1-0.8,0.3-1c0.1,0,0.1,0,0.1,0s0.3,0,0.3,1.1l0,0.4c0,0,1.2,0.2,2.1-0.2
					C14.8,15.7,14.8,15.6,14.8,15.6C14.8,15.6,14.8,15.6,14.8,15.6z M12.9,15.8c-0.1-0.8-0.2-1,0-1c0.2,0,0.6-0.1,0.9-0.7
					c-0.5,0.3-1.6,0.8-2.8,0.2c0.3,0.4,0.8,0.3,0.7,0.8c-0.1,0.5-0.1,0.9-0.1,0.9S10.7,16,10,15.7c-0.1-0.9,0-1.6,0.1-2
					c0.1-0.4,0.2-0.2,0.4,0c0.2,0.2-0.5-1,0.1-0.6c0,0,1,0.8,3.3,0.1c0.4-0.1,0,0.3-0.3,0.5c-0.2,0.2,0,0.2,0.3,0
					c0.3-0.2,0.4,0.4,0.5,2C13.6,16.1,12.9,15.8,12.9,15.8z"/>
			</g>
		</g>
		<path class="st26" d="M13.5,14.2c-0.3,0.2-0.6,0.3-0.9,0.4c-0.3,0.1-0.7,0.1-1,0c-0.2,0-0.4-0.1-0.5-0.2c0,0,0,0,0,0
			c0.6,0.4,1.3,0.4,1.9,0.1C13.2,14.5,13.4,14.4,13.5,14.2C13.5,14.2,13.5,14.2,13.5,14.2z"/>
		<g>
			<path class="st28" d="M14.8,15.6c0-1.1-0.1-2.3-0.5-3c0,0-1.9-0.3-4,0.1c0,0,0,0.1-0.1,0.3c0.6,0.3,2.1,0.8,3.8,0.2
				c0.4-0.2,0.4,0.1,0.2,0.3c-0.2,0.3,0.3-0.1,0.4,0.4c0.1,0.5,0.1,1.6,0.1,2c-0.4,0.2-0.8,0.3-1.9,0.3l0,0.1c0,0,1.2,0.2,2.1-0.2
				C14.8,15.7,14.8,15.6,14.8,15.6C14.8,15.6,14.8,15.6,14.8,15.6z"/>
		</g>
		<path class="st25" d="M13.4,14.1c-0.4,0.1-0.8,0.3-1.2,0.3c-0.4,0-0.8-0.1-1-0.3c0,0,0,0,0,0C11.7,14.8,12.7,14.5,13.4,14.1
			C13.4,14.1,13.4,14.1,13.4,14.1z"/>
		<path class="st25" d="M10.2,15.3c0-0.1,0-0.2,0-0.3c0-0.2,0-0.4,0-0.6c0,0,0,0,0,0c0,0.2,0,0.4,0,0.7
			C10.1,15.1,10.1,15.2,10.2,15.3c-0.1,0.1-0.1,0.2-0.1,0.2c0,0.1,0,0.1,0,0.2c0,0,0.1-0.1,0.1-0.1C10.2,15.5,10.2,15.4,10.2,15.3z"
			/>
		<path class="st25" d="M13,15.3c0-0.1,0-0.1,0-0.2c0-0.1,0-0.1,0-0.2c0,0,0,0,0,0c0,0.1,0,0.1,0,0.2C12.9,15.2,12.9,15.3,13,15.3
			c-0.1,0.2-0.1,0.4,0,0.5c0,0.1,0.1,0,0.1-0.1C13,15.6,13,15.4,13,15.3z"/>
		<g class="st27">
			<path class="st25" d="M11.9,15.8c0,0,0,0.1,0,0.4c-0.9,0.2-2.1-0.2-2.1-0.2l0-0.3c-0.2,0-0.3,0-0.3,0.2c0.1,0,0.1,0,0.1,0.1
				c0.1,0.3,0.3,0.4,1.3,0.4c0.5,0.1,0.7-0.1,0.7,0.3c0.1,0,0.1,0,0.2,0c0.1,0,0.3-0.1,0.3-0.3C12.1,16,12.2,15.8,11.9,15.8z"/>
		</g>
		<g class="st27">
			<path class="st25" d="M15,15.9c0-0.3-0.1-0.3-0.3-0.3c0,0,0,0.1,0,0.4c-0.9,0.3-2.1,0.2-2.1,0.2l0-0.4c-0.2,0-0.2,0.1-0.2,0.3
				c0,0,0.1,0,0.1,0.1c0.1,0.2,0.8,0.2,1.9,0.1c0.3,0,0.3,0,0.3,0.1C15.1,16.2,15.1,16.1,15,15.9z"/>
		</g>
		<path class="st29" d="M11.1,16.4c-0.5,0-1.1,0-1.5-0.3c0,0,0,0,0,0C10,16.5,10.5,16.5,11.1,16.4C11.1,16.5,11.1,16.4,11.1,16.4z"
			/>
		<path class="st29" d="M14.1,16.4c-0.5,0-1,0.1-1.5-0.2c0,0,0,0,0,0C13,16.6,13.6,16.6,14.1,16.4C14.1,16.5,14.1,16.4,14.1,16.4z"
			/>
	</g>
	<g>
		<g>
			<path class="st0" d="M14,9.4c0,0,0.3,0.8,0.4,1.2c0.1,0.4,0.2,0.6,0.3,1.1c0.2,0.8,0.3,1.2,0.4,1.4c0.1,0.2,0.2,0.4,0.1,0.6
				c-0.1,0.2-0.1,0.3-0.1,0.6c0,0.3-0.1,0.4-0.1,0.5c-0.1,0.1-0.1,0.2,0.1,0.2c0.1,0,0.2-0.2,0.3-0.3c0-0.1,0.1-0.3,0.1-0.3
				s0.2,0.3,0.1,0.6c0,0.3-0.1,0.6,0,0.7s0.2-0.2,0.2-0.2c0,0.1,0.2,0,0.3-0.2c0,0.1,0.2,0,0.2-0.3c0-0.2,0.2-0.8-0.1-1.2
				c-0.3-0.5-0.2-0.5-0.4-1.5c-0.2-0.7-0.3-1.1-0.5-1.6C15.1,10,15,9.3,15,9.3L14,9.4z"/>
			<path class="st1" d="M15.6,15.7C15.6,15.7,15.5,15.7,15.6,15.7c-0.1-0.1-0.1-0.2-0.1-0.5c0-0.1,0-0.2,0-0.2
				c0-0.3-0.1-0.5-0.1-0.6c0,0-0.1,0.1-0.1,0.2c0,0.1-0.1,0.3-0.3,0.3c-0.1,0-0.1,0-0.1,0c0,0,0-0.1,0-0.2c0.1-0.1,0.1-0.2,0.1-0.5
				c0,0,0-0.1,0-0.1c0-0.2,0-0.3,0.1-0.5c0.1-0.1,0.1-0.3,0-0.5c0,0,0-0.1,0-0.1c0,0,0-0.1,0-0.1c-0.1-0.3-0.2-0.6-0.4-1.4
				c-0.1-0.5-0.2-0.7-0.3-1.1C14.3,10.2,14,9.4,14,9.4c0,0,0,0,0,0c0,0,0,0,0,0L15,9.3c0,0,0,0,0,0c0,0,0.1,0.7,0.3,1.3
				c0.1,0.3,0.1,0.5,0.2,0.7c0.1,0.3,0.2,0.6,0.3,0.9c0.1,0.3,0.1,0.6,0.2,0.7c0.1,0.4,0.1,0.5,0.3,0.8c0.3,0.5,0.2,1.1,0.1,1.3
				c0,0.2-0.1,0.3-0.2,0.3c0,0,0,0,0,0c-0.1,0.2-0.2,0.2-0.2,0.2c0,0,0,0,0,0c0,0,0,0,0,0C15.7,15.6,15.6,15.7,15.6,15.7
				C15.6,15.7,15.6,15.7,15.6,15.7z M15.4,14.4C15.4,14.4,15.4,14.4,15.4,14.4c0,0,0.2,0.3,0.2,0.6c0,0.1,0,0.2,0,0.2
				c0,0.2,0,0.4,0,0.4c0,0,0,0,0,0c0,0,0.1-0.1,0.1-0.2c0,0,0,0,0,0c0,0,0,0,0,0s0,0,0,0c0,0,0,0,0,0c0,0,0,0,0,0
				c0,0,0.1-0.1,0.2-0.3c0,0,0,0,0,0c0,0,0,0,0,0c0,0,0,0,0,0c0,0,0.1-0.1,0.2-0.3c0-0.2,0.2-0.8-0.1-1.2c-0.2-0.3-0.2-0.4-0.3-0.8
				c0-0.2-0.1-0.4-0.2-0.7c-0.1-0.3-0.2-0.6-0.2-0.9c-0.1-0.2-0.1-0.5-0.2-0.8C15.1,10,15,9.4,14.9,9.3L14,9.4
				c0,0.1,0.3,0.8,0.4,1.2c0.1,0.4,0.2,0.6,0.3,1.1c0.2,0.7,0.3,1.1,0.4,1.3c0,0,0,0.1,0,0.1c0,0,0,0.1,0,0.1c0.1,0.2,0.1,0.3,0,0.5
				c-0.1,0.1-0.1,0.3-0.1,0.5c0,0,0,0.1,0,0.1c0,0.3-0.1,0.4-0.1,0.5c0,0.1,0,0.1,0,0.1c0,0,0,0,0.1,0c0,0,0,0,0,0
				c0.1,0,0.2-0.2,0.2-0.3C15.3,14.5,15.4,14.4,15.4,14.4C15.4,14.4,15.4,14.4,15.4,14.4L15.4,14.4z"/>
		</g>
		<g>
			<path class="st1" d="M15.7,14.5C15.7,14.5,15.7,14.5,15.7,14.5c0,0.2,0,0.4,0,0.5c0,0.1,0,0.2,0,0.3c0,0.1,0,0.2-0.1,0.3
				c0,0,0,0,0,0c0-0.1,0-0.2,0.1-0.2c0-0.1,0-0.2,0-0.3C15.8,14.8,15.8,14.6,15.7,14.5z"/>
			<path class="st1" d="M15.9,14.4C15.9,14.4,15.9,14.5,15.9,14.4c0,0.3,0,0.7-0.2,1c0,0,0,0,0,0c0.1-0.2,0.1-0.3,0.2-0.5
				c0-0.1,0-0.2,0-0.3C16,14.6,16,14.5,15.9,14.4z"/>
			<path class="st1" d="M16.1,14.3C16.1,14.3,16.1,14.3,16.1,14.3c0,0.2,0,0.3,0,0.5c0,0.1,0,0.2,0,0.2c0,0.1-0.1,0.1-0.1,0.2
				c0,0,0,0,0,0c0-0.1,0.1-0.1,0.1-0.2c0-0.1,0-0.2,0-0.2C16.2,14.6,16.2,14.5,16.1,14.3z"/>
		</g>
		<g>
			<path class="st4" d="M15.1,14.7c0.1-0.2,0.1-0.4,0.2-0.7c0.1-0.3,0.3-0.4,0.6-0.5c-0.4,0-0.6-0.6-0.7-1.4c-0.1-0.7,0-0.6-0.2-1.2
				c-0.3-1-0.4-1.2-0.1-1.2c0.1,0,0.2,0,0.2-0.1C15,9.4,15,9.3,15,9.3L14,9.4c0,0,0.3,0.8,0.4,1.2c0.1,0.4,0.2,0.6,0.3,1.1
				c0.2,0.8,0.3,1.2,0.4,1.4c0.1,0.2,0.2,0.4,0.1,0.6c-0.1,0.2-0.1,0.3-0.1,0.6c0,0.3-0.1,0.4-0.1,0.5c0,0.1-0.1,0.1,0,0.2
				C15,14.9,15.1,14.8,15.1,14.7z"/>
			<path class="st4" d="M15.6,15.2c0-0.2,0.1-0.3,0-0.5c-0.1-0.3-0.2-0.5-0.2-0.4c0,0,0,0.1,0,0.1c0,0,0,0,0,0s0.2,0.3,0.1,0.6
				c0,0.3-0.1,0.6,0,0.7c0,0,0,0,0.1,0C15.6,15.6,15.6,15.4,15.6,15.2z"/>
			<path class="st4" d="M16.2,14.7c0-0.2-0.1-0.4-0.1-0.4c0,0,0,0.1,0,0.3c0,0.2,0,0.5-0.1,0.5c-0.1,0,0-0.2,0-0.5
				c0-0.2-0.1-0.2-0.1-0.1c0,0.2,0,0.5-0.1,0.5c0,0-0.1-0.2-0.1-0.4c0-0.2-0.1-0.2-0.1-0.1c0,0.1,0.1,0.3,0.1,0.4
				c0,0.1,0,0.4-0.1,0.6c0,0,0,0,0,0c0,0.1,0.2,0,0.3-0.2c0,0.1,0.2,0,0.2-0.3c0,0,0-0.1,0-0.1C16.3,14.8,16.2,14.8,16.2,14.7z"/>
		</g>
		<path class="st30" d="M15.4,11.3c0,0,0.2,0.7,0.5,1.8C15.7,12.6,15.5,11.5,15.4,11.3z"/>
		<path class="st30" d="M16,13.5c0,0,0.3,0.5,0.3,1C16.3,14.1,16.2,13.9,16,13.5z"/>
		<path class="st30" d="M15.7,14.5c0,0,0,0.3,0,0.6c0,0.3-0.1,0.5-0.1,0.5S15.9,15.1,15.7,14.5z"/>
	</g>
	<g>
		<g>
			<path class="st0" d="M10.7,9.4c0,0-0.3,0.8-0.4,1.2c-0.1,0.4-0.2,0.6-0.3,1.1c-0.2,0.8-0.3,1.2-0.4,1.4c-0.1,0.2-0.2,0.4-0.1,0.6
				c0.1,0.2,0.1,0.3,0.1,0.6c0,0.3,0.1,0.4,0.1,0.5c0.1,0.1,0.1,0.2-0.1,0.2c-0.1,0-0.2-0.2-0.3-0.3c0-0.1-0.1-0.3-0.1-0.3
				S9.1,14.6,9.2,15c0,0.3,0.1,0.6,0,0.7S9,15.5,9,15.4c0,0.1-0.2,0-0.3-0.2c0,0.1-0.2,0-0.2-0.3c0-0.2-0.2-0.8,0.1-1.2
				c0.3-0.5,0.2-0.5,0.4-1.5c0.2-0.7,0.3-1.1,0.5-1.6C9.6,10,9.8,9.3,9.8,9.3L10.7,9.4z"/>
			<path class="st1" d="M9.1,15.7C9.1,15.7,9.1,15.7,9.1,15.7c-0.1,0-0.1-0.1-0.2-0.2c0,0,0,0,0,0c0,0,0,0,0,0
				c-0.1,0-0.2-0.1-0.2-0.2c0,0,0,0,0,0c-0.1,0-0.1-0.1-0.2-0.3c0-0.2-0.2-0.8,0.1-1.3c0.2-0.3,0.2-0.4,0.3-0.8
				c0-0.2,0.1-0.4,0.2-0.7c0.1-0.3,0.2-0.6,0.3-0.9c0.1-0.2,0.1-0.5,0.2-0.7C9.6,10,9.7,9.3,9.7,9.3c0,0,0,0,0,0l0.9,0.2
				c0,0,0,0,0,0s0,0,0,0c0,0-0.3,0.8-0.4,1.2c-0.1,0.4-0.2,0.6-0.3,1.1c-0.2,0.7-0.3,1.1-0.4,1.4c0,0,0,0.1,0,0.1c0,0,0,0.1,0,0.1
				c-0.1,0.2-0.1,0.3,0,0.5c0.1,0.1,0.1,0.3,0.1,0.5c0,0,0,0.1,0,0.1c0,0.3,0.1,0.4,0.1,0.5c0,0.1,0.1,0.1,0,0.2c0,0-0.1,0-0.1,0
				c0,0,0,0,0,0c-0.2,0-0.2-0.2-0.3-0.3c0-0.1-0.1-0.2-0.1-0.2c0,0.1-0.1,0.3-0.1,0.6c0,0.1,0,0.2,0,0.2C9.2,15.4,9.2,15.6,9.1,15.7
				C9.2,15.7,9.2,15.7,9.1,15.7z M9,15.4C9,15.4,9,15.4,9,15.4C9,15.4,9,15.4,9,15.4c0.1,0.1,0.1,0.2,0.2,0.2c0,0,0,0,0,0
				c0.1,0,0-0.2,0-0.4c0-0.1,0-0.2,0-0.2c0-0.3,0.1-0.6,0.1-0.6c0,0,0,0,0,0c0,0,0,0,0,0c0,0,0.1,0.1,0.1,0.3c0,0.1,0.1,0.3,0.2,0.3
				c0,0,0,0,0,0c0.1,0,0.1,0,0.1,0c0,0,0-0.1,0-0.1c-0.1-0.1-0.1-0.2-0.1-0.5c0,0,0-0.1,0-0.1c0-0.2,0-0.3-0.1-0.5
				c-0.1-0.2-0.1-0.3,0-0.5c0,0,0-0.1,0-0.1c0,0,0-0.1,0-0.1c0.1-0.3,0.2-0.6,0.4-1.3c0.1-0.5,0.2-0.7,0.3-1.1
				c0.1-0.3,0.4-1,0.4-1.2L9.8,9.3c0,0.1-0.2,0.7-0.3,1.3c-0.1,0.3-0.1,0.5-0.2,0.8c-0.1,0.3-0.2,0.6-0.2,0.9
				c-0.1,0.3-0.1,0.6-0.2,0.7c-0.1,0.4-0.1,0.5-0.3,0.8c-0.3,0.5-0.2,1-0.1,1.2c0,0.2,0.1,0.3,0.2,0.3c0,0,0,0,0,0c0,0,0,0,0,0
				c0,0,0,0,0,0C8.8,15.4,8.9,15.4,9,15.4C8.9,15.4,8.9,15.4,9,15.4C9,15.4,9,15.4,9,15.4C9,15.4,9,15.4,9,15.4z"/>
		</g>
		<g>
			<path class="st1" d="M9,14.5C9,14.5,9,14.5,9,14.5c0,0.2,0,0.4,0,0.5c0,0.1,0,0.2,0,0.3c0,0.1,0,0.2,0.1,0.3c0,0,0,0,0,0
				c0-0.1,0-0.2-0.1-0.2c0-0.1,0-0.2,0-0.3C8.9,14.8,8.9,14.6,9,14.5z"/>
			<path class="st1" d="M8.8,14.4C8.8,14.4,8.8,14.5,8.8,14.4c0,0.3,0,0.7,0.2,1c0,0,0,0,0,0c-0.1-0.2-0.1-0.3-0.2-0.5
				c0-0.1,0-0.2,0-0.3C8.7,14.6,8.8,14.5,8.8,14.4z"/>
			<path class="st1" d="M8.6,14.3C8.6,14.3,8.6,14.3,8.6,14.3c0,0.2,0,0.3,0,0.5c0,0.1,0,0.2,0,0.2c0,0.1,0.1,0.1,0.1,0.2
				c0,0,0,0,0,0c0-0.1-0.1-0.1-0.1-0.2c0-0.1,0-0.2,0-0.2C8.6,14.6,8.5,14.5,8.6,14.3z"/>
		</g>
		<g>
			<path class="st4" d="M9.6,14.7c-0.1-0.2-0.1-0.4-0.2-0.7c-0.1-0.3-0.3-0.4-0.6-0.5c0.4,0,0.6-0.6,0.7-1.4c0.1-0.7,0-0.6,0.2-1.2
				c0.3-1,0.4-1.2,0.1-1.2c-0.1,0-0.2,0-0.2-0.1c0-0.2,0.1-0.3,0.1-0.3l0.9,0.2c0,0-0.3,0.8-0.4,1.2c-0.1,0.4-0.2,0.6-0.3,1.1
				c-0.2,0.8-0.3,1.2-0.4,1.4c-0.1,0.2-0.2,0.4-0.1,0.6c0.1,0.2,0.1,0.3,0.1,0.6c0,0.3,0.1,0.4,0.1,0.5c0,0.1,0.1,0.1,0,0.2
				C9.7,14.9,9.6,14.8,9.6,14.7z"/>
			<path class="st4" d="M9.1,15.2c0-0.2-0.1-0.3,0-0.5c0.1-0.3,0.2-0.5,0.2-0.4c0,0,0,0.1,0,0.1c0,0,0,0,0,0S9.1,14.6,9.2,15
				c0,0.3,0.1,0.6,0,0.7c0,0,0,0-0.1,0C9.1,15.6,9.1,15.4,9.1,15.2z"/>
			<path class="st4" d="M8.5,14.7c0-0.2,0.1-0.4,0.1-0.4c0,0,0,0.1,0,0.3c0,0.2,0,0.5,0.1,0.5c0.1,0,0-0.2,0-0.5
				c0-0.2,0.1-0.2,0.1-0.1c0,0.2,0,0.5,0.1,0.5c0,0,0.1-0.2,0.1-0.4c0-0.2,0.1-0.2,0.1-0.1c0,0.1-0.1,0.3-0.1,0.4
				c0,0.1,0,0.4,0.1,0.6c0,0,0,0,0,0c0,0.1-0.2,0-0.3-0.2c0,0.1-0.2,0-0.2-0.3c0,0,0-0.1,0-0.1C8.5,14.8,8.5,14.8,8.5,14.7z"/>
		</g>
		<path class="st30" d="M9.3,11.3c0,0-0.2,0.7-0.5,1.8C9,12.6,9.2,11.5,9.3,11.3z"/>
		<path class="st30" d="M8.7,13.5c0,0-0.3,0.5-0.3,1C8.4,14.1,8.5,13.9,8.7,13.5z"/>
		<path class="st30" d="M9,14.5c0,0,0,0.3,0,0.6C9,15.4,9,15.5,9,15.5S8.8,15.1,9,14.5z"/>
	</g>
	<g>
		<g>
			<path class="st0" d="M13.8,8.2c0-0.4,0-0.7,0-0.7C13.7,7.2,13.1,7,13,7c-0.1-0.1-0.1-0.6-0.1-0.6l-1.3,0c0,0,0,0.5-0.1,0.6
				c-0.1,0.1-0.7,0.2-0.9,0.5c0,0,0,0.3,0,0.7C10.7,8.2,13.8,8.2,13.8,8.2z"/>
			<path class="st1" d="M13.8,8.2h-3.2c0,0,0,0,0,0c0-0.4,0-0.7,0-0.7c0,0,0,0,0,0c0.2-0.2,0.5-0.4,0.8-0.4c0.1,0,0.1-0.1,0.2-0.1
				c0.1,0,0.1-0.4,0-0.5c0,0,0,0,0,0c0,0,0,0,0,0l1.3,0c0,0,0,0,0,0c0,0,0,0,0,0c0,0.2,0,0.6,0.1,0.6c0,0,0.1,0,0.2,0.1
				c0.2,0.1,0.6,0.2,0.7,0.4c0,0,0,0,0,0C13.9,7.5,13.9,7.8,13.8,8.2C13.9,8.2,13.9,8.2,13.8,8.2z M10.7,8.2h3.1c0-0.4,0-0.7,0-0.7
				c-0.2-0.2-0.5-0.3-0.7-0.4C13.1,7,13,7,13,7c-0.1-0.1-0.1-0.5-0.1-0.6l-1.2,0c0,0.1,0,0.5-0.1,0.6c0,0-0.1,0-0.2,0.1
				c-0.2,0.1-0.6,0.2-0.7,0.4C10.7,7.5,10.7,7.8,10.7,8.2z"/>
		</g>
		<g>
			<path class="st0" d="M13.8,8.2c0-0.4,0-0.7,0-0.7C13.7,7.2,13.1,7,13,7c-0.1-0.1-0.1-0.6-0.1-0.6l-1.3,0c0,0,0,0.5-0.1,0.6
				c-0.1,0.1-0.7,0.2-0.9,0.5c0,0,0,0.3,0,0.7C10.7,8.2,13.8,8.2,13.8,8.2z"/>
			<path class="st1" d="M13.8,8.2h-3.2c0,0,0,0,0,0c0-0.4,0-0.7,0-0.7c0,0,0,0,0,0c0.2-0.2,0.5-0.4,0.8-0.4c0.1,0,0.1-0.1,0.2-0.1
				c0.1,0,0.1-0.4,0-0.5c0,0,0,0,0,0c0,0,0,0,0,0l1.3,0c0,0,0,0,0,0c0,0,0,0,0,0c0,0.2,0,0.6,0.1,0.6c0,0,0.1,0,0.2,0.1
				c0.2,0.1,0.6,0.2,0.7,0.4c0,0,0,0,0,0C13.9,7.5,13.9,7.8,13.8,8.2C13.9,8.2,13.9,8.2,13.8,8.2z M10.7,8.2h3.1c0-0.4,0-0.7,0-0.7
				c-0.2-0.2-0.5-0.3-0.7-0.4C13.1,7,13,7,13,7c-0.1-0.1-0.1-0.5-0.1-0.6l-1.2,0c0,0.1,0,0.5-0.1,0.6c0,0-0.1,0-0.2,0.1
				c-0.2,0.1-0.6,0.2-0.7,0.4C10.7,7.5,10.7,7.8,10.7,8.2z"/>
		</g>
		<g>
			<path class="st0" d="M12.9,6.8c0-0.2,0-0.4,0-0.4l-1.3,0c0,0,0,0.3,0,0.5C11.9,6.9,12.4,7,12.9,6.8z"/>
			<path class="st0" d="M13.9,7.5C13.7,7.2,13.1,7,13,7c-0.1,0.2-0.4,0.3-0.8,0.3c-0.4,0-0.6-0.2-0.7-0.3c-0.2,0.1-0.7,0.2-0.9,0.5
				c0,0,0,0.3,0,0.7h3.2C13.9,7.8,13.9,7.5,13.9,7.5z"/>
		</g>
		<g>
			<path class="st31" d="M14.2,9.5c0.5,0,1-0.2,1-0.2s-0.4-1.1-0.7-1.6c-0.3-0.5-1.3-0.8-1.3-0.8c-0.9,1.1-1.7,0-1.7,0
				s-0.6,0.2-1.1,0.5C9.9,7.8,9.5,9.2,9.4,9.3c0.7,0.3,0.9,0.3,0.9,0.3s-0.2,2.5-0.2,3.1c2,0.9,3.9,0.2,4.3,0
				C14.2,10.4,14.2,9.5,14.2,9.5z"/>
			<path class="st32" d="M12.2,13.2c-0.9,0-1.6-0.2-2.1-0.5c0,0,0,0,0,0c0-0.6,0.2-2.8,0.2-3.1c-0.1,0-0.3,0-0.9-0.3c0,0,0,0,0,0
				c0,0,0-0.1,0.1-0.2c0.2-0.5,0.5-1.4,0.8-1.7c0.5-0.3,1.1-0.5,1.1-0.5c0,0,0,0,0,0c0,0,0.3,0.5,0.8,0.5c0.3,0,0.6-0.2,0.9-0.5
				c0,0,0,0,0,0c0,0,0.3,0.1,0.6,0.2c0.4,0.2,0.7,0.4,0.8,0.6c0.3,0.5,0.7,1.6,0.7,1.6c0,0,0,0,0,0c0,0-0.5,0.2-1,0.2
				c0,0.1,0.1,1.1,0.2,3.1c0,0,0,0,0,0l0,0C13.6,13,12.9,13.2,12.2,13.2z M10.1,12.7c0.9,0.4,2.4,0.8,4.2,0l0,0
				c-0.2-2.2-0.2-3.1-0.2-3.1c0,0,0,0,0,0c0,0,0,0,0,0c0.4,0,0.9-0.2,1-0.2c0-0.1-0.4-1.1-0.7-1.6c-0.3-0.5-1.2-0.8-1.3-0.8
				c-0.3,0.3-0.6,0.5-0.9,0.5c-0.5,0-0.8-0.4-0.9-0.5c-0.1,0-0.7,0.2-1.1,0.5C10,7.7,9.6,8.7,9.5,9.1c0,0.1-0.1,0.2-0.1,0.2
				c0.7,0.3,0.9,0.3,0.9,0.3c0,0,0,0,0,0c0,0,0,0,0,0C10.3,9.6,10.2,12,10.1,12.7z"/>
		</g>
		<g class="st33">
			<path class="st31" d="M10.4,11.6c0-0.9,0.2-1.8,0.5-1.8c-0.4-0.1-0.5-0.3-0.4-1.5c-0.3,0.3-0.4,0.6-0.5,0.9c0,0-0.2,0.1-0.5-0.1
				c0.2-0.7,0.3-1.3,0.7-1.7C9.9,7.8,9.5,9.2,9.4,9.3c0.7,0.3,0.9,0.3,0.9,0.3s-0.2,2.5-0.2,3.1c2,0.9,3.9,0.2,4.3,0
				c-0.2-2.3-0.2-3.2-0.2-3.2c0.5,0,1-0.2,1-0.2s-0.4-1.1-0.7-1.6c-0.3-0.5-1.3-0.8-1.3-0.8c-0.9,1.1-1.7,0-1.7,0S11.3,7,11.2,7
				c0.3,0.4,1,1.1,2,0.2c0.7,0.1,1,0.1,1.5,1.2C14.9,9.1,15,9.3,15,9.3s-0.3,0.2-0.7,0.1c0,0-0.1-0.9-0.4-1.2c0.1,1.3,0,1.6-1.6,1.7
				c0.6,0.1,1.4,0.1,1.5,0.4c0.3,1.4,0.3,1.7-0.3,2c0.5,0,0.6,0,0.6,0.2s-0.9,0.6-2.6,0.3s-1.3-0.5-1-0.6
				C10.4,12.1,10.4,11.6,10.4,11.6z"/>
		</g>
		<g>
			<path class="st32" d="M10.4,8.9c0,0.1,0,0.2,0,0.4c0,0.1,0,0.1,0,0.2c0,0.1,0,0.1,0,0.2c0,0,0,0,0,0c0-0.1,0-0.2,0-0.3
				S10.4,9,10.4,8.9C10.4,8.9,10.4,8.9,10.4,8.9z"/>
			<path class="st32" d="M14.1,9.1c0-0.1,0-0.3-0.1-0.4c0,0,0,0,0,0C14,8.8,14.1,9,14.1,9.1c0,0.2,0,0.3,0,0.5c0,0,0,0,0,0
				C14.2,9.4,14.1,9.2,14.1,9.1z"/>
		</g>
		<g class="st33">
			<path class="st34" d="M14.2,9.5C14.2,9.5,14.2,9.5,14.2,9.5c0-0.1,0-0.3-0.1-0.5C13.9,8.3,14,8.5,14,8.5s0.3,1.3-0.7,1.4
				c0.6,0.1,0.7,0.1,0.8,1c0.1,0.7,0.1,1.5,0.1,1.9c0.1,0,0.1-0.1,0.2-0.1C14.2,10.4,14.2,9.5,14.2,9.5z"/>
		</g>
		<path class="st35" d="M10.9,10.1c0,0-0.3,1-0.2,2.1c0,0.3,0.6,0.3,1.7,0.4c-1.2,0.2-2.2-0.1-1.8-0.3
			C10.5,11.8,10.5,10.8,10.9,10.1z"/>
		<path class="st35" d="M10.3,7.5c-0.1,0.1-0.2,0.2-0.2,0.3C10,8,9.9,8.1,9.9,8.3c0,0.1-0.1,0.3-0.1,0.4c0,0.1,0,0.2,0,0.2
			c0,0.1,0,0.2,0,0.2c0,0,0.1,0,0.1,0c0-0.1,0-0.1,0-0.2c0-0.1,0-0.1,0-0.2c0-0.1,0-0.3,0.1-0.4C10,8.2,10,8,10.1,7.9
			C10.2,7.8,10.2,7.7,10.3,7.5C10.3,7.5,10.3,7.5,10.3,7.5z"/>
	</g>
	<g>
		<g>
			<g>
				<path class="st0" d="M9.7,4.3c0,0-0.2-0.2-0.5,0C9,4.5,9,4.9,9.3,5.1C9.6,5.3,10,5.2,9.9,4.9C9.8,4.6,9.7,4.3,9.7,4.3z"/>
				<path class="st1" d="M9.6,5.2c-0.1,0-0.2,0-0.3-0.1C9.2,5,9.1,4.9,9.1,4.7c0-0.2,0.1-0.3,0.2-0.5c0.1-0.1,0.2-0.1,0.3-0.1
					c0.1,0,0.2,0.1,0.2,0.1c0,0,0,0,0,0c0,0,0.1,0.3,0.1,0.6c0,0.1,0,0.2-0.1,0.3C9.8,5.2,9.7,5.2,9.6,5.2z M9.5,4.2
					c-0.1,0-0.2,0-0.2,0.1C9.2,4.4,9.1,4.6,9.1,4.7c0,0.2,0.1,0.3,0.2,0.4c0.2,0.1,0.4,0.1,0.5,0C9.9,5.1,9.9,5,9.9,4.9
					C9.8,4.6,9.7,4.3,9.7,4.3C9.7,4.3,9.6,4.2,9.5,4.2C9.5,4.2,9.5,4.2,9.5,4.2z"/>
			</g>
			<path class="st4" d="M9.9,4.9C9.8,4.6,9.7,4.3,9.7,4.3S9.5,4,9.3,4.3C9.2,4.4,9.1,4.5,9.1,4.7c0.1-0.1,0.2-0.1,0.3-0.1
				c0.1,0,0.2,0.1,0.2,0.3c0,0,0,0.1,0,0c0,0,0,0,0,0c0,0,0,0-0.1,0c0,0,0,0.1,0,0.1c0,0,0,0,0.1,0c0,0,0,0,0.1,0
				C9.6,4.9,9.6,5,9.7,5c0,0.1,0,0.1,0,0.2C9.8,5.2,9.9,5.1,9.9,4.9z"/>
			<path class="st36" d="M9.6,4.7c0,0.1,0,0.3-0.1,0.4c0,0,0,0,0,0c0-0.1,0.1-0.2,0.1-0.2c0,0,0,0.1-0.1,0.1c-0.1,0-0.2,0-0.2,0
				c0,0,0,0,0,0c0,0,0.1,0,0.1,0c0.1,0,0.1,0,0.1-0.1C9.6,4.7,9.6,4.7,9.6,4.7C9.6,4.6,9.5,4.5,9.5,4.5c-0.1-0.1-0.1,0-0.2,0
				c0,0,0,0,0,0C9.5,4.3,9.6,4.5,9.6,4.7z"/>
		</g>
		<g>
			<g>
				<path class="st0" d="M14.4,4.1c0,0,0.2-0.3,0.5,0c0.3,0.2,0.3,0.7,0,0.9c-0.3,0.2-0.6,0.1-0.6-0.2C14.4,4.5,14.4,4.1,14.4,4.1z"
					/>
				<path class="st1" d="M14.4,5c-0.1-0.1-0.1-0.2-0.1-0.3c0.1-0.3,0.1-0.6,0.1-0.6c0,0,0,0,0,0c0,0,0.1-0.1,0.2-0.1
					c0.1,0,0.2,0,0.3,0.1c0.1,0.1,0.2,0.3,0.2,0.5c0,0.2-0.1,0.3-0.2,0.4c-0.1,0.1-0.2,0.1-0.3,0.1C14.5,5.1,14.5,5.1,14.4,5z
					 M14.6,4c-0.1,0-0.2,0.1-0.2,0.1c0,0-0.1,0.4-0.1,0.6c0,0.1,0,0.2,0.1,0.3c0.1,0.1,0.3,0.1,0.5-0.1c0.1-0.1,0.2-0.2,0.2-0.4
					c0-0.2-0.1-0.3-0.2-0.4C14.8,4,14.7,4,14.6,4C14.6,4,14.6,4,14.6,4z"/>
			</g>
			<path class="st4" d="M14.3,4.8c0.1-0.3,0.1-0.6,0.1-0.6s0.2-0.3,0.5,0c0.1,0.1,0.2,0.3,0.2,0.4c-0.1-0.1-0.2-0.1-0.3-0.1
				c-0.1,0-0.2,0.2-0.2,0.3c0,0,0,0,0,0c0,0,0,0,0,0c0,0,0,0,0.1,0c0,0,0,0.1,0,0.1c0,0,0,0-0.1,0c0,0,0,0-0.1,0
				c-0.1,0-0.1,0.1-0.1,0.1c0,0.1,0,0.1,0,0.2C14.4,5.1,14.3,5,14.3,4.8z"/>
			<path class="st36" d="M14.6,4.5c0,0.1,0,0.3,0.1,0.4c0,0,0,0,0,0c0-0.1-0.1-0.2-0.1-0.2c0,0,0,0.1,0.1,0.1c0.1,0,0.2,0,0.2,0
				c0,0,0,0,0,0c0,0-0.1,0-0.1,0c-0.1,0-0.1,0-0.1-0.1C14.6,4.6,14.6,4.5,14.6,4.5c0.1-0.1,0.1-0.1,0.1-0.2c0.1-0.1,0.1,0,0.2,0
				c0,0,0,0,0,0C14.7,4.2,14.6,4.4,14.6,4.5z"/>
		</g>
		<g>
			<g>
				<path class="st0" d="M14.2,2.7c0,0,0.1,0.2-0.1,0.2c0-0.1,0.1-0.2-0.4-0.4c-0.5-0.2-0.5-0.4-0.5-0.4s-0.1,0.1,0.1,0.3
					c-0.3-0.1-0.4-0.3-0.5-0.5c-0.1,0.3-0.4,0.4-0.4,0.4s0.1-0.2-0.1-0.4c0,0.2-0.2,0.3-0.2,0.3s0,0-0.1-0.2
					c-0.2,0.3-0.5,0.4-0.5,0.4s0,0,0-0.2c-0.5,0.5-1.7,0.4-1.7,0.4S10,3,10.3,3c-0.1,0.2-0.4,0.2-0.7,0.1C9.5,3.7,9.7,4.3,9.7,4.3
					s0.3,2.6,2.5,2.5C14.3,6.8,14.5,4,14.5,4C14.7,3,14.2,2.7,14.2,2.7z"/>
				<path class="st1" d="M12.1,6.8c-1.1,0-1.7-0.7-2-1.2C9.7,5,9.7,4.3,9.7,4.3c0,0-0.2-0.7-0.1-1.2c0,0,0,0,0,0c0,0,0,0,0,0
					c0.3,0.1,0.5,0,0.6-0.1C10,3,9.8,2.7,9.8,2.7c0,0,0,0,0,0c0,0,0,0,0,0c0,0,1.2,0.1,1.7-0.4c0,0,0,0,0,0c0,0,0,0,0,0l0,0.2
					c0.1,0,0.4-0.1,0.5-0.4c0,0,0,0,0,0s0,0,0,0l0.1,0.2c0,0,0.2-0.1,0.2-0.3c0,0,0,0,0,0c0,0,0,0,0,0c0.2,0.1,0.1,0.3,0.1,0.4
					c0.1,0,0.3-0.1,0.4-0.3c0,0,0,0,0,0c0,0,0,0,0,0c0,0.1,0.1,0.3,0.4,0.4c-0.2-0.2-0.1-0.3-0.1-0.3c0,0,0,0,0,0c0,0,0,0,0,0
					c0,0,0.1,0.2,0.5,0.4c0.2,0.1,0.4,0.2,0.4,0.2c0,0,0,0.1,0,0.1c0.1-0.1,0-0.2,0-0.2c0,0,0,0,0,0c0,0,0,0,0,0
					c0,0,0.4,0.3,0.3,1.3c0,0,0,0.7-0.4,1.4C13.9,6,13.3,6.8,12.1,6.8C12.2,6.8,12.1,6.8,12.1,6.8z M9.6,3.1
					C9.5,3.7,9.7,4.3,9.7,4.3c0,0,0.1,0.7,0.4,1.3c0.3,0.6,0.9,1.3,2.1,1.2c1.1,0,1.7-0.8,1.9-1.4c0.3-0.7,0.4-1.3,0.4-1.4
					c0.1-0.8-0.1-1.2-0.2-1.3c0,0.1,0,0.2-0.1,0.2c0,0,0,0,0,0c0,0,0,0,0,0c0-0.1,0-0.1,0-0.1c0-0.1-0.2-0.1-0.4-0.2
					c-0.4-0.1-0.5-0.3-0.5-0.4c0,0,0,0.1,0.1,0.3c0,0,0,0,0,0c0,0,0,0,0,0c-0.3-0.1-0.4-0.3-0.5-0.4c-0.1,0.3-0.4,0.3-0.4,0.3
					c0,0,0,0,0,0c0,0,0,0,0,0c0,0,0.1-0.2-0.1-0.3c0,0.2-0.2,0.3-0.2,0.3c0,0,0,0,0,0c0,0,0,0,0,0l-0.1-0.2
					c-0.2,0.3-0.5,0.4-0.5,0.4c0,0,0,0,0,0c0,0,0,0,0,0l0-0.2c-0.3,0.2-0.7,0.3-1,0.4c-0.3,0-0.6,0-0.6,0C9.9,2.8,10.1,3,10.3,3
					c0,0,0,0,0,0s0,0,0,0C10.2,3.1,9.9,3.2,9.6,3.1z"/>
			</g>
		</g>
		<g>
			<g>
				<g>
					<g>
						<path class="st37" d="M13.9,4.4c0,0-0.4,0-0.7,0.3c0-0.1,0-0.1,0-0.1s-0.4-0.1-0.4-0.7c0-0.2,0.1-0.4,0.3-0.5
							c0.2-0.1,0.4,0.1,0.5,0.3c0,0.1,0.1,0.2,0.1,0.3c0,0,0,0.2,0,0.2C13.6,4.2,13.8,4.3,13.9,4.4z"/>
						<path class="st1" d="M13.8,4.4C13.8,4.4,13.8,4.4,13.8,4.4c0,0-0.1,0-0.1,0c0,0,0,0-0.1,0c0,0,0,0-0.1,0c0,0,0,0-0.1,0
							c0,0,0,0-0.1,0s0,0-0.1,0c0,0,0,0-0.1,0s0,0-0.1,0c0,0,0,0,0,0c-0.1,0-0.1,0.1-0.1,0.1s0,0,0.1-0.1c0,0,0,0,0,0s0,0,0.1,0
							s0,0,0.1,0c0,0,0,0,0.1,0c0,0,0,0,0.1,0c0,0,0,0,0.1,0c0,0,0,0,0.1,0c0,0,0,0,0.1,0C13.7,4.4,13.7,4.4,13.8,4.4
							C13.8,4.4,13.8,4.4,13.8,4.4z"/>
						<g>
							<g>
								<path class="st38" d="M12.8,3.9c0,0.2,0,0.3,0.1,0.5c0.1,0.1,0.2,0.2,0.4,0.1c0.1,0,0.2-0.2,0.3-0.3c0-0.2,0-0.6-0.2-0.7
									c-0.2-0.1-0.4,0.1-0.4,0.3C12.9,3.8,12.9,3.8,12.8,3.9z"/>
								<path class="st39" d="M12.8,3.9C12.8,3.9,12.8,3.9,12.8,3.9c0,0.1,0,0.1,0,0.1c0,0,0,0,0,0.1c0,0,0,0,0,0.1
									c0,0.1,0,0.1,0.1,0.2c0,0.1,0.1,0.1,0.1,0.1c0.1,0,0.1,0.1,0.2,0c0.1,0,0.1-0.1,0.2-0.1c0-0.1,0.1-0.1,0.1-0.2
									c0-0.1,0-0.2,0-0.2c0-0.1,0-0.2-0.1-0.2c0-0.1-0.1-0.1-0.2-0.1c-0.1,0-0.1,0-0.2,0c-0.1,0-0.1,0.1-0.1,0.1
									c0,0-0.1,0.1-0.1,0.1C12.9,3.8,12.9,3.8,12.8,3.9C12.8,3.9,12.8,3.9,12.8,3.9z M12.8,3.9C12.8,3.9,12.8,3.9,12.8,3.9
									c0-0.1,0-0.1,0-0.1c0,0,0-0.1,0.1-0.1c0,0,0.1-0.1,0.1-0.1c0.1,0,0.1-0.1,0.2,0c0.1,0,0.1,0.1,0.2,0.1
									c0.1,0.1,0.1,0.1,0.1,0.2c0,0.1,0,0.2,0,0.3c0,0.1,0,0.2-0.1,0.2c0,0-0.1,0.1-0.1,0.1c0,0,0,0-0.1,0c0,0,0,0-0.1,0
									c-0.1,0-0.2,0-0.2,0c0,0-0.1,0-0.1-0.1c0,0,0,0,0,0c0,0,0,0,0,0c0-0.1,0-0.1-0.1-0.2c0,0,0-0.1,0-0.1c0,0,0,0,0-0.1
									C12.8,4,12.8,3.9,12.8,3.9C12.8,3.9,12.8,3.9,12.8,3.9z"/>
							</g>
							<g class="st33">
								<path class="st40" d="M13.3,3.5C13.3,3.5,13.3,3.5,13.3,3.5c0.2,0.1,0.2,0.4,0.2,0.6c0,0.1-0.1,0.2-0.2,0.3
									c-0.1,0-0.3,0-0.3-0.1c-0.1-0.1-0.1-0.3-0.1-0.4c0,0,0-0.1,0-0.1c0,0,0,0,0,0c0,0,0,0,0,0.1c0,0,0,0.1,0,0.1
									c0,0.2,0,0.3,0.1,0.5c0.1,0.1,0.2,0.2,0.4,0.1c0.1,0,0.2-0.2,0.3-0.3C13.6,3.9,13.5,3.6,13.3,3.5z"/>
							</g>
							<g>
								<path class="st41" d="M12.9,4c0,0.2,0.1,0.4,0.2,0.4c0.2,0,0.3-0.1,0.3-0.3c0-0.2-0.1-0.4-0.3-0.5C13.1,3.6,12.9,3.8,12.9,4
									z"/>
								<g>
									<path class="st42" d="M13.2,4.4c0.2,0,0.3-0.1,0.3-0.3c0-0.2-0.1-0.4-0.3-0.5c-0.1,0-0.3,0.1-0.3,0.4
										C12.9,4.2,13,4.4,13.2,4.4z M13,4c0-0.2,0.1-0.3,0.3-0.3s0.2,0.2,0.2,0.4c0,0.2-0.1,0.3-0.3,0.3C13,4.3,12.9,4.2,13,4z"/>
								</g>
								<g class="st43">
									<path class="st44" d="M13.2,4.4c0.2,0,0.3-0.1,0.3-0.3c0-0.2-0.1-0.4-0.3-0.5c-0.1,0-0.3,0.1-0.3,0.4
										C12.9,4.2,13,4.4,13.2,4.4z M13,3.8C13.1,3.8,13.1,3.8,13,3.8c0,0.1-0.1,0.3,0,0.4c0,0.1,0.1,0.1,0.1,0.1
										c0,0-0.1,0-0.2-0.1C12.9,4,13,3.9,13,3.8z"/>
								</g>
								<g class="st43">
									<path class="st44" d="M13,4c0-0.1,0.1-0.2,0.2-0.2c0,0,0,0,0,0c0,0,0,0,0.1,0c0,0,0.1,0.1,0.1,0.1c0,0,0,0.1,0,0.1
										c0,0,0,0.1,0,0.1c0,0.1-0.1,0.2-0.2,0.2C13.1,4.3,13,4.2,13,4z"/>
								</g>
								<path class="st45" d="M13.1,4c0,0.1,0,0.2,0.1,0.2c0.1,0,0.2-0.1,0.2-0.2c0-0.1-0.1-0.2-0.1-0.2C13.1,3.8,13.1,3.9,13.1,4z"
									/>
								<g class="st43">
									<path class="st44" d="M13.2,3.9c0,0.1,0.1,0.2,0.2,0.2c0.1,0,0.1-0.1,0-0.2c0-0.1-0.1-0.2-0.2-0.2
										C13.2,3.7,13.1,3.8,13.2,3.9z"/>
								</g>
								<path class="st46" d="M13.2,3.9C13.2,4,13.3,4,13.4,4c0.1,0,0.1-0.1,0-0.2c0-0.1-0.1-0.1-0.1-0.1
									C13.2,3.7,13.2,3.8,13.2,3.9z"/>
								<g>
									<path class="st41" d="M13,3.9c0,0.1,0,0.3,0.1,0.3c0.1,0-0.1,0-0.1-0.2C12.9,4,13,3.8,13,3.9z"/>
								</g>
								<g>
									<path class="st41" d="M13,3.8C13,3.8,13,3.9,13,3.8C13,3.9,13,3.8,13,3.8z"/>
								</g>
							</g>
						</g>
					</g>
				</g>
			</g>
		</g>
		<g>
			
				<radialGradient id="SVGID_1_" cx="-560.2123" cy="1565.0612" r="0.9662" gradientTransform="matrix(-0.7982 -0.6025 0.6025 -0.7982 -1376.5779 916.0182)" gradientUnits="userSpaceOnUse">
				<stop  offset="0.1184" style="stop-color:#F6A0A0"/>
				<stop  offset="1" style="stop-color:#FFFFFF"/>
			</radialGradient>
			<path class="st47" d="M13.1,5.2c0.1,0.3,0.3,0.3,0.6,0.2c0.4-0.2,0.7-0.5,0.6-0.7S14,4.3,13.6,4.4C13.2,4.6,13,4.8,13.1,5.2z"/>
			<g>
				<path class="st46" d="M13.9,4.6c0,0,0,0.1-0.1,0.1c-0.1,0-0.1,0-0.1,0c0,0,0-0.1,0.1-0.1C13.8,4.5,13.9,4.5,13.9,4.6z"/>
			</g>
			<g>
				<path class="st46" d="M14.1,4.6C14.1,4.6,14,4.6,14.1,4.6C14,4.6,14,4.6,14.1,4.6C14,4.6,14,4.6,14.1,4.6
					C14,4.6,14.1,4.6,14.1,4.6z"/>
			</g>
		</g>
		<path class="st4" d="M12.7,3.5c0,0,0.4-0.7,0.9,0C13.5,3.1,13,2.8,12.7,3.5z"/>
		<g>
			<path class="st48" d="M12.7,3.5c0,0,0.4-0.7,0.9,0C13.5,3,13,2.8,12.7,3.5z"/>
			<path class="st49" d="M12.7,3.5C12.7,3.5,12.7,3.5,12.7,3.5C12.7,3.5,12.7,3.5,12.7,3.5C12.8,3.2,13,3,13.2,3
				c0.2,0,0.4,0.2,0.4,0.4c0,0,0,0,0,0c0,0,0,0,0,0c-0.1-0.2-0.3-0.3-0.4-0.3c0,0,0,0,0,0C12.9,3.2,12.7,3.5,12.7,3.5
				C12.7,3.5,12.7,3.5,12.7,3.5z M13.2,3c-0.2,0-0.3,0.1-0.4,0.3c0.1-0.1,0.2-0.2,0.4-0.2c0.1,0,0.3,0.1,0.4,0.2
				C13.5,3.2,13.3,3,13.2,3C13.2,3,13.2,3,13.2,3z"/>
		</g>
		<g>
			<g>
				<path class="st37" d="M10.2,4.5c0,0,0.4,0,0.7,0.3c0-0.1,0-0.1,0-0.1s0.4-0.1,0.3-0.6c0-0.2-0.1-0.5-0.3-0.5
					c-0.2-0.1-0.4,0.1-0.4,0.2c0,0.1-0.1,0.2-0.1,0.3c0,0,0,0.3,0,0.2C10.5,4.3,10.3,4.4,10.2,4.5z"/>
				<path class="st1" d="M10.3,4.4C10.3,4.4,10.3,4.4,10.3,4.4c0,0,0.1,0,0.1,0c0,0,0,0,0.1,0c0,0,0,0,0.1,0c0,0,0,0,0.1,0
					c0,0,0,0,0.1,0c0,0,0,0,0.1,0c0,0,0,0,0,0c0,0,0,0,0,0c0,0,0,0,0,0c0,0,0.1,0.1,0.1,0.1s0,0-0.1-0.1c0,0,0,0,0,0c0,0,0,0,0,0
					c0,0,0,0,0,0c0,0,0,0-0.1,0c0,0,0,0-0.1,0c0,0,0,0-0.1,0c0,0,0,0-0.1,0C10.4,4.5,10.4,4.5,10.3,4.4C10.4,4.4,10.3,4.4,10.3,4.4
					C10.3,4.4,10.3,4.4,10.3,4.4z"/>
				<g>
					<g>
						<path class="st38" d="M11.2,4c0,0.2,0,0.3-0.1,0.5c-0.1,0.1-0.2,0.2-0.3,0.1c-0.1,0-0.2-0.2-0.3-0.3c0-0.2,0-0.6,0.2-0.7
							c0.2-0.1,0.4,0.1,0.4,0.3C11.2,3.9,11.2,3.9,11.2,4z"/>
						<path class="st39" d="M11.2,4C11.2,4,11.2,4,11.2,4c0,0.1,0,0.1,0,0.1c0,0,0,0.1,0,0.1c0,0.1,0,0.1-0.1,0.2c0,0,0,0,0,0
							c0,0,0,0,0,0c0,0,0,0,0,0c0,0,0,0,0,0c-0.1,0-0.1,0.1-0.2,0c0,0,0,0-0.1,0c0,0,0,0-0.1,0c0,0-0.1-0.1-0.1-0.1
							c0-0.1-0.1-0.2-0.1-0.2c0-0.1,0-0.2,0-0.3c0-0.1,0.1-0.2,0.1-0.2c0.1-0.1,0.1-0.1,0.2-0.1c0.1,0,0.2,0,0.2,0
							c0.1,0,0.1,0.1,0.1,0.1c0,0,0,0.1,0.1,0.1C11.2,3.9,11.2,4,11.2,4z M11.2,4c0,0,0,0,0-0.1c0,0,0-0.1-0.1-0.1S11,3.6,11,3.6
							c-0.1,0-0.1-0.1-0.2,0c-0.1,0-0.1,0.1-0.2,0.1c-0.1,0.1-0.1,0.3-0.1,0.5c0,0.1,0,0.2,0.1,0.2c0,0.1,0.1,0.1,0.2,0.1
							c0.1,0,0.2,0,0.2,0c0,0,0,0,0,0c0,0,0,0,0,0c0,0,0,0,0,0c0,0,0,0,0,0c0-0.1,0-0.1,0.1-0.2c0-0.1,0-0.1,0-0.1
							C11.2,4,11.2,4,11.2,4C11.2,4,11.2,4,11.2,4z"/>
					</g>
					<g class="st33">
						<path class="st40" d="M10.7,3.6C10.7,3.6,10.8,3.6,10.7,3.6c-0.2,0.1-0.2,0.4-0.2,0.6c0,0.1,0.1,0.3,0.2,0.3
							c0.1,0,0.3,0,0.3-0.1c0.1-0.1,0.1-0.3,0.1-0.4c0,0,0-0.1,0-0.1c0,0,0,0,0,0c0,0,0,0,0,0.1c0,0,0,0.1,0,0.1
							c0,0.2,0,0.3-0.1,0.5c-0.1,0.1-0.2,0.2-0.3,0.1c-0.1,0-0.2-0.2-0.3-0.3C10.5,4,10.5,3.7,10.7,3.6z"/>
					</g>
					<g>
						<path class="st41" d="M10.6,4.1c0,0.2,0.1,0.4,0.2,0.4c0.2,0,0.3-0.1,0.3-0.3c0-0.2-0.1-0.4-0.3-0.5
							C10.7,3.7,10.6,3.8,10.6,4.1z"/>
						<g>
							<path class="st42" d="M10.8,4.5c0.2,0,0.3-0.1,0.3-0.3c0-0.2-0.1-0.4-0.3-0.5c-0.1,0-0.3,0.1-0.3,0.4
								C10.6,4.3,10.7,4.5,10.8,4.5z M10.6,4c0-0.2,0.1-0.3,0.3-0.3s0.2,0.2,0.2,0.4c0,0.2-0.1,0.3-0.3,0.3
								C10.7,4.4,10.6,4.2,10.6,4z"/>
						</g>
						<g class="st43">
							<path class="st44" d="M10.8,4.5c0.2,0,0.3-0.1,0.3-0.3c0-0.2-0.1-0.4-0.3-0.5c-0.1,0-0.3,0.1-0.3,0.4
								C10.6,4.3,10.7,4.5,10.8,4.5z M10.7,3.9C10.7,3.8,10.8,3.9,10.7,3.9c0,0.1-0.1,0.3,0,0.4c0,0.1,0.1,0.1,0.1,0.1
								c0,0-0.1,0-0.2-0.1C10.6,4.1,10.6,3.9,10.7,3.9z"/>
						</g>
						<g class="st43">
							<path class="st44" d="M10.7,4.1c0-0.1,0.1-0.2,0.2-0.2c0,0,0,0,0,0c0,0,0,0,0.1,0c0,0,0.1,0.1,0.1,0.1c0,0,0,0.1,0,0.1
								c0,0,0,0.1,0,0.1c0,0.1-0.1,0.2-0.2,0.2C10.7,4.4,10.7,4.2,10.7,4.1z"/>
						</g>
						<path class="st45" d="M10.7,4.1c0,0.1,0,0.2,0.1,0.2c0.1,0,0.2-0.1,0.2-0.2C11,4,11,3.9,10.9,3.9C10.8,3.9,10.7,4,10.7,4.1z"
							/>
						<g class="st43">
							<path class="st44" d="M10.8,4c0,0.1,0.1,0.2,0.2,0.2c0.1,0,0.1-0.1,0-0.2c0-0.1-0.1-0.2-0.2-0.2C10.8,3.8,10.8,3.9,10.8,4z"
								/>
						</g>
						<path class="st46" d="M10.9,4C10.9,4,11,4.1,11,4.1c0.1,0,0.1-0.1,0-0.2c0-0.1-0.1-0.1-0.1-0.1C10.9,3.8,10.9,3.9,10.9,4z"/>
						<g>
							<path class="st41" d="M10.7,4c0,0.1,0,0.3,0.1,0.3c0.1,0-0.1,0-0.1-0.2C10.6,4,10.7,3.9,10.7,4z"/>
						</g>
						<g>
							<path class="st41" d="M10.7,3.9C10.7,3.9,10.7,4,10.7,3.9C10.7,3.9,10.7,3.9,10.7,3.9z"/>
						</g>
					</g>
				</g>
			</g>
		</g>
		<g>
			
				<radialGradient id="SVGID_2_" cx="-317.2691" cy="1437.6171" r="0.8506" gradientTransform="matrix(0.933 -0.3602 -0.3602 -0.933 824.5531 1231.4662)" gradientUnits="userSpaceOnUse">
				<stop  offset="0.1184" style="stop-color:#F6A0A0"/>
				<stop  offset="1" style="stop-color:#FFFFFF"/>
			</radialGradient>
			<path class="st50" d="M10.8,5.3c-0.1,0.3-0.3,0.2-0.5,0.1C10,5.1,9.9,4.8,10,4.6s0.3-0.3,0.6-0.1C10.9,4.7,11,5,10.8,5.3z"/>
			<g>
				<path class="st46" d="M10.3,4.6C10.3,4.6,10.3,4.6,10.3,4.6c0.1,0.1,0.2,0.1,0.2,0.1c0,0,0-0.1-0.1-0.1
					C10.4,4.5,10.3,4.5,10.3,4.6z"/>
			</g>
			<g>
				<path class="st46" d="M10.2,4.6C10.1,4.6,10.2,4.6,10.2,4.6C10.2,4.6,10.2,4.6,10.2,4.6C10.2,4.6,10.2,4.6,10.2,4.6
					C10.2,4.6,10.2,4.6,10.2,4.6z"/>
			</g>
		</g>
		<path class="st4" d="M10.3,3.6c0,0,0.3-0.6,0.8-0.1C11,3.2,10.6,2.9,10.3,3.6z"/>
		<g>
			<path class="st48" d="M10.3,3.5c0,0,0.3-0.6,0.8-0.1C11,3.1,10.6,2.8,10.3,3.5z"/>
			<path class="st49" d="M10.3,3.5C10.3,3.5,10.3,3.5,10.3,3.5C10.3,3.5,10.3,3.5,10.3,3.5c0.1-0.4,0.3-0.5,0.4-0.5
				c0.2,0,0.4,0.2,0.5,0.4c0,0,0,0,0,0c0,0,0,0,0,0c-0.2-0.2-0.3-0.2-0.5-0.2C10.4,3.3,10.3,3.5,10.3,3.5
				C10.3,3.5,10.3,3.5,10.3,3.5z M10.7,3.1C10.7,3.1,10.7,3.1,10.7,3.1c-0.1,0-0.2,0.1-0.4,0.3c0.1-0.1,0.1-0.2,0.3-0.2
				c0.1,0,0.3,0,0.5,0.2C11,3.3,10.9,3.1,10.7,3.1z"/>
		</g>
		<g>
			<g>
				<path class="st1" d="M12,4.6C12,4.6,12,4.6,12,4.6c0,0,0,0.1,0,0.1c0,0,0,0,0,0c0,0,0,0,0,0c0,0,0,0,0,0c0,0,0,0,0,0
					c0,0,0,0,0,0c0,0,0,0,0,0c0,0,0,0,0,0c0,0,0,0,0,0.1c0,0,0,0,0,0.1c0,0,0,0,0,0c0,0,0,0,0,0c0,0,0,0,0,0c0,0,0,0,0,0
					c0,0,0,0,0,0s0,0,0,0c0,0,0,0,0,0c0,0,0,0,0,0c0,0,0,0,0,0c0,0,0,0,0,0c0,0,0,0,0-0.1c0,0,0,0,0-0.1c0,0,0,0,0,0c0,0,0,0,0,0
					c0,0,0,0,0,0c0,0,0,0,0,0c0,0,0,0,0,0s0,0,0,0c0,0,0,0,0,0C12,4.7,12,4.7,12,4.6C12,4.6,12,4.6,12,4.6z"/>
				<path class="st51" d="M11.9,4.2c0,0,0.2,0.3,0.1,0.5C12,4.8,12.3,4.7,11.9,4.2z"/>
				<path class="st51" d="M11.9,4.8C12,4.8,11.9,4.8,11.9,4.8C11.9,4.9,11.9,4.9,11.9,4.8C11.9,4.9,11.9,4.8,11.9,4.8
					C11.9,4.8,11.9,4.8,11.9,4.8z"/>
			</g>
			<path class="st37" d="M12,4.4c0,0,0.1,0.3-0.2,0.4c-0.2,0-0.1,0.2,0.2,0.3c0.2,0,0.3-0.1,0.3-0.2c0-0.1-0.2,0.2-0.4,0
				c0-0.1,0,0,0.1-0.1C12,4.7,12,4.6,12,4.4z"/>
		</g>
		<g>
			<path class="st0" d="M13.1,5.7c0-0.1,0-0.2-0.1-0.2c-0.1-0.1-0.3-0.1-0.4-0.1c0,0,0,0,0,0c0.1,0,0.3,0.1,0.2,0.1c0,0,0,0,0,0
				c0,0,0,0,0,0c-0.1,0-0.2,0-0.3,0.1c-0.1,0-0.3,0-0.4,0c-0.2,0-0.3,0-0.5,0c0,0-0.1,0-0.2,0c-0.1,0-0.1,0-0.2,0c0,0,0,0,0,0
				c0,0,0,0,0,0c0,0,0,0,0,0c0,0,0,0,0,0c0,0,0,0.1-0.1,0.1c0,0,0.1,0.1,0.1,0.1c0,0,0,0,0,0c0,0,0.1,0.1,0.1,0.1c0,0,0,0,0,0
				c0,0,0,0.1,0.1,0.1c0.1,0.1,0.1,0.2,0.2,0.3c0.1,0,0.3,0,0.4,0c0.1,0,0.3,0,0.4,0c0.1,0,0.1-0.1,0.2-0.2c0-0.1,0.1-0.1,0.1-0.2
				c0,0,0,0,0-0.1c0,0,0,0,0,0c0-0.1,0.1-0.1,0.1-0.1c0,0,0.1,0,0.1,0.1C13,5.6,13,5.6,13.1,5.7C13.1,5.6,13.1,5.6,13.1,5.7
				C13.1,5.7,13.1,5.7,13.1,5.7C13.1,5.7,13.1,5.7,13.1,5.7c0,0.1,0,0.1,0,0.2C13.1,5.8,13.1,5.7,13.1,5.7z"/>
			<path class="st4" d="M12.3,6.3c-0.1,0-0.2,0-0.3,0c-0.1,0-0.1,0-0.2,0c0,0,0,0,0,0c0,0,0.1,0.1,0.1,0.1c0,0,0.1,0,0.1,0
				c0.1,0,0.1,0,0.2,0C12.2,6.4,12.3,6.3,12.3,6.3z"/>
			<g>
				<g>
					<g>
						<path class="st52" d="M13.1,5.5C13.1,5.5,13.1,5.5,13.1,5.5C13,5.4,13,5.4,13,5.4c0,0-0.1,0-0.1,0c0,0,0.1,0,0.1,0
							c0,0,0,0,0,0c0,0-0.1,0-0.1,0c-0.1,0-0.3,0-0.4,0c-0.3,0-0.6,0-0.8,0c-0.1,0-0.2,0-0.3,0c0,0,0,0,0-0.1c0,0,0,0,0,0
							c0,0-0.1,0-0.1,0c0,0,0,0.1,0,0.1c0,0,0,0,0,0c0.2,0,0.4,0.3,0.5,0.5c0.1,0.1,0.2,0.1,0.3,0.1c0.2,0,0.4,0,0.5,0
							c0.1,0,0.1,0,0.1-0.1c0.1-0.2,0.2-0.4,0.4-0.5C13,5.5,13,5.5,13.1,5.5C13,5.5,13,5.5,13.1,5.5c0,0.1,0,0.1,0,0.1h0
							C13.1,5.6,13.1,5.5,13.1,5.5z"/>
						<path class="st53" d="M12.7,5.7c0,0.1-0.1,0.1-0.1,0.2c0,0.1-0.1,0.1-0.2,0.1c-0.1,0-0.2,0-0.3,0c-0.1,0-0.3,0-0.4,0
							c-0.1-0.1-0.1-0.2-0.2-0.3c-0.1-0.1-0.1-0.2-0.2-0.2c0.3,0,0.5,0,0.6,0c0.3,0,0.5,0,0.8-0.1c0,0,0.1,0,0.2,0
							C12.8,5.6,12.8,5.6,12.7,5.7z"/>
						<path class="st46" d="M12.6,5.7c-0.1,0-0.2,0-0.3,0c-0.2,0-0.4,0-0.7,0.1c0,0.1,0,0.1,0,0.2c0,0,0,0,0,0c0,0,0,0.1,0.1,0.1
							c0.1,0.1,0.3,0,0.4,0c0.1,0,0.2,0,0.3,0c0.1,0,0.1,0,0.2-0.1c0,0,0-0.1,0.1-0.1C12.7,5.7,12.6,5.7,12.6,5.7z"/>
						<path class="st54" d="M12.6,5.7c-0.1,0-0.2,0-0.3,0c-0.2,0-0.4,0-0.7,0.1c0,0,0,0.1,0,0.1c0,0,0,0,0,0c0.2,0,0.3,0,0.5,0
							c0.1,0,0.2,0,0.3,0c0,0,0,0,0.1,0c0,0,0,0.1,0,0.2c0,0,0,0,0-0.1c0,0,0-0.1,0.1-0.1C12.7,5.7,12.6,5.7,12.6,5.7z"/>
						<path class="st46" d="M11.7,5.8c0.2,0,0.3,0,0.5,0c0.1,0,0.2,0,0.2,0c0.1,0,0.2,0,0.2-0.1c0,0,0.1-0.1,0.1-0.2c0,0,0,0,0,0
							c-0.3,0-0.5,0-0.8,0.1c-0.1,0-0.3,0-0.5,0C11.5,5.7,11.6,5.8,11.7,5.8z"/>
					</g>
					<path class="st52" d="M12,6.3c-0.1,0-0.1,0-0.2,0c0,0,0,0.1,0.1,0.1c0.1,0,0.2,0,0.3,0c0,0,0,0,0.1,0C12.1,6.3,12.1,6.3,12,6.3
						z"/>
				</g>
				<path class="st51" d="M11.6,5.5c-0.1,0-0.2,0-0.3-0.1v0c0,0.1,0.6,0.1,0.7,0.1c0,0,0,0,0,0C11.8,5.5,11.7,5.5,11.6,5.5z"/>
				<path class="st51" d="M12.1,6.2c-0.1,0-0.3,0-0.4,0h0c0,0,0,0.1,0.1,0.1c0,0,0,0,0,0C11.9,6.3,12,6.3,12.1,6.2
					C12.1,6.2,12.1,6.2,12.1,6.2z"/>
			</g>
		</g>
		<g>
			<path class="st55" d="M15,3.1c0.1,0.1,0.3,0,0.3-0.3c0,0.2-0.3,0.2-0.3,0c0-0.1,0.2-0.6-0.1-0.9c0.2,0.1,0.4,0,0.3-0.3
				c0,0.2-0.2,0.3-0.3,0c-0.3-1.1-1.6-1.2-1.6-1.2s0.1-0.2,0.3-0.1c-0.2-0.2-0.5-0.1-0.6,0c-0.2-0.5-0.6-0.2-0.6-0.2s0.3,0,0.3,0.3
				C11-0.1,10,0.8,9.5,1.4C9.1,1.9,8.7,1.8,8.7,1.8S8.8,2.1,9.3,2C8.9,2.3,9,2.7,9,2.7s0.1-0.4,0.4-0.4C9.4,2.7,9.2,3,8.9,3
				C9,3.2,9.3,3.1,9.3,3.1c0,0.7,0.3,1.2,0.3,1.2S9.5,3.7,9.6,3.1c0.3,0.1,0.5,0,0.7-0.1C10,3,9.8,2.7,9.8,2.7s1.2,0.1,1.7-0.4
				c0,0.2,0,0.2,0,0.2s0.4-0.1,0.5-0.4c0.1,0.2,0.1,0.2,0.1,0.2s0.2-0.1,0.2-0.3c0.2,0.2,0.1,0.4,0.1,0.4s0.3,0,0.4-0.4
				c0,0.1,0.2,0.4,0.5,0.5c-0.2-0.3-0.1-0.3-0.1-0.3s0.1,0.2,0.5,0.4c0.5,0.2,0.4,0.3,0.4,0.4c0.2-0.1,0.1-0.2,0.1-0.2
				S14.7,3,14.5,4C15,3.9,15.2,3.3,15,3.1z"/>
			<path class="st56" d="M9.7,4.3C9.7,4.3,9.7,4.3,9.7,4.3c0,0-0.4-0.5-0.4-1.2C9.2,3.1,9,3.2,8.9,3c0,0,0,0,0,0c0,0,0,0,0,0
				c0.2,0,0.3,0,0.4-0.1c0.1-0.1,0.1-0.3,0.1-0.5C9.1,2.4,9,2.7,9,2.7c0,0,0,0,0,0c0,0,0,0,0,0c0,0-0.1-0.4,0.3-0.7
				C8.8,2.1,8.7,1.8,8.7,1.8c0,0,0,0,0,0c0,0,0,0,0,0c0,0,0.4,0.2,0.8-0.4C10,0.8,11-0.1,12.8,0.3c0,0,0-0.1,0-0.1
				c-0.1-0.1-0.2-0.1-0.2-0.1c0,0,0,0,0,0c0,0,0,0,0,0c0,0,0.2-0.1,0.3,0c0.1,0,0.2,0.1,0.3,0.3c0.1-0.1,0.2-0.1,0.3-0.2
				c0.1,0,0.2,0,0.3,0.1c0,0,0,0,0,0c0,0,0,0,0,0c-0.2,0-0.3,0.1-0.3,0.1c0.2,0,1.3,0.2,1.6,1.2c0.1,0.1,0.1,0.2,0.2,0.2
				c0.1,0,0.1-0.1,0.1-0.2c0,0,0,0,0,0c0,0,0,0,0,0c0,0.1,0,0.2-0.1,0.3c-0.1,0-0.1,0-0.2,0c0.2,0.3,0.1,0.7,0.1,0.8c0,0,0,0,0,0
				c0,0.1,0,0.1,0.1,0.1c0.1,0,0.2,0,0.2-0.1c0,0,0,0,0,0s0,0,0,0c0,0.2-0.1,0.3-0.2,0.3c0,0-0.1,0-0.2,0c0,0.1,0,0.3,0,0.5
				C15,3.7,14.8,4,14.5,4.1c0,0,0,0,0,0c0,0,0,0,0,0c0.1-0.8-0.1-1.2-0.2-1.3c0,0.1,0,0.2-0.1,0.2c0,0,0,0,0,0c0,0,0,0,0,0
				c0-0.1,0-0.1,0-0.1c0-0.1-0.2-0.1-0.4-0.2c-0.4-0.1-0.5-0.3-0.5-0.4c0,0,0,0.1,0.1,0.3c0,0,0,0,0,0c0,0,0,0,0,0
				c-0.3-0.1-0.4-0.3-0.5-0.4c-0.1,0.3-0.4,0.3-0.4,0.3c0,0,0,0,0,0c0,0,0,0,0,0c0,0,0.1-0.2-0.1-0.3c0,0.2-0.2,0.3-0.2,0.3
				c0,0,0,0,0,0c0,0,0,0,0,0l-0.1-0.2c-0.2,0.3-0.5,0.4-0.5,0.4c0,0,0,0,0,0c0,0,0,0,0,0l0-0.2c-0.5,0.4-1.5,0.4-1.7,0.4
				C9.9,2.8,10.1,3,10.3,3c0,0,0,0,0,0c0,0,0,0,0,0c-0.1,0.2-0.4,0.2-0.7,0.1C9.5,3.7,9.7,4.3,9.7,4.3C9.7,4.3,9.7,4.3,9.7,4.3
				C9.7,4.3,9.7,4.3,9.7,4.3z M9.3,3.1C9.3,3.1,9.3,3.1,9.3,3.1C9.4,3.1,9.4,3.1,9.3,3.1c0,0.6,0.2,1,0.3,1.1c0-0.2-0.1-0.7-0.1-1.1
				c0,0,0,0,0,0c0,0,0,0,0,0c0.3,0.1,0.5,0,0.6-0.1C10,3,9.8,2.7,9.8,2.7c0,0,0,0,0,0c0,0,0,0,0,0c0,0,1.2,0.1,1.7-0.4c0,0,0,0,0,0
				c0,0,0,0,0,0l0,0.2c0.1,0,0.4-0.1,0.5-0.4c0,0,0,0,0,0s0,0,0,0l0.1,0.2c0,0,0.2-0.1,0.2-0.3c0,0,0,0,0,0c0,0,0,0,0,0
				c0.2,0.1,0.1,0.3,0.1,0.4c0.1,0,0.3-0.1,0.4-0.3c0,0,0,0,0,0c0,0,0,0,0,0c0,0.1,0.1,0.3,0.4,0.4c-0.2-0.2-0.1-0.3-0.1-0.3
				c0,0,0,0,0,0c0,0,0,0,0,0c0,0,0.1,0.2,0.5,0.4c0.2,0.1,0.4,0.2,0.4,0.2c0,0,0,0.1,0,0.1c0.1-0.1,0-0.2,0-0.2c0,0,0,0,0,0
				c0,0,0,0,0,0c0,0,0.4,0.3,0.3,1.3C14.8,3.9,15,3.7,15,3.6c0.1-0.2,0.1-0.4,0-0.5c0,0,0,0,0,0c0,0,0,0,0,0c0.1,0,0.1,0,0.2,0
				c0.1,0,0.1-0.1,0.1-0.2c-0.1,0-0.1,0.1-0.2,0c-0.1,0-0.1-0.1-0.1-0.1c0,0,0,0,0,0c0-0.2,0.1-0.5-0.1-0.9c0,0,0,0,0,0c0,0,0,0,0,0
				c0.1,0,0.2,0.1,0.2,0c0,0,0.1-0.1,0.1-0.2c0,0.1-0.1,0.1-0.1,0.1c0,0-0.2,0-0.2-0.2c-0.3-1.1-1.6-1.2-1.6-1.2c0,0,0,0,0,0
				c0,0,0,0,0,0c0,0,0.1-0.2,0.3-0.2c-0.1-0.1-0.1-0.1-0.2-0.1c-0.1,0-0.2,0.1-0.3,0.2c0,0,0,0,0,0l0,0c0,0,0,0,0,0
				C13,0.2,12.9,0.1,12.8,0c-0.1,0-0.2,0-0.2,0c0.1,0,0.2,0,0.2,0.1c0,0,0,0.1,0,0.2c0,0,0,0,0,0s0,0,0,0C11-0.1,10,0.8,9.5,1.4
				C9.3,1.7,9.1,1.8,9,1.8c-0.1,0-0.2,0-0.2,0c0,0.1,0.2,0.2,0.6,0.2c0,0,0,0,0,0c0,0,0,0,0,0C9,2.2,9,2.5,9,2.6
				c0-0.1,0.2-0.3,0.4-0.3c0,0,0,0,0,0c0,0.2,0,0.4-0.1,0.5C9.2,3,9.1,3,8.9,3C9.1,3.2,9.3,3.1,9.3,3.1C9.3,3.1,9.3,3.1,9.3,3.1z"/>
		</g>
		<g>
			<path class="st4" d="M14.2,2.7c0,0,0.1,0.2-0.1,0.2c0-0.1,0.1-0.2-0.4-0.4c-0.5-0.2-0.5-0.4-0.5-0.4s-0.1,0.1,0.1,0.3
				c-0.3-0.1-0.4-0.3-0.5-0.5c-0.1,0.3-0.4,0.4-0.4,0.4s0.1-0.2-0.1-0.4c0,0.2-0.2,0.3-0.2,0.3s0,0-0.1-0.2
				c-0.2,0.3-0.5,0.4-0.5,0.4s0,0,0-0.2c-0.5,0.5-1.7,0.4-1.7,0.4S10,3,10.3,3c-0.1,0.2-0.4,0.2-0.7,0.1c0,0.2,0,0.3,0,0.5
				c0-0.1,0.1-0.2,0.1-0.3c0.2,0.1,0.5,0.1,0.8-0.3c-0.2,0-0.4-0.1-0.4-0.1s0.8,0,1.2-0.2c-0.1,0.2-0.2,0.2-0.2,0.2
				c0,0,0.6-0.2,0.8-0.4c0,0.2-0.1,0.3-0.1,0.3s0.3-0.2,0.4-0.4c0,0.3-0.1,0.4-0.1,0.4s0.5-0.2,0.6-0.4c0,0.3,0.5,0.4,0.8,0.4
				c-0.1-0.1-0.1-0.1-0.1-0.1s0.2,0.1,0.4,0.1C14.1,2.8,14.1,3,14,3.1c0.2,0,0.3-0.1,0.3-0.1s0.5,1-0.2,2.6c0,0,0,0,0,0
				c0.4-0.8,0.5-1.6,0.5-1.6C14.7,3,14.2,2.7,14.2,2.7z"/>
		</g>
		<g class="st33">
			<path class="st48" d="M15.1,2.8c0-0.1,0.2-0.6-0.1-0.9c0.2,0.1,0.4,0,0.3-0.3c0,0.2-0.2,0.3-0.3,0c-0.3-1.1-1.6-1.2-1.6-1.2
				s0.1-0.2,0.3-0.1c-0.2-0.2-0.5-0.1-0.6,0c-0.2-0.5-0.6-0.2-0.6-0.2s0.3,0,0.3,0.3c-0.9-0.2-1.5-0.1-2.1,0.1c0.1,0,0.1,0,0.2-0.1
				C12,0,13,0.5,13,0.5s-0.4,0-0.6,0.2C13.3,0.5,13.9,1,13.9,1s0-0.2-0.5-0.4c0.8,0,1.3,0.9,1.6,1.2c-0.1,0-0.2-0.1-0.5-0.2
				c0.4,0.3,0.5,0.9,0.2,1.6c0-0.3-0.2-0.6-0.6-0.9c0.1,0.1,0.1,0.2,0.1,0.4c0-0.1-0.2-0.2-0.6-0.4c-0.4-0.2-0.3-0.4-0.3-0.4
				S13,1.9,13.1,2.2c-0.2-0.2-0.3-0.6-0.3-0.6c0.1,0.3-0.2,0.6-0.2,0.6s0-0.2-0.4-0.6c0.1,0.2,0,0.5,0,0.5s0-0.2-0.2-0.4
				c0.1,0.3-0.3,0.6-0.3,0.6s0-0.1,0-0.3c-1,0.8-1.8,0.3-1.6,0.1c-0.2,0-0.5,0.2-0.4,0.4C9.4,2.3,9.6,2.1,9.6,2.1
				C9.2,2.1,9.1,2.3,9,2.5c0,0.1,0,0.2,0,0.2s0.1-0.4,0.4-0.4C9.4,2.7,9.2,3,8.9,3C9,3.2,9.3,3.1,9.3,3.1c0,0.7,0.3,1.2,0.3,1.2
				S9.5,3.7,9.6,3.1c0.3,0.1,0.5,0,0.7-0.1C10,3,9.8,2.7,9.8,2.7s1.2,0.1,1.7-0.4c0,0.2,0,0.2,0,0.2s0.4-0.1,0.5-0.4
				c0.1,0.2,0.1,0.2,0.1,0.2s0.2-0.1,0.2-0.3c0.2,0.2,0.1,0.4,0.1,0.4s0.3,0,0.4-0.4c0,0.1,0.2,0.4,0.5,0.5
				c-0.2-0.3-0.1-0.3-0.1-0.3s0.1,0.2,0.5,0.4c0.5,0.2,0.4,0.3,0.4,0.4c0.2-0.1,0.1-0.2,0.1-0.2S14.7,3,14.5,4
				c0.5-0.2,0.6-0.8,0.5-1c0.1,0.1,0.3,0,0.3-0.3C15.3,2.9,15.1,2.9,15.1,2.8z"/>
		</g>
		<path class="st55" d="M13,1.6c0-0.6-0.2-0.9-0.4-0.7c-0.1,0.2-0.6,0.4-0.4,0c0.2-0.4-0.7,0.3-0.4-0.1c0.3-0.4-0.4,0-0.3-0.2
			s0.3-0.2,0.8-0.2c-1-0.3-2.2,0.3-2.6,0.8C9.4,1.8,9.1,1.8,9.1,1.8S9.6,2,10,1.5c0,0,0,0.2-0.2,0.3c0.4-0.2,0.7-0.7,0.8-0.4
			c0.1,0.3,0.3,0.3,0.6,0.1c0.2-0.2,0.4,0.1,0,0.4c0.4,0,0.5-0.3,0.5-0.5C11.9,1.6,11.8,2,11.8,2s0.3-0.4,0.1-0.7
			c0.4,0.1,0.7,0.4,0.7,0.6c0,0,0.3-0.3,0-0.7C12.6,1.2,12.9,1.2,13,1.6z"/>
		<path class="st55" d="M13.2,0.9c0,0-0.1,0.5,0.3,0.8c0.3,0.2,0.4,0.4,0.4,0.4s0.1-0.2-0.2-0.5C13.4,1.5,14,1.8,14,1.5
			s0.3,0.3,0.2,0c-0.1-0.3,0.3,0,0.3,0.5c-0.1-0.7-0.6-1-1-1.1c0.4,0.2,0.5,0.5,0.1,0.3C13.3,1,13.6,2,13.2,0.9z"/>
	</g>
</g>
</svg>
