<?xml version="1.0" encoding="utf-8"?>
<!-- Generator: Adobe Illustrator 24.0.1, SVG Export Plug-In . SVG Version: 6.00 Build 0)  -->
<svg version="1.1" id="Capa_1" xmlns="http://www.w3.org/2000/svg" xmlns:xlink="http://www.w3.org/1999/xlink" x="0px" y="0px"
	 viewBox="0 0 24 24" style="enable-background:new 0 0 24 24;" xml:space="preserve">
<style type="text/css">
	.st0{fill:#FBD0B4;}
	.st1{fill:#B56A4D;}
	.st2{opacity:0.6;fill:#FBD0B4;enable-background:new    ;}
	.st3{opacity:0.6;}
	.st4{fill:#FCEE21;}
	.st5{fill:#F7931E;}
	.st6{opacity:0.5;fill:#FCD221;enable-background:new    ;}
	.st7{fill:#FCD221;}
	.st8{fill:#FFFFFF;}
	.st9{fill:#F7913D;}
	.st10{fill:#9B4A0D;}
	.st11{opacity:0.52;}
	.st12{opacity:0.46;}
	.st13{clip-path:url(#SVGID_2_);}
	.st14{fill:#89D5ED;}
	.st15{fill:#306977;}
	.st16{fill:#9E4C0B;}
	.st17{fill:#FEF6EC;}
	.st18{fill:#9E5116;}
	.st19{opacity:0.5;}
	.st20{fill:#BBAC9A;}
	.st21{fill:#984C08;}
	.st22{fill:#A0A427;}
	.st23{fill:#9A5648;}
	.st24{fill:#0A010B;}
	.st25{fill:#FDE4C7;}
	.st26{fill:#8C5742;}
	.st27{fill:#BE8D75;}
	.st28{fill:#A05B23;}
	.st29{fill:#602E09;}
	.st30{opacity:0.5;fill:#A05B23;enable-background:new    ;}
	.st31{opacity:0.7;fill:url(#SVGID_3_);enable-background:new    ;}
	.st32{opacity:0.7;fill:url(#SVGID_4_);enable-background:new    ;}
	.st33{fill:#19AACC;}
	.st34{fill:#AEE0E8;}
	.st35{fill:#73CEE5;}
</style>
<g>
	<g>
		<g>
			<g>
				<g>
					<path class="st0" d="M5.4,19.7c0,0-0.3,0.5-0.6,0.5c-0.3,0-0.6-0.1-0.9,0c-0.4,0.1-0.5,0.2-0.4,0.3c0,0.2,0.3,0.1,0.4,0.1
						c0,0-0.5,0.3-0.4,0.6c0.1,0.2,0.4,0.1,0.4,0.1s-0.3,0.4,0,0.6c0.2,0.1,0.5-0.2,0.5-0.2s0,0.2,0.2,0.2c0.2,0,0.4-0.3,0.6-0.4
						s0.3-0.2,0.5-0.2c0.2,0,0.4,0,0.5,0c0.1,0,0.2,0.1,0.3,0.3c0.1,0.1,0.2,0.4,0.5,0.3c0.3-0.1,0.1-0.3,0-0.5
						c-0.1-0.1-0.2-0.5-0.2-0.7C6.7,20.7,6.6,19.8,5.4,19.7z"/>
					<path class="st1" d="M6.9,22.1c-0.2,0-0.3-0.2-0.4-0.3c0,0,0-0.1-0.1-0.1c0,0,0-0.1-0.1-0.1c-0.1-0.1-0.2-0.2-0.3-0.2
						c-0.1,0-0.2,0-0.4,0l-0.1,0c-0.2,0-0.3,0-0.4,0.2c0,0-0.1,0.1-0.1,0.1c-0.2,0.2-0.3,0.3-0.5,0.3c-0.2,0-0.2-0.1-0.2-0.2
						c-0.1,0.1-0.3,0.2-0.5,0.1C3.7,22,3.7,22,3.6,21.9c0-0.1,0.1-0.3,0.1-0.4c-0.1,0-0.3,0-0.3-0.1c-0.1-0.2,0.2-0.5,0.3-0.6
						c-0.1,0-0.3,0-0.3-0.2c0-0.1,0-0.1,0-0.2c0.1-0.1,0.2-0.1,0.4-0.2c0.2-0.1,0.4,0,0.6,0c0.1,0,0.2,0,0.3,0
						c0.2,0,0.6-0.5,0.6-0.5c0,0,0,0,0,0c0.5,0,1.2,0.3,1.4,1.2l0,0c0,0.2,0.1,0.5,0.2,0.7c0.1,0.1,0.2,0.3,0.1,0.4
						c0,0.1-0.1,0.1-0.2,0.1C6.9,22.1,6.9,22.1,6.9,22.1z M6.1,21.4c0.1,0,0.2,0.1,0.3,0.2c0,0,0,0.1,0.1,0.1c0,0,0,0.1,0.1,0.1
						C6.6,22,6.7,22.1,7,22.1C7,22,7.1,22,7.1,21.9c0-0.1-0.1-0.3-0.1-0.3c-0.1-0.2-0.2-0.5-0.2-0.7l0,0c-0.1-0.7-0.5-1.1-1.3-1.1
						c-0.1,0.1-0.4,0.5-0.6,0.5c-0.1,0-0.2,0-0.3,0c-0.2,0-0.4,0-0.6,0c-0.2,0.1-0.3,0.1-0.4,0.2c0,0,0,0.1,0,0.1
						c0,0.1,0.2,0.1,0.3,0.1h0c0,0,0,0,0,0c0,0,0,0,0,0c0,0-0.4,0.3-0.4,0.6c0.1,0.2,0.3,0.1,0.3,0.1c0,0,0,0,0,0c0,0,0,0,0,0
						c0,0-0.2,0.2-0.1,0.4c0,0.1,0.1,0.1,0.1,0.2c0.1,0.1,0.4-0.1,0.5-0.2c0,0,0,0,0,0c0,0,0,0,0,0c0,0,0,0.2,0.2,0.2
						c0.1,0,0.3-0.1,0.5-0.3c0,0,0.1-0.1,0.1-0.1c0.2-0.2,0.3-0.2,0.5-0.2l0.1,0C5.9,21.5,6,21.5,6.1,21.4
						C6.1,21.4,6.1,21.4,6.1,21.4z"/>
				</g>
				<g>
					<path class="st2" d="M3.8,20.8c0.1,0,0.2-0.1,0.2-0.1c0.2-0.1,0.5-0.2,0.7-0.3c-0.1,0-0.3,0.1-0.5,0.1c-0.2,0-0.3,0.1-0.5,0.1
						c-0.1,0-0.2-0.1-0.2-0.1c-0.1,0.1-0.1,0.2,0,0.3C3.6,20.8,3.7,20.8,3.8,20.8z"/>
					<path class="st2" d="M3.9,21.3C4,21.2,4.1,21.1,4.1,21c0.2-0.3,0.7-0.3,0.9-0.5c-0.2,0.1-0.4,0.1-0.6,0.2
						C4.2,20.7,4,20.9,3.9,21c-0.1,0.1-0.4,0.4-0.4,0.1c0-0.1,0-0.1,0-0.2c-0.1,0.1-0.1,0.2-0.1,0.3c0,0.2,0.2,0.2,0.3,0.2
						C3.8,21.4,3.9,21.3,3.9,21.3z"/>
					<path class="st2" d="M7.1,22.1C7.1,22,7.1,22,7.1,22.1c0.1-0.1,0.1-0.2,0.1-0.2c-0.1,0-0.2,0-0.3-0.1c-0.2-0.2-0.2-0.5-0.4-0.6
						c-0.2-0.3-0.7-0.2-1,0c-0.3,0.1-0.4,0.4-0.7,0.6c-0.1,0.1-0.3,0.2-0.3,0c0-0.1,0.1-0.2,0.1-0.3c0.1-0.1,0.2-0.2,0.3-0.3
						C5,21,5.3,20.9,5.5,20.8c-0.2,0-0.4-0.1-0.6,0c-0.3,0.1-0.5,0.3-0.6,0.5c-0.1,0.1-0.3,0.7-0.5,0.5c-0.1,0,0-0.2,0-0.2l0,0
						c-0.1,0.1-0.1,0.3,0,0.4c0.2,0.2,0.4,0,0.6-0.1c0,0,0,0,0,0.1C4.5,22.2,4.8,22,5,21.9c0.2-0.2,0.3-0.3,0.5-0.3
						c0.2,0,0.3,0,0.5,0c0,0,0,0,0,0c0.3-0.1,0.5,0.4,0.6,0.5C6.8,22.1,7,22.1,7.1,22.1z"/>
					<path class="st0" d="M5.6,20.8c-0.2,0-0.4,0.1-0.6,0.2c-0.2,0.1-0.5,0.4-0.5,0.6c0,0,0,0,0,0c0.1-0.1,0.3-0.3,0.4-0.4
						C5,21.1,5.1,21,5.2,21C5.3,20.9,5.4,20.9,5.6,20.8C5.5,20.8,5.6,20.8,5.6,20.8z"/>
					<path class="st0" d="M5,20.6c-0.4,0.2-0.5,0.2-0.7,0.4c-0.1,0.1-0.2,0.3-0.3,0.5c-0.1,0.1-0.1,0.2-0.1,0.3c0,0,0,0,0,0
						c0.1-0.3,0.3-0.5,0.5-0.8C4.5,20.8,4.6,20.8,5,20.6C4.9,20.6,5,20.6,5,20.6z"/>
					<path class="st0" d="M4.8,20.4c-0.2,0-0.3,0.1-0.5,0.2c-0.2,0.1-0.3,0.2-0.4,0.3c-0.1,0.1-0.4,0.2-0.3,0.4c0,0,0.1,0,0.1,0
						c0-0.2,0.3-0.4,0.4-0.5C4.2,20.6,4.5,20.5,4.8,20.4C4.7,20.4,4.8,20.4,4.8,20.4z"/>
					<path class="st0" d="M4.9,20.3c-0.2,0.1-0.6,0-0.9,0c-0.1,0-0.6,0.1-0.5,0.2c0,0,0,0,0.1,0c0.2,0,0.3-0.1,0.6-0.1
						C4.4,20.3,4.7,20.4,4.9,20.3C4.9,20.3,4.9,20.3,4.9,20.3z"/>
					<path class="st0" d="M7,21.7c-0.1-0.3-0.2-0.6-0.5-0.7c0,0,0,0,0,0C6.7,21.2,6.8,21.5,7,21.7C6.9,21.7,7,21.7,7,21.7z"/>
				</g>
			</g>
			<g class="st3">
				<path class="st0" d="M6.4,20.6c0.1,0.4,0.3,0.6,0.5,0.7c0-0.1-0.1-0.3-0.1-0.4c0-0.2-0.2-1.1-1.3-1.2c0,0-0.1,0.1-0.2,0.3
					C5.5,20.1,6.3,20.2,6.4,20.6z"/>
			</g>
		</g>
		<g>
			<g>
				<path class="st4" d="M6.8,14.8c0,0-0.2,1.6-0.5,3.1c-0.2,0.9-0.6,1.2-0.5,1.4c-0.3,0.1-0.6,0.3-0.6,0.5c0,0.2,1.2,0,1.4,1
					c0.2,0.6,0.7,0.7,0.8,0.2c0.1-0.5,0-0.8,0.2-1c0.2-0.1,0.2-0.2,0-0.4c-0.2-0.2,0.3-0.2,0.4-0.8c0.2-0.7,0.4-1.7,0.4-1.7
					L6.8,14.8z"/>
				<path class="st5" d="M7.1,21.3c-0.2,0-0.4-0.2-0.5-0.5c-0.2-0.7-0.8-0.8-1.2-0.8c-0.2,0-0.3-0.1-0.3-0.1c0-0.2,0.4-0.4,0.6-0.5
					c0-0.1,0-0.2,0.1-0.4c0.1-0.2,0.3-0.5,0.4-1c0.3-1.4,0.5-3,0.5-3c0,0,0,0,0,0c0,0,0,0,0,0L8.4,17c0,0,0,0,0,0c0,0-0.2,1-0.4,1.7
					c-0.1,0.4-0.3,0.5-0.4,0.6c-0.1,0.1-0.1,0.1-0.1,0.2c0.2,0.2,0.1,0.3,0,0.4c-0.1,0.1-0.1,0.3-0.1,0.5c0,0.1,0,0.3-0.1,0.5
					C7.3,21.2,7.2,21.3,7.1,21.3C7.1,21.3,7.1,21.3,7.1,21.3z M6.8,14.9c0,0.3-0.2,1.7-0.5,3c-0.1,0.5-0.3,0.8-0.4,1
					c-0.1,0.2-0.2,0.3-0.1,0.4c0,0,0,0,0,0c0,0,0,0,0,0c-0.3,0-0.6,0.3-0.6,0.5c0,0,0.1,0,0.2,0.1c0.4,0.1,1,0.2,1.2,0.9
					c0.1,0.4,0.3,0.5,0.5,0.5c0.1,0,0.2-0.1,0.2-0.3c0-0.2,0-0.3,0.1-0.5c0-0.2,0-0.4,0.1-0.5c0.1-0.1,0.2-0.2,0-0.4
					c-0.1-0.1,0-0.2,0.1-0.3c0.1-0.1,0.3-0.2,0.3-0.6c0.2-0.6,0.3-1.5,0.4-1.7L6.8,14.9z"/>
			</g>
			<g>
				<path class="st6" d="M8,18.7c0.2-0.7,0.4-1.7,0.4-1.7l-1.5-2.2c0,0-0.1,1.2-0.4,2.5h0c0,0,0.3-1.6,0.6-1
					c0.3,0.7,0.9,0.9,0.6,1.9c-0.2,0.8-0.2,1-0.9,0.9s-0.1,0,0.3,0.3c0.3,0.3-0.2,0.2-0.4,0.2c-0.2,0,0.5,0,0.4,0.5
					c0,0.4-0.2,0.3-0.5-0.1c-0.3-0.4-0.6-0.3-0.9-0.3c-0.2,0,0-0.2,0.3-0.2c0.2,0-0.1,0-0.1-0.5c-0.1,0.2-0.2,0.3-0.1,0.4
					c-0.3,0.1-0.6,0.3-0.6,0.5c0,0.2,1.2,0,1.4,1c0.2,0.6,0.7,0.7,0.8,0.2c0.1-0.5,0-0.8,0.2-1c0.2-0.1,0.2-0.2,0-0.4
					C7.4,19.4,7.8,19.4,8,18.7z"/>
			</g>
			<g>
				<path class="st7" d="M8,18.7c0.2-0.7,0.4-1.7,0.4-1.7l-1.5-2.2c0,0,0,0.3-0.1,0.8c0,0,0,0,0,0c0.1-0.2,0.1,0.2,0.4,0.7
					c0.2,0.5,0.5,0.8,0.8,1.2c0.3,0.5,0,0.9-0.1,1.4s-0.4,0.4-0.5,0.4c0.2,0.3,0.3,0.4,0.1,0.4c0.1,0.2,0,0.2,0,0.7
					c0,0.5-0.1,0.8-0.3,0.4c-0.2-0.4-0.5-0.9-1.3-0.9c0,0,0,0,0,0c0.4,0.1,0.8,0.3,1,0.8c0.2,0.6,0.7,0.7,0.8,0.2
					c0.1-0.5,0-0.8,0.2-1c0.2-0.1,0.2-0.2,0-0.4C7.4,19.4,7.8,19.4,8,18.7z"/>
			</g>
			<path class="st8" d="M6.5,17.1c0,0.3-0.1,0.6-0.2,1c0,0.2-0.1,0.3-0.1,0.5C6.1,18.6,6,18.7,6,18.9c0,0.1,0,0,0.1,0
				c0.1-0.1,0.1-0.3,0.2-0.4c0.1-0.2,0.1-0.3,0.1-0.5C6.5,17.7,6.5,17.4,6.5,17.1C6.5,17,6.5,17.1,6.5,17.1z"/>
		</g>
		<g>
			<g>
				<path class="st9" d="M19.3,19.6c0,0,0.2-1,1-0.8c0.8,0.2,1.1,0.6,1.7,0.9s1.4,0.3,1.6,1c0.2,0.7-0.6,1-1.7,0.8
					c-1.1-0.2-1.9-0.2-1.9-0.2L19.3,19.6z"/>
				<path class="st10" d="M22.7,21.7c-0.2,0-0.5,0-0.7-0.1c-1.1-0.2-1.9-0.2-1.9-0.2c0,0,0,0,0,0l-0.7-1.7c0,0,0,0,0,0
					c0,0,0.1-0.5,0.4-0.7c0.2-0.1,0.4-0.1,0.6-0.1c0.5,0.1,0.8,0.4,1.1,0.6c0.2,0.1,0.4,0.3,0.6,0.4c0.2,0.1,0.4,0.1,0.6,0.2
					c0.5,0.1,0.9,0.3,1.1,0.8c0.1,0.2,0,0.5-0.1,0.6C23.4,21.6,23.1,21.7,22.7,21.7z M20.1,21.3c0.1,0,0.8,0,1.9,0.2
					c0.7,0.2,1.3,0.1,1.6-0.2c0.1-0.1,0.2-0.3,0.1-0.6c-0.1-0.5-0.6-0.6-1.1-0.8c-0.2-0.1-0.4-0.1-0.6-0.2c-0.2-0.1-0.4-0.2-0.6-0.4
					c-0.3-0.2-0.6-0.4-1.1-0.6c-0.2-0.1-0.4,0-0.5,0.1c-0.3,0.2-0.4,0.6-0.4,0.7L20.1,21.3z"/>
			</g>
			<g class="st11">
				<path class="st9" d="M23.6,20.8c0-0.1-0.1-0.2-0.1-0.3c0.1,0.3-0.1,0.4-0.2,0.2c-0.2-0.3-0.3-0.1-0.3-0.3c0-0.2-0.2-0.2-0.4-0.2
					c-0.2,0-0.6,0-0.9-0.2c-0.3-0.2-0.9-0.5-1.4-0.8c-0.2-0.1-0.3-0.2-0.4-0.3c-0.4,0.2-0.5,0.7-0.5,0.7l0.7,1.7c0,0,0.8,0,1.9,0.2
					C23,21.8,23.8,21.5,23.6,20.8z"/>
			</g>
			<g class="st11">
				<path class="st9" d="M23.5,20.5c0,0,0,0.1,0,0.1c0.1,0.4-0.2,0.7-0.6,0.7c-0.5,0-0.5-0.4-0.5-0.9c-0.3,0.2-0.1,0.7-0.3,0.7
					c-0.3,0-0.5-0.2-0.8-0.2c-0.3,0-0.6-0.1-0.8-0.8c-0.3-0.7-0.7-0.9-1-1c-0.1,0.2-0.2,0.4-0.2,0.4l0.7,1.7c0,0,0.8,0,1.9,0.2
					c1.1,0.2,1.9,0,1.7-0.8C23.6,20.7,23.6,20.6,23.5,20.5z"/>
			</g>
			<path class="st10" d="M22.4,20.5c0,0-0.2,0.6,0.1,1C22.4,21.4,22.2,21,22.4,20.5z"/>
		</g>
		<g>
			<path class="st4" d="M10.3,18.6c0,0-0.8,0.6-0.7,1.4c0.1,0.9,1.7,1.3,1.7,1.3l0.6-1.9L10.3,18.6z"/>
			<path class="st5" d="M11.3,21.3C11.3,21.3,11.3,21.3,11.3,21.3c0,0-0.4-0.1-0.8-0.3c-0.5-0.3-0.8-0.6-0.9-1
				c-0.1-0.9,0.7-1.5,0.7-1.5c0,0,0,0,0,0l1.6,0.9c0,0,0,0,0,0L11.3,21.3C11.3,21.3,11.3,21.3,11.3,21.3z M10.3,18.6
				c-0.1,0.1-0.8,0.6-0.7,1.4c0.1,0.8,1.4,1.2,1.6,1.3l0.6-1.8L10.3,18.6z"/>
		</g>
		<path class="st7" d="M10.3,18.6c0,0-0.8,0.6-0.7,1.4c0.1,0.9,1.7,1.3,1.7,1.3l0.6-1.9L10.3,18.6z"/>
		<path class="st7" d="M10.3,18.6c0,0-0.3,0.2-0.5,0.5c0.1-0.1,0.2-0.1,0.4,0c0.1,0,0.1,0.1,0.2,0.2c0,0.1,0.1,0.1,0.1,0.2
			c0,0.1,0,0.3-0.1,0.4c-0.1,0.2-0.3,0.4-0.5,0.5c-0.1,0-0.1,0-0.2,0.1c0.4,0.7,1.6,1,1.6,1l0.6-1.9L10.3,18.6z"/>
		<g>
			<g>
				<path class="st0" d="M10.4,20.6c0,0-0.5,0.1-0.9,0.3c-0.4,0.2-0.6,0.4-0.9,0.4c-0.3,0-0.3,0.3-0.1,0.4c0.2,0.2,0.6,0.1,0.6,0.1
					s-0.2,0.8,0.4,0.7c0.1,0.3,0.5,0.2,0.6,0.1c0.1,0.3,0.5,0.2,0.6,0.1c0.2,0.2,1.5,0.1,1-0.4c0.3-0.2,0.6-0.4,0.5-0.7
					C12,21.3,10.4,20.6,10.4,20.6z"/>
				<path class="st1" d="M11,22.7c-0.2,0-0.3,0-0.4-0.1c-0.1,0-0.2,0.1-0.3,0.1c-0.1,0-0.2-0.1-0.3-0.2c0,0.1-0.1,0.1-0.2,0.1
					c-0.1,0-0.3,0-0.4-0.2c-0.2,0-0.3,0-0.3-0.1C9,22.2,9,21.9,9,21.8c-0.1,0-0.4,0.1-0.5-0.1c-0.1-0.1-0.2-0.2-0.1-0.3
					c0-0.1,0.1-0.1,0.2-0.1c0.2,0,0.4-0.1,0.6-0.3c0.1,0,0.2-0.1,0.2-0.2c0.4-0.2,0.9-0.3,0.9-0.3c0,0,0,0,0,0c0.1,0,1.6,0.7,1.8,1
					c0,0.1,0,0.2,0,0.2c-0.1,0.2-0.2,0.3-0.5,0.5c0.1,0.1,0.1,0.2,0.1,0.2c0,0.1-0.3,0.2-0.4,0.2C11.2,22.7,11.1,22.7,11,22.7z
					 M10.6,22.6C10.6,22.6,10.7,22.6,10.6,22.6c0.1,0.1,0.4,0.1,0.7,0.1c0.2,0,0.3-0.1,0.4-0.2c0-0.1,0-0.1-0.1-0.2c0,0,0,0,0,0
					c0,0,0,0,0,0c0.3-0.1,0.5-0.3,0.5-0.4c0-0.1,0-0.1,0-0.2c-0.1-0.2-1.3-0.7-1.7-0.9c-0.1,0-0.5,0.1-0.9,0.3
					C9.4,20.9,9.3,21,9.3,21c-0.2,0.2-0.4,0.3-0.6,0.3c-0.1,0-0.2,0-0.2,0.1c0,0.1,0,0.2,0.1,0.3c0.2,0.1,0.5,0,0.5,0c0,0,0,0,0,0
					c0,0,0,0,0,0c0,0-0.1,0.4,0.1,0.6c0.1,0.1,0.2,0.1,0.3,0.1c0,0,0,0,0,0c0.1,0.1,0.2,0.2,0.3,0.2c0.1,0,0.2,0,0.2-0.1
					c0,0,0,0,0,0c0,0,0,0,0,0c0.1,0.1,0.2,0.2,0.3,0.2C10.5,22.6,10.6,22.6,10.6,22.6C10.6,22.6,10.6,22.6,10.6,22.6
					C10.6,22.6,10.6,22.6,10.6,22.6z"/>
			</g>
			<path class="st1" d="M9.8,21.6c-0.2,0.1-0.3,0.2-0.3,0.4c0,0.1,0,0.2,0,0.3c0,0.1,0,0.2,0.1,0.3c0,0,0,0,0,0c0,0,0-0.1-0.1-0.1
				c0,0,0-0.1,0-0.1c0-0.1,0-0.2,0-0.3C9.5,21.8,9.6,21.7,9.8,21.6C9.8,21.6,9.8,21.6,9.8,21.6z"/>
			<path class="st1" d="M10.4,21.8c-0.2,0-0.3,0.1-0.4,0.3c0,0.1-0.1,0.2-0.1,0.3c0,0,0,0.1,0,0.1c0,0,0,0.1,0.1,0.1c0,0,0,0,0,0
				c0,0,0-0.1,0-0.1c0,0,0-0.1,0-0.1c0-0.1,0-0.2,0-0.2C10.1,21.9,10.3,21.8,10.4,21.8C10.4,21.8,10.4,21.8,10.4,21.8z"/>
			<path class="st1" d="M10.9,22c-0.1,0.1-0.2,0.2-0.3,0.3c0,0.1,0,0.1,0,0.2c0,0.1,0,0.1,0.1,0.1c0,0,0,0,0,0c0,0,0,0,0-0.1
				c0,0,0,0,0-0.1c0-0.1,0-0.1,0-0.2C10.7,22.2,10.8,22.1,10.9,22C10.9,22,10.9,22,10.9,22z"/>
			<path class="st1" d="M11.7,22.2c0,0-0.1,0-0.1,0c0,0-0.1,0-0.1,0c-0.1,0-0.2,0-0.2,0.1c0,0,0,0,0,0c0.1,0,0.1,0,0.2,0
				c0,0,0.1,0,0.1,0C11.5,22.2,11.6,22.2,11.7,22.2C11.6,22.2,11.6,22.2,11.7,22.2C11.6,22.2,11.7,22.2,11.7,22.2z"/>
			<path class="st1" d="M9.6,21.3c-0.1,0-0.2,0.1-0.3,0.2c0,0-0.1,0.1-0.1,0.2c0,0,0,0.1,0,0.1c0,0,0,0.1,0,0.1c0,0,0,0,0,0
				c0,0,0-0.1,0.1-0.2c0,0,0.1-0.1,0.1-0.1C9.3,21.4,9.4,21.4,9.6,21.3C9.6,21.3,9.6,21.3,9.6,21.3z"/>
			<path class="st0" d="M9.5,21.3c-0.1,0-0.1,0.1-0.2,0.1c-0.1,0.1-0.1,0.1-0.2,0.2c0,0.1-0.1,0.2-0.1,0.3c0,0.1,0,0.1,0,0.2
				c0,0,0,0.1,0,0.1c0,0,0,0,0,0c0,0,0-0.1,0-0.1c0,0,0-0.1,0-0.1c0-0.1,0-0.2,0.1-0.2C9.3,21.5,9.4,21.4,9.5,21.3
				C9.5,21.3,9.5,21.3,9.5,21.3z"/>
			<g class="st3">
				<path class="st0" d="M10.1,22.5L10.1,22.5C10.1,22.5,10.1,22.5,10.1,22.5C10.1,22.5,10.1,22.5,10.1,22.5z"/>
				<path class="st0" d="M9.8,21.6c-0.6,0.1-0.4,0.6-0.6,0.6c0,0-0.1,0-0.1-0.1c0,0.2,0.1,0.3,0.4,0.2c0,0,0,0,0,0
					C9.4,22,9.5,21.8,9.8,21.6z"/>
				<path class="st0" d="M9.5,21.3c-0.2,0-0.4,0.2-0.8,0.2c-0.2,0-0.3,0-0.3-0.1c0,0.1,0,0.2,0.1,0.3c0.2,0.1,0.5,0.1,0.5,0.1
					C9.2,21.5,9.4,21.4,9.5,21.3z"/>
				<path class="st0" d="M10.4,21.8c-0.3,0-0.5,0.4-0.5,0.6c0,0.2-0.3,0.1-0.4,0c0,0,0,0,0,0c0.1,0.2,0.5,0.2,0.6,0.1
					C9.9,22.1,10.2,21.9,10.4,21.8z"/>
				<path class="st0" d="M9.5,22.4C9.5,22.4,9.5,22.4,9.5,22.4C9.5,22.4,9.5,22.4,9.5,22.4C9.5,22.4,9.5,22.4,9.5,22.4z"/>
				<path class="st0" d="M12.1,21.5c-0.1-0.2-1.8-1-1.8-1s-0.2,0-0.4,0.1c0.5,0,1.5,0.5,1.8,0.7c0.3,0.3,0,0.5-0.2,0.6
					c-0.2,0.1-0.3,0.1-0.4,0.3c0.2,0,0.5,0,0.5,0.2c0,0.1-0.3,0.2-0.5,0.3c0.4,0,0.9-0.2,0.5-0.5C12,22,12.3,21.8,12.1,21.5z"/>
				<path class="st0" d="M10.9,22c-0.1,0-0.3,0.1-0.4,0.4c-0.1,0.2-0.4,0.1-0.4,0.1c0.1,0.3,0.5,0.2,0.6,0.1
					C10.5,22.4,10.7,22.2,10.9,22z"/>
			</g>
			<path class="st0" d="M8.6,21.3c0,0,0.2,0,0.5-0.1c0.3-0.2,0.6-0.4,0.9-0.5c-0.3,0.1-0.4,0.2-0.7,0.4C9.1,21.2,8.9,21.4,8.6,21.3z
				"/>
			<path class="st0" d="M10.9,22c0,0-0.4,0.3-0.2,0.6C10.7,22.4,10.6,22.3,10.9,22z"/>
			<path class="st0" d="M10.4,21.8c0,0-0.5,0.2-0.3,0.7C10.1,22.3,10,22,10.4,21.8z"/>
			<path class="st0" d="M9.8,21.6c0,0-0.5,0.2-0.3,0.8C9.5,22.1,9.5,21.8,9.8,21.6z"/>
		</g>
		<g>
			<path class="st4" d="M11.3,12.3c0,0,1.5,0.6,3.6,0.4c2.1-0.2,3.5,0.3,4.4,2.1c0.9,1.8,0.1,3.9-0.6,4.7c0,0,0.6-0.2,1.2,0.5
				c0.6,0.8,0.7,1.5,0.2,1.6c-1.2,0.3-3,0.9-4.7,0.3c-1.1-0.4-1.4-0.8-1.3-1.5c-0.6,0.1-3.5-0.4-5-2.9
				C10.2,16.7,11.3,12.3,11.3,12.3z"/>
			<path class="st5" d="M17.1,22.1c-0.5,0-1.1-0.1-1.7-0.3c-1-0.4-1.4-0.8-1.4-1.5c-0.7,0.1-3.4-0.4-5-2.9c0,0,0,0,0,0
				c1-0.7,2.2-5.2,2.2-5.2c0,0,0,0,0,0c0,0,0,0,0,0c0,0,1.5,0.6,3.6,0.4c2.2-0.2,3.6,0.4,4.5,2.1c1,1.9,0.1,3.9-0.6,4.6
				c0.2,0,0.7-0.1,1.2,0.5c0.4,0.5,0.6,1,0.5,1.4c0,0.1-0.2,0.2-0.3,0.3l-0.1,0C19.3,21.8,18.2,22.1,17.1,22.1z M14.1,20.3
				C14.2,20.3,14.2,20.3,14.1,20.3C14.2,20.3,14.2,20.3,14.1,20.3c0,0.7,0.3,1.1,1.4,1.5c1.6,0.6,3.4,0.1,4.5-0.2l0.1,0
				c0.1,0,0.2-0.1,0.3-0.3c0.1-0.3-0.1-0.8-0.5-1.3c-0.6-0.7-1.2-0.5-1.2-0.5c0,0,0,0,0,0c0,0,0,0,0,0c0.7-0.7,1.5-2.8,0.6-4.7
				c-0.9-1.7-2.2-2.4-4.4-2.1c-1.9,0.2-3.3-0.3-3.6-0.3c0,0.2-0.3,1.2-0.7,2.3c-0.5,1.6-1,2.6-1.5,2.9c0.8,1.3,2,2,2.8,2.4
				C13,20.3,13.8,20.4,14.1,20.3C14.1,20.3,14.1,20.3,14.1,20.3z"/>
		</g>
		<g>
			<path class="st7" d="M18.7,19.4c0.7-0.8,1.6-2.8,0.6-4.7c0,0,0-0.1-0.1-0.1c0.5,1.2,0.1,2.8-0.3,3.7c-0.7,1.5-2.1,1.9-3,2.2
				c-1,0.4-1.9,0.4-1.9-0.2c0.1-0.6,0.9-1.4,1.9-1.5c1-0.1,1.7-0.5,1.8-1.3c-2.1,1-3.5-0.1-3.2-1.1c0.4-1.2-0.2-1.7-0.5-2.4
				c-0.3-0.8-0.2-1.2,1-1.3c0.1,0,0.2,0,0.2,0c-0.2,0-0.3,0-0.5,0c-2.1,0.2-3.6-0.4-3.6-0.4s-1.2,4.5-2.2,5.2c1.5,2.5,4.4,3,5,2.9
				c0,0.7,0.3,1,1.3,1.5c1.7,0.6,3.5,0.1,4.7-0.3c0.5-0.1,0.4-0.9-0.2-1.6C19.4,19.2,18.7,19.4,18.7,19.4z"/>
		</g>
		<g>
			<path class="st7" d="M14.8,19.4c0.8-0.7,1.8-0.8,1.8-0.8s-0.5-0.2-1.3,0c-0.8,0.2-1.8,0.4-1.8-1c-0.4,1-2,1.3-2.3-0.2
				c0,0.3,0.2,1.7-0.3,1.3c-0.5-0.4-0.6-0.8,0.1-1.9c0.4-1.1,0.3-2.6,0.1-3.8c-0.4,1.3-1.2,3.9-2,4.4c1.5,2.5,4.3,3,5,2.9
				C14.2,20,14.5,19.7,14.8,19.4z"/>
		</g>
		<g>
			<path class="st4" d="M11.2,16.9c0,0-0.7-3.7,0.9-4.1c1-0.2,2,0.8,1.4,4.5c-0.3,1.5-0.7,3-0.6,3.6c0.1,0.4,0.1,0.7-0.4,0.9
				c-0.4,0.1-0.7-0.6-1.9-1c-0.8-0.3-0.9-0.4-0.4-0.6c0.4-0.1,0.3-0.5,0.6-0.6C11.4,19.5,11.4,18.3,11.2,16.9z"/>
			<path class="st5" d="M12.5,21.8c-0.2,0-0.3-0.1-0.5-0.3c-0.3-0.2-0.6-0.5-1.3-0.7c-0.5-0.2-0.7-0.3-0.7-0.4
				c0-0.1,0.1-0.1,0.4-0.2c0.2,0,0.3-0.2,0.3-0.3c0.1-0.1,0.1-0.3,0.3-0.3c0.3-0.1,0.4-1.1,0.2-2.6c0,0-0.2-0.9-0.1-1.9
				c0-1.3,0.4-2,1.1-2.2c0.4-0.1,0.7,0,0.9,0.2c0.9,0.8,0.7,3,0.5,4.3c-0.1,0.6-0.2,1.1-0.3,1.6c-0.2,0.8-0.3,1.6-0.3,1.9
				c0.1,0.4,0.1,0.8-0.4,0.9C12.6,21.8,12.6,21.8,12.5,21.8z M12.4,12.9c-0.1,0-0.2,0-0.3,0c-1.6,0.4-0.9,4-0.9,4c0,0,0,0,0,0
				c0.1,0.9,0.2,2.6-0.3,2.7c-0.2,0-0.2,0.2-0.3,0.3c-0.1,0.1-0.1,0.3-0.4,0.3c-0.3,0.1-0.3,0.1-0.3,0.2c0,0.1,0.5,0.3,0.7,0.4
				c0.6,0.2,1,0.5,1.3,0.7c0.2,0.2,0.4,0.3,0.6,0.3c0.4-0.1,0.4-0.4,0.3-0.8c0-0.3,0.1-1,0.3-1.9c0.1-0.5,0.2-1.1,0.3-1.6
				c0.4-2.9-0.1-3.9-0.5-4.2C12.9,13,12.7,12.9,12.4,12.9z"/>
		</g>
		<g>
			<path class="st7" d="M13.6,17.2c-0.1,0.2-0.1,0.4-0.1,0.5c-0.2,1.1-0.8,2.3-0.7,3c0.2,0.7-0.2,0.9-0.8,0.4
				c-0.6-0.4-0.7-0.7-0.5-0.9c0.3-0.3,1,0.8,0.7,0.2c-0.3-0.6-0.6-0.8-0.4-1.1c0.2-0.3,0.5-0.7,0.2-1.6c-0.2-0.9,0.3-1.5-0.1-2.3
				c-0.3-0.8-0.5-1.6,0.1-2.2c0.2-0.3,0.6-0.2,0.9,0c-0.3-0.2-0.6-0.3-0.9-0.2c-1.6,0.4-0.9,4.1-0.9,4.1c0.2,1.3,0.2,2.5-0.2,2.6
				c-0.4,0.1-0.2,0.5-0.6,0.6c-0.6,0.2-0.4,0.3,0.4,0.6c1.2,0.4,1.5,1.1,1.9,1c0.4-0.1,0.4-0.4,0.4-0.9c-0.1-0.5,0.3-2,0.6-3.6
				C13.6,17.3,13.6,17.2,13.6,17.2z"/>
		</g>
		<path class="st1" d="M5.5,20.8c-0.3,0-0.6,0.2-0.8,0.4c-0.1,0.1-0.2,0.2-0.3,0.3c-0.1,0.1-0.2,0.3-0.2,0.5c0,0,0.1,0,0.1-0.1
			c0-0.1,0-0.2,0-0.2c0-0.1,0.1-0.1,0.1-0.2c0.1-0.1,0.2-0.2,0.3-0.3C5,21,5.2,20.9,5.5,20.8C5.5,20.8,5.5,20.8,5.5,20.8z"/>
		<path class="st1" d="M4.9,20.6c-0.1,0-0.3,0.1-0.4,0.1c-0.1,0.1-0.2,0.1-0.3,0.2C4.1,21,4,21.1,3.9,21.2c-0.1,0.1-0.2,0.2-0.2,0.3
			c0,0,0,0,0,0c0.1-0.1,0.1-0.2,0.2-0.3C4,21.2,4.1,21.1,4.2,21c0.1-0.1,0.2-0.2,0.3-0.2C4.7,20.7,4.8,20.7,4.9,20.6
			C4.9,20.6,4.9,20.6,4.9,20.6z"/>
		<path class="st1" d="M4.7,20.4c-0.1,0-0.2,0.1-0.2,0.1c-0.1,0-0.2,0.1-0.2,0.1c-0.1,0-0.1,0.1-0.2,0.1c-0.1,0-0.2,0.1-0.2,0.1
			c0,0,0,0,0,0c0,0,0,0,0,0c0.1,0,0.1-0.1,0.2-0.1c0.1,0,0.2-0.1,0.2-0.1c0.1,0,0.2-0.1,0.3-0.1C4.5,20.5,4.6,20.4,4.7,20.4
			C4.7,20.4,4.7,20.4,4.7,20.4z"/>
		<path class="st5" d="M16.3,18.7c-0.5,0-0.9,0.2-1.3,0.5c-0.2,0.1-0.4,0.3-0.5,0.5c-0.2,0.2-0.3,0.4-0.4,0.7c0,0.1,0.1,0.1,0.1,0
			c0,0,0,0,0,0c0,0,0-0.1,0-0.1c0,0,0.1-0.1,0.1-0.1c0.1-0.1,0.1-0.2,0.2-0.3c0.1-0.2,0.3-0.4,0.5-0.5C15.4,19,15.8,18.8,16.3,18.7
			C16.3,18.7,16.3,18.7,16.3,18.7z"/>
		<path class="st5" d="M18.9,19.3c-0.1,0-0.2,0.1-0.2,0.2c-0.1,0.1-0.2,0.1-0.3,0.2c-0.2,0.1-0.3,0.2-0.5,0.3
			c-0.4,0.2-0.8,0.3-1.2,0.5c0,0,0,0.1,0,0.1c0.2,0,0.4-0.1,0.6-0.2c-0.1,0.1-0.3,0.3-0.4,0.4c0,0,0,0,0,0c0,0,0,0,0,0
			c0.2-0.2,0.3-0.4,0.6-0.5c0.1-0.1,0.2-0.1,0.4-0.2c0.2-0.1,0.4-0.2,0.6-0.3C18.6,19.6,18.8,19.5,18.9,19.3
			C18.9,19.3,18.9,19.3,18.9,19.3z"/>
		<path class="st7" d="M11.8,21.2c-0.3-0.3-0.3-0.4-0.9-0.6c-0.6-0.2-0.2-0.3,0.1-0.6c0.2-0.3,0.9,0.1,0.7-0.1
			c-0.1-0.2-0.4-0.2-0.2-0.6c0.2-0.4,0.2-0.7,0.1-1.8c-0.1-1-0.3-1.2-0.1-1.8c0.2-0.6,0.2-0.8,0.1-1.8c0-0.3,0-0.6,0-0.8
			c-0.9,1-0.4,3.7-0.4,3.7c0.2,1.3,0.2,2.5-0.2,2.6c-0.4,0.1-0.2,0.5-0.6,0.6c-0.6,0.2-0.4,0.3,0.4,0.6c1.2,0.4,1.5,1.1,1.9,1
			c0.1,0,0.1,0,0.2-0.1C12.5,21.7,12,21.4,11.8,21.2z"/>
		<g>
			<path class="st7" d="M20,19.9c-0.6-0.8-1.2-0.5-1.2-0.5c0,0,0,0,0.1-0.1c-0.3,0.2-1.1,1-2.1,1.1c0,0,0.3,0.1,0.4,0
				c0.1,0-0.2,0.2-0.2,0.5c0.4-0.3,1.1-0.8,1.9-1c0.8-0.3,1.1,0.2,1.3,0.8c0.2,0.6-1,1-2.4,1.2s-2.4-0.1-3.2-0.8c0,0,0,0,0,0
				c0.2,0.2,0.6,0.5,1.1,0.7c1.7,0.6,3.5,0.1,4.7-0.3C20.6,21.4,20.5,20.7,20,19.9z"/>
		</g>
		<path class="st8" d="M12.9,13.1c0,0,0.9,1.1,0.5,4.2C13.9,16.1,13.7,13.7,12.9,13.1z"/>
		<path class="st8" d="M16.9,12.8c0,0,2,0.9,2.4,2.7C19.4,14.5,18.4,13.1,16.9,12.8z"/>
		<path class="st8" d="M15.9,18.9c0,0-1.5,0.7-1.4,1.7C14.2,20.2,14.5,19.4,15.9,18.9z"/>
	</g>
	<g class="st12">
		<g>
			<defs>
				<path id="SVGID_1_" d="M6.8,14.8l1.5,2.2c0,0-0.2,1-0.4,1.7c-0.2,0.7-0.6,0.6-0.4,0.8c0.2,0.2,0.1,0.3,0,0.4
					c-0.2,0.1-0.1,0.5-0.2,1c-0.1,0.5-0.6,0.4-0.8-0.2c-0.2-1-1.4-0.8-1.4-1c0-0.2,0.4-0.4,0.6-0.5c-0.1-0.3,0.3-0.5,0.5-1.4
					C6.6,16.4,6.8,14.8,6.8,14.8z M20,19.9c-0.6-0.8-1.2-0.5-1.2-0.5c0.7-0.8,1.6-2.8,0.6-4.7s-2.4-2.4-4.4-2.1
					c-2.1,0.2-3.6-0.4-3.6-0.4s-1.2,4.5-2.2,5.2c0.6,0.9,1.3,1.5,2,2c0,0.1-0.1,0.1-0.2,0.1c-0.4,0.1-0.2,0.5-0.6,0.6
					c-0.6,0.2-0.4,0.3,0.4,0.6c1.2,0.4,1.5,1.1,1.9,1c0.4-0.1,0.4-0.4,0.4-0.9c0-0.2,0-0.4,0-0.7c0.5,0.1,0.9,0.1,1.1,0.1
					c0,0.7,0.3,1,1.3,1.5c1.7,0.6,3.5,0.1,4.7-0.3C20.6,21.4,20.5,20.7,20,19.9z"/>
			</defs>
			<clipPath id="SVGID_2_">
				<use xlink:href="#SVGID_1_"  style="overflow:visible;"/>
			</clipPath>
			<g class="st13">
				<g>
					<path class="st9" d="M4.6,12.9c0,0.1-0.1,0.2-0.2,0.2S4.1,13,4.1,12.9c0-0.1,0.1-0.2,0.2-0.2C4.5,12.7,4.6,12.8,4.6,12.9z"/>
					<path class="st9" d="M5.8,12.9c0,0.1-0.1,0.2-0.2,0.2S5.4,13,5.4,12.9c0-0.1,0.1-0.2,0.2-0.2C5.7,12.7,5.8,12.8,5.8,12.9z"/>
					<path class="st9" d="M7,12.9c0,0.1-0.1,0.2-0.2,0.2c-0.1,0-0.2-0.1-0.2-0.2c0-0.1,0.1-0.2,0.2-0.2C6.9,12.7,7,12.8,7,12.9z"/>
					<path class="st9" d="M8.3,12.9c0,0.1-0.1,0.2-0.2,0.2c-0.1,0-0.2-0.1-0.2-0.2c0-0.1,0.1-0.2,0.2-0.2
						C8.2,12.7,8.3,12.8,8.3,12.9z"/>
					<path class="st9" d="M9.5,12.9c0,0.1-0.1,0.2-0.2,0.2c-0.1,0-0.2-0.1-0.2-0.2c0-0.1,0.1-0.2,0.2-0.2
						C9.4,12.7,9.5,12.8,9.5,12.9z"/>
					<path class="st9" d="M10.8,12.9c0,0.1-0.1,0.2-0.2,0.2c-0.1,0-0.2-0.1-0.2-0.2c0-0.1,0.1-0.2,0.2-0.2
						C10.7,12.7,10.8,12.8,10.8,12.9z"/>
					<path class="st9" d="M12,12.9c0,0.1-0.1,0.2-0.2,0.2s-0.2-0.1-0.2-0.2c0-0.1,0.1-0.2,0.2-0.2C11.9,12.7,12,12.8,12,12.9z"/>
					<path class="st9" d="M13.2,12.9c0,0.1-0.1,0.2-0.2,0.2s-0.2-0.1-0.2-0.2c0-0.1,0.1-0.2,0.2-0.2C13.1,12.7,13.2,12.8,13.2,12.9z
						"/>
					<path class="st9" d="M14.5,12.9c0,0.1-0.1,0.2-0.2,0.2S14,13,14,12.9c0-0.1,0.1-0.2,0.2-0.2S14.5,12.8,14.5,12.9z"/>
					<path class="st9" d="M15.7,12.9c0,0.1-0.1,0.2-0.2,0.2c-0.1,0-0.2-0.1-0.2-0.2c0-0.1,0.1-0.2,0.2-0.2
						C15.6,12.7,15.7,12.8,15.7,12.9z"/>
					<path class="st9" d="M17,12.9c0,0.1-0.1,0.2-0.2,0.2c-0.1,0-0.2-0.1-0.2-0.2c0-0.1,0.1-0.2,0.2-0.2S17,12.8,17,12.9z"/>
					<path class="st9" d="M18.2,12.9c0,0.1-0.1,0.2-0.2,0.2c-0.1,0-0.2-0.1-0.2-0.2c0-0.1,0.1-0.2,0.2-0.2S18.2,12.8,18.2,12.9z"/>
					<path class="st9" d="M19.4,12.9c0,0.1-0.1,0.2-0.2,0.2c-0.1,0-0.2-0.1-0.2-0.2c0-0.1,0.1-0.2,0.2-0.2S19.4,12.8,19.4,12.9z"/>
					<path class="st9" d="M20.7,12.9c0,0.1-0.1,0.2-0.2,0.2c-0.1,0-0.2-0.1-0.2-0.2c0-0.1,0.1-0.2,0.2-0.2
						C20.6,12.7,20.7,12.8,20.7,12.9z"/>
					<path class="st9" d="M21.9,12.9c0,0.1-0.1,0.2-0.2,0.2c-0.1,0-0.2-0.1-0.2-0.2c0-0.1,0.1-0.2,0.2-0.2S21.9,12.8,21.9,12.9z"/>
				</g>
				<g>
					<path class="st9" d="M3.9,13.9c0,0.1-0.1,0.2-0.2,0.2S3.5,14,3.5,13.9c0-0.1,0.1-0.2,0.2-0.2C3.8,13.6,3.9,13.7,3.9,13.9z"/>
					<path class="st9" d="M5.2,13.9c0,0.1-0.1,0.2-0.2,0.2c-0.1,0-0.2-0.1-0.2-0.2c0-0.1,0.1-0.2,0.2-0.2
						C5.1,13.6,5.2,13.7,5.2,13.9z"/>
					<path class="st9" d="M6.4,13.9c0,0.1-0.1,0.2-0.2,0.2C6.1,14.1,6,14,6,13.9c0-0.1,0.1-0.2,0.2-0.2C6.3,13.6,6.4,13.7,6.4,13.9z
						"/>
					<path class="st9" d="M7.6,13.9c0,0.1-0.1,0.2-0.2,0.2c-0.1,0-0.2-0.1-0.2-0.2c0-0.1,0.1-0.2,0.2-0.2
						C7.5,13.6,7.6,13.7,7.6,13.9z"/>
					<path class="st9" d="M8.9,13.9c0,0.1-0.1,0.2-0.2,0.2c-0.1,0-0.2-0.1-0.2-0.2c0-0.1,0.1-0.2,0.2-0.2
						C8.8,13.6,8.9,13.7,8.9,13.9z"/>
					<path class="st9" d="M10.1,13.9c0,0.1-0.1,0.2-0.2,0.2c-0.1,0-0.2-0.1-0.2-0.2c0-0.1,0.1-0.2,0.2-0.2
						C10,13.6,10.1,13.7,10.1,13.9z"/>
					<path class="st9" d="M11.4,13.9c0,0.1-0.1,0.2-0.2,0.2c-0.1,0-0.2-0.1-0.2-0.2c0-0.1,0.1-0.2,0.2-0.2
						C11.3,13.6,11.4,13.7,11.4,13.9z"/>
					<path class="st9" d="M12.6,13.9c0,0.1-0.1,0.2-0.2,0.2c-0.1,0-0.2-0.1-0.2-0.2c0-0.1,0.1-0.2,0.2-0.2
						C12.5,13.6,12.6,13.7,12.6,13.9z"/>
					<path class="st9" d="M13.8,13.9c0,0.1-0.1,0.2-0.2,0.2c-0.1,0-0.2-0.1-0.2-0.2c0-0.1,0.1-0.2,0.2-0.2
						C13.7,13.6,13.8,13.7,13.8,13.9z"/>
					<path class="st9" d="M15.1,13.9c0,0.1-0.1,0.2-0.2,0.2c-0.1,0-0.2-0.1-0.2-0.2c0-0.1,0.1-0.2,0.2-0.2
						C15,13.6,15.1,13.7,15.1,13.9z"/>
					<path class="st9" d="M16.3,13.9c0,0.1-0.1,0.2-0.2,0.2c-0.1,0-0.2-0.1-0.2-0.2c0-0.1,0.1-0.2,0.2-0.2
						C16.2,13.6,16.3,13.7,16.3,13.9z"/>
					<path class="st9" d="M17.6,13.9c0,0.1-0.1,0.2-0.2,0.2c-0.1,0-0.2-0.1-0.2-0.2c0-0.1,0.1-0.2,0.2-0.2
						C17.5,13.6,17.6,13.7,17.6,13.9z"/>
					<path class="st9" d="M18.8,13.9c0,0.1-0.1,0.2-0.2,0.2c-0.1,0-0.2-0.1-0.2-0.2c0-0.1,0.1-0.2,0.2-0.2
						C18.7,13.6,18.8,13.7,18.8,13.9z"/>
					<path class="st9" d="M20,13.9c0,0.1-0.1,0.2-0.2,0.2c-0.1,0-0.2-0.1-0.2-0.2c0-0.1,0.1-0.2,0.2-0.2C19.9,13.6,20,13.7,20,13.9z
						"/>
					<path class="st9" d="M21.3,13.9c0,0.1-0.1,0.2-0.2,0.2c-0.1,0-0.2-0.1-0.2-0.2c0-0.1,0.1-0.2,0.2-0.2S21.3,13.7,21.3,13.9z"/>
				</g>
				<g>
					<path class="st9" d="M4.6,14.9c0,0.1-0.1,0.2-0.2,0.2S4.1,15,4.1,14.9c0-0.1,0.1-0.2,0.2-0.2C4.5,14.7,4.6,14.8,4.6,14.9z"/>
					<path class="st9" d="M5.8,14.9c0,0.1-0.1,0.2-0.2,0.2S5.4,15,5.4,14.9c0-0.1,0.1-0.2,0.2-0.2C5.7,14.7,5.8,14.8,5.8,14.9z"/>
					<path class="st9" d="M7,14.9c0,0.1-0.1,0.2-0.2,0.2c-0.1,0-0.2-0.1-0.2-0.2c0-0.1,0.1-0.2,0.2-0.2C6.9,14.7,7,14.8,7,14.9z"/>
					<path class="st9" d="M8.3,14.9c0,0.1-0.1,0.2-0.2,0.2c-0.1,0-0.2-0.1-0.2-0.2c0-0.1,0.1-0.2,0.2-0.2
						C8.2,14.7,8.3,14.8,8.3,14.9z"/>
					<path class="st9" d="M9.5,14.9c0,0.1-0.1,0.2-0.2,0.2c-0.1,0-0.2-0.1-0.2-0.2c0-0.1,0.1-0.2,0.2-0.2
						C9.4,14.7,9.5,14.8,9.5,14.9z"/>
					<path class="st9" d="M10.8,14.9c0,0.1-0.1,0.2-0.2,0.2c-0.1,0-0.2-0.1-0.2-0.2c0-0.1,0.1-0.2,0.2-0.2
						C10.7,14.7,10.8,14.8,10.8,14.9z"/>
					<path class="st9" d="M12,14.9c0,0.1-0.1,0.2-0.2,0.2s-0.2-0.1-0.2-0.2c0-0.1,0.1-0.2,0.2-0.2C11.9,14.7,12,14.8,12,14.9z"/>
					<path class="st9" d="M13.2,14.9c0,0.1-0.1,0.2-0.2,0.2s-0.2-0.1-0.2-0.2c0-0.1,0.1-0.2,0.2-0.2C13.1,14.7,13.2,14.8,13.2,14.9z
						"/>
					<path class="st9" d="M14.5,14.9c0,0.1-0.1,0.2-0.2,0.2S14,15,14,14.9c0-0.1,0.1-0.2,0.2-0.2S14.5,14.8,14.5,14.9z"/>
					<path class="st9" d="M15.7,14.9c0,0.1-0.1,0.2-0.2,0.2c-0.1,0-0.2-0.1-0.2-0.2c0-0.1,0.1-0.2,0.2-0.2
						C15.6,14.7,15.7,14.8,15.7,14.9z"/>
					<path class="st9" d="M17,14.9c0,0.1-0.1,0.2-0.2,0.2c-0.1,0-0.2-0.1-0.2-0.2c0-0.1,0.1-0.2,0.2-0.2C16.9,14.7,17,14.8,17,14.9z
						"/>
					<path class="st9" d="M18.2,14.9c0,0.1-0.1,0.2-0.2,0.2c-0.1,0-0.2-0.1-0.2-0.2c0-0.1,0.1-0.2,0.2-0.2
						C18.1,14.7,18.2,14.8,18.2,14.9z"/>
					<path class="st9" d="M19.4,14.9c0,0.1-0.1,0.2-0.2,0.2c-0.1,0-0.2-0.1-0.2-0.2c0-0.1,0.1-0.2,0.2-0.2
						C19.3,14.7,19.4,14.8,19.4,14.9z"/>
					<path class="st9" d="M20.7,14.9c0,0.1-0.1,0.2-0.2,0.2c-0.1,0-0.2-0.1-0.2-0.2c0-0.1,0.1-0.2,0.2-0.2
						C20.6,14.7,20.7,14.8,20.7,14.9z"/>
					<path class="st9" d="M21.9,14.9c0,0.1-0.1,0.2-0.2,0.2c-0.1,0-0.2-0.1-0.2-0.2c0-0.1,0.1-0.2,0.2-0.2
						C21.8,14.7,21.9,14.8,21.9,14.9z"/>
				</g>
				<g>
					<path class="st9" d="M3.9,15.9c0,0.1-0.1,0.2-0.2,0.2S3.5,16,3.5,15.9c0-0.1,0.1-0.2,0.2-0.2C3.8,15.7,3.9,15.7,3.9,15.9z"/>
					<path class="st9" d="M5.2,15.9c0,0.1-0.1,0.2-0.2,0.2c-0.1,0-0.2-0.1-0.2-0.2c0-0.1,0.1-0.2,0.2-0.2
						C5.1,15.7,5.2,15.7,5.2,15.9z"/>
					<path class="st9" d="M6.4,15.9c0,0.1-0.1,0.2-0.2,0.2C6.1,16.1,6,16,6,15.9c0-0.1,0.1-0.2,0.2-0.2C6.3,15.7,6.4,15.7,6.4,15.9z
						"/>
					<circle class="st9" cx="7.4" cy="15.9" r="0.2"/>
					<path class="st9" d="M8.9,15.9c0,0.1-0.1,0.2-0.2,0.2c-0.1,0-0.2-0.1-0.2-0.2c0-0.1,0.1-0.2,0.2-0.2
						C8.8,15.7,8.9,15.7,8.9,15.9z"/>
					<path class="st9" d="M10.1,15.9c0,0.1-0.1,0.2-0.2,0.2c-0.1,0-0.2-0.1-0.2-0.2c0-0.1,0.1-0.2,0.2-0.2
						C10,15.7,10.1,15.7,10.1,15.9z"/>
					<path class="st9" d="M11.4,15.9c0,0.1-0.1,0.2-0.2,0.2c-0.1,0-0.2-0.1-0.2-0.2c0-0.1,0.1-0.2,0.2-0.2
						C11.3,15.7,11.4,15.7,11.4,15.9z"/>
					<path class="st9" d="M12.6,15.9c0,0.1-0.1,0.2-0.2,0.2c-0.1,0-0.2-0.1-0.2-0.2c0-0.1,0.1-0.2,0.2-0.2
						C12.5,15.7,12.6,15.7,12.6,15.9z"/>
					<path class="st9" d="M13.8,15.9c0,0.1-0.1,0.2-0.2,0.2c-0.1,0-0.2-0.1-0.2-0.2c0-0.1,0.1-0.2,0.2-0.2
						C13.7,15.7,13.8,15.7,13.8,15.9z"/>
					<path class="st9" d="M15.1,15.9c0,0.1-0.1,0.2-0.2,0.2c-0.1,0-0.2-0.1-0.2-0.2c0-0.1,0.1-0.2,0.2-0.2
						C15,15.7,15.1,15.7,15.1,15.9z"/>
					<path class="st9" d="M16.3,15.9c0,0.1-0.1,0.2-0.2,0.2c-0.1,0-0.2-0.1-0.2-0.2c0-0.1,0.1-0.2,0.2-0.2
						C16.2,15.7,16.3,15.7,16.3,15.9z"/>
					<path class="st9" d="M17.6,15.9c0,0.1-0.1,0.2-0.2,0.2c-0.1,0-0.2-0.1-0.2-0.2c0-0.1,0.1-0.2,0.2-0.2
						C17.5,15.7,17.6,15.7,17.6,15.9z"/>
					<circle class="st9" cx="18.6" cy="15.9" r="0.2"/>
					<path class="st9" d="M20,15.9c0,0.1-0.1,0.2-0.2,0.2c-0.1,0-0.2-0.1-0.2-0.2c0-0.1,0.1-0.2,0.2-0.2C19.9,15.7,20,15.7,20,15.9z
						"/>
					<path class="st9" d="M21.3,15.9c0,0.1-0.1,0.2-0.2,0.2c-0.1,0-0.2-0.1-0.2-0.2c0-0.1,0.1-0.2,0.2-0.2S21.3,15.7,21.3,15.9z"/>
				</g>
				<g>
					<path class="st9" d="M4.6,16.9c0,0.1-0.1,0.2-0.2,0.2S4.1,17,4.1,16.9c0-0.1,0.1-0.2,0.2-0.2C4.5,16.7,4.6,16.8,4.6,16.9z"/>
					<path class="st9" d="M5.8,16.9c0,0.1-0.1,0.2-0.2,0.2S5.4,17,5.4,16.9c0-0.1,0.1-0.2,0.2-0.2C5.7,16.7,5.8,16.8,5.8,16.9z"/>
					<path class="st9" d="M7,16.9c0,0.1-0.1,0.2-0.2,0.2c-0.1,0-0.2-0.1-0.2-0.2c0-0.1,0.1-0.2,0.2-0.2C6.9,16.7,7,16.8,7,16.9z"/>
					<path class="st9" d="M8.3,16.9c0,0.1-0.1,0.2-0.2,0.2c-0.1,0-0.2-0.1-0.2-0.2c0-0.1,0.1-0.2,0.2-0.2
						C8.2,16.7,8.3,16.8,8.3,16.9z"/>
					<path class="st9" d="M9.5,16.9c0,0.1-0.1,0.2-0.2,0.2c-0.1,0-0.2-0.1-0.2-0.2c0-0.1,0.1-0.2,0.2-0.2
						C9.4,16.7,9.5,16.8,9.5,16.9z"/>
					<path class="st9" d="M10.8,16.9c0,0.1-0.1,0.2-0.2,0.2c-0.1,0-0.2-0.1-0.2-0.2c0-0.1,0.1-0.2,0.2-0.2
						C10.7,16.7,10.8,16.8,10.8,16.9z"/>
					<path class="st9" d="M12,16.9c0,0.1-0.1,0.2-0.2,0.2s-0.2-0.1-0.2-0.2c0-0.1,0.1-0.2,0.2-0.2C11.9,16.7,12,16.8,12,16.9z"/>
					<path class="st9" d="M13.2,16.9c0,0.1-0.1,0.2-0.2,0.2s-0.2-0.1-0.2-0.2c0-0.1,0.1-0.2,0.2-0.2C13.1,16.7,13.2,16.8,13.2,16.9z
						"/>
					<path class="st9" d="M14.5,16.9c0,0.1-0.1,0.2-0.2,0.2S14,17,14,16.9c0-0.1,0.1-0.2,0.2-0.2S14.5,16.8,14.5,16.9z"/>
					<path class="st9" d="M15.7,16.9c0,0.1-0.1,0.2-0.2,0.2c-0.1,0-0.2-0.1-0.2-0.2c0-0.1,0.1-0.2,0.2-0.2
						C15.6,16.7,15.7,16.8,15.7,16.9z"/>
					<path class="st9" d="M17,16.9c0,0.1-0.1,0.2-0.2,0.2c-0.1,0-0.2-0.1-0.2-0.2c0-0.1,0.1-0.2,0.2-0.2S17,16.8,17,16.9z"/>
					<path class="st9" d="M18.2,16.9c0,0.1-0.1,0.2-0.2,0.2c-0.1,0-0.2-0.1-0.2-0.2c0-0.1,0.1-0.2,0.2-0.2S18.2,16.8,18.2,16.9z"/>
					<path class="st9" d="M19.4,16.9c0,0.1-0.1,0.2-0.2,0.2c-0.1,0-0.2-0.1-0.2-0.2c0-0.1,0.1-0.2,0.2-0.2S19.4,16.8,19.4,16.9z"/>
					<path class="st9" d="M20.7,16.9c0,0.1-0.1,0.2-0.2,0.2c-0.1,0-0.2-0.1-0.2-0.2c0-0.1,0.1-0.2,0.2-0.2
						C20.6,16.7,20.7,16.8,20.7,16.9z"/>
					<path class="st9" d="M21.9,16.9c0,0.1-0.1,0.2-0.2,0.2c-0.1,0-0.2-0.1-0.2-0.2c0-0.1,0.1-0.2,0.2-0.2S21.9,16.8,21.9,16.9z"/>
				</g>
				<g>
					<path class="st9" d="M3.9,17.9c0,0.1-0.1,0.2-0.2,0.2S3.5,18,3.5,17.9c0-0.1,0.1-0.2,0.2-0.2C3.8,17.7,3.9,17.8,3.9,17.9z"/>
					<path class="st9" d="M5.2,17.9c0,0.1-0.1,0.2-0.2,0.2c-0.1,0-0.2-0.1-0.2-0.2c0-0.1,0.1-0.2,0.2-0.2
						C5.1,17.7,5.2,17.8,5.2,17.9z"/>
					<path class="st9" d="M6.4,17.9c0,0.1-0.1,0.2-0.2,0.2C6.1,18.1,6,18,6,17.9c0-0.1,0.1-0.2,0.2-0.2C6.3,17.7,6.4,17.8,6.4,17.9z
						"/>
					<path class="st9" d="M7.6,17.9c0,0.1-0.1,0.2-0.2,0.2c-0.1,0-0.2-0.1-0.2-0.2c0-0.1,0.1-0.2,0.2-0.2
						C7.5,17.7,7.6,17.8,7.6,17.9z"/>
					<path class="st9" d="M8.9,17.9c0,0.1-0.1,0.2-0.2,0.2c-0.1,0-0.2-0.1-0.2-0.2c0-0.1,0.1-0.2,0.2-0.2
						C8.8,17.7,8.9,17.8,8.9,17.9z"/>
					<path class="st9" d="M10.1,17.9c0,0.1-0.1,0.2-0.2,0.2c-0.1,0-0.2-0.1-0.2-0.2c0-0.1,0.1-0.2,0.2-0.2
						C10,17.7,10.1,17.8,10.1,17.9z"/>
					<path class="st9" d="M11.4,17.9c0,0.1-0.1,0.2-0.2,0.2c-0.1,0-0.2-0.1-0.2-0.2c0-0.1,0.1-0.2,0.2-0.2
						C11.3,17.7,11.4,17.8,11.4,17.9z"/>
					<path class="st9" d="M12.6,17.9c0,0.1-0.1,0.2-0.2,0.2c-0.1,0-0.2-0.1-0.2-0.2c0-0.1,0.1-0.2,0.2-0.2
						C12.5,17.7,12.6,17.8,12.6,17.9z"/>
					<path class="st9" d="M13.8,17.9c0,0.1-0.1,0.2-0.2,0.2c-0.1,0-0.2-0.1-0.2-0.2c0-0.1,0.1-0.2,0.2-0.2
						C13.7,17.7,13.8,17.8,13.8,17.9z"/>
					<path class="st9" d="M15.1,17.9c0,0.1-0.1,0.2-0.2,0.2c-0.1,0-0.2-0.1-0.2-0.2c0-0.1,0.1-0.2,0.2-0.2
						C15,17.7,15.1,17.8,15.1,17.9z"/>
					<path class="st9" d="M16.3,17.9c0,0.1-0.1,0.2-0.2,0.2c-0.1,0-0.2-0.1-0.2-0.2c0-0.1,0.1-0.2,0.2-0.2
						C16.2,17.7,16.3,17.8,16.3,17.9z"/>
					<path class="st9" d="M17.6,17.9c0,0.1-0.1,0.2-0.2,0.2c-0.1,0-0.2-0.1-0.2-0.2c0-0.1,0.1-0.2,0.2-0.2
						C17.5,17.7,17.6,17.8,17.6,17.9z"/>
					<path class="st9" d="M18.8,17.9c0,0.1-0.1,0.2-0.2,0.2c-0.1,0-0.2-0.1-0.2-0.2c0-0.1,0.1-0.2,0.2-0.2
						C18.7,17.7,18.8,17.8,18.8,17.9z"/>
					<path class="st9" d="M20,17.9c0,0.1-0.1,0.2-0.2,0.2c-0.1,0-0.2-0.1-0.2-0.2c0-0.1,0.1-0.2,0.2-0.2C19.9,17.7,20,17.8,20,17.9z
						"/>
					<path class="st9" d="M21.3,17.9c0,0.1-0.1,0.2-0.2,0.2c-0.1,0-0.2-0.1-0.2-0.2c0-0.1,0.1-0.2,0.2-0.2S21.3,17.8,21.3,17.9z"/>
				</g>
				<g>
					<path class="st9" d="M4.6,18.9c0,0.1-0.1,0.2-0.2,0.2S4.1,19,4.1,18.9c0-0.1,0.1-0.2,0.2-0.2C4.5,18.7,4.6,18.8,4.6,18.9z"/>
					<path class="st9" d="M5.8,18.9c0,0.1-0.1,0.2-0.2,0.2S5.4,19,5.4,18.9c0-0.1,0.1-0.2,0.2-0.2C5.7,18.7,5.8,18.8,5.8,18.9z"/>
					<path class="st9" d="M7,18.9c0,0.1-0.1,0.2-0.2,0.2c-0.1,0-0.2-0.1-0.2-0.2c0-0.1,0.1-0.2,0.2-0.2C6.9,18.7,7,18.8,7,18.9z"/>
					<path class="st9" d="M8.3,18.9c0,0.1-0.1,0.2-0.2,0.2c-0.1,0-0.2-0.1-0.2-0.2c0-0.1,0.1-0.2,0.2-0.2
						C8.2,18.7,8.3,18.8,8.3,18.9z"/>
					<path class="st9" d="M9.5,18.9c0,0.1-0.1,0.2-0.2,0.2c-0.1,0-0.2-0.1-0.2-0.2c0-0.1,0.1-0.2,0.2-0.2
						C9.4,18.7,9.5,18.8,9.5,18.9z"/>
					<circle class="st9" cx="10.5" cy="18.9" r="0.2"/>
					<path class="st9" d="M12,18.9c0,0.1-0.1,0.2-0.2,0.2s-0.2-0.1-0.2-0.2c0-0.1,0.1-0.2,0.2-0.2C11.9,18.7,12,18.8,12,18.9z"/>
					<path class="st9" d="M13.2,18.9c0,0.1-0.1,0.2-0.2,0.2s-0.2-0.1-0.2-0.2c0-0.1,0.1-0.2,0.2-0.2C13.1,18.7,13.2,18.8,13.2,18.9z
						"/>
					<path class="st9" d="M14.5,18.9c0,0.1-0.1,0.2-0.2,0.2S14,19,14,18.9c0-0.1,0.1-0.2,0.2-0.2S14.5,18.8,14.5,18.9z"/>
					<path class="st9" d="M15.7,18.9c0,0.1-0.1,0.2-0.2,0.2c-0.1,0-0.2-0.1-0.2-0.2c0-0.1,0.1-0.2,0.2-0.2
						C15.6,18.7,15.7,18.8,15.7,18.9z"/>
					<path class="st9" d="M17,18.9c0,0.1-0.1,0.2-0.2,0.2c-0.1,0-0.2-0.1-0.2-0.2c0-0.1,0.1-0.2,0.2-0.2C16.9,18.7,17,18.8,17,18.9z
						"/>
					<path class="st9" d="M18.2,18.9c0,0.1-0.1,0.2-0.2,0.2c-0.1,0-0.2-0.1-0.2-0.2c0-0.1,0.1-0.2,0.2-0.2
						C18.1,18.7,18.2,18.8,18.2,18.9z"/>
					<path class="st9" d="M19.4,18.9c0,0.1-0.1,0.2-0.2,0.2c-0.1,0-0.2-0.1-0.2-0.2c0-0.1,0.1-0.2,0.2-0.2
						C19.3,18.7,19.4,18.8,19.4,18.9z"/>
					<path class="st9" d="M20.7,18.9c0,0.1-0.1,0.2-0.2,0.2c-0.1,0-0.2-0.1-0.2-0.2c0-0.1,0.1-0.2,0.2-0.2
						C20.6,18.7,20.7,18.8,20.7,18.9z"/>
					<circle class="st9" cx="21.7" cy="18.9" r="0.2"/>
				</g>
				<g>
					<path class="st9" d="M3.9,19.9c0,0.1-0.1,0.2-0.2,0.2S3.5,20,3.5,19.9c0-0.1,0.1-0.2,0.2-0.2C3.8,19.7,3.9,19.8,3.9,19.9z"/>
					<path class="st9" d="M5.2,19.9c0,0.1-0.1,0.2-0.2,0.2c-0.1,0-0.2-0.1-0.2-0.2c0-0.1,0.1-0.2,0.2-0.2
						C5.1,19.7,5.2,19.8,5.2,19.9z"/>
					<path class="st9" d="M6.4,19.9c0,0.1-0.1,0.2-0.2,0.2C6.1,20.1,6,20,6,19.9c0-0.1,0.1-0.2,0.2-0.2C6.3,19.7,6.4,19.8,6.4,19.9z
						"/>
					<path class="st9" d="M7.6,19.9c0,0.1-0.1,0.2-0.2,0.2c-0.1,0-0.2-0.1-0.2-0.2c0-0.1,0.1-0.2,0.2-0.2
						C7.5,19.7,7.6,19.8,7.6,19.9z"/>
					<path class="st9" d="M8.9,19.9c0,0.1-0.1,0.2-0.2,0.2c-0.1,0-0.2-0.1-0.2-0.2c0-0.1,0.1-0.2,0.2-0.2
						C8.8,19.7,8.9,19.8,8.9,19.9z"/>
					<path class="st9" d="M10.1,19.9c0,0.1-0.1,0.2-0.2,0.2c-0.1,0-0.2-0.1-0.2-0.2c0-0.1,0.1-0.2,0.2-0.2
						C10,19.7,10.1,19.8,10.1,19.9z"/>
					<path class="st9" d="M11.4,19.9c0,0.1-0.1,0.2-0.2,0.2c-0.1,0-0.2-0.1-0.2-0.2c0-0.1,0.1-0.2,0.2-0.2
						C11.3,19.7,11.4,19.8,11.4,19.9z"/>
					<path class="st9" d="M12.6,19.9c0,0.1-0.1,0.2-0.2,0.2c-0.1,0-0.2-0.1-0.2-0.2c0-0.1,0.1-0.2,0.2-0.2
						C12.5,19.7,12.6,19.8,12.6,19.9z"/>
					<path class="st9" d="M13.8,19.9c0,0.1-0.1,0.2-0.2,0.2c-0.1,0-0.2-0.1-0.2-0.2c0-0.1,0.1-0.2,0.2-0.2
						C13.7,19.7,13.8,19.8,13.8,19.9z"/>
					<path class="st9" d="M15.1,19.9c0,0.1-0.1,0.2-0.2,0.2c-0.1,0-0.2-0.1-0.2-0.2c0-0.1,0.1-0.2,0.2-0.2
						C15,19.7,15.1,19.8,15.1,19.9z"/>
					<path class="st9" d="M16.3,19.9c0,0.1-0.1,0.2-0.2,0.2c-0.1,0-0.2-0.1-0.2-0.2c0-0.1,0.1-0.2,0.2-0.2
						C16.2,19.7,16.3,19.8,16.3,19.9z"/>
					<path class="st9" d="M17.6,19.9c0,0.1-0.1,0.2-0.2,0.2c-0.1,0-0.2-0.1-0.2-0.2c0-0.1,0.1-0.2,0.2-0.2
						C17.5,19.7,17.6,19.8,17.6,19.9z"/>
					<path class="st9" d="M18.8,19.9c0,0.1-0.1,0.2-0.2,0.2c-0.1,0-0.2-0.1-0.2-0.2c0-0.1,0.1-0.2,0.2-0.2
						C18.7,19.7,18.8,19.8,18.8,19.9z"/>
					<path class="st9" d="M20,19.9c0,0.1-0.1,0.2-0.2,0.2c-0.1,0-0.2-0.1-0.2-0.2c0-0.1,0.1-0.2,0.2-0.2C19.9,19.7,20,19.8,20,19.9z
						"/>
					<path class="st9" d="M21.3,19.9c0,0.1-0.1,0.2-0.2,0.2c-0.1,0-0.2-0.1-0.2-0.2c0-0.1,0.1-0.2,0.2-0.2S21.3,19.8,21.3,19.9z"/>
				</g>
				<g>
					<path class="st9" d="M4.6,20.9c0,0.1-0.1,0.2-0.2,0.2s-0.2-0.1-0.2-0.2c0-0.1,0.1-0.2,0.2-0.2C4.5,20.7,4.6,20.8,4.6,20.9z"/>
					<path class="st9" d="M5.8,20.9c0,0.1-0.1,0.2-0.2,0.2s-0.2-0.1-0.2-0.2c0-0.1,0.1-0.2,0.2-0.2C5.7,20.7,5.8,20.8,5.8,20.9z"/>
					<path class="st9" d="M7,20.9c0,0.1-0.1,0.2-0.2,0.2c-0.1,0-0.2-0.1-0.2-0.2c0-0.1,0.1-0.2,0.2-0.2C6.9,20.7,7,20.8,7,20.9z"/>
					<path class="st9" d="M8.3,20.9c0,0.1-0.1,0.2-0.2,0.2c-0.1,0-0.2-0.1-0.2-0.2c0-0.1,0.1-0.2,0.2-0.2
						C8.2,20.7,8.3,20.8,8.3,20.9z"/>
					<path class="st9" d="M9.5,20.9c0,0.1-0.1,0.2-0.2,0.2c-0.1,0-0.2-0.1-0.2-0.2c0-0.1,0.1-0.2,0.2-0.2
						C9.4,20.7,9.5,20.8,9.5,20.9z"/>
					<circle class="st9" cx="10.5" cy="20.9" r="0.2"/>
					<path class="st9" d="M12,20.9c0,0.1-0.1,0.2-0.2,0.2s-0.2-0.1-0.2-0.2c0-0.1,0.1-0.2,0.2-0.2C11.9,20.7,12,20.8,12,20.9z"/>
					<path class="st9" d="M13.2,20.9c0,0.1-0.1,0.2-0.2,0.2s-0.2-0.1-0.2-0.2c0-0.1,0.1-0.2,0.2-0.2C13.1,20.7,13.2,20.8,13.2,20.9z
						"/>
					<path class="st9" d="M14.5,20.9c0,0.1-0.1,0.2-0.2,0.2S14,21.1,14,20.9c0-0.1,0.1-0.2,0.2-0.2S14.5,20.8,14.5,20.9z"/>
					<path class="st9" d="M15.7,20.9c0,0.1-0.1,0.2-0.2,0.2c-0.1,0-0.2-0.1-0.2-0.2c0-0.1,0.1-0.2,0.2-0.2
						C15.6,20.7,15.7,20.8,15.7,20.9z"/>
					<path class="st9" d="M17,20.9c0,0.1-0.1,0.2-0.2,0.2c-0.1,0-0.2-0.1-0.2-0.2c0-0.1,0.1-0.2,0.2-0.2S17,20.8,17,20.9z"/>
					<path class="st9" d="M18.2,20.9c0,0.1-0.1,0.2-0.2,0.2c-0.1,0-0.2-0.1-0.2-0.2c0-0.1,0.1-0.2,0.2-0.2S18.2,20.8,18.2,20.9z"/>
					<path class="st9" d="M19.4,20.9c0,0.1-0.1,0.2-0.2,0.2c-0.1,0-0.2-0.1-0.2-0.2c0-0.1,0.1-0.2,0.2-0.2S19.4,20.8,19.4,20.9z"/>
					<path class="st9" d="M20.7,20.9c0,0.1-0.1,0.2-0.2,0.2c-0.1,0-0.2-0.1-0.2-0.2c0-0.1,0.1-0.2,0.2-0.2
						C20.6,20.7,20.7,20.8,20.7,20.9z"/>
					<circle class="st9" cx="21.7" cy="20.9" r="0.2"/>
				</g>
				<g>
					<path class="st9" d="M3.9,21.9c0,0.1-0.1,0.2-0.2,0.2S3.5,22,3.5,21.9s0.1-0.2,0.2-0.2C3.8,21.7,3.9,21.8,3.9,21.9z"/>
					<path class="st9" d="M5.2,21.9c0,0.1-0.1,0.2-0.2,0.2c-0.1,0-0.2-0.1-0.2-0.2s0.1-0.2,0.2-0.2C5.1,21.7,5.2,21.8,5.2,21.9z"/>
					<path class="st9" d="M6.4,21.9c0,0.1-0.1,0.2-0.2,0.2C6.1,22.1,6,22,6,21.9s0.1-0.2,0.2-0.2C6.3,21.7,6.4,21.8,6.4,21.9z"/>
					<path class="st9" d="M7.6,21.9c0,0.1-0.1,0.2-0.2,0.2c-0.1,0-0.2-0.1-0.2-0.2s0.1-0.2,0.2-0.2C7.5,21.7,7.6,21.8,7.6,21.9z"/>
					<path class="st9" d="M8.9,21.9c0,0.1-0.1,0.2-0.2,0.2c-0.1,0-0.2-0.1-0.2-0.2s0.1-0.2,0.2-0.2C8.8,21.7,8.9,21.8,8.9,21.9z"/>
					<path class="st9" d="M10.1,21.9c0,0.1-0.1,0.2-0.2,0.2c-0.1,0-0.2-0.1-0.2-0.2s0.1-0.2,0.2-0.2C10,21.7,10.1,21.8,10.1,21.9z"
						/>
					<path class="st9" d="M11.4,21.9c0,0.1-0.1,0.2-0.2,0.2c-0.1,0-0.2-0.1-0.2-0.2s0.1-0.2,0.2-0.2C11.3,21.7,11.4,21.8,11.4,21.9z
						"/>
					<path class="st9" d="M12.6,21.9c0,0.1-0.1,0.2-0.2,0.2c-0.1,0-0.2-0.1-0.2-0.2s0.1-0.2,0.2-0.2C12.5,21.7,12.6,21.8,12.6,21.9z
						"/>
					<path class="st9" d="M13.8,21.9c0,0.1-0.1,0.2-0.2,0.2c-0.1,0-0.2-0.1-0.2-0.2s0.1-0.2,0.2-0.2C13.7,21.7,13.8,21.8,13.8,21.9z
						"/>
					<path class="st9" d="M15.1,21.9c0,0.1-0.1,0.2-0.2,0.2c-0.1,0-0.2-0.1-0.2-0.2s0.1-0.2,0.2-0.2C15,21.7,15.1,21.8,15.1,21.9z"
						/>
					<path class="st9" d="M16.3,21.9c0,0.1-0.1,0.2-0.2,0.2c-0.1,0-0.2-0.1-0.2-0.2s0.1-0.2,0.2-0.2C16.2,21.7,16.3,21.8,16.3,21.9z
						"/>
					<path class="st9" d="M17.6,21.9c0,0.1-0.1,0.2-0.2,0.2c-0.1,0-0.2-0.1-0.2-0.2s0.1-0.2,0.2-0.2C17.5,21.7,17.6,21.8,17.6,21.9z
						"/>
					<path class="st9" d="M18.8,21.9c0,0.1-0.1,0.2-0.2,0.2c-0.1,0-0.2-0.1-0.2-0.2s0.1-0.2,0.2-0.2C18.7,21.7,18.8,21.8,18.8,21.9z
						"/>
					<path class="st9" d="M20,21.9c0,0.1-0.1,0.2-0.2,0.2c-0.1,0-0.2-0.1-0.2-0.2s0.1-0.2,0.2-0.2C19.9,21.7,20,21.8,20,21.9z"/>
					<path class="st9" d="M21.3,21.9c0,0.1-0.1,0.2-0.2,0.2c-0.1,0-0.2-0.1-0.2-0.2s0.1-0.2,0.2-0.2C21.2,21.7,21.3,21.8,21.3,21.9z
						"/>
				</g>
			</g>
		</g>
	</g>
	<g>
		<g>
			<g>
				<path class="st9" d="M9,16.4c1.3-0.2,1.7-2.4,1.7-3.3c-1.3,0.8-2,1.3-3.6,1.7C7.3,15.3,7.8,16.5,9,16.4z"/>
				<path class="st10" d="M8.8,16.4c-1.1,0-1.6-1.2-1.7-1.7c0,0,0,0,0,0c0,0,0,0,0,0c1.4-0.3,2.1-0.8,3.1-1.4
					c0.2-0.1,0.3-0.2,0.5-0.3c0,0,0,0,0,0c0,0,0,0,0,0c0,1-0.4,3.2-1.7,3.4l0,0C8.9,16.4,8.9,16.4,8.8,16.4z M9,16.4L9,16.4L9,16.4z
					 M7.1,14.8c0.2,0.6,0.8,1.7,1.9,1.6l0,0c1.3-0.2,1.7-2.3,1.6-3.2c-0.2,0.1-0.3,0.2-0.5,0.3C9.2,14,8.5,14.5,7.1,14.8z"/>
			</g>
			<g>
				<path class="st14" d="M11.2,12.8c-0.2,0.1-0.4,0.2-0.5,0.3c0,0.9-0.3,3.1-1.7,3.3c-1.2,0.2-1.7-1.1-1.9-1.6
					c-0.1,0-0.2,0-0.3,0.1c0,0,0.5,3.1,2.3,3C11,17.7,11.9,14.2,11.2,12.8z"/>
				<path class="st15" d="M9.1,17.8c-1.8,0-2.3-3-2.3-3c0,0,0,0,0,0c0.1,0,0.2,0,0.3-0.1c0,0,0,0,0,0c0.2,0.5,0.7,1.8,1.9,1.6
					c1.3-0.2,1.7-2.3,1.6-3.3c0,0,0,0,0,0c0.2-0.1,0.4-0.2,0.5-0.3c0,0,0,0,0,0c0,0,0,0,0,0c0.5,1,0.3,2.8-0.5,4
					C10.3,17.4,9.8,17.8,9.1,17.8C9.1,17.8,9.1,17.8,9.1,17.8z M6.8,14.8c0.1,0.3,0.6,2.9,2.2,2.9c0,0,0,0,0.1,0
					c0.7,0,1.2-0.6,1.5-1.1c0.7-1.2,0.9-2.9,0.5-3.9c-0.2,0.1-0.3,0.2-0.5,0.3c0,1-0.4,3.2-1.7,3.3c-0.1,0-0.1,0-0.2,0
					c-1,0-1.6-1.1-1.7-1.6C7,14.8,6.9,14.8,6.8,14.8z"/>
			</g>
			<g>
				<path class="st14" d="M11.2,12.8c-0.2,0.1-0.4,0.2-0.5,0.3c0,0.9-0.3,3.1-1.7,3.3c-1.2,0.2-1.7-1.1-1.9-1.6
					c-0.1,0-0.2,0-0.3,0.1c0,0,0,0.3,0.1,0.6c0-0.1,0.1-0.1,0.3,0.2c0.7,1.3,2.2,1.8,3.1,0c0.5-1.1,0.9-0.2,0.2,0.9
					c-0.6,1.1-2.1,1.7-3.1,0.1c0,0,0,0,0,0c0.4,0.6,0.9,1.2,1.7,1.1C11,17.7,11.9,14.2,11.2,12.8z"/>
			</g>
			<g>
				<path class="st9" d="M10.6,13.1c-1.3,0.8-2,1.3-3.6,1.7c0,0.1,0.1,0.3,0.2,0.4c0.5,0,1.3-0.1,2.1-0.6c1-0.7,1,1.2-0.3,1.4
					c-1.3,0.3-1.7-0.7-1.7-0.7l0,0c0.3,0.6,0.8,1.1,1.7,1C10.3,16.2,10.7,14,10.6,13.1z"/>
			</g>
		</g>
		<g>
			<path class="st8" d="M8.6,17.4c-0.2-0.1-0.3-0.2-0.5-0.3c-0.2-0.1-0.3-0.3-0.4-0.4c-0.2-0.3-0.4-0.6-0.6-1c0,0,0,0,0,0
				c0.1,0.4,0.3,0.8,0.5,1.1C7.8,16.9,7.9,17,8,17.1C8.2,17.2,8.4,17.4,8.6,17.4C8.6,17.4,8.6,17.4,8.6,17.4z"/>
			<path class="st8" d="M8.9,17.5C8.8,17.4,8.8,17.4,8.9,17.5c-0.1,0-0.2,0-0.2,0c0,0,0,0,0,0c0,0,0,0,0,0c0,0,0,0,0,0l0.1,0
				C8.8,17.5,8.8,17.5,8.9,17.5C8.9,17.5,8.9,17.5,8.9,17.5z"/>
		</g>
	</g>
	<g>
		<g>
			<g>
				<path class="st0" d="M4.6,2.6c0,0,2.5-1.2,5.4-0.3c2.7,0.9,4.5,4.3,3.5,7.4c0.2,1-0.5,2.1-1.2,2.1c0,0-1.9,3-5.4,3.2
					C2.9,15.1,0.4,12,1.4,9.5c0.3-0.6,0.3-0.9,0.1-1.8C1.3,6.5,1.3,4.2,4.6,2.6z"/>
				<path class="st1" d="M6.5,15c-1.9,0-3.7-0.8-4.7-2.2c-0.7-1.1-0.9-2.3-0.5-3.4c0.3-0.6,0.3-0.9,0.1-1.8C1.3,7.1,1.3,6.3,1.7,5.3
					c0.5-1.1,1.4-2,2.9-2.8c0,0,0,0,0,0c0,0,2.6-1.2,5.4-0.3c1.3,0.4,2.4,1.5,3.1,2.8c0.7,1.5,0.9,3.1,0.4,4.6
					c0.1,0.5-0.1,1.2-0.4,1.6c-0.2,0.3-0.5,0.5-0.8,0.5c-0.1,0.2-2,3-5.4,3.2C6.7,15,6.6,15,6.5,15z M4.6,2.6
					C3.2,3.3,2.2,4.2,1.7,5.3C1.4,6.3,1.4,7.1,1.5,7.7c0.2,0.9,0.2,1.2-0.1,1.8c-0.4,1.1-0.2,2.3,0.5,3.3c1,1.4,2.8,2.2,4.9,2.2
					c3.5-0.1,5.4-3.1,5.4-3.1c0,0,0,0,0,0c0.3,0,0.5-0.2,0.8-0.5c0.4-0.5,0.5-1.1,0.4-1.6c0,0,0,0,0,0c0.5-1.5,0.4-3.1-0.4-4.6
					c-0.7-1.4-1.8-2.4-3.1-2.8C7.2,1.4,4.6,2.6,4.6,2.6z"/>
			</g>
			<g>
				<path class="st8" d="M3,13.5c-0.1-0.1-0.2-0.2-0.3-0.2c-0.1-0.1-0.2-0.2-0.3-0.2c-0.2-0.2-0.4-0.4-0.5-0.6
					c-0.3-0.4-0.5-0.9-0.6-1.3c0,0,0,0,0,0c0.1,0.5,0.3,1,0.6,1.4C2,12.8,2.2,13,2.3,13.2c0.1,0.1,0.2,0.2,0.3,0.2
					C2.7,13.5,2.8,13.6,3,13.5C3,13.6,3,13.6,3,13.5z"/>
				<path class="st8" d="M3.2,13.8C3.2,13.8,3.2,13.8,3.2,13.8C3.2,13.7,3.2,13.7,3.2,13.8C3.2,13.7,3.2,13.7,3.2,13.8
					C3.2,13.7,3.2,13.7,3.2,13.8C3.2,13.7,3.2,13.7,3.2,13.8C3.2,13.7,3.2,13.7,3.2,13.8C3.2,13.7,3.2,13.7,3.2,13.8
					C3.2,13.7,3.1,13.7,3.2,13.8C3.1,13.7,3.1,13.7,3.2,13.8c-0.1-0.1-0.1-0.1-0.1-0.1c0,0,0,0,0,0c0,0,0,0,0,0c0,0,0,0,0,0
					c0,0,0,0,0,0c0,0,0,0,0,0c0,0,0,0,0,0C3.1,13.8,3.1,13.8,3.2,13.8C3.1,13.8,3.1,13.8,3.2,13.8C3.2,13.8,3.2,13.8,3.2,13.8
					C3.2,13.8,3.2,13.8,3.2,13.8C3.2,13.8,3.2,13.8,3.2,13.8C3.2,13.8,3.2,13.8,3.2,13.8L3.2,13.8C3.2,13.8,3.2,13.8,3.2,13.8
					C3.2,13.8,3.2,13.8,3.2,13.8C3.2,13.8,3.2,13.8,3.2,13.8C3.2,13.8,3.2,13.8,3.2,13.8z"/>
			</g>
			<g class="st3">
				<path class="st0" d="M12.5,11.6c-0.3,0-0.6-0.2-0.6-0.5c0-0.1,0.1-0.3,0.2-0.4c0.1-0.1,0.2-0.1,0.2-0.1c0.1,0,0.2-0.1,0.3-0.1
					c0.1,0,0.2-0.1,0.2-0.1c0-0.1-0.1-0.2-0.2-0.2c-0.1,0-0.3,0-0.4-0.1c-0.1-0.1-0.2-0.3-0.1-0.4c0-0.1,0.2-0.2,0.3-0.3
					c0.1-0.1,0.3-0.1,0.4,0c0.1,0,0.3,0.1,0.4,0.2c0,0,0.1,0.1,0.1,0.1c1-3-0.8-6.4-3.5-7.3C7.1,1.3,4.6,2.6,4.6,2.6
					c-2.3,1.2-3,2.7-3.1,3.9C1.5,6.4,1.6,6.1,2,5.9c0.6-0.3,0.9-0.5,1.5-1.5s1.1-1.5,2.7-1.8c1.8-0.3,3.9,0.7,5.1,3.6
					c1.2,2.9,0.2,7.6-4.2,8.4c-1.8,0.4-3.8-0.4-4.9-1.6c1,1.2,2.6,2,4.7,1.9c3.6-0.1,5.4-3.2,5.4-3.2c0.2,0,0.4-0.1,0.5-0.3
					C12.7,11.5,12.6,11.6,12.5,11.6z"/>
			</g>
			<path class="st1" d="M12.9,8.8c-0.4-0.2-0.8-0.2-1.2,0.1c-0.2,0.1-0.3,0.3-0.4,0.5c0,0,0,0,0,0c0.2-0.5,0.8-0.7,1.3-0.6
				C12.8,8.8,13,9,13.1,9.2c0.1,0.1,0.1,0.2,0.2,0.3c0,0.1,0,0.2,0.1,0.4c0,0.1,0.1,0,0.1,0C13.5,9.4,13.2,9,12.9,8.8z"/>
			<path class="st1" d="M12.2,11.8c-0.1,0-0.2,0-0.3,0c-0.1,0-0.2-0.1-0.3-0.1c-0.2-0.1-0.3-0.2-0.5-0.4c0,0,0,0,0,0
				c0.1,0.2,0.3,0.3,0.5,0.4C11.8,11.8,12,11.9,12.2,11.8C12.2,11.9,12.3,11.8,12.2,11.8z"/>
			<path class="st16" d="M12,10.2c-0.1,0.3-0.1,0.7,0.1,1c0,0,0,0,0,0C12,10.9,12,10.8,12,10.6c0,0.1,0.1,0.2,0.2,0.2
				c0.1,0.1,0.4,0.1,0.5,0c0,0,0-0.1,0-0.1c-0.1,0-0.2,0-0.3,0c-0.1,0-0.2-0.1-0.3-0.2C12,10.4,12,10.3,12,10.2
				c0.1-0.1,0.2-0.3,0.3-0.4c0.1-0.1,0.3-0.1,0.4,0c0,0,0-0.1,0-0.1C12.3,9.5,12.1,9.8,12,10.2z"/>
			<g>
				<g>
					<path class="st2" d="M1.3,9.7c0,0,0.6-0.2,1.3,0.3C2.6,9.9,2.6,9.9,2.6,9.9S3.3,9.6,3,8.6C2.9,8.3,2.6,7.8,2.3,7.7
						C1.9,7.7,1.7,8,1.6,8.3c0,0.2,0,0.5,0,0.6c0,0,0.1,0.5,0.1,0.5C1.7,9.4,1.4,9.5,1.3,9.7z"/>
					<path class="st1" d="M1.4,9.6C1.4,9.6,1.4,9.6,1.4,9.6c0.1,0,0.1,0,0.2,0c0,0,0.1,0,0.1,0c0,0,0.1,0,0.1,0c0,0,0.1,0,0.1,0
						c0,0,0.1,0,0.1,0c0,0,0.1,0,0.1,0c0,0,0.1,0,0.1,0c0,0,0.1,0,0.1,0c0,0,0.1,0,0.1,0.1c0.1,0.1,0.2,0.1,0.2,0.1s-0.1,0-0.2-0.1
						c0,0-0.1,0-0.1,0c0,0-0.1,0-0.1,0c0,0-0.1,0-0.1,0c0,0-0.1,0-0.1,0c0,0-0.1,0-0.1,0c0,0-0.1,0-0.1,0c0,0-0.1,0-0.1,0
						c0,0-0.1,0-0.1,0C1.5,9.6,1.5,9.6,1.4,9.6C1.4,9.6,1.4,9.6,1.4,9.6z"/>
					<g>
						<g>
							<path class="st17" d="M2.9,8.5C3,8.8,3,9.1,2.9,9.4C2.8,9.6,2.5,9.8,2.3,9.7C2,9.7,1.8,9.5,1.7,9.2C1.6,8.8,1.6,8.2,2,7.9
								C2.3,7.7,2.7,8,2.8,8.3C2.9,8.4,2.9,8.4,2.9,8.5z"/>
							<path class="st18" d="M2.9,8.5C2.9,8.5,2.9,8.5,2.9,8.5c0,0.1,0,0.1,0,0.2C3,8.8,3,8.9,3,9c0,0.1,0,0.2-0.1,0.3
								c0,0,0,0.1,0,0.1c0,0,0,0.1,0,0.1c0,0,0,0.1-0.1,0.1c0,0,0,0-0.1,0.1C2.6,9.7,2.4,9.8,2.3,9.8c0,0-0.1,0-0.1,0
								c0,0-0.1,0-0.1,0C2,9.7,1.9,9.6,1.9,9.5C1.8,9.4,1.7,9.3,1.6,9.1c0-0.2-0.1-0.3,0-0.5c0-0.2,0.1-0.3,0.1-0.5
								C1.8,8,1.9,7.9,2,7.9c0.1-0.1,0.3,0,0.4,0C2.5,7.9,2.6,8,2.7,8.1c0.1,0.1,0.1,0.1,0.1,0.2C2.9,8.4,2.9,8.5,2.9,8.5z M2.9,8.5
								c0,0,0-0.1-0.1-0.2c0-0.1-0.1-0.1-0.1-0.2C2.6,8,2.5,7.9,2.4,7.9c-0.1,0-0.2-0.1-0.4,0C1.9,7.9,1.8,8.1,1.8,8.2
								C1.6,8.5,1.6,8.8,1.7,9.1c0,0.2,0.1,0.3,0.2,0.4C2,9.6,2.1,9.7,2.3,9.7c0.1,0,0.3,0,0.4-0.1c0,0,0.1,0,0.1-0.1
								c0,0,0,0,0.1-0.1c0,0,0-0.1,0-0.1c0,0,0-0.1,0-0.1C2.9,9.2,3,9.1,3,9c0-0.1,0-0.2,0-0.3C2.9,8.7,2.9,8.6,2.9,8.5
								C2.9,8.5,2.9,8.5,2.9,8.5z"/>
						</g>
						<g class="st19">
							<path class="st20" d="M2,7.9C2,7.9,2,7.9,2,7.9C1.7,8.1,1.6,8.7,1.8,9.1C1.8,9.3,2,9.5,2.3,9.6c0.2,0,0.5-0.1,0.6-0.3
								c0.1-0.2,0.1-0.5,0-0.8c0-0.1,0-0.1-0.1-0.2c0,0,0,0,0-0.1c0,0,0,0.1,0.1,0.1c0,0.1,0.1,0.1,0.1,0.2C3,8.8,3,9.1,2.9,9.4
								C2.8,9.6,2.5,9.8,2.3,9.7C2,9.7,1.8,9.5,1.7,9.2C1.6,8.8,1.6,8.2,2,7.9z"/>
						</g>
						<g>
							<path class="st21" d="M1.8,8.8c0,0.4,0.2,0.7,0.5,0.8c0.3,0,0.5-0.3,0.5-0.7c0-0.4-0.3-0.8-0.6-0.8C2,8.1,1.8,8.4,1.8,8.8z"
								/>
							<g>
								<path class="st22" d="M2.3,9.6c0.3,0,0.5-0.3,0.5-0.7c0-0.4-0.3-0.8-0.6-0.8C2,8.1,1.8,8.4,1.8,8.8C1.8,9.3,2,9.6,2.3,9.6z
									 M1.8,8.8c0-0.4,0.2-0.7,0.4-0.7c0.2,0,0.5,0.4,0.5,0.7c0,0.4-0.2,0.7-0.5,0.6C2,9.5,1.8,9.2,1.8,8.8z"/>
							</g>
							<g class="st3">
								<path class="st23" d="M2.3,9.6c0.3,0,0.5-0.3,0.5-0.7c0-0.4-0.3-0.8-0.6-0.8C2,8.1,1.8,8.4,1.8,8.8C1.8,9.3,2,9.6,2.3,9.6z
									 M2,8.5C2,8.4,2.1,8.5,2,8.5C2,8.7,1.9,9,2,9.2c0.1,0.1,0.2,0.1,0.2,0.2c0,0-0.2,0-0.3-0.2C1.8,9,1.9,8.6,2,8.5z"/>
							</g>
							<g class="st3">
								<path class="st23" d="M2,8.9c0-0.3,0.1-0.5,0.3-0.5c0,0,0,0,0,0c0,0,0.1-0.1,0.1-0.1c0.1,0,0.2,0.1,0.2,0.2
									c0,0.1,0,0.1,0,0.2c0,0.1,0,0.1,0,0.2c0,0.3-0.2,0.5-0.4,0.5C2.1,9.4,2,9.2,2,8.9z"/>
							</g>
							<path class="st24" d="M2.1,8.9c0,0.2,0.1,0.4,0.3,0.4c0.2,0,0.3-0.1,0.3-0.3c0-0.2-0.1-0.4-0.3-0.4C2.2,8.5,2.1,8.7,2.1,8.9z
								"/>
							<g class="st3">
								<path class="st23" d="M2.2,8.6C2.3,8.8,2.5,9,2.6,8.9c0.1-0.1,0.1-0.3,0-0.4C2.6,8.3,2.4,8.1,2.3,8.2
									C2.2,8.3,2.1,8.4,2.2,8.6z"/>
							</g>
							<path class="st8" d="M2.3,8.6c0.1,0.1,0.2,0.2,0.3,0.2c0.1,0,0.1-0.2,0-0.3C2.6,8.3,2.4,8.2,2.4,8.3C2.3,8.3,2.2,8.5,2.3,8.6
								z"/>
							<g>
								<path class="st21" d="M1.9,8.7c0,0.2,0,0.5,0.2,0.6C2.3,9.4,2,9.4,1.9,9.1C1.8,8.8,1.9,8.5,1.9,8.7z"/>
							</g>
							<g>
								<path class="st21" d="M1.9,8.5C2,8.6,2,8.6,1.9,8.5C1.9,8.6,1.9,8.5,1.9,8.5z"/>
							</g>
						</g>
					</g>
				</g>
			</g>
			<g>
				<g>
					<g>
						<g>
							<path class="st2" d="M7.5,8.8c0,0-0.9,0.1-1.5,1c0-0.2,0-0.2,0-0.2s-1,0-1.1-1.3c0-0.4,0.1-1,0.5-1.2c0.4-0.2,0.9,0,1.2,0.4
								c0.1,0.2,0.2,0.4,0.3,0.7c0,0,0.1,0.5,0,0.5C6.9,8.6,7.3,8.6,7.5,8.8z"/>
							<path class="st1" d="M7.4,8.8C7.4,8.8,7.4,8.8,7.4,8.8c-0.1,0-0.2,0-0.2,0.1c0,0-0.1,0-0.1,0c0,0-0.1,0-0.1,0.1
								c0,0-0.1,0-0.1,0.1c0,0-0.1,0.1-0.1,0.1c0,0-0.1,0.1-0.1,0.1c0,0-0.1,0.1-0.1,0.1c0,0-0.1,0.1-0.1,0.1c0,0-0.1,0.1-0.1,0.1
								C6.2,9.5,6.1,9.6,6.1,9.6s0.1-0.1,0.1-0.2c0,0,0-0.1,0.1-0.1c0,0,0.1-0.1,0.1-0.1c0,0,0.1-0.1,0.1-0.1c0,0,0.1-0.1,0.1-0.1
								c0,0,0.1-0.1,0.1-0.1c0,0,0.1,0,0.1-0.1c0,0,0.1,0,0.1,0s0.1,0,0.1,0C7.2,8.8,7.3,8.8,7.4,8.8C7.4,8.8,7.4,8.8,7.4,8.8z"/>
							<g>
								<g>
									<path class="st17" d="M5.1,8.1c0,0.4,0.1,0.7,0.4,1c0.2,0.2,0.6,0.3,0.8,0.2c0.3-0.2,0.4-0.5,0.4-0.8
										c0-0.5-0.3-1.2-0.8-1.3C5.5,7,5.2,7.4,5.1,7.9C5.1,7.9,5.1,8,5.1,8.1z"/>
									<path class="st18" d="M5.1,8.1C5.1,8.1,5.1,8.1,5.1,8.1c0,0.1,0,0.2,0,0.3c0,0,0,0.1,0,0.1c0,0,0,0.1,0.1,0.2
										c0,0.1,0.1,0.2,0.2,0.3c0.1,0.1,0.2,0.2,0.4,0.2c0.2,0,0.3,0.1,0.5,0C6.5,9.2,6.6,9,6.7,8.9c0.1-0.2,0.1-0.4,0.1-0.5
										c0-0.2-0.1-0.4-0.1-0.5C6.5,7.6,6.4,7.4,6.3,7.3C6.2,7.2,6,7.1,5.9,7.1c-0.2,0-0.3,0.1-0.4,0.1C5.3,7.3,5.3,7.5,5.2,7.6
										c0,0.1-0.1,0.2-0.1,0.3C5.1,7.9,5.1,8,5.1,8.1C5.1,8.1,5.1,8.1,5.1,8.1z M5.1,8.1C5.1,8.1,5.1,8.1,5.1,8.1
										c0-0.1,0-0.2,0-0.3c0-0.1,0-0.2,0.1-0.3c0-0.1,0.1-0.2,0.2-0.3c0.1-0.1,0.3-0.2,0.4-0.2c0.2,0,0.3,0.1,0.5,0.2
										c0.1,0.1,0.3,0.3,0.3,0.5c0.1,0.2,0.1,0.4,0.1,0.6c0,0.2,0,0.4-0.1,0.6C6.7,9,6.6,9,6.5,9.1c0,0-0.1,0.1-0.1,0.1
										c0,0-0.1,0.1-0.1,0.1c-0.2,0.1-0.4,0.1-0.5,0c-0.1,0-0.2-0.1-0.2-0.1c0,0-0.1-0.1-0.1-0.1c0,0,0-0.1-0.1-0.1
										C5.3,8.9,5.3,8.8,5.2,8.7c0-0.1,0-0.1-0.1-0.2c0-0.1,0-0.1,0-0.1C5.1,8.3,5.1,8.2,5.1,8.1C5.1,8.1,5.1,8.1,5.1,8.1z"/>
								</g>
								<g class="st19">
									<path class="st20" d="M6,7.1C6,7.1,6,7.1,6,7.1c0.4,0.1,0.7,0.8,0.7,1.2c0,0.3-0.1,0.6-0.4,0.7C6,9.2,5.7,9.1,5.5,8.9
										C5.3,8.7,5.1,8.4,5.1,8c0-0.1,0-0.2,0-0.2c0,0,0-0.1,0-0.1c0,0.1,0,0.1,0,0.2c0,0.1,0,0.2,0,0.2c0,0.4,0.1,0.7,0.4,1
										c0.2,0.2,0.6,0.3,0.8,0.2c0.3-0.2,0.4-0.5,0.4-0.8C6.8,7.9,6.5,7.2,6,7.1z"/>
								</g>
								<g>
									<path class="st21" d="M5.4,8.3c0,0.5,0.2,0.9,0.6,0.9c0.3,0,0.6-0.3,0.6-0.8c0-0.5-0.3-0.9-0.7-0.9
										C5.6,7.4,5.3,7.8,5.4,8.3z"/>
									<g>
										<path class="st22" d="M5.9,9.1c0.3,0,0.6-0.3,0.6-0.8c0-0.5-0.3-0.9-0.7-0.9c-0.3,0-0.5,0.4-0.5,0.8
											C5.4,8.7,5.6,9.1,5.9,9.1z M5.4,8.2c0-0.4,0.2-0.8,0.5-0.8c0.3,0,0.6,0.4,0.6,0.9c0,0.4-0.2,0.8-0.6,0.7
											C5.6,9,5.4,8.7,5.4,8.2z"/>
									</g>
									<g class="st3">
										<path class="st23" d="M5.9,9.1c0.3,0,0.6-0.3,0.6-0.8c0-0.5-0.3-0.9-0.7-0.9c-0.3,0-0.5,0.4-0.5,0.8
											C5.4,8.7,5.6,9.1,5.9,9.1z M5.5,7.9C5.6,7.7,5.7,7.8,5.5,7.9c0,0.2-0.1,0.6,0.1,0.8c0.1,0.1,0.2,0.2,0.2,0.2
											c0,0-0.3,0.1-0.4-0.2C5.4,8.4,5.4,8,5.5,7.9z"/>
									</g>
									<g class="st3">
										<path class="st23" d="M5.6,8.3c0-0.3,0.2-0.6,0.4-0.5c0,0,0,0,0,0c0-0.1,0.1-0.1,0.1-0.1c0.1,0,0.2,0.1,0.2,0.3
											c0,0.1,0,0.1,0,0.2c0,0.1,0.1,0.2,0.1,0.3C6.4,8.7,6.2,9,6,8.9C5.7,8.9,5.6,8.7,5.6,8.3z"/>
									</g>
									<path class="st24" d="M5.7,8.3c0,0.2,0.1,0.4,0.3,0.5c0.2,0,0.3-0.2,0.3-0.4c0-0.2-0.2-0.4-0.3-0.5
										C5.8,7.9,5.7,8.1,5.7,8.3z"/>
									<g class="st3">
										<path class="st23" d="M5.8,8c0.1,0.2,0.3,0.4,0.5,0.3C6.5,8.3,6.5,8,6.4,7.8C6.3,7.6,6.1,7.4,5.9,7.5
											C5.8,7.6,5.7,7.8,5.8,8z"/>
									</g>
									<path class="st8" d="M6,8C6,8.2,6.2,8.3,6.3,8.2c0.1,0,0.1-0.2,0-0.4C6.3,7.7,6.1,7.5,6,7.6C5.9,7.6,5.9,7.8,6,8z"/>
									<g>
										<path class="st21" d="M5.5,8.1c0,0.2,0,0.6,0.3,0.7c0.2,0.1-0.2,0.1-0.3-0.3C5.4,8.2,5.5,7.9,5.5,8.1z"/>
									</g>
									<g>
										<path class="st21" d="M5.5,7.9c0,0,0,0.1,0,0.1C5.5,8,5.5,7.9,5.5,7.9z"/>
									</g>
								</g>
							</g>
						</g>
					</g>
				</g>
			</g>
			<g>
				<path class="st2" d="M3.3,10.2c-0.4-0.1-0.4-0.3-0.1-0.4c-0.2-0.1-0.4,0-0.5,0.3c0,0.1,0,0.2,0.1,0.3c0.2,0.2,0.5,0.3,0.7,0.2
					c0.1,0,0.4-0.1,0.3-0.4C3.7,10.1,3.8,10.3,3.3,10.2z"/>
				<path class="st2" d="M2.9,10C2.9,10,3,9.9,3,9.9c-0.2,0-0.2,0.3-0.1,0.4c0,0.1,0.1,0.2,0.3,0.3c0.1,0.1,0.3,0.1,0.4,0
					c0.1,0,0.2-0.1,0.1-0.2c0,0,0-0.1,0-0.1c0,0.1-0.1,0.2-0.2,0.1c-0.1,0-0.3-0.1-0.4-0.2C3,10.2,2.9,10.1,2.9,10z"/>
				<path class="st18" d="M3.6,10.3c-0.1,0.3-0.5,0-0.6-0.1c0,0,0-0.1,0-0.2c0-0.1,0.1-0.1,0.2-0.2c0.1,0,0.1,0,0.2,0c0,0,0,0,0,0
					c-0.1,0-0.2,0-0.3,0c-0.1,0.1-0.1,0.2,0,0.3C3,10.4,3.5,10.6,3.6,10.3C3.6,10.3,3.6,10.3,3.6,10.3z"/>
				<path class="st25" d="M3.6,10.1c-0.1,0-0.1,0-0.2,0c-0.1,0-0.1,0-0.2-0.1c0,0-0.1-0.1-0.1-0.1c0,0,0,0,0,0
					C3.1,10.2,3.4,10.2,3.6,10.1C3.6,10.1,3.6,10.1,3.6,10.1z"/>
			</g>
			<path class="st26" d="M6.1,6.2C5.9,6.1,5.6,6,5.4,6.1C5.2,6.1,5,6.2,4.8,6.4c0,0,0,0.1,0,0C5,6.3,5.2,6.2,5.4,6.2
				C5.6,6.2,5.8,6.2,6.1,6.2C6,6.3,6.1,6.3,6.1,6.2z"/>
			<path class="st26" d="M2.2,7.1C2.1,7.1,2,7.1,1.9,7.1c-0.1,0-0.1,0-0.2,0c-0.1,0-0.2,0.1-0.2,0.3c0,0,0,0,0,0c0,0,0,0,0,0
				c0-0.1,0.1-0.1,0.2-0.1C1.9,7.2,2,7.2,2.2,7.1C2.1,7.2,2.1,7.2,2.2,7.1C2.2,7.1,2.2,7.1,2.2,7.1z"/>
			<g>
				<g>
					<path class="st27" d="M4.7,2.5c0.4-0.2-1,0.3-1.6,0.8c-0.7,0.6-1,0-1,0S2,3.5,2.3,3.8C1.7,4,1.4,4.9,1.6,5.3
						c0.2-0.6,0.5-0.7,0.5-0.7S1.9,5,1.7,5.3S1.3,5.9,0.9,5.8c0.5,0.1,1.4-0.3,2-1.2C3.4,3.7,3.4,3.4,4.7,2.5z"/>
					<path class="st26" d="M1.1,5.9c-0.1,0-0.2,0-0.2,0c0,0,0,0,0,0c0,0,0,0,0,0c0.3,0.1,0.7-0.2,0.8-0.5C1.8,5.1,1.9,4.8,2,4.7
						C1.9,4.8,1.7,4.9,1.6,5.3c0,0,0,0,0,0c0,0,0,0,0,0c-0.1-0.2,0-0.6,0.1-1C1.8,4.1,2,3.9,2.3,3.8C2.2,3.7,2.1,3.6,2.1,3.5
						c0-0.2,0.1-0.3,0.1-0.3c0,0,0,0,0,0c0,0,0,0,0,0c0,0,0.1,0.2,0.3,0.2c0.2,0,0.4,0,0.6-0.2c0.4-0.4,1.6-0.9,1.7-0.8c0,0,0,0,0,0
						c0,0,0,0-0.1,0.1l0,0c-1.1,0.7-1.2,1-1.6,1.6C3.1,4.3,3,4.5,2.9,4.7C2.5,5.3,1.7,5.9,1.1,5.9z M2.1,4.6
						C2.1,4.6,2.1,4.6,2.1,4.6C2.1,4.6,2.1,4.7,2.1,4.6c0,0-0.2,0.4-0.3,0.7C1.7,5.5,1.5,5.7,1.2,5.8c0.5-0.1,1.2-0.5,1.6-1.2
						C3,4.5,3.1,4.3,3.1,4.1c0.3-0.6,0.5-0.9,1.6-1.6C4.4,2.6,3.6,3,3.2,3.3C2.9,3.5,2.7,3.6,2.5,3.5c-0.2,0-0.3-0.2-0.3-0.2
						c0,0-0.1,0.1,0,0.2c0,0.1,0.1,0.2,0.2,0.3c0,0,0,0,0,0c0,0,0,0,0,0C2.1,3.9,1.9,4.1,1.7,4.4C1.6,4.7,1.5,5,1.6,5.2
						C1.8,4.7,2.1,4.6,2.1,4.6C2.1,4.6,2.1,4.6,2.1,4.6z M4.7,2.5L4.7,2.5L4.7,2.5z"/>
				</g>
				<g>
					<path class="st28" d="M4.7,2.5c0.4-0.2-1,0.3-1.6,0.8c-0.7,0.6-1,0-1,0S2,3.5,2.3,3.8C1.7,4,1.4,4.9,1.6,5.3
						c0.2-0.6,0.5-0.7,0.5-0.7S1.9,5,1.7,5.3S1.3,5.9,0.9,5.8c0.5,0.1,1.4-0.3,2-1.2C3.4,3.7,3.4,3.4,4.7,2.5z"/>
					<path class="st29" d="M1.1,5.9c-0.1,0-0.2,0-0.2,0c0,0,0,0,0,0c0,0,0,0,0,0c0.3,0.1,0.7-0.2,0.8-0.5C1.8,5.1,1.9,4.8,2,4.7
						C1.9,4.8,1.7,4.9,1.6,5.3c0,0,0,0,0,0c0,0,0,0,0,0c-0.1-0.2,0-0.6,0.1-1C1.8,4.1,2,3.9,2.3,3.8C2.2,3.7,2.1,3.6,2.1,3.5
						c0-0.2,0.1-0.3,0.1-0.3c0,0,0,0,0,0c0,0,0,0,0,0c0,0,0.1,0.2,0.3,0.2c0.2,0,0.4,0,0.6-0.2c0.4-0.4,1.6-0.9,1.7-0.8c0,0,0,0,0,0
						c0,0,0,0-0.1,0.1l0,0c-1.1,0.7-1.2,1-1.6,1.6C3.1,4.3,3,4.5,2.9,4.7C2.5,5.3,1.7,5.9,1.1,5.9z M2.1,4.6
						C2.1,4.6,2.1,4.6,2.1,4.6C2.1,4.6,2.1,4.7,2.1,4.6c0,0-0.2,0.4-0.3,0.7C1.7,5.5,1.5,5.7,1.2,5.8c0.5-0.1,1.2-0.5,1.6-1.2
						C3,4.5,3.1,4.3,3.1,4.1c0.3-0.6,0.5-0.9,1.6-1.6C4.4,2.6,3.6,3,3.2,3.3C2.9,3.5,2.7,3.6,2.5,3.5c-0.2,0-0.3-0.2-0.3-0.2
						c0,0-0.1,0.1,0,0.2c0,0.1,0.1,0.2,0.2,0.3c0,0,0,0,0,0c0,0,0,0,0,0C2.1,3.9,1.9,4.1,1.7,4.4C1.6,4.7,1.5,5,1.6,5.2
						C1.8,4.7,2.1,4.6,2.1,4.6C2.1,4.6,2.1,4.6,2.1,4.6z M4.7,2.5L4.7,2.5L4.7,2.5z"/>
				</g>
				<g>
					<path class="st27" d="M2.6,4.2c-1.2,0-1.1,1.1-1.1,1.1c0.2-0.6,0.5-0.7,0.5-0.7C2.2,4.5,2.4,4.4,2.6,4.2z"/>
					<path class="st27" d="M2.2,3.3C2.1,3.4,2.1,3.6,2.3,3.8c0,0,0.1,0,0.2-0.1C2.3,3.6,2.2,3.5,2.2,3.3z"/>
					<path class="st30" d="M4.4,2.6C4.2,2.8,4,2.9,3.7,3.1C3.3,3.3,3.2,3.3,3,3.7c0.2-0.2,0.4-0.2,0.4-0.2C3,3.7,3,4,2.6,4.6
						c-0.4,0.7-1,1-1.3,1.1C1.2,5.8,1,5.9,0.9,5.8c0.5,0.1,1.4-0.3,2-1.2c0.6-0.9,0.6-1.3,1.9-2.1C4.9,2.4,4.7,2.5,4.4,2.6z"/>
				</g>
				<path class="st28" d="M1.7,4.7c0,0,0.2-0.6,0.9-0.7C2.3,3.8,1.8,4,1.7,4.7z"/>
				<path class="st28" d="M2.5,4.3c0,0-0.3,0.2-0.5,0.5C1.8,5.2,1.7,5.6,1.4,5.7c0.3-0.2,0.5-0.4,0.7-0.8C2.3,4.6,2.5,4.4,2.5,4.3z"
					/>
				<path class="st28" d="M2.2,3.3c0,0,0.2,0.4,0.7,0.2C2.7,3.7,2.2,3.7,2.2,3.3z"/>
			</g>
			<g class="st3">
				<path class="st0" d="M12.5,8.8c0.3,0,0.7,0.3,0.9,0.8c0.9-3-0.8-6.4-3.5-7.3C8.6,1.8,7.3,1.9,6.4,2l0,0C6.4,2,12.8,0.9,12.5,8.8
					z"/>
				<path class="st0" d="M7.9,14.8c2.7-0.6,4.2-2.8,4.3-3c-0.2,0-0.4,0-0.5-0.2C11.4,12.5,10.4,14,7.9,14.8z"/>
			</g>
			<g>
				
					<radialGradient id="SVGID_3_" cx="-557.3972" cy="1538.9816" r="1.3568" gradientTransform="matrix(-0.8966 -0.443 0.443 -0.8966 -1174.8383 1141.8149)" gradientUnits="userSpaceOnUse">
					<stop  offset="0.1184" style="stop-color:#F6A0A0"/>
					<stop  offset="1" style="stop-color:#FFFFFF"/>
				</radialGradient>
				<path class="st31" d="M6.4,10.2c0.2,0.4,0.5,0.4,0.8,0.2C7.7,10,8,9.5,7.8,9.2C7.7,8.9,7.3,8.8,6.8,9C6.4,9.3,6.2,9.7,6.4,10.2z
					"/>
				<g>
					<path class="st8" d="M7.3,9.1c0,0,0,0.1-0.1,0.1c-0.1,0-0.2,0-0.2,0c0,0,0-0.1,0.1-0.1C7.2,9.1,7.3,9.1,7.3,9.1z"/>
				</g>
				<g>
					<path class="st8" d="M7.5,9.2C7.5,9.2,7.5,9.2,7.5,9.2c-0.1,0-0.1,0-0.1,0C7.4,9.1,7.4,9.1,7.5,9.2C7.5,9.1,7.5,9.1,7.5,9.2z"
						/>
				</g>
			</g>
			<g>
				
					<radialGradient id="SVGID_4_" cx="-336.2563" cy="1428.8861" r="1.0439" gradientTransform="matrix(0.8966 -0.443 -0.443 -0.8966 936.6232 1141.8149)" gradientUnits="userSpaceOnUse">
					<stop  offset="0.1184" style="stop-color:#F6A0A0"/>
					<stop  offset="1" style="stop-color:#FFFFFF"/>
				</radialGradient>
				<path class="st32" d="M2.4,10.7C2.3,11,2,11,1.8,10.8c-0.4-0.3-0.6-0.7-0.5-0.9C1.4,9.7,1.7,9.5,2,9.7C2.4,10,2.5,10.3,2.4,10.7
					z"/>
				<g>
					<path class="st8" d="M1.7,9.8C1.7,9.8,1.7,9.9,1.7,9.8c0.2,0.1,0.2,0.1,0.3,0.1c0,0,0-0.1-0.1-0.1C1.8,9.8,1.7,9.8,1.7,9.8z"/>
				</g>
				<g>
					<path class="st8" d="M1.5,9.8C1.5,9.9,1.5,9.9,1.5,9.8C1.6,9.9,1.6,9.9,1.5,9.8C1.6,9.8,1.6,9.8,1.5,9.8
						C1.5,9.8,1.5,9.8,1.5,9.8z"/>
				</g>
			</g>
		</g>
		<path class="st2" d="M6.3,13.5c-0.4,0.8-1.5,1.1-2.5,0.6c-1-0.5-1.4-1.6-1-2.4c0.4-0.8,1.5-1.1,2.5-0.6S6.8,12.7,6.3,13.5z"/>
		<g>
			<path class="st33" d="M5.9,12.2C5.9,12.2,5.9,12.2,5.9,12.2c0-0.1,0-0.1-0.1-0.1c-0.5-1-2.5-1.5-3.1-0.4c-0.3,0.5-0.2,1,0,1.5
				c0.1,0.3,0.5,0.5,0.7,0.6c0.2,0.2,0.5,0.3,0.8,0.3c0.5,0.1,1.1,0,1.4-0.4C6,13.3,6.1,12.8,5.9,12.2z"/>
			<path class="st34" d="M5.5,13.8c-0.4,0.4-1,0.4-1.4,0.2c-0.9-0.3-1.8-1.4-1.2-2.3c0.4-0.4,1.1-0.4,1.6-0.2c0,0,0,0,0,0
				c-0.4-0.1-1-0.2-1.4,0c0.4-0.3,1-0.3,1.5-0.1c0.3,0.1,0.5,0.2,0.7,0.4c0.1,0.1,0.2,0.2,0.4,0.3c0.1,0.1,0.1,0.2,0.1,0.2
				c0,0.1,0.1,0.2,0.1,0.3c-0.2-0.3-0.5-0.6-0.8-0.8c0,0,0,0,0,0c0.4,0.3,0.8,0.7,0.8,1.2C5.9,13.2,5.7,13.5,5.5,13.8z"/>
			<path class="st34" d="M5.4,11.9c0.2,0.2,0.4,0.4,0.5,0.6c0-0.1,0-0.2-0.1-0.3c0-0.1-0.1-0.2-0.1-0.2c-0.1-0.1-0.3-0.2-0.4-0.3
				c0,0,0,0,0,0C5.3,11.8,5.4,11.8,5.4,11.9z"/>
			<path class="st34" d="M4,14c0.2,0,0.3,0,0.4-0.1c0.6-0.2,0.9-0.8,0.9-1.4c0-0.3,0-0.5-0.2-0.7c0,0-0.1-0.1-0.1-0.1c0,0,0,0,0,0
				c0,0,0.1,0,0.1,0.1c0-0.1-0.1-0.2-0.2-0.2c-0.1-0.1-0.3-0.2-0.4-0.2c-0.5-0.2-1.1-0.2-1.5,0.1c0.4-0.2,1.1-0.1,1.4,0c0,0,0,0,0,0
				c-0.5-0.1-1.2-0.2-1.6,0.2C2.2,12.6,3.1,13.7,4,14z"/>
			<path class="st34" d="M5.9,12.9c0-0.4-0.2-0.7-0.5-0.9c0,0.1,0.1,0.3,0.1,0.4c0,0.6-0.2,1.4-0.8,1.6c-0.1,0-0.2,0.1-0.3,0.1
				c0.4,0,0.8,0,1.1-0.3C5.7,13.5,5.9,13.2,5.9,12.9z"/>
			<path class="st33" d="M5.1,12.8C5.1,12.8,5.1,12.8,5.1,12.8c0.2-0.1,0.2-0.3,0.1-0.4c-0.1-0.2-0.3-0.2-0.5-0.2
				c-0.1,0-0.3,0.1-0.3,0.2c0,0.1,0.1,0.3,0.2,0.3c0,0,0,0.1,0,0.1c0,0.2-0.1,0.5-0.5,0.4c-0.2,0-0.3-0.2-0.4-0.3
				c-0.2-0.2,0.1-0.4,0.2-0.5c0.1,0,0.3-0.1,0.3-0.3c0-0.2-0.2-0.3-0.4-0.3c-0.2,0-0.4,0-0.5,0.1c-0.1,0.1-0.1,0.2,0,0.3
				c-0.1,0.1-0.2,0.2-0.2,0.3c-0.2,0.3-0.1,0.6,0.1,0.9c0.3,0.3,0.8,0.5,1.2,0.4c0.3-0.1,0.5-0.5,0.5-0.8
				C5.1,12.9,5.1,12.9,5.1,12.8z"/>
			<path class="st35" d="M4.6,12.4c0-0.1,0.2-0.1,0.3-0.1c0.2,0,0.4,0.3,0.3,0.5c0-0.1-0.1-0.2-0.2-0.3c-0.2-0.1-0.2,0.1-0.2,0.2
				C4.6,12.5,4.6,12.5,4.6,12.4z"/>
			<path class="st35" d="M3.5,11.9c0,0,0.1-0.1,0.2-0.1c0.1,0,0.2,0,0.2,0c0.2,0.1,0.4,0.4,0.1,0.4C4.1,12.1,4,12,3.8,12
				c0,0,0,0,0,0c-0.1,0-0.2,0.1-0.2,0.1C3.5,12.1,3.5,12,3.5,11.9z"/>
			<path class="st35" d="M4.9,13.3C4.9,13.3,4.9,13.3,4.9,13.3c-0.1,0.1-0.1,0.2-0.1,0.2c-0.1,0.1-0.2,0.1-0.3,0.1c0,0,0,0-0.1,0
				c-0.3,0.1-0.8-0.2-0.9-0.5c-0.3-0.3-0.2-0.7,0.1-0.9c0.1-0.1,0.1-0.2,0.3-0.2c0,0,0,0,0,0c0,0,0,0,0,0c0.1,0,0.1,0.1,0.1,0.1
				c0,0,0,0.1-0.1,0.1c0,0,0,0.1-0.1,0.1c0,0,0,0-0.1,0.1c-0.1,0.1-0.1,0.1-0.1,0.2c-0.1,0.1,0.1,0.3,0.2,0.4c0.2,0.2,0.7,0.3,0.8,0
				c0.1-0.1,0.1-0.3,0.1-0.4c0-0.1,0-0.2,0.1-0.2c0.1,0,0.2,0,0.2,0.1C5.1,12.9,5,13.1,4.9,13.3z"/>
			<g>
				<path class="st8" d="M3.6,13c-0.1-0.1-0.2-0.2-0.1-0.4c0-0.1,0.1-0.2,0.2-0.3c0,0,0,0,0,0C3.5,12.5,3.2,12.9,3.6,13
					C3.5,13.1,3.6,13.1,3.6,13z"/>
				<path class="st8" d="M3.4,11.5c-0.5,0.2-0.8,0.6-0.7,1.2c0,0.1,0.1,0,0.1,0c0-0.2,0-0.4,0-0.7C3,11.8,3.2,11.7,3.4,11.5
					C3.5,11.5,3.4,11.5,3.4,11.5z"/>
				<path class="st8" d="M3,13c0,0,0-0.1-0.1-0.1C2.9,12.9,2.9,12.9,3,13C2.9,13,2.9,13,3,13C2.9,13.1,3,13.1,3,13z"/>
			</g>
		</g>
	</g>
</g>
</svg>
