<?xml version="1.0" encoding="utf-8"?>
<!-- Generator: Adobe Illustrator 24.0.1, SVG Export Plug-In . SVG Version: 6.00 Build 0)  -->
<svg version="1.1" id="Capa_1" xmlns="http://www.w3.org/2000/svg" xmlns:xlink="http://www.w3.org/1999/xlink" x="0px" y="0px"
	 viewBox="0 0 25 25" style="enable-background:new 0 0 25 25;" xml:space="preserve">
<style type="text/css">
	.st0{fill:#B4B4B4;}
	.st1{fill:url(#SVGID_1_);}
	.st2{fill:url(#SVGID_2_);}
	.st3{opacity:0.6;fill:url(#SVGID_3_);}
	.st4{fill:url(#SVGID_4_);}
</style>
<g>
	<path class="st0" d="M14.5,1.3c-0.3,0-0.6,0.1-1,0.2c-1.1,0.6-2.3,1.6-3.3,2.5C9.8,4.4,9.4,4.7,9,5C8.9,5.2,8.8,5.3,8.6,5.4
		C8.5,5.4,8.4,5.5,8.3,5.6c-0.8,0.7-2,1.6-1.9,2.7C6.4,9,7,10,7.7,10.5l0,0L9,11.4c0.2,0.2,0.5,0.3,0.8,0.3c0,0,0,0,0,0
		c0,0,0.1,0,0.1,0c0.4,0,0.8-0.3,1.2-0.6c-0.1,0.5-0.1,1-0.2,1.5c-0.1,1.1-0.3,2.2-0.4,3.3c-0.2,1.4-0.4,2.9-0.5,4.4l0,0.1
		c-0.1,0.9-0.2,2.1,0.7,2.8c0,0,0,0,0,0l0,0c0,0,0.1,0.1,0.1,0.1c-0.1,0-0.1-0.1-0.1-0.1l1.3,0.9c0.1,0,0.1,0.1,0.2,0.1
		c0.5,0.3,1.1,0.3,1.5,0.3c0,0,0,0,0,0c0.2,0,0.5,0,0.7,0c0.1,0,0.3,0,0.4,0c0.8,0,1.4-0.3,1.8-0.7c0.1-0.1,0.1-0.1,0.2-0.2l0,0l0,0
		c0-0.1,0.1-0.1,0.1-0.2l0-0.1l0-0.1l0-0.1l0,0v0l0,0c0-0.1,0-0.1,0.1-0.2c0-0.1,0.1-0.1,0.1-0.2l0-0.1c0-0.1,0.1-0.2,0.1-0.4l0-0.1
		c0-0.1,0-0.1,0-0.2c0-0.1,0-0.1,0-0.2c0-0.1,0-0.2,0-0.3c0-0.1,0-0.2,0-0.3c0,0,0-0.1,0-0.1l0,0c0,0,0-0.1,0-0.1l0-0.1
		c0,0,0-0.1,0-0.1c0-0.2,0-0.5,0-0.7c0-0.5,0-0.9,0-1.4c0-0.1,0-0.3,0-0.4c0-0.4,0-0.7,0-1.1c0-0.1,0-0.2,0-0.3c0-0.4,0-0.9,0-1.3
		l0-0.1c0-0.4,0-0.8,0.1-1.3c0-0.1,0-0.3,0-0.4c0-0.3,0-0.7,0.1-1c0-0.1,0-0.2,0-0.4c0-0.4,0-0.9,0.1-1.3l0-0.3c0-0.5,0.1-1,0.1-1.6
		c0-0.2,0-0.4,0.1-0.6c0-0.1,0-0.2,0-0.3c0-0.1,0-0.3,0-0.4c0-0.1,0-0.2,0-0.3c0-0.1,0-0.2,0-0.4c0-0.1,0-0.2,0-0.3
		c0-0.1,0-0.2,0-0.4l0-0.1c0-0.2,0-0.3,0-0.5l0-0.1c0-0.2,0-0.3,0-0.5c0-0.1,0-0.1,0-0.2c0-0.1,0-0.3,0-0.4c0,0,0-0.1,0-0.1l0-0.1
		c0-0.2-0.1-0.4-0.1-0.5c0-0.1-0.1-0.2-0.1-0.3l0,0c0-0.1-0.1-0.2-0.1-0.3l0-0.1c0-0.1-0.1-0.2-0.2-0.3l0-0.1
		c-0.1-0.1-0.1-0.2-0.2-0.3l-0.1-0.1c-0.1-0.1-0.2-0.2-0.3-0.2l-1.3-0.9c0,0,0,0,0,0C15.3,1.5,15,1.3,14.5,1.3
		C14.6,1.3,14.5,1.3,14.5,1.3L14.5,1.3z"/>
	<linearGradient id="SVGID_1_" gradientUnits="userSpaceOnUse" x1="20.4903" y1="-11.3163" x2="8.3287" y2="21.7463">
		<stop  offset="8.510040e-03" style="stop-color:#2E3D21"/>
		<stop  offset="0.166" style="stop-color:#417323"/>
		<stop  offset="0.3604" style="stop-color:#417323"/>
		<stop  offset="0.5365" style="stop-color:#385A22"/>
		<stop  offset="0.6667" style="stop-color:#334C22"/>
		<stop  offset="0.7953" style="stop-color:#1F380B"/>
		<stop  offset="0.886" style="stop-color:#162E00"/>
		<stop  offset="0.9164" style="stop-color:#233B0F"/>
		<stop  offset="0.9423" style="stop-color:#284015"/>
		<stop  offset="0.9494" style="stop-color:#1F3211"/>
		<stop  offset="0.9663" style="stop-color:#0E1707"/>
		<stop  offset="0.9812" style="stop-color:#040602"/>
		<stop  offset="0.9924" style="stop-color:#000000"/>
	</linearGradient>
	<path class="st1" d="M17.1,7.2c0-0.1,0-0.2,0-0.3c0-0.1,0-0.2,0-0.4c0-0.1,0-0.2,0-0.3c0-0.1,0-0.2,0-0.4c0,0,0,0,0-0.1
		c0-0.2,0-0.3,0-0.5c0,0,0-0.1,0-0.1c0-0.2,0-0.3,0-0.5c0-0.1,0-0.1,0-0.2c0-0.1,0-0.3,0-0.4c0,0,0-0.1,0-0.1c0,0,0,0,0-0.1
		c0-0.2-0.1-0.4-0.1-0.5c0-0.1-0.1-0.2-0.1-0.3c0,0,0,0,0,0c0-0.1-0.1-0.2-0.1-0.3c0,0,0-0.1,0-0.1c0-0.1-0.1-0.2-0.2-0.3
		c0,0,0,0,0-0.1c-0.1-0.1-0.1-0.2-0.2-0.3L16.2,2c-0.1-0.1-0.2-0.2-0.3-0.2l-1.3-0.9c0.1,0.1,0.2,0.1,0.3,0.2
		c0.1,0.1,0.2,0.2,0.3,0.3c0,0,0,0,0,0.1c0,0,0,0,0,0L14.4,1c-0.1-0.1-0.3-0.2-0.5-0.2c0,0,0,0,0,0c0,0-0.1,0-0.1,0
		c-0.1,0-0.3,0-0.4,0c-0.3,0-0.6,0.1-0.9,0.1c-0.6,0.3-1.1,0.7-1.7,1.2L11,2.2c-0.5,0.4-1.1,0.9-1.6,1.3C9,3.9,8.6,4.2,8.2,4.5
		C8.1,4.6,8,4.7,7.8,4.9C7.7,4.9,7.6,5,7.5,5.1c-0.1,0-0.1,0.1-0.2,0.1c0,0,0,0-0.1,0.1c0,0-0.1,0.1-0.1,0.1c0,0,0,0-0.1,0.1
		c0,0-0.1,0.1-0.1,0.1c0,0,0,0-0.1,0.1C6.8,5.7,6.8,5.7,6.7,5.8c0,0,0,0,0,0c-0.1,0-0.1,0.1-0.2,0.1c0,0,0,0-0.1,0.1
		c0,0-0.1,0.1-0.1,0.1c0,0,0,0-0.1,0.1c0,0-0.1,0.1-0.1,0.1c0,0,0,0,0,0.1c0,0.1-0.1,0.1-0.1,0.2c0,0,0,0,0,0c0,0,0,0,0,0
		C5.9,6.6,5.9,6.7,5.8,6.8c0,0,0,0,0,0c0,0,0,0,0,0c0,0,0,0.1-0.1,0.1c0,0,0,0,0,0c0,0,0,0,0,0c0,0,0,0.1,0,0.1c0,0,0,0,0,0
		c0,0,0,0,0,0c0,0,0,0.1,0,0.1c0,0,0,0,0,0l0,0.1c0,0,0,0.1,0,0.1c0,0,0,0,0,0.1c0,0,0,0.1,0,0.1c0,0,0,0.1,0,0.1c0,0,0,0.1,0.1,0.1
		c0,0,0,0,0,0.1c0,0,0,0,0,0.1c0,0,0,0.1,0.1,0.1c0,0,0,0.1,0.1,0.1c0,0,0,0.1,0.1,0.1c0,0,0.1,0.1,0.1,0.1c0,0,0.1,0.1,0.1,0.1
		c0,0,0.1,0.1,0.1,0.1c0,0,0.1,0.1,0.1,0.1c0,0,0,0,0,0.1c0,0,0,0,0.1,0.1c0,0,0,0,0.1,0.1c0.1,0.1,0.1,0.1,0.2,0.2l0.8,0.6
		c0,0-0.1,0-0.1,0c0,0-0.1,0-0.1,0c-0.3,0-0.5-0.1-0.8-0.3l1.3,0.9c0.2,0.2,0.5,0.3,0.8,0.3c0,0,0.1,0,0.1,0c0.6-0.1,1.1-0.5,1.7-1
		c0,0.1,0,0.2,0,0.3c-0.1,0.6-0.1,1.2-0.2,1.7c-0.1,1.1-0.3,2.2-0.4,3.3c-0.2,1.4-0.4,2.9-0.5,4.4l0,0.1c0,0.1,0,0.2,0,0.3
		c0,0,0,0.1,0,0.1c0,0.1,0,0.2,0,0.2c0,0,0,0,0,0c0,0.1,0,0.1,0,0.2c0,0,0,0.1,0,0.1c0,0.1,0,0.2,0,0.2c0,0,0,0.1,0,0.1c0,0,0,0,0,0
		c0,0.1,0,0.2,0.1,0.3c0,0,0,0,0,0.1c0,0,0,0.1,0,0.1c0,0,0,0,0,0.1c0,0,0,0.1,0,0.1c0,0.1,0.1,0.1,0.1,0.2c0,0,0,0,0.1,0.1
		c0,0,0,0,0,0C9.7,21.9,9.8,22,9.9,22c0,0,0,0,0,0l0,0c0,0,0,0,0,0l0.9,0.6l0.1,0.1c-0.3,0-0.7-0.1-1.1-0.3c-0.1,0-0.1-0.1-0.2-0.1
		l1.3,0.9c0.1,0,0.1,0.1,0.2,0.1c0.5,0.3,1.1,0.3,1.5,0.3c0.3,0,0.5,0,0.8,0c0.1,0,0.3,0,0.4,0c0.8,0,1.4-0.3,1.8-0.7
		c0.1-0.1,0.1-0.1,0.2-0.2c0,0,0,0,0,0c0,0,0,0,0,0c0-0.1,0.1-0.1,0.1-0.2l0-0.1c0,0,0,0,0-0.1c0,0,0,0,0-0.1l0,0v0l0,0
		c0-0.1,0-0.1,0.1-0.2c0-0.1,0.1-0.1,0.1-0.2c0,0,0,0,0-0.1c0-0.1,0.1-0.2,0.1-0.4c0,0,0-0.1,0-0.1c0-0.1,0-0.1,0-0.2
		c0-0.1,0-0.1,0-0.2c0-0.1,0-0.2,0-0.3c0-0.1,0-0.2,0-0.3c0,0,0-0.1,0-0.1l0,0c0,0,0-0.1,0-0.1c0,0,0-0.1,0-0.1c0,0,0-0.1,0-0.1
		c0-0.2,0-0.5,0-0.7c0-0.5,0-0.9,0-1.4c0-0.1,0-0.3,0-0.4c0-0.4,0-0.7,0-1.1c0-0.1,0-0.2,0-0.3c0-0.4,0-0.9,0-1.3c0,0,0-0.1,0-0.1
		c0-0.4,0-0.8,0.1-1.3c0-0.1,0-0.3,0-0.4c0-0.3,0-0.7,0.1-1c0-0.1,0-0.2,0-0.4c0-0.4,0-0.9,0.1-1.3l0-0.3c0-0.5,0.1-1,0.1-1.6
		C17,8.3,17,8,17,7.8c0-0.1,0-0.2,0-0.3C17,7.4,17,7.3,17.1,7.2z"/>
	<linearGradient id="SVGID_2_" gradientUnits="userSpaceOnUse" x1="7.7664" y1="-5.2777" x2="13.6853" y2="17.4972">
		<stop  offset="0" style="stop-color:#ECFF17"/>
		<stop  offset="0.5415" style="stop-color:#81B900"/>
		<stop  offset="0.8991" style="stop-color:#63B900"/>
	</linearGradient>
	<path class="st2" d="M15.2,2.6C15,2,14.8,1.6,14.5,1.4c-0.3-0.3-0.6-0.4-1-0.4c-0.2,0-0.5,0-0.8,0.1c-0.5,0.3-1,0.6-1.5,1
		C10.5,2.6,10,3.1,9.4,3.5C9,3.9,8.6,4.2,8.2,4.5C8.1,4.6,8,4.7,7.8,4.9C7.7,4.9,7.6,5,7.5,5.1C6.7,5.8,5.6,6.6,5.7,7.5
		c0.1,0.8,0.9,2.1,1.7,2.1l0.1,0c0.8-0.1,1.7-1.2,2.4-2.1c0.2-0.3,0.4-0.5,0.6-0.8l0.4-0.5l-0.1,0.6c-0.1,1.1-0.2,2.2-0.3,3.2
		c-0.1,0.6-0.1,1.2-0.2,1.7c-0.1,1.1-0.3,2.2-0.4,3.3c-0.2,1.4-0.4,2.9-0.5,4.4l0,0.1c-0.1,0.9-0.2,2.1,0.7,2.5
		c0.3,0.2,0.8,0.2,1.3,0.3c0.3,0,0.5,0,0.8,0c0.1,0,0.2,0,0.3,0l0.1,0c0.7,0,1.2-0.2,1.5-0.6c0.7-0.8,0.8-2.1,0.7-3.3
		c-0.1-3,0.1-6,0.3-9l0-0.3c0-0.5,0.1-1,0.1-1.6C15.4,5.9,15.6,4.1,15.2,2.6z"/>
	<linearGradient id="SVGID_3_" gradientUnits="userSpaceOnUse" x1="10.8568" y1="-4.3267" x2="14.8454" y2="18.1263">
		<stop  offset="0" style="stop-color:#ECFF17"/>
		<stop  offset="0.5415" style="stop-color:#81B900"/>
		<stop  offset="0.8991" style="stop-color:#6DBA2B"/>
	</linearGradient>
	<path class="st3" d="M13.5,0.9c0.4,0,0.8,0.1,1,0.4C14.8,1.6,15,2,15.2,2.6c0.3,1.5,0.1,3.3,0,4.9c-0.1,0.6-0.1,1.1-0.1,1.6l0,0.3
		c-0.2,2.9-0.3,6-0.3,9c0,1.2,0,2.6-0.7,3.3c-0.4,0.4-0.9,0.6-1.5,0.6l-0.1,0c0.7-5,1.2-10.1,1-15.2c0-1.7,0-4.1-1.9-4.9
		c-0.2-0.1-0.3-0.1-0.5-0.2c0.5-0.4,1-0.8,1.5-1C13,1,13.3,0.9,13.5,0.9z"/>
	<linearGradient id="SVGID_4_" gradientUnits="userSpaceOnUse" x1="7.4812" y1="-0.3331" x2="15.0084" y2="18.8708">
		<stop  offset="0" style="stop-color:#ECFF17"/>
		<stop  offset="1" style="stop-color:#81B900"/>
	</linearGradient>
	<path class="st4" d="M15.6,2.5c-0.1-0.4-0.4-1-0.8-1.4c-0.4-0.4-0.8-0.5-1.3-0.5c-0.3,0-0.6,0.1-1,0.2c-1.1,0.6-2.3,1.6-3.3,2.5
		c-0.4,0.4-0.8,0.7-1.2,1C7.8,4.4,7.7,4.5,7.6,4.6C7.5,4.6,7.4,4.7,7.2,4.8c-0.8,0.7-2,1.6-1.9,2.7c0.1,1,1,2.4,2.1,2.4
		c0,0,0.1,0,0.1,0c1-0.1,1.9-1.3,2.7-2.2c0.1-0.1,0.1-0.2,0.2-0.2c-0.1,0.9-0.2,1.7-0.3,2.6c-0.1,0.6-0.1,1.2-0.2,1.7
		c-0.1,1.1-0.3,2.2-0.4,3.3C9.3,16.5,9,18,8.9,19.5l0,0.1c-0.1,1-0.2,2.3,0.9,2.9c0.5,0.3,1.1,0.3,1.5,0.3c0.3,0,0.5,0,0.8,0
		c0.1,0,0.3,0,0.4,0c0.8,0,1.4-0.3,1.8-0.7c0.8-0.9,0.9-2.3,0.8-3.6c-0.1-3,0.1-6,0.2-8.9l0-0.3c0-0.5,0.1-1,0.1-1.6
		C15.8,5.9,15.9,4.1,15.6,2.5z M12.1,22.3c-0.2,0-0.5,0-0.8,0c-0.6,0-1-0.1-1.3-0.3c-0.9-0.4-0.8-1.6-0.7-2.5l0-0.1
		c0.1-1.5,0.3-3,0.5-4.4c0.2-1.1,0.3-2.2,0.4-3.3c0.1-0.6,0.1-1.1,0.2-1.7c0.1-1.1,0.2-2.2,0.3-3.2l0.1-0.6l-0.4,0.5
		c-0.2,0.2-0.4,0.5-0.6,0.8c-0.7,0.9-1.6,2-2.4,2.1l-0.1,0c-0.8,0-1.6-1.3-1.7-2.1c-0.1-0.9,1-1.7,1.8-2.3C7.6,5,7.7,4.9,7.8,4.9
		C8,4.7,8.1,4.6,8.2,4.5c0.4-0.3,0.8-0.7,1.2-1c0.5-0.5,1.1-1,1.7-1.4c0.5-0.4,1-0.8,1.5-1C13,1,13.3,0.9,13.5,0.9
		c0.4,0,0.8,0.1,1,0.4C14.8,1.6,15,2,15.2,2.6c0.3,1.5,0.1,3.3,0,4.9c-0.1,0.6-0.1,1.1-0.1,1.6l0,0.3c-0.2,2.9-0.3,6-0.3,9
		c0,1.2,0,2.6-0.7,3.3c-0.4,0.4-0.9,0.6-1.5,0.6l-0.1,0C12.3,22.3,12.2,22.3,12.1,22.3z"/>
</g>
</svg>
