<?xml version="1.0" encoding="utf-8"?>
<!-- Generator: Adobe Illustrator 24.0.1, SVG Export Plug-In . SVG Version: 6.00 Build 0)  -->
<svg version="1.1" id="Capa_1" xmlns="http://www.w3.org/2000/svg" xmlns:xlink="http://www.w3.org/1999/xlink" x="0px" y="0px"
	 viewBox="0 0 25 25" style="enable-background:new 0 0 25 25;" xml:space="preserve">
<style type="text/css">
	.st0{fill:#B4B4B4;}
	.st1{fill:url(#SVGID_1_);}
	.st2{fill:url(#SVGID_2_);}
	.st3{fill:url(#SVGID_3_);}
	.st4{opacity:0.3;fill:url(#SVGID_4_);}
	.st5{fill:url(#SVGID_5_);}
</style>
<g>
	<path class="st0" d="M11.8,1.2c-0.9,0-1.8,0.2-2.5,0.5c-2.3,0.9-4,2.6-4,4.2c0,0.5,0.2,1.3,1,1.8l0,0l0,0l1.4,0.9
		c0.2,0.1,0.4,0.2,0.7,0.4C8.6,9,8.8,9.1,9,9.1c0,0,0,0,0,0c0.1,0,0.2,0,0.3,0l0.1,0C9.4,9,9.5,9,9.6,8.9l0,0c0.1,0,0.2-0.1,0.2-0.1
		l0,0c0.1-0.1,0.2-0.1,0.2-0.2l0,0c0.1-0.1,0.1-0.1,0.2-0.2l0,0c0.1-0.1,0.2-0.2,0.3-0.4l0.1-0.1c0.1-0.1,0.2-0.2,0.3-0.4
		c0.1-0.1,0.1-0.2,0.2-0.3c0.6-0.8,1.6-1.3,2.6-1.3c0,0,0,0,0,0c0.2,0,0.4,0,0.6,0.1c0.1,0,0.1,0,0.2,0.1c0.4,0.4,0.6,1,0.5,1.6
		c-0.2,1.7-2.4,2.5-4.3,2.7l-0.2,0c-0.9,0.1-2.1,0.2-2.6,1.1c-0.2,0.4-0.2,0.8,0,1.2c0.1,0.3,0.4,0.6,0.7,0.8l-0.1,0l1.4,0.9
		c0.2,0.2,0.5,0.3,0.8,0.3c0.3,0.1,0.7,0.1,1,0.1c0,0,0.1,0,0.1,0c0.1,0,0.1,0,0.2,0c0.5-0.1,1.1-0.2,1.6-0.3
		c0.7-0.1,1.4-0.3,2.1-0.3c0,0,0,0,0,0c0.4,0,0.7,0.1,1.1,0.1c0.3,0.5,0.4,1,0.4,1.7c-0.2,1.7-1.2,2.9-2.8,3.3
		c-0.4,0.1-0.8,0.2-1.2,0.2c0,0,0,0,0,0c-0.7,0-1.4-0.2-2.1-0.5l0,0c-0.1-0.1-0.3-0.2-0.4-0.3c-0.1-0.1-0.1-0.1-0.2-0.2
		c-0.1-0.1-0.3-0.3-0.4-0.4l-0.1-0.1c-0.2-0.2-0.3-0.4-0.5-0.6l0,0l-0.1-0.1l-0.1-0.1C9.4,17.1,9.3,17,9.3,17l-1.4-0.9l0.1,0
		c-0.3-0.2-0.7-0.4-1-0.4c0,0,0,0,0,0c-1.2,0-2.4,1.2-2.6,2.5c-0.2,1.6,0.9,2.8,2.2,3.7l0,0c0.5,0.3,0.9,0.6,1.4,0.9
		c1,0.7,2,1.1,2.5,1.3c0.9,0.3,1.9,0.5,3,0.5c0,0,0,0,0.1,0c2.4,0,4.8-0.9,6.4-2.3c0.2-0.2,0.4-0.4,0.5-0.6c0.1-0.1,0.1-0.1,0.1-0.2
		c0.1-0.1,0.2-0.3,0.3-0.4c0,0,0.1-0.1,0.1-0.1l0.1-0.1c0.1-0.1,0.1-0.2,0.2-0.3c0-0.1,0.1-0.1,0.1-0.2c0.1-0.1,0.1-0.2,0.2-0.4
		c0-0.1,0.1-0.1,0.1-0.2l0,0c0-0.1,0.1-0.1,0.1-0.2c0-0.1,0.1-0.2,0.1-0.3c0-0.1,0.1-0.1,0.1-0.2c0-0.1,0.1-0.2,0.1-0.2l0-0.1
		c0-0.1,0-0.1,0.1-0.2c0-0.1,0.1-0.2,0.1-0.3c0-0.1,0-0.1,0-0.2c0,0,0-0.1,0-0.1c0-0.1,0-0.1,0-0.2c0-0.1,0-0.1,0-0.2
		c0-0.1,0-0.2,0-0.4c0-0.1,0-0.1,0-0.2l0-0.1c0-0.1,0-0.2,0-0.3c0-0.1,0-0.2,0-0.3c0-0.1,0-0.2,0-0.3c0-0.1,0-0.2,0-0.3l0,0
		c0-0.2-0.1-0.3-0.1-0.5c0,0,0-0.1,0-0.1c0-0.1-0.1-0.3-0.1-0.4c0,0,0-0.1,0-0.1c-0.1-0.2-0.1-0.3-0.2-0.5l0,0
		c-0.1-0.2-0.2-0.4-0.3-0.6c-0.1-0.1-0.1-0.2-0.2-0.4c0,0,0-0.1-0.1-0.1c-0.1-0.1-0.1-0.2-0.2-0.2l0,0l0,0L21,12.6
		c-0.1-0.1-0.1-0.2-0.2-0.3c0,0-0.1-0.1-0.1-0.1c0,0-0.1-0.1-0.1-0.1L20.5,12c-0.1-0.1-0.3-0.3-0.4-0.4L20,11.6
		c-0.1-0.1-0.3-0.2-0.4-0.4l0,0l-0.1-0.1l-0.6-0.4c0.1-0.2,0.2-0.4,0.3-0.6l0,0c0.1-0.2,0.2-0.4,0.2-0.6l0-0.1l0-0.1l0-0.1
		c0,0,0-0.1,0-0.1c0-0.1,0-0.2,0.1-0.3l0-0.1l0-0.1l0,0l0,0l0,0c0-0.1,0-0.2,0.1-0.3c0-0.1,0-0.1,0-0.2l0-0.1c0-0.1,0-0.3,0-0.4
		l0-0.1c0,0,0-0.1,0-0.1c0-0.1,0-0.3,0-0.4l0-0.1l0,0c0-0.1,0-0.2-0.1-0.3c0-0.1,0-0.1,0-0.2l0,0l0,0l0,0c0,0,0-0.1,0-0.1
		c0-0.1-0.1-0.3-0.1-0.4l0-0.1l0,0c0,0,0-0.1-0.1-0.1l0-0.1c0,0,0-0.1-0.1-0.1c0-0.1-0.1-0.1-0.1-0.2c0,0,0-0.1-0.1-0.1
		C19,5.1,19,5,18.9,4.9l-0.1-0.1c-0.1-0.1-0.2-0.2-0.2-0.3c0-0.1-0.1-0.1-0.2-0.2l0,0l0,0l-0.1-0.1c-0.1-0.1-0.2-0.2-0.3-0.3
		c-0.1,0-0.1-0.1-0.2-0.1c-0.2-0.1-0.3-0.3-0.5-0.4L16,2.5l0,0l0,0l0.1,0.1C15,1.7,13.5,1.2,11.8,1.2C11.9,1.2,11.8,1.2,11.8,1.2
		L11.8,1.2z"/>
	<g>
		<linearGradient id="SVGID_1_" gradientUnits="userSpaceOnUse" x1="14.1206" y1="-0.1322" x2="7.1745" y2="22.2715">
			<stop  offset="6.632650e-02" style="stop-color:#00388B"/>
			<stop  offset="0.6667" style="stop-color:#162663"/>
			<stop  offset="0.6963" style="stop-color:#132258"/>
			<stop  offset="0.8308" style="stop-color:#090F28"/>
			<stop  offset="0.9338" style="stop-color:#02040B"/>
			<stop  offset="0.9924" style="stop-color:#000000"/>
		</linearGradient>
		<path class="st1" d="M7.2,15.6c0.2,0.2,0.3,0.4,0.5,0.5c0,0,0,0,0,0c0,0,0.1,0.1,0.1,0.1c0.1,0.1,0.3,0.3,0.4,0.4
			c0.1,0.1,0.1,0.1,0.2,0.2c0.1,0.1,0.2,0.2,0.4,0.3c0.1,0,0.1,0.1,0.2,0.1c0.2,0.1,0.4,0.3,0.5,0.4c0.5,0.3,0.9,0.6,1.4,0.9
			c-0.2-0.1-0.4-0.3-0.5-0.4c-0.1,0-0.1-0.1-0.2-0.1C10,18,9.9,17.8,9.7,17.7c-0.1,0-0.1-0.1-0.2-0.2c-0.1-0.1-0.3-0.3-0.4-0.4
			c0,0-0.1-0.1-0.1-0.1c-0.2-0.2-0.3-0.4-0.5-0.6l0,0c0,0-0.1-0.1-0.1-0.1c0,0,0,0-0.1-0.1c-0.1-0.1-0.1-0.1-0.2-0.1l-1.4-0.9
			c0.1,0,0.1,0.1,0.2,0.1c0,0,0,0,0.1,0.1C7.1,15.5,7.2,15.5,7.2,15.6z"/>
		<linearGradient id="SVGID_2_" gradientUnits="userSpaceOnUse" x1="16.1372" y1="0.4905" x2="9.1902" y2="22.8971">
			<stop  offset="6.632650e-02" style="stop-color:#00388B"/>
			<stop  offset="0.3479" style="stop-color:#111D4B"/>
			<stop  offset="0.381" style="stop-color:#121E4E"/>
			<stop  offset="0.6319" style="stop-color:#162663"/>
			<stop  offset="0.7534" style="stop-color:#0F1A43"/>
			<stop  offset="0.8321" style="stop-color:#091028"/>
			<stop  offset="0.9341" style="stop-color:#02040B"/>
			<stop  offset="0.9924" style="stop-color:#000000"/>
		</linearGradient>
		<path class="st2" d="M21.2,16.2c0-0.1,0-0.1,0-0.2c0,0,0,0,0-0.1c0-0.1,0-0.2,0-0.3c0-0.1,0-0.2,0-0.3c0-0.1,0-0.2,0-0.3
			c0-0.1,0-0.2,0-0.3c0,0,0,0,0,0c0-0.2-0.1-0.3-0.1-0.5c0,0,0-0.1,0-0.1c0-0.1-0.1-0.3-0.1-0.4c0,0,0-0.1,0-0.1
			c-0.1-0.2-0.1-0.3-0.2-0.5c0,0,0,0,0,0c-0.1-0.2-0.2-0.4-0.3-0.6c-0.1-0.1-0.1-0.2-0.2-0.4c0,0,0-0.1-0.1-0.1
			c-0.1-0.1-0.1-0.2-0.2-0.3c0,0,0,0,0,0l0,0c0,0,0-0.1-0.1-0.1c-0.1-0.1-0.1-0.2-0.2-0.3c0,0-0.1-0.1-0.1-0.1c0,0-0.1-0.1-0.1-0.1
			c0,0,0,0-0.1-0.1c-0.1-0.1-0.3-0.3-0.4-0.4c0,0-0.1-0.1-0.1-0.1c-0.1-0.1-0.3-0.2-0.4-0.4l0,0l-0.1-0.1l-0.6-0.4
			c0.1-0.2,0.2-0.4,0.3-0.6c0,0,0,0,0,0c0.1-0.2,0.2-0.4,0.2-0.6c0,0,0,0,0-0.1l0-0.1c0,0,0-0.1,0-0.1c0,0,0-0.1,0-0.1
			c0-0.1,0-0.2,0.1-0.3c0,0,0,0,0-0.1l0-0.1c0,0,0,0,0,0l0,0c0,0,0,0,0,0c0-0.1,0-0.2,0.1-0.3c0-0.1,0-0.1,0-0.2c0,0,0-0.1,0-0.1
			c0-0.1,0-0.3,0-0.4c0,0,0,0,0-0.1c0,0,0-0.1,0-0.1c0-0.1,0-0.3,0-0.4c0,0,0-0.1,0-0.1c0,0,0,0,0,0c0-0.1,0-0.2-0.1-0.3
			c0-0.1,0-0.1,0-0.2l0,0l0,0c0,0,0,0,0,0l0,0c0,0,0,0,0,0l0,0l0,0l0,0c0,0,0,0,0,0c0,0,0-0.1,0-0.1c0-0.1-0.1-0.3-0.1-0.4
			c0,0,0,0,0-0.1c0,0,0,0,0,0c0,0,0-0.1-0.1-0.1c0,0,0-0.1,0-0.1c0,0,0-0.1-0.1-0.1c0-0.1-0.1-0.1-0.1-0.2c0,0,0-0.1-0.1-0.1
			c0-0.1-0.1-0.1-0.1-0.2c0,0,0-0.1-0.1-0.1c-0.1-0.1-0.2-0.2-0.2-0.3c0-0.1-0.1-0.1-0.2-0.2l0,0c0,0,0,0,0,0c0,0,0-0.1-0.1-0.1
			c-0.1-0.1-0.2-0.2-0.3-0.3c-0.1,0-0.1-0.1-0.2-0.1c-0.2-0.1-0.3-0.3-0.5-0.4l-1.4-0.9c0,0,0,0,0,0c0,0,0,0,0,0
			c0.2,0.1,0.4,0.3,0.5,0.4c0.1,0,0.1,0.1,0.2,0.1c0.1,0.1,0.2,0.2,0.3,0.3c0,0,0.1,0.1,0.1,0.1l-0.1-0.1c-0.1-0.1-0.2-0.2-0.4-0.2
			c0,0,0,0-0.1,0l-0.7-0.5c-0.2-0.1-0.3-0.2-0.5-0.3c-0.1,0-0.1-0.1-0.2-0.1c-0.1-0.1-0.3-0.1-0.4-0.2c0,0-0.1,0-0.1,0c0,0,0,0,0,0
			l0,0c0,0,0,0,0,0c0,0-0.1,0-0.1,0C13.4,1.1,13.2,1,13.1,1c0,0-0.1,0-0.1,0c-0.2-0.1-0.4-0.1-0.6-0.2c-0.1,0-0.1,0-0.2,0
			c-0.2,0-0.3-0.1-0.5-0.1c-0.1,0-0.1,0-0.2,0c-0.2,0-0.4,0-0.7,0c0,0,0,0,0,0l0,0h0C9.9,0.6,9.1,0.7,8.3,1C8.2,1.1,8.1,1.1,8,1.2
			c-0.1,0-0.2,0.1-0.3,0.2l0.2,0.1c0,0-0.1,0-0.1,0C7.7,1.5,7.6,1.6,7.5,1.6c0,0-0.1,0.1-0.1,0.1C7.2,1.8,7.1,1.8,7,1.9
			c0,0-0.1,0-0.1,0.1C6.8,2,6.7,2.1,6.5,2.2c0,0-0.1,0-0.1,0.1C6.3,2.4,6.3,2.4,6.2,2.5c0,0-0.1,0.1-0.1,0.1C6,2.7,5.9,2.7,5.8,2.8
			c0,0-0.1,0.1-0.1,0.1C5.6,3,5.6,3.1,5.5,3.2c0,0,0,0,0,0C5.4,3.3,5.3,3.4,5.2,3.5c0,0,0,0,0,0c0,0,0,0.1-0.1,0.1
			c0,0-0.1,0.1-0.1,0.1C5,3.8,5,3.8,5,3.9c0,0-0.1,0.1-0.1,0.1c0,0,0,0,0,0c0,0,0,0,0,0.1c0,0.1-0.1,0.2-0.1,0.3c0,0,0,0,0,0.1
			c0,0,0,0,0,0c0,0.1,0,0.1-0.1,0.2c0,0,0,0,0,0.1c0,0,0,0,0,0c0,0.1,0,0.2,0,0.3l0,0c0,0,0,0,0,0c0,0.1,0,0.1,0,0.2c0,0,0,0,0,0
			c0,0,0,0,0,0c0,0.1,0,0.2,0.1,0.3c0,0,0,0,0,0c0,0,0,0,0,0c0,0.1,0.1,0.2,0.1,0.2c0,0,0,0,0,0.1C5,6,5,6.1,5.1,6.2c0,0,0,0,0,0
			c0,0,0,0,0,0c0,0,0.1,0.1,0.1,0.1c0,0,0,0,0.1,0.1c0.1,0.1,0.1,0.1,0.2,0.2l1.2,0.8c0,0-0.1,0-0.1,0c-0.2,0-0.4-0.1-0.7-0.2
			C5.6,7.1,5.4,7,5.2,6.8l0,0c0,0,0,0,0,0l1.4,0.9C6.8,7.9,7,8,7.3,8.1c0.2,0.1,0.5,0.2,0.7,0.2c0.1,0,0.2,0,0.3,0c0,0,0,0,0.1,0
			c0.1,0,0.2-0.1,0.3-0.1c0,0,0,0,0,0C8.7,8.1,8.7,8,8.8,8c0,0,0,0,0,0C8.9,7.9,9,7.9,9.1,7.8c0,0,0,0,0,0c0.1-0.1,0.1-0.1,0.2-0.2
			c0,0,0,0,0,0c0.1-0.1,0.2-0.2,0.3-0.4c0,0,0.1-0.1,0.1-0.1C9.8,7,9.9,6.8,9.9,6.7c0.1-0.1,0.1-0.2,0.2-0.3
			c0.6-0.8,1.6-1.3,2.6-1.3c0.2,0,0.4,0,0.6,0.1c0.3,0.1,0.6,0.2,0.8,0.4c0,0.1,0.1,0.1,0.1,0.2c0,0,0,0.1,0,0.1
			c0,0.1,0.1,0.2,0.1,0.2c0,0,0,0.1,0,0.1c0,0.1,0,0.1,0,0.2c0,0.1,0,0.1,0,0.2c0,0.1,0,0.2,0,0.3c0,0.1,0,0.3-0.1,0.4c0,0,0,0,0,0
			c0,0.1-0.1,0.2-0.1,0.4C14.1,7.8,14.1,7.9,14,8c-0.1,0.1-0.2,0.2-0.2,0.3c0,0-0.1,0.1-0.1,0.1c-0.1,0.1-0.1,0.1-0.2,0.2
			c0,0-0.1,0.1-0.1,0.1c-0.1,0.1-0.1,0.1-0.2,0.2c0,0-0.1,0-0.1,0.1C13,8.9,12.9,9,12.8,9c0,0,0,0-0.1,0c-0.1,0.1-0.2,0.1-0.3,0.2
			c0,0-0.1,0-0.1,0c-0.1,0-0.2,0.1-0.2,0.1c0,0-0.1,0-0.1,0c-0.1,0-0.2,0.1-0.2,0.1c0,0-0.1,0-0.1,0c-0.1,0-0.2,0-0.2,0.1
			c0,0-0.1,0-0.1,0c-0.1,0-0.2,0.1-0.3,0.1c0,0,0,0-0.1,0c-0.1,0-0.2,0-0.2,0.1c0,0-0.1,0-0.1,0c-0.1,0-0.1,0-0.2,0c0,0-0.1,0-0.1,0
			c-0.1,0-0.1,0-0.2,0c0,0-0.1,0-0.1,0c-0.1,0-0.1,0-0.2,0l-0.2,0c-0.1,0-0.2,0-0.3,0c0,0-0.1,0-0.1,0C9.1,10,9,10,9,10
			c0,0-0.1,0-0.1,0c-0.1,0-0.1,0-0.2,0c0,0-0.1,0-0.1,0c-0.1,0-0.1,0-0.2,0c0,0-0.1,0-0.1,0c-0.1,0-0.1,0-0.2,0.1c0,0-0.1,0-0.1,0.1
			c0,0-0.1,0.1-0.1,0.1c0,0-0.1,0.1-0.1,0.1c0,0-0.1,0.1-0.1,0.1c0,0-0.1,0.1-0.1,0.1c0,0,0,0-0.1,0.1c0,0-0.1,0.1-0.1,0.1l0,0
			c0,0,0,0.1-0.1,0.1c0,0,0,0,0,0c0,0,0,0,0,0c0,0,0,0,0,0.1c0,0,0,0.1,0,0.1c0,0,0,0,0,0c0,0,0,0,0,0c0,0,0,0.1,0,0.1c0,0,0,0,0,0
			c0,0,0,0.1,0,0.1c0,0,0,0,0,0.1l0,0c0,0.1,0.1,0.1,0.1,0.2c0,0,0,0,0,0c0,0,0.1,0.1,0.1,0.1c0,0,0,0,0,0c0,0,0,0,0,0
			c0.1,0.1,0.2,0.2,0.3,0.2l0,0l0,0l0,0c0,0,0,0,0,0L8.9,13c-0.2,0-0.3,0-0.5-0.1c-0.3-0.1-0.5-0.2-0.8-0.3L9,13.5
			c0.2,0.2,0.5,0.3,0.8,0.3c0.3,0.1,0.7,0.1,1,0.1c0.1,0,0.2,0,0.2,0c0.5,0,1.1-0.2,1.6-0.3c0.7-0.1,1.4-0.3,2.1-0.3
			c0.4,0,0.8,0.1,1.1,0.2c0.2,0.1,0.3,0.1,0.5,0.2c0,0,0,0,0,0c0,0.1,0.1,0.1,0.1,0.2c0,0,0,0.1,0,0.1c0,0.1,0.1,0.2,0.1,0.3
			c0,0.1,0,0.3,0,0.5c0,0.1,0,0.2,0,0.3c0,0.2-0.1,0.3-0.1,0.5c0,0.1,0,0.2-0.1,0.3c0,0.1-0.1,0.2-0.1,0.3c0,0.1-0.1,0.2-0.1,0.3
			c-0.1,0.2-0.1,0.3-0.2,0.4c0,0,0,0,0,0c-0.1,0.2-0.2,0.3-0.3,0.4c0,0,0,0,0,0c-0.1,0.1-0.2,0.3-0.4,0.4c0,0,0,0-0.1,0.1
			c-0.1,0.1-0.3,0.2-0.4,0.3c0,0-0.1,0-0.1,0.1c-0.2,0.1-0.3,0.2-0.5,0.3c0,0,0,0-0.1,0c-0.2,0.1-0.4,0.1-0.6,0.2
			C13.1,19,12.6,19,12.2,19c-0.8,0-1.6-0.2-2.3-0.6c0,0-0.1,0-0.1-0.1c-0.1-0.1-0.3-0.2-0.4-0.3c-0.1-0.1-0.1-0.1-0.2-0.2
			c-0.1-0.1-0.3-0.3-0.4-0.4c0,0-0.1-0.1-0.1-0.1c-0.2-0.2-0.4-0.4-0.5-0.6l0,0c0,0,0,0,0,0C8.1,16.6,8,16.6,8,16.5l-1.4-0.9
			c-0.2-0.2-0.5-0.2-0.8-0.2c-0.1,0-0.1,0-0.2,0c0,0,0,0-0.1,0c-0.1,0-0.1,0-0.2,0c0,0,0,0-0.1,0c-0.1,0-0.1,0-0.2,0.1c0,0,0,0,0,0
			c-0.1,0-0.1,0.1-0.2,0.1c0,0,0,0-0.1,0c0,0-0.1,0.1-0.1,0.1c0,0,0,0-0.1,0c-0.1,0-0.1,0.1-0.2,0.1c0,0,0,0,0,0
			c-0.1,0.1-0.1,0.1-0.2,0.2c0,0,0,0,0,0.1c0,0-0.1,0.1-0.1,0.2c0,0,0,0,0,0c0,0,0,0,0,0c-0.1,0.1-0.1,0.2-0.2,0.4c0,0,0,0,0,0
			c0,0,0,0,0,0c0,0.1-0.1,0.2-0.1,0.3c0,0,0,0,0,0c0,0,0,0,0,0c0,0.1,0,0.1,0,0.2c0,0,0,0,0,0l0,0.1c0,0.1,0,0.2,0,0.3c0,0,0,0,0,0
			c0,0,0,0,0,0c0,0.1,0,0.2,0,0.3c0,0,0,0,0,0c0,0,0,0,0,0c0,0.1,0,0.2,0.1,0.3l0,0c0,0.1,0.1,0.2,0.1,0.3c0,0,0,0,0,0c0,0,0,0,0,0
			c0,0.1,0.1,0.1,0.1,0.2c0,0,0,0.1,0,0.1c0,0.1,0.1,0.2,0.1,0.2c0,0,0,0,0,0c0.1,0.1,0.1,0.2,0.2,0.2c0,0,0,0,0.1,0.1
			c0,0.1,0.1,0.1,0.2,0.2c0,0,0,0,0,0c0,0,0,0,0,0C4.7,20,4.9,20.1,5,20.3c0,0,0,0,0,0c0.2,0.1,0.4,0.3,0.5,0.4l1.2,0.8
			c0,0,0.1,0.1,0.1,0.1l0.1,0c0.6,0.4,1.2,0.7,1.6,0.9c-0.2-0.1-0.5-0.1-0.7-0.2c-0.5-0.2-1.5-0.6-2.5-1.3c0.5,0.3,0.9,0.6,1.4,0.9
			c1,0.7,2,1.1,2.5,1.3c0.9,0.3,1.9,0.5,3,0.5c2.5,0,4.9-0.9,6.4-2.3c0.2-0.2,0.4-0.4,0.5-0.6c0-0.1,0.1-0.1,0.1-0.2
			c0.1-0.1,0.2-0.3,0.3-0.4c0,0,0.1-0.1,0.1-0.1c0,0,0-0.1,0.1-0.1c0.1-0.1,0.1-0.2,0.2-0.3c0-0.1,0.1-0.1,0.1-0.2
			c0.1-0.1,0.1-0.3,0.2-0.4c0-0.1,0.1-0.1,0.1-0.2c0,0,0,0,0,0c0-0.1,0.1-0.1,0.1-0.2c0-0.1,0.1-0.2,0.1-0.3c0-0.1,0.1-0.2,0.1-0.2
			c0-0.1,0.1-0.2,0.1-0.2c0,0,0-0.1,0-0.1c0-0.1,0-0.1,0.1-0.2c0-0.1,0.1-0.2,0.1-0.3c0-0.1,0-0.1,0-0.2c0,0,0-0.1,0-0.1
			c0-0.1,0-0.1,0-0.2c0-0.1,0-0.1,0-0.2C21.2,16.4,21.2,16.3,21.2,16.2z M13,4.7c0.1,0,0.3,0,0.4,0.1c0.1,0,0.2,0.1,0.3,0.1
			c0.1,0.1,0.1,0.1,0.2,0.2c0,0,0,0.1,0.1,0.1c0.1,0.1,0.1,0.1,0.1,0.2c0,0,0,0,0,0.1c0,0,0,0.1,0,0.1L13,4.7z M15.3,13
			c0.2,0,0.4,0.1,0.6,0.1c0,0,0,0,0,0c0,0,0.1,0.1,0.1,0.1c0,0,0,0.1,0.1,0.1c0.1,0.1,0.1,0.2,0.2,0.3L15.3,13z"/>
	</g>
	<linearGradient id="SVGID_3_" gradientUnits="userSpaceOnUse" x1="-12.927" y1="11.0209" x2="25.2327" y2="11.9994">
		<stop  offset="0.2658" style="stop-color:#008CE7"/>
		<stop  offset="0.7858" style="stop-color:#2F5397"/>
		<stop  offset="1" style="stop-color:#28418D"/>
	</linearGradient>
	<path class="st3" d="M18.7,11.9c-0.6-1.1-1.6-2.1-2.7-2.6l-0.2-0.1L15.9,9c1.4-2.2,1.4-4.2-0.1-6c-1.1-1.4-3-2.2-5.1-2.2
		c-0.9,0-1.7,0.1-2.4,0.4c0,0,0.1,0,0.1,0c0,0-0.1,0-0.1,0C6.2,2.1,4.7,3.7,4.6,5c0,0.8,0.5,1.4,1.4,1.8c0.2,0.1,0.4,0.1,0.5,0.1
		c0.7,0,1.2-0.7,1.7-1.4c0.1-0.1,0.1-0.2,0.2-0.3c0.7-0.9,1.8-1.5,2.9-1.5c0.2,0,0.5,0,0.7,0.1c1.3,0.3,2.5,1.6,2.4,3
		c-0.3,2.4-3.6,3-4.7,3.1l-0.2,0c-0.8,0.1-1.9,0.2-2.3,0.9c-0.1,0.3-0.1,0.5,0,0.8c0.2,0.4,0.7,0.7,1.1,0.8c0.3,0.1,0.6,0.1,0.9,0.1
		c0.1,0,0.1,0,0.2,0c0.5,0,1-0.2,1.6-0.3c0.7-0.1,1.4-0.3,2.2-0.3c0.4,0,0.8,0.1,1.2,0.2c1.3,0.4,2.1,1.6,1.9,3
		c-0.2,1.9-1.3,3.2-3.1,3.7C13.1,19,12.6,19,12.2,19c-2.2,0-3.8-1.5-5.3-3.2c-0.3-0.3-0.7-0.5-1.1-0.5c-1,0-2.1,1-2.2,2.1
		C3.3,20,6.9,21.5,8.1,22c0.8,0.3,1.8,0.5,2.8,0.5c0.1,0,0.2,0,0.3,0c2.3-0.1,4.4-0.9,5.9-2.2C19.5,18,20.2,14.6,18.7,11.9z"/>
	<linearGradient id="SVGID_4_" gradientUnits="userSpaceOnUse" x1="8.3811" y1="11.6288" x2="19.4809" y2="11.6288">
		<stop  offset="4.081630e-02" style="stop-color:#0057E7"/>
		<stop  offset="0.7858" style="stop-color:#2F5397"/>
		<stop  offset="1" style="stop-color:#28418D"/>
	</linearGradient>
	<path class="st4" d="M10.8,0.8c2.1,0,4,0.8,5.1,2.2c1.4,1.8,1.4,3.8,0.1,6l-0.1,0.2L16,9.3c1.1,0.5,2.2,1.5,2.7,2.6
		c1.4,2.7,0.8,6.1-1.7,8.4c-1.4,1.3-3.6,2.2-5.9,2.2c0.8-0.2,1.5-0.4,2.3-0.8c2.3-1.1,4-3.2,4.5-5.7c0.5-2.8-1.1-5.7-3.9-6.3
		c1-1.3,1.5-2.9,1.1-4.5c-0.5-1.9-2.5-3.2-4.3-3.7c-0.6-0.2-1.2-0.3-1.8-0.3c-0.2,0-0.5,0-0.7,0C9.1,0.9,9.9,0.8,10.8,0.8z"/>
	<linearGradient id="SVGID_5_" gradientUnits="userSpaceOnUse" x1="4.9812" y1="11.552" x2="24.5497" y2="11.813">
		<stop  offset="6.632650e-02" style="stop-color:#5C9AFF"/>
		<stop  offset="1" style="stop-color:#28418D"/>
	</linearGradient>
	<path class="st5" d="M19.1,11.7c-0.6-1.1-1.6-2.1-2.7-2.7c1.4-2.3,1.3-4.4-0.2-6.3C15,1.3,13,0.4,10.8,0.4C9.9,0.4,9,0.6,8.2,0.9
		c-2.3,0.9-4,2.6-4,4.2c0,0.7,0.3,1.6,1.7,2.2c0.2,0.1,0.5,0.2,0.7,0.2c0.9,0,1.5-0.8,2-1.5c0.1-0.1,0.1-0.2,0.2-0.3
		c0.6-0.8,1.6-1.3,2.6-1.3c0.2,0,0.4,0,0.6,0.1c1.1,0.3,2.2,1.3,2.1,2.5c-0.2,1.7-2.4,2.5-4.3,2.7l-0.2,0C8.7,9.6,7.5,9.8,7,10.7
		c-0.2,0.4-0.2,0.8,0,1.2c0.2,0.5,0.8,0.9,1.4,1C8.7,12.9,9,13,9.4,13c0.1,0,0.2,0,0.2,0c0.5,0,1.1-0.2,1.6-0.3
		c0.7-0.1,1.4-0.3,2.1-0.3c0.4,0,0.8,0.1,1.1,0.2c1.1,0.3,1.8,1.3,1.7,2.6c-0.2,1.7-1.2,2.9-2.8,3.3c-0.4,0.1-0.8,0.2-1.2,0.2
		c-2,0-3.6-1.5-5-3c-0.4-0.4-0.9-0.7-1.4-0.7c-1.2,0-2.4,1.2-2.6,2.5c-0.4,2.8,3.5,4.5,4.7,4.9c0.9,0.3,1.9,0.5,3,0.5
		c2.5,0,4.9-0.9,6.4-2.3C19.9,18.1,20.6,14.6,19.1,11.7z M3.6,17.4c0.1-1.1,1.2-2.1,2.2-2.1c0.4,0,0.8,0.2,1.1,0.5
		c1.5,1.6,3.1,3.2,5.3,3.2c0.4,0,0.8-0.1,1.3-0.2c1.7-0.4,2.8-1.8,3.1-3.7c0.2-1.4-0.6-2.6-1.9-3c-0.4-0.1-0.8-0.2-1.2-0.2
		c-0.7,0-1.5,0.1-2.2,0.3c-0.5,0.1-1,0.2-1.6,0.3c-0.1,0-0.2,0-0.2,0c-0.3,0-0.7,0-0.9-0.1c-0.5-0.1-1-0.4-1.1-0.8
		c-0.1-0.3-0.1-0.5,0-0.8c0.4-0.7,1.4-0.8,2.3-0.9l0.2,0c1-0.1,4.3-0.7,4.7-3.1c0.2-1.4-1.1-2.7-2.4-3c-0.2-0.1-0.4-0.1-0.7-0.1
		c-1.1,0-2.2,0.6-2.9,1.5C8.4,5.4,8.3,5.5,8.3,5.6C7.8,6.2,7.3,7,6.6,6.9c-0.2,0-0.3,0-0.5-0.1C5.1,6.4,4.6,5.8,4.6,5
		c0-1.4,1.6-3,3.8-3.8c0.7-0.3,1.6-0.4,2.4-0.4c2.1,0,4,0.8,5.1,2.2c1.4,1.8,1.4,3.8,0.1,6l-0.1,0.2L16,9.3c1.1,0.5,2.2,1.5,2.7,2.6
		c1.4,2.7,0.8,6.1-1.7,8.4c-1.4,1.3-3.6,2.2-5.9,2.2c-0.1,0-0.2,0-0.3,0c-1,0-2-0.2-2.8-0.5C6.9,21.5,3.3,20,3.6,17.4z"/>
</g>
</svg>
