<?xml version="1.0" encoding="utf-8"?>
<!-- Generator: Adobe Illustrator 24.0.1, SVG Export Plug-In . SVG Version: 6.00 Build 0)  -->
<svg version="1.1" id="Capa_1" xmlns="http://www.w3.org/2000/svg" xmlns:xlink="http://www.w3.org/1999/xlink" x="0px" y="0px"
	 viewBox="0 0 25 25" style="enable-background:new 0 0 25 25;" xml:space="preserve">
<style type="text/css">
	.st0{fill:#B4B4B4;}
	.st1{fill:url(#SVGID_1_);}
	.st2{fill:url(#SVGID_2_);}
	.st3{opacity:0.3;fill:url(#SVGID_3_);}
	.st4{fill:url(#SVGID_4_);}
</style>
<g>
	<path class="st0" d="M6.4,23.5L6.4,23.5L6.4,23.5L6.4,23.5L6.4,23.5z M6.6,23.1L6.6,23.1L6.6,23.1L6.6,23.1L6.6,23.1z M5.2,22.7
		c0,0-0.1-0.1-0.1-0.1l0,0C5.1,22.6,5.2,22.6,5.2,22.7L5.2,22.7z M20.2,4.2L20.2,4.2L20.2,4.2L20.2,4.2L20.2,4.2z M20.4,2.7
		c-0.1-0.1-0.3-0.2-0.4-0.3C20.1,2.5,20.3,2.6,20.4,2.7L20.4,2.7z M17.7,1.6c-0.3,0-0.7,0-1,0.1c-0.3,0-0.5,0.1-0.8,0.1
		c-0.3,0-0.7,0-1,0c-0.5,0-0.9,0-1.4,0c-0.5,0-0.9,0-1.3,0.1c-0.8,0-1.6,0.1-2.4,0.1c0,0-0.1,0-0.1,0c-0.3,0-0.6,0-0.9,0l-0.4,0
		c-0.4,0-0.8,0-1.2,0c0,0,0,0-0.1,0c-0.8,0-1.5,0.1-2,0.3C4.7,2.3,4.3,2.6,4.3,3C4,4.1,5.6,5.7,5.9,6C6,6.1,6.2,6.2,6.3,6.3l0,0
		l1.3,0.9c0.5,0.4,1.2,0.6,2.1,0.6c0,0,0,0,0,0c0.5,0,1-0.1,1.5-0.1c1.1-0.2,2.3-0.3,3.6-0.5c-1.4,1.8-2.8,3.5-4.1,5.2
		c-1.1,1.4-2.1,2.9-3.1,4.4l-0.5,0.8c-0.3,0.4-0.6,0.8-0.9,1.2c-0.7,0.9-1.5,1.8-1.8,2.8c-0.1,0.2-0.1,0.5-0.1,0.7l0,0.1
		c0,0.1,0.1,0.1,0.1,0.2c0.1,0.2,0.4,0.4,0.6,0.6L5,23l1.3,0.9c0.5,0.4,1.3,0.5,1.9,0.5c0,0,0,0,0,0c0.6,0,1.2-0.1,1.8-0.3l0.1-0.1
		c0.1,0,0.1-0.1,0.2-0.2c0.1-0.2,0.3-0.3,0.4-0.5l0,0l0-0.1c0.1-0.2,0.3-0.4,0.4-0.6c0-0.1,0.1-0.1,0.1-0.2c0.1-0.2,0.3-0.4,0.4-0.7
		c0.2-0.4,0.5-0.8,0.7-1.2c0.1-0.1,0.2-0.3,0.3-0.4l0.2-0.3l0.3-0.6c0.8-1.4,1.7-2.9,2.6-4.4l0.4-0.6c0.8-1.2,1.6-2.5,2.5-3.8
		c0.6-1.1,1.1-2,1.6-2.9c0.1-0.2,0.2-0.4,0.4-0.6C20.9,7.1,21,7,21.1,6.8c0,0,0-0.1,0.1-0.1c0.1-0.1,0.2-0.3,0.2-0.4l0-0.1
		c0.1-0.1,0.1-0.2,0.2-0.4l0-0.1c0,0,0-0.1,0-0.1c0.1-0.2,0.1-0.3,0.2-0.5l0,0C22,5,22,4.9,22,4.8l0,0l0,0c0-0.1,0-0.2,0-0.3l0,0
		c0-0.1,0-0.1,0-0.2C22,4.1,22,4.1,22,4l0-0.1l0-0.1c0-0.1-0.1-0.1-0.2-0.2l0,0c-0.1-0.1-0.3-0.3-0.5-0.4l-1.3-0.9l0,0
		c-0.5-0.3-1-0.5-1.7-0.7C18.1,1.7,17.9,1.6,17.7,1.6C17.7,1.6,17.7,1.6,17.7,1.6L17.7,1.6z"/>
	<linearGradient id="SVGID_1_" gradientUnits="userSpaceOnUse" x1="15.1541" y1="-0.7837" x2="-0.3826" y2="23.1485">
		<stop  offset="0.3949" style="stop-color:#6D5214"/>
		<stop  offset="1" style="stop-color:#000000"/>
	</linearGradient>
	<path class="st1" d="M21,3.6C21,3.6,21,3.6,21,3.6c0-0.1,0-0.2,0-0.2c0-0.1,0-0.1-0.1-0.2c0,0,0-0.1,0-0.1c0,0,0,0,0-0.1
		c0-0.1-0.1-0.1-0.2-0.2l0,0c-0.1-0.1-0.3-0.3-0.5-0.4l-1.3-0.9c0.2,0.1,0.3,0.2,0.5,0.4c0.1,0.1,0.1,0.2,0.2,0.2c0,0,0,0,0,0.1
		c0,0,0,0,0,0C19.3,2,19,1.9,18.8,1.7c-0.2-0.1-0.4-0.3-0.7-0.4c-0.3-0.1-0.6-0.2-0.9-0.3c0,0-0.1,0-0.1,0c-0.1,0-0.3,0-0.4,0
		c-0.6,0-1.2,0.1-1.8,0.1c-0.3,0-0.6,0-0.9,0c-0.5,0-1,0-1.5,0c-0.3,0-0.7,0-1,0c-0.3,0-0.6,0-0.9,0c-0.1,0-0.2,0-0.3,0
		c-0.2,0-0.4,0-0.6,0c-0.1,0-0.3,0-0.4,0c-0.2,0-0.4,0-0.6,0c-0.3,0-0.6,0-0.9,0c-0.5,0-1-0.1-1.5-0.1c-0.7,0-1.4,0-2,0.2
		C4,1.6,3.8,1.6,3.7,1.7l0.2,0.1c0,0-0.1,0-0.1,0.1c0,0,0,0,0,0C3.7,2,3.7,2,3.7,2c0,0,0,0,0,0L3.6,2.1c0,0,0,0,0,0l0,0.1l0,0l0,0
		c0,0,0,0.1,0,0.1c0,0,0,0,0,0c0,0,0,0,0,0c0,0,0,0,0,0c0,0,0,0.1,0,0.1c0,0,0,0,0,0c0,0,0,0,0,0c0,0,0,0.1,0,0.1c0,0,0,0,0,0.1
		c0,0,0,0.1,0,0.1c0,0,0,0,0,0c0,0,0,0,0,0c0,0,0,0.1,0.1,0.1c0,0,0,0.1,0,0.1c0,0,0,0.1,0.1,0.1c0,0,0,0,0,0.1c0,0,0.1,0.1,0.1,0.1
		c0,0,0,0,0,0.1c0,0,0.1,0.1,0.1,0.1c0,0,0,0,0,0.1c0,0.1,0.1,0.1,0.1,0.2c0,0,0,0,0,0c0,0.1,0.1,0.1,0.2,0.2c0,0,0,0,0,0
		c0,0,0.1,0.1,0.1,0.1c0,0,0,0,0.1,0.1c0,0,0.1,0.1,0.1,0.1c0,0,0,0,0,0c0,0,0,0,0,0c0,0,0.1,0.1,0.1,0.1c0,0,0,0,0,0
		C5,4.8,5.1,4.9,5.1,4.9C5.2,5,5.3,5.1,5.4,5.1L6.6,6c-0.6-0.1-1-0.2-1.4-0.5l1.3,0.9c0.5,0.4,1.2,0.6,2.1,0.6
		c0.5,0,1.1-0.1,1.6-0.1c1.2-0.2,2.7-0.4,4.2-0.6c-0.1,0.1-0.1,0.2-0.2,0.3c-1.4,1.8-2.8,3.5-4.1,5.3c-0.3,0.4-0.7,0.9-1,1.3
		c0,0-0.1,0.1-0.1,0.1c-0.1,0.1-0.1,0.2-0.2,0.3c-0.2,0.3-0.5,0.7-0.7,1c-0.1,0.1-0.2,0.2-0.2,0.4c-0.3,0.4-0.6,0.8-0.8,1.3
		l-0.5,0.8c-0.1,0.2-0.2,0.3-0.4,0.5C6,17.4,6,17.5,6,17.5c-0.1,0.2-0.3,0.4-0.4,0.6c-0.1,0.1-0.2,0.3-0.4,0.5c0,0-0.1,0.1-0.1,0.1
		c-0.1,0.2-0.2,0.3-0.4,0.5c0,0,0,0,0,0.1c0,0,0,0,0,0.1c-0.1,0.2-0.2,0.3-0.3,0.5c0,0,0,0,0,0c-0.1,0.2-0.2,0.3-0.3,0.5
		c0,0,0,0,0,0.1c0,0,0,0,0,0.1c-0.1,0.2-0.1,0.3-0.2,0.5l0,0c0,0.1,0,0.2-0.1,0.2c0,0,0,0,0,0c0,0,0,0,0,0c0,0.1,0,0.1,0,0.2l0,0.1
		l0,0l0.1,0.1c0,0.1,0.1,0.1,0.2,0.2c0,0,0,0,0,0c0.1,0.1,0.2,0.1,0.2,0.2c0.4,0.3,0.8,0.5,1.2,0.8c-0.5-0.1-1-0.2-1.4-0.5l1.3,0.9
		c0.5,0.4,1.3,0.5,1.9,0.5c0.6,0,1.2-0.1,1.8-0.3l0.1-0.1c0.1,0,0.1-0.1,0.2-0.2c0.1-0.2,0.3-0.3,0.4-0.5c0,0,0,0,0,0
		c0,0,0-0.1,0.1-0.1c0.1-0.2,0.3-0.4,0.4-0.6c0-0.1,0.1-0.1,0.1-0.2c0.1-0.2,0.3-0.4,0.4-0.6c0.2-0.4,0.5-0.8,0.7-1.2
		c0.1-0.1,0.2-0.3,0.3-0.4l0.2-0.3l0.3-0.6c0.8-1.4,1.7-2.9,2.6-4.4l0.4-0.6c0.8-1.2,1.6-2.5,2.5-3.8c0.6-1.1,1.1-2,1.6-2.9
		c0.1-0.2,0.2-0.4,0.4-0.6C19.9,6.3,20,6.2,20,6c0,0,0.1-0.1,0.1-0.1c0.1-0.1,0.2-0.3,0.2-0.4c0,0,0,0,0-0.1
		c0.1-0.1,0.1-0.2,0.2-0.4c0,0,0-0.1,0-0.1c0,0,0-0.1,0.1-0.1c0.1-0.2,0.1-0.3,0.2-0.5l0,0c0-0.1,0.1-0.2,0.1-0.3c0,0,0,0,0,0
		c0,0,0,0,0,0C21,3.8,21,3.7,21,3.6z"/>
	<linearGradient id="SVGID_2_" gradientUnits="userSpaceOnUse" x1="2.851" y1="7.2019" x2="16.6021" y2="14.6806">
		<stop  offset="0" style="stop-color:#FFCF45"/>
		<stop  offset="0.2136" style="stop-color:#FAC83E"/>
		<stop  offset="0.5321" style="stop-color:#ECB329"/>
		<stop  offset="0.9146" style="stop-color:#D69208"/>
		<stop  offset="1" style="stop-color:#D08A00"/>
	</linearGradient>
	<path class="st2" d="M19.1,2.2c-0.5-0.5-1.1-0.8-2-0.9c-0.1,0-0.3,0-0.5,0c-0.3,0-0.6,0-1,0.1c-0.3,0-0.5,0.1-0.8,0.1
		c-0.3,0-0.7,0-1,0c-0.5,0-0.9,0-1.4,0c-0.4,0-0.9,0-1.3,0.1c-0.8,0-1.7,0.1-2.5,0.1c-0.3,0-0.6,0-0.9,0l-0.4,0c-0.4,0-0.8,0-1.2,0
		c-0.8,0-1.4,0.1-1.9,0.2C4.1,1.7,4,1.8,3.9,1.8C3.7,1.9,3.6,2.1,3.6,2.3c-0.2,0.8,0.9,2,1.6,2.6c0.5,0.5,1.2,0.7,2.2,0.7
		c0.5,0,1-0.1,1.5-0.1c1.4-0.2,3-0.4,4.7-0.7c0.2,0,0.4,0,0.6-0.1c0.2,0,0.4-0.1,0.7-0.1c0.1,0,0.3,0,0.4,0l0.3,0.1L15.2,5
		c-0.3,0.3-0.4,0.5-0.6,0.8c-0.1,0.2-0.3,0.4-0.5,0.7c-1.4,1.8-2.8,3.5-4.1,5.3c-1.1,1.4-2.1,2.9-3,4.4l-0.5,0.8
		c-0.3,0.4-0.6,0.8-0.9,1.3c-0.7,0.9-1.4,1.8-1.7,2.7c-0.1,0.2-0.1,0.4-0.1,0.5c0,0,0,0.1,0.1,0.1c0.4,0.6,1.4,0.9,2.1,0.9
		c0.1,0,0.2,0,0.3,0c0.5,0,0.9-0.1,1.4-0.3c0,0,0.1-0.1,0.2-0.1c0.5-0.6,0.9-1.3,1.4-2c0.2-0.4,0.5-0.8,0.8-1.2
		c0.1-0.1,0.2-0.3,0.3-0.4l0.2-0.3l0.3-0.6c0.8-1.4,1.7-2.9,2.6-4.4l0.4-0.6c0.8-1.2,1.6-2.5,2.5-3.7c0.6-1,1.1-2,1.6-2.9
		c0.1-0.2,0.2-0.4,0.4-0.6c0.4-0.6,0.8-1.3,1-2c0.1-0.3,0.1-0.5,0.1-0.8C19.2,2.4,19.2,2.3,19.1,2.2z"/>
	<linearGradient id="SVGID_3_" gradientUnits="userSpaceOnUse" x1="3.9382" y1="11.78" x2="19.2701" y2="11.78">
		<stop  offset="0" style="stop-color:#FFCF45"/>
		<stop  offset="0.1276" style="stop-color:#F8C943"/>
		<stop  offset="0.318" style="stop-color:#E3B73C"/>
		<stop  offset="0.5476" style="stop-color:#C29B31"/>
		<stop  offset="0.8055" style="stop-color:#947421"/>
		<stop  offset="1" style="stop-color:#6D5214"/>
	</linearGradient>
	<path class="st3" d="M16.6,1.2c0.2,0,0.3,0,0.5,0c0.9,0.2,1.5,0.5,2,0.9c0.1,0.1,0.2,0.2,0.2,0.3c0,0.2,0,0.5-0.1,0.8
		c-0.2,0.7-0.6,1.4-1,2c-0.1,0.2-0.3,0.4-0.4,0.6c-0.5,0.9-1.1,1.8-1.6,2.9c-0.9,1.2-1.7,2.5-2.5,3.7l-0.4,0.6
		c-0.9,1.4-1.8,2.9-2.6,4.4L10.3,18l-0.2,0.3c-0.1,0.1-0.2,0.3-0.3,0.4c-0.3,0.4-0.5,0.8-0.8,1.2c-0.4,0.7-0.9,1.4-1.4,2
		c0,0-0.1,0.1-0.2,0.1c-0.5,0.2-1,0.3-1.4,0.3c2.6-4,5.1-8.1,7.7-12.1c0.8-1.3,1.8-2.5,2.7-3.8c0.7-0.9,1.6-2.2,1.5-3.4
		c-0.1-1.2-1.7-1.3-2.6-1.4c-0.3,0-0.7,0-1-0.1c-1.7,0-3.5,0.3-5.2,0.6C8.6,2.2,8,2.3,7.5,2.2c-0.6,0-1.3,0-1.9-0.1
		C5,2.1,4.5,2,3.9,1.8C4,1.8,4.1,1.7,4.3,1.7c0.5-0.2,1.1-0.2,1.9-0.2c0.4,0,0.8,0,1.2,0l0.4,0c0.3,0,0.6,0,0.9,0
		c0.8,0,1.7,0,2.5-0.1c0.4,0,0.9,0,1.3-0.1c0.5,0,0.9,0,1.4,0c0.3,0,0.7,0,1,0c0.3,0,0.5,0,0.8-0.1C16,1.3,16.3,1.2,16.6,1.2z"/>
	<linearGradient id="SVGID_4_" gradientUnits="userSpaceOnUse" x1="3.6365" y1="11.017" x2="22.3575" y2="12.8988">
		<stop  offset="5.102040e-03" style="stop-color:#FFF05C"/>
		<stop  offset="1" style="stop-color:#E7AD00"/>
	</linearGradient>
	<path class="st4" d="M19.6,2.5c-0.1-0.2-0.2-0.4-0.3-0.5c-0.5-0.5-1.2-0.9-2.2-1c-0.2,0-0.3,0-0.5,0c-0.3,0-0.7,0-1,0.1
		c-0.3,0-0.5,0.1-0.8,0.1c-0.3,0-0.7,0-1,0c-0.5,0-0.9,0-1.4,0c-0.5,0-0.9,0-1.3,0.1c-0.8,0-1.7,0.1-2.5,0.1c-0.3,0-0.6,0-0.9,0
		l-0.4,0c-0.4,0-0.8,0-1.2,0C5.4,1,4.7,1.1,4.2,1.3c-0.5,0.2-0.9,0.5-1,0.9c-0.3,1.1,1.3,2.7,1.7,3C5.5,5.7,6.2,6,7.3,6
		c0.5,0,1.1-0.1,1.6-0.1c1.4-0.2,3-0.4,4.7-0.7c0.2,0,0.4-0.1,0.6-0.1C14.3,5,14.5,5,14.7,5c-0.2,0.2-0.3,0.4-0.4,0.6
		C14.2,5.8,14,6,13.9,6.2c-1.4,1.8-2.8,3.5-4.1,5.3c-1.1,1.4-2.1,2.9-3.1,4.4l-0.5,0.8c-0.3,0.4-0.6,0.8-0.9,1.2
		c-0.7,0.9-1.5,1.8-1.8,2.8c-0.1,0.2-0.1,0.5-0.1,0.7l0,0.1c0,0.1,0.1,0.1,0.1,0.2c0.5,0.8,1.6,1,2.4,1.1c0.6,0,1.2-0.1,1.8-0.3
		l0.1-0.1c0.1,0,0.1-0.1,0.2-0.2c0.5-0.6,1-1.4,1.4-2.1c0.2-0.4,0.5-0.8,0.7-1.2c0.1-0.1,0.2-0.3,0.3-0.4l0.2-0.3l0.3-0.6
		c0.8-1.4,1.7-2.9,2.6-4.4l0.4-0.6c0.8-1.2,1.6-2.5,2.5-3.8c0.6-1.1,1.1-2,1.6-2.9c0.1-0.2,0.2-0.4,0.4-0.6c0.4-0.6,0.8-1.3,1.1-2.1
		C19.6,3.1,19.7,2.8,19.6,2.5z M5.9,22.3c-0.7,0-1.7-0.2-2.1-0.9c0,0,0-0.1-0.1-0.1c0-0.2,0-0.4,0.1-0.5c0.3-0.9,1-1.8,1.7-2.7
		c0.3-0.4,0.7-0.8,0.9-1.3L7,16.1c1-1.5,2-3,3-4.4c1.3-1.7,2.7-3.5,4.1-5.3c0.2-0.2,0.3-0.5,0.5-0.7C14.8,5.5,15,5.2,15.2,5l0.2-0.2
		l-0.3-0.1c-0.1,0-0.3,0-0.4,0c-0.2,0-0.4,0-0.7,0.1c-0.2,0-0.3,0.1-0.6,0.1c-1.7,0.3-3.3,0.5-4.7,0.7c-0.5,0.1-1,0.1-1.5,0.1
		c-0.9,0-1.6-0.2-2.2-0.7C4.5,4.3,3.4,3.1,3.6,2.3c0-0.2,0.2-0.3,0.4-0.5C4,1.8,4.1,1.7,4.3,1.7c0.5-0.2,1.1-0.2,1.9-0.2
		c0.4,0,0.8,0,1.2,0l0.4,0c0.3,0,0.6,0,0.9,0c0.8,0,1.7,0,2.5-0.1c0.4,0,0.9,0,1.3-0.1c0.5,0,0.9,0,1.4,0c0.3,0,0.7,0,1,0
		c0.3,0,0.5,0,0.8-0.1c0.3,0,0.7-0.1,1-0.1c0.2,0,0.3,0,0.5,0c0.9,0.2,1.5,0.5,2,0.9c0.1,0.1,0.2,0.2,0.2,0.3c0,0.2,0,0.5-0.1,0.8
		c-0.2,0.7-0.6,1.3-1,1.9c-0.1,0.2-0.3,0.4-0.4,0.6c-0.5,0.9-1.1,1.8-1.6,2.9c-0.9,1.2-1.7,2.5-2.5,3.7l-0.4,0.6
		c-0.9,1.4-1.8,2.9-2.6,4.4L10.3,18l-0.2,0.3c-0.1,0.1-0.2,0.3-0.3,0.4c-0.3,0.4-0.5,0.8-0.8,1.2c-0.4,0.7-0.9,1.4-1.4,2
		c0,0-0.1,0.1-0.2,0.1c-0.5,0.2-0.9,0.3-1.4,0.3C6.1,22.3,6,22.3,5.9,22.3z"/>
</g>
</svg>
