<?xml version="1.0" encoding="utf-8"?>
<!-- Generator: Adobe Illustrator 24.0.1, SVG Export Plug-In . SVG Version: 6.00 Build 0)  -->
<svg version="1.1" id="Capa_1" xmlns="http://www.w3.org/2000/svg" xmlns:xlink="http://www.w3.org/1999/xlink" x="0px" y="0px"
	 viewBox="0 0 25 25" style="enable-background:new 0 0 25 25;" xml:space="preserve">
<style type="text/css">
	.st0{fill:#B4B4B4;}
	.st1{fill:url(#SVGID_1_);}
	.st2{fill:url(#SVGID_2_);}
	.st3{fill:url(#SVGID_3_);}
</style>
<g>
	<path class="st0" d="M23.3,14.2c0-0.1,0-0.2-0.1-0.4c0,0,0,0,0-0.1c0-0.1,0-0.2-0.1-0.2c0,0,0-0.1,0-0.1c0-0.1-0.1-0.1-0.1-0.2l0,0
		c0,0,0,0,0-0.1c-0.1-0.2-0.1-0.3-0.2-0.4c-0.1-0.1-0.2-0.2-0.3-0.3c-0.1-0.1-0.1-0.1-0.2-0.2l-1.4-1.4c0,0,0,0,0,0l0,0c0,0,0,0,0,0
		l0,0l0,0c-0.6-0.6-1.4-1-2.3-1.1c-1.1-0.1-2.2-0.2-3.6-0.2c-1,0-2,0-3,0.1l-0.6,0c-0.3,0-0.6,0-0.9,0c-0.2,0-0.5,0-0.7,0l-0.7,0
		c-1.3,0-2.8,0-4.3,0.5c-1,0.4-2,1.7-2.2,3c-0.2,1,0.1,1.8,0.6,2.4l0,0l1.4,1.4C4.8,16.9,4.9,17,5,17.1c1,0.7,2.4,1.1,4.1,1.1
		c0.6,0,1.4-0.1,2.2-0.2c1.4-0.2,2.8-0.4,4.2-0.4c0.3,0,0.7,0,1,0c0.3,0,0.6,0.1,1,0.1c0.5,0.1,1.1,0.1,1.7,0.1c1,0,1.8-0.2,2.5-0.7
		c0.1-0.1,0.2-0.1,0.3-0.2C22,17,22,17,22,17l0.1,0c0,0,0.1-0.1,0.1-0.1c0,0,0,0,0.1-0.1l0.1-0.1c0,0,0.1-0.1,0.1-0.1
		c0.1-0.1,0.2-0.2,0.3-0.3l0,0c0,0,0,0,0-0.1c0.1-0.1,0.1-0.2,0.2-0.3c0,0,0,0,0-0.1c0.1-0.1,0.1-0.2,0.1-0.3c0-0.1,0.1-0.2,0.1-0.3
		l0-0.1c0,0,0,0,0-0.1c0-0.1,0-0.2,0-0.3l0-0.1c0,0,0,0,0,0C23.3,14.5,23.3,14.4,23.3,14.2L23.3,14.2z"/>
	<g>
		<linearGradient id="SVGID_1_" gradientUnits="userSpaceOnUse" x1="13.9287" y1="7.4123" x2="11.0088" y2="15.3665">
			<stop  offset="0" style="stop-color:#7C5AAB"/>
			<stop  offset="0.7051" style="stop-color:#1F1A3D"/>
			<stop  offset="0.9694" style="stop-color:#000000"/>
		</linearGradient>
		<path class="st1" d="M21.9,13.4C21.9,13.4,21.9,13.4,21.9,13.4c0-0.1,0-0.2,0-0.3c0,0,0,0,0-0.1c0-0.1,0-0.2,0-0.3c0,0,0,0,0,0
			c0,0,0-0.1,0-0.1c0-0.1,0-0.1-0.1-0.2c0,0,0-0.1,0-0.1c0-0.1-0.1-0.1-0.1-0.2c0,0,0,0,0-0.1c0,0,0,0,0,0c-0.1-0.1-0.1-0.3-0.2-0.4
			c-0.1-0.1-0.1-0.2-0.2-0.3c0,0,0,0,0,0c-0.1-0.1-0.1-0.1-0.2-0.2c-0.5-0.5-0.9-0.9-1.4-1.4c0.1,0.1,0.1,0.1,0.2,0.2
			c0.1,0.1,0.2,0.2,0.2,0.3c0.1,0.1,0.2,0.2,0.2,0.4c0,0,0,0.1,0.1,0.1c0,0.1,0.1,0.1,0.1,0.2c0,0,0,0.1,0,0.1c0,0,0,0.1,0,0.1
			l-1.1-1.1c-0.5-0.5-1.1-0.8-1.9-0.9c-1.2-0.2-2.3-0.2-3.5-0.2c-1.2,0-2.4,0-3.5,0.1c-0.3,0-0.6,0-0.9,0c-0.5,0-1,0-1.4,0
			c-1.4,0-2.8,0.1-4.1,0.5c-0.1,0-0.2,0.1-0.3,0.1c0,0-0.1,0-0.1,0.1c-0.1,0-0.1,0.1-0.2,0.1c0,0,0,0,0,0c0,0,0,0,0,0
			C3.2,9.9,3.1,9.9,3,10c0,0,0,0,0,0c0,0,0,0,0,0c-0.1,0.1-0.2,0.2-0.3,0.3c0,0,0,0,0,0c0,0,0,0,0,0.1c-0.1,0.1-0.1,0.2-0.2,0.3
			c0,0,0,0,0,0.1c0,0,0,0,0,0c-0.1,0.1-0.1,0.2-0.2,0.4c0,0,0,0,0,0c0,0,0,0,0,0c0,0.1-0.1,0.3-0.1,0.4c0,0,0,0,0,0c0,0,0,0,0,0.1
			c0,0.1,0,0.2-0.1,0.4c0,0,0,0,0,0.1c0,0,0,0,0,0c0,0.1,0,0.1,0,0.2c0,0.1,0,0.1,0,0.2c0,0.1,0,0.1,0,0.2c0,0,0,0.1,0,0.1
			c0,0,0,0,0,0c0,0.1,0.1,0.2,0.1,0.4c0,0,0,0,0,0c0,0.1,0.1,0.2,0.1,0.2c0,0,0,0,0,0.1c0,0,0.1,0.1,0.1,0.1c0,0,0.1,0.1,0.1,0.1
			l1.1,1.1c-0.4-0.2-0.8-0.3-1.1-0.6c-0.1-0.1-0.2-0.1-0.3-0.2c0.5,0.5,0.9,0.9,1.4,1.4c0.1,0.1,0.2,0.2,0.3,0.2
			c1,0.7,2.3,1.1,4,1.1c0.6,0,1.3,0,2.1-0.2c1.4-0.2,2.8-0.4,4.2-0.4c0.4,0,0.7,0,1,0c0.3,0,0.7,0.1,1,0.1c0.5,0.1,1.1,0.1,1.6,0.1
			c0.9,0,1.7-0.2,2.3-0.7c0.1-0.1,0.2-0.1,0.2-0.2c0,0,0,0,0,0c0,0,0.1-0.1,0.1-0.1c0,0,0.1-0.1,0.1-0.1c0,0,0.1-0.1,0.1-0.1
			c0,0,0.1-0.1,0.1-0.1c0,0,0,0,0,0c0.1-0.1,0.2-0.2,0.2-0.3c0,0,0,0,0,0c0,0,0,0,0-0.1c0-0.1,0.1-0.2,0.1-0.2c0,0,0,0,0-0.1
			c0,0,0,0,0,0c0-0.1,0.1-0.2,0.1-0.3c0,0,0,0,0,0c0,0,0,0,0,0c0-0.1,0.1-0.2,0.1-0.3c0,0,0,0,0-0.1c0,0,0,0,0-0.1
			C21.8,13.7,21.8,13.6,21.9,13.4C21.9,13.4,21.9,13.4,21.9,13.4z"/>
		<g>
			<linearGradient id="SVGID_2_" gradientUnits="userSpaceOnUse" x1="20.0538" y1="17.5757" x2="5.7562" y2="8.6146">
				<stop  offset="0" style="stop-color:#C28BFF"/>
				<stop  offset="0.949" style="stop-color:#56498B"/>
			</linearGradient>
			<path class="st2" d="M20,10.1c0.5,0.7,0.6,1.6,0.4,2.4c-0.2,0.8-0.7,1.4-1.4,2c-0.7,0.5-1.4,0.7-2.3,0.7c-0.5,0-1.1-0.1-1.6-0.1
				c-0.4,0-0.7-0.1-1-0.1c-0.3,0-0.7,0-1,0c-1.4,0-2.8,0.2-4.2,0.4c-0.8,0.1-1.5,0.2-2.1,0.2c-1.7,0-3-0.4-4-1.1
				c-0.7-0.5-1-1.4-0.9-2.5C1.9,10.6,2.8,9.4,3.8,9C5.2,8.5,6.7,8.5,8,8.5c0.2,0,0.5,0,0.7,0c0.2,0,0.5,0,0.7,0c0.4,0,0.6,0,0.9,0
				l0.6,0c1,0,2-0.1,2.9-0.1c1.4,0,2.5,0.1,3.5,0.2C18.5,8.7,19.4,9.3,20,10.1z M20,12.4c0.4-1.6-0.8-3.2-2.7-3.4
				c-1.2-0.2-2.3-0.2-3.5-0.2c-1.2,0-2.4,0-3.5,0.1c-0.3,0-0.6,0-0.9,0c-0.5,0-1,0-1.4,0c-1.4,0-2.8,0.1-4.1,0.5
				C2.5,9.9,1.2,12.8,2.8,14c1,0.8,2.4,1,3.8,1c0.7,0,1.4-0.1,2.1-0.1c1.4-0.2,2.9-0.4,4.3-0.4c0.4,0,0.7,0,1.1,0
				c0.9,0.1,1.8,0.3,2.6,0.3c0.7,0,1.4-0.1,2.1-0.6C19.5,13.6,19.9,13,20,12.4L20,12.4z"/>
		</g>
		<g>
			<linearGradient id="SVGID_3_" gradientUnits="userSpaceOnUse" x1="2.037" y1="11.8868" x2="20.095" y2="11.8868">
				<stop  offset="0" style="stop-color:#C28BFF"/>
				<stop  offset="0.949" style="stop-color:#56498B"/>
			</linearGradient>
			<path class="st3" d="M13.9,8.8c1.2,0,2.3,0,3.5,0.2c1.9,0.3,3.1,1.9,2.7,3.4c-0.2,0.6-0.6,1.2-1.3,1.7c-0.7,0.5-1.4,0.6-2.1,0.6
				c-0.9,0-1.8-0.2-2.6-0.3c-0.4,0-0.7,0-1.1,0c-1.4,0-2.9,0.2-4.3,0.4C8,14.9,7.3,15,6.6,15c-1.3,0-2.7-0.2-3.8-1
				c-1.6-1.2-0.3-4.1,1.1-4.6c1.3-0.4,2.7-0.5,4.1-0.5c0.5,0,1,0,1.4,0c0.3,0,0.6,0,0.9,0C11.5,8.8,12.7,8.8,13.9,8.8z"/>
		</g>
	</g>
</g>
</svg>
