<?xml version="1.0" encoding="utf-8"?>
<!-- Generator: Adobe Illustrator 24.0.1, SVG Export Plug-In . SVG Version: 6.00 Build 0)  -->
<svg version="1.1" id="Capa_1" xmlns="http://www.w3.org/2000/svg" xmlns:xlink="http://www.w3.org/1999/xlink" x="0px" y="0px"
	 viewBox="0 0 200 200" style="enable-background:new 0 0 200 200;" xml:space="preserve">
<style type="text/css">
	.st0{fill:#FBD0B4;}
	.st1{fill:#B56A4D;}
	.st2{opacity:0.6;fill:#FBD0B4;}
	.st3{opacity:0.6;}
	.st4{fill:#FCEE21;}
	.st5{fill:#F7931E;}
	.st6{opacity:0.5;fill:#FCD221;}
	.st7{fill:#FCD221;}
	.st8{fill:#FFFFFF;}
	.st9{fill:#F7913D;}
	.st10{fill:#9B4A0D;}
	.st11{opacity:0.52;}
	.st12{opacity:0.46;}
	.st13{clip-path:url(#SVGID_2_);}
	.st14{fill:#89D5ED;}
	.st15{fill:#306977;}
	.st16{fill:#9E4C0B;}
	.st17{fill:#FEF6EC;}
	.st18{fill:#9E5116;}
	.st19{opacity:0.5;}
	.st20{fill:#BBAC9A;}
	.st21{fill:#984C08;}
	.st22{fill:#A0A427;}
	.st23{fill:#9A5648;}
	.st24{fill:#0A010B;}
	.st25{fill:#FDE4C7;}
	.st26{fill:#8C5742;}
	.st27{fill:#BE8D75;}
	.st28{fill:#A05B23;}
	.st29{fill:#602E09;}
	.st30{opacity:0.5;fill:#A05B23;}
	.st31{opacity:0.7;fill:url(#SVGID_3_);}
	.st32{opacity:0.7;fill:url(#SVGID_4_);}
	.st33{fill:#19AACC;}
	.st34{fill:#AEE0E8;}
	.st35{fill:#73CEE5;}
</style>
<g>
	<g>
		<g>
			<g>
				<g>
					<path class="st0" d="M46.57,160.92c0,0-2.83,4.21-4.91,4.29c-2.7,0.11-4.7-0.44-7.69,0.24c-2.98,0.68-3.76,1.46-3.39,2.71
						c0.37,1.25,2.37,1.08,2.88,1.08c0,0-3.76,2.73-3.07,4.86c0.55,1.51,2.95,0.89,2.95,0.89s-2.61,3.26-0.07,4.8
						c1.51,0.65,4.01-1.34,4.01-1.34s0.21,1.47,1.85,1.71c1.65,0.24,3.5-2.16,5.04-3.53c1.54-1.37,2.33-1.27,4.05-1.3
						s2.88,0,3.94-0.34c1.06-0.34,1.92,1.2,2.85,2.37c0.93,1.17,1.82,3.53,4.25,2.74c2.43-0.79,1.1-2.85,0.27-4.05
						c-0.82-1.2-1.71-3.77-1.99-5.49C57.28,168.86,56.31,161.58,46.57,160.92z"/>
					<path class="st1" d="M58.35,180.5c-1.51,0-2.35-1.28-3-2.26c-0.18-0.27-0.35-0.52-0.51-0.73c-0.17-0.21-0.33-0.43-0.49-0.65
						c-0.71-0.96-1.38-1.86-2.1-1.64c-0.95,0.31-1.95,0.32-3.33,0.34l-1.06,0.02c-1.43,0.02-2.15,0.03-3.51,1.24
						c-0.35,0.31-0.71,0.67-1.09,1.05c-1.35,1.35-2.76,2.74-4.14,2.54c-1.27-0.18-1.77-1.06-1.95-1.56
						c-0.72,0.51-2.65,1.73-3.97,1.16c-0.69-0.42-1.09-0.97-1.21-1.65c-0.2-1.15,0.44-2.38,0.86-3.04c-0.8,0.1-2.21,0.07-2.66-1.14
						c-0.57-1.77,1.57-3.82,2.61-4.7c-0.84-0.02-2.11-0.2-2.43-1.26c-0.16-0.52-0.12-0.96,0.1-1.34c0.41-0.7,1.48-1.21,3.46-1.66
						c1.97-0.45,3.49-0.37,5.09-0.29c0.83,0.04,1.7,0.08,2.64,0.05c1.94-0.08,4.7-4.15,4.73-4.19c0.05-0.07,0.13-0.11,0.21-0.1
						c4.44,0.3,9.99,2.24,11.18,9.75l0.02,0.1c0.28,1.77,1.19,4.29,1.95,5.39c0.7,1.02,1.41,2.18,1.07,3.18
						c-0.19,0.55-0.68,0.96-1.47,1.21C58.98,180.45,58.65,180.5,58.35,180.5z M52.48,174.72c0.86,0,1.56,0.95,2.24,1.86
						c0.16,0.22,0.32,0.43,0.49,0.64c0.18,0.22,0.35,0.49,0.53,0.76c0.77,1.17,1.65,2.49,3.46,1.9c0.64-0.21,1.03-0.52,1.17-0.92
						c0.29-0.86-0.56-2.11-1.01-2.77c-0.88-1.29-1.76-3.93-2.03-5.58l-0.02-0.1c-0.91-5.74-4.48-8.89-10.62-9.35
						c-0.48,0.69-3.02,4.2-5.02,4.28c-0.96,0.04-1.83,0-2.68-0.05c-1.57-0.08-3.06-0.15-4.97,0.28c-1.82,0.42-2.83,0.87-3.16,1.44
						c-0.16,0.27-0.17,0.58-0.06,0.98c0.29,0.97,1.83,0.94,2.49,0.92l0.17,0c0.1,0,0.19,0.06,0.22,0.16c0.03,0.1,0,0.2-0.08,0.26
						c-0.04,0.03-3.61,2.66-2.99,4.6c0.47,1.29,2.65,0.74,2.67,0.74c0.1-0.02,0.2,0.01,0.25,0.1c0.05,0.08,0.05,0.19-0.01,0.27
						c-0.01,0.02-1.35,1.71-1.1,3.14c0.1,0.54,0.42,0.99,0.97,1.32c1.1,0.47,3.08-0.79,3.75-1.32c0.07-0.05,0.15-0.07,0.23-0.03
						c0.08,0.03,0.13,0.1,0.14,0.18c0.01,0.05,0.21,1.31,1.66,1.52c1.15,0.17,2.53-1.2,3.74-2.41c0.39-0.39,0.75-0.75,1.11-1.07
						c1.49-1.32,2.36-1.33,3.81-1.36l1.06-0.02c1.34-0.02,2.31-0.04,3.2-0.32C52.23,174.73,52.35,174.72,52.48,174.72z"/>
				</g>
				<g>
					<path class="st2" d="M33.15,169.44c0.62-0.4,1.25-0.74,1.74-1c1.68-0.9,4.09-1.58,5.82-2.36c-1.08,0.22-2.79,0.49-3.86,0.74
						c-1.31,0.31-2.76,0.75-4.12,0.59c-0.83-0.1-1.41-0.49-1.61-1c-0.62,0.52-0.99,1.32-0.35,2.07
						C31.39,169.19,32.25,169.43,33.15,169.44z"/>
					<path class="st2" d="M34.48,173.35c0.51-0.63,0.88-1.36,1.39-1.99c1.91-2.33,5.63-2.07,7.46-4.31
						c-1.78,0.49-3.25,0.69-4.98,1.34c-1.47,0.56-3.07,2.09-4.1,3.22c-0.88,0.97-3.17,3.24-3.33,1.02c-0.04-0.5,0.08-0.95,0.32-1.36
						c-0.58,0.64-1.05,1.39-0.97,2.29c0.13,1.39,1.52,1.85,2.74,1.69C33.45,174.58,33.98,173.98,34.48,173.35z"/>
					<path class="st2" d="M60.08,179.87c0.15-0.18,0.27-0.38,0.35-0.6c0.12-0.35,0.12-0.72,0.07-1.08c-0.65,0.37-1.71-0.13-2.2-0.64
						c-1.47-1.56-2.03-3.75-3.47-5.29c-1.97-2.11-6.11-1.27-8.5-0.18c-2.3,1.05-3.53,3.23-5.46,4.77c-0.55,0.44-2.38,1.82-2.68,0.4
						c-0.15-0.69,0.61-1.66,0.97-2.14c0.71-0.95,1.53-1.83,2.48-2.55c1.75-1.31,3.7-2.25,5.73-3c-1.71-0.37-3.53-0.64-5.22-0.23
						c-2.4,0.59-4.02,2.14-5.32,4.18c-0.43,0.67-2.85,5.42-4.29,4.46c-0.5-0.33-0.3-1.25-0.06-1.86c0,0,0,0,0,0
						c-0.59,1.13-0.79,2.41,0.24,3.32c1.41,1.24,3.38,0.3,4.69-0.68c0.07,0.14,0.15,0.27,0.25,0.41c1.51,2.04,3.86,0.47,5.22-0.88
						c1.31-1.3,2.33-2.51,4.28-2.76c1.42-0.18,2.73,0.05,4.09-0.28c0.06,0.06,0.15,0.08,0.25,0.04c2.49-0.98,3.71,2.89,5.18,4.24
						C57.8,180.52,59.09,180.53,60.08,179.87z"/>
					<path class="st0" d="M47.85,169.72c-1.68,0.03-3.23,0.64-4.6,1.6c-1.7,1.19-3.97,3.02-4.39,5.16
						c-0.02,0.12,0.14,0.22,0.23,0.14c1.15-1.08,2.05-2.45,3.12-3.62c0.71-0.78,1.62-1.43,2.54-1.94c1.01-0.57,1.43-1.06,2.49-1.23
						C47.34,169.81,47.94,169.72,47.85,169.72z"/>
					<path class="st0" d="M42.93,167.75c-3.25,1.65-4.28,1.43-6.04,3.22c-1.09,1.11-1.98,2.52-2.86,3.8
						c-0.55,0.79-0.97,1.76-1.17,2.7c-0.04,0.19,0.21,0.29,0.29,0.1c0.86-2.22,2.68-4.36,4.23-6.15c1.69-1.94,2.78-1.96,4.94-3.12
						C42.46,168.23,43.09,167.67,42.93,167.75z"/>
					<path class="st0" d="M41.15,166.19c-1.23,0.38-2.82,1.1-3.99,1.64c-1.26,0.59-2.51,1.29-3.61,2.14
						c-0.97,0.75-2.98,1.92-2.73,3.37c0.06,0.33,0.56,0.31,0.59-0.03c0.1-1.42,2.49-3.02,3.55-3.82c1.72-1.3,3.94-1.97,5.79-3.07
						C40.87,166.36,41.29,166.14,41.15,166.19z"/>
					<path class="st0" d="M42.59,165.19c-1.91,0.83-4.75-0.1-7.16,0.24c-0.9,0.13-5.12,1.22-4.12,1.6c0.31,0.12,0.34-0.01,0.53-0.05
						c1.66-0.27,2.78-0.91,4.51-1.07c2.18-0.21,4.15,0.14,6.27-0.59C42.69,165.3,42.66,165.16,42.59,165.19z"/>
					<path class="st0" d="M59.14,177.12c-0.69-2.08-1.32-5.28-3.81-5.8c-0.13-0.03-0.18,0.16-0.09,0.23
						c1.96,1.42,2.34,3.86,3.77,5.65C59.07,177.27,59.17,177.2,59.14,177.12z"/>
				</g>
			</g>
			<g class="st3">
				<path class="st0" d="M54.54,168.14c1.07,3.28,2.15,4.82,3.88,5.57c-0.39-1.07-0.72-2.22-0.87-3.14
					c-0.27-1.71-1.24-8.99-10.98-9.66c0,0-0.69,1.02-1.63,2.06C47.48,163.47,53.56,164.95,54.54,168.14z"/>
			</g>
		</g>
		<g>
			<g>
				<path class="st4" d="M57.9,120.58c0,0-1.52,13.34-3.98,24.99c-1.92,7.41-4.94,9.6-4.39,11.66c-2.19,0.41-5.08,2.74-5.21,3.98
					c-0.14,1.23,9.74,0,11.66,7.82c1.51,5.08,5.62,5.49,6.31,1.78c0.69-3.7,0.27-6.86,1.51-7.96c1.23-1.1,1.37-1.51,0.14-3.29
					c-1.23-1.78,2.06-1.51,3.43-6.86c1.37-5.35,3.02-13.72,3.02-13.72L57.9,120.58z"/>
				<path class="st5" d="M59.93,173.5c-1.45,0-3.27-1.34-4.18-4.4c-1.33-5.41-6.64-6.39-9.49-6.92c-1.44-0.27-2.24-0.42-2.17-0.99
					c0.15-1.37,2.98-3.61,5.17-4.13c-0.15-0.98,0.4-2,1.19-3.48c0.95-1.77,2.24-4.18,3.25-8.06c2.44-11.5,3.96-24.83,3.98-24.96
					c0.01-0.1,0.08-0.18,0.18-0.2c0.1-0.02,0.19,0.02,0.25,0.1l12.47,18.41c0.03,0.05,0.05,0.11,0.04,0.17
					c-0.02,0.08-1.66,8.43-3.02,13.73c-0.75,2.94-2.07,4.21-2.94,5.05c-0.78,0.75-0.96,0.98-0.52,1.61c1.3,1.88,1.14,2.43-0.17,3.6
					c-0.71,0.63-0.83,2.12-0.98,4.01c-0.09,1.14-0.2,2.44-0.45,3.81c-0.29,1.59-1.21,2.57-2.46,2.64
					C60.01,173.5,59.97,173.5,59.93,173.5z M58.06,121.23c-0.33,2.77-1.77,14.28-3.92,24.4c-1.02,3.94-2.33,6.39-3.29,8.17
					c-0.83,1.56-1.34,2.49-1.1,3.38c0.02,0.06,0.01,0.13-0.03,0.18c-0.03,0.05-0.09,0.09-0.15,0.1c-2.14,0.4-4.9,2.66-5.02,3.77
					c0.08,0.16,1.03,0.34,1.8,0.48c2.96,0.55,8.46,1.57,9.86,7.26c0.86,2.89,2.54,4.13,3.83,4.06c1.02-0.05,1.78-0.9,2.03-2.26
					c0.25-1.35,0.35-2.63,0.44-3.76c0.16-1.99,0.29-3.57,1.14-4.32c1.11-0.98,1.3-1.25,0.1-2.99c-0.68-0.99-0.15-1.5,0.58-2.21
					c0.83-0.81,2.09-2.02,2.81-4.84c1.28-4.98,2.81-12.67,3-13.61L58.06,121.23z"/>
			</g>
			<g>
				<path class="st6" d="M67.36,152.71c1.37-5.35,3.02-13.72,3.02-13.72L57.9,120.58c0,0-1.16,10.19-3.1,20.55l0.05,0
					c0,0,2.59-13.3,4.63-8.52c2.41,5.67,7.32,7.25,5.1,15.96c-1.9,6.81-1.58,8.55-6.96,7.28c-5.38-1.27-0.47,0.32,2.22,2.37
					c2.69,2.06-1.9,1.42-3.48,1.42c-1.58,0,4-0.19,3.64,3.8c-0.27,3.01-1.57,2.27-4.15-0.81c-2.59-3.08-5.24-2.34-7.09-2.4
					c-1.85-0.06,0.06-2.03,2.28-1.97c1.98,0.06-0.86,0.01-0.47-4.41c-0.79,1.48-1.29,2.45-1.04,3.39c-2.19,0.41-5.08,2.74-5.21,3.98
					c-0.14,1.23,9.74,0,11.66,7.82c1.51,5.08,5.62,5.49,6.31,1.78c0.69-3.7,0.27-6.86,1.51-7.96c1.23-1.1,1.37-1.51,0.14-3.29
					C62.7,157.78,65.99,158.06,67.36,152.71z"/>
			</g>
			<g>
				<path class="st7" d="M67.36,152.71c1.37-5.35,3.02-13.72,3.02-13.72L57.9,120.58c0,0-0.28,2.5-0.81,6.28
					c0.02-0.03,0.04-0.06,0.06-0.1c1.07-1.92,0.96,1.28,2.99,5.45c2.03,4.17,3.85,6.41,6.31,10.16c2.46,3.74,0,7.59-1.07,11.65
					c-1.07,4.06-2.89,3.21-4.49,3.1c1.39,2.35,2.35,2.89,0.64,3.31c0.75,2.03-0.21,1.82-0.32,5.67c-0.11,3.85-0.75,6.74-2.67,3.42
					c-1.92-3.31-4.28-7.38-10.58-7.48c-0.02,0.08-0.04,0.15-0.06,0.23c2.99,0.67,6.93,2.12,8.06,6.76c1.51,5.08,5.62,5.49,6.31,1.78
					c0.69-3.7,0.27-6.86,1.51-7.96c1.23-1.1,1.37-1.51,0.14-3.29C62.7,157.78,65.99,158.06,67.36,152.71z"/>
			</g>
			<path class="st8" d="M55.48,138.98c-0.35,2.64-0.91,5.26-1.65,7.82c-0.36,1.25-0.75,2.49-1.22,3.7
				c-0.43,1.12-1.01,2.21-1.34,3.36c-0.16,0.57,0.38,0.3,0.57,0.03c0.75-1.08,1.21-2.38,1.67-3.61c0.46-1.24,0.88-2.49,1.2-3.77
				c0.64-2.51,0.94-5.06,0.96-7.65C55.68,138.68,55.49,138.9,55.48,138.98z"/>
		</g>
		<g>
			<g>
				<path class="st9" d="M160.45,159.74c0,0,1.54-7.99,8.09-6.25c6.55,1.74,9.01,5.22,13.82,7.68c4.81,2.46,11.78,2.25,13.41,8.29
					c1.64,6.04-4.91,8.19-14.13,6.25c-9.22-1.95-15.36-1.95-15.36-1.95L160.45,159.74z"/>
				<path class="st10" d="M187.68,176.63c-1.83,0-3.88-0.23-6.08-0.69c-9.08-1.92-15.25-1.94-15.31-1.94
					c-0.09,0-0.18-0.06-0.21-0.14l-5.84-14.03c-0.02-0.04-0.02-0.09-0.01-0.13c0.03-0.17,0.82-4.1,3.62-5.86
					c1.36-0.85,2.96-1.04,4.75-0.57c4.19,1.11,6.75,2.95,9.23,4.73c1.42,1.02,2.89,2.07,4.64,2.97c1.41,0.72,3.04,1.22,4.62,1.7
					c3.8,1.16,7.73,2.37,8.91,6.74c0.55,2.01,0.22,3.73-0.96,4.97C193.63,175.86,191.03,176.63,187.68,176.63z M166.44,173.53
					c1.02,0.02,6.92,0.19,15.25,1.95c6.09,1.28,10.95,0.75,13.01-1.43c1.07-1.13,1.35-2.66,0.84-4.53c-1.12-4.12-4.75-5.24-8.6-6.41
					c-1.6-0.49-3.25-0.99-4.69-1.73c-1.78-0.91-3.26-1.97-4.7-3c-2.45-1.75-4.97-3.57-9.08-4.66c-1.67-0.44-3.14-0.27-4.38,0.51
					c-2.44,1.53-3.29,4.97-3.4,5.49L166.44,173.53z"/>
			</g>
			<g class="st11">
				<path class="st9" d="M195.77,169.46c-0.24-0.87-0.59-1.61-1.02-2.25c0.57,2.48-0.73,3.37-1.74,1.65
					c-1.44-2.47-2.67-1.13-2.78-2.37c-0.1-1.23-1.65-1.85-3.5-1.85s-4.73-0.1-7.41-1.95c-2.67-1.85-7.1-3.91-11.52-6.17
					c-1.7-0.87-2.7-1.88-3.29-2.79c-3.2,1.51-4.07,6.01-4.07,6.01l5.84,14.03c0,0,6.14,0,15.36,1.95
					C190.86,177.66,197.41,175.51,195.77,169.46z"/>
			</g>
			<g class="st11">
				<path class="st9" d="M194.75,167.21c0.08,0.36,0.12,0.68,0.13,0.97c0.64,3.32-1.72,5.43-4.85,5.51c-3.81,0.1-4.01-3.39-3.81-7.1
					c-2.16,1.75-0.51,5.86-2.57,5.66c-2.06-0.21-4.01-1.85-6.27-1.54c-2.26,0.31-4.63-0.51-6.89-6.48c-2.28-5.63-6.12-7.5-8.53-8.12
					c-1.13,1.74-1.5,3.63-1.5,3.63l5.84,14.03c0,0,6.14,0,15.36,1.95c9.21,1.95,15.77-0.2,14.13-6.25
					C195.53,168.59,195.18,167.85,194.75,167.21z"/>
			</g>
			<path class="st10" d="M185.85,167.45c0,0-1.3,4.97,1.22,8.5C185.27,174.8,184.12,171.2,185.85,167.45z"/>
		</g>
		<g>
			<path class="st4" d="M86.84,151.2c0,0-6.58,4.8-5.76,11.8c0.82,7,13.72,10.7,13.72,10.7l5.21-15.36L86.84,151.2z"/>
			<path class="st5" d="M94.79,173.93c-0.02,0-0.04,0-0.06-0.01c-0.03-0.01-3.29-0.95-6.6-2.75c-4.42-2.39-6.94-5.21-7.29-8.15
				c-0.83-7.05,5.79-11.96,5.85-12.01c0.07-0.05,0.17-0.06,0.25-0.02l13.17,7.13c0.1,0.05,0.15,0.17,0.11,0.28l-5.21,15.36
				C94.98,173.87,94.89,173.93,94.79,173.93z M86.86,151.48c-0.87,0.68-6.29,5.22-5.55,11.49c0.74,6.28,11.67,9.92,13.34,10.44
				l5.08-14.96L86.86,151.48z"/>
		</g>
		<path class="st7" d="M86.84,151.2c0,0-6.58,4.8-5.76,11.8c0.82,7,13.72,10.7,13.72,10.7l5.21-15.36L86.84,151.2z"/>
		<path class="st7" d="M86.84,151.2c0,0-2.05,1.49-3.71,4.03c0.86-0.47,1.82-0.58,2.87-0.02c0.65,0.35,1.18,0.88,1.64,1.44
			c0.33,0.41,0.6,0.87,0.67,1.4c0.15,1.05-0.23,2.26-0.69,3.2c-0.89,1.82-2.58,3.09-4.42,3.84c-0.41,0.17-0.83,0.3-1.26,0.42
			c3.05,5.37,12.86,8.19,12.86,8.19l5.21-15.36L86.84,151.2z"/>
		<g>
			<g>
				<path class="st0" d="M87.03,167.54c0,0-4.05,0.7-7.19,2.58c-3.14,1.88-4.6,3.28-6.98,3.35c-2.37,0.07-2.37,2.09-0.84,3.35
					c1.53,1.26,4.54,0.42,4.54,0.42s-1.74,6.42,3.28,5.44c1.12,2.16,4.19,1.95,4.74,0.56c0.84,2.16,4.19,1.81,4.68,0.98
					c1.33,1.6,12.07,0.56,8.09-3.28c2.86-1.4,5.16-3.56,4.12-5.51C100.42,173.47,87.03,167.54,87.03,167.54z"/>
				<path class="st1" d="M92.36,185.17c-1.31,0-2.5-0.19-3.08-0.62c-0.43,0.39-1.33,0.61-2.25,0.54c-1.12-0.09-1.99-0.58-2.46-1.36
					c-0.38,0.47-1.04,0.76-1.83,0.8c-0.99,0.04-2.29-0.35-3.01-1.59c-1.26,0.21-2.22-0.02-2.85-0.7c-1.19-1.28-0.82-3.74-0.62-4.69
					c-0.88,0.19-3.08,0.51-4.37-0.55c-0.91-0.75-1.34-1.79-1.07-2.59c0.14-0.42,0.6-1.12,2.04-1.17c1.75-0.05,2.99-0.85,4.88-2.07
					c0.59-0.38,1.24-0.8,1.98-1.25c3.14-1.88,7.23-2.6,7.27-2.61c0.04-0.01,0.09,0,0.13,0.02c0.55,0.24,13.48,5.99,14.55,7.99
					c0.32,0.59,0.37,1.23,0.16,1.89c-0.42,1.31-1.91,2.68-4.09,3.8c0.61,0.67,0.84,1.31,0.67,1.91c-0.35,1.21-2.22,1.76-3.3,1.99
					C94.25,185.08,93.28,185.17,92.36,185.17z M89.26,183.98c0.07,0,0.14,0.03,0.18,0.08c0.55,0.67,3.27,0.85,5.58,0.37
					c1.67-0.35,2.74-0.95,2.95-1.66c0.14-0.48-0.12-1.05-0.77-1.68c-0.05-0.05-0.08-0.13-0.07-0.2c0.01-0.08,0.06-0.14,0.13-0.17
					c2.19-1.07,3.74-2.44,4.14-3.67c0.17-0.54,0.13-1.05-0.12-1.53c-0.82-1.54-10.51-6.09-14.27-7.75c-0.54,0.1-4.19,0.83-7.04,2.54
					c-0.74,0.44-1.39,0.86-1.97,1.24c-1.95,1.26-3.24,2.09-5.12,2.14c-0.86,0.03-1.44,0.33-1.62,0.85
					c-0.21,0.62,0.16,1.46,0.92,2.09c1.42,1.17,4.3,0.38,4.33,0.38c0.08-0.02,0.17,0,0.23,0.06c0.06,0.06,0.08,0.14,0.06,0.23
					c-0.01,0.03-0.86,3.24,0.42,4.62c0.54,0.58,1.41,0.76,2.59,0.53c0.1-0.02,0.2,0.03,0.25,0.12c0.6,1.16,1.76,1.52,2.66,1.49
					c0.8-0.04,1.46-0.4,1.66-0.91c0.04-0.09,0.11-0.16,0.22-0.15c0.1,0,0.18,0.06,0.22,0.15c0.46,1.2,1.74,1.42,2.26,1.47
					c0.95,0.08,1.81-0.21,1.99-0.52c0.04-0.07,0.11-0.11,0.18-0.11C89.25,183.98,89.25,183.98,89.26,183.98z"/>
			</g>
			<path class="st1" d="M82.36,176.04c-1.35,0.59-2.35,1.75-2.8,3.14c-0.24,0.76-0.3,1.57-0.18,2.36c0.11,0.71,0.36,1.72,0.96,2.18
				c0.12,0.1,0.28-0.25,0.24-0.34c-0.13-0.33-0.34-0.62-0.49-0.94c-0.15-0.32-0.26-0.65-0.34-0.99c-0.16-0.71-0.16-1.46,0.02-2.17
				c0.35-1.34,1.33-2.46,2.55-3.09C82.37,176.18,82.43,176.01,82.36,176.04z"/>
			<path class="st1" d="M87.48,177.39c-1.27,0.33-2.29,1.19-2.88,2.36c-0.33,0.65-0.5,1.35-0.51,2.08c0,0.36,0.03,0.72,0.11,1.08
				c0.08,0.34,0.16,0.73,0.43,0.97c0.12,0.11,0.29-0.25,0.28-0.34c-0.05-0.32-0.19-0.59-0.28-0.9c-0.08-0.29-0.13-0.59-0.16-0.89
				c-0.05-0.64,0.05-1.31,0.31-1.9c0.48-1.1,1.54-1.95,2.66-2.32C87.49,177.51,87.55,177.37,87.48,177.39z"/>
			<path class="st1" d="M91.17,179.45c-0.95,0.49-1.7,1.38-2.16,2.33c-0.24,0.49-0.4,1.06-0.33,1.61c0.05,0.43,0.29,1.09,0.8,1.12
				c0.12,0.01,0.26-0.23,0.21-0.33c-0.1-0.18-0.25-0.31-0.37-0.49c-0.12-0.18-0.2-0.38-0.23-0.58c-0.08-0.48,0.06-0.96,0.26-1.39
				c0.4-0.85,1.06-1.52,1.81-2.08C91.2,179.6,91.3,179.38,91.17,179.45z"/>
			<path class="st1" d="M97.61,180.94c-0.18-0.22-0.6-0.27-0.87-0.32c-0.32-0.06-0.66-0.09-0.99-0.09c-0.67,0.01-1.3,0.16-1.9,0.46
				c-0.03,0.01-0.09,0.14-0.02,0.12c0.58-0.17,1.2-0.27,1.8-0.24c0.29,0.01,0.59,0.05,0.87,0.11c0.16,0.03,0.31,0.08,0.46,0.13
				c0.15,0.05,0.3,0.13,0.46,0.12C97.52,181.21,97.68,181.02,97.61,180.94z"/>
			<path class="st1" d="M80.38,173.51c-0.98,0.28-1.82,0.83-2.53,1.55c-0.37,0.38-0.7,0.79-0.98,1.23c-0.14,0.23-0.28,0.47-0.4,0.71
				c-0.1,0.22-0.23,0.47-0.24,0.72c-0.01,0.2,0.19,0.05,0.25-0.04c0.25-0.39,0.4-0.84,0.65-1.23c0.25-0.4,0.54-0.77,0.86-1.11
				c0.66-0.69,1.5-1.27,2.36-1.69C80.39,173.64,80.45,173.49,80.38,173.51z"/>
			<path class="st0" d="M80.31,173.98c-0.66,0.19-1.22,0.42-1.76,0.86c-0.55,0.45-1.02,1-1.37,1.62c-0.38,0.68-0.63,1.44-0.73,2.21
				c-0.05,0.41-0.05,0.83-0.01,1.25c0.04,0.38,0.08,0.83,0.32,1.13c0.16,0.2,0.39-0.28,0.38-0.4c-0.02-0.35-0.12-0.68-0.17-1.02
				c-0.05-0.34-0.07-0.69-0.05-1.04c0.04-0.7,0.2-1.38,0.52-2c0.57-1.13,1.68-2.08,2.83-2.57
				C80.31,174.02,80.33,173.97,80.31,173.98z"/>
			<g class="st3">
				<path class="st0" d="M84.53,183.46l0.05-0.22c-0.02,0.05-0.05,0.09-0.07,0.14C84.52,183.41,84.52,183.43,84.53,183.46z"/>
				<path class="st0" d="M82.28,176.38c-4.62,0.49-3.2,5.07-4.91,4.79c-0.38-0.06-0.71-0.25-1-0.51c0.27,1.35,1.14,2.48,3.47,2.02
					c0,0,0.03,0.01,0.06,0.03C78.78,179.71,80.15,177.56,82.28,176.38z"/>
				<path class="st0" d="M80.35,173.66c-1.41-0.04-3.66,1.75-6.54,2.03c-1.54,0.09-2.37-0.36-2.83-0.92
					c-0.07,0.66,0.31,1.45,1.05,2.06c1.41,1.15,4.06,0.54,4.47,0.43C77.43,175.52,78.87,174.35,80.35,173.66z"/>
				<path class="st0" d="M87.33,177.6c-2.8,0.13-3.99,2.96-4.19,4.74c-0.19,1.64-2.81,0.56-3.23,0.37c0.02,0.06,0.04,0.12,0.07,0.18
					c1.16,1.86,3.86,1.7,4.54,0.48C83.49,180.28,85.34,178.54,87.33,177.6z"/>
				<path class="st0" d="M79.84,182.68c0.04,0.08,0.09,0.14,0.13,0.21c-0.03-0.06-0.05-0.12-0.07-0.18
					C79.87,182.69,79.84,182.68,79.84,182.68z"/>
				<path class="st0" d="M101.47,175.43c-1.05-1.95-14.44-7.88-14.44-7.88s-1.64,0.28-3.65,0.98c3.73,0.4,12.4,3.83,14.77,6
					c2.47,2.26,0.14,4.28-1.37,4.73c-1.37,0.41-2.33,0.41-3.5,2.26c1.44-0.27,4.05-0.21,3.77,1.23c-0.16,0.86-2.35,1.67-4.08,2.18
					c3.25-0.15,7-1.47,4.38-3.99C100.22,179.54,102.52,177.38,101.47,175.43z"/>
				<path class="st0" d="M91.17,179.45c-1.22,0.13-2.48,1.17-3.17,3.16c-0.69,1.99-3.42,0.63-3.42,0.63
					c0.79,2.05,3.83,1.84,4.57,1.11C88.54,182.65,89.53,180.89,91.17,179.45z"/>
			</g>
			<path class="st0" d="M72.26,173.74c0,0,1.87,0.33,3.95-1.03c2.09-1.35,4.91-3.55,7.39-3.99c-2.2,1.06-3.66,1.68-5.42,3.07
				C76.43,173.19,74.75,174.69,72.26,173.74z"/>
			<path class="st0" d="M91.15,179.64c0,0-3.41,2.14-1.46,4.54C89.44,183,88.96,181.6,91.15,179.64z"/>
			<path class="st0" d="M87.33,177.6c0,0-4.45,1.56-2.29,6.11C84.85,181.76,84.29,179.5,87.33,177.6z"/>
			<path class="st0" d="M82.32,176.21c0,0-3.89,1.41-2.18,6.47C80.15,180.07,80.12,177.91,82.32,176.21z"/>
		</g>
		<g>
			<path class="st4" d="M95.07,99.62c0,0,12.14,4.73,29.22,2.88c17.08-1.85,28.74,2.4,36.35,17.42c7.61,15.02,0.69,32.17-5.08,38.34
				c0,0,5.21-1.99,10.01,4.18c4.8,6.17,5.53,12.2,1.51,13.31c-9.46,2.61-24.28,7-38.13,2.19c-8.64-3.57-11.25-6.58-10.97-12.07
				c-4.8,0.96-28.26-2.88-40.81-23.46C85.6,136.25,95.07,99.62,95.07,99.62z"/>
			<path class="st5" d="M142.49,180.32c-4.5,0-9.11-0.59-13.62-2.16c-8.46-3.49-11.31-6.55-11.14-12.01
				c-5.42,0.78-28.23-3.08-40.76-23.61c-0.06-0.1-0.04-0.24,0.06-0.31c8.27-6.05,17.72-42.3,17.81-42.67
				c0.02-0.06,0.06-0.12,0.12-0.15c0.06-0.03,0.13-0.03,0.19-0.01c0.12,0.05,12.29,4.69,29.11,2.87
				c18.4-1.99,29.34,3.25,36.58,17.55c7.87,15.54,0.42,32.11-4.61,38.04c1.65-0.3,5.75-0.41,9.52,4.45
				c3.31,4.26,4.81,8.59,3.91,11.3c-0.4,1.21-1.27,2.03-2.52,2.37l-0.95,0.26C159.88,177.98,151.41,180.32,142.49,180.32z
				 M117.97,165.64c0.06,0,0.11,0.02,0.15,0.06c0.05,0.05,0.08,0.12,0.08,0.19c-0.27,5.47,2.36,8.35,10.83,11.84
				c13.32,4.61,27.59,0.67,37.03-1.94l0.95-0.26c1.11-0.3,1.85-1,2.2-2.07c0.84-2.53-0.67-6.79-3.84-10.87
				c-4.63-5.95-9.54-4.19-9.75-4.11c-0.1,0.04-0.22,0-0.28-0.09c-0.06-0.09-0.05-0.21,0.02-0.29c5.5-5.89,12.62-23.11,5.04-38.07
				c-7.14-14.09-17.94-19.27-36.12-17.29c-15.62,1.69-27.27-2.16-29.08-2.81c-0.4,1.53-2.65,9.93-5.73,18.85
				c-4.48,13.01-8.53,20.98-12.02,23.7c6.7,10.88,16.25,16.62,23.09,19.53c7.85,3.33,14.88,4.14,17.36,3.64
				C117.94,165.64,117.96,165.64,117.97,165.64z"/>
		</g>
		<g>
			<path class="st7" d="M155.56,158.26c5.76-6.17,12.69-23.32,5.08-38.34c-0.17-0.33-0.34-0.65-0.51-0.97
				c4.05,10.07,1,22.99-2.23,30.15c-5.4,11.99-17.13,15.33-24.39,18.34c-8,3.32-15.8,3.51-15.19-1.4
				c0.62-4.91,7.77-11.86,15.77-12.65c8-0.78,13.66-4.49,14.44-10.93c-17.56,7.8-28.68-0.78-25.95-9.17
				c3.21-9.86-1.37-13.66-3.9-19.9c-2.54-6.24-1.37-9.75,8-10.92c0.7-0.09,1.33-0.19,1.91-0.31c-1.39,0.07-2.83,0.18-4.3,0.34
				c-17.08,1.85-29.22-2.88-29.22-2.88s-9.46,36.62-17.9,42.8c12.55,20.58,36.01,24.42,40.81,23.46c-0.27,5.49,2.33,8.5,10.97,12.07
				c13.85,4.8,28.67,0.41,38.13-2.19c4.02-1.11,3.29-7.13-1.51-13.31C160.77,156.27,155.56,158.26,155.56,158.26z"/>
		</g>
		<g>
			<path class="st7" d="M123.27,158.22c6.2-5.76,15.07-6.2,15.07-6.2s-3.99-1.77-10.86,0.22c-6.87,1.77-14.4,3.1-14.72-8.32
				c-2.98,8.3-16.3,10.31-18.51-1.65c0,2.22,1.33,13.74-2.44,10.41c-3.77-3.32-5.32-6.2,0.89-15.29c3.3-8.9,2.34-21.12,0.54-31.18
				c-3.16,10.84-9.89,31.7-16.07,36.22c12.38,20.3,35.37,24.31,40.59,23.49C118.7,163.26,120.53,160.76,123.27,158.22z"/>
		</g>
		<g>
			<path class="st4" d="M94.17,138.04c0,0-5.77-29.95,7.7-33.34c7.83-1.97,16.33,6.41,11.66,36.52
				c-2.06,12.53-5.45,24.71-4.86,29.17c0.48,3.67,0.48,6.02-3,7.08c-3.48,1.06-5.85-5.01-15.45-8.02c-6.58-2.33-7.68-3.43-3.15-4.8
				c3.43-0.69,2.06-4.12,5.21-4.94C95.42,158.89,95.47,149.02,94.17,138.04z"/>
			<path class="st5" d="M104.86,177.83c-1.42,0-2.75-1.05-4.47-2.42c-2.22-1.76-5.27-4.18-10.25-5.74c-4.5-1.59-6.08-2.48-6.06-3.41
				c0.02-0.67,0.88-1.22,2.91-1.84c1.67-0.33,2.12-1.33,2.61-2.38c0.48-1.05,0.98-2.13,2.61-2.56c2.59-0.68,3.24-8.68,1.73-21.4
				c-0.06-0.29-1.44-7.71-1.2-15.44c0.32-10.47,3.46-16.75,9.08-18.16c2.88-0.72,5.55-0.06,7.73,1.93
				c7.34,6.69,5.79,24.7,4.22,34.85c-0.76,4.65-1.72,9.31-2.57,13.42c-1.43,6.93-2.66,12.92-2.29,15.69
				c0.47,3.58,0.52,6.21-3.16,7.33C105.43,177.79,105.14,177.83,104.86,177.83z M104.02,104.66c-0.68,0-1.38,0.09-2.09,0.27
				c-13.1,3.29-7.59,32.77-7.53,33.07c0,0.01,0,0.01,0,0.02c0.92,7.74,1.87,20.89-2.07,21.92c-1.43,0.37-1.86,1.31-2.31,2.3
				c-0.51,1.11-1.04,2.26-2.92,2.64c-2.1,0.64-2.55,1.11-2.55,1.39c-0.02,0.92,4.02,2.35,5.74,2.96c5.05,1.59,8.14,4.03,10.39,5.82
				c2.03,1.61,3.37,2.67,4.92,2.2c3.35-1.02,3.31-3.26,2.84-6.82c-0.38-2.85,0.81-8.58,2.3-15.84c0.85-4.11,1.8-8.76,2.56-13.4
				c3.64-23.41-0.99-31.62-4.07-34.43C107.71,105.37,105.94,104.66,104.02,104.66z"/>
		</g>
		<g>
			<path class="st7" d="M113.75,139.69c-0.44,1.48-0.79,2.91-0.99,4.22c-1.34,8.85-6.7,18.5-5.36,24.4c1.34,5.9-1.61,6.97-6.43,3.49
				c-4.83-3.49-5.9-5.36-3.75-7.51c2.15-2.14,8.04,6.17,5.36,1.61c-2.68-4.56-4.83-6.7-2.95-9.38c1.88-2.68,3.75-5.36,1.88-12.87
				c-1.88-7.51,2.15-12.6-0.54-19.03c-2.68-6.43-4.02-12.87,0.8-18.23c1.96-2.18,4.71-1.57,7.29-0.08c-2.17-1.8-4.71-2.22-7.19-1.6
				c-13.47,3.38-7.7,33.34-7.7,33.34c1.3,10.98,1.25,20.84-1.9,21.67c-3.15,0.82-1.78,4.25-5.21,4.94c-4.53,1.37-3.43,2.47,3.15,4.8
				c9.6,3.02,11.97,9.08,15.45,8.02c3.48-1.06,3.48-3.41,3-7.08c-0.59-4.47,2.81-16.64,4.86-29.17
				C113.61,140.7,113.68,140.2,113.75,139.69z"/>
		</g>
		<path class="st1" d="M47.31,169.5c-2.37,0.18-4.6,1.6-6.46,2.99c-0.96,0.71-1.76,1.67-2.44,2.64c-0.72,1.03-1.54,2.44-1.28,3.75
			c0.07,0.37,0.55-0.23,0.55-0.42c0-0.66,0.09-1.26,0.37-1.86c0.25-0.54,0.59-1.05,0.95-1.53c0.65-0.88,1.43-1.67,2.23-2.41
			c1.69-1.58,3.88-2.31,6.04-2.99C47.29,169.64,47.37,169.49,47.31,169.5z"/>
		<path class="st1" d="M42.37,167.91c-1.02,0.08-2.05,0.59-2.95,1.06c-0.96,0.5-1.83,1.15-2.71,1.77c-0.86,0.61-1.6,1.37-2.26,2.19
			c-0.66,0.82-1.44,1.8-1.72,2.84c-0.07,0.25,0.15,0.25,0.28,0.09c0.61-0.8,1.04-1.71,1.67-2.51c0.65-0.82,1.37-1.58,2.12-2.3
			c0.76-0.72,1.67-1.28,2.59-1.76c0.95-0.5,1.96-0.83,2.94-1.27C42.35,168.01,42.42,167.91,42.37,167.91z"/>
		<path class="st1" d="M40.72,166.1c-0.68,0.16-1.33,0.46-1.98,0.72c-0.67,0.27-1.34,0.53-2,0.84c-0.61,0.29-1.21,0.6-1.81,0.92
			c-0.64,0.34-1.32,0.63-1.91,1.06c-0.09,0.07-0.18,0.18-0.19,0.29c-0.01,0.06,0,0.2,0.11,0.15c0.62-0.3,1.18-0.71,1.77-1.06
			c0.62-0.36,1.26-0.67,1.9-0.99c0.68-0.33,1.37-0.68,2.06-0.98c0.66-0.29,1.36-0.51,2.01-0.82
			C40.72,166.23,40.8,166.08,40.72,166.1z"/>
		<path class="st5" d="M135.7,152.37c-3.86,0.36-7.6,1.97-10.75,4.2c-1.62,1.15-3.13,2.48-4.39,4.01c-1.31,1.58-2.68,3.42-3.23,5.41
			c-0.28,1,0.67,0.53,1,0.05c-0.24,0.35,0.25-0.29,0.29-0.36c0.14-0.22,0.26-0.46,0.38-0.69c0.21-0.38,0.42-0.74,0.65-1.11
			c0.46-0.76,0.96-1.5,1.52-2.2c1.19-1.5,2.5-2.89,3.98-4.1c3.03-2.49,6.64-4.06,10.46-4.93
			C135.67,152.63,135.81,152.36,135.7,152.37z"/>
		<path class="st5" d="M156.67,157.13c-0.68,0.36-1.26,1.03-1.86,1.53c-0.71,0.6-1.44,1.17-2.19,1.71c-1.37,1-2.81,1.94-4.31,2.73
			c-3.12,1.63-6.42,2.84-9.77,3.9c-0.13,0.04-0.35,0.47-0.12,0.43c1.78-0.33,3.52-0.84,5.21-1.5c-1.19,1.03-2.22,2.25-3.07,3.58
			c-0.05,0.07-0.14,0.27-0.03,0.34c0.11,0.07,0.24-0.11,0.29-0.18c1.23-1.73,2.8-3.2,4.51-4.45c1-0.45,1.97-0.94,2.92-1.47
			c1.54-0.86,3.06-1.75,4.51-2.76c1.34-0.93,3-1.96,3.99-3.28C156.86,157.55,157.09,156.91,156.67,157.13z"/>
		<path class="st7" d="M98.92,172.44c-2.49-2.77-2.77-2.91-7.48-4.71c-4.71-1.8-1.25-2.63,0.69-4.85c1.94-2.22,7.21,0.55,6.1-0.69
			c-1.11-1.25-3.33-1.66-1.94-4.71c1.39-3.05,1.25-6.1,0.55-14.55c-0.69-8.45-2.49-9.84-0.83-14.55c1.66-4.71,1.52-6.24,0.97-14.55
			c-0.18-2.69-0.05-4.69,0.2-6.17c-7.23,8.44-3.01,30.39-3.01,30.39c1.3,10.98,1.25,20.84-1.9,21.67c-3.15,0.82-1.78,4.25-5.21,4.94
			c-4.53,1.37-3.43,2.47,3.15,4.8c9.6,3.02,11.97,9.08,15.45,8.02c0.57-0.17,1.04-0.39,1.44-0.63
			C104.23,176.99,100.6,174.31,98.92,172.44z"/>
		<g>
			<path class="st7" d="M165.57,162.45c-4.8-6.17-10.01-4.18-10.01-4.18c0.15-0.16,0.29-0.33,0.44-0.5
				c-2.16,1.99-9.36,8.09-17.47,9.23c0,0,2.2,0.43,3.54-0.03c0.52-0.15-1.6,1.86-2.01,3.87c2.94-2.06,9.32-6.19,15.49-8.25
				c6.17-2.06,9.26,1.85,10.49,6.38c1.23,4.53-8.23,8.44-19.96,9.67c-11.73,1.23-19.75-0.41-26.13-6.38
				c-0.02,0.04-0.04,0.08-0.06,0.12c1.67,1.99,4.53,3.71,9.05,5.57c13.85,4.8,28.67,0.41,38.13-2.19
				C171.1,174.64,170.37,168.62,165.57,162.45z"/>
		</g>
		<path class="st8" d="M107.97,106.53c0,0,7.07,8.67,4.34,34.7C115.68,130.78,114.72,111.19,107.97,106.53z"/>
		<path class="st8" d="M140.74,103.8c0,0,16.22,7.07,19.28,22.33C161.3,118.26,152.47,106.85,140.74,103.8z"/>
		<path class="st8" d="M132.38,153.94c0,0-12.62,5.76-11.8,13.99C118.11,164.92,120.72,157.78,132.38,153.94z"/>
	</g>
	<g class="st12">
		<defs>
			<path id="SVGID_1_" class="st12" d="M57.9,120.58l12.47,18.41c0,0-1.65,8.37-3.02,13.72c-1.37,5.35-4.66,5.08-3.43,6.86
				c1.23,1.78,1.1,2.19-0.14,3.29c-1.23,1.1-0.82,4.25-1.51,7.96c-0.69,3.7-4.8,3.29-6.31-1.78c-1.92-7.82-11.8-6.58-11.66-7.82
				c0.14-1.23,3.02-3.57,5.21-3.98c-0.55-2.06,2.47-4.25,4.39-11.66C56.39,133.92,57.9,120.58,57.9,120.58z M165.57,162.45
				c-4.8-6.17-10.01-4.18-10.01-4.18c5.76-6.17,12.69-23.32,5.08-38.34c-7.61-15.02-19.27-19.27-36.35-17.42
				c-17.08,1.85-29.22-2.88-29.22-2.88s-9.46,36.62-17.9,42.8c4.51,7.39,10.42,12.61,16.38,16.24c-0.35,0.56-0.77,0.92-1.28,1.05
				c-3.15,0.82-1.78,4.25-5.21,4.94c-4.53,1.37-3.43,2.47,3.15,4.8c9.6,3.02,11.97,9.08,15.45,8.02c3.48-1.06,3.48-3.41,3-7.08
				c-0.16-1.24-0.02-3.09,0.32-5.38c4.2,0.99,7.5,1.15,8.99,0.85c-0.27,5.49,2.33,8.5,10.97,12.07c13.85,4.8,28.67,0.41,38.13-2.19
				C171.1,174.64,170.37,168.62,165.57,162.45z"/>
		</defs>
		<clipPath id="SVGID_2_">
			<use xlink:href="#SVGID_1_"  style="overflow:visible;"/>
		</clipPath>
		<g class="st13">
			<g>
				<path class="st9" d="M39.48,104.81c0,0.99-0.8,1.79-1.79,1.79c-0.99,0-1.79-0.8-1.79-1.79c0-0.99,0.8-1.79,1.79-1.79
					C38.67,103.02,39.48,103.82,39.48,104.81z"/>
				<path class="st9" d="M49.63,104.81c0,0.99-0.8,1.79-1.79,1.79c-0.99,0-1.79-0.8-1.79-1.79c0-0.99,0.8-1.79,1.79-1.79
					C48.82,103.02,49.63,103.82,49.63,104.81z"/>
				<path class="st9" d="M59.78,104.81c0,0.99-0.8,1.79-1.79,1.79c-0.99,0-1.79-0.8-1.79-1.79c0-0.99,0.8-1.79,1.79-1.79
					C58.98,103.02,59.78,103.82,59.78,104.81z"/>
				<path class="st9" d="M69.93,104.81c0,0.99-0.8,1.79-1.79,1.79c-0.99,0-1.79-0.8-1.79-1.79c0-0.99,0.8-1.79,1.79-1.79
					C69.13,103.02,69.93,103.82,69.93,104.81z"/>
				<path class="st9" d="M80.08,104.81c0,0.99-0.8,1.79-1.79,1.79c-0.99,0-1.79-0.8-1.79-1.79c0-0.99,0.8-1.79,1.79-1.79
					C79.28,103.02,80.08,103.82,80.08,104.81z"/>
				<path class="st9" d="M90.23,104.81c0,0.99-0.8,1.79-1.79,1.79c-0.99,0-1.79-0.8-1.79-1.79c0-0.99,0.8-1.79,1.79-1.79
					C89.43,103.02,90.23,103.82,90.23,104.81z"/>
				<path class="st9" d="M100.38,104.81c0,0.99-0.8,1.79-1.79,1.79c-0.99,0-1.79-0.8-1.79-1.79c0-0.99,0.8-1.79,1.79-1.79
					C99.58,103.02,100.38,103.82,100.38,104.81z"/>
				<path class="st9" d="M110.53,104.81c0,0.99-0.8,1.79-1.79,1.79c-0.99,0-1.79-0.8-1.79-1.79c0-0.99,0.8-1.79,1.79-1.79
					C109.73,103.02,110.53,103.82,110.53,104.81z"/>
				<path class="st9" d="M120.68,104.81c0,0.99-0.8,1.79-1.79,1.79s-1.79-0.8-1.79-1.79c0-0.99,0.8-1.79,1.79-1.79
					S120.68,103.82,120.68,104.81z"/>
				<path class="st9" d="M130.83,104.81c0,0.99-0.8,1.79-1.79,1.79c-0.99,0-1.79-0.8-1.79-1.79c0-0.99,0.8-1.79,1.79-1.79
					C130.03,103.02,130.83,103.82,130.83,104.81z"/>
				<path class="st9" d="M140.98,104.81c0,0.99-0.8,1.79-1.79,1.79c-0.99,0-1.79-0.8-1.79-1.79c0-0.99,0.8-1.79,1.79-1.79
					C140.18,103.02,140.98,103.82,140.98,104.81z"/>
				<path class="st9" d="M151.13,104.81c0,0.99-0.8,1.79-1.79,1.79c-0.99,0-1.79-0.8-1.79-1.79c0-0.99,0.8-1.79,1.79-1.79
					C150.33,103.02,151.13,103.82,151.13,104.81z"/>
				<path class="st9" d="M161.28,104.81c0,0.99-0.8,1.79-1.79,1.79c-0.99,0-1.79-0.8-1.79-1.79c0-0.99,0.8-1.79,1.79-1.79
					C160.48,103.02,161.28,103.82,161.28,104.81z"/>
				<path class="st9" d="M171.43,104.81c0,0.99-0.8,1.79-1.79,1.79c-0.99,0-1.79-0.8-1.79-1.79c0-0.99,0.8-1.79,1.79-1.79
					C170.63,103.02,171.43,103.82,171.43,104.81z"/>
				<path class="st9" d="M181.58,104.81c0,0.99-0.8,1.79-1.79,1.79c-0.99,0-1.79-0.8-1.79-1.79c0-0.99,0.8-1.79,1.79-1.79
					C180.78,103.02,181.58,103.82,181.58,104.81z"/>
			</g>
			<g>
				<path class="st9" d="M34.26,112.76c0,0.99-0.8,1.79-1.79,1.79c-0.99,0-1.79-0.8-1.79-1.79s0.8-1.79,1.79-1.79
					C33.46,110.97,34.26,111.77,34.26,112.76z"/>
				<path class="st9" d="M44.42,112.76c0,0.99-0.8,1.79-1.79,1.79s-1.79-0.8-1.79-1.79s0.8-1.79,1.79-1.79
					S44.42,111.77,44.42,112.76z"/>
				<path class="st9" d="M54.57,112.76c0,0.99-0.8,1.79-1.79,1.79c-0.99,0-1.79-0.8-1.79-1.79s0.8-1.79,1.79-1.79
					C53.76,110.97,54.57,111.77,54.57,112.76z"/>
				<path class="st9" d="M64.72,112.76c0,0.99-0.8,1.79-1.79,1.79s-1.79-0.8-1.79-1.79s0.8-1.79,1.79-1.79
					S64.72,111.77,64.72,112.76z"/>
				<path class="st9" d="M74.87,112.76c0,0.99-0.8,1.79-1.79,1.79c-0.99,0-1.79-0.8-1.79-1.79s0.8-1.79,1.79-1.79
					C74.06,110.97,74.87,111.77,74.87,112.76z"/>
				<path class="st9" d="M85.02,112.76c0,0.99-0.8,1.79-1.79,1.79c-0.99,0-1.79-0.8-1.79-1.79s0.8-1.79,1.79-1.79
					C84.21,110.97,85.02,111.77,85.02,112.76z"/>
				<path class="st9" d="M95.17,112.76c0,0.99-0.8,1.79-1.79,1.79c-0.99,0-1.79-0.8-1.79-1.79s0.8-1.79,1.79-1.79
					C94.36,110.97,95.17,111.77,95.17,112.76z"/>
				<path class="st9" d="M105.32,112.76c0,0.99-0.8,1.79-1.79,1.79c-0.99,0-1.79-0.8-1.79-1.79s0.8-1.79,1.79-1.79
					C104.51,110.97,105.32,111.77,105.32,112.76z"/>
				<path class="st9" d="M115.47,112.76c0,0.99-0.8,1.79-1.79,1.79c-0.99,0-1.79-0.8-1.79-1.79s0.8-1.79,1.79-1.79
					C114.66,110.97,115.47,111.77,115.47,112.76z"/>
				<path class="st9" d="M125.62,112.76c0,0.99-0.8,1.79-1.79,1.79c-0.99,0-1.79-0.8-1.79-1.79s0.8-1.79,1.79-1.79
					C124.82,110.97,125.62,111.77,125.62,112.76z"/>
				<path class="st9" d="M135.77,112.76c0,0.99-0.8,1.79-1.79,1.79c-0.99,0-1.79-0.8-1.79-1.79s0.8-1.79,1.79-1.79
					C134.97,110.97,135.77,111.77,135.77,112.76z"/>
				<path class="st9" d="M145.92,112.76c0,0.99-0.8,1.79-1.79,1.79c-0.99,0-1.79-0.8-1.79-1.79s0.8-1.79,1.79-1.79
					C145.12,110.97,145.92,111.77,145.92,112.76z"/>
				<path class="st9" d="M156.07,112.76c0,0.99-0.8,1.79-1.79,1.79c-0.99,0-1.79-0.8-1.79-1.79s0.8-1.79,1.79-1.79
					C155.27,110.97,156.07,111.77,156.07,112.76z"/>
				<path class="st9" d="M166.22,112.76c0,0.99-0.8,1.79-1.79,1.79c-0.99,0-1.79-0.8-1.79-1.79s0.8-1.79,1.79-1.79
					C165.42,110.97,166.22,111.77,166.22,112.76z"/>
				<path class="st9" d="M176.37,112.76c0,0.99-0.8,1.79-1.79,1.79c-0.99,0-1.79-0.8-1.79-1.79s0.8-1.79,1.79-1.79
					C175.57,110.97,176.37,111.77,176.37,112.76z"/>
			</g>
			<g>
				<path class="st9" d="M39.48,121.27c0,0.99-0.8,1.79-1.79,1.79c-0.99,0-1.79-0.8-1.79-1.79c0-0.99,0.8-1.79,1.79-1.79
					C38.67,119.48,39.48,120.28,39.48,121.27z"/>
				<path class="st9" d="M49.63,121.27c0,0.99-0.8,1.79-1.79,1.79c-0.99,0-1.79-0.8-1.79-1.79c0-0.99,0.8-1.79,1.79-1.79
					C48.82,119.48,49.63,120.28,49.63,121.27z"/>
				<path class="st9" d="M59.78,121.27c0,0.99-0.8,1.79-1.79,1.79c-0.99,0-1.79-0.8-1.79-1.79c0-0.99,0.8-1.79,1.79-1.79
					C58.98,119.48,59.78,120.28,59.78,121.27z"/>
				<path class="st9" d="M69.93,121.27c0,0.99-0.8,1.79-1.79,1.79c-0.99,0-1.79-0.8-1.79-1.79c0-0.99,0.8-1.79,1.79-1.79
					C69.13,119.48,69.93,120.28,69.93,121.27z"/>
				<path class="st9" d="M80.08,121.27c0,0.99-0.8,1.79-1.79,1.79c-0.99,0-1.79-0.8-1.79-1.79c0-0.99,0.8-1.79,1.79-1.79
					C79.28,119.48,80.08,120.28,80.08,121.27z"/>
				<path class="st9" d="M90.23,121.27c0,0.99-0.8,1.79-1.79,1.79c-0.99,0-1.79-0.8-1.79-1.79c0-0.99,0.8-1.79,1.79-1.79
					C89.43,119.48,90.23,120.28,90.23,121.27z"/>
				<path class="st9" d="M100.38,121.27c0,0.99-0.8,1.79-1.79,1.79c-0.99,0-1.79-0.8-1.79-1.79c0-0.99,0.8-1.79,1.79-1.79
					C99.58,119.48,100.38,120.28,100.38,121.27z"/>
				<path class="st9" d="M110.53,121.27c0,0.99-0.8,1.79-1.79,1.79c-0.99,0-1.79-0.8-1.79-1.79c0-0.99,0.8-1.79,1.79-1.79
					C109.73,119.48,110.53,120.28,110.53,121.27z"/>
				<path class="st9" d="M120.68,121.27c0,0.99-0.8,1.79-1.79,1.79s-1.79-0.8-1.79-1.79c0-0.99,0.8-1.79,1.79-1.79
					S120.68,120.28,120.68,121.27z"/>
				<path class="st9" d="M130.83,121.27c0,0.99-0.8,1.79-1.79,1.79c-0.99,0-1.79-0.8-1.79-1.79c0-0.99,0.8-1.79,1.79-1.79
					C130.03,119.48,130.83,120.28,130.83,121.27z"/>
				<path class="st9" d="M140.98,121.27c0,0.99-0.8,1.79-1.79,1.79c-0.99,0-1.79-0.8-1.79-1.79c0-0.99,0.8-1.79,1.79-1.79
					C140.18,119.48,140.98,120.28,140.98,121.27z"/>
				<path class="st9" d="M151.13,121.27c0,0.99-0.8,1.79-1.79,1.79c-0.99,0-1.79-0.8-1.79-1.79c0-0.99,0.8-1.79,1.79-1.79
					C150.33,119.48,151.13,120.28,151.13,121.27z"/>
				<path class="st9" d="M161.28,121.27c0,0.99-0.8,1.79-1.79,1.79c-0.99,0-1.79-0.8-1.79-1.79c0-0.99,0.8-1.79,1.79-1.79
					C160.48,119.48,161.28,120.28,161.28,121.27z"/>
				<path class="st9" d="M171.43,121.27c0,0.99-0.8,1.79-1.79,1.79c-0.99,0-1.79-0.8-1.79-1.79c0-0.99,0.8-1.79,1.79-1.79
					C170.63,119.48,171.43,120.28,171.43,121.27z"/>
				<path class="st9" d="M181.58,121.27c0,0.99-0.8,1.79-1.79,1.79c-0.99,0-1.79-0.8-1.79-1.79c0-0.99,0.8-1.79,1.79-1.79
					C180.78,119.48,181.58,120.28,181.58,121.27z"/>
			</g>
			<g>
				<path class="st9" d="M34.26,129.22c0,0.99-0.8,1.79-1.79,1.79c-0.99,0-1.79-0.8-1.79-1.79c0-0.99,0.8-1.79,1.79-1.79
					C33.46,127.43,34.26,128.23,34.26,129.22z"/>
				<path class="st9" d="M44.42,129.22c0,0.99-0.8,1.79-1.79,1.79s-1.79-0.8-1.79-1.79c0-0.99,0.8-1.79,1.79-1.79
					S44.42,128.23,44.42,129.22z"/>
				<path class="st9" d="M54.57,129.22c0,0.99-0.8,1.79-1.79,1.79c-0.99,0-1.79-0.8-1.79-1.79c0-0.99,0.8-1.79,1.79-1.79
					C53.76,127.43,54.57,128.23,54.57,129.22z"/>
				<circle class="st9" cx="62.92" cy="129.22" r="1.79"/>
				<path class="st9" d="M74.87,129.22c0,0.99-0.8,1.79-1.79,1.79c-0.99,0-1.79-0.8-1.79-1.79c0-0.99,0.8-1.79,1.79-1.79
					C74.06,127.43,74.87,128.23,74.87,129.22z"/>
				<path class="st9" d="M85.02,129.22c0,0.99-0.8,1.79-1.79,1.79c-0.99,0-1.79-0.8-1.79-1.79c0-0.99,0.8-1.79,1.79-1.79
					C84.21,127.43,85.02,128.23,85.02,129.22z"/>
				<path class="st9" d="M95.17,129.22c0,0.99-0.8,1.79-1.79,1.79c-0.99,0-1.79-0.8-1.79-1.79c0-0.99,0.8-1.79,1.79-1.79
					C94.36,127.43,95.17,128.23,95.17,129.22z"/>
				<path class="st9" d="M105.32,129.22c0,0.99-0.8,1.79-1.79,1.79c-0.99,0-1.79-0.8-1.79-1.79c0-0.99,0.8-1.79,1.79-1.79
					C104.51,127.43,105.32,128.23,105.32,129.22z"/>
				<path class="st9" d="M115.47,129.22c0,0.99-0.8,1.79-1.79,1.79c-0.99,0-1.79-0.8-1.79-1.79c0-0.99,0.8-1.79,1.79-1.79
					C114.66,127.43,115.47,128.23,115.47,129.22z"/>
				<path class="st9" d="M125.62,129.22c0,0.99-0.8,1.79-1.79,1.79c-0.99,0-1.79-0.8-1.79-1.79c0-0.99,0.8-1.79,1.79-1.79
					C124.82,127.43,125.62,128.23,125.62,129.22z"/>
				<path class="st9" d="M135.77,129.22c0,0.99-0.8,1.79-1.79,1.79c-0.99,0-1.79-0.8-1.79-1.79c0-0.99,0.8-1.79,1.79-1.79
					C134.97,127.43,135.77,128.23,135.77,129.22z"/>
				<path class="st9" d="M145.92,129.22c0,0.99-0.8,1.79-1.79,1.79c-0.99,0-1.79-0.8-1.79-1.79c0-0.99,0.8-1.79,1.79-1.79
					C145.12,127.43,145.92,128.23,145.92,129.22z"/>
				<circle class="st9" cx="154.28" cy="129.22" r="1.79"/>
				<path class="st9" d="M166.22,129.22c0,0.99-0.8,1.79-1.79,1.79c-0.99,0-1.79-0.8-1.79-1.79c0-0.99,0.8-1.79,1.79-1.79
					C165.42,127.43,166.22,128.23,166.22,129.22z"/>
				<path class="st9" d="M176.37,129.22c0,0.99-0.8,1.79-1.79,1.79c-0.99,0-1.79-0.8-1.79-1.79c0-0.99,0.8-1.79,1.79-1.79
					C175.57,127.43,176.37,128.23,176.37,129.22z"/>
			</g>
			<g>
				<path class="st9" d="M39.48,137.73c0,0.99-0.8,1.79-1.79,1.79c-0.99,0-1.79-0.8-1.79-1.79c0-0.99,0.8-1.79,1.79-1.79
					C38.67,135.94,39.48,136.74,39.48,137.73z"/>
				<path class="st9" d="M49.63,137.73c0,0.99-0.8,1.79-1.79,1.79c-0.99,0-1.79-0.8-1.79-1.79c0-0.99,0.8-1.79,1.79-1.79
					C48.82,135.94,49.63,136.74,49.63,137.73z"/>
				<path class="st9" d="M59.78,137.73c0,0.99-0.8,1.79-1.79,1.79c-0.99,0-1.79-0.8-1.79-1.79c0-0.99,0.8-1.79,1.79-1.79
					C58.98,135.94,59.78,136.74,59.78,137.73z"/>
				<path class="st9" d="M69.93,137.73c0,0.99-0.8,1.79-1.79,1.79c-0.99,0-1.79-0.8-1.79-1.79c0-0.99,0.8-1.79,1.79-1.79
					C69.13,135.94,69.93,136.74,69.93,137.73z"/>
				<path class="st9" d="M80.08,137.73c0,0.99-0.8,1.79-1.79,1.79c-0.99,0-1.79-0.8-1.79-1.79c0-0.99,0.8-1.79,1.79-1.79
					C79.28,135.94,80.08,136.74,80.08,137.73z"/>
				<path class="st9" d="M90.23,137.73c0,0.99-0.8,1.79-1.79,1.79c-0.99,0-1.79-0.8-1.79-1.79c0-0.99,0.8-1.79,1.79-1.79
					C89.43,135.94,90.23,136.74,90.23,137.73z"/>
				<path class="st9" d="M100.38,137.73c0,0.99-0.8,1.79-1.79,1.79c-0.99,0-1.79-0.8-1.79-1.79c0-0.99,0.8-1.79,1.79-1.79
					C99.58,135.94,100.38,136.74,100.38,137.73z"/>
				<path class="st9" d="M110.53,137.73c0,0.99-0.8,1.79-1.79,1.79c-0.99,0-1.79-0.8-1.79-1.79c0-0.99,0.8-1.79,1.79-1.79
					C109.73,135.94,110.53,136.74,110.53,137.73z"/>
				<path class="st9" d="M120.68,137.73c0,0.99-0.8,1.79-1.79,1.79s-1.79-0.8-1.79-1.79c0-0.99,0.8-1.79,1.79-1.79
					S120.68,136.74,120.68,137.73z"/>
				<path class="st9" d="M130.83,137.73c0,0.99-0.8,1.79-1.79,1.79c-0.99,0-1.79-0.8-1.79-1.79c0-0.99,0.8-1.79,1.79-1.79
					C130.03,135.94,130.83,136.74,130.83,137.73z"/>
				<path class="st9" d="M140.98,137.73c0,0.99-0.8,1.79-1.79,1.79c-0.99,0-1.79-0.8-1.79-1.79c0-0.99,0.8-1.79,1.79-1.79
					C140.18,135.94,140.98,136.74,140.98,137.73z"/>
				<path class="st9" d="M151.13,137.73c0,0.99-0.8,1.79-1.79,1.79c-0.99,0-1.79-0.8-1.79-1.79c0-0.99,0.8-1.79,1.79-1.79
					C150.33,135.94,151.13,136.74,151.13,137.73z"/>
				<path class="st9" d="M161.28,137.73c0,0.99-0.8,1.79-1.79,1.79c-0.99,0-1.79-0.8-1.79-1.79c0-0.99,0.8-1.79,1.79-1.79
					C160.48,135.94,161.28,136.74,161.28,137.73z"/>
				<path class="st9" d="M171.43,137.73c0,0.99-0.8,1.79-1.79,1.79c-0.99,0-1.79-0.8-1.79-1.79c0-0.99,0.8-1.79,1.79-1.79
					C170.63,135.94,171.43,136.74,171.43,137.73z"/>
				<path class="st9" d="M181.58,137.73c0,0.99-0.8,1.79-1.79,1.79c-0.99,0-1.79-0.8-1.79-1.79c0-0.99,0.8-1.79,1.79-1.79
					C180.78,135.94,181.58,136.74,181.58,137.73z"/>
			</g>
			<g>
				<path class="st9" d="M34.26,145.68c0,0.99-0.8,1.79-1.79,1.79c-0.99,0-1.79-0.8-1.79-1.79c0-0.99,0.8-1.79,1.79-1.79
					C33.46,143.89,34.26,144.69,34.26,145.68z"/>
				<path class="st9" d="M44.42,145.68c0,0.99-0.8,1.79-1.79,1.79s-1.79-0.8-1.79-1.79c0-0.99,0.8-1.79,1.79-1.79
					S44.42,144.69,44.42,145.68z"/>
				<path class="st9" d="M54.57,145.68c0,0.99-0.8,1.79-1.79,1.79c-0.99,0-1.79-0.8-1.79-1.79c0-0.99,0.8-1.79,1.79-1.79
					C53.76,143.89,54.57,144.69,54.57,145.68z"/>
				<path class="st9" d="M64.72,145.68c0,0.99-0.8,1.79-1.79,1.79s-1.79-0.8-1.79-1.79c0-0.99,0.8-1.79,1.79-1.79
					S64.72,144.69,64.72,145.68z"/>
				<path class="st9" d="M74.87,145.68c0,0.99-0.8,1.79-1.79,1.79c-0.99,0-1.79-0.8-1.79-1.79c0-0.99,0.8-1.79,1.79-1.79
					C74.06,143.89,74.87,144.69,74.87,145.68z"/>
				<path class="st9" d="M85.02,145.68c0,0.99-0.8,1.79-1.79,1.79c-0.99,0-1.79-0.8-1.79-1.79c0-0.99,0.8-1.79,1.79-1.79
					C84.21,143.89,85.02,144.69,85.02,145.68z"/>
				<path class="st9" d="M95.17,145.68c0,0.99-0.8,1.79-1.79,1.79c-0.99,0-1.79-0.8-1.79-1.79c0-0.99,0.8-1.79,1.79-1.79
					C94.36,143.89,95.17,144.69,95.17,145.68z"/>
				<path class="st9" d="M105.32,145.68c0,0.99-0.8,1.79-1.79,1.79c-0.99,0-1.79-0.8-1.79-1.79c0-0.99,0.8-1.79,1.79-1.79
					C104.51,143.89,105.32,144.69,105.32,145.68z"/>
				<path class="st9" d="M115.47,145.68c0,0.99-0.8,1.79-1.79,1.79c-0.99,0-1.79-0.8-1.79-1.79c0-0.99,0.8-1.79,1.79-1.79
					C114.66,143.89,115.47,144.69,115.47,145.68z"/>
				<path class="st9" d="M125.62,145.68c0,0.99-0.8,1.79-1.79,1.79c-0.99,0-1.79-0.8-1.79-1.79c0-0.99,0.8-1.79,1.79-1.79
					C124.82,143.89,125.62,144.69,125.62,145.68z"/>
				<path class="st9" d="M135.77,145.68c0,0.99-0.8,1.79-1.79,1.79c-0.99,0-1.79-0.8-1.79-1.79c0-0.99,0.8-1.79,1.79-1.79
					C134.97,143.89,135.77,144.69,135.77,145.68z"/>
				<path class="st9" d="M145.92,145.68c0,0.99-0.8,1.79-1.79,1.79c-0.99,0-1.79-0.8-1.79-1.79c0-0.99,0.8-1.79,1.79-1.79
					C145.12,143.89,145.92,144.69,145.92,145.68z"/>
				<path class="st9" d="M156.07,145.68c0,0.99-0.8,1.79-1.79,1.79c-0.99,0-1.79-0.8-1.79-1.79c0-0.99,0.8-1.79,1.79-1.79
					C155.27,143.89,156.07,144.69,156.07,145.68z"/>
				<path class="st9" d="M166.22,145.68c0,0.99-0.8,1.79-1.79,1.79c-0.99,0-1.79-0.8-1.79-1.79c0-0.99,0.8-1.79,1.79-1.79
					C165.42,143.89,166.22,144.69,166.22,145.68z"/>
				<path class="st9" d="M176.37,145.68c0,0.99-0.8,1.79-1.79,1.79c-0.99,0-1.79-0.8-1.79-1.79c0-0.99,0.8-1.79,1.79-1.79
					C175.57,143.89,176.37,144.69,176.37,145.68z"/>
			</g>
			<g>
				<path class="st9" d="M39.48,154.19c0,0.99-0.8,1.79-1.79,1.79c-0.99,0-1.79-0.8-1.79-1.79c0-0.99,0.8-1.79,1.79-1.79
					C38.67,152.4,39.48,153.2,39.48,154.19z"/>
				<path class="st9" d="M49.63,154.19c0,0.99-0.8,1.79-1.79,1.79c-0.99,0-1.79-0.8-1.79-1.79c0-0.99,0.8-1.79,1.79-1.79
					C48.82,152.4,49.63,153.2,49.63,154.19z"/>
				<path class="st9" d="M59.78,154.19c0,0.99-0.8,1.79-1.79,1.79c-0.99,0-1.79-0.8-1.79-1.79c0-0.99,0.8-1.79,1.79-1.79
					C58.98,152.4,59.78,153.2,59.78,154.19z"/>
				<path class="st9" d="M69.93,154.19c0,0.99-0.8,1.79-1.79,1.79c-0.99,0-1.79-0.8-1.79-1.79c0-0.99,0.8-1.79,1.79-1.79
					C69.13,152.4,69.93,153.2,69.93,154.19z"/>
				<path class="st9" d="M80.08,154.19c0,0.99-0.8,1.79-1.79,1.79c-0.99,0-1.79-0.8-1.79-1.79c0-0.99,0.8-1.79,1.79-1.79
					C79.28,152.4,80.08,153.2,80.08,154.19z"/>
				<circle class="st9" cx="88.44" cy="154.19" r="1.79"/>
				<path class="st9" d="M100.38,154.19c0,0.99-0.8,1.79-1.79,1.79c-0.99,0-1.79-0.8-1.79-1.79c0-0.99,0.8-1.79,1.79-1.79
					C99.58,152.4,100.38,153.2,100.38,154.19z"/>
				<path class="st9" d="M110.53,154.19c0,0.99-0.8,1.79-1.79,1.79c-0.99,0-1.79-0.8-1.79-1.79c0-0.99,0.8-1.79,1.79-1.79
					C109.73,152.4,110.53,153.2,110.53,154.19z"/>
				<path class="st9" d="M120.68,154.19c0,0.99-0.8,1.79-1.79,1.79s-1.79-0.8-1.79-1.79c0-0.99,0.8-1.79,1.79-1.79
					S120.68,153.2,120.68,154.19z"/>
				<path class="st9" d="M130.83,154.19c0,0.99-0.8,1.79-1.79,1.79c-0.99,0-1.79-0.8-1.79-1.79c0-0.99,0.8-1.79,1.79-1.79
					C130.03,152.4,130.83,153.2,130.83,154.19z"/>
				<path class="st9" d="M140.98,154.19c0,0.99-0.8,1.79-1.79,1.79c-0.99,0-1.79-0.8-1.79-1.79c0-0.99,0.8-1.79,1.79-1.79
					C140.18,152.4,140.98,153.2,140.98,154.19z"/>
				<path class="st9" d="M151.13,154.19c0,0.99-0.8,1.79-1.79,1.79c-0.99,0-1.79-0.8-1.79-1.79c0-0.99,0.8-1.79,1.79-1.79
					C150.33,152.4,151.13,153.2,151.13,154.19z"/>
				<path class="st9" d="M161.28,154.19c0,0.99-0.8,1.79-1.79,1.79c-0.99,0-1.79-0.8-1.79-1.79c0-0.99,0.8-1.79,1.79-1.79
					C160.48,152.4,161.28,153.2,161.28,154.19z"/>
				<path class="st9" d="M171.43,154.19c0,0.99-0.8,1.79-1.79,1.79c-0.99,0-1.79-0.8-1.79-1.79c0-0.99,0.8-1.79,1.79-1.79
					C170.63,152.4,171.43,153.2,171.43,154.19z"/>
				<circle class="st9" cx="179.79" cy="154.19" r="1.79"/>
			</g>
			<g>
				<path class="st9" d="M34.26,162.14c0,0.99-0.8,1.79-1.79,1.79c-0.99,0-1.79-0.8-1.79-1.79c0-0.99,0.8-1.79,1.79-1.79
					C33.46,160.35,34.26,161.15,34.26,162.14z"/>
				<path class="st9" d="M44.42,162.14c0,0.99-0.8,1.79-1.79,1.79s-1.79-0.8-1.79-1.79c0-0.99,0.8-1.79,1.79-1.79
					S44.42,161.15,44.42,162.14z"/>
				<path class="st9" d="M54.57,162.14c0,0.99-0.8,1.79-1.79,1.79c-0.99,0-1.79-0.8-1.79-1.79c0-0.99,0.8-1.79,1.79-1.79
					C53.76,160.35,54.57,161.15,54.57,162.14z"/>
				<path class="st9" d="M64.72,162.14c0,0.99-0.8,1.79-1.79,1.79s-1.79-0.8-1.79-1.79c0-0.99,0.8-1.79,1.79-1.79
					S64.72,161.15,64.72,162.14z"/>
				<path class="st9" d="M74.87,162.14c0,0.99-0.8,1.79-1.79,1.79c-0.99,0-1.79-0.8-1.79-1.79c0-0.99,0.8-1.79,1.79-1.79
					C74.06,160.35,74.87,161.15,74.87,162.14z"/>
				<path class="st9" d="M85.02,162.14c0,0.99-0.8,1.79-1.79,1.79c-0.99,0-1.79-0.8-1.79-1.79c0-0.99,0.8-1.79,1.79-1.79
					C84.21,160.35,85.02,161.15,85.02,162.14z"/>
				<path class="st9" d="M95.17,162.14c0,0.99-0.8,1.79-1.79,1.79c-0.99,0-1.79-0.8-1.79-1.79c0-0.99,0.8-1.79,1.79-1.79
					C94.36,160.35,95.17,161.15,95.17,162.14z"/>
				<path class="st9" d="M105.32,162.14c0,0.99-0.8,1.79-1.79,1.79c-0.99,0-1.79-0.8-1.79-1.79c0-0.99,0.8-1.79,1.79-1.79
					C104.51,160.35,105.32,161.15,105.32,162.14z"/>
				<path class="st9" d="M115.47,162.14c0,0.99-0.8,1.79-1.79,1.79c-0.99,0-1.79-0.8-1.79-1.79c0-0.99,0.8-1.79,1.79-1.79
					C114.66,160.35,115.47,161.15,115.47,162.14z"/>
				<path class="st9" d="M125.62,162.14c0,0.99-0.8,1.79-1.79,1.79c-0.99,0-1.79-0.8-1.79-1.79c0-0.99,0.8-1.79,1.79-1.79
					C124.82,160.35,125.62,161.15,125.62,162.14z"/>
				<path class="st9" d="M135.77,162.14c0,0.99-0.8,1.79-1.79,1.79c-0.99,0-1.79-0.8-1.79-1.79c0-0.99,0.8-1.79,1.79-1.79
					C134.97,160.35,135.77,161.15,135.77,162.14z"/>
				<path class="st9" d="M145.92,162.14c0,0.99-0.8,1.79-1.79,1.79c-0.99,0-1.79-0.8-1.79-1.79c0-0.99,0.8-1.79,1.79-1.79
					C145.12,160.35,145.92,161.15,145.92,162.14z"/>
				<path class="st9" d="M156.07,162.14c0,0.99-0.8,1.79-1.79,1.79c-0.99,0-1.79-0.8-1.79-1.79c0-0.99,0.8-1.79,1.79-1.79
					C155.27,160.35,156.07,161.15,156.07,162.14z"/>
				<path class="st9" d="M166.22,162.14c0,0.99-0.8,1.79-1.79,1.79c-0.99,0-1.79-0.8-1.79-1.79c0-0.99,0.8-1.79,1.79-1.79
					C165.42,160.35,166.22,161.15,166.22,162.14z"/>
				<path class="st9" d="M176.37,162.14c0,0.99-0.8,1.79-1.79,1.79c-0.99,0-1.79-0.8-1.79-1.79c0-0.99,0.8-1.79,1.79-1.79
					C175.57,160.35,176.37,161.15,176.37,162.14z"/>
			</g>
			<g>
				<path class="st9" d="M39.48,170.65c0,0.99-0.8,1.79-1.79,1.79c-0.99,0-1.79-0.8-1.79-1.79c0-0.99,0.8-1.79,1.79-1.79
					C38.67,168.86,39.48,169.66,39.48,170.65z"/>
				<path class="st9" d="M49.63,170.65c0,0.99-0.8,1.79-1.79,1.79c-0.99,0-1.79-0.8-1.79-1.79c0-0.99,0.8-1.79,1.79-1.79
					C48.82,168.86,49.63,169.66,49.63,170.65z"/>
				<path class="st9" d="M59.78,170.65c0,0.99-0.8,1.79-1.79,1.79c-0.99,0-1.79-0.8-1.79-1.79c0-0.99,0.8-1.79,1.79-1.79
					C58.98,168.86,59.78,169.66,59.78,170.65z"/>
				<path class="st9" d="M69.93,170.65c0,0.99-0.8,1.79-1.79,1.79c-0.99,0-1.79-0.8-1.79-1.79c0-0.99,0.8-1.79,1.79-1.79
					C69.13,168.86,69.93,169.66,69.93,170.65z"/>
				<path class="st9" d="M80.08,170.65c0,0.99-0.8,1.79-1.79,1.79c-0.99,0-1.79-0.8-1.79-1.79c0-0.99,0.8-1.79,1.79-1.79
					C79.28,168.86,80.08,169.66,80.08,170.65z"/>
				<circle class="st9" cx="88.44" cy="170.65" r="1.79"/>
				<path class="st9" d="M100.38,170.65c0,0.99-0.8,1.79-1.79,1.79c-0.99,0-1.79-0.8-1.79-1.79c0-0.99,0.8-1.79,1.79-1.79
					C99.58,168.86,100.38,169.66,100.38,170.65z"/>
				<path class="st9" d="M110.53,170.65c0,0.99-0.8,1.79-1.79,1.79c-0.99,0-1.79-0.8-1.79-1.79c0-0.99,0.8-1.79,1.79-1.79
					C109.73,168.86,110.53,169.66,110.53,170.65z"/>
				<path class="st9" d="M120.68,170.65c0,0.99-0.8,1.79-1.79,1.79s-1.79-0.8-1.79-1.79c0-0.99,0.8-1.79,1.79-1.79
					S120.68,169.66,120.68,170.65z"/>
				<path class="st9" d="M130.83,170.65c0,0.99-0.8,1.79-1.79,1.79c-0.99,0-1.79-0.8-1.79-1.79c0-0.99,0.8-1.79,1.79-1.79
					C130.03,168.86,130.83,169.66,130.83,170.65z"/>
				<path class="st9" d="M140.98,170.65c0,0.99-0.8,1.79-1.79,1.79c-0.99,0-1.79-0.8-1.79-1.79c0-0.99,0.8-1.79,1.79-1.79
					C140.18,168.86,140.98,169.66,140.98,170.65z"/>
				<path class="st9" d="M151.13,170.65c0,0.99-0.8,1.79-1.79,1.79c-0.99,0-1.79-0.8-1.79-1.79c0-0.99,0.8-1.79,1.79-1.79
					C150.33,168.86,151.13,169.66,151.13,170.65z"/>
				<path class="st9" d="M161.28,170.65c0,0.99-0.8,1.79-1.79,1.79c-0.99,0-1.79-0.8-1.79-1.79c0-0.99,0.8-1.79,1.79-1.79
					C160.48,168.86,161.28,169.66,161.28,170.65z"/>
				<path class="st9" d="M171.43,170.65c0,0.99-0.8,1.79-1.79,1.79c-0.99,0-1.79-0.8-1.79-1.79c0-0.99,0.8-1.79,1.79-1.79
					C170.63,168.86,171.43,169.66,171.43,170.65z"/>
				<circle class="st9" cx="179.79" cy="170.65" r="1.79"/>
			</g>
			<g>
				<path class="st9" d="M34.26,178.6c0,0.99-0.8,1.79-1.79,1.79c-0.99,0-1.79-0.8-1.79-1.79c0-0.99,0.8-1.79,1.79-1.79
					C33.46,176.81,34.26,177.61,34.26,178.6z"/>
				<path class="st9" d="M44.42,178.6c0,0.99-0.8,1.79-1.79,1.79s-1.79-0.8-1.79-1.79c0-0.99,0.8-1.79,1.79-1.79
					S44.42,177.61,44.42,178.6z"/>
				<path class="st9" d="M54.57,178.6c0,0.99-0.8,1.79-1.79,1.79c-0.99,0-1.79-0.8-1.79-1.79c0-0.99,0.8-1.79,1.79-1.79
					C53.76,176.81,54.57,177.61,54.57,178.6z"/>
				<path class="st9" d="M64.72,178.6c0,0.99-0.8,1.79-1.79,1.79s-1.79-0.8-1.79-1.79c0-0.99,0.8-1.79,1.79-1.79
					S64.72,177.61,64.72,178.6z"/>
				<path class="st9" d="M74.87,178.6c0,0.99-0.8,1.79-1.79,1.79c-0.99,0-1.79-0.8-1.79-1.79c0-0.99,0.8-1.79,1.79-1.79
					C74.06,176.81,74.87,177.61,74.87,178.6z"/>
				<path class="st9" d="M85.02,178.6c0,0.99-0.8,1.79-1.79,1.79c-0.99,0-1.79-0.8-1.79-1.79c0-0.99,0.8-1.79,1.79-1.79
					C84.21,176.81,85.02,177.61,85.02,178.6z"/>
				<path class="st9" d="M95.17,178.6c0,0.99-0.8,1.79-1.79,1.79c-0.99,0-1.79-0.8-1.79-1.79c0-0.99,0.8-1.79,1.79-1.79
					C94.36,176.81,95.17,177.61,95.17,178.6z"/>
				<path class="st9" d="M105.32,178.6c0,0.99-0.8,1.79-1.79,1.79c-0.99,0-1.79-0.8-1.79-1.79c0-0.99,0.8-1.79,1.79-1.79
					C104.51,176.81,105.32,177.61,105.32,178.6z"/>
				<path class="st9" d="M115.47,178.6c0,0.99-0.8,1.79-1.79,1.79c-0.99,0-1.79-0.8-1.79-1.79c0-0.99,0.8-1.79,1.79-1.79
					C114.66,176.81,115.47,177.61,115.47,178.6z"/>
				<path class="st9" d="M125.62,178.6c0,0.99-0.8,1.79-1.79,1.79c-0.99,0-1.79-0.8-1.79-1.79c0-0.99,0.8-1.79,1.79-1.79
					C124.82,176.81,125.62,177.61,125.62,178.6z"/>
				<path class="st9" d="M135.77,178.6c0,0.99-0.8,1.79-1.79,1.79c-0.99,0-1.79-0.8-1.79-1.79c0-0.99,0.8-1.79,1.79-1.79
					C134.97,176.81,135.77,177.61,135.77,178.6z"/>
				<path class="st9" d="M145.92,178.6c0,0.99-0.8,1.79-1.79,1.79c-0.99,0-1.79-0.8-1.79-1.79c0-0.99,0.8-1.79,1.79-1.79
					C145.12,176.81,145.92,177.61,145.92,178.6z"/>
				<path class="st9" d="M156.07,178.6c0,0.99-0.8,1.79-1.79,1.79c-0.99,0-1.79-0.8-1.79-1.79c0-0.99,0.8-1.79,1.79-1.79
					C155.27,176.81,156.07,177.61,156.07,178.6z"/>
				<path class="st9" d="M166.22,178.6c0,0.99-0.8,1.79-1.79,1.79c-0.99,0-1.79-0.8-1.79-1.79c0-0.99,0.8-1.79,1.79-1.79
					C165.42,176.81,166.22,177.61,166.22,178.6z"/>
				<path class="st9" d="M176.37,178.6c0,0.99-0.8,1.79-1.79,1.79c-0.99,0-1.79-0.8-1.79-1.79c0-0.99,0.8-1.79,1.79-1.79
					C175.57,176.81,176.37,177.61,176.37,178.6z"/>
			</g>
		</g>
	</g>
	<g>
		<g>
			<g>
				<path class="st9" d="M75.73,133.49c10.93-1.46,13.81-19.62,13.59-27.21c-10.44,6.29-16.28,10.7-29.3,13.82
					C61.64,124.76,66.25,134.76,75.73,133.49z"/>
				<path class="st10" d="M74.12,133.83c-8.6,0-12.84-9.42-14.32-13.66c-0.02-0.06-0.02-0.13,0.02-0.19
					c0.03-0.06,0.09-0.1,0.15-0.11c11.12-2.67,16.95-6.25,25-11.21c1.34-0.82,2.74-1.68,4.23-2.58c0.07-0.04,0.16-0.04,0.23,0
					c0.07,0.04,0.12,0.11,0.12,0.2c0.24,7.99-2.91,26-13.79,27.45l0,0C75.2,133.8,74.65,133.83,74.12,133.83z M75.73,133.49
					L75.73,133.49L75.73,133.49z M60.32,120.26c1.61,4.51,6.17,14.23,15.38,13l0,0c10.4-1.39,13.52-18.53,13.4-26.58
					c-1.36,0.82-2.65,1.61-3.88,2.37C77.18,114,71.36,117.59,60.32,120.26z"/>
			</g>
			<g>
				<path class="st14" d="M93.63,103.74c-1.53,0.88-2.96,1.72-4.31,2.54c0.23,7.59-2.66,25.76-13.59,27.21
					c-9.48,1.26-14.09-8.73-15.71-13.4c-0.69,0.16-1.39,0.33-2.12,0.48c0,0,3.97,25.04,19.15,24.49
					C92.24,144.52,99.39,115.67,93.63,103.74z"/>
				<path class="st15" d="M76.57,145.31c-14.82,0-18.86-24.44-18.9-24.69c-0.02-0.12,0.06-0.24,0.18-0.26
					c0.73-0.16,1.42-0.32,2.11-0.48c0.12-0.03,0.23,0.04,0.27,0.15c1.53,4.4,6.1,14.5,15.46,13.24
					c10.57-1.41,13.62-19.12,13.39-26.98c0-0.08,0.04-0.16,0.11-0.21c1.53-0.92,2.94-1.75,4.31-2.54c0.06-0.03,0.12-0.04,0.18-0.02
					c0.06,0.02,0.11,0.06,0.14,0.12c3.81,7.89,2.08,22.76-3.78,32.48c-3.51,5.83-8.01,9-12.99,9.18
					C76.9,145.31,76.73,145.31,76.57,145.31z M58.17,120.76c0.43,2.42,4.72,24.09,18.4,24.09c0.16,0,0.31,0,0.47-0.01
					c6.09-0.22,10.22-4.99,12.61-8.96c5.73-9.5,7.47-23.99,3.86-31.81c-1.26,0.73-2.57,1.49-3.97,2.34
					c0.2,8.06-2.97,25.87-13.8,27.32c-0.56,0.08-1.11,0.11-1.64,0.11c-8.47,0-12.71-9.13-14.25-13.46
					C59.31,120.5,58.75,120.63,58.17,120.76z"/>
			</g>
			<g>
				<path class="st14" d="M93.63,103.74c-1.53,0.88-2.96,1.72-4.31,2.54c0.23,7.59-2.66,25.76-13.59,27.21
					c-9.48,1.26-14.09-8.73-15.71-13.4c-0.69,0.16-1.39,0.33-2.12,0.48c0,0,0.34,2.16,1.21,5.2c0.37-0.95,1.07-1.01,2.37,1.26
					c5.87,10.26,18.16,14.33,25.49,0.23c4.4-9.02,6.99-1.92,1.69,7.45c-5.3,9.36-16.81,13.54-25.38,0.68
					c-0.05,0.1-0.09,0.2-0.13,0.3c2.96,5.17,7.4,9.62,13.9,9.39C92.24,144.52,99.39,115.67,93.63,103.74z"/>
			</g>
			<g>
				<path class="st9" d="M89.32,106.28c-10.44,6.29-16.28,10.7-29.3,13.82c0.35,1.01,0.85,2.28,1.5,3.62
					c4.38,0.08,10.71-0.8,17.34-5.08c8.48-5.95,7.82,9.58-2.64,11.79c-10.46,2.2-13.99-5.4-13.99-5.4l-0.03,0.01
					c2.49,4.53,6.77,9.35,13.53,8.45C86.65,132.03,89.54,113.87,89.32,106.28z"/>
			</g>
		</g>
		<g>
			<path class="st8" d="M72.73,141.4c-1.35-0.85-2.76-1.55-4.04-2.52c-1.31-0.99-2.51-2.12-3.57-3.37
				c-2.02-2.39-3.61-5.18-4.59-8.15c-0.03-0.08-0.18,0.11-0.17,0.18c0.71,3.21,2.18,6.18,4.3,8.69c1.02,1.2,2.16,2.3,3.4,3.27
				c1.29,1,2.73,2,4.3,2.48C72.58,142.05,72.94,141.54,72.73,141.4z"/>
			<path class="st8" d="M74.85,142.19c-0.24-0.06-0.49-0.13-0.73-0.18c-0.25-0.05-0.5-0.1-0.75-0.14c-0.04-0.01-0.11,0.04-0.13,0.06
				c-0.04,0.04-0.08,0.09-0.11,0.14c-0.03,0.05-0.11,0.23-0.01,0.27l0.68,0.26c0.23,0.09,0.47,0.16,0.7,0.23
				C74.78,142.93,75.13,142.26,74.85,142.19z"/>
		</g>
	</g>
	<g>
		<g>
			<g>
				<path class="st0" d="M39.54,20.4c0,0,20.84-9.95,44.06-2.26c22.12,7.32,36.73,35.51,28.29,60.61
					c1.37,8.13-4.46,16.88-9.92,17.33c0,0-15.18,24.85-44.39,25.87C25.7,123.08,5.31,97.89,13.54,76.7
					c2.06-4.94,2.25-7.46,0.82-14.61C12.51,52.83,12.95,34.02,39.54,20.4z"/>
				<path class="st1" d="M55.54,122.23c-15.91,0-30.03-6.62-38.08-17.93c-6.12-8.61-7.63-18.7-4.15-27.68
					c2.06-4.95,2.2-7.52,0.81-14.48c-0.92-4.58-1.32-11.65,1.94-19.34c3.81-9.01,11.67-16.61,23.36-22.59c0,0,0,0,0.01,0
					c0.21-0.1,21.19-9.9,44.23-2.27c10.56,3.5,19.83,11.93,25.43,23.14c5.96,11.92,7.06,25.66,3.02,37.72
					c0.73,4.43-0.64,9.52-3.57,13.3c-1.92,2.47-4.26,4.01-6.46,4.24c-1.1,1.73-16.46,24.9-44.52,25.89
					C56.9,122.22,56.22,122.23,55.54,122.23z M39.64,20.61C28.05,26.55,20.27,34.07,16.5,42.97c-3.21,7.59-2.81,14.56-1.91,19.07
					c1.41,7.08,1.27,9.7-0.84,14.74c-3.43,8.83-1.94,18.76,4.09,27.24c8.29,11.67,23.13,18.3,39.71,17.7
					c28.76-1.01,44.05-25.52,44.2-25.76c0.04-0.06,0.11-0.1,0.18-0.11c2.1-0.17,4.37-1.66,6.24-4.07c2.87-3.69,4.2-8.67,3.47-12.99
					c-0.01-0.04,0-0.08,0.01-0.11c4.02-11.95,2.93-25.59-2.98-37.42c-5.54-11.1-14.72-19.44-25.16-22.9
					C60.73,10.81,39.97,20.46,39.64,20.61z"/>
			</g>
			<g>
				<path class="st8" d="M26.85,110.03c-0.6-0.75-1.5-1.3-2.26-1.88c-0.78-0.6-1.55-1.23-2.28-1.9c-1.53-1.39-2.89-2.94-4.11-4.61
					c-2.41-3.26-4.13-6.96-5.13-10.88c-0.04-0.15-0.24,0.11-0.22,0.2c0.6,4.17,2.19,8.17,4.53,11.67c1.12,1.67,2.45,3.22,3.89,4.63
					c0.74,0.72,1.52,1.39,2.34,2.02c0.8,0.61,1.76,1.32,2.76,1.53C26.61,110.87,27.01,110.23,26.85,110.03z"/>
				<path class="st8" d="M28.56,111.88c0-0.01,0-0.02,0-0.03c0-0.01,0-0.02,0-0.03c0-0.05,0-0.1-0.03-0.15
					c-0.03-0.04-0.07-0.08-0.1-0.12c-0.03-0.04-0.07-0.08-0.11-0.11c-0.02-0.02-0.04-0.03-0.06-0.05c-0.08-0.06-0.16-0.12-0.24-0.18
					c-0.04-0.02-0.08-0.03-0.12-0.02c-0.05,0-0.1,0.02-0.14,0.05c-0.03,0.02-0.06,0.05-0.1,0.07c-0.05,0.05-0.1,0.1-0.14,0.16
					c-0.07,0.1-0.13,0.21-0.16,0.32c-0.01,0.04-0.02,0.08-0.02,0.12c-0.01,0.07,0,0.13,0.03,0.19c0.06,0.08,0.13,0.17,0.19,0.25
					c0.05,0.06,0.09,0.12,0.15,0.17c0.04,0.03,0.08,0.07,0.12,0.1c0.04,0.02,0.08,0.03,0.13,0.02c0.05,0,0.1-0.02,0.15-0.06
					c0.04-0.03,0.07-0.05,0.11-0.08c0.06-0.05,0.11-0.11,0.15-0.17c0.02-0.02,0.03-0.05,0.05-0.08l0,0.01
					c0.03-0.05,0.05-0.1,0.08-0.14c0.01-0.02,0.01-0.05,0.02-0.07c0.01-0.02,0.02-0.04,0.03-0.07
					C28.54,111.97,28.55,111.92,28.56,111.88z"/>
			</g>
			<g class="st3">
				<path class="st0" d="M104.9,93.93c-2.38,0.07-5.04-1.67-5.25-4.19c-0.1-1.22,0.5-2.43,1.44-3.19c0.57-0.45,1.35-0.65,2.03-0.86
					c0.89-0.27,1.8-0.5,2.68-0.81c0.49-0.17,1.46-0.45,1.68-0.98c0.27-0.65-1-1.41-1.44-1.58c-0.98-0.38-2.2,0-3.06-0.69
					c-0.99-0.79-1.36-2.42-0.97-3.6c0.38-1.16,1.37-1.99,2.46-2.47c1.07-0.47,2.33-0.67,3.47-0.36c1.18,0.31,2.26,1.02,3.16,1.83
					c0.32,0.28,0.64,0.6,0.94,0.93c8.03-24.96-6.51-52.77-28.47-60.04c-23.22-7.69-44.06,2.26-44.06,2.26
					C20.4,29.96,14.8,42.42,13.84,52.1c0.43-0.73,1.85-2.83,4.6-4.49c4.52-2.71,7.23-3.84,11.98-12.21
					c4.75-8.37,9.18-12.16,21.71-14.47c14.7-2.71,31.65,5.88,41.38,29.39c9.72,23.51,1.36,62.4-34.14,68.73
					c-15.11,3.06-31.51-3.46-40.04-12.92c7.92,9.52,21.48,16.18,38.21,15.59c29.22-1.03,44.39-25.87,44.39-25.87
					c1.53-0.13,3.08-0.9,4.5-2.13C105.93,93.84,105.42,93.91,104.9,93.93z"/>
			</g>
			<path class="st1" d="M107.52,71.05c-3.09-1.84-6.95-1.44-9.86,0.57c-1.56,1.07-2.69,2.51-3.39,4.26
				c-0.07,0.18,0.1,0.13,0.15,0.01c1.72-3.73,6.3-5.85,10.25-4.81c2,0.53,3.75,1.86,4.93,3.53c0.59,0.84,1.05,1.78,1.35,2.76
				c0.28,0.96,0.33,1.93,0.47,2.91c0.06,0.41,0.56-0.22,0.59-0.37C112.75,76.47,110.41,72.77,107.52,71.05z"/>
			<path class="st1" d="M102.3,95.83c-0.79-0.1-1.59-0.13-2.37-0.3c-0.81-0.18-1.6-0.46-2.35-0.83c-1.45-0.72-2.82-1.72-3.86-2.97
				c-0.1-0.13-0.33,0.2-0.26,0.31c0.91,1.48,2.14,2.67,3.7,3.44c1.47,0.72,3.25,1.23,4.89,0.98
				C102.24,96.43,102.57,95.86,102.3,95.83z"/>
			<path class="st16" d="M100.04,82.59c-0.89,2.65-0.63,5.62,0.98,7.94c0.1,0.15,0.15-0.06,0.11-0.15
				c-0.78-1.55-1.05-3.06-0.98-4.59c0.26,0.67,0.66,1.26,1.34,1.68c1.17,0.71,2.88,0.88,4.02,0.02c0.21-0.15,0.01-0.79-0.26-0.78
				c-0.89,0.02-1.71,0.33-2.61,0.27c-1.21-0.08-1.96-0.87-2.42-1.86c0.1-0.84,0.28-1.67,0.61-2.54c0.41-1.11,1.06-2.07,1.93-2.86
				c1.16-1.06,2.29-0.5,3.6-0.34c0.36,0.04,0.11-0.63-0.05-0.73C103.07,76.68,100.98,79.78,100.04,82.59z"/>
			<g>
				<g>
					<path class="st2" d="M12.82,78.74c0,0,5.24-1.23,10.72,2.78c-0.42-1.55-0.42-1.55-0.42-1.55s5.82-1.88,3.73-10.3
						c-0.61-2.48-3.03-6.55-5.78-7.02c-3.09-0.53-5.35,1.93-5.98,4.64c-0.36,1.55-0.24,3.73-0.11,5.31
						c0.02,0.29,0.71,3.75,0.88,3.69C15.87,76.29,13.89,76.92,12.82,78.74z"/>
					<path class="st1" d="M13.62,78.28c0,0,0.14-0.07,0.41-0.14c0.26-0.09,0.65-0.16,1.12-0.22c0.23-0.02,0.49-0.02,0.76-0.03
						c0.27-0.01,0.56-0.02,0.85,0.03c0.29,0.04,0.6,0.08,0.91,0.12c0.31,0.05,0.61,0.16,0.91,0.23c0.3,0.1,0.61,0.18,0.9,0.29
						c0.28,0.13,0.56,0.27,0.83,0.39c0.27,0.13,0.52,0.26,0.76,0.38c0.23,0.14,0.43,0.3,0.63,0.44c0.76,0.56,1.24,0.96,1.24,0.96
						s-0.57-0.28-1.37-0.74c-0.2-0.11-0.41-0.25-0.65-0.36c-0.25-0.1-0.51-0.2-0.77-0.32c-0.26-0.12-0.53-0.23-0.81-0.35
						c-0.28-0.1-0.58-0.17-0.87-0.25c-0.29-0.08-0.58-0.2-0.87-0.25c-0.29-0.05-0.59-0.09-0.87-0.14c-0.28-0.06-0.56-0.08-0.82-0.09
						c-0.26-0.01-0.51-0.04-0.74-0.04c-0.46,0.02-0.85,0-1.11,0.05C13.78,78.25,13.62,78.28,13.62,78.28z"/>
					<g>
						<g>
							<path class="st17" d="M25.93,68.94c0.73,2.41,0.69,5.1-0.3,7.27c-0.77,1.67-3.04,3.14-4.91,2.82
								c-2.14-0.35-3.81-2.26-4.52-4.25c-1.21-3.39-1.02-8.48,2.05-10.57c2.7-1.82,5.81,0.43,7.07,3.13
								C25.56,67.86,25.77,68.39,25.93,68.94z"/>
							<path class="st18" d="M25.93,68.94c0,0,0.04,0.16,0.12,0.46c0.09,0.29,0.18,0.74,0.27,1.31c0.08,0.57,0.14,1.27,0.12,2.07
								c-0.03,0.8-0.17,1.7-0.45,2.65c-0.09,0.23-0.17,0.47-0.26,0.71c-0.1,0.25-0.24,0.46-0.37,0.7c-0.16,0.22-0.33,0.43-0.51,0.65
								c-0.2,0.19-0.4,0.39-0.62,0.57c-0.89,0.7-2.06,1.25-3.36,1.16c-0.36-0.01-0.61-0.13-0.93-0.19c-0.3-0.11-0.62-0.24-0.91-0.39
								c-0.56-0.34-1.09-0.74-1.53-1.24c-0.89-0.97-1.54-2.24-1.84-3.52c-0.33-1.31-0.44-2.65-0.36-3.96c0.07-1.31,0.41-2.6,1-3.71
								c0.62-1.09,1.51-2.02,2.59-2.44c1.09-0.46,2.25-0.29,3.13,0.14c0.9,0.43,1.6,1.03,2.12,1.63c0.52,0.61,0.9,1.2,1.14,1.73
								C25.71,68.33,25.93,68.94,25.93,68.94z M25.93,68.94c0,0-0.23-0.62-0.66-1.68c-0.25-0.51-0.63-1.11-1.16-1.7
								c-0.53-0.59-1.23-1.19-2.12-1.57c-0.88-0.39-2.01-0.5-3-0.05c-1.01,0.44-1.83,1.35-2.38,2.4c-1.04,2.17-1.12,4.92-0.48,7.39
								c0.29,1.28,0.86,2.41,1.7,3.36c0.84,0.93,1.88,1.64,3.08,1.78c1.16,0.12,2.31-0.35,3.19-1c0.22-0.17,0.41-0.36,0.62-0.53
								c0.17-0.2,0.35-0.4,0.51-0.6c0.13-0.23,0.29-0.45,0.38-0.67c0.1-0.23,0.19-0.46,0.28-0.69c0.32-0.93,0.45-1.82,0.49-2.62
								c0.03-0.8-0.02-1.49-0.09-2.06c-0.09-0.57-0.17-1.01-0.26-1.31C25.97,69.1,25.93,68.94,25.93,68.94z"/>
						</g>
						<g class="st19">
							<path class="st20" d="M18.25,64.22c0.1-0.06,0.19-0.11,0.29-0.16c-2.8,1.92-2.97,6.57-1.86,9.68
								c0.65,1.83,2.19,3.58,4.15,3.9c1.72,0.29,3.81-1.06,4.51-2.59c0.91-1.99,0.94-4.46,0.27-6.68c-0.15-0.5-0.34-0.99-0.56-1.46
								c-0.09-0.19-0.19-0.37-0.29-0.55c0.21,0.32,0.4,0.65,0.56,0.99c0.24,0.51,0.44,1.04,0.61,1.59c0.73,2.41,0.69,5.1-0.3,7.27
								c-0.77,1.67-3.04,3.14-4.91,2.82c-2.14-0.35-3.81-2.26-4.52-4.25C14.98,71.4,15.17,66.31,18.25,64.22z"/>
						</g>
						<g>
							<path class="st21" d="M16.94,71.7c0.13,3.4,1.64,6.05,4.08,6.25c2.43,0.19,4.42-2.18,4.2-5.58c-0.23-3.4-2.45-6.56-4.6-6.62
								C18.43,65.69,16.8,68.3,16.94,71.7z"/>
							<g>
								<path class="st22" d="M21.02,77.95c2.43,0.19,4.42-2.18,4.2-5.58c-0.23-3.4-2.45-6.56-4.6-6.62
									c-2.18-0.06-3.82,2.55-3.68,5.95C17.07,75.09,18.58,77.75,21.02,77.95z M17.19,71.34c-0.12-3.12,1.44-5.5,3.45-5.44
									c2.01,0.06,4.02,2.94,4.25,6.08c0.22,3.13-1.64,5.34-3.92,5.15C18.68,76.94,17.31,74.47,17.19,71.34z"/>
							</g>
							<g class="st3">
								<path class="st23" d="M21.02,77.95c2.43,0.19,4.42-2.18,4.2-5.58c-0.23-3.4-2.45-6.56-4.6-6.62
									c-2.18-0.06-3.82,2.55-3.68,5.95C17.07,75.09,18.58,77.75,21.02,77.95z M18.16,68.83c0.78-0.91,0.9-0.31,0.61,0.5
									c-0.28,0.81-1.14,3.55,0.18,5.36c0.64,0.85,1.5,1.2,1.55,1.5c0.06,0.28-1.82,0.38-2.63-1.46
									C16.92,72.61,17.37,69.76,18.16,68.83z"/>
							</g>
							<g class="st3">
								<path class="st23" d="M18.26,72.23c-0.06-2.3,1.16-4,2.77-3.84c0.1,0,0.21,0.02,0.32,0.06c0.17-0.38,0.44-0.67,0.79-0.69
									c0.69-0.04,1.46,0.82,1.69,1.92c0.11,0.48,0.1,0.92,0,1.28c0.21,0.55,0.36,1.16,0.39,1.79c0.14,2.29-1.3,3.9-3.02,3.75
									C19.48,76.35,18.34,74.53,18.26,72.23z"/>
							</g>
							<path class="st24" d="M19.01,72.21c0.04,1.71,0.96,3.11,2.26,3.22c1.29,0.12,2.36-1.11,2.28-2.83
								c-0.09-1.71-1.2-3.16-2.43-3.28C19.9,69.21,18.97,70.49,19.01,72.21z"/>
							<g class="st3">
								<path class="st23" d="M20.35,70.02c0.72,1.57,2.32,2.6,3.36,2.2c1.03-0.41,1.14-2.06,0.38-3.57
									c-0.77-1.51-2.17-2.76-3.15-2.27C19.97,66.85,19.64,68.45,20.35,70.02z"/>
							</g>
							<path class="st8" d="M21.12,69.74c0.56,1.2,1.73,1.98,2.49,1.68c0.75-0.3,0.83-1.56,0.24-2.7c-0.57-1.15-1.64-2.08-2.38-1.73
								C20.76,67.33,20.56,68.55,21.12,69.74z"/>
							<g>
								<path class="st21" d="M17.94,70.76c-0.09,1.35,0.02,4.02,1.92,5.02c1.11,0.59-1.51,0.59-2.21-2.28
									C17.11,71.3,18.04,69.04,17.94,70.76z"/>
							</g>
							<g>
								<path class="st21" d="M18.15,69.27c0.28,0.07,0.18,0.8-0.23,0.71C17.63,69.91,17.74,69.2,18.15,69.27z"/>
							</g>
						</g>
					</g>
				</g>
			</g>
			<g>
				<g>
					<g>
						<g>
							<path class="st2" d="M63.93,71.3c0,0-7.14,0.72-12.39,7.85c-0.12-2.04-0.12-2.04-0.12-2.04s-8.15,0.18-9.04-10.85
								c-0.26-3.25,1.02-7.87,4.31-9.59c3.68-1.93,7.57,0.08,9.5,3.08c1.1,1.72,1.97,3.64,2.46,5.6c0.09,0.36,0.63,4.27,0.39,4.28
								C59.04,69.63,61.81,69.56,63.93,71.3z"/>
							<path class="st1" d="M62.72,71.08c0,0-0.21,0.03-0.55,0.11c-0.35,0.05-0.83,0.24-1.42,0.4c-0.29,0.09-0.59,0.23-0.91,0.36
								c-0.33,0.13-0.66,0.27-0.99,0.46c-0.34,0.18-0.68,0.36-1.03,0.54c-0.35,0.18-0.66,0.44-1.01,0.66
								c-0.33,0.23-0.68,0.44-1,0.67c-0.3,0.26-0.6,0.52-0.88,0.77c-0.29,0.24-0.57,0.48-0.84,0.7c-0.27,0.23-0.46,0.49-0.68,0.71
								c-0.83,0.9-1.43,1.48-1.43,1.48s0.44-0.69,1.18-1.7c0.19-0.24,0.37-0.54,0.62-0.79c0.26-0.25,0.52-0.51,0.8-0.79
								c0.28-0.27,0.58-0.55,0.88-0.83c0.32-0.25,0.68-0.47,1.02-0.72c0.36-0.22,0.68-0.48,1.05-0.66c0.37-0.18,0.74-0.35,1.1-0.51
								c0.35-0.19,0.71-0.29,1.06-0.39c0.35-0.1,0.67-0.21,0.97-0.28c0.62-0.12,1.13-0.19,1.49-0.19
								C62.51,71.06,62.72,71.08,62.72,71.08z"/>
							<g>
								<g>
									<path class="st17" d="M43.98,65.73c0.09,2.99,1.17,5.99,3.18,8.03c1.55,1.58,4.78,2.33,6.87,1.25
										c2.38-1.23,3.6-4.02,3.66-6.53c0.1-4.27-2.11-9.9-6.53-11.04c-3.88-0.99-6.65,2.75-7.09,6.26
										C44,64.38,43.97,65.05,43.98,65.73z"/>
									<path class="st18" d="M43.98,65.73c0,0,0.02,0.2,0.04,0.57c0.01,0.37,0.09,0.91,0.21,1.59c0.08,0.33,0.17,0.7,0.27,1.11
										c0.13,0.39,0.26,0.82,0.45,1.26c0.36,0.89,0.89,1.85,1.64,2.76c0.72,0.95,1.8,1.69,3.09,2.04
										c1.27,0.36,2.76,0.43,4.05-0.15c1.33-0.61,2.3-1.78,2.93-3.15c0.62-1.39,0.87-2.89,0.71-4.47
										c-0.09-1.53-0.47-3.07-1.04-4.47c-0.59-1.4-1.41-2.69-2.46-3.68c-1.07-0.95-2.37-1.64-3.71-1.71
										c-1.31-0.12-2.56,0.44-3.44,1.2c-0.89,0.76-1.49,1.7-1.89,2.56c-0.4,0.87-0.62,1.69-0.71,2.37
										c-0.07,0.68-0.08,1.23-0.1,1.6C44,65.54,43.98,65.73,43.98,65.73z M43.98,65.73c0,0,0.01-0.2,0.02-0.57
										c0.02-0.37,0.02-0.91,0.08-1.6c0.09-0.68,0.3-1.51,0.68-2.39c0.38-0.88,0.98-1.82,1.86-2.64c0.87-0.8,2.13-1.43,3.55-1.36
										c1.4,0.03,2.8,0.7,3.95,1.66c1.15,1,2.05,2.32,2.67,3.78c0.62,1.46,1.03,3.03,1.14,4.65c0.15,1.57-0.14,3.29-0.82,4.72
										c-0.33,0.73-0.8,1.39-1.32,1.98c-0.3,0.27-0.6,0.55-0.91,0.77c-0.34,0.18-0.59,0.42-1,0.56c-1.45,0.58-2.99,0.44-4.3,0.02
										c-0.66-0.21-1.26-0.52-1.8-0.89c-0.25-0.2-0.48-0.41-0.72-0.62c-0.2-0.24-0.4-0.47-0.59-0.7c-0.71-0.95-1.24-1.91-1.6-2.81
										c-0.18-0.45-0.31-0.88-0.43-1.28c-0.09-0.41-0.18-0.78-0.26-1.12c-0.11-0.68-0.18-1.22-0.19-1.59
										C44,65.93,43.98,65.73,43.98,65.73z"/>
								</g>
								<g class="st19">
									<path class="st20" d="M51.17,57.45c-0.14-0.03-0.27-0.05-0.4-0.07c4.03,1.06,6.05,6.21,5.96,10.12
										c-0.06,2.3-1.18,4.86-3.36,5.99c-1.92,0.99-4.89,0.3-6.31-1.15c-1.85-1.88-2.84-4.63-2.92-7.37
										c-0.02-0.62,0.01-1.24,0.09-1.86c0.03-0.24,0.08-0.49,0.13-0.73c-0.13,0.44-0.22,0.89-0.28,1.33
										c-0.08,0.67-0.11,1.34-0.1,2.02c0.09,2.99,1.17,5.99,3.18,8.03c1.55,1.58,4.78,2.33,6.87,1.25
										c2.38-1.23,3.6-4.02,3.66-6.53C57.8,64.21,55.59,58.58,51.17,57.45z"/>
								</g>
								<g>
									<path class="st21" d="M46.09,66.94c0.15,3.95,1.91,7.03,4.74,7.27c2.82,0.22,5.13-2.54,4.88-6.49
										c-0.27-3.95-2.84-7.62-5.35-7.69C47.83,59.96,45.93,62.99,46.09,66.94z"/>
									<g>
										<path class="st22" d="M50.84,74.2c2.82,0.22,5.13-2.54,4.88-6.49c-0.27-3.95-2.84-7.62-5.35-7.69
											c-2.54-0.07-4.44,2.96-4.28,6.91C46.24,70.89,48,73.97,50.84,74.2z M46.39,66.53c-0.14-3.63,1.68-6.39,4.01-6.32
											c2.33,0.07,4.67,3.42,4.94,7.07c0.26,3.63-1.91,6.2-4.56,5.98C48.12,73.03,46.53,70.17,46.39,66.53z"/>
									</g>
									<g class="st3">
										<path class="st23" d="M50.84,74.2c2.82,0.22,5.13-2.54,4.88-6.49c-0.27-3.95-2.84-7.62-5.35-7.69
											c-2.54-0.07-4.44,2.96-4.28,6.91C46.24,70.89,48,73.97,50.84,74.2z M47.51,63.61c0.9-1.06,1.04-0.36,0.71,0.59
											c-0.33,0.94-1.33,4.13,0.21,6.23c0.74,0.99,1.74,1.4,1.8,1.74c0.06,0.32-2.11,0.45-3.05-1.7
											C46.07,68,46.59,64.68,47.51,63.61z"/>
									</g>
									<g class="st3">
										<path class="st23" d="M47.63,67.56c-0.07-2.67,1.35-4.65,3.22-4.46c0.12,0.01,0.24,0.03,0.37,0.06
											c0.2-0.44,0.51-0.78,0.92-0.8c0.8-0.04,1.69,0.96,1.96,2.23c0.12,0.55,0.12,1.07,0,1.49c0.25,0.64,0.42,1.35,0.46,2.08
											c0.16,2.66-1.52,4.53-3.51,4.36C49.04,72.35,47.72,70.23,47.63,67.56z"/>
									</g>
									<path class="st24" d="M48.5,67.54c0.05,1.99,1.12,3.61,2.63,3.75c1.49,0.14,2.74-1.29,2.65-3.28
										c-0.11-1.99-1.39-3.67-2.82-3.8C49.54,64.05,48.45,65.53,48.5,67.54z"/>
									<g class="st3">
										<path class="st23" d="M50.05,64.99c0.84,1.82,2.69,3.02,3.9,2.55c1.2-0.47,1.33-2.4,0.44-4.15
											c-0.89-1.75-2.52-3.21-3.65-2.64C49.61,61.3,49.23,63.17,50.05,64.99z"/>
									</g>
									<path class="st8" d="M50.95,64.66c0.65,1.39,2.01,2.3,2.9,1.96c0.87-0.35,0.97-1.81,0.28-3.14
										c-0.66-1.33-1.91-2.41-2.76-2.01C50.53,61.86,50.29,63.29,50.95,64.66z"/>
									<g>
										<path class="st21" d="M47.26,65.85c-0.1,1.57,0.02,4.67,2.23,5.83c1.29,0.68-1.76,0.69-2.57-2.65
											C46.29,66.48,47.37,63.85,47.26,65.85z"/>
									</g>
									<g>
										<path class="st21" d="M47.49,64.12c0.33,0.08,0.21,0.93-0.26,0.82C46.9,64.87,47.03,64.03,47.49,64.12z"/>
									</g>
								</g>
							</g>
						</g>
					</g>
				</g>
			</g>
			<g>
				<path class="st2" d="M29.03,82.97c-3.08-0.81-3.19-2.57-1.21-2.89c-1.57-0.43-3.6,0.32-3.82,2.11
					c-0.13,1.04,0.28,2.04,1.02,2.78c1.37,1.35,4.01,2.58,5.92,1.94c0.98-0.32,3.26-0.81,2.05-3.4C32.36,82.15,32.92,84,29.03,82.97
					z"/>
				<path class="st2" d="M25.97,81.36c0.16-0.48,0.48-0.83,0.9-1.04c-1.24,0.21-1.74,2.05-1.2,3.4c0.4,1.02,1.1,1.92,2.08,2.47
					c0.97,0.55,2.17,0.61,3.24,0.18c0.61-0.24,1.33-1.02,0.95-1.96c-0.09-0.22-0.19-0.43-0.29-0.65c-0.35,0.67-0.92,1.24-1.74,1.18
					c-1.04-0.07-2.23-0.5-2.95-1.29C26.49,83.16,25.73,82.11,25.97,81.36z"/>
				<path class="st18" d="M31.47,83.95c-0.91,2.06-4.05-0.05-4.82-1.17c-0.26-0.38-0.39-0.81-0.4-1.27
					c-0.02-0.84,0.79-1.16,1.47-1.25c0.63-0.08,0.87,0.03,1.43-0.28c0.2-0.11,0.32-0.15-0.06-0.04c-0.72,0.21-1.78-0.15-2.56,0.34
					c-0.89,0.56-0.72,1.71-0.29,2.53c0.82,1.55,4.23,3.59,5.28,1.25C31.62,83.86,31.56,83.74,31.47,83.95z"/>
				<path class="st25" d="M31.4,82.31c-0.56,0.06-1.11,0.05-1.65-0.11c-0.47-0.14-0.88-0.36-1.3-0.6c-0.36-0.21-0.6-0.54-0.96-0.74
					c-0.14-0.08-0.36-0.01-0.35,0.17c0.06,1.64,3.16,1.89,4.27,1.32C31.43,82.34,31.43,82.3,31.4,82.31z"/>
			</g>
			<path class="st26" d="M51.74,50.31c-1.39-1.19-3.52-1.49-5.27-1.24c-1.77,0.25-3.4,1.08-4.59,2.42
				c-0.07,0.08-0.17,0.47,0.05,0.32c1.3-0.96,2.79-1.67,4.42-1.81c1.77-0.15,3.3,0.43,4.89,1.12
				C51.53,51.27,51.99,50.53,51.74,50.31z"/>
			<path class="st26" d="M19.85,57.48c-0.56-0.33-1.22-0.41-1.86-0.43c-0.58-0.02-1.18,0.05-1.72,0.27
				c-0.96,0.37-1.87,1.2-2.03,2.27c-0.02,0.11,0.04,0.17,0.14,0.15c0.12-0.02,0.22-0.19,0.27-0.28c0.3-0.67,0.96-1.05,1.66-1.22
				c1.05-0.25,2.1,0.11,3.15-0.01c0.17-0.02,0.3-0.17,0.37-0.32C19.88,57.8,19.98,57.56,19.85,57.48z"/>
			<g>
				<g>
					<path class="st27" d="M41.02,20c3.04-1.98-8.59,2.7-12.93,6.17c-5.92,4.74-7.86-0.23-7.86-0.23s-2.07,2.18,1.1,4.59
						c-5.34,1.42-7.53,8.83-6.36,12.18c2.01-5.05,4.4-5.4,4.4-5.4s-1.95,2.71-2.93,5.15c-0.98,2.44-3.83,5.13-6.84,4.56
						c4.15,1.22,11.68-2.65,16-9.57C30.34,29.9,30.1,27.08,41.02,20z"/>
					<path class="st26" d="M11.38,47.51c-0.64,0-1.26-0.08-1.85-0.25c-0.12-0.04-0.19-0.16-0.16-0.28c0.03-0.12,0.14-0.2,0.27-0.17
						c2.77,0.52,5.57-1.89,6.58-4.42c0.69-1.72,1.87-3.59,2.51-4.55c-0.82,0.48-2.27,1.74-3.55,4.97c-0.04,0.09-0.14,0.16-0.22,0.15
						c-0.1,0-0.18-0.06-0.21-0.16c-0.7-2.01-0.22-5.24,1.17-7.86c1.19-2.25,2.93-3.83,4.92-4.5c-0.92-0.79-1.43-1.65-1.5-2.54
						c-0.1-1.24,0.68-2.08,0.72-2.12c0.06-0.06,0.14-0.08,0.21-0.07c0.08,0.02,0.14,0.07,0.17,0.14c0.01,0.02,0.65,1.6,2.24,2.02
						c1.44,0.38,3.21-0.25,5.25-1.89c3.68-2.95,12.92-6.97,13.64-6.67c0.08,0.03,0.16,0.14,0.16,0.22c0.02,0.18-0.13,0.33-0.61,0.64
						l0,0c-8.6,5.58-10.21,8.45-12.89,13.21c-0.69,1.22-1.47,2.61-2.45,4.18C22.62,42.7,16.32,47.51,11.38,47.51z M19.37,37.09
						c0.08,0,0.16,0.04,0.2,0.11c0.05,0.08,0.04,0.18-0.01,0.26c-0.02,0.03-1.95,2.72-2.9,5.1c-0.74,1.84-2.37,3.62-4.29,4.39
						c4.06-0.54,9.53-3.98,13.04-9.6c0.98-1.57,1.75-2.95,2.44-4.17c2.69-4.78,4.31-7.68,12.82-13.23
						c-2.36,0.78-9.26,3.87-12.44,6.41c-2.17,1.74-4.08,2.4-5.67,1.97c-1.34-0.36-2.07-1.39-2.38-1.94
						c-0.19,0.31-0.44,0.83-0.38,1.48c0.07,0.86,0.63,1.69,1.66,2.48c0.07,0.05,0.1,0.14,0.09,0.23c-0.02,0.09-0.08,0.16-0.17,0.18
						c-2.05,0.55-3.85,2.11-5.06,4.4c-1.19,2.24-1.69,4.94-1.31,6.85c1.97-4.52,4.22-4.9,4.32-4.91
						C19.35,37.09,19.36,37.09,19.37,37.09z M41.02,20L41.02,20L41.02,20z"/>
				</g>
				<g>
					<path class="st28" d="M41.02,20c3.04-1.98-8.59,2.7-12.93,6.17c-5.92,4.74-7.86-0.23-7.86-0.23s-2.07,2.18,1.1,4.59
						c-5.34,1.42-7.53,8.83-6.36,12.18c2.01-5.05,4.4-5.4,4.4-5.4s-1.95,2.71-2.93,5.15c-0.98,2.44-3.83,5.13-6.84,4.56
						c4.15,1.22,11.68-2.65,16-9.57C30.34,29.9,30.1,27.08,41.02,20z"/>
					<path class="st29" d="M11.38,47.51c-0.64,0-1.26-0.08-1.85-0.25c-0.12-0.04-0.19-0.16-0.16-0.28c0.03-0.12,0.14-0.2,0.27-0.17
						c2.77,0.52,5.57-1.89,6.58-4.42c0.69-1.72,1.87-3.59,2.51-4.55c-0.82,0.48-2.27,1.74-3.55,4.97c-0.04,0.09-0.14,0.16-0.22,0.15
						c-0.1,0-0.18-0.06-0.21-0.16c-0.7-2.01-0.22-5.24,1.17-7.86c1.19-2.25,2.93-3.83,4.92-4.5c-0.92-0.79-1.43-1.65-1.5-2.54
						c-0.1-1.24,0.68-2.08,0.72-2.12c0.06-0.06,0.14-0.08,0.21-0.07c0.08,0.02,0.14,0.07,0.17,0.14c0.01,0.02,0.65,1.6,2.24,2.02
						c1.44,0.38,3.21-0.25,5.25-1.89c3.68-2.95,12.92-6.97,13.64-6.67c0.08,0.03,0.16,0.14,0.16,0.22c0.02,0.18-0.13,0.33-0.61,0.64
						l0,0c-8.6,5.58-10.21,8.45-12.89,13.21c-0.69,1.22-1.47,2.61-2.45,4.18C22.62,42.7,16.32,47.51,11.38,47.51z M19.37,37.09
						c0.08,0,0.16,0.04,0.2,0.11c0.05,0.08,0.04,0.18-0.01,0.26c-0.02,0.03-1.95,2.72-2.9,5.1c-0.74,1.84-2.37,3.62-4.29,4.39
						c4.06-0.54,9.53-3.98,13.04-9.6c0.98-1.57,1.75-2.95,2.44-4.17c2.69-4.78,4.31-7.68,12.82-13.23
						c-2.36,0.78-9.26,3.87-12.44,6.41c-2.17,1.74-4.08,2.4-5.67,1.97c-1.34-0.36-2.07-1.39-2.38-1.94
						c-0.19,0.31-0.44,0.83-0.38,1.48c0.07,0.86,0.63,1.69,1.66,2.48c0.07,0.05,0.1,0.14,0.09,0.23c-0.02,0.09-0.08,0.16-0.17,0.18
						c-2.05,0.55-3.85,2.11-5.06,4.4c-1.19,2.24-1.69,4.94-1.31,6.85c1.97-4.52,4.22-4.9,4.32-4.91
						C19.35,37.09,19.36,37.09,19.37,37.09z M41.02,20L41.02,20L41.02,20z"/>
				</g>
				<g>
					<path class="st27" d="M23.65,33.68c-9.46-0.2-8.68,9.04-8.68,9.04c1.88-4.73,4.1-5.34,4.37-5.39
						C20.09,36.41,21.47,34.98,23.65,33.68z"/>
					<path class="st27" d="M19.87,26.48c-0.41,0.78-0.75,2.34,1.41,4.02c0.4-0.14,1.02-0.34,1.97-0.6
						C21.02,28.87,20.13,27.61,19.87,26.48z"/>
					<path class="st30" d="M38,20.75c-1.49,1.43-2.82,2.52-5.33,3.89c-3.77,2.06-4.46,1.99-5.9,4.6c1.92-1.65,3.02-1.44,3.02-1.44
						c-2.81,2.13-3.15,4.39-5.97,9.53c-3.63,5.83-7.78,8.21-10.98,9.15c-1,0.52-2.11,0.77-3.25,0.56c4.15,1.22,11.68-2.65,16-9.57
						C30.34,29.9,30.1,27.08,41.02,20C42.42,19.09,40.69,19.6,38,20.75z"/>
				</g>
				<path class="st28" d="M15.75,37.4c0,0,1.75-5.09,7.3-5.66C20.79,30.56,17.04,32,15.75,37.4z"/>
				<path class="st28" d="M23.02,34.44c0,0-2.71,1.54-4.3,4.39c-1.72,3.21-2.94,5.97-4.75,6.92c2.72-1.4,3.98-3.17,5.57-6.47
					C20.8,36.56,22.34,35.03,23.02,34.44z"/>
				<path class="st28" d="M20.39,26.22c0,0,1.64,3.47,5.83,1.68C24.36,29.97,20.57,29.47,20.39,26.22z"/>
			</g>
			<g class="st3">
				<path class="st0" d="M104.67,71.08c2.71,0.08,5.65,2.68,7.54,6.28c7.61-24.8-6.87-52.23-28.65-59.44
					c-10.88-3.6-21.24-3.33-29.17-2.03l0.1,0.11C54.48,16,106.64,7.02,104.67,71.08z"/>
				<path class="st0" d="M66.65,120.6c22.36-4.86,34.34-23.24,35.22-24.65c-1.49-0.05-2.97-0.39-4.29-1.24
					C95.36,101.23,87.53,113.92,66.65,120.6z"/>
			</g>
			<g>
				
					<radialGradient id="SVGID_3_" cx="-414.3008" cy="-1438.9095" r="11.1063" gradientTransform="matrix(-0.8966 -0.443 -0.443 0.8966 -951.9245 1178.6758)" gradientUnits="userSpaceOnUse">
					<stop  offset="0.1184" style="stop-color:#F6A0A0"/>
					<stop  offset="1" style="stop-color:#FFFFFF"/>
				</radialGradient>
				<path class="st31" d="M54.27,82.88c1.47,3.48,4.19,3.22,6.77,1.46c4.52-3.08,6.43-7.13,5.12-9.56
					c-1.32-2.44-4.23-3.82-8.09-1.59C54.2,75.42,52.62,78.98,54.27,82.88z"/>
				<g>
					<path class="st8" d="M61.75,73.96c0.16,0.32-0.31,0.77-1.05,0.99c-0.74,0.23-1.47,0.12-1.64-0.21
						c-0.16-0.31,0.31-0.76,1.05-0.98C60.86,73.54,61.59,73.62,61.75,73.96z"/>
				</g>
				<g>
					<path class="st8" d="M63.57,74.31c0,0.18-0.23,0.32-0.52,0.33c-0.28,0-0.5-0.14-0.5-0.32c0.01-0.18,0.24-0.33,0.53-0.33
						C63.35,73.98,63.58,74.12,63.57,74.31z"/>
				</g>
			</g>
			<g>
				
					<radialGradient id="SVGID_4_" cx="-300.3862" cy="-1375.8132" r="8.5453" gradientTransform="matrix(0.8966 -0.443 0.443 0.8966 898.5109 1178.6758)" gradientUnits="userSpaceOnUse">
					<stop  offset="0.1184" style="stop-color:#F6A0A0"/>
					<stop  offset="1" style="stop-color:#FFFFFF"/>
				</radialGradient>
				<path class="st32" d="M21.78,86.5c-1.13,2.67-3.23,2.47-5.21,1.13c-3.48-2.37-4.95-5.48-3.94-7.36
					c1.01-1.88,3.26-2.94,6.22-1.22C21.83,80.76,23.05,83.49,21.78,86.5z"/>
				<g>
					<path class="st8" d="M16.02,79.63c-0.12,0.25,0.24,0.59,0.81,0.76c0.57,0.17,1.13,0.1,1.26-0.16c0.12-0.24-0.24-0.58-0.81-0.76
						C16.71,79.31,16.15,79.38,16.02,79.63z"/>
				</g>
				<g>
					<path class="st8" d="M14.62,79.9c0,0.14,0.18,0.25,0.4,0.25c0.21,0,0.39-0.1,0.39-0.24c-0.01-0.14-0.18-0.25-0.4-0.25
						C14.79,79.65,14.62,79.76,14.62,79.9z"/>
				</g>
			</g>
		</g>
		<path class="st2" d="M54.09,110.17c-3.37,6.66-12.56,8.79-20.53,4.76c-7.97-4.03-11.7-12.7-8.33-19.36
			c3.37-6.66,12.56-8.79,20.53-4.76C53.73,94.84,57.46,103.51,54.09,110.17z"/>
		<g>
			<path class="st33" d="M50.56,99.46c-0.03-0.08-0.05-0.15-0.09-0.23c-0.12-0.32-0.26-0.64-0.42-0.95
				C45.86,89.78,29.63,85.63,24.7,95c-2.82,3.8-1.99,8.4,0.02,12.54c1.03,2.13,3.69,4.02,5.6,5.31c1.93,1.3,4.13,2.13,6.38,2.63
				c4.03,0.9,9.09-0.01,11.81-3.36C51.45,108.51,52.17,103.72,50.56,99.46z"/>
			<path class="st34" d="M46.99,112.05c-3.04,3.07-7.83,3.2-11.71,2.03c-7.73-2.32-14.97-11.75-9.46-19.05
				c3.37-3.04,9.35-2.87,13.48-1.74c0.08,0.02,0.21-0.11,0.11-0.15c-3.05-1-8.18-1.46-11.83,0.06c3.43-2.76,8.2-2.38,12.21-1.06
				c2.06,0.68,3.95,1.8,5.73,3.03c0.85,0.59,1.96,1.39,2.92,2.3c0.46,0.63,0.88,1.28,1.22,1.96c0.36,0.72,0.6,1.48,0.74,2.26
				c-1.28-2.7-3.9-4.98-6.3-6.48c-0.06-0.04-0.18,0.06-0.11,0.1c3.37,2.3,6.21,5.5,6.49,9.43C50.14,107.49,48.82,110.2,46.99,112.05
				z"/>
			<path class="st34" d="M46.28,96.79c1.66,1.35,3.21,3.02,4.1,4.9c-0.14-0.78-0.38-1.55-0.74-2.26c-0.34-0.69-0.76-1.33-1.22-1.96
				c-0.96-0.9-2.07-1.7-2.92-2.3c-0.01-0.01-0.03-0.02-0.04-0.03C45.78,95.67,46.05,96.22,46.28,96.79z"/>
			<path class="st34" d="M35.13,114.03c1.25-0.01,2.48-0.16,3.63-0.5c4.98-1.49,7.46-6.48,7.45-11.48
				c-0.01-2.11-0.39-4.22-1.31-6.05c-0.31-0.24-0.62-0.47-0.94-0.69c-0.07-0.05,0.05-0.14,0.11-0.1c0.22,0.13,0.43,0.28,0.65,0.43
				c-0.36-0.65-0.81-1.25-1.32-1.8c-1.16-0.68-2.36-1.27-3.63-1.69c-4.01-1.32-8.78-1.7-12.21,1.06c3.65-1.52,8.79-1.06,11.83-0.06
				c0.11,0.04-0.03,0.17-0.11,0.15c-4.13-1.13-10.11-1.29-13.48,1.74C20.34,102.29,27.45,111.64,35.13,114.03z"/>
			<path class="st34" d="M50.46,104.74c-0.21-2.9-1.81-5.4-3.99-7.43c0.39,1.13,0.62,2.32,0.68,3.48
				c0.25,5.03-1.49,11.13-6.61,13.16c-0.81,0.32-1.65,0.53-2.51,0.69c3.21,0.38,6.61-0.23,8.96-2.6
				C48.82,110.2,50.14,107.49,50.46,104.74z"/>
			<path class="st33" d="M43.94,104.43c0.05-0.01,0.1-0.03,0.15-0.06c1.3-0.82,1.62-2.18,0.89-3.52c-0.74-1.35-2.33-1.94-3.78-1.97
				c-1.19-0.02-2.46,0.46-2.67,1.76c-0.12,0.77,0.5,2.3,1.39,2.51c-0.05,0.3-0.07,0.58-0.08,0.77c-0.14,1.72-0.45,4.33-3.85,3.43
				c-1.24-0.33-2.35-1.3-3.12-2.29c-1.29-1.65,0.94-3.11,1.82-4.34c1.11-0.06,2.36-1.03,2.24-2.27c-0.16-1.57-1.44-2.47-2.89-2.77
				c-1.42-0.3-2.91,0.18-3.9,1.22c-0.61,0.64-0.54,1.88,0.18,2.29c-0.66,0.59-1.26,1.36-1.57,2.2c-1.37,2.36-0.74,4.88,1.17,7.11
				c2.28,2.66,6.17,4.23,9.6,3.24c2.65-0.77,4.11-3.73,4.32-6.37C43.88,105.05,43.91,104.74,43.94,104.43z"/>
			<path class="st35" d="M39.47,100.85c-0.18-1.21,1.35-1.18,2.15-1.08c1.8,0.22,3.55,2.17,2.32,3.72c-0.1-1.09-0.57-2.03-1.85-2.64
				c-1.24-0.59-1.79,0.51-2.04,1.61C39.69,102.03,39.54,101.31,39.47,100.85z"/>
			<path class="st35" d="M30.91,97.11c0.36-0.37,0.84-0.55,1.33-0.65c0.63-0.14,1.3-0.03,1.91,0.16c1.29,0.41,2.89,2.89,0.85,3.49
				c0.65-1.6-0.16-2.95-2.02-2.52c-0.08,0.02-0.14,0.07-0.2,0.13c-0.7,0.18-1.41,0.64-1.91,1.01
				C30.47,98.29,30.47,97.76,30.91,97.11z"/>
			<path class="st35" d="M42.15,107.86c-0.04,0.1-0.11,0.15-0.19,0.19c-0.24,0.56-0.54,1.08-0.96,1.54
				c-0.63,0.63-1.45,1.07-2.54,1.22c-0.14,0.02-0.28,0.01-0.42,0.01c-2.76,0.74-6.17-2.04-7.71-3.95c-2.16-2.68-1.25-5.37,0.91-7.23
				c0.56-0.58,1.19-1.4,2.1-1.3c0.02,0,0.04,0.01,0.05,0.01c0.03,0.01,0.07,0.02,0.09,0.03c0.55,0.13,0.96,0.61,0.8,1.18
				c-0.09,0.35-0.27,0.67-0.5,0.96c-0.12,0.33-0.37,0.64-0.77,0.92c-0.17,0.19-0.34,0.38-0.51,0.57c-0.45,0.5-0.76,1-1.03,1.61
				c-0.54,1.2,0.54,2.34,1.32,3.09c1.54,1.48,5.41,2.4,6.84,0.23c0.68-1.04,0.94-2.11,1.09-3.3c-0.11-0.76-0.1-1.93,0.86-1.95
				c0.76-0.02,1.49,0.37,1.67,1.17C43.62,104.52,42.77,106.36,42.15,107.86z"/>
			<g>
				<path class="st8" d="M31.42,106.04c-0.71-1.16-1.29-1.87-0.72-3.26c0.4-0.98,1.1-1.84,1.62-2.76c0.09-0.15-0.17-0.16-0.24-0.06
					c-1.22,1.69-4.08,4.74-1.19,6.47C31.1,106.56,31.59,106.33,31.42,106.04z"/>
				<path class="st8" d="M30.28,93.66c-3.99,1.58-6.87,5.18-5.46,9.67c0.16,0.52,0.98,0.15,0.92-0.31c-0.24-1.91-0.4-3.55,0.33-5.4
					c0.77-1.93,2.51-2.94,4.26-3.79C30.45,93.78,30.4,93.62,30.28,93.66z"/>
				<path class="st8" d="M26.44,105.98c-0.12-0.28-0.28-0.55-0.42-0.82c-0.07-0.14-0.36,0-0.31,0.14c0.1,0.31,0.19,0.62,0.32,0.91
					C26.13,106.43,26.53,106.19,26.44,105.98z"/>
			</g>
		</g>
	</g>
</g>
</svg>
