<?xml version="1.0" encoding="utf-8"?>
<!-- Generator: Adobe Illustrator 24.0.1, SVG Export Plug-In . SVG Version: 6.00 Build 0)  -->
<svg version="1.1" id="Capa_1" xmlns="http://www.w3.org/2000/svg" xmlns:xlink="http://www.w3.org/1999/xlink" x="0px" y="0px"
	 viewBox="0 0 1000 818" style="enable-background:new 0 0 1000 818;" xml:space="preserve">
<style type="text/css">
	.st0{fill:#B6712C;}
	.st1{fill:#A36028;}
	.st2{fill:#8DAF38;}
	.st3{fill:#7DA032;}
	.st4{fill:#AFCC54;}
	.st5{fill:#DB8637;}
	.st6{fill:#E3924F;}
	.st7{fill:#728C85;}
	.st8{fill:#B57641;}
	.st9{fill:#C3D0A8;}
	.st10{fill:#D6B4A2;}
	.st11{fill:#A5C3A5;}
	.st12{fill:#BDDCB8;}
	.st13{fill:#637770;}
	.st14{fill:#C87632;}
	.st15{fill:#E5C8B3;}
	.st16{fill:#7A4D39;}
	.st17{fill:#CEB4A3;}
	.st18{fill:#46514B;}
	.st19{fill:#FFE1C7;}
	.st20{fill:#D18146;}
	.st21{fill:#E7E5E5;}
	.st22{fill:#5A2B1B;}
	.st23{fill:#441E14;}
	.st24{fill:#C17333;}
	.st25{fill:#39828F;}
	.st26{fill:#619BA5;}
	.st27{fill:#DFC2C2;}
	.st28{fill:#FFFFFF;}
	.st29{fill:#929E92;}
	.st30{fill:#B7A398;}
	.st31{fill:#698428;}
	.st32{fill:#A6C642;}
	.st33{opacity:0.14;}
</style>
<g>
	<g>
		<g>
			<g>
				<g>
					<rect x="746.73" y="489.76" class="st0" width="49.73" height="203.08"/>
				</g>
			</g>
		</g>
		<g>
			<g>
				<g>
					<rect x="746.73" y="489.76" class="st1" width="18.32" height="194.3"/>
				</g>
			</g>
		</g>
		<g>
			<g>
				<g>
					<path class="st2" d="M659.38,318.57c0.4-1.5,0.75-3.01,1.22-4.48c-22.62-9.05-38.62-31.13-38.62-56.98
						c0-33.91,27.48-61.39,61.39-61.39c5,0,9.83,0.66,14.48,1.79c-3.11-9.96-4.8-20.55-4.8-31.54
						c0-58.29,47.26-105.55,105.55-105.55c58.29,0,105.55,47.26,105.55,105.55c0,4.15-0.3,8.22-0.77,12.25
						c20.98,13.59,34.9,37.16,34.9,64.01c0,18.84-6.87,36.06-18.19,49.36c11.24,11.71,18.19,27.58,18.19,45.09
						c0,1.15-0.11,2.26-0.17,3.39c21.5,7.79,36.89,28.33,36.89,52.52c0,30.88-25.03,55.92-55.92,55.92c-5.65,0-11.1-0.86-16.24-2.42
						c0.8,4.86,1.32,9.82,1.32,14.9c0,50.58-41,91.59-91.59,91.59c-44.23,0-81.13-31.36-89.71-73.05
						c-16.43,14.91-38.18,24.08-62.11,24.08c-51.12,0-92.56-41.44-92.56-92.57C568.19,360.41,608.9,319.31,659.38,318.57z"/>
				</g>
			</g>
		</g>
		<g>
			<g>
				<g>
					<path class="st3" d="M919.7,404.3c0.06-1.13,0.17-2.25,0.17-3.39c0-17.52-6.95-33.38-18.19-45.09
						c11.32-13.31,18.19-30.52,18.19-49.36c0-26.86-13.92-50.43-34.9-64.01c0.47-4.03,0.77-8.1,0.77-12.25
						c0-58.29-47.26-105.55-105.55-105.55c-36.05,0-67.84,18.1-86.89,45.68c-0.13-2.13-0.25-4.27-0.25-6.44
						c0-58.29,47.26-105.55,105.55-105.55c58.29,0,105.55,47.26,105.55,105.55c0,4.15-0.3,8.23-0.77,12.25
						c20.98,13.59,34.9,37.16,34.9,64.01c0,18.84-6.87,36.06-18.19,49.36c11.24,11.71,18.19,27.58,18.19,45.09
						c0,1.15-0.11,2.26-0.17,3.39c21.5,7.79,36.89,28.33,36.89,52.52c0,18.47-9.06,34.71-22.86,44.89
						C946.13,421.03,934.42,409.64,919.7,404.3z"/>
				</g>
			</g>
		</g>
	</g>
	<g>
		<g>
			<g>
				<g>
					<rect x="152.76" y="504.78" class="st0" width="34.27" height="139.94"/>
				</g>
			</g>
		</g>
		<g>
			<g>
				<g>
					<rect x="152.76" y="504.78" class="st1" width="12.62" height="133.89"/>
				</g>
			</g>
		</g>
		<g>
			<g>
				<g>
					<path class="st2" d="M92.57,386.82c0.28-1.03,0.52-2.08,0.84-3.09c-15.59-6.24-26.61-21.45-26.61-39.26
						c0-23.36,18.94-42.3,42.3-42.3c3.44,0,6.77,0.46,9.98,1.23c-2.15-6.86-3.31-14.16-3.31-21.73c0-40.17,32.56-72.73,72.73-72.73
						s72.73,32.56,72.73,72.73c0,2.86-0.21,5.67-0.53,8.44c14.46,9.36,24.05,25.6,24.05,44.11c0,12.98-4.73,24.85-12.53,34.02
						c7.75,8.07,12.53,19,12.53,31.07c0,0.79-0.08,1.56-0.12,2.34c14.81,5.37,25.42,19.52,25.42,36.19
						c0,21.28-17.25,38.53-38.53,38.53c-3.89,0-7.65-0.59-11.19-1.66c0.55,3.35,0.91,6.76,0.91,10.27
						c0,34.86-28.26,63.11-63.11,63.11c-30.48,0-55.91-21.61-61.81-50.34c-11.32,10.28-26.31,16.59-42.8,16.59
						c-35.23,0-63.78-28.56-63.78-63.79C29.73,415.65,57.78,387.33,92.57,386.82z"/>
				</g>
			</g>
		</g>
		<g>
			<g>
				<g>
					<path class="st3" d="M271.95,445.89c0.04-0.78,0.12-1.55,0.12-2.34c0-12.07-4.79-23-12.53-31.07
						c7.8-9.17,12.53-21.03,12.53-34.02c0-18.51-9.59-34.75-24.05-44.11c0.32-2.77,0.53-5.58,0.53-8.44
						c0-40.17-32.56-72.73-72.73-72.73c-24.84,0-46.75,12.47-59.87,31.48c-0.09-1.47-0.17-2.95-0.17-4.44
						c0-40.17,32.56-72.73,72.73-72.73c40.17,0,72.73,32.56,72.73,72.73c0,2.86-0.21,5.67-0.53,8.44
						c14.46,9.36,24.05,25.6,24.05,44.11c0,12.98-4.73,24.85-12.53,34.02c7.75,8.07,12.53,19,12.53,31.07
						c0,0.79-0.08,1.56-0.12,2.34c14.81,5.37,25.42,19.52,25.42,36.19c0,12.72-6.24,23.92-15.75,30.93
						C290.16,457.42,282.09,449.57,271.95,445.89z"/>
				</g>
			</g>
		</g>
	</g>
	<g>
		<g>
			<path class="st2" d="M934.8,669.22c0,22.96-15.91,41.57-35.54,41.57H109.45c-19.63,0-35.54-18.61-35.54-41.57l0,0
				c0-22.96,15.91-41.57,35.54-41.57h789.81C918.89,627.65,934.8,646.26,934.8,669.22L934.8,669.22z"/>
		</g>
	</g>
	<g>
		<g>
			<path class="st4" d="M100.89,628.92c0,0,279.38,116.4,798.38-1.27L100.89,628.92z"/>
		</g>
	</g>
	<g>
		<g>
			<g>
				<rect x="145.93" y="260.37" class="st5" width="224.14" height="367.24"/>
			</g>
		</g>
	</g>
	<g>
		<g>
			<g>
				<rect x="628.38" y="260.5" class="st5" width="224.14" height="367.24"/>
			</g>
		</g>
	</g>
	<g>
		<g>
			<g>
				<rect x="358.22" y="255.93" class="st6" width="279.64" height="371.81"/>
			</g>
		</g>
	</g>
	<g>
		<g>
			<g>
				<polygon class="st7" points="147.4,262.16 391.53,199.93 606.71,199.93 855.87,262.16 				"/>
			</g>
		</g>
	</g>
	<g>
		<g>
			<g>
				<rect x="360.01" y="416.86" class="st8" width="268.37" height="8.81"/>
			</g>
		</g>
	</g>
	<g>
		<g>
			<g>
				<rect x="144.34" y="260.5" class="st9" width="711.52" height="11.8"/>
			</g>
		</g>
	</g>
	<g>
		<g>
			<g>
				<g>
					<rect x="401.65" y="459.17" class="st8" width="92.85" height="161.39"/>
				</g>
			</g>
		</g>
		<g>
			<g>
				<g>
					<rect x="409.02" y="470.96" class="st10" width="34.64" height="42.01"/>
				</g>
			</g>
		</g>
		<g>
			<g>
				<g>
					<rect x="453.24" y="470.96" class="st10" width="34.64" height="42.01"/>
				</g>
			</g>
		</g>
		<g>
			<g>
				<g>
					<rect x="409.02" y="519.6" class="st10" width="34.64" height="42.01"/>
				</g>
			</g>
		</g>
		<g>
			<g>
				<g>
					<rect x="453.24" y="519.6" class="st10" width="34.64" height="42.01"/>
				</g>
			</g>
		</g>
		<g>
			<g>
				<g>
					<rect x="409.02" y="568.23" class="st10" width="34.64" height="42"/>
				</g>
			</g>
		</g>
		<g>
			<g>
				<g>
					<rect x="453.24" y="568.23" class="st10" width="34.64" height="42"/>
				</g>
			</g>
		</g>
	</g>
	<g>
		<g>
			<g>
				<g>
					<rect x="508.51" y="459.17" class="st8" width="92.85" height="161.39"/>
				</g>
			</g>
		</g>
		<g>
			<g>
				<g>
					<rect x="515.88" y="470.96" class="st10" width="34.64" height="42.01"/>
				</g>
			</g>
		</g>
		<g>
			<g>
				<g>
					<rect x="560.09" y="470.96" class="st10" width="34.64" height="42.01"/>
				</g>
			</g>
		</g>
		<g>
			<g>
				<g>
					<rect x="515.88" y="519.6" class="st10" width="34.64" height="42.01"/>
				</g>
			</g>
		</g>
		<g>
			<g>
				<g>
					<rect x="560.09" y="519.6" class="st10" width="34.64" height="42.01"/>
				</g>
			</g>
		</g>
		<g>
			<g>
				<g>
					<rect x="515.88" y="568.23" class="st10" width="34.64" height="42"/>
				</g>
			</g>
		</g>
		<g>
			<g>
				<g>
					<rect x="560.09" y="568.23" class="st10" width="34.64" height="42"/>
				</g>
			</g>
		</g>
	</g>
	<g>
		<g>
			<g>
				<rect x="397.72" y="606.69" class="st11" width="207.64" height="13.13"/>
			</g>
		</g>
	</g>
	<g>
		<g>
			<g>
				<rect x="369.49" y="618.04" class="st12" width="258.89" height="9.71"/>
			</g>
		</g>
	</g>
	<g>
		<g>
			<g>
				<rect x="144.34" y="260.5" class="st13" width="711.52" height="5.9"/>
			</g>
		</g>
	</g>
	<g>
		<g>
			<g>
				<polygon class="st13" points="645.34,272.3 358.18,272.3 500.57,127.57 				"/>
			</g>
		</g>
	</g>
	<g>
		<g>
			<polygon class="st6" points="373.55,272.3 498.55,147.5 628.38,272.3 			"/>
		</g>
	</g>
	<g>
		<g>
			<rect x="356.6" y="272.3" class="st14" width="4" height="355.45"/>
		</g>
	</g>
	<g>
		<g>
			<g>
				<rect x="374.63" y="348.76" class="st15" width="253.75" height="53.64"/>
			</g>
		</g>
		<g>
			<g>
				<g>
					<path class="st16" d="M439.64,364.99l-2.12,2.5c-2.12-1.81-4.08-2.59-6.4-2.59c-2.82,0-5.06,1.38-5.06,4.23
						c0,2.5,1.1,3.71,6.16,5.35c4.48,1.47,8.31,3.32,8.31,9.01c0,5.17-3.71,8.8-10.03,8.8c-4.03,0-7.21-1.42-9.53-3.84l2.16-2.55
						c2.08,1.86,4.28,3.02,7.34,3.02c3.3,0,6.03-1.72,6.03-5.3c0-2.89-1.3-4.18-6.07-5.74c-5.46-1.77-8.31-3.97-8.31-8.58
						c0-4.57,3.67-7.76,8.85-7.76C434.83,361.54,437.28,362.75,439.64,364.99z"/>
					<path class="st16" d="M430.51,392.84c-4.03,0-7.38-1.35-9.93-4.01l-0.35-0.36l2.85-3.36l0.42,0.38
						c2.26,2.02,4.34,2.88,6.97,2.88c2.65,0,5.48-1.25,5.48-4.75c0-2.37-0.79-3.61-5.69-5.21c-5.22-1.69-8.69-3.88-8.69-9.11
						c0-4.9,3.87-8.32,9.4-8.32c3.74,0,6.36,1.04,9.06,3.6l0.38,0.36l-2.82,3.32l-0.42-0.36c-2.02-1.72-3.82-2.45-6.04-2.45
						c-1.06,0-4.5,0.26-4.5,3.67c0,2,0.57,3.13,5.77,4.82c4.4,1.44,8.69,3.36,8.69,9.54C441.09,389.17,436.94,392.84,430.51,392.84z
						 M421.73,388.42c2.29,2.2,5.25,3.31,8.78,3.31c5.84,0,9.47-3.16,9.47-8.24c0-5.44-3.75-7.12-7.93-8.49
						c-5.07-1.64-6.54-2.96-6.54-5.87c0-2.9,2.2-4.78,5.61-4.78c2.31,0,4.28,0.73,6.33,2.37l1.42-1.68
						c-2.34-2.08-4.67-2.94-7.92-2.94c-4.88,0-8.29,2.97-8.29,7.21c0,4,2.15,6.18,7.93,8.05c4.95,1.61,6.46,3.08,6.46,6.26
						c0,3.56-2.58,5.86-6.58,5.86c-2.72,0-4.98-0.86-7.28-2.79L421.73,388.42z"/>
				</g>
				<g>
					<path class="st16" d="M466.3,364.48l-2.12,2.63c-1.75-1.51-3.46-2.2-5.42-2.2c-4.24,0-7.79,3.02-7.79,11.99
						c0,8.58,3.38,11.94,7.74,11.94c2.65,0,4.36-1.25,5.95-2.5l1.96,2.63c-1.51,1.68-4.24,3.32-8.03,3.32
						c-6.8,0-11.74-5.39-11.74-15.39c0-10.05,5.3-15.35,11.66-15.35C462.06,361.54,464.06,362.58,466.3,364.48z"/>
					<path class="st16" d="M458.6,392.84c-7.58,0-12.29-6.11-12.29-15.95c0-10.99,6.13-15.91,12.21-15.91
						c3.76,0,5.91,1.17,8.15,3.06l0.41,0.35l-2.82,3.5l-0.44-0.37c-1.64-1.41-3.24-2.07-5.06-2.07c-4.73,0-7.23,3.95-7.23,11.44
						c0,7.35,2.55,11.39,7.19,11.39c2.38,0,3.95-1.08,5.61-2.38l0.45-0.35l2.57,3.45l-0.3,0.34
						C466.09,390.39,463.38,392.84,458.6,392.84z M458.51,362.1c-5.53,0-11.1,4.58-11.1,14.8c0,9.15,4.29,14.84,11.19,14.84
						c3.89,0,6.25-1.77,7.31-2.81l-1.34-1.8c-1.36,1.05-3.19,2.27-5.84,2.27c-3.1,0-8.3-1.62-8.3-12.5
						c0-10.91,5.23-12.54,8.34-12.54c1.93,0,3.64,0.63,5.34,1.97l1.42-1.77C463.59,362.99,461.73,362.1,458.51,362.1z"/>
				</g>
				<g>
					<path class="st16" d="M489.66,377.84h-11.82v13.93h-3.87v-29.71h3.87v12.42h11.82v-12.42h3.88v29.71h-3.88V377.84z"/>
					<path class="st16" d="M494.09,392.33h-4.98V378.4h-10.71v13.93h-4.98v-30.82h4.98v12.42h10.71v-12.42h4.98V392.33z
						 M490.21,391.22h2.77v-28.6h-2.77v12.42h-12.93v-12.42h-2.76v28.6h2.76v-13.93h12.93V391.22z"/>
				</g>
				<g>
					<path class="st16" d="M526.02,376.94c0,9.83-4.81,15.35-11.86,15.35c-7.01,0-11.86-5.35-11.86-15.31
						c0-9.79,4.85-15.44,11.86-15.44C521.21,361.54,526.02,366.93,526.02,376.94z M506.41,376.98c0,8.58,3.18,11.95,7.74,11.95
						c4.73,0,7.74-3.36,7.74-11.99c0-8.54-2.93-12.03-7.74-12.03C509.47,364.91,506.41,368.4,506.41,376.98z"/>
					<path class="st16" d="M514.16,392.84c-7.66,0-12.41-6.08-12.41-15.86c0-9.71,4.88-15.99,12.41-15.99
						c7.66,0,12.42,6.11,12.42,15.95C526.57,386.75,521.81,392.84,514.16,392.84z M514.16,362.1c-6.97,0-11.31,5.7-11.31,14.88
						c0,9.24,4.23,14.76,11.31,14.76c6.97,0,11.31-5.67,11.31-14.8C525.46,367.65,521.24,362.1,514.16,362.1z M514.16,389.48
						c-3.79,0-8.3-2.17-8.3-12.5c0-10.44,4.51-12.63,8.3-12.63c5.51,0,8.3,4.24,8.3,12.59
						C522.45,385.26,519.66,389.48,514.16,389.48z M514.16,365.46c-4.77,0-7.19,3.88-7.19,11.52c0,7.56,2.42,11.39,7.19,11.39
						c4.84,0,7.19-3.74,7.19-11.43C521.35,369.22,518.99,365.46,514.16,365.46z"/>
				</g>
				<g>
					<path class="st16" d="M556.67,376.94c0,9.83-4.81,15.35-11.86,15.35c-7.01,0-11.86-5.35-11.86-15.31
						c0-9.79,4.85-15.44,11.86-15.44C551.86,361.54,556.67,366.93,556.67,376.94z M537.07,376.98c0,8.58,3.18,11.95,7.75,11.95
						c4.73,0,7.74-3.36,7.74-11.99c0-8.54-2.94-12.03-7.74-12.03C540.12,364.91,537.07,368.4,537.07,376.98z"/>
					<path class="st16" d="M544.81,392.84c-7.66,0-12.41-6.08-12.41-15.86c0-9.71,4.88-15.99,12.41-15.99
						c7.66,0,12.41,6.11,12.41,15.95C557.22,386.75,552.47,392.84,544.81,392.84z M544.81,362.1c-6.97,0-11.31,5.7-11.31,14.88
						c0,9.24,4.23,14.76,11.31,14.76c6.97,0,11.3-5.67,11.3-14.8C556.12,367.65,551.89,362.1,544.81,362.1z M544.81,389.48
						c-3.79,0-8.3-2.17-8.3-12.5c0-10.44,4.52-12.63,8.3-12.63c5.51,0,8.3,4.24,8.3,12.59
						C553.11,385.26,550.32,389.48,544.81,389.48z M544.81,365.46c-4.77,0-7.19,3.88-7.19,11.52c0,7.56,2.42,11.39,7.19,11.39
						c4.84,0,7.19-3.74,7.19-11.43C552,369.22,549.65,365.46,544.81,365.46z"/>
				</g>
				<g>
					<path class="st16" d="M569.31,388.19h11.54l-0.45,3.58h-14.96v-29.71h3.87V388.19z"/>
					<path class="st16" d="M580.89,392.33h-16v-30.82h4.98v26.13h11.61L580.89,392.33z M565.99,391.22h13.92l0.31-2.47h-11.46
						v-26.13h-2.76V391.22z"/>
				</g>
			</g>
		</g>
		<g>
			<g>
				<rect x="374.63" y="348.76" class="st17" width="253.75" height="4.46"/>
			</g>
		</g>
		<g>
			<g>
				<rect x="374.63" y="348.76" class="st17" width="3.88" height="53.64"/>
			</g>
		</g>
		<g>
			<g>
				<rect x="374.63" y="396.97" class="st17" width="253.75" height="5.43"/>
			</g>
		</g>
		<g>
			<g>
				<rect x="624.49" y="348.76" class="st17" width="3.88" height="50.92"/>
			</g>
		</g>
	</g>
	<g>
		<g>
			<g>
				<rect x="591.25" y="669.22" class="st18" width="44.92" height="6.41"/>
			</g>
		</g>
		<g>
			<g>
				<polygon class="st19" points="615.21,478.5 609.22,479.4 602.98,435.16 620.58,435.16 				"/>
			</g>
		</g>
		<g>
			<g>
				<path class="st18" d="M632.56,434.03c0,0.62-0.59,1.12-1.31,1.12h-38.93c-0.72,0-1.31-0.5-1.31-1.12l0,0
					c0-0.62,0.59-1.12,1.31-1.12h38.93C631.97,432.91,632.56,433.42,632.56,434.03L632.56,434.03z"/>
			</g>
		</g>
		<g>
			<g>
				<path class="st18" d="M611.78,419.29c-8.79,0-15.91,6.1-15.91,13.62h31.82C627.69,425.39,620.57,419.29,611.78,419.29z"/>
			</g>
		</g>
		<g>
			<g>
				<path class="st18" d="M623.95,477.94c0,0.62-0.65,1.12-1.45,1.12h-21.07c-0.8,0-1.45-0.5-1.45-1.12l0,0
					c0-0.62,0.65-1.12,1.45-1.12h21.07C623.3,476.82,623.95,477.32,623.95,477.94L623.95,477.94z"/>
			</g>
		</g>
		<g>
			<g>
				<polygon class="st18" points="595.87,435.16 604.29,476.82 608.5,476.82 600.36,435.16 				"/>
			</g>
		</g>
		<g>
			<g>
				<polygon class="st18" points="627.84,435.16 619.42,476.82 615.21,476.82 623.35,435.16 				"/>
			</g>
		</g>
		<g>
			<g>
				<rect x="609.22" y="477.94" class="st18" width="5.99" height="194.95"/>
			</g>
		</g>
	</g>
	<g>
		<rect x="483.75" y="165.66" class="st20" width="30.41" height="10.87"/>
		<rect x="468.54" y="182.08" class="st20" width="30.41" height="10.87"/>
		<rect x="501.76" y="182.08" class="st20" width="30.41" height="10.87"/>
		<rect x="451.94" y="198.06" class="st20" width="30.41" height="10.87"/>
		<rect x="485.15" y="198.06" class="st20" width="30.41" height="10.87"/>
		<rect x="520.03" y="198.06" class="st20" width="30.41" height="10.87"/>
		<rect x="433.42" y="213.57" class="st20" width="30.41" height="10.87"/>
		<rect x="466.63" y="213.57" class="st20" width="30.41" height="10.87"/>
		<rect x="501.51" y="213.57" class="st20" width="30.41" height="10.87"/>
		<rect x="535.3" y="213.57" class="st20" width="30.41" height="10.87"/>
		<rect x="419.01" y="228.79" class="st20" width="30.41" height="10.87"/>
		<rect x="452.22" y="228.79" class="st20" width="30.41" height="10.87"/>
		<rect x="487.1" y="228.79" class="st20" width="30.41" height="10.87"/>
		<rect x="520.89" y="228.79" class="st20" width="30.41" height="10.87"/>
		<rect x="402.4" y="244.02" class="st20" width="30.41" height="10.87"/>
		<rect x="435.61" y="244.02" class="st20" width="30.41" height="10.87"/>
		<rect x="470.5" y="244.02" class="st20" width="30.41" height="10.87"/>
		<rect x="504.28" y="244.02" class="st20" width="30.41" height="10.87"/>
		<rect x="388.6" y="258.02" class="st20" width="30.41" height="10.87"/>
		<rect x="421.81" y="258.02" class="st20" width="30.41" height="10.87"/>
		<rect x="456.69" y="258.02" class="st20" width="30.41" height="10.87"/>
		<rect x="376.57" y="271.4" class="st20" width="30.41" height="10.87"/>
		<rect x="409.78" y="271.4" class="st20" width="30.41" height="10.87"/>
		<rect x="444.67" y="271.4" class="st20" width="30.41" height="10.87"/>
		<rect x="400.16" y="285.79" class="st20" width="30.41" height="10.87"/>
		<rect x="433.38" y="285.79" class="st20" width="30.41" height="10.87"/>
		<rect x="468.26" y="285.79" class="st20" width="30.41" height="10.87"/>
		<rect x="421.24" y="299.64" class="st20" width="30.41" height="10.87"/>
		<rect x="454.46" y="299.64" class="st20" width="30.41" height="10.87"/>
		<rect x="489.34" y="299.64" class="st20" width="30.41" height="10.87"/>
		<rect x="465.8" y="314.38" class="st20" width="30.41" height="10.87"/>
		<rect x="500.68" y="314.38" class="st20" width="30.41" height="10.87"/>
		<rect x="508.98" y="329.6" class="st20" width="30.41" height="10.87"/>
		<rect x="490.48" y="258.02" class="st20" width="30.41" height="10.87"/>
	</g>
	<g>
		<g>
			<g>
				<g>
					<path class="st21" d="M447.24,255.93c0-27.04,21.92-48.96,48.96-48.96c27.04,0,48.96,21.92,48.96,48.96
						s-21.92,48.96-48.96,48.96C469.16,304.9,447.24,282.97,447.24,255.93L447.24,255.93z"/>
				</g>
			</g>
		</g>
		<g>
			<g>
				<g>
					<path class="st22" d="M496.21,310.45c-30.06,0-54.52-24.46-54.52-54.51c0-30.06,24.46-54.51,54.52-54.51
						c30.06,0,54.51,24.46,54.51,54.51C550.72,285.99,526.26,310.45,496.21,310.45L496.21,310.45z M496.21,207.48
						c-26.72,0-48.46,21.74-48.46,48.46c0,26.72,21.74,48.46,48.46,48.46c26.72,0,48.46-21.74,48.46-48.46
						C544.66,229.22,522.92,207.48,496.21,207.48L496.21,207.48z"/>
				</g>
			</g>
		</g>
		<g>
			<g>
				<g>
					<rect x="495.52" y="208.78" class="st23" width="1.36" height="5.8"/>
				</g>
			</g>
		</g>
		<g>
			<g>
				<g>
					<rect x="495.52" y="296.86" class="st23" width="1.36" height="5.8"/>
				</g>
			</g>
		</g>
		<g>
			<g>
				<g>
					<rect x="449.54" y="255.25" class="st23" width="5.8" height="1.36"/>
				</g>
			</g>
		</g>
		<g>
			<g>
				<g>
					<rect x="537.37" y="255.25" class="st23" width="5.8" height="1.36"/>
				</g>
			</g>
		</g>
		<g>
			<g>
				<g>
					<polygon class="st23" points="496.2,251.84 493.85,262.31 495.67,294.03 498.53,262.77 					"/>
				</g>
			</g>
		</g>
		<g>
			<g>
				<g>
					<circle class="st23" cx="496.19" cy="251.84" r="2.34"/>
				</g>
			</g>
		</g>
		<g>
			<g>
				<g>
					<polygon class="st23" points="496.45,252.3 504.45,250.02 525.37,237.01 503.02,246.66 					"/>
				</g>
			</g>
		</g>
	</g>
	<g>
		<rect x="252.59" y="280.95" class="st24" width="30.17" height="10.87"/>
		<rect x="237.51" y="297.37" class="st24" width="30.17" height="10.87"/>
		<rect x="270.46" y="297.37" class="st24" width="30.17" height="10.87"/>
		<rect x="221.03" y="313.35" class="st24" width="30.17" height="10.87"/>
		<rect x="253.98" y="313.35" class="st24" width="30.17" height="10.87"/>
		<rect x="288.59" y="313.35" class="st24" width="30.17" height="10.87"/>
		<rect x="202.66" y="328.86" class="st24" width="30.17" height="10.87"/>
		<rect x="235.61" y="328.86" class="st24" width="30.17" height="10.87"/>
		<rect x="270.22" y="328.86" class="st24" width="30.17" height="10.87"/>
		<rect x="303.74" y="328.86" class="st24" width="30.17" height="10.87"/>
		<rect x="188.35" y="344.09" class="st24" width="30.17" height="10.87"/>
		<rect x="221.31" y="344.09" class="st24" width="30.17" height="10.87"/>
		<rect x="255.92" y="344.09" class="st24" width="30.17" height="10.87"/>
		<rect x="289.44" y="344.09" class="st24" width="30.17" height="10.87"/>
		<rect x="171.88" y="359.31" class="st24" width="30.17" height="10.87"/>
		<rect x="204.83" y="359.31" class="st24" width="30.17" height="10.87"/>
		<rect x="239.44" y="359.31" class="st24" width="30.17" height="10.87"/>
		<rect x="272.96" y="359.31" class="st24" width="30.17" height="10.87"/>
		<rect x="158.18" y="373.31" class="st24" width="30.17" height="10.87"/>
		<rect x="191.14" y="373.31" class="st24" width="30.17" height="10.87"/>
		<rect x="225.75" y="373.31" class="st24" width="30.17" height="10.87"/>
		<rect x="146.25" y="386.69" class="st24" width="30.17" height="10.87"/>
		<rect x="179.2" y="386.69" class="st24" width="30.17" height="10.87"/>
		<rect x="213.82" y="386.69" class="st24" width="30.17" height="10.87"/>
		<rect x="169.66" y="401.09" class="st24" width="30.17" height="10.87"/>
		<rect x="202.61" y="401.09" class="st24" width="30.17" height="10.87"/>
		<rect x="237.22" y="401.09" class="st24" width="30.17" height="10.87"/>
		<rect x="190.57" y="414.93" class="st24" width="30.17" height="10.87"/>
		<rect x="223.53" y="414.93" class="st24" width="30.17" height="10.87"/>
		<rect x="258.14" y="414.93" class="st24" width="30.17" height="10.87"/>
		<rect x="234.78" y="429.67" class="st24" width="30.17" height="10.87"/>
		<rect x="269.39" y="429.67" class="st24" width="30.17" height="10.87"/>
		<rect x="277.63" y="444.89" class="st24" width="30.17" height="10.87"/>
		<rect x="259.27" y="373.31" class="st24" width="30.17" height="10.87"/>
	</g>
	<g>
		<rect x="252.73" y="450.52" class="st24" width="29.1" height="10.87"/>
		<rect x="238.18" y="466.94" class="st24" width="29.1" height="10.87"/>
		<rect x="269.97" y="466.94" class="st24" width="29.1" height="10.87"/>
		<rect x="222.29" y="482.92" class="st24" width="29.1" height="10.87"/>
		<rect x="254.08" y="482.92" class="st24" width="29.1" height="10.87"/>
		<rect x="287.46" y="482.92" class="st24" width="29.1" height="10.87"/>
		<rect x="204.56" y="498.43" class="st24" width="29.1" height="10.87"/>
		<rect x="236.35" y="498.43" class="st24" width="29.1" height="10.87"/>
		<rect x="269.74" y="498.43" class="st24" width="29.1" height="10.87"/>
		<rect x="302.07" y="498.43" class="st24" width="29.1" height="10.87"/>
		<rect x="190.77" y="513.65" class="st24" width="29.1" height="10.87"/>
		<rect x="222.56" y="513.65" class="st24" width="29.1" height="10.87"/>
		<rect x="255.94" y="513.65" class="st24" width="29.1" height="10.87"/>
		<rect x="288.28" y="513.65" class="st24" width="29.1" height="10.87"/>
		<rect x="174.88" y="528.88" class="st24" width="29.1" height="10.87"/>
		<rect x="206.66" y="528.88" class="st24" width="29.1" height="10.87"/>
		<rect x="240.05" y="528.88" class="st24" width="29.1" height="10.87"/>
		<rect x="272.38" y="528.88" class="st24" width="29.1" height="10.87"/>
		<rect x="161.67" y="542.88" class="st24" width="29.1" height="10.87"/>
		<rect x="193.45" y="542.88" class="st24" width="29.1" height="10.87"/>
		<rect x="226.84" y="542.88" class="st24" width="29.1" height="10.87"/>
		<rect x="150.16" y="556.26" class="st24" width="29.1" height="10.87"/>
		<rect x="181.94" y="556.26" class="st24" width="29.1" height="10.87"/>
		<rect x="215.33" y="556.26" class="st24" width="29.1" height="10.87"/>
		<rect x="172.73" y="570.65" class="st24" width="29.1" height="10.87"/>
		<rect x="204.52" y="570.65" class="st24" width="29.1" height="10.87"/>
		<rect x="237.91" y="570.65" class="st24" width="29.1" height="10.87"/>
		<rect x="192.91" y="584.5" class="st24" width="29.1" height="10.87"/>
		<rect x="224.7" y="584.5" class="st24" width="29.1" height="10.87"/>
		<rect x="258.08" y="584.5" class="st24" width="29.1" height="10.87"/>
		<rect x="235.55" y="599.24" class="st24" width="29.1" height="10.87"/>
		<rect x="268.94" y="599.24" class="st24" width="29.1" height="10.87"/>
		<rect x="276.89" y="614.46" class="st24" width="29.1" height="10.87"/>
		<rect x="259.17" y="542.88" class="st24" width="29.1" height="10.87"/>
	</g>
	<g>
		<rect x="772.25" y="277.55" class="st24" width="30.17" height="10.87"/>
		<rect x="757.17" y="293.97" class="st24" width="30.17" height="10.87"/>
		<rect x="790.12" y="293.97" class="st24" width="30.17" height="10.87"/>
		<rect x="740.69" y="309.95" class="st24" width="30.17" height="10.87"/>
		<rect x="773.64" y="309.95" class="st24" width="30.17" height="10.87"/>
		<rect x="808.25" y="309.95" class="st24" width="30.17" height="10.87"/>
		<rect x="722.32" y="325.45" class="st24" width="30.17" height="10.87"/>
		<rect x="755.27" y="325.45" class="st24" width="30.17" height="10.87"/>
		<rect x="789.88" y="325.45" class="st24" width="30.17" height="10.87"/>
		<rect x="823.4" y="325.45" class="st24" width="30.17" height="10.87"/>
		<rect x="708.01" y="340.68" class="st24" width="30.17" height="10.87"/>
		<rect x="740.97" y="340.68" class="st24" width="30.17" height="10.87"/>
		<rect x="775.58" y="340.68" class="st24" width="30.17" height="10.87"/>
		<rect x="809.1" y="340.68" class="st24" width="30.17" height="10.87"/>
		<rect x="691.54" y="355.9" class="st24" width="30.17" height="10.87"/>
		<rect x="724.49" y="355.9" class="st24" width="30.17" height="10.87"/>
		<rect x="759.1" y="355.9" class="st24" width="30.17" height="10.87"/>
		<rect x="792.62" y="355.9" class="st24" width="30.17" height="10.87"/>
		<rect x="677.84" y="369.9" class="st24" width="30.17" height="10.87"/>
		<rect x="710.8" y="369.9" class="st24" width="30.17" height="10.87"/>
		<rect x="745.41" y="369.9" class="st24" width="30.17" height="10.87"/>
		<rect x="665.91" y="383.28" class="st24" width="30.17" height="10.87"/>
		<rect x="698.86" y="383.28" class="st24" width="30.17" height="10.87"/>
		<rect x="733.48" y="383.28" class="st24" width="30.17" height="10.87"/>
		<rect x="689.32" y="397.68" class="st24" width="30.17" height="10.87"/>
		<rect x="722.27" y="397.68" class="st24" width="30.17" height="10.87"/>
		<rect x="756.88" y="397.68" class="st24" width="30.17" height="10.87"/>
		<rect x="710.23" y="411.52" class="st24" width="30.17" height="10.87"/>
		<rect x="743.19" y="411.52" class="st24" width="30.17" height="10.87"/>
		<rect x="777.8" y="411.52" class="st24" width="30.17" height="10.87"/>
		<rect x="754.44" y="426.26" class="st24" width="30.17" height="10.87"/>
		<rect x="789.05" y="426.26" class="st24" width="30.17" height="10.87"/>
		<rect x="797.29" y="441.49" class="st24" width="30.17" height="10.87"/>
		<rect x="778.93" y="369.9" class="st24" width="30.17" height="10.87"/>
	</g>
	<g>
		<rect x="772.39" y="447.11" class="st24" width="29.1" height="10.87"/>
		<rect x="757.84" y="463.53" class="st24" width="29.1" height="10.87"/>
		<rect x="789.63" y="463.53" class="st24" width="29.1" height="10.87"/>
		<rect x="741.95" y="479.51" class="st24" width="29.1" height="10.87"/>
		<rect x="773.74" y="479.51" class="st24" width="29.1" height="10.87"/>
		<rect x="807.12" y="479.51" class="st24" width="29.1" height="10.87"/>
		<rect x="724.22" y="495.02" class="st24" width="29.1" height="10.87"/>
		<rect x="756.01" y="495.02" class="st24" width="29.1" height="10.87"/>
		<rect x="789.4" y="495.02" class="st24" width="29.1" height="10.87"/>
		<rect x="821.73" y="495.02" class="st24" width="29.1" height="10.87"/>
		<rect x="710.43" y="510.24" class="st24" width="29.1" height="10.87"/>
		<rect x="742.22" y="510.24" class="st24" width="29.1" height="10.87"/>
		<rect x="775.6" y="510.24" class="st24" width="29.1" height="10.87"/>
		<rect x="807.94" y="510.24" class="st24" width="29.1" height="10.87"/>
		<rect x="694.54" y="525.47" class="st24" width="29.1" height="10.87"/>
		<rect x="726.32" y="525.47" class="st24" width="29.1" height="10.87"/>
		<rect x="759.71" y="525.47" class="st24" width="29.1" height="10.87"/>
		<rect x="792.04" y="525.47" class="st24" width="29.1" height="10.87"/>
		<rect x="681.33" y="539.47" class="st24" width="29.1" height="10.87"/>
		<rect x="713.11" y="539.47" class="st24" width="29.1" height="10.87"/>
		<rect x="746.5" y="539.47" class="st24" width="29.1" height="10.87"/>
		<rect x="669.82" y="552.85" class="st24" width="29.1" height="10.87"/>
		<rect x="701.6" y="552.85" class="st24" width="29.1" height="10.87"/>
		<rect x="734.99" y="552.85" class="st24" width="29.1" height="10.87"/>
		<rect x="692.39" y="567.25" class="st24" width="29.1" height="10.87"/>
		<rect x="724.18" y="567.25" class="st24" width="29.1" height="10.87"/>
		<rect x="757.57" y="567.25" class="st24" width="29.1" height="10.87"/>
		<rect x="712.57" y="581.09" class="st24" width="29.1" height="10.87"/>
		<rect x="744.36" y="581.09" class="st24" width="29.1" height="10.87"/>
		<rect x="777.74" y="581.09" class="st24" width="29.1" height="10.87"/>
		<rect x="755.21" y="595.83" class="st24" width="29.1" height="10.87"/>
		<rect x="788.6" y="595.83" class="st24" width="29.1" height="10.87"/>
		<rect x="796.55" y="611.05" class="st24" width="29.1" height="10.87"/>
		<rect x="778.83" y="539.47" class="st24" width="29.1" height="10.87"/>
	</g>
	<g>
		<g>
			<g>
				<g>
					<rect x="169.89" y="324.92" class="st25" width="59.65" height="56.7"/>
				</g>
			</g>
		</g>
		<g>
			<g>
				<g>
					<polygon class="st26" points="217,324.92 169.89,349.09 169.89,374.13 229.55,346.07 229.55,324.92 217,324.92 					"/>
				</g>
			</g>
		</g>
		<g>
			<g>
				<g>
					<polygon class="st26" points="169.89,377.3 229.55,349.53 229.55,354.56 169.89,381.62 					"/>
				</g>
			</g>
		</g>
		<g>
			<g>
				<g>
					<rect x="196.92" y="324.92" class="st27" width="4.87" height="56.7"/>
				</g>
			</g>
		</g>
		<g>
			<g>
				<g>
					<rect x="169.89" y="351.11" class="st27" width="59.65" height="4.61"/>
				</g>
			</g>
		</g>
		<g>
			<g>
				<g>
					<rect x="169.89" y="319.81" class="st28" width="59.65" height="5.11"/>
				</g>
			</g>
		</g>
		<g>
			<g>
				<g>
					<rect x="164.48" y="319.81" class="st28" width="5.41" height="61.81"/>
				</g>
			</g>
		</g>
		<g>
			<g>
				<g>
					<rect x="229.55" y="319.81" class="st28" width="5.76" height="61.81"/>
				</g>
			</g>
		</g>
		<g>
			<g>
				<g>
					<rect x="164.48" y="381.62" class="st28" width="70.82" height="6.03"/>
				</g>
			</g>
		</g>
	</g>
	<g>
		<g>
			<g>
				<g>
					<rect x="256.41" y="324.92" class="st25" width="59.65" height="56.7"/>
				</g>
			</g>
		</g>
		<g>
			<g>
				<g>
					<polygon class="st26" points="303.52,324.92 256.41,349.09 256.41,374.13 316.06,346.07 316.06,324.92 303.52,324.92 					"/>
				</g>
			</g>
		</g>
		<g>
			<g>
				<g>
					<polygon class="st26" points="256.41,377.3 316.06,349.53 316.06,354.56 256.41,381.62 					"/>
				</g>
			</g>
		</g>
		<g>
			<g>
				<g>
					<rect x="283.44" y="324.92" class="st27" width="4.87" height="56.7"/>
				</g>
			</g>
		</g>
		<g>
			<g>
				<g>
					<rect x="256.41" y="351.11" class="st27" width="59.65" height="4.61"/>
				</g>
			</g>
		</g>
		<g>
			<g>
				<g>
					<rect x="256.41" y="319.81" class="st28" width="59.65" height="5.11"/>
				</g>
			</g>
		</g>
		<g>
			<g>
				<g>
					<rect x="251" y="319.81" class="st28" width="5.41" height="61.81"/>
				</g>
			</g>
		</g>
		<g>
			<g>
				<g>
					<rect x="316.06" y="319.81" class="st28" width="5.76" height="61.81"/>
				</g>
			</g>
		</g>
		<g>
			<g>
				<g>
					<rect x="251" y="381.62" class="st28" width="70.82" height="6.03"/>
				</g>
			</g>
		</g>
	</g>
	<g>
		<g>
			<g>
				<g>
					<rect x="169.89" y="409.08" class="st25" width="59.65" height="56.7"/>
				</g>
			</g>
		</g>
		<g>
			<g>
				<g>
					<polygon class="st26" points="217,409.08 169.89,433.26 169.89,458.3 229.55,430.23 229.55,409.08 217,409.08 					"/>
				</g>
			</g>
		</g>
		<g>
			<g>
				<g>
					<polygon class="st26" points="169.89,461.46 229.55,433.69 229.55,438.72 169.89,465.78 					"/>
				</g>
			</g>
		</g>
		<g>
			<g>
				<g>
					<rect x="196.92" y="409.08" class="st27" width="4.87" height="56.7"/>
				</g>
			</g>
		</g>
		<g>
			<g>
				<g>
					<rect x="169.89" y="435.27" class="st27" width="59.65" height="4.61"/>
				</g>
			</g>
		</g>
		<g>
			<g>
				<g>
					<rect x="169.89" y="403.97" class="st28" width="59.65" height="5.11"/>
				</g>
			</g>
		</g>
		<g>
			<g>
				<g>
					<rect x="164.48" y="403.97" class="st28" width="5.41" height="61.81"/>
				</g>
			</g>
		</g>
		<g>
			<g>
				<g>
					<rect x="229.55" y="403.97" class="st28" width="5.76" height="61.81"/>
				</g>
			</g>
		</g>
		<g>
			<g>
				<g>
					<rect x="164.48" y="465.78" class="st28" width="70.82" height="6.03"/>
				</g>
			</g>
		</g>
	</g>
	<g>
		<g>
			<g>
				<g>
					<rect x="256.41" y="409.08" class="st25" width="59.65" height="56.7"/>
				</g>
			</g>
		</g>
		<g>
			<g>
				<g>
					<polygon class="st26" points="303.52,409.08 256.41,433.26 256.41,458.3 316.06,430.23 316.06,409.08 303.52,409.08 					"/>
				</g>
			</g>
		</g>
		<g>
			<g>
				<g>
					<polygon class="st26" points="256.41,461.46 316.06,433.69 316.06,438.72 256.41,465.78 					"/>
				</g>
			</g>
		</g>
		<g>
			<g>
				<g>
					<rect x="283.44" y="409.08" class="st27" width="4.87" height="56.7"/>
				</g>
			</g>
		</g>
		<g>
			<g>
				<g>
					<rect x="256.41" y="435.27" class="st27" width="59.65" height="4.61"/>
				</g>
			</g>
		</g>
		<g>
			<g>
				<g>
					<rect x="256.41" y="403.97" class="st28" width="59.65" height="5.11"/>
				</g>
			</g>
		</g>
		<g>
			<g>
				<g>
					<rect x="251" y="403.97" class="st28" width="5.41" height="61.81"/>
				</g>
			</g>
		</g>
		<g>
			<g>
				<g>
					<rect x="316.06" y="403.97" class="st28" width="5.76" height="61.81"/>
				</g>
			</g>
		</g>
		<g>
			<g>
				<g>
					<rect x="251" y="465.78" class="st28" width="70.82" height="6.03"/>
				</g>
			</g>
		</g>
	</g>
	<g>
		<g>
			<g>
				<g>
					<rect x="169.89" y="497.67" class="st25" width="59.65" height="56.7"/>
				</g>
			</g>
		</g>
		<g>
			<g>
				<g>
					<polygon class="st26" points="217,497.67 169.89,521.85 169.89,546.89 229.55,518.83 229.55,497.67 217,497.67 					"/>
				</g>
			</g>
		</g>
		<g>
			<g>
				<g>
					<polygon class="st26" points="169.89,550.05 229.55,522.28 229.55,527.32 169.89,554.37 					"/>
				</g>
			</g>
		</g>
		<g>
			<g>
				<g>
					<rect x="196.92" y="497.67" class="st27" width="4.87" height="56.7"/>
				</g>
			</g>
		</g>
		<g>
			<g>
				<g>
					<rect x="169.89" y="523.86" class="st27" width="59.65" height="4.61"/>
				</g>
			</g>
		</g>
		<g>
			<g>
				<g>
					<rect x="169.89" y="492.56" class="st28" width="59.65" height="5.11"/>
				</g>
			</g>
		</g>
		<g>
			<g>
				<g>
					<rect x="164.48" y="492.56" class="st28" width="5.41" height="61.81"/>
				</g>
			</g>
		</g>
		<g>
			<g>
				<g>
					<rect x="229.55" y="492.56" class="st28" width="5.76" height="61.81"/>
				</g>
			</g>
		</g>
		<g>
			<g>
				<g>
					<rect x="164.48" y="554.37" class="st28" width="70.82" height="6.03"/>
				</g>
			</g>
		</g>
	</g>
	<g>
		<g>
			<g>
				<g>
					<rect x="256.41" y="497.67" class="st25" width="59.65" height="56.7"/>
				</g>
			</g>
		</g>
		<g>
			<g>
				<g>
					<polygon class="st26" points="303.52,497.67 256.41,521.85 256.41,546.89 316.06,518.83 316.06,497.67 303.52,497.67 					"/>
				</g>
			</g>
		</g>
		<g>
			<g>
				<g>
					<polygon class="st26" points="256.41,550.05 316.06,522.28 316.06,527.32 256.41,554.37 					"/>
				</g>
			</g>
		</g>
		<g>
			<g>
				<g>
					<rect x="283.44" y="497.67" class="st27" width="4.87" height="56.7"/>
				</g>
			</g>
		</g>
		<g>
			<g>
				<g>
					<rect x="256.41" y="523.86" class="st27" width="59.65" height="4.61"/>
				</g>
			</g>
		</g>
		<g>
			<g>
				<g>
					<rect x="256.41" y="492.56" class="st28" width="59.65" height="5.11"/>
				</g>
			</g>
		</g>
		<g>
			<g>
				<g>
					<rect x="251" y="492.56" class="st28" width="5.41" height="61.81"/>
				</g>
			</g>
		</g>
		<g>
			<g>
				<g>
					<rect x="316.06" y="492.56" class="st28" width="5.76" height="61.81"/>
				</g>
			</g>
		</g>
		<g>
			<g>
				<g>
					<rect x="251" y="554.37" class="st28" width="70.82" height="6.03"/>
				</g>
			</g>
		</g>
	</g>
	<g>
		<g>
			<g>
				<g>
					<rect x="687.78" y="325.05" class="st25" width="59.65" height="56.7"/>
				</g>
			</g>
		</g>
		<g>
			<g>
				<g>
					<polygon class="st26" points="734.89,325.05 687.78,349.23 687.78,374.27 747.43,346.21 747.43,325.05 734.89,325.05 					"/>
				</g>
			</g>
		</g>
		<g>
			<g>
				<g>
					<polygon class="st26" points="687.78,377.44 747.43,349.66 747.43,354.7 687.78,381.75 					"/>
				</g>
			</g>
		</g>
		<g>
			<g>
				<g>
					<rect x="714.8" y="325.05" class="st27" width="4.87" height="56.7"/>
				</g>
			</g>
		</g>
		<g>
			<g>
				<g>
					<rect x="687.78" y="351.24" class="st27" width="59.65" height="4.61"/>
				</g>
			</g>
		</g>
		<g>
			<g>
				<g>
					<rect x="687.78" y="319.95" class="st28" width="59.65" height="5.11"/>
				</g>
			</g>
		</g>
		<g>
			<g>
				<g>
					<rect x="682.37" y="319.95" class="st28" width="5.41" height="61.81"/>
				</g>
			</g>
		</g>
		<g>
			<g>
				<g>
					<rect x="747.43" y="319.95" class="st28" width="5.76" height="61.81"/>
				</g>
			</g>
		</g>
		<g>
			<g>
				<g>
					<rect x="682.37" y="381.75" class="st28" width="70.82" height="6.03"/>
				</g>
			</g>
		</g>
	</g>
	<g>
		<g>
			<g>
				<g>
					<rect x="774.3" y="325.05" class="st25" width="59.65" height="56.7"/>
				</g>
			</g>
		</g>
		<g>
			<g>
				<g>
					<polygon class="st26" points="821.41,325.05 774.3,349.23 774.3,374.27 833.95,346.21 833.95,325.05 821.41,325.05 					"/>
				</g>
			</g>
		</g>
		<g>
			<g>
				<g>
					<polygon class="st26" points="774.3,377.44 833.95,349.66 833.95,354.7 774.3,381.75 					"/>
				</g>
			</g>
		</g>
		<g>
			<g>
				<g>
					<rect x="801.32" y="325.05" class="st27" width="4.87" height="56.7"/>
				</g>
			</g>
		</g>
		<g>
			<g>
				<g>
					<rect x="774.3" y="351.24" class="st27" width="59.65" height="4.61"/>
				</g>
			</g>
		</g>
		<g>
			<g>
				<g>
					<rect x="774.3" y="319.95" class="st28" width="59.65" height="5.11"/>
				</g>
			</g>
		</g>
		<g>
			<g>
				<g>
					<rect x="768.89" y="319.95" class="st28" width="5.41" height="61.81"/>
				</g>
			</g>
		</g>
		<g>
			<g>
				<g>
					<rect x="833.95" y="319.95" class="st28" width="5.76" height="61.81"/>
				</g>
			</g>
		</g>
		<g>
			<g>
				<g>
					<rect x="768.89" y="381.75" class="st28" width="70.82" height="6.03"/>
				</g>
			</g>
		</g>
	</g>
	<g>
		<g>
			<g>
				<g>
					<rect x="687.78" y="409.21" class="st25" width="59.65" height="56.7"/>
				</g>
			</g>
		</g>
		<g>
			<g>
				<g>
					<polygon class="st26" points="734.89,409.21 687.78,433.39 687.78,458.43 747.43,430.37 747.43,409.21 734.89,409.21 					"/>
				</g>
			</g>
		</g>
		<g>
			<g>
				<g>
					<polygon class="st26" points="687.78,461.6 747.43,433.82 747.43,438.86 687.78,465.92 					"/>
				</g>
			</g>
		</g>
		<g>
			<g>
				<g>
					<rect x="714.8" y="409.21" class="st27" width="4.87" height="56.7"/>
				</g>
			</g>
		</g>
		<g>
			<g>
				<g>
					<rect x="687.78" y="435.41" class="st27" width="59.65" height="4.61"/>
				</g>
			</g>
		</g>
		<g>
			<g>
				<g>
					<rect x="687.78" y="404.11" class="st28" width="59.65" height="5.11"/>
				</g>
			</g>
		</g>
		<g>
			<g>
				<g>
					<rect x="682.37" y="404.11" class="st28" width="5.41" height="61.81"/>
				</g>
			</g>
		</g>
		<g>
			<g>
				<g>
					<rect x="747.43" y="404.11" class="st28" width="5.76" height="61.81"/>
				</g>
			</g>
		</g>
		<g>
			<g>
				<g>
					<rect x="682.37" y="465.92" class="st28" width="70.82" height="6.03"/>
				</g>
			</g>
		</g>
	</g>
	<g>
		<g>
			<g>
				<g>
					<rect x="774.3" y="409.21" class="st25" width="59.65" height="56.7"/>
				</g>
			</g>
		</g>
		<g>
			<g>
				<g>
					<polygon class="st26" points="821.41,409.21 774.3,433.39 774.3,458.43 833.95,430.37 833.95,409.21 821.41,409.21 					"/>
				</g>
			</g>
		</g>
		<g>
			<g>
				<g>
					<polygon class="st26" points="774.3,461.6 833.95,433.82 833.95,438.86 774.3,465.92 					"/>
				</g>
			</g>
		</g>
		<g>
			<g>
				<g>
					<rect x="801.32" y="409.21" class="st27" width="4.87" height="56.7"/>
				</g>
			</g>
		</g>
		<g>
			<g>
				<g>
					<rect x="774.3" y="435.41" class="st27" width="59.65" height="4.61"/>
				</g>
			</g>
		</g>
		<g>
			<g>
				<g>
					<rect x="774.3" y="404.11" class="st28" width="59.65" height="5.11"/>
				</g>
			</g>
		</g>
		<g>
			<g>
				<g>
					<rect x="768.89" y="404.11" class="st28" width="5.41" height="61.81"/>
				</g>
			</g>
		</g>
		<g>
			<g>
				<g>
					<rect x="833.95" y="404.11" class="st28" width="5.76" height="61.81"/>
				</g>
			</g>
		</g>
		<g>
			<g>
				<g>
					<rect x="768.89" y="465.92" class="st28" width="70.82" height="6.03"/>
				</g>
			</g>
		</g>
	</g>
	<g>
		<g>
			<g>
				<g>
					<rect x="687.78" y="497.81" class="st25" width="59.65" height="56.7"/>
				</g>
			</g>
		</g>
		<g>
			<g>
				<g>
					<polygon class="st26" points="734.89,497.81 687.78,521.98 687.78,547.02 747.43,518.96 747.43,497.81 734.89,497.81 					"/>
				</g>
			</g>
		</g>
		<g>
			<g>
				<g>
					<polygon class="st26" points="687.78,550.19 747.43,522.42 747.43,527.45 687.78,554.51 					"/>
				</g>
			</g>
		</g>
		<g>
			<g>
				<g>
					<rect x="714.8" y="497.81" class="st27" width="4.87" height="56.7"/>
				</g>
			</g>
		</g>
		<g>
			<g>
				<g>
					<rect x="687.78" y="524" class="st27" width="59.65" height="4.61"/>
				</g>
			</g>
		</g>
		<g>
			<g>
				<g>
					<rect x="687.78" y="492.7" class="st28" width="59.65" height="5.11"/>
				</g>
			</g>
		</g>
		<g>
			<g>
				<g>
					<rect x="682.37" y="492.7" class="st28" width="5.41" height="61.81"/>
				</g>
			</g>
		</g>
		<g>
			<g>
				<g>
					<rect x="747.43" y="492.7" class="st28" width="5.76" height="61.81"/>
				</g>
			</g>
		</g>
		<g>
			<g>
				<g>
					<rect x="682.37" y="554.51" class="st28" width="70.82" height="6.03"/>
				</g>
			</g>
		</g>
	</g>
	<g>
		<g>
			<g>
				<g>
					<rect x="774.3" y="497.81" class="st25" width="59.65" height="56.7"/>
				</g>
			</g>
		</g>
		<g>
			<g>
				<g>
					<polygon class="st26" points="821.41,497.81 774.3,521.98 774.3,547.02 833.95,518.96 833.95,497.81 821.41,497.81 					"/>
				</g>
			</g>
		</g>
		<g>
			<g>
				<g>
					<polygon class="st26" points="774.3,550.19 833.95,522.42 833.95,527.45 774.3,554.51 					"/>
				</g>
			</g>
		</g>
		<g>
			<g>
				<g>
					<rect x="801.32" y="497.81" class="st27" width="4.87" height="56.7"/>
				</g>
			</g>
		</g>
		<g>
			<g>
				<g>
					<rect x="774.3" y="524" class="st27" width="59.65" height="4.61"/>
				</g>
			</g>
		</g>
		<g>
			<g>
				<g>
					<rect x="774.3" y="492.7" class="st28" width="59.65" height="5.11"/>
				</g>
			</g>
		</g>
		<g>
			<g>
				<g>
					<rect x="768.89" y="492.7" class="st28" width="5.41" height="61.81"/>
				</g>
			</g>
		</g>
		<g>
			<g>
				<g>
					<rect x="833.95" y="492.7" class="st28" width="5.76" height="61.81"/>
				</g>
			</g>
		</g>
		<g>
			<g>
				<g>
					<rect x="768.89" y="554.51" class="st28" width="70.82" height="6.03"/>
				</g>
			</g>
		</g>
	</g>
	<rect x="397.72" y="606.69" class="st29" width="207.64" height="4.36"/>
	<rect x="409.02" y="470.96" class="st30" width="11.21" height="42.01"/>
	<rect x="409.02" y="519.6" class="st30" width="11.21" height="42.01"/>
	<rect x="453.24" y="470.96" class="st30" width="11.21" height="42.01"/>
	<rect x="453.24" y="519.6" class="st30" width="11.21" height="42.01"/>
	<rect x="409.02" y="568.23" class="st30" width="11.21" height="39.29"/>
	<rect x="453.24" y="568.23" class="st30" width="11.21" height="39.29"/>
	<rect x="560.09" y="568.23" class="st30" width="11.21" height="39.29"/>
	<rect x="515.88" y="568.23" class="st30" width="11.21" height="39.29"/>
	<rect x="560.09" y="470.96" class="st30" width="11.21" height="42.01"/>
	<rect x="560.09" y="519.6" class="st30" width="11.21" height="42.01"/>
	<rect x="515.88" y="470.96" class="st30" width="11.21" height="42.01"/>
	<rect x="515.88" y="519.6" class="st30" width="11.21" height="42.01"/>
	<g>
		<g>
			<g>
				<path class="st3" d="M108.65,613.16c0,0,47.82,19.35,51.8,64.33h9.11C169.56,677.49,165.01,625.12,108.65,613.16z"/>
			</g>
		</g>
		<g>
			<g>
				<path class="st31" d="M175.85,677.49c0,0-3.47-39.86-46.36-48.96c0,0,36.39,14.73,39.43,48.96H175.85z"/>
			</g>
		</g>
		<g>
			<g>
				<path class="st3" d="M227.76,612.88c0,0-47.82,19.35-51.8,64.33h-9.11C166.85,677.2,171.4,624.83,227.76,612.88z"/>
			</g>
		</g>
		<g>
			<g>
				<path class="st31" d="M171.02,680.31c0,0-18.03-35.72,13.66-66.02c0,0-23.2,31.68-7.76,62.38L171.02,680.31z"/>
			</g>
		</g>
		<g>
			<g>
				<path class="st32" d="M176.23,592.04c0,0-25.38,44.91-0.5,82.59l-7.13,5.67C168.6,680.31,139.57,636.48,176.23,592.04z"/>
			</g>
		</g>
		<g>
			<g>
				<path class="st2" d="M204.29,680.9c0,7.23-15.16,13.09-33.87,13.09s-33.87-5.86-33.87-13.09c0-7.23,15.16-13.09,33.87-13.09
					S204.29,673.67,204.29,680.9z"/>
			</g>
		</g>
	</g>
	<g>
		<g>
			<g>
				<path class="st3" d="M827.49,600.37c0,0,47.82,19.35,51.8,64.33h9.11C888.4,664.7,883.84,612.33,827.49,600.37z"/>
			</g>
		</g>
		<g>
			<g>
				<path class="st31" d="M894.69,664.7c0,0-3.47-39.86-46.36-48.96c0,0,36.39,14.73,39.43,48.96H894.69z"/>
			</g>
		</g>
		<g>
			<g>
				<path class="st3" d="M946.59,600.09c0,0-47.82,19.35-51.8,64.33h-9.11C885.68,664.41,890.24,612.04,946.59,600.09z"/>
			</g>
		</g>
		<g>
			<g>
				<path class="st31" d="M889.86,667.52c0,0-18.03-35.72,13.66-66.02c0,0-23.2,31.68-7.76,62.38L889.86,667.52z"/>
			</g>
		</g>
		<g>
			<g>
				<path class="st32" d="M895.07,579.25c0,0-25.38,44.91-0.5,82.59l-7.13,5.67C887.44,667.52,858.4,623.69,895.07,579.25z"/>
			</g>
		</g>
		<g>
			<g>
				<path class="st2" d="M923.12,668.11c0,7.23-15.16,13.09-33.87,13.09c-18.71,0-33.87-5.86-33.87-13.09
					c0-7.23,15.16-13.09,33.87-13.09C907.96,655.02,923.12,660.88,923.12,668.11z"/>
			</g>
		</g>
	</g>
	<g>
		<g>
			<g>
				<rect x="325.15" y="272.3" class="st19" width="44.33" height="9.07"/>
			</g>
		</g>
		<g>
			<g>
				<g>
					<rect x="334.63" y="281.37" class="st19" width="25.37" height="346.31"/>
				</g>
			</g>
		</g>
		<g>
			<g>
				<rect x="347.32" y="281.37" class="st15" width="13.84" height="346.31"/>
			</g>
		</g>
		<g>
			<g>
				<rect x="325.15" y="618.68" class="st19" width="44.33" height="9.07"/>
			</g>
		</g>
	</g>
	<g>
		<g>
			<g>
				<rect x="628.38" y="272.15" class="st19" width="44.33" height="9.07"/>
			</g>
		</g>
		<g>
			<g>
				<g>
					<rect x="637.86" y="281.21" class="st19" width="25.37" height="346.31"/>
				</g>
			</g>
		</g>
		<g>
			<g>
				<rect x="650.54" y="281.21" class="st15" width="13.84" height="346.31"/>
			</g>
		</g>
		<g>
			<g>
				<rect x="628.38" y="618.53" class="st19" width="44.33" height="9.07"/>
			</g>
		</g>
	</g>
	<g>
		<g>
			<g>
				<path class="st3" d="M647.07,613.45c0,0,47.82,19.35,51.8,64.33h9.11C707.98,677.77,703.43,625.4,647.07,613.45z"/>
			</g>
		</g>
		<g>
			<g>
				<path class="st31" d="M714.27,677.77c0,0-3.47-39.86-46.36-48.96c0,0,36.39,14.73,39.43,48.96H714.27z"/>
			</g>
		</g>
		<g>
			<g>
				<path class="st3" d="M766.18,613.16c0,0-47.82,19.35-51.8,64.33h-9.11C705.27,677.49,709.82,625.12,766.18,613.16z"/>
			</g>
		</g>
		<g>
			<g>
				<path class="st31" d="M709.44,680.59c0,0-18.03-35.72,13.66-66.02c0,0-23.2,31.68-7.76,62.38L709.44,680.59z"/>
			</g>
		</g>
		<g>
			<g>
				<path class="st32" d="M714.65,592.33c0,0-25.38,44.91-0.5,82.59l-7.13,5.67C707.02,680.59,677.98,636.77,714.65,592.33z"/>
			</g>
		</g>
		<g>
			<g>
				<path class="st2" d="M742.71,681.19c0,7.23-15.16,13.09-33.87,13.09s-33.87-5.86-33.87-13.09c0-7.23,15.16-13.09,33.87-13.09
					S742.71,673.96,742.71,681.19z"/>
			</g>
		</g>
	</g>
	<polygon class="st33" points="664.39,281.21 777.8,628.82 663.23,627.43 	"/>
	<polygon class="st33" points="361.47,280.57 474.89,628.17 360.32,626.79 	"/>
	<g>
		<g>
			<g>
				<rect x="369.76" y="669.22" class="st18" width="44.92" height="6.41"/>
			</g>
		</g>
		<g>
			<g>
				<polygon class="st19" points="393.72,478.5 387.73,479.4 381.49,435.16 399.08,435.16 				"/>
			</g>
		</g>
		<g>
			<g>
				<path class="st18" d="M411.06,434.03c0,0.62-0.59,1.12-1.31,1.12h-38.93c-0.72,0-1.31-0.5-1.31-1.12l0,0
					c0-0.62,0.59-1.12,1.31-1.12h38.93C410.48,432.91,411.06,433.42,411.06,434.03L411.06,434.03z"/>
			</g>
		</g>
		<g>
			<g>
				<path class="st18" d="M390.28,419.29c-8.79,0-15.91,6.1-15.91,13.62h31.82C406.2,425.39,399.07,419.29,390.28,419.29z"/>
			</g>
		</g>
		<g>
			<g>
				<path class="st18" d="M402.45,477.94c0,0.62-0.65,1.12-1.45,1.12h-21.07c-0.8,0-1.45-0.5-1.45-1.12l0,0
					c0-0.62,0.65-1.12,1.45-1.12h21.07C401.8,476.82,402.45,477.32,402.45,477.94L402.45,477.94z"/>
			</g>
		</g>
		<g>
			<g>
				<polygon class="st18" points="374.37,435.16 382.8,476.82 387,476.82 378.87,435.16 				"/>
			</g>
		</g>
		<g>
			<g>
				<polygon class="st18" points="406.35,435.16 397.92,476.82 393.72,476.82 401.85,435.16 				"/>
			</g>
		</g>
		<g>
			<g>
				<rect x="387.73" y="477.94" class="st18" width="5.99" height="194.95"/>
			</g>
		</g>
	</g>
</g>
</svg>
