<?xml version="1.0" encoding="utf-8"?>
<!-- Generator: Adobe Illustrator 24.0.1, SVG Export Plug-In . SVG Version: 6.00 Build 0)  -->
<svg version="1.1" id="Capa_1" xmlns="http://www.w3.org/2000/svg" xmlns:xlink="http://www.w3.org/1999/xlink" x="0px" y="0px"
	 viewBox="0 0 1000 249" style="enable-background:new 0 0 1000 249;" xml:space="preserve">
<style type="text/css">
	.st0{fill:#FFFFFF;}
</style>
<path class="st0" d="M999.5-0.5V249H-0.5V98.278V-0.5C1.31,33.868,225.98,139.578,501,139.578S997.69,33.868,999.5-0.5L999.5-0.5z"
	/>
<g>
	<g>
		<circle class="st0" cx="48" cy="13" r="10"/>
	</g>
	<g>
		<circle class="st0" cx="90" cy="39" r="10"/>
	</g>
	<g>
		<circle class="st0" cx="131" cy="55" r="10"/>
	</g>
	<g>
		<circle class="st0" cx="175" cy="72" r="10"/>
	</g>
	<g>
		<circle class="st0" cx="216" cy="83" r="10"/>
	</g>
	<g>
		<circle class="st0" cx="262" cy="94" r="10"/>
	</g>
	<g>
		<circle class="st0" cx="312" cy="105" r="10"/>
	</g>
	<g>
		<circle class="st0" cx="357" cy="113" r="10"/>
	</g>
	<g>
		<circle class="st0" cx="415" cy="118" r="10"/>
	</g>
	<g>
		<circle class="st0" cx="471" cy="123" r="10"/>
	</g>
</g>
<g>
	<g>
		<circle class="st0" cx="956" cy="13" r="10"/>
	</g>
	<g>
		<circle class="st0" cx="914" cy="39" r="10"/>
	</g>
	<g>
		<circle class="st0" cx="873" cy="55" r="10"/>
	</g>
	<g>
		<circle class="st0" cx="829" cy="72" r="10"/>
	</g>
	<g>
		<circle class="st0" cx="788" cy="83" r="10"/>
	</g>
	<g>
		<circle class="st0" cx="742" cy="94" r="10"/>
	</g>
	<g>
		<circle class="st0" cx="692" cy="105" r="10"/>
	</g>
	<g>
		<circle class="st0" cx="647" cy="113" r="10"/>
	</g>
	<g>
		<circle class="st0" cx="589" cy="118" r="10"/>
	</g>
	<g>
		<circle class="st0" cx="533" cy="123" r="10"/>
	</g>
</g>
</svg>
