<?xml version="1.0" encoding="utf-8"?>
<!-- Generator: Adobe Illustrator 24.0.1, SVG Export Plug-In . SVG Version: 6.00 Build 0)  -->
<svg version="1.1" xmlns="http://www.w3.org/2000/svg" xmlns:xlink="http://www.w3.org/1999/xlink" x="0px" y="0px"
	 viewBox="0 0 500 500" style="enable-background:new 0 0 500 500;" xml:space="preserve">
<style type="text/css">
	.st0{stroke:#000000;stroke-miterlimit:10;}
	.st1{fill:#4D4D4D;stroke:#000000;stroke-miterlimit:10;}
	.st2{fill:#333333;stroke:#FFFFFF;stroke-miterlimit:10;}
	.st3{fill:#FFFFFF;stroke:#000000;stroke-miterlimit:10;}
	.st4{fill:#FFFFFF;stroke:#000000;stroke-linejoin:round;stroke-miterlimit:10;}
	.st5{fill:#C7B299;}
</style>
<g id="Capa_3">
	<polygon class="st0" points="227.45,76.15 227.45,415.55 313.63,415.55 313.63,436.76 206.24,436.76 206.24,54.94 313.63,54.94 
		313.63,76.15 	"/>
	<rect x="227.45" y="76.15" class="st1" width="86.18" height="339.4"/>
</g>
<g id="Capa_4">
	<g>
		<circle class="st2" cx="120.06" cy="130.51" r="33.14"/>
		<path class="st2" d="M97.52,171.6l-59.66,42.42L14,282.97c0,0,0,13.26,10.61,15.91s21.21-6.63,21.21-6.63l23.86-57.01l10.61-9.28
			l-14.58,72.92l42.42,49.05v71.59c0,0,9.28,7.95,18.56,6.63s15.91-11.93,15.91-11.93v-82.2l-27.84-33.14l19.89-110.04
			c0,0,0-14.58-14.58-17.24C105.48,168.95,97.52,171.6,97.52,171.6z"/>
		<path class="st2" d="M142.6,196.79l57.01,66.29c0,0,0,18.56-7.95,25.19c-7.95,6.63-15.91,0-15.91,0l-39.77-43.75L142.6,196.79z"/>
		<path class="st2" d="M65.71,312.14l-31.82,92.8c0,0-2.65,15.91,7.95,21.21c10.61,5.3,23.86-10.61,23.86-10.61l26.52-72.92
			L65.71,312.14z"/>
	</g>
</g>
<g id="Capa_2">
	<polygon class="st0" points="267.22,39.03 482,82.78 482,412.9 267.22,457.97 	"/>
	<circle class="st3" cx="297.72" cy="251.15" r="15.91"/>
</g>
<g id="Capa_5">
	<polygon class="st4" points="267.22,39.03 263.76,48.31 263.76,440.74 267.22,457.97 	"/>
</g>
<g id="Capa_6">
	<g>
		<path class="st5" d="M461.5,395.5c-11.96,2.87-23.93,5.63-35.92,8.37l-35.97,8.11l-36.02,7.89l-18.03,3.86l-18.05,3.76l17.95-4.24
			l17.97-4.14l35.98-8.11l36.03-7.89C437.43,400.54,449.46,397.97,461.5,395.5z"/>
	</g>
	<g>
		<polygon class="st5" points="313.5,65.5 332.05,69.26 350.58,73.13 387.61,81.01 424.58,89.12 443.05,93.26 461.5,97.5 
			442.95,93.74 424.42,89.88 387.39,81.99 350.42,73.87 331.95,69.74 		"/>
	</g>
</g>
</svg>
