<?xml version="1.0" encoding="utf-8"?>
<!-- Generator: Adobe Illustrator 24.0.1, SVG Export Plug-In . SVG Version: 6.00 Build 0)  -->
<svg version="1.1" xmlns="http://www.w3.org/2000/svg" xmlns:xlink="http://www.w3.org/1999/xlink" x="0px" y="0px"
	 viewBox="0 0 500 500" style="enable-background:new 0 0 500 500;" xml:space="preserve">
<style type="text/css">
	.st0{stroke:#000000;stroke-miterlimit:10;}
	.st1{fill:#4D4D4D;stroke:#000000;stroke-miterlimit:10;}
	.st2{fill:#333333;stroke:#FFFFFF;stroke-miterlimit:10;}
	.st3{fill:#FFFFFF;stroke:#000000;stroke-miterlimit:10;}
	.st4{fill:#C7B299;}
	.st5{fill:#FFFFFF;stroke:#000000;stroke-linejoin:round;stroke-miterlimit:10;}
</style>
<g id="Capa_3">
	<polygon class="st0" points="274.79,72.15 274.79,411.55 188.61,411.55 188.61,432.76 296,432.76 296,50.94 188.61,50.94 
		188.61,72.15 	"/>
	<rect x="188.61" y="72.15" class="st1" width="86.18" height="339.4"/>
</g>
<g id="Capa_4">
	<g>
		<circle class="st2" cx="411.06" cy="146.51" r="33.14"/>
		<path class="st2" d="M388.52,187.6l-59.66,42.42L305,298.97c0,0,0,13.26,10.61,15.91s21.21-6.63,21.21-6.63l23.86-57.01
			l10.61-9.28l-14.58,72.92l42.42,49.05v71.59c0,0,9.28,7.95,18.56,6.63s15.91-11.93,15.91-11.93v-82.2l-27.84-33.14l19.89-110.04
			c0,0,0-14.58-14.58-17.24C396.48,184.95,388.52,187.6,388.52,187.6z"/>
		<path class="st2" d="M433.6,212.79l57.01,66.29c0,0,0,18.56-7.95,25.19c-7.95,6.63-15.91,0-15.91,0l-39.77-43.75L433.6,212.79z"/>
		<path class="st2" d="M356.71,328.14l-31.82,92.8c0,0-2.65,15.91,7.95,21.21c10.61,5.3,23.86-10.61,23.86-10.61l26.52-72.92
			L356.71,328.14z"/>
	</g>
</g>
<g id="Capa_2">
	<polygon class="st0" points="235.01,35.03 20.24,78.78 20.24,408.9 235.01,453.97 	"/>
	<circle class="st3" cx="204.52" cy="247.15" r="15.91"/>
	<g>
		<path class="st4" d="M43.33,392.08c12.04,2.47,24.07,5.04,36.08,7.63l36.03,7.89l35.98,8.11l17.97,4.14l17.95,4.24l-18.05-3.76
			l-18.03-3.86l-36.02-7.89l-35.97-8.11C67.27,397.71,55.29,394.95,43.33,392.08z"/>
	</g>
	<g>
		<polygon class="st4" points="191.33,62.08 172.88,66.32 154.41,70.46 117.44,78.57 80.41,86.46 61.88,90.32 43.33,94.08 
			61.78,89.84 80.25,85.71 117.23,77.6 154.25,69.71 172.78,65.85 		"/>
	</g>
</g>
<g id="Capa_5">
	<polygon class="st5" points="235.01,35.03 238.48,44.31 238.48,436.74 235.01,453.97 	"/>
</g>
<g id="Capa_6">
</g>
</svg>
