<?xml version="1.0" encoding="utf-8"?>
<!-- Generator: Adobe Illustrator 24.0.1, SVG Export Plug-In . SVG Version: 6.00 Build 0)  -->
<svg version="1.1" id="Capa_1" xmlns="http://www.w3.org/2000/svg" xmlns:xlink="http://www.w3.org/1999/xlink" x="0px" y="0px"
	 viewBox="0 0 200 200" style="enable-background:new 0 0 200 200;" xml:space="preserve">
<style type="text/css">
	.st0{fill:#6158A1;}
	.st1{fill:#F7BC93;}
	.st2{fill:#87571F;}
	.st3{fill:#EAB38C;}
	.st4{fill:none;stroke:#D3E8F8;stroke-width:2;stroke-miterlimit:10;}
</style>
<g>
	<g>
		<g>
			<path class="st0" d="M27.83,200h48.23c4.27-15.57,6.45-26.84,6.89-30.98c0,0,0.98-22.98-22.49-21.01c0,0-26.79-0.52-31.25,30.79
				C29.21,178.8,29.43,186.48,27.83,200z"/>
		</g>
		<g>
			<rect x="85.69" y="107.91" class="st1" width="26.18" height="35.22"/>
		</g>
		<path class="st1" d="M158.04,158.36c-7.28-11.33-18.73-14.39-18.73-14.39l-27.44-10.22H85.69l-27.42,10.22
			c0,0-11.45,3.07-18.74,14.39H158.04z"/>
		<path class="st0" d="M151.4,200l-0.08-2.84l12.1-24.16c-3.53-23.53-24.11-29.02-24.11-29.02l-20.93-7.79l-23.88,8.14l-15.94-7.91
			l-20.3,7.56c0,0-20.58,5.5-24.11,29.02L43.95,200H151.4z"/>
		<g>
			<path class="st0" d="M122.88,200H175c-6.81-22.22-13.33-37.6-15.9-42.23c0,0-12.42-19.33-30.44-4.1c0,0-22.17,15.11-7.81,43.27
				C120.85,196.94,121.59,197.98,122.88,200z"/>
		</g>
		<g>
			<path class="st2" d="M54.71,57.86c-0.61-4.79-1.12-6.45-1.24-17.81c-0.06-5.36,0.99-13.44,7.62-14.13
				c9.18-0.95,12.02,15,12.56,21.9c0.75,9.52-1.6,19.8-3.43,29.12c-0.66,3.37-0.59,10.09-4.36,11.71c-3.23,1.4-2.68,1.91-4.32-0.53
				C57.57,82.27,55.56,64.65,54.71,57.86z"/>
			<path class="st1" d="M59.68,103.01c3.64,14.29,10.04,18.22,10.04,18.22l8.58,1.69c4.94-0.64,13.46-2.66,13.46-2.66
				c19.6-6.69,26.11-6.29,30.15-16.53c0.13-0.31,13.63-53.23,13.63-53.23c2.51-27.52-26.15-33.24-30.48-33.96
				c-4.28-0.99-31.57-8.61-39.63,17.79C65.42,34.34,53.51,64.94,59.68,103.01z"/>
			<path class="st3" d="M115.65,108.36c-7.89,6.12-21.23,10.14-31.06,11.18c-17.43,1.85-21.36-11.05-24.36-24.72
				c0.27,3.14,0.62,6.34,1.14,9.62c3.39,13.33,9.36,17,9.36,17l8,1.57c4.61-0.59,12.56-2.47,12.56-2.47
				c18.28-6.25,24.36-5.87,28.13-15.42c0.02-0.04,0.26-0.98,0.67-2.55C118.89,104.78,117.52,106.9,115.65,108.36z"/>
			<path class="st2" d="M98.68,7.47c8.15-1.09,17.62-3.17,25.67-0.53c10.72,3.53,10.68,15.8,15.53,24.18
				c5.16,8.92,8.41,16.47,7.97,26.18c-0.34,7.52-3.26,3.83-4.35,11.54c-1.2,8.57-2.83,9.23-6.88,16.4l-14.71,18.49
				c2.36-9.38,0.57-11.11,2.72-18.31c2.58-8.65,1.83-20.22-2.01-29.1c-3.39-7.85-5.75-7.69-12.97-9.59
				c-9.28-2.44-17.29-3.35-26.94-3.51c-8.81-0.14-18.4-0.4-25.55-6.31c-6.59-5.45-9.02-17.52-6.49-25.82c0,0,4.04-9.15,15.39-6.67
				C73.01,5.96,80.08,8,87.23,8.24C91.19,8.36,94.97,7.97,98.68,7.47z"/>
			<path class="st1" d="M122.82,80.19c0,0,4.84-10.61,12.47-4.33c0,0,3.46,2.72-0.81,9.82c0,0-6.2,10.21-13.63,4.56L122.82,80.19z"
				/>
			<path class="st2" d="M123.58,55.45c0,0-0.04,18.99-3.51,29.06l3.69,0.74c0,0,1.93-13.02,8.6-13.18L123.58,55.45z"/>
		</g>
	</g>
</g>
<line class="st4" x1="0" y1="200" x2="200" y2="200"/>
</svg>
