<?xml version="1.0" encoding="utf-8"?>
<!-- Generator: Adobe Illustrator 24.0.1, SVG Export Plug-In . SVG Version: 6.00 Build 0)  -->
<svg version="1.1" xmlns="http://www.w3.org/2000/svg" xmlns:xlink="http://www.w3.org/1999/xlink" x="0px" y="0px"
	 viewBox="0 0 200 200" style="enable-background:new 0 0 200 200;" xml:space="preserve">
<style type="text/css">
	.st0{display:none;}
	.st1{display:inline;}
	.st2{fill:#FFFFFF;}
</style>
<g id="Fondo" class="st0">
	<rect class="st1" width="200" height="200"/>
</g>
<g id="Flecha">
	<g>
		<g>
			<path class="st2" d="M180.48,112.81c0.28-0.46,0.27-1.1,0.34-1.63c0.07-0.53,0.14-1.07,0.22-1.6c0.15-1.13,0.29-2.27,0.41-3.41
				c0.12-1.11,0.23-2.21,0.35-3.32c0.01-0.05,0.01-0.11,0.02-0.17c0.26,0.19,0.52,0.38,0.79,0.56l0.01-0.11
				c1.16,0.64,1.8-1.17,0.72-2.1c-0.15-0.13-0.31-0.24-0.46-0.36c0.13-0.06,0.25-0.13,0.38-0.19c0.25-0.13,0-0.61-0.23-0.52
				c-0.23,0.09-0.46,0.2-0.69,0.29c-0.13-0.11-0.26-0.21-0.39-0.31c-0.01-0.13,0-0.26-0.01-0.4c-0.01-0.24-0.47-0.28-0.56-0.07
				c-9.72-8.16-20.06-15.42-29.9-23.38c-10.28-8.32-20.46-16.83-30.73-25.17c0-0.56,0.04-1.14-0.04-1.66
				c-0.17-0.98-1.57-1.94-1.96-0.61c-0.28,0.96-0.17,2.13-0.2,3.13c-0.02,0.95-0.04,1.91-0.06,2.86c-0.05,2.07-0.09,4.13-0.13,6.2
				c-0.06,4.17-0.22,8.34,0.07,12.49c0,0.01,0.01,0.02,0.01,0.03c-0.06-0.13-0.15-0.25-0.24-0.27c-6.49-1.66-13.31-2.19-19.91-3.19
				c-7.13-1.08-14.27-2.11-21.41-3.14c-7.13-1.03-14.26-2.05-21.4-3.08c-7.05-1.02-14.24-2.64-21.35-2.9
				c-0.26-0.01-0.38,0.13-0.49,0.27c0-0.27,0.01-0.53,0.01-0.8c0.1-0.09,0.2-0.19,0.3-0.28c0.2-0.18-0.2-0.36-0.36-0.24
				c-0.01,0.01-0.02,0.02-0.04,0.03c-0.18-0.3-0.59-0.53-0.64-0.08c-0.02,0.21-0.03,0.41-0.05,0.62
				c-8.98,6.48-16.85,14.41-23.75,22.93c-0.6,0.75,1.22,1.44,1.76,0.73c0.25-0.32,0.53-0.62,0.78-0.95
				c0.75,8.11,1.9,16.17,2.36,24.31c0.49,8.8,0.47,17.62-0.01,26.41c-0.01,0.25,0.11,0.45,0.29,0.62c-0.38,0.03-0.77,0.03-1.15,0.06
				c-0.2,0.02-0.11,0.25,0.04,0.27c7.73,0.96,15.79,0.7,23.58,0.88c8.44,0.19,16.88,0.38,25.32,0.57
				c14.52,0.33,29.05,0.6,43.57,0.87c-0.04,6.63,1.18,13.02,3.73,19.2c0.35,0.85,1.81,1.02,2.49,0.51
				c10.87-8.15,22.06-15.9,33.56-23.2c5.65-3.58,11.37-7.07,17.12-10.5c5.61-3.35,11.68-6.31,17.05-10
				C179.94,113.12,180.31,113.1,180.48,112.81z M34.48,63.32c6.52,1.52,13.35,1.9,19.98,2.75c7.11,0.91,14.21,1.83,21.32,2.74
				c7.1,0.91,14.2,1.84,21.31,2.7c7.01,0.84,14.18,2.3,21.24,2.39c0.2,0,0.24-0.17,0.2-0.35c0.17,0.32,0.58,0.63,0.66,0.14
				c0.62-3.98,0.76-8.01,1.01-12.03c0.13-2.04,0.24-4.08,0.35-6.13c0.06-1.15,0.18-2.38,0.24-3.6c9.83,9.25,19.99,17.98,30.31,26.45
				c9.4,7.73,18.84,16.01,28.75,22.9c-22.15,8.56-43.52,20.82-63.89,34.46c0.01-0.26,0.02-0.51,0.03-0.77
				c0.09-2.02,0.14-4.04,0.2-6.07c0.13-4.09,0.22-8.13,0.13-12.22c-0.01-0.4-0.7-0.99-0.79-0.37c-0.02,0.14-0.03,0.29-0.05,0.43
				c-13.69-1.93-27.85-1.5-41.65-1.96c-13.85-0.47-27.7-0.97-41.56-1.34c-0.56-8.18,0.33-16.64,0.65-24.84
				c0.35-8.78,0.73-17.57,0.71-26.34C33.82,62.77,34.12,63.23,34.48,63.32z"/>
			<path class="st2" d="M75.64,74.72c4.2,0.4,8.4,0.79,12.6,1.18c8.37,0.78,16.74,1.81,25.15,2.11c0.39,0.01,0.14-0.67-0.13-0.72
				c-8.22-1.4-16.56-2.12-24.85-3.05c-4.05-0.46-8.1-0.91-12.16-1.37c-4.12-0.46-8.45-1.39-12.61-1.24
				c-0.91,0.03-0.46,1.63,0.16,1.78C67.62,74.31,71.73,74.35,75.64,74.72z"/>
			<path class="st2" d="M51.21,70.18c1.71,0.05,3.41,0.1,5.12-0.08c0.29-0.03,0.16-0.52-0.05-0.57c-1.72-0.38-3.47-0.56-5.22-0.72
				c-1.75-0.16-3.54-0.49-5.31-0.39c-0.85,0.05-0.28,1.41,0.28,1.5C47.73,70.22,49.5,70.13,51.21,70.18z"/>
		</g>
		<path class="st2" d="M154.5,56.78l2.23-3.43c0.68-1.05,1.67-2.18,2.06-3.36c0.21-0.63-1.06-0.97-1.43-0.59
			c-0.9,0.91-1.48,2.23-2.14,3.32c-0.7,1.16-1.4,2.32-2.1,3.48c-1.4,2.32-2.8,4.64-4.21,6.96c-0.33,0.54,0.82,0.94,1.13,0.47
			C151.52,61.35,153.01,59.06,154.5,56.78z"/>
		<path class="st2" d="M176.89,66.59c1-0.3,0.18-1.17-0.57-1.08c-5.41,0.67-10.48,3.93-14.15,7.73c-0.3,0.32,0.34,0.63,0.6,0.4
			c2-1.76,4.23-3.26,6.66-4.42C171.8,68.09,174.36,67.34,176.89,66.59z"/>
		<path class="st2" d="M191.52,140.26c-5.65-3.92-11.31-7.84-16.96-11.76c-0.73-0.5-2.06,0.18-1.12,0.88
			c5.48,4.06,10.95,8.12,16.43,12.18C190.93,142.35,192.92,141.24,191.52,140.26z"/>
		<path class="st2" d="M161.39,154.39c-3.3-4.44-6.59-8.88-9.89-13.32c-0.36-0.48-1.79-0.24-1.34,0.4l9.49,13.44
			C160.23,155.73,162.19,155.46,161.39,154.39z"/>
	</g>
</g>
</svg>
