<?xml version="1.0" encoding="utf-8"?>
<!-- Generator: Adobe Illustrator 24.0.1, SVG Export Plug-In . SVG Version: 6.00 Build 0)  -->
<svg version="1.1" id="Capa_1" xmlns="http://www.w3.org/2000/svg" xmlns:xlink="http://www.w3.org/1999/xlink" x="0px" y="0px"
	 viewBox="0 0 200 200" style="enable-background:new 0 0 200 200;" xml:space="preserve">
<style type="text/css">
	.st0{fill:#EDB391;}
	.st1{fill:#89421A;}
	.st2{fill:#FBD0B4;}
	.st3{fill:#B56A4D;}
	.st4{fill:#FFFFFF;}
	.st5{fill:#414D54;}
	.st6{opacity:0.9;}
	.st7{fill:#C3C6CB;}
	.st8{fill:#3173C1;}
	.st9{fill:#1F5C93;}
	.st10{fill:#0F2440;}
	.st11{opacity:0.45;fill:#1F5C93;}
	.st12{fill:#0A1827;}
	.st13{fill:#8CC63F;}
	.st14{fill:#009245;}
	.st15{fill:#FCECE3;}
	.st16{fill:#A05B23;}
	.st17{fill:#EFC2A7;}
	.st18{opacity:0.48;}
	.st19{opacity:0.6;}
	.st20{fill:#FAE1D1;}
	.st21{opacity:0.6;fill:#FBD0B4;}
	.st22{fill:#FF0000;}
	.st23{fill:#97272D;}
	.st24{opacity:0.5;}
	.st25{opacity:0.55;fill:#9E272D;}
	.st26{fill:#9E272D;}
	.st27{fill:#582E18;}
	.st28{fill:#33160A;}
	.st29{fill:#FEF6EC;}
	.st30{fill:#9E5116;}
	.st31{fill:#BBAC9A;}
	.st32{fill:#984C08;}
	.st33{fill:#A0A427;}
	.st34{fill:#9A5648;}
	.st35{fill:#0A010B;}
	.st36{opacity:0.7;fill:url(#SVGID_1_);}
	.st37{opacity:0.7;fill:url(#SVGID_2_);}
	.st38{fill:#FDE4C7;}
	.st39{fill:#9E4C0B;}
	.st40{opacity:0.46;}
	.st41{fill:none;}
	.st42{opacity:0.52;}
	.st43{fill:#C46634;}
	.st44{fill:#C92337;}
	.st45{fill:#FFFAF7;}
	.st46{fill:#EF7673;}
</style>
<g>
	<g>
		<g>
			<g>
				<g>
					<path class="st0" d="M150.48,148.62l-1.14-0.59c0,0-3.5,1.38-6.57,4.62c0,0-2.12-0.08-4.62,1.34
						c-11.36-0.58-27.13,8.09-31.66,10.73c0.09,0.16,0.19,0.33,0.31,0.52c1.29,2.07,4.04,6.63,4.64,9.31c0,0,16.64-3.62,29.05-7.24
						C154.51,163.24,157.29,151.57,150.48,148.62z"/>
					<g>
						<path class="st1" d="M150.71,148.55c-2.14-1.1-3.34,0.19-5.33,1.57c-0.73,0.51-2.21,2.4-2.98,2.42
							c-0.63,0.03-1.22,0.17-1.82,0.3c-1.06,0.24-2.1,1.01-3.18,1.01c-1.34,0-2.65,0.1-3.96,0.25c-9.57,1.11-18.95,5.79-27.18,10.58
							c-0.03,0.01-0.04,0.04-0.03,0.07c1.87,3.12,4,6.26,4.95,9.81c0.04,0.13,0.3,0.1,0.39,0.08c3.99-0.87,7.96-1.8,11.93-2.75
							c6.83-1.65,14.08-3.02,20.59-5.74c4.11-1.71,8.57-5.1,9.82-9.61c0.92-3.32-0.03-6.48-3.24-8.01
							c-0.13-0.06-0.62,0.04-0.37,0.16c3.78,1.8,4.08,5.86,2.52,9.32c-2.5,5.57-8.75,8.17-14.21,9.72
							c-5.9,1.68-11.87,3.15-17.84,4.56c-2.18,0.52-4.37,1.03-6.55,1.52c-0.67,0.16-1.33,0.3-2,0.46c-1.03,0.22-0.52,0.29-0.68-0.33
							c-0.61-2.28-1.95-4.43-3.12-6.46c-0.14-0.26-1.85-2.64-1.4-2.91c0.81-0.47,1.62-0.92,2.44-1.37c4.87-2.66,9.94-4.98,15.2-6.77
							c2.9-0.99,5.89-1.73,8.91-2.15c1.54-0.22,3.02-0.16,4.58-0.21c1.19-0.03,2.6-1.09,3.88-1.29c1.65-0.25,2.42-1.54,3.8-2.58
							c0.98-0.74,2.06-1.35,3.17-1.89c0.57-0.28,0.46-0.06,1.25,0.35C150.38,148.74,150.87,148.64,150.71,148.55z"/>
					</g>
				</g>
				<g>
					<path class="st2" d="M150.48,148.62l-1.14-0.59c0,0-3.5,1.38-6.57,4.62c0,0-2.12-0.08-4.62,1.34
						c-11.36-0.58-27.13,8.09-31.66,10.73c0.09,0.16,0.19,0.33,0.31,0.52c1.29,2.07,4.04,6.63,4.64,9.31c0,0,16.64-3.62,29.05-7.24
						C154.51,163.24,157.29,151.57,150.48,148.62z"/>
					<g>
						<path class="st3" d="M150.68,148.56c-2.15-1.11-3.25,0.12-5.28,1.54c-0.61,0.42-2.31,2.44-2.78,2.44
							c-0.46-0.01-0.95,0.05-1.39,0.15c-1.15,0.26-2.71,1.21-3.88,1.16c-1.32-0.05-2.64,0.1-3.95,0.24
							c-9.55,1.11-18.92,5.78-27.12,10.55c-0.03,0.01-0.05,0.05-0.04,0.08c1.87,3.13,4.01,6.28,4.95,9.83
							c0.03,0.13,0.35,0.1,0.43,0.08c3.7-0.8,7.4-1.67,11.09-2.56c6.79-1.62,14.15-2.9,20.61-5.59c4.58-1.91,8.95-5.03,10.59-9.92
							C155,153.33,153.77,150.04,150.68,148.56c-0.12-0.06-0.63-0.01-0.38,0.11c3.78,1.8,4.09,5.85,2.54,9.31
							c-2.35,5.24-8.19,8-13.38,9.5c-9.28,2.68-18.72,4.91-28.16,6.98c0.95-0.2-2.52-6.34-2.86-6.94c-0.15-0.26-1.85-2.66-1.42-2.91
							c0.66-0.39,1.34-0.76,2.01-1.13c4.77-2.64,9.73-4.94,14.87-6.76c2.91-1.03,5.89-1.81,8.93-2.31c1.54-0.25,3.09-0.34,4.63-0.34
							c1.31,0,2.15-0.65,3.43-1.04c0.69-0.21,1.41-0.08,2.06-0.29c0.62-0.19,2.44-2.16,2.88-2.49c1.39-1.05,2.87-2.39,4.46-1.57
							C150.42,148.74,150.92,148.68,150.68,148.56z"/>
					</g>
				</g>
				<g>
					<path class="st1" d="M141.83,152.72c0,0,0.12-0.05,0.31-0.1c0.19-0.07,0.48-0.13,0.83-0.2c0.34-0.07,0.75-0.09,1.18-0.13
						c0.22,0,0.45-0.01,0.68,0c0.23,0.01,0.46,0,0.7,0.03c0.23,0.03,0.46,0.06,0.69,0.09c0.23,0.02,0.45,0.07,0.67,0.13
						c0.21,0.05,0.42,0.11,0.61,0.17c0.19,0.05,0.37,0.1,0.53,0.19c0.65,0.29,1.05,0.52,1.05,0.52s-0.46-0.07-1.12-0.25
						c-0.33-0.09-0.74-0.11-1.15-0.19c-0.11-0.03-0.22-0.04-0.33-0.06c-0.11-0.02-0.21-0.02-0.32-0.03
						c-0.23-0.02-0.45-0.04-0.67-0.07c-0.23-0.03-0.45-0.03-0.68-0.04c-0.22-0.01-0.43-0.04-0.65-0.05
						c-0.43,0.01-0.83-0.02-1.17-0.02c-0.34,0-0.64-0.01-0.83,0C141.95,152.72,141.83,152.72,141.83,152.72z"/>
				</g>
			</g>
			<g>
				<g>
					<path class="st4" d="M94.94,181.43c-0.05-2.73-0.95-3.46-2.07-3.93c-1.12-0.48-2.85-1.73-2.85-1.73
						c-1.11-0.03-3.31-0.11-6.14-0.26c-1.2,2.24-2.54,6,0.24,8.34c2.41,2.02,5.54,2.89,7.76,3.26c1.24-0.31,2.39-0.92,3.26-1.86
						C94.93,183.65,94.95,182.21,94.94,181.43z"/>
					<g>
						<path class="st5" d="M95.18,181.48c-0.17-3.38-1.68-3.55-4.25-5.22c-1.99-1.31-4.82-0.76-7.15-0.88
							c-0.05,0-0.12-0.01-0.15,0.04c-1.03,2-1.77,4.15-1.14,6.39c0.6,2.17,3.29,3.42,5.16,4.22c1.43,0.61,3.46,1.48,5.02,1.01
							c0.76-0.22,2.42-0.92,2.71-1.7C95.69,184.46,95.2,182.5,95.18,181.48c-0.01-0.13-0.49-0.28-0.49-0.11c0,1,0.52,3.48-0.25,4.22
							c-1.65,1.59-3.43,1.33-5.41,0.73c-2.35-0.7-5.06-2.02-6.06-4.39c-0.58-1.39-0.16-3.05,0.29-4.41
							c0.56-1.73,1.31-1.84,3.07-1.76c1.15,0.05,2.31,0.09,3.46,0.13c0.75,0.03,1.76,1.11,2.46,1.43c1.87,0.89,2.34,2.06,2.44,4.05
							C94.7,181.51,95.2,181.65,95.18,181.48z"/>
					</g>
				</g>
				<g>
					<path class="st4" d="M83.87,175.51c-0.57-0.03-1.15-0.06-1.77-0.1c-0.74,1.7-2.12,5.6-0.85,8.31c1.18,2.47,6.5,4.43,10.62,3.4
						c-2.22-0.38-5.35-1.25-7.76-3.26C81.33,181.51,82.67,177.75,83.87,175.51z"/>
					<g>
						<path class="st5" d="M83.87,175.41c-0.56-0.03-1.13-0.07-1.7-0.1c-0.07,0-0.28-0.02-0.33,0.08c-1.31,3.11-2.47,7.33,0.43,9.86
							c2.51,2.18,6.6,2.62,9.72,1.95c0.15-0.02,0.16-0.14,0-0.17c-3.05-0.56-6.48-1.63-8.49-4.14c-1.67-2.1-0.43-5.31,0.62-7.35
							c0.07-0.13-0.43-0.19-0.5-0.05c-0.94,1.83-2.01,4.36-1.15,6.42c1.11,2.62,4.21,4.01,6.79,4.73c0.63,0.17,1.26,0.33,1.89,0.46
							c-0.66,0.18-1.32,0.24-2.01,0.2c-0.88-0.03-1.74-0.15-2.6-0.37c-1.83-0.41-3.68-1.34-4.82-2.85
							c-0.99-1.32-0.78-3.36-0.54-4.89c0.15-0.99,0.48-1.96,0.83-2.89c0.32-0.89,1.08-0.72,1.86-0.67
							C84.18,175.64,84.17,175.42,83.87,175.41z"/>
					</g>
				</g>
				<g class="st6">
					<path class="st7" d="M94.94,181.43c-0.05-2.73-0.95-3.46-2.07-3.93c-1.12-0.48-2.85-1.73-2.85-1.73
						c-1.11-0.03-3.31-0.11-6.14-0.26c-1.2,2.24-2.54,6,0.24,8.34c2.41,2.02,5.54,2.89,7.76,3.26c1.24-0.31,2.39-0.92,3.26-1.86
						C94.93,183.65,94.95,182.21,94.94,181.43z M89.46,185.81c-5.46-0.62-7.1-5.88-5.67-8.41c0.91-1.61,4.79,1.09,7.26,2.44
						C93.51,181.21,94.93,186.43,89.46,185.81z"/>
				</g>
				<g class="st6">
					<path class="st7" d="M82.8,182.04c-0.85-2.19,0.15-4.81,1.07-6.53c-0.57-0.03-1.15-0.06-1.77-0.1c-0.57,1.29-1.5,3.86-1.35,6.2
						C81.22,181.42,81.91,181.5,82.8,182.04z"/>
				</g>
			</g>
			<g>
				<g>
					<path class="st8" d="M92.79,161.82c-2.12-0.15-3.8,0.77-4.99,2.52c-0.04,0.06,0.07,0.11,0.11,0.12
						c0.5,0.12,1.01,0.24,1.51,0.37c0.1,0.03,0.3,0.07,0.38-0.03c0.9-1.12,1.95-2.08,3.19-2.8c0.16-0.09-0.33-0.2-0.44-0.13
						c-1.26,0.74-2.33,1.7-3.24,2.85c0.12-0.01,0.25-0.02,0.38-0.04c-0.18-0.04-1.42-0.23-1.22-0.5c0.31-0.47,0.71-0.87,1.15-1.22
						c0.89-0.73,2.02-0.98,3.15-0.9C93.08,162.04,93.09,161.84,92.79,161.82z"/>
				</g>
				<g>
					<path class="st8" d="M89.43,164.82c0.75,0.18,1.5,0.36,2.25,0.51c0.08,0.03,0.31,0.04,0.34-0.08c0.32-1.48,2.29-2.18,3.53-2.5
						c0.1-0.03,0.09-0.11,0.01-0.15c-0.72-0.33-2.13-1.04-2.95-0.77c-1.26,0.42-2.49,1.87-3.28,2.86c-0.09,0.11,0.39,0.21,0.49,0.09
						c0.82-1.01,1.74-1.89,2.84-2.59c0.35-0.19,0.71-0.19,1.08,0c0.2,0.05,1.27,0.44,1.08,0.5c-0.54,0.13-1.05,0.36-1.54,0.61
						c-0.73,0.38-1.59,1.08-1.77,1.93c0.11-0.03,0.22-0.05,0.33-0.08c-0.71-0.15-1.43-0.32-2.13-0.49
						C89.56,164.63,89.11,164.76,89.43,164.82z"/>
				</g>
			</g>
			<g>
				<g>
					<g>
						<path class="st9" d="M142.77,152.65c3.07-3.24,6.57-4.62,6.57-4.62l1.14,0.59c0,0,0.14-0.42,0.21-1.06
							c0.06-1.04-4.54-3.83-5.61-2.58c0,0-2.26,2.19-4.25,4.44c-1.99,2.24-2.68,4.58-2.68,4.58
							C140.66,152.57,142.77,152.65,142.77,152.65z"/>
						<g>
							<path class="st10" d="M143.03,152.68c1.53-1.55,3.21-2.84,5.11-3.9c1.36-0.76,0.99-0.68,2.13-0.1
								c0.1,0.05,0.44,0.1,0.48-0.06c0.59-2.35-3.12-4.54-5.29-4.01c-1.41,0.35-2.77,2.5-3.68,3.45c-1.63,1.73-3.16,3.63-3.89,5.93
								c-0.03,0.13,0.39,0.09,0.45,0.07c1.37-0.71,2.86-1.33,4.44-1.31c0.3,0,0.3-0.21-0.01-0.21c-0.82-0.01-1.63,0.17-2.44,0.37
								c-0.4,0.1-1.68,0.36-1.85,0.84c0.2-0.6,0.5-1.17,0.79-1.74c1.01-1.96,2.64-3.54,4.16-5.12c0.54-0.56,1.09-1.11,1.64-1.65
								c1.01-1,2.72,0.04,3.66,0.59c0.58,0.35,1.12,0.78,1.53,1.32c0.21,0.37,0.22,0.75,0.03,1.17c0.35,0.21,0.3,0.19-0.17-0.07
								c-0.25-0.13-0.64-0.44-0.97-0.31c-2.52,1.03-4.73,2.75-6.63,4.67C142.44,152.71,142.91,152.78,143.03,152.68z"/>
						</g>
					</g>
					<g>
						<path class="st9" d="M59.62,152.41c0,0-0.38-0.37-2.9,0.23c-2.52,0.61-3.13,1.64-3.13,1.64v0.52c0,0,1.86-1.16,7.99,2.95
							c0,0,1.88,0.25,4.55,0.72C63.8,154.46,59.62,152.41,59.62,152.41z"/>
						<g>
							<path class="st10" d="M59.81,152.36c-1.43-0.97-6.48,0.53-6.48,2.42c0,0.16,0.38,0.17,0.48,0.11
								c1.64-0.93,4.75,1.18,6.09,1.94c2.1,1.23,3.77,1.31,6.23,1.75c0.04,0,0.33,0,0.27-0.11
								C64.8,155.94,62.51,153.72,59.81,152.36c-0.11-0.06-0.62-0.02-0.38,0.11c2.42,1.21,4.5,3.16,6.05,5.36
								c0.42,0.6-2.11,0.08-2.32,0.05c-0.49-0.07-0.99-0.14-1.49-0.21c-0.73-0.1-2-1.27-2.72-1.65c-0.55-0.29-1.12-0.55-1.71-0.79
								c-1-0.42-2.28-0.83-3.4-0.62c-0.69,0.13-0.3,0.18,0.01-0.28c0.78-1.16,4.49-2.59,5.57-1.85
								C59.53,152.54,60.03,152.52,59.81,152.36z"/>
						</g>
					</g>
					<g>
						<path class="st9" d="M128.99,143.02c-1.27,3.81-12.8,11.06-23.94,12.49c-11.15,1.43-23.89-2.42-25.41-4.58
							c-0.34-0.48-0.53-0.91-0.61-1.27c-4.11-0.1-12.35,0.04-19.41,2.76c0,0,4.18,2.05,6.52,6.06c3.11,0.57,7.29,1.46,10.78,2.69
							c6.49,2.26,14.84,4.09,14.84,4.09s0.58-3.05,7.39-2.92c6.2,0.12,6.37,0.72,7.34,2.4c4.53-2.64,20.3-11.32,31.66-10.73
							c0,0,0.7-2.34,2.68-4.58c1.98-2.25,4.25-4.44,4.25-4.44C141.38,143.91,135.94,142.93,128.99,143.02z"/>
						<g>
							<path class="st11" d="M128.99,143.02c-1.27,3.81-12.8,11.06-23.94,12.49c-11.15,1.43-23.89-2.42-25.41-4.58
								c-0.34-0.48-0.53-0.91-0.61-1.27c-1.19-0.03-2.72-0.04-4.47,0.03c0.26,0.37,0.45,0.85,0.52,1.51
								c0.35,3.13,7.23,7.94,12.78,10.32c3.05,0.86-0.01-2.3-2.16-3.82c0,0,14.72,3.4,23.47,0.63c2.08-0.49-0.97,5.24-2.85,4.54
								c-1.87-0.69-10.56-1.6-14.1-0.49c-3.54,1.11-3.68,2.43-9.38,0c-5.69-2.43-10.28-3.6-12.64-4.44
								c-2.71-0.97,0.69-2.22,1.67-3.96c0.52-0.92,0.46-2.56,0.1-4.14c-3.84,0.3-8.3,1.01-12.37,2.58c0,0,4.18,2.05,6.52,6.06
								c3.11,0.57,7.29,1.46,10.78,2.69c6.49,2.26,14.84,4.09,14.84,4.09s0.58-3.05,7.39-2.92c6.2,0.12,6.37,0.72,7.34,2.4
								c4.53-2.64,20.3-11.32,31.66-10.73c0,0,0.7-2.34,2.68-4.58c1.98-2.25,4.25-4.44,4.25-4.44
								C141.38,143.91,135.94,142.93,128.99,143.02z"/>
						</g>
						<g>
							<path class="st10" d="M128.74,142.98c-1.24,3.23-5.07,5.47-7.87,7.26c-5.11,3.26-8.81,3.68-14.23,4.89
								c-6.27,1.4-12.66,0.44-18.87-1.19c-2.95-0.77-7.38-1.16-8.5-4.31c-0.03-0.07-0.19-0.08-0.25-0.08
								c-6.63-0.14-13.33,0.49-19.6,2.78c-0.1,0.03-0.1,0.1,0,0.15c2.37,1.21,4.39,3.1,5.95,5.24c0.78,1.07,0.22,0.78,1.54,1.02
								c2.32,0.42,4.61,0.96,6.88,1.58c5.97,1.61,11.76,3.69,17.82,5.01c0.09,0.02,0.36,0.05,0.4-0.08
								c0.47-2.07,3.61-2.58,5.25-2.76c2.9-0.34,7.33-0.6,8.97,2.26c0.08,0.12,0.37,0.1,0.48,0.03c9.25-5.39,20.46-11.06,31.42-10.7
								c0.09,0,0.24,0,0.27-0.09c1.16-3.63,4.25-6.4,6.91-8.99c0.06-0.06-0.08-0.11-0.11-0.13c-5.29-1.48-10.75-1.99-16.22-1.97
								c-0.31,0-0.31,0.21,0,0.21c4.45-0.02,8.86,0.33,13.23,1.25c1.03,0.21,3.02,0.15,1.94,1.22c-1.5,1.48-2.95,3-4.27,4.63
								c-0.8,0.97-1.44,2.18-1.86,3.36c-0.18,0.52-2.41,0.32-3,0.35c-3.07,0.19-6.1,0.96-9.04,1.83
								c-5.89,1.76-11.53,4.42-16.93,7.34c-0.83,0.45-1.66,0.92-2.48,1.4c0.1-0.06-0.6-0.95-0.68-1.03
								c-1.08-0.96-2.62-1.01-3.99-1.12c-2.66-0.22-9.07-0.78-10.34,2.7c-0.07,0.2,0.49,0.16-0.44-0.05
								c-1.15-0.26-2.31-0.53-3.45-0.82c-3.91-0.96-7.77-2.13-11.6-3.41c-1.99-0.67-4.04-1.15-6.07-1.61
								c-1.92-0.43-3.38-0.46-4.65-2.18c-1.36-1.87-3.34-3.39-5.35-4.5c-0.36-0.21,1.58-0.59,1.73-0.65c1.28-0.42,2.61-0.71,3.93-1
								c2.2-0.47,4.44-0.71,6.67-0.9c1.82-0.15,3.64-0.18,5.46-0.17c1.19,0,1.41,1.12,2.19,1.83c2.82,2.59,5.63,2.53,9.18,3.71
								c4.95,1.65,11.55,1.5,16.73,0.73c5.27-0.78,10.64-1.67,14.96-4.67c3.09-2.16,6.95-4.64,8.36-8.3
								C129.3,142.89,128.8,142.85,128.74,142.98z"/>
						</g>
					</g>
				</g>
				<g>
					<g>
						<path class="st10" d="M110.41,161.29c0,0,0.14-0.18,0.39-0.47c0.25-0.28,0.62-0.71,1.09-1.17c0.47-0.47,1.03-1.01,1.67-1.55
							c0.62-0.55,1.33-1.08,2.05-1.61c0.37-0.25,0.73-0.51,1.11-0.74c0.37-0.23,0.74-0.46,1.11-0.65c0.37-0.2,0.71-0.4,1.06-0.55
							c0.36-0.16,0.68-0.33,0.99-0.44c0.61-0.26,1.15-0.42,1.53-0.53c0.38-0.1,0.59-0.15,0.59-0.15s-0.2,0.08-0.56,0.24
							c-0.17,0.09-0.4,0.17-0.63,0.29c-0.24,0.12-0.51,0.26-0.81,0.41c-0.3,0.14-0.6,0.32-0.93,0.51c-0.33,0.18-0.67,0.4-1.02,0.61
							c-0.35,0.2-0.69,0.45-1.06,0.69c-0.37,0.22-0.72,0.49-1.08,0.73c-0.36,0.25-0.71,0.52-1.07,0.76
							c-0.33,0.27-0.69,0.52-1.01,0.77c-0.64,0.52-1.25,0.98-1.75,1.41c-0.5,0.43-0.93,0.77-1.22,1.04
							C110.58,161.14,110.41,161.29,110.41,161.29z"/>
					</g>
					<g>
						<path class="st10" d="M79.9,156.67c0,0,0.59,0.35,1.48,0.89c0.44,0.25,0.95,0.57,1.52,0.9c0.55,0.34,1.14,0.69,1.73,1.02
							c0.59,0.35,1.2,0.67,1.76,0.98c0.29,0.15,0.56,0.28,0.83,0.42c0.27,0.12,0.51,0.24,0.74,0.35c0.48,0.19,0.87,0.39,1.15,0.48
							c0.29,0.1,0.45,0.17,0.45,0.17s-0.17-0.03-0.48-0.07c-0.31-0.05-0.72-0.15-1.23-0.3c-0.5-0.16-1.07-0.38-1.66-0.65
							c-0.29-0.14-0.61-0.28-0.9-0.44c-0.31-0.15-0.62-0.32-0.92-0.5c-0.6-0.34-1.2-0.71-1.72-1.08c-0.54-0.36-1.03-0.72-1.44-1.05
							c-0.4-0.32-0.73-0.62-0.96-0.81C80.02,156.79,79.9,156.67,79.9,156.67z"/>
					</g>
				</g>
			</g>
			<g>
				<g>
					<path class="st2" d="M86.76,164.05c-2.9-0.73-6.61-1.76-9.85-2.89c-6.48-2.27-15.34-3.41-15.34-3.41
						c-6.13-4.11-7.99-2.95-7.99-2.95s-6.6,2.8-4.97,11.19c1.38,7.13,25.72,9.05,36.79,9.59C88.03,170.33,87.44,166.21,86.76,164.05
						z"/>
					<g>
						<path class="st3" d="M86.93,163.97c-5.63-1.45-11.07-3.57-16.75-4.8c-2.32-0.5-4.65-0.93-7-1.3
							c-2.04-0.32-3.51-1.57-5.39-2.45c-3.83-1.78-6.57-0.2-8.62,3.41c-1.61,2.84-1.77,7.3,0.71,9.66c2.36,2.25,6.12,3.18,9.17,3.97
							c8.52,2.19,17.52,2.8,26.29,3.23c0.08,0,0.27-0.01,0.31-0.1c1.72-3.68,2.53-7.6,1.36-11.57c-0.05-0.16-0.55-0.08-0.52,0.04
							c0.48,1.65,0.63,3.29,0.55,5c-0.07,1.54-0.51,3.02-1,4.46c-0.61,1.82-1.12,1.93-2.8,1.83c-4.38-0.25-8.75-0.63-13.11-1.17
							c-4.46-0.55-8.94-1.32-13.26-2.61c-2.8-0.85-6.83-2.2-7.92-5.27c-1.35-3.82,0.41-8.3,3.51-10.66
							c2.56-1.95,5.57,0.12,7.96,1.57c2.44,1.46,5.91,1.39,8.67,1.96c5.94,1.24,11.61,3.45,17.49,4.96
							C86.7,164.17,87.2,164.03,86.93,163.97z"/>
					</g>
				</g>
				<g>
					<g>
						<path class="st1" d="M54.23,158.31c0,0,0.56-0.22,1.43-0.43c0.21-0.06,0.45-0.1,0.7-0.14c0.25-0.04,0.52-0.11,0.8-0.13
							c0.28-0.03,0.56-0.07,0.86-0.09c0.29-0.03,0.59-0.05,0.89-0.05c0.3,0,0.6,0,0.89,0c0.29-0.03,0.58,0.02,0.87,0.04
							c0.28,0.02,0.54,0.05,0.8,0.07c0.25,0.02,0.5,0.06,0.71,0.12c0.45,0.09,0.8,0.19,1.06,0.24c0.25,0.06,0.39,0.11,0.39,0.11
							s-0.15,0-0.42,0c-0.26-0.02-0.63-0.02-1.06-0.05c-0.23-0.02-0.46-0.03-0.72-0.03c-0.26,0-0.52,0-0.79-0.01
							c-0.55-0.02-1.13,0.01-1.72,0.02c-0.29,0-0.58,0.02-0.87,0.03c-0.29,0.02-0.57,0.04-0.85,0.04c-0.55,0.04-1.06,0.07-1.5,0.11
							c-0.44,0.05-0.81,0.07-1.07,0.1C54.38,158.29,54.23,158.31,54.23,158.31z"/>
					</g>
				</g>
				<g>
					<path class="st4" d="M111.45,174.56c-0.6-2.68-3.36-7.24-4.64-9.31c-1.02-1.63-0.96-2.42-4.16-2.74c1,0.87,2.4,2.84,3.84,7.27
						c2.52,7.73,5.57,17.87-1.01,24.14c0,0,0.06,0,0.09,0c3.11-0.26,4.66-0.62,6.11-4.63C114.25,182.16,111.45,174.56,111.45,174.56
						z"/>
					<g>
						<path class="st5" d="M111.69,174.6c-0.95-3.54-3.05-6.67-4.92-9.78c-1.05-1.76-2.14-2.17-4.17-2.44
							c-0.05,0-0.3,0.01-0.19,0.12c3.6,3.4,4.8,9.8,5.91,14.43c1.41,5.93,1.44,12.3-3.07,16.9c-0.12,0.11,0.28,0.21,0.34,0.21
							C114.58,193.8,113.9,180.75,111.69,174.6c-0.05-0.15-0.54-0.21-0.5-0.08c1.91,5.33,2.2,12.64-1.15,17.45
							c-0.77,1.1-2.05,1.48-3.29,1.69c-1.4,0.24,0.71-1.62,1.08-2.29c1.6-2.93,1.99-6.03,1.79-9.33c-0.35-5.79-2.32-12.77-5.3-17.75
							c-0.34-0.56-0.74-1.07-1.19-1.55c1.75,1.88,2.13,0.24,3.14,2.01c0.29,0.5,0.61,0.99,0.91,1.48c1.59,2.59,3.22,5.33,4.01,8.28
							C111.23,174.67,111.73,174.74,111.69,174.6z"/>
					</g>
				</g>
				<g>
					<path class="st10" d="M92.87,177.5c0.41,0.17,0.8,0.38,1.12,0.71c-0.24-0.26-1.02-1.18-1.49-2.44h-2.48
						C90.01,175.77,91.74,177.02,92.87,177.5z"/>
					<g>
						<path class="st12" d="M92.68,177.57c0.41,0.18,0.76,0.39,1.08,0.69c0.09,0.09,0.56,0.02,0.47-0.08
							c-0.64-0.72-1.14-1.55-1.49-2.45c-0.03-0.07-0.19-0.08-0.25-0.08c-0.82,0-1.65,0-2.48,0c-0.05,0-0.37,0.06-0.22,0.16
							C90.7,176.48,91.65,177.11,92.68,177.57c0.12,0.05,0.62-0.04,0.37-0.15c-1-0.44-1.93-1.06-2.81-1.7
							c-0.08,0.05-0.16,0.1-0.23,0.15c0.82,0,1.66,0,2.48,0c-0.08-0.03-0.16-0.05-0.25-0.08c0.35,0.9,0.85,1.72,1.49,2.44
							c0.16-0.03,0.32-0.05,0.47-0.08c-0.35-0.32-0.72-0.54-1.15-0.74C92.92,177.37,92.43,177.46,92.68,177.57z"/>
					</g>
				</g>
				<g>
					<path class="st4" d="M95.55,169.07c0,0,0.72-2.24-0.26-2.79c-0.97-0.55-3.54-1.03-3.54-1.03s-2.09-0.46-5-1.2
						c0.68,2.16,1.27,6.28-1.35,11.54c2.08,0.1,3.7,0.15,4.6,0.18h2.48c-0.31-0.84-0.49-1.84-0.28-2.9
						C92.82,169.94,95.55,169.07,95.55,169.07z"/>
					<g>
						<path class="st5" d="M95.81,169.1c0.69-2.32-0.15-2.96-2.25-3.55c-2.21-0.61-4.49-1.02-6.72-1.58
							c-0.07-0.02-0.37-0.05-0.33,0.09c1.17,3.91,0.37,7.86-1.35,11.48c-0.06,0.11,0.17,0.15,0.24,0.15
							c2.39,0.11,4.76,0.19,7.15,0.19c0.06,0,0.22-0.01,0.19-0.1c-0.83-2.66,0.19-5.65,2.98-6.61c0.27-0.09-0.22-0.22-0.34-0.19
							c-2.33,0.8-3.59,3-3.48,5.4c0.02,0.46,0.58,1.29,0.16,1.29c-0.67,0-1.33,0-1.99,0c-0.78,0-1.55-0.05-2.31-0.07
							c-2.18-0.08-1.59-0.96-1.07-2.37c0.71-1.91,0.97-3.97,0.9-6c-0.03-0.8-0.18-1.61-0.36-2.39c-0.22-0.98,1.23-0.24,1.81-0.1
							c0.99,0.24,1.98,0.48,2.98,0.68c2.09,0.43,4,1.21,3.28,3.64C95.26,169.17,95.77,169.25,95.81,169.1z"/>
					</g>
				</g>
				<g>
					<path class="st4" d="M96.35,189.5c1.34,2.68,3.97,4.83,9.13,4.42c5.79-5.51,4.13-14.02,1.93-21.24
						C98.75,173.94,95.62,183.23,96.35,189.5z"/>
					<g>
						<path class="st5" d="M96.09,189.5c1.12,2.06,2.68,3.37,4.89,4.13c1.65,0.57,4.08,1.03,5.38-0.3
							c5.31-5.44,3.21-14.24,1.3-20.65c-0.03-0.1-0.29-0.12-0.37-0.1c-7.93,1.42-11.94,9.31-11.19,16.91
							c0.01,0.16,0.53,0.18,0.51,0.05c-0.32-3.34,0.27-6.6,1.67-9.64c0.94-2.02,8.09-10.01,9.37-5.51c1.28,4.44,2.08,9.14,1,13.7
							c-0.42,1.78-1.94,5.68-4.22,5.79c-3.45,0.16-6.24-1.43-7.82-4.37C96.53,189.36,96.03,189.38,96.09,189.5z"/>
					</g>
				</g>
				<g>
					<path class="st13" d="M102.65,162.51c-0.88-0.09-2.02-0.15-3.49-0.18c-6.81-0.12-7.39,2.92-7.39,2.92s2.56,0.48,3.54,1.03
						c0.97,0.56,0.26,2.79,0.26,2.79s-2.73,0.86-3.34,3.8c-0.54,2.64,1.37,4.91,1.77,5.34c0.03,0.02,0.04,0.05,0.06,0.07
						c0,0.01,0.02,0.01,0.02,0.01h-0.01c0.52,0.58,0.86,1.5,0.89,3.14c0.02,1.43-0.1,5.08,1.41,8.06
						c-0.73-6.26,2.41-15.55,11.06-16.82c-0.31-1-0.61-1.96-0.92-2.9C105.04,165.35,103.64,163.38,102.65,162.51z"/>
					<g>
						<path class="st14" d="M102.6,162.39c-2.64-0.22-10.18-1.1-11.09,2.81c-0.02,0.09,0.18,0.15,0.24,0.16
							c2.01,0.4,4.19,1.11,3.6,3.55c-0.09,0.34-2.17,1.55-2.49,1.93c-1.06,1.26-1.09,2.97-0.75,4.48c0.14,0.7,1.09,2.87,1.85,2.87
							c-0.07,0-0.18,0.03-0.12,0.12c1.17,1.6,0.83,3.8,0.94,5.68c0.1,1.92,0.56,3.75,1.33,5.51c0.06,0.1,0.53,0.2,0.51,0.07
							c-0.72-7.42,3.12-15.37,10.98-16.77c0.03-0.01,0.1-0.03,0.08-0.09c-1.07-3.44-2.05-7.61-4.78-10.19
							c-0.1-0.1-0.59-0.11-0.47,0.01c1.61,1.51,6.23,9.66,3.27,10.38c-3.02,0.73-5.71,2.99-7.23,5.67
							c-1.81,3.15-2.62,6.67-2.43,10.29c-0.11-2.14-0.8-4.54-0.83-6.87c-0.01-0.63,0.07-3.57-1.02-3.57c0.06,0,0.2-0.03,0.12-0.12
							c-2.37-2.52-2.61-6.28,0.26-8.49c0.24-0.19,1.18-0.42,1.3-0.8c0.16-0.57,0.5-1.89,0-2.39c-0.63-0.64-1.42-0.81-2.26-1.04
							c-0.41-0.13-0.84-0.22-1.27-0.31c-0.59-0.13-0.33,0.12-0.23-0.16c1.3-3.56,7.93-2.71,10.61-2.48
							C103.05,162.65,102.82,162.41,102.6,162.39z"/>
					</g>
				</g>
				<g class="st6">
					<path class="st7" d="M107.41,172.68c-8.65,1.27-11.79,10.56-11.06,16.82c1.34,2.68,3.97,4.83,9.13,4.42
						C111.27,188.41,109.61,179.9,107.41,172.68z M97.62,185.8c-1.58-7.45,9.51-17.03,10.72-5.79
						C109.55,191.24,99.18,193.16,97.62,185.8z"/>
				</g>
				<g>
					<path class="st13" d="M107.41,172.68c-0.31-1-0.61-1.96-0.92-2.9c-1.45-4.43-2.85-6.4-3.84-7.27
						c-0.88-0.09-2.02-0.15-3.49-0.18c-6.81-0.12-7.39,2.92-7.39,2.92s2.56,0.48,3.54,1.03c0.97,0.56,0.26,2.79,0.26,2.79
						s-2.73,0.86-3.34,3.8c-0.54,2.64,1.37,4.91,1.77,5.34c0.03,0.02,0.04,0.05,0.06,0.07c0,0.01,0.02,0.01,0.02,0.01h-0.01
						c0.52,0.58,0.86,1.5,0.89,3.14c0.02,1.43-0.1,5.08,1.41,8.06C95.62,183.23,98.75,173.94,107.41,172.68z M93.17,174.56
						c-0.48-2.51,0.99-3.81,2.64-4.65c1.65-0.85,2.29-1.93,1.66-3.96c-0.54-1.72-1.27-2.94,2.11-3.15c3.39-0.22,5.08,3.33,5.64,6.41
						c0.56,3.09-3.59,4.18-6.53,6.56C95.76,178.15,93.65,177.07,93.17,174.56z"/>
				</g>
				<g class="st6">
					<path class="st7" d="M111.75,175.51c-0.25,2.07-1.8,2.4-3.3,0.93c1.51,6.26,1.84,12.9-2.96,17.49c0,0,0.06,0,0.09,0
						c3.11-0.26,4.66-0.62,6.11-4.63C113.71,183.68,112.39,177.76,111.75,175.51z"/>
				</g>
				<g class="st6">
					<path class="st7" d="M95.3,166.28c-0.97-0.55-3.54-1.03-3.54-1.03s-2.09-0.46-5-1.2c0.68,2.16,1.27,6.28-1.35,11.54
						c2.08,0.1,3.7,0.15,4.6,0.18h2.48c-0.31-0.84-0.49-1.84-0.28-2.9c0.61-2.93,3.34-3.8,3.34-3.8S96.27,166.84,95.3,166.28z
						 M92.96,168.43c-1.9,1.71-0.58,5.11-3.96,4.9c-3.37-0.21-0.77-0.78-0.95-4.65c-0.18-3.86-0.88-4.11,0.75-3.73
						C92.2,165.74,94.88,166.71,92.96,168.43z"/>
				</g>
			</g>
			<g>
				<path class="st2" d="M86.76,164.05c-2.9-0.73-6.61-1.76-9.85-2.89c-6.48-2.27-15.34-3.41-15.34-3.41
					c-6.13-4.11-7.99-2.95-7.99-2.95s-1.35,0.57-2.67,1.98c1.28-0.41,2.39-0.17,2.17,2.06c-0.48,4.93-0.72,8.79,3.97,9.27
					c4.69,0.48,5.78-1.2,6.26-0.96c2.89,1.2,5.06-0.36,5.42-1.2c2.41,0.36,3.25-2.17,3.13-3.49c-0.12-1.32,1.56-0.96,8.55,0.84
					c6.98,1.81,7.1,7.1,2.53,8.18c-4.57,1.08-18.29,1.44-29.49-2.53c-3.81-1.45-4.81-3.58-5.08-5.62c-0.01,0.82,0.07,1.71,0.25,2.67
					c1.38,7.13,25.72,9.05,36.79,9.59C88.03,170.33,87.44,166.21,86.76,164.05z"/>
			</g>
		</g>
		<g>
			<path class="st2" d="M124.07,167.58c-7.54,1.91-12.36,1.61-12.97-1.81c-0.6-3.42,9.35-6.73,13.57-7.94
				c4.22-1.21,6.53-2.21,6.33-0.3c-0.2,1.91-1.71,3.92,1.11,4.02c2.81,0.1,3.02-2.61,3.12-4.52c0.1-1.91,2.11-0.9,3.12,3.52
				c1,4.42,2.71,5.03,5.13,4.62c2.41-0.4,6.3-5.61,6.9-9.63c0.6-4.02-2.07-5.44-0.06-5.64c1.11-0.25,2.04,0.19,2.81,0.93
				c-0.6-0.93-1.47-1.7-2.64-2.2l-1.14-0.59c0,0-3.5,1.38-6.57,4.62c0,0-2.12-0.08-4.62,1.34c-11.36-0.58-27.13,8.09-31.66,10.73
				c0.09,0.16,0.19,0.33,0.31,0.52c1.29,2.07,4.04,6.63,4.64,9.31c0,0,16.64-3.62,29.05-7.24c0.85-0.25,1.66-0.53,2.43-0.83
				c-2.11-0.6-4.19-1.82-4.19-1.82S131.61,165.67,124.07,167.58z"/>
		</g>
		<path class="st15" d="M129,156.72c-0.64-0.01-1.35,0.25-1.97,0.4c-0.69,0.17-1.38,0.35-2.07,0.55c-1.39,0.4-2.77,0.86-4.12,1.38
			c-2.66,1.02-5.25,2.27-7.64,3.83c-0.04,0.02-0.09,0.17-0.01,0.12c2.46-1.35,4.98-2.6,7.61-3.59c1.28-0.48,2.58-0.91,3.9-1.28
			c0.68-0.19,1.37-0.37,2.06-0.53c0.68-0.16,1.44-0.22,2.09-0.47C128.94,157.09,129.19,156.73,129,156.72z"/>
		<path class="st15" d="M84.26,164.7c-1.71-0.86-3.6-1.45-5.45-1.94c-1.92-0.51-3.87-0.87-5.85-1.01c-0.05,0-0.14,0.14-0.07,0.15
			c1.89,0.3,3.77,0.67,5.62,1.16c1.91,0.51,3.73,1.23,5.58,1.91C84.19,165.01,84.35,164.75,84.26,164.7z"/>
		<path class="st15" d="M51.14,157.02c-0.77,0.63-1.35,1.46-1.76,2.37c-0.2,0.45-0.36,0.93-0.46,1.41c-0.1,0.47-0.22,1-0.08,1.46
			c0.06,0.22,0.29-0.15,0.31-0.23c0.09-0.45,0.11-0.91,0.19-1.36c0.08-0.43,0.21-0.86,0.38-1.27c0.34-0.83,0.86-1.57,1.47-2.22
			C51.26,157.11,51.28,156.91,51.14,157.02z"/>
		<path class="st15" d="M152.21,150.44c-0.08-0.12-0.3,0.18-0.24,0.29c0.5,0.86,0.85,1.8,1.02,2.78c0.18,0.98,0.11,1.91,0.04,2.89
			c-0.03,0.34,0.36-0.05,0.4-0.19C153.95,154.27,153.35,152.04,152.21,150.44z"/>
	</g>
	<g>
		<g>
			<g>
				<g>
					<path class="st2" d="M86.78,97.82c0,0-5.96-2.41-10.72,9.45c-4.76,11.86-11.37,33.54-16.85,37.82
						c-3.59,2.81-10.77,2.53-9.72,5.44c1.05,2.91,6.29,0.66,6.29,0.66s-2.36,3.31-2.1,9.27c0.26,5.96,4.32,5.29,4.19,3.97
						c1.85,2.08,4.85,0.66,5.11-0.66c1.57,1.99,4.72,1.19,4.06-0.93c2.36,1.46,3.8-1.59,1.83-3.18c-1.96-1.59-2.45-4.34,0.26-6.81
						c2.71-2.46,1.55-5.99,1.12-7.15c2.73-6.09,7.14-18.81,7.14-18.81L86.78,97.82z"/>
					<path class="st3" d="M60.18,165.72c-0.8,0-1.55-0.28-2.16-0.82c-0.08,0.14-0.2,0.27-0.35,0.38c-0.53,0.36-1.31,0.37-2.01,0.03
						c-0.76-0.38-2.06-1.51-2.21-4.84c-0.2-4.58,1.11-7.59,1.77-8.81c-1.07,0.37-3.21,0.95-4.67,0.32
						c-0.62-0.27-1.05-0.73-1.28-1.37c-0.17-0.47-0.16-0.89,0.04-1.27c0.51-1.01,2.23-1.51,4.23-2.09c1.9-0.55,4.04-1.18,5.53-2.35
						c4.05-3.17,8.75-16.04,12.89-27.4c1.38-3.78,2.68-7.35,3.88-10.32c2-4.97,4.44-8.1,7.26-9.3c2.16-0.92,3.71-0.31,3.77-0.29
						c0.12,0.05,0.18,0.17,0.14,0.29l-9.38,29.07c-0.05,0.13-4.4,12.68-7.1,18.75c1.11,3.06,0.69,5.59-1.22,7.32
						c-1.22,1.11-1.84,2.34-1.8,3.57c0.03,1.08,0.58,2.1,1.53,2.88c1.17,0.94,1.24,2.39,0.63,3.25c-0.4,0.57-1.22,1-2.29,0.55
						c0.04,0.68-0.28,1.26-0.92,1.6c-0.92,0.48-2.36,0.34-3.37-0.66c-0.32,0.6-1.05,1.13-1.94,1.37
						C60.81,165.68,60.49,165.72,60.18,165.72z M57.88,164.19c0.07,0,0.13,0.03,0.18,0.08c1.08,1.21,2.43,1.01,2.96,0.86
						c0.88-0.24,1.63-0.85,1.74-1.41c0.02-0.09,0.09-0.16,0.18-0.18c0.09-0.02,0.18,0.01,0.24,0.08c0.85,1.08,2.22,1.27,3.05,0.83
						c0.59-0.31,0.8-0.87,0.6-1.54c-0.03-0.09,0-0.2,0.08-0.26c0.08-0.06,0.19-0.07,0.27-0.01c1.01,0.62,1.75,0.31,2.1-0.19
						c0.48-0.68,0.41-1.83-0.54-2.6c-1.07-0.86-1.68-2.01-1.71-3.23c-0.04-1.37,0.64-2.73,1.96-3.94c2.23-2.03,1.81-4.87,1.06-6.89
						c-0.02-0.06-0.02-0.12,0.01-0.18c2.69-6.01,7.08-18.67,7.13-18.8l9.3-28.83c-1.08-0.26-6.09-0.84-10.2,9.38
						c-1.19,2.96-2.49,6.53-3.87,10.31c-4.17,11.42-8.89,24.36-13.05,27.61c-1.56,1.22-3.76,1.86-5.69,2.43
						c-1.89,0.55-3.52,1.03-3.94,1.85c-0.13,0.26-0.14,0.55-0.01,0.89c0.19,0.52,0.52,0.88,1.02,1.09c1.78,0.77,4.92-0.56,4.95-0.57
						c0.1-0.04,0.21-0.01,0.28,0.07c0.07,0.08,0.07,0.2,0.01,0.29c-0.02,0.03-2.31,3.32-2.05,9.12c0.14,3.09,1.28,4.11,1.94,4.44
						c0.62,0.31,1.21,0.22,1.53,0.01c0.1-0.07,0.27-0.22,0.25-0.44c-0.01-0.1,0.05-0.2,0.14-0.24
						C57.81,164.2,57.85,164.19,57.88,164.19z"/>
				</g>
				<path class="st16" d="M67.28,162.79c-0.16-0.28-0.47-0.49-0.69-0.73c-0.21-0.23-0.4-0.48-0.58-0.74
					c-0.38-0.54-0.68-1.14-0.91-1.76c-0.46-1.26-0.57-2.61-0.37-3.93c0.02-0.11-0.12,0.01-0.13,0.06c-0.34,1.31-0.26,2.69,0.16,3.97
					c0.22,0.66,0.53,1.29,0.92,1.87c0.19,0.29,0.41,0.57,0.64,0.83c0.21,0.23,0.46,0.57,0.76,0.68
					C67.19,163.1,67.33,162.88,67.28,162.79z"/>
				<path class="st16" d="M62.6,160.96c-0.81-1.54-2.56-3.29-1.79-5.16c0.07-0.16-0.09-0.12-0.15-0.01
					c-1.57,3.24,3.77,5.75,1.64,8.88c-0.07,0.1-0.05,0.26,0.09,0.16c0.51-0.38,0.72-1.1,0.75-1.7
					C63.18,162.37,62.95,161.64,62.6,160.96z"/>
				<path class="st16" d="M58.14,161.26c-0.51-1.68-1.92-3.86-0.78-5.58c0.06-0.08,0-0.19-0.08-0.08c-1,1.32-0.65,2.93-0.1,4.37
					c0.58,1.52,1.48,3.58,0.08,4.93c-0.08,0.07-0.22,0.5,0,0.34C58.52,164.37,58.54,162.59,58.14,161.26z"/>
				<g>
					<path class="st17" d="M62.99,163.77c0.01,0.01,0.02,0.02,0.02,0.02c0,0,0-0.01,0-0.01C63,163.77,62.99,163.77,62.99,163.77z"/>
				</g>
				<path class="st2" d="M55.29,162.81c-0.14-0.31-0.27-0.63-0.38-0.95c-0.23-0.68-0.39-1.39-0.46-2.11
					c-0.07-0.7-0.07-1.4,0.02-2.09c0.09-0.71,0.3-1.39,0.48-2.08c0.04-0.13-0.1-0.04-0.13,0.02c-0.68,1.3-0.86,2.89-0.79,4.32
					c0.03,0.75,0.15,1.51,0.36,2.23c0.1,0.35,0.22,0.69,0.36,1.02c0.12,0.29,0.27,0.79,0.57,0.93c0.18,0.08,0.34-0.26,0.33-0.39
					C55.63,163.4,55.42,163.11,55.29,162.81z"/>
			</g>
			<g class="st18">
				<path class="st17" d="M77.4,126.89l9.38-29.07c0,0-5.96-2.41-10.72,9.45c-4.76,11.86-11.14,33.39-16.85,37.82
					c-3.6,2.79-10.77,2.53-9.72,5.44c0,0,0,0,0,0c0.33-0.77,0.99-1.44,2.27-1.55c3.16-0.28,6.31-1.21,8.51-3.26
					c2.2-2.05,3.83-1.4,4.59-0.56c0.77,0.84,3.83-0.93,5.17,1.77c0.11,0.23,0.71,0.92,0.85,1.14c-0.24-1.18-0.51-1.94-0.68-2.41
					C72.93,139.56,77.4,126.89,77.4,126.89z"/>
			</g>
			<g class="st19">
				<path class="st2" d="M68.88,159.66c-1.96-1.59-2.45-4.34,0.26-6.81c0.6-0.55,0.97-1.19,1.19-1.87c-0.14,0.13-0.28,0.29-0.4,0.5
					c-1.18,2.11-3.84,2.69-6.21,3.17c-2.36,0.48-6.31,0.67-6.01-1.54c0.3-2.21,4.83-0.58,4.93-2.02c-3.15,0.67-5.03-1.54-5.03-1.54
					s-0.89,0.19-1.84,1.63c0,0-2.36,3.31-2.1,9.27c0.05,1.22,0.27,2.15,0.57,2.87c-0.26-2.21-0.46-5.78,0.69-7.74
					c0.97-1.46,1.37-0.29,1.18,1.83c-0.21,2.33,0.56,2.4,1.05,3.97c0.42,1.35,0.27,2.9-0.8,3.91c0.85,0.14,1.55-0.3,1.5-0.87
					c0.22,0.25,0.46,0.45,0.71,0.6c0.36-0.66,0.66-1.77,0.28-3.44c-0.7-3.08-2.11-5.2-0.07-6.02c1.33-0.27,0.63,2.46,2.18,4.38
					c1.11,1.38,1.78,3.35,1.29,4.83c0.39-0.3,0.66-0.66,0.73-1.01c0.2,0.25,0.42,0.45,0.65,0.62c-0.08-0.88-0.35-2.05-1.05-3.42
					c-1.56-3.07-1.42-5.13,0.06-5.33c1.47-0.21,1.05,2.19,1.26,3.49c0.18,1.13,1.59,3.2,3.07,4.89c0.16-0.32,0.21-0.71,0.06-1.17
					c0.2,0.12,0.39,0.2,0.58,0.27c-0.95-0.96-2.18-2.61-2.59-5.01c-0.14-1.92,0.21-2.6,1.05-2.4c0.84,0.21-0.07,2.67,1.97,4.24
					c0.72,0.56,1.3,1.03,1.74,1.48C69.79,160.82,69.51,160.17,68.88,159.66z"/>
			</g>
			<path class="st2" d="M68.57,152.5c-0.36,0.16-0.68,0.4-1.02,0.59c-0.37,0.2-0.75,0.38-1.14,0.53c-0.79,0.31-1.62,0.53-2.46,0.65
				c-1.66,0.24-3.35,0.08-4.97-0.34c-0.09-0.02-0.24,0.23-0.15,0.27c1.57,0.68,3.33,0.84,5.03,0.59c0.84-0.12,1.66-0.33,2.44-0.64
				c0.76-0.3,1.64-0.67,2.23-1.24C68.58,152.87,68.81,152.39,68.57,152.5z"/>
			<path class="st2" d="M55.92,150.43c-0.52,0.07-1.02,0.24-1.54,0.34c-0.54,0.1-1.09,0.15-1.64,0.15c-1.04,0-2.04-0.19-2.66-1.07
				c-0.08-0.11-0.24,0.15-0.22,0.23c0.22,1.08,1.43,1.46,2.41,1.51c1.17,0.06,2.51-0.1,3.52-0.71
				C55.86,150.83,56.13,150.4,55.92,150.43z"/>
			<path class="st20" d="M59.18,160.76c-0.25-1.38-0.72-2.75-1.26-4.05c-0.03-0.08-0.16,0.11-0.16,0.16
				c0.2,1.36,0.68,2.66,0.93,4.01c0.11,0.63,0.19,1.28,0.17,1.92c-0.01,0.32-0.04,0.64-0.1,0.95c-0.06,0.3-0.19,0.59-0.22,0.89
				c-0.02,0.26,0.25,0.06,0.32-0.04c0.32-0.52,0.41-1.21,0.45-1.8C59.35,162.12,59.3,161.43,59.18,160.76z"/>
			<path class="st2" d="M64.3,162.81c-0.15-0.24-0.29-0.48-0.43-0.72c-0.26-0.46-0.49-0.92-0.7-1.4c-0.43-0.98-0.82-1.98-1.13-3
				c-0.04-0.13-0.2,0.09-0.19,0.17c0.13,1.14,0.4,2.25,0.85,3.31c0.22,0.51,0.47,1.02,0.74,1.5c0.14,0.24,0.28,0.49,0.43,0.72
				c0.14,0.22,0.25,0.43,0.52,0.5c0.14,0.04,0.25-0.24,0.25-0.33C64.6,163.27,64.45,163.06,64.3,162.81z"/>
			<path class="st2" d="M67.8,162.07c-0.13-0.19-0.32-0.33-0.48-0.49c-0.17-0.17-0.32-0.35-0.47-0.54
				c-0.29-0.38-0.55-0.78-0.76-1.21c-0.4-0.83-0.62-1.75-0.69-2.66c-0.01-0.13-0.19,0.09-0.19,0.14c-0.1,0.99,0.07,1.97,0.47,2.89
				c0.2,0.45,0.44,0.88,0.74,1.28c0.14,0.19,0.3,0.37,0.46,0.55c0.17,0.18,0.35,0.39,0.58,0.49
				C67.64,162.6,67.89,162.21,67.8,162.07z"/>
			<g class="st19">
				<path class="st2" d="M86.78,97.82c0,0-5.96-2.41-10.72,9.45c-0.1,0.25-0.2,0.5-0.3,0.76c0.65-1.25,1.76-2.84,3.14-2.48
					c2.23,0.57,1.76,4.46,0.35,7.78c-1.41,3.32-3.64,12.36-4.34,17.62c-0.12,0.87-0.15,2.81-0.26,3.64c1.58-3.7,2.75-7.7,2.75-7.7
					L86.78,97.82z"/>
			</g>
			<path class="st21" d="M64.8,136.22c0,0-0.24,7.5,7.12,5.43c-1.24,2.42-1.44,2.78-1.57,3.43c-0.67-1.73-3.81-2.2-5.6-2.1
				c-1.79,0.1-2.84,0.01-3.99,0.45C60.76,143.42,64.4,137.75,64.8,136.22z"/>
		</g>
		<path class="st16" d="M64.32,150.88c-2.46,0.67-5.03,0.27-7.09-1.28c-0.03-0.02-0.1,0.08-0.07,0.11c1.82,1.72,4.69,2.38,7.07,1.48
			C64.32,151.15,64.48,150.83,64.32,150.88z"/>
		<g>
			<g>
				<g>
					<path class="st2" d="M97.83,105.67c7.36-0.77,8.69-7,9.12-11.79c-5.58,0.27-12.74,1.28-17.3,2.01
						C89.62,99.75,90.6,106.43,97.83,105.67z"/>
					<path class="st3" d="M96.75,105.97c-1.87,0-3.4-0.54-4.58-1.61c-2.31-2.1-2.77-5.77-2.76-8.48c0-0.12,0.09-0.22,0.2-0.23
						c4.87-0.77,11.84-1.75,17.33-2.01c0.07,0,0.13,0.02,0.18,0.07c0.05,0.05,0.07,0.12,0.07,0.19c-0.46,5.19-1.93,11.24-9.33,12.01
						l0,0C97.47,105.95,97.1,105.97,96.75,105.97z M97.83,105.67L97.83,105.67L97.83,105.67z M89.88,96.09
						c0.01,2.59,0.48,5.99,2.6,7.92c1.3,1.18,3.09,1.66,5.32,1.43l0,0c6.92-0.72,8.41-6.36,8.88-11.31
						C101.33,94.41,94.65,95.34,89.88,96.09z"/>
				</g>
				<path class="st17" d="M94.39,100.29c4.15-0.06,8.22-1.26,12.03-2.85c0.27-1.2,0.43-2.42,0.53-3.56
					c-5.58,0.27-12.74,1.28-17.3,2.01c-0.01,1.16,0.08,2.57,0.39,3.96C91.46,100.17,92.92,100.31,94.39,100.29z"/>
				<g>
					<path class="st22" d="M115.73,108.41c-3.58-5.48-2.32-8-1.68-14.11c-1.41-0.49-4.02-0.57-7.1-0.42
						c-0.42,4.8-1.76,11.03-9.12,11.79c-7.23,0.75-8.21-5.92-8.18-9.79c-2.7,0.43-4.49,0.75-4.49,0.75s-0.28,3.55-0.85,8.94
						c-0.57,4.83-10.48,17.15-7.95,43.27c7.37,10.74,40.89,13.2,59-4.07C129.66,120.35,120.37,114.73,115.73,108.41z"/>
					<path class="st23" d="M100.78,157.56c-1.98,0-3.87-0.1-5.66-0.29c-8.96-0.93-16.05-4.03-18.97-8.29
						c-0.02-0.03-0.04-0.07-0.04-0.11c-1.9-19.68,3.33-31.79,6.14-38.29c0.97-2.24,1.67-3.86,1.81-5.03
						c0.56-5.33,0.85-8.9,0.85-8.93c0.01-0.11,0.09-0.2,0.2-0.22c0.02,0,1.83-0.33,4.5-0.75c0.07-0.01,0.14,0.01,0.19,0.05
						c0.05,0.05,0.08,0.11,0.08,0.18c-0.02,2.61,0.42,6.14,2.6,8.12c1.3,1.18,3.09,1.66,5.32,1.43c7.05-0.73,8.46-6.57,8.9-11.58
						c0.01-0.12,0.11-0.21,0.23-0.22c3.46-0.16,5.88-0.02,7.19,0.43c0.1,0.04,0.17,0.14,0.16,0.25c-0.11,1.08-0.24,2.06-0.36,2.93
						c-0.56,4.11-0.89,6.59,2.01,11.02c0.94,1.28,2.05,2.51,3.33,3.93c4.97,5.49,11.78,13.02,16.32,32.52
						c0.02,0.08-0.01,0.17-0.07,0.23C125.71,154.3,112.02,157.56,100.78,157.56z M76.58,148.77c2.86,4.12,9.81,7.12,18.59,8.03
						c11.83,1.23,28.51-1.3,39.92-12.1c-4.51-19.28-11.25-26.73-16.17-32.18c-1.24-1.37-2.41-2.67-3.37-3.97c0,0,0-0.01-0.01-0.01
						c-3-4.59-2.66-7.14-2.08-11.35c0.11-0.81,0.23-1.73,0.34-2.72c-1.26-0.38-3.49-0.5-6.63-0.36c-0.48,5.14-2.01,11.04-9.31,11.8
						c-2.38,0.25-4.29-0.28-5.69-1.55c-2.23-2.02-2.74-5.52-2.76-8.2c-2.04,0.33-3.54,0.59-4.03,0.67
						c-0.07,0.79-0.35,4.11-0.84,8.77c-0.15,1.24-0.86,2.89-1.84,5.17C79.7,117.69,74.7,129.25,76.58,148.77z"/>
				</g>
			</g>
			<g class="st24">
				<path class="st25" d="M115.73,108.41c-3.58-5.48-2.32-8-1.68-14.11c-1.41-0.49-4.02-0.57-7.1-0.42
					c-0.42,4.8-1.76,11.03-9.12,11.79c-7.23,0.75-8.21-5.92-8.18-9.79c-2.7,0.43-4.49,0.75-4.49,0.75s-0.08,0.96-0.23,2.64
					c0.74,0.11,1.7,0.2,2.92,0.2c0,0-1.93,10.52,7.41,10.37c9.33-0.15,11.23-1.56,15.97,8.52c4.74,10.07,7.26,24.74-4.59,28.29
					c5.93,0.74,11.41-5.63,13.18-2.22c1.78,3.41,0.47,11.48-20.86,10.3c-21.33-1.18-21.03-6.22-21.18-8.89
					c-0.15-2.67,1.18-3.26,6.07-1.48c-5.48-6.07-5.63-12.74-4.44-19.11c1.19-6.37,4.44-13.04,4.74-18.52c0.01-0.12,0-0.23,0-0.34
					c-1.39,5.32-10.19,17.68-7.79,42.47c7.37,10.74,40.89,13.2,59-4.07C129.66,120.35,120.37,114.73,115.73,108.41z"/>
			</g>
			<g class="st24">
				<path class="st26" d="M115.73,108.41c-3.58-5.48-2.32-8-1.68-14.11c-1.41-0.49-4.02-0.57-7.1-0.42
					c-0.42,4.8-1.76,11.03-9.12,11.79c-7.23,0.75-8.21-5.92-8.18-9.79c-0.67,0.11-1.29,0.21-1.83,0.3c0.37,3.8,1.86,10.3,7.76,11.33
					c8.42,1.46,12.44-4.57,13.17-9.15l1.68,0.13c0,0-1.92,6.56,1.38,9.67c3.29,3.11,8.6,8.05,11.34,18.48
					c2.74,10.43,0.24,11.98-0.86,13.26c-1.1,1.28,2.01,0.73,5.12-1.65c3.11-2.38,3.11,2.01,4.03,5.49c0.62,2.34-1.52,5.43-6.27,8.09
					c3.69-1.84,7.15-4.17,10.18-7.06C129.66,120.35,120.37,114.73,115.73,108.41z"/>
			</g>
		</g>
		<g>
			<g>
				<g>
					<path class="st2" d="M128.58,73.94c10.95,5.05,14.18-14.09,8.14-16.01c-4.16-1.32-7.3,1.26-8.43,6.46
						c-3.93-4.49,0-12.64-3.93-17.13c-0.28,4.77-2.53,6.18-2.53,6.18s0.56-5.06-1.97-10.95c0.84,6.18-1.97,7.3-1.97,7.3
						s1.97-7.3-7.58-12.64c-9.55-5.34-7.58-9.83-7.58-9.83c-4.21,4.49-1.12,8.43-1.12,8.43s-5.05-3.93-3.93-9.55
						c-3.93,7.3-10.67,6.18-10.67,6.18s4.49-3.37,2.25-6.46c-6.46,8.43-13.2,5.06-13.2,5.06s3.93-1.12,3.09-4.77
						c-8.71,7.58-18.79,9.89-18.79,9.89s-4.86,5.63-4.35,14.08c0.51,8.45-0.26,10.24-1.79,15.87c-1.54,5.63-2.19,26.65,26.06,31.22
						c27.8,4.49,39.97-11,39.97-11C124.28,82.55,127.46,79.56,128.58,73.94z"/>
					<path class="st3" d="M90,98.3c-3.02,0-6.27-0.25-9.76-0.81c-10.88-1.76-18.62-6.1-23.01-12.91c-4.62-7.17-4.14-15.3-3.24-18.6
						c0.13-0.49,0.26-0.95,0.38-1.38c1.28-4.62,1.87-6.73,1.4-14.41c-0.51-8.44,4.36-14.19,4.41-14.25
						c0.03-0.04,0.08-0.06,0.13-0.08c0.1-0.02,10.13-2.38,18.69-9.84c0.06-0.05,0.15-0.07,0.23-0.05c0.08,0.03,0.14,0.09,0.16,0.17
						c0.67,2.92-1.56,4.32-2.67,4.83c0.68,0.23,1.94,0.53,3.53,0.39c3.18-0.28,6.23-2.21,8.83-5.59c0.05-0.06,0.11-0.11,0.19-0.09
						c0.08,0,0.15,0.04,0.19,0.1c1.9,2.62-0.74,5.41-1.85,6.41c1.66,0.07,6.72-0.25,9.87-6.1c0.06-0.1,0.18-0.15,0.29-0.11
						c0.11,0.04,0.18,0.15,0.15,0.27c-0.76,3.81,1.44,6.86,2.82,8.34c-0.61-1.58-1.01-4.39,1.83-7.42c0.08-0.09,0.21-0.1,0.3-0.04
						c0.1,0.06,0.13,0.19,0.09,0.29c-0.02,0.04-1.73,4.38,7.48,9.53c5,2.8,6.83,6.15,7.49,8.46c0.48,1.72,0.42,3.13,0.32,3.87
						c0.71-0.62,1.99-2.38,1.39-6.76c-0.02-0.12,0.06-0.23,0.17-0.26c0.12-0.03,0.23,0.03,0.28,0.14c2.03,4.74,2.08,8.99,2.02,10.49
						c0.63-0.65,1.82-2.3,2.02-5.64c0.01-0.1,0.07-0.18,0.16-0.21c0.09-0.03,0.19,0,0.26,0.07c2.02,2.31,2.02,5.57,2.02,8.72
						c0,2.89,0,5.88,1.61,8.04c0.69-2.77,1.96-4.77,3.71-5.78c1.41-0.82,3.11-0.95,4.91-0.38c1.53,0.48,2.59,2.02,3,4.32
						c0.66,3.76-0.59,9.16-3.84,11.66c-2.01,1.55-4.49,1.75-7.2,0.59c-1.21,5.59-4.52,8.64-8.34,12.15
						C120.33,86.54,110.81,98.3,90,98.3z M60.5,36.3c-0.5,0.61-4.72,6.05-4.25,13.85c0.47,7.75-0.12,9.89-1.42,14.56
						c-0.12,0.44-0.25,0.9-0.38,1.38c-0.88,3.23-1.35,11.19,3.18,18.22c4.31,6.69,11.94,10.97,22.68,12.7
						c14.28,2.31,24.33-0.78,30.24-3.78c6.41-3.25,9.48-7.09,9.51-7.13c3.85-3.54,7.16-6.58,8.28-12.21
						c0.01-0.07,0.06-0.13,0.13-0.17c0.07-0.03,0.14-0.03,0.21,0c2.64,1.22,5.05,1.08,6.98-0.41c3.11-2.39,4.3-7.57,3.66-11.2
						c-0.37-2.12-1.32-3.53-2.67-3.95c-1.69-0.54-3.21-0.42-4.53,0.34c-1.73,1-2.97,3.06-3.59,5.95c-0.02,0.09-0.09,0.16-0.17,0.18
						c-0.09,0.02-0.18-0.01-0.24-0.07c-2.02-2.31-2.02-5.57-2.02-8.72c0-2.85,0-5.79-1.54-7.94c-0.43,4.36-2.5,5.7-2.59,5.76
						c-0.08,0.05-0.18,0.05-0.25,0c-0.08-0.05-0.12-0.14-0.11-0.23c0-0.05,0.43-4.19-1.34-9.27c0.18,4.83-2.15,5.83-2.26,5.87
						c-0.08,0.03-0.18,0.02-0.25-0.04c-0.07-0.06-0.09-0.15-0.07-0.24c0-0.02,0.47-1.81-0.22-4.22c-0.63-2.22-2.4-5.44-7.25-8.15
						c-7.18-4.01-7.97-7.57-7.87-9.2c-3.15,3.99-0.64,7.29-0.53,7.44c0.07,0.09,0.07,0.23-0.02,0.31c-0.09,0.09-0.22,0.09-0.31,0.02
						c-0.05-0.04-4.47-3.54-4.17-8.61c-2,3.11-4.52,4.4-6.36,4.93c-2.2,0.64-3.9,0.37-3.97,0.36c-0.09-0.02-0.17-0.09-0.19-0.18
						s0.01-0.19,0.09-0.25c0.04-0.03,4.02-3.07,2.37-5.86c-3.32,4.2-6.71,5.32-8.99,5.52c-2.54,0.21-4.23-0.62-4.3-0.66
						c-0.09-0.04-0.14-0.14-0.13-0.23c0.01-0.1,0.08-0.18,0.17-0.21c0.15-0.04,3.42-1.02,3-4.09C70.82,33.62,61.46,36.06,60.5,36.3z
						"/>
				</g>
				<g>
					<path class="st17" d="M136.73,57.93c-4.16-1.32-7.3,1.26-8.43,6.46c-3.93-4.49,0-12.64-3.93-17.13
						c-0.28,4.77-2.53,6.18-2.53,6.18s0.56-5.06-1.97-10.95c0.84,6.18-1.97,7.3-1.97,7.3s1.97-7.3-7.58-12.64
						c-9.55-5.34-7.58-9.83-7.58-9.83c-4.21,4.49-1.12,8.43-1.12,8.43s-5.05-3.93-3.93-9.55c-3.93,7.3-10.67,6.18-10.67,6.18
						s4.49-3.37,2.25-6.46c-6.46,8.43-13.2,5.06-13.2,5.06s3.93-1.12,3.09-4.77c-8.71,7.58-18.79,9.89-18.79,9.89
						s-1.03,1.21-2.09,3.32c1.42,0.04,3.35-0.26,5.18-1.73c0,0-0.59,2.04-2.53,3.23c8.86,0.65,11.23-3.35,12.31-4.75
						c0,0,0.3,1.02-0.36,2.34c5.54,0.26,11.48-3.17,12.53-5.28c-0.92,2.77-0.92,2.77-0.92,2.77s6.86-0.13,11.48-4.75
						c0,0,1.32,6.99,8.44,10.42c-1.85-2.77-0.79-5.15-0.79-5.15s15.17,6.73,12.01,21.11c2.77-2.64,3.3-4.88,3.3-4.88
						s2.22,0.56,1.66,9.4c1.83-0.84,2.25-4.63,2.25-4.63s5.34,44.79-44.37,39.32c-0.32-0.04-0.62-0.06-0.94-0.1
						c0.89,0.19,1.81,0.36,2.76,0.52c27.8,4.49,39.97-11,39.97-11c4.03-3.7,7.21-6.69,8.33-12.31
						C139.53,78.99,142.76,59.85,136.73,57.93z"/>
				</g>
				<g>
					<path class="st27" d="M66.35,34.03c0,0,1.01,1.57-0.82,3.54c0,0,5.9,0.56,10.53-6.6c0,0,0.84,1.68-0.7,3.79
						c5.34,0.14,12.22-3.65,13.9-8.85c2.25,3.09-2.25,6.46-2.25,6.46s6.74,1.12,10.67-6.18c-1.12,5.62,3.93,9.55,3.93,9.55
						s-3.09-3.93,1.12-8.43c0,0-1.97,4.49,7.58,9.83c9.55,5.34,7.58,12.64,7.58,12.64s2.81-1.12,1.97-7.3
						c2.53,5.9,1.97,10.95,1.97,10.95s2.25-1.4,2.53-6.18c3.93,4.49,0,12.64,3.93,17.13c1.12-5.2,4.27-7.78,8.43-6.46
						c6.03,1.92,2.81,21.06-8.14,16.01c-1.12,5.62-4.3,8.61-8.33,12.31c0,0,21.75-3.07,22.01-27.13c2.81,4.35,5.63,2.05,5.63,2.05
						s-5.37-2.81-4.61-8.7c0.77-5.89-4.09-27.9-17.66-31.22c0,0,4.35-2.56,6.91-0.26c-3.33-6.4-7.93-2.3-7.93-2.3
						s0.26-4.86-4.86-6.65c2.56,2.05,1.28,6.14,1.28,6.14c-14.08-12.03-41.46-3.58-48.63,1.02c-6.39,4.11-9.98,5.37-12.03,0.77
						c-1.54,6.4,3.58,7.17,3.58,7.17s-6.79,0.76-8.62,6.94c3.21-2.52,7.7-2.89,7.7-2.89s-1.45,5.56-9.24,4.87
						C57,40.64,65.62,36.82,66.35,34.03z"/>
					<path class="st28" d="M120.25,86.49c-0.09,0-0.18-0.05-0.22-0.14c-0.04-0.09-0.02-0.21,0.05-0.28
						c3.83-3.52,7.13-6.55,8.26-12.18c0.01-0.07,0.06-0.13,0.13-0.17c0.07-0.03,0.14-0.03,0.21,0c2.64,1.22,5.05,1.08,6.98-0.41
						c3.11-2.39,4.3-7.57,3.66-11.2c-0.37-2.12-1.32-3.53-2.67-3.95c-1.69-0.54-3.21-0.42-4.53,0.34c-1.73,1-2.97,3.06-3.59,5.95
						c-0.02,0.09-0.09,0.16-0.17,0.18c-0.09,0.02-0.18-0.01-0.24-0.07c-2.02-2.31-2.02-5.57-2.02-8.72c0-2.85,0-5.79-1.54-7.94
						c-0.43,4.36-2.5,5.7-2.59,5.76c-0.08,0.05-0.18,0.05-0.25,0c-0.08-0.05-0.12-0.14-0.11-0.23c0-0.05,0.43-4.19-1.34-9.27
						c0.18,4.83-2.15,5.83-2.26,5.87c-0.08,0.03-0.18,0.02-0.25-0.04c-0.07-0.06-0.09-0.15-0.07-0.24c0-0.02,0.47-1.81-0.22-4.22
						c-0.63-2.22-2.4-5.44-7.25-8.15c-7.18-4.01-7.97-7.57-7.87-9.2c-3.15,3.99-0.64,7.29-0.53,7.44c0.07,0.09,0.07,0.23-0.02,0.31
						c-0.09,0.09-0.22,0.09-0.31,0.02c-0.05-0.04-4.47-3.54-4.17-8.61c-4.02,6.26-10.26,5.3-10.33,5.29
						c-0.09-0.02-0.17-0.09-0.19-0.18s0.01-0.19,0.09-0.25c0.04-0.03,3.89-2.97,2.45-5.73c-2.02,5.22-8.86,8.67-13.97,8.54
						c-0.09,0-0.17-0.05-0.21-0.13c-0.04-0.08-0.03-0.17,0.02-0.25c0.99-1.35,0.95-2.51,0.82-3.11c-4.62,6.77-10.42,6.3-10.48,6.29
						c-0.09-0.01-0.17-0.07-0.2-0.15c-0.03-0.09-0.01-0.18,0.05-0.25c1.09-1.17,1.11-2.17,0.98-2.74c-0.87,1.54-3.54,3.1-6.29,3.6
						c-2.87,0.52-5.16-0.22-6.46-2.08c-0.05-0.08-0.06-0.18-0.01-0.26c0.05-0.08,0.12-0.13,0.23-0.12c6.37,0.57,8.4-3.18,8.86-4.35
						c-1.13,0.15-4.62,0.76-7.2,2.79c-0.08,0.06-0.19,0.07-0.28,0.01c-0.09-0.06-0.12-0.17-0.09-0.26c1.43-4.84,5.88-6.44,7.86-6.92
						c-0.68-0.28-1.59-0.81-2.25-1.79c-0.91-1.35-1.1-3.16-0.57-5.38c0.02-0.1,0.11-0.17,0.21-0.18c0.09-0.01,0.2,0.05,0.24,0.14
						c0.65,1.47,1.48,2.34,2.52,2.65c2.09,0.62,5.17-0.95,9.16-3.52c6.84-4.4,34.32-13.03,48.62-1.25c0.23-1.01,0.68-3.95-1.29-5.53
						c-0.09-0.07-0.12-0.2-0.06-0.3c0.06-0.1,0.18-0.15,0.29-0.11c4.26,1.49,4.91,5.09,5.01,6.4c0.67-0.47,2.14-1.3,3.84-0.99
						c1.6,0.3,2.97,1.52,4.08,3.65c0.05,0.1,0.03,0.23-0.07,0.3c-0.09,0.07-0.22,0.07-0.3-0.01c-1.89-1.7-4.88-0.56-6.09,0.01
						c13.04,3.8,18.05,25.09,17.24,31.32c-0.74,5.65,4.43,8.43,4.48,8.46c0.07,0.04,0.12,0.11,0.13,0.19
						c0.01,0.08-0.02,0.16-0.09,0.21c-0.04,0.04-1.06,0.85-2.51,0.62c-1.09-0.17-2.12-0.88-3.05-2.12
						c-0.36,12.06-6.25,18.64-11.19,22.05c-5.45,3.76-10.96,4.58-11.01,4.58C120.27,86.49,120.26,86.49,120.25,86.49z M128.75,74.28
						c-1.14,5.29-4.17,8.3-7.72,11.58c3.93-0.87,20.77-5.82,20.99-26.74c0-0.11,0.07-0.2,0.17-0.23c0.1-0.03,0.21,0.01,0.27,0.1
						c0.96,1.49,2.02,2.33,3.14,2.51c0.81,0.13,1.48-0.13,1.84-0.33c-1.19-0.76-5.06-3.64-4.39-8.74
						c0.81-6.23-4.25-27.72-17.48-30.96c-0.09-0.02-0.16-0.1-0.18-0.2c-0.01-0.1,0.03-0.19,0.11-0.24c0.17-0.1,3.67-2.13,6.31-0.82
						c-0.93-1.45-2.02-2.3-3.23-2.52c-2.05-0.38-3.8,1.15-3.82,1.17c-0.07,0.06-0.17,0.08-0.26,0.04c-0.09-0.04-0.14-0.13-0.13-0.23
						c0.01-0.18,0.15-4.05-3.68-5.98c1.57,2.21,0.6,5.4,0.56,5.55c-0.02,0.08-0.09,0.14-0.16,0.16c-0.08,0.02-0.16,0-0.22-0.05
						c-14.03-11.99-41.53-3.34-48.34,1.04c-4.22,2.71-7.29,4.26-9.56,3.57c-1.02-0.3-1.84-1.05-2.51-2.28
						c-0.31,1.78-0.1,3.23,0.64,4.33c1.06,1.58,2.87,1.87,2.89,1.88c0.12,0.02,0.2,0.12,0.2,0.24c0,0.12-0.09,0.22-0.21,0.23
						c-0.06,0.01-6.13,0.75-8.18,6.07c3.15-2.13,7.04-2.48,7.21-2.49c0.07-0.01,0.15,0.03,0.2,0.08c0.05,0.06,0.07,0.14,0.05,0.21
						c-0.01,0.06-1.53,5.5-8.95,5.08c1.64,1.86,4.22,1.73,5.66,1.47c2.88-0.52,5.75-2.3,6.15-3.83c0.02-0.09,0.1-0.16,0.19-0.18
						c0.09-0.01,0.19,0.03,0.24,0.11c0.04,0.07,0.96,1.54-0.51,3.43c1.49-0.06,6.09-0.73,9.82-6.49c0.05-0.07,0.12-0.12,0.21-0.11
						c0.09,0,0.16,0.05,0.2,0.13c0.04,0.07,0.79,1.64-0.47,3.66c5.03-0.08,11.61-3.7,13.23-8.68c0.03-0.09,0.1-0.15,0.19-0.16
						c0.09-0.02,0.18,0.02,0.23,0.09c1.9,2.62-0.74,5.41-1.85,6.41c1.66,0.07,6.72-0.25,9.87-6.1c0.06-0.1,0.18-0.15,0.29-0.11
						c0.11,0.04,0.18,0.15,0.15,0.27c-0.76,3.81,1.44,6.86,2.82,8.34c-0.61-1.58-1.01-4.39,1.83-7.42c0.08-0.09,0.21-0.1,0.3-0.04
						c0.1,0.06,0.13,0.19,0.09,0.29c-0.02,0.04-1.73,4.38,7.48,9.53c5,2.8,6.83,6.15,7.49,8.46c0.48,1.72,0.42,3.13,0.32,3.87
						c0.71-0.62,1.99-2.38,1.39-6.76c-0.02-0.12,0.06-0.23,0.17-0.26c0.12-0.03,0.24,0.03,0.28,0.14c2.03,4.74,2.08,8.99,2.02,10.49
						c0.63-0.65,1.82-2.3,2.02-5.64c0.01-0.1,0.07-0.18,0.16-0.21c0.09-0.03,0.19,0,0.26,0.07c2.02,2.31,2.02,5.57,2.02,8.72
						c0,2.89,0,5.88,1.61,8.04c0.69-2.77,1.96-4.77,3.71-5.78c1.41-0.82,3.11-0.95,4.91-0.38c1.53,0.48,2.59,2.02,3,4.32
						c0.66,3.76-0.59,9.16-3.84,11.66C133.94,75.24,131.46,75.44,128.75,74.28z"/>
				</g>
			</g>
			<g>
				<g>
					<path class="st21" d="M55.65,63.38c0,0,4.69-0.37,8.89,3.81c-0.16-1.39-0.16-1.39-0.16-1.39s5.27-0.85,4.58-8.41
						c-0.2-2.22-1.75-6.06-4.07-6.83c-2.6-0.86-4.87,0.96-5.77,3.22c-0.52,1.29-0.7,3.19-0.79,4.57c-0.02,0.25,0.12,3.33,0.28,3.3
						C58.62,61.66,56.82,61.95,55.65,63.38z"/>
					<path class="st3" d="M56.41,63.09c0,0,0.13-0.04,0.37-0.07c0.24-0.04,0.58-0.05,1-0.04c0.21,0.01,0.43,0.05,0.66,0.07
						c0.24,0.02,0.49,0.05,0.73,0.14c0.25,0.07,0.51,0.15,0.77,0.22c0.26,0.08,0.5,0.21,0.76,0.32c0.25,0.12,0.5,0.23,0.74,0.37
						c0.23,0.15,0.45,0.3,0.66,0.45c0.22,0.14,0.42,0.29,0.61,0.43c0.18,0.15,0.33,0.32,0.48,0.46c0.58,0.58,0.94,0.99,0.94,0.99
						s-0.45-0.32-1.09-0.82c-0.16-0.12-0.32-0.27-0.51-0.4c-0.2-0.12-0.41-0.24-0.62-0.38c-0.21-0.13-0.43-0.27-0.65-0.41
						c-0.23-0.13-0.48-0.22-0.72-0.33c-0.24-0.11-0.47-0.25-0.72-0.34c-0.25-0.08-0.49-0.16-0.73-0.24
						c-0.23-0.09-0.47-0.14-0.69-0.19c-0.22-0.05-0.43-0.11-0.63-0.13c-0.4-0.04-0.73-0.11-0.97-0.1
						C56.54,63.08,56.41,63.09,56.41,63.09z"/>
					<g>
						<g>
							<path class="st29" d="M68.27,56.65c0.31,2.18-0.07,4.5-1.22,6.24c-0.88,1.35-3.03,2.31-4.62,1.79c-1.8-0.58-3-2.46-3.35-4.27
								c-0.6-3.09,0.24-7.46,3.17-8.86c2.57-1.22,4.96,1.14,5.7,3.63C68.1,55.66,68.2,56.15,68.27,56.65z"/>
							<path class="st30" d="M68.27,56.65c0,0,0.02,0.14,0.04,0.41c0.04,0.27,0.06,0.66,0.06,1.16c-0.01,0.5-0.05,1.11-0.17,1.8
								c-0.13,0.69-0.37,1.45-0.74,2.23c-0.1,0.19-0.21,0.38-0.32,0.58c-0.12,0.2-0.27,0.37-0.41,0.56
								c-0.16,0.17-0.35,0.33-0.53,0.49c-0.2,0.14-0.4,0.29-0.61,0.41c-0.86,0.49-1.94,0.81-3.05,0.56
								c-0.31-0.06-0.51-0.19-0.78-0.28c-0.24-0.14-0.5-0.29-0.73-0.46c-0.44-0.36-0.85-0.78-1.16-1.27
								c-0.64-0.95-1.04-2.14-1.13-3.28c-0.12-1.17-0.03-2.34,0.21-3.47c0.24-1.12,0.7-2.19,1.35-3.08
								c0.68-0.86,1.57-1.54,2.56-1.77c1-0.25,1.98,0.05,2.69,0.54c0.72,0.49,1.24,1.1,1.61,1.69c0.37,0.59,0.62,1.16,0.76,1.64
								C68.16,56.08,68.27,56.65,68.27,56.65z M68.27,56.65c0,0-0.12-0.56-0.35-1.54c-0.15-0.48-0.4-1.04-0.78-1.62
								c-0.38-0.58-0.9-1.19-1.63-1.64c-0.7-0.46-1.67-0.7-2.59-0.44c-0.93,0.25-1.76,0.92-2.37,1.76c-1.18,1.74-1.62,4.1-1.39,6.32
								c0.08,1.14,0.43,2.2,1.03,3.13c0.6,0.91,1.41,1.66,2.43,1.94c0.99,0.26,2.04,0,2.89-0.44c0.21-0.11,0.4-0.25,0.6-0.38
								c0.18-0.15,0.35-0.3,0.52-0.45c0.14-0.18,0.31-0.35,0.42-0.53c0.11-0.19,0.23-0.38,0.34-0.56c0.39-0.76,0.63-1.52,0.77-2.2
								c0.13-0.68,0.18-1.29,0.2-1.79c0-0.5-0.01-0.9-0.05-1.16C68.28,56.79,68.27,56.65,68.27,56.65z"/>
						</g>
						<g class="st24">
							<path class="st31" d="M62.26,51.56c0.09-0.04,0.18-0.07,0.27-0.1c-2.67,1.29-3.43,5.29-2.88,8.11
								c0.32,1.66,1.42,3.38,3.07,3.92c1.45,0.47,3.43-0.41,4.24-1.65c1.05-1.6,1.4-3.73,1.12-5.73c-0.06-0.45-0.16-0.9-0.29-1.34
								c-0.05-0.17-0.11-0.34-0.18-0.51c0.14,0.3,0.26,0.62,0.36,0.93c0.14,0.47,0.25,0.96,0.32,1.46c0.31,2.18-0.07,4.5-1.22,6.24
								c-0.88,1.35-3.03,2.31-4.62,1.79c-1.8-0.58-3-2.46-3.35-4.27C58.49,57.32,59.33,52.95,62.26,51.56z"/>
						</g>
						<g>
							<path class="st32" d="M60.37,58.04c-0.18,2.9,0.89,5.28,2.95,5.66c2.05,0.37,3.94-1.49,4.05-4.39
								c0.09-2.91-1.53-5.79-3.36-6.02C62.15,53.06,60.54,55.14,60.37,58.04z"/>
							<g>
								<path class="st33" d="M63.32,63.71c2.05,0.37,3.94-1.49,4.05-4.39c0.09-2.91-1.53-5.79-3.36-6.02
									c-1.85-0.23-3.46,1.85-3.63,4.75C60.19,60.94,61.26,63.33,63.32,63.71z M60.62,57.76c0.16-2.67,1.69-4.56,3.39-4.34
									c1.7,0.22,3.17,2.84,3.1,5.53c-0.07,2.68-1.85,4.4-3.77,4.05C61.41,62.65,60.46,60.44,60.62,57.76z"/>
							</g>
							<g class="st19">
								<path class="st34" d="M63.32,63.71c2.05,0.37,3.94-1.49,4.05-4.39c0.09-2.91-1.53-5.79-3.36-6.02
									c-1.85-0.23-3.46,1.85-3.63,4.75C60.19,60.94,61.26,63.33,63.32,63.71z M61.65,55.71c0.74-0.71,0.79-0.19,0.47,0.48
									c-0.31,0.67-1.27,2.92-0.3,4.57c0.47,0.78,1.17,1.15,1.19,1.41c0.02,0.24-1.58,0.17-2.11-1.47
									C60.28,58.82,60.9,56.43,61.65,55.71z"/>
							</g>
							<g class="st19">
								<path class="st34" d="M61.45,58.61c0.15-1.96,1.33-3.3,2.68-3.03c0.08,0.01,0.17,0.04,0.27,0.07
									c0.18-0.31,0.43-0.53,0.73-0.52c0.59,0.03,1.17,0.82,1.27,1.77c0.05,0.41,0.01,0.79-0.11,1.09
									c0.13,0.49,0.21,1.02,0.18,1.56c-0.08,1.96-1.44,3.21-2.88,2.94C62.14,62.22,61.32,60.57,61.45,58.61z"/>
							</g>
							<path class="st35" d="M62.09,58.66c-0.11,1.46,0.56,2.73,1.65,2.93c1.08,0.21,2.1-0.74,2.18-2.21
								c0.07-1.46-0.75-2.79-1.79-2.99C63.1,56.18,62.2,57.19,62.09,58.66z"/>
							<g class="st19">
								<path class="st34" d="M63.41,56.9c0.48,1.4,1.75,2.41,2.67,2.15c0.91-0.26,1.15-1.66,0.63-3.01
									c-0.52-1.35-1.62-2.53-2.48-2.2C63.36,54.17,62.94,55.51,63.41,56.9z"/>
							</g>
							<path class="st4" d="M64.1,56.73c0.37,1.07,1.31,1.83,1.98,1.64c0.67-0.19,0.84-1.26,0.43-2.28
								c-0.39-1.02-1.22-1.9-1.87-1.67C63.99,54.65,63.71,55.67,64.1,56.73z"/>
							<g>
								<path class="st32" d="M61.3,57.33c-0.19,1.14-0.33,3.42,1.21,4.43c0.9,0.59-1.34,0.37-1.69-2.12
									C60.55,57.72,61.53,55.88,61.3,57.33z"/>
							</g>
							<g>
								<path class="st32" d="M61.6,56.08c0.24,0.08,0.08,0.7-0.25,0.58C61.11,56.58,61.27,55.98,61.6,56.08z"/>
							</g>
						</g>
					</g>
				</g>
			</g>
			<g>
				<g>
					<g>
						<g>
							<path class="st21" d="M103.94,64.12c0,0-6.24-0.55-11.92,4.72c0.23-1.77,0.23-1.77,0.23-1.77s-7.02-1.17-5.99-10.79
								c0.3-2.83,2.16-6.59,5.26-7.53c3.47-1.06,6.49,1.3,7.65,4.2c0.67,1.65,1.1,3.44,1.2,5.21c0.02,0.32-0.15,3.77-0.37,3.73
								C100.02,61.89,102.41,62.28,103.94,64.12z"/>
							<path class="st3" d="M102.94,63.74c0,0-0.18-0.01-0.49,0.01c-0.31-0.01-0.75,0.07-1.28,0.11c-0.26,0.03-0.55,0.1-0.84,0.16
								c-0.3,0.06-0.61,0.12-0.92,0.23c-0.32,0.1-0.64,0.19-0.98,0.29c-0.33,0.1-0.64,0.27-0.97,0.4c-0.32,0.14-0.65,0.27-0.96,0.42
								c-0.3,0.18-0.6,0.35-0.88,0.51c-0.29,0.16-0.57,0.32-0.84,0.47c-0.27,0.15-0.48,0.35-0.7,0.5c-0.86,0.63-1.47,1.04-1.47,1.04
								s0.49-0.52,1.29-1.26c0.2-0.18,0.41-0.4,0.66-0.58c0.26-0.17,0.53-0.36,0.82-0.55c0.29-0.18,0.59-0.37,0.89-0.57
								c0.32-0.16,0.66-0.3,0.99-0.45c0.34-0.13,0.67-0.3,1.01-0.4c0.35-0.09,0.69-0.18,1.02-0.26c0.33-0.1,0.66-0.13,0.97-0.16
								c0.31-0.03,0.61-0.07,0.88-0.08c0.55,0,1,0.02,1.31,0.08C102.77,63.68,102.94,63.74,102.94,63.74z"/>
							<g>
								<g>
									<path class="st29" d="M87.73,56.09c-0.41,2.58,0.03,5.33,1.42,7.41c1.07,1.61,3.73,2.78,5.69,2.19
										c2.24-0.67,3.74-2.87,4.21-5.01c0.78-3.65-0.2-8.84-3.81-10.54c-3.17-1.48-6.16,1.27-7.11,4.22
										C87.96,54.93,87.82,55.5,87.73,56.09z"/>
									<path class="st30" d="M87.73,56.09c0,0-0.02,0.17-0.06,0.49c-0.05,0.32-0.07,0.8-0.08,1.4c0.02,0.3,0.03,0.63,0.05,1
										c0.05,0.36,0.09,0.75,0.18,1.16c0.17,0.82,0.47,1.73,0.96,2.63c0.46,0.93,1.27,1.74,2.32,2.26c1.03,0.52,2.3,0.82,3.5,0.54
										c1.24-0.31,2.26-1.15,3.03-2.23c0.76-1.09,1.22-2.34,1.34-3.72c0.17-1.33,0.1-2.71-0.17-4.01
										c-0.28-1.3-0.77-2.54-1.52-3.56c-0.76-0.99-1.77-1.79-2.91-2.07c-1.11-0.31-2.27-0.04-3.15,0.47
										c-0.89,0.51-1.56,1.21-2.04,1.89c-0.48,0.69-0.8,1.35-1,1.92c-0.17,0.57-0.26,1.04-0.35,1.35
										C87.77,55.92,87.73,56.09,87.73,56.09z M87.73,56.09c0,0,0.04-0.17,0.11-0.48c0.08-0.31,0.17-0.78,0.33-1.36
										c0.18-0.57,0.5-1.25,0.98-1.94c0.47-0.7,1.14-1.4,2.03-1.96c0.88-0.55,2.06-0.88,3.27-0.59c1.19,0.25,2.29,1.05,3.12,2.07
										c0.83,1.04,1.38,2.33,1.68,3.68c0.29,1.35,0.39,2.77,0.22,4.18c-0.13,1.37-0.65,2.8-1.47,3.91
										c-0.4,0.58-0.91,1.06-1.46,1.48c-0.3,0.18-0.6,0.37-0.91,0.51c-0.32,0.1-0.58,0.26-0.95,0.31
										c-1.34,0.26-2.64-0.11-3.69-0.68c-0.53-0.29-0.99-0.66-1.4-1.06c-0.18-0.22-0.35-0.43-0.51-0.65
										c-0.13-0.24-0.26-0.47-0.39-0.69c-0.46-0.94-0.76-1.84-0.91-2.67c-0.08-0.41-0.12-0.81-0.16-1.17
										c-0.01-0.36-0.03-0.7-0.04-1c0.02-0.61,0.04-1.08,0.1-1.4C87.71,56.26,87.73,56.09,87.73,56.09z"/>
								</g>
								<g class="st24">
									<path class="st31" d="M95.25,50.15c-0.11-0.05-0.22-0.09-0.33-0.13c3.29,1.57,4.18,6.31,3.46,9.66
										c-0.42,1.96-1.8,3.98-3.86,4.59c-1.81,0.54-4.24-0.54-5.23-2.01c-1.28-1.91-1.69-4.44-1.31-6.8
										c0.09-0.54,0.21-1.07,0.38-1.58c0.06-0.2,0.14-0.41,0.23-0.6c-0.18,0.36-0.33,0.73-0.46,1.1
										c-0.18,0.56-0.32,1.13-0.41,1.72c-0.41,2.58,0.03,5.33,1.42,7.41c1.07,1.61,3.73,2.78,5.69,2.19
										c2.24-0.67,3.74-2.87,4.21-5.01C99.84,57.04,98.86,51.84,95.25,50.15z"/>
								</g>
								<g>
									<path class="st32" d="M89.08,57.76c-0.21,3.48,1.06,6.33,3.53,6.78c2.45,0.44,4.72-1.78,4.85-5.26
										c0.11-3.49-1.83-6.94-4.02-7.21C91.21,51.79,89.28,54.28,89.08,57.76z"/>
									<g>
										<path class="st33" d="M92.61,64.54c2.45,0.44,4.72-1.78,4.85-5.26c0.11-3.49-1.83-6.94-4.02-7.21
											c-2.22-0.28-4.15,2.21-4.35,5.69C88.87,61.23,90.14,64.09,92.61,64.54z M89.38,57.42c0.2-3.19,2.03-5.46,4.07-5.2
											c2.04,0.27,3.8,3.4,3.72,6.63c-0.09,3.21-2.21,5.27-4.52,4.85C90.33,63.27,89.18,60.62,89.38,57.42z"/>
									</g>
									<g class="st19">
										<path class="st34" d="M92.61,64.54c2.45,0.44,4.72-1.78,4.85-5.26c0.11-3.49-1.83-6.94-4.02-7.21
											c-2.22-0.28-4.15,2.21-4.35,5.69C88.87,61.23,90.14,64.09,92.61,64.54z M90.61,54.96c0.89-0.85,0.94-0.23,0.57,0.58
											c-0.37,0.8-1.52,3.5-0.36,5.48c0.56,0.94,1.41,1.38,1.43,1.69c0.03,0.29-1.89,0.21-2.53-1.76
											C88.97,58.69,89.71,55.82,90.61,54.96z"/>
									</g>
									<g class="st19">
										<path class="st34" d="M90.37,58.43c0.17-2.35,1.59-3.96,3.21-3.63c0.1,0.01,0.21,0.04,0.32,0.09
											c0.21-0.37,0.52-0.64,0.88-0.62c0.71,0.03,1.4,0.99,1.52,2.13c0.06,0.5,0.01,0.95-0.13,1.31
											c0.16,0.58,0.25,1.22,0.22,1.87c-0.09,2.34-1.72,3.84-3.45,3.52C91.2,62.76,90.22,60.78,90.37,58.43z"/>
									</g>
									<path class="st35" d="M91.14,58.49c-0.13,1.75,0.67,3.27,1.98,3.51c1.3,0.25,2.52-0.89,2.61-2.65
										c0.08-1.75-0.9-3.34-2.14-3.58C92.35,55.52,91.27,56.73,91.14,58.49z"/>
									<g class="st19">
										<path class="st34" d="M92.72,56.39c0.58,1.67,2.1,2.88,3.2,2.58c1.09-0.31,1.37-1.99,0.75-3.6
											c-0.63-1.62-1.94-3.03-2.98-2.63C92.66,53.12,92.16,54.72,92.72,56.39z"/>
									</g>
									<path class="st4" d="M93.54,56.18c0.45,1.28,1.57,2.2,2.37,1.97c0.8-0.23,1.01-1.51,0.51-2.73c-0.47-1.22-1.46-2.28-2.25-2
										C93.41,53.69,93.08,54.92,93.54,56.18z"/>
									<g>
										<path class="st32" d="M90.2,56.9c-0.22,1.37-0.39,4.1,1.45,5.31c1.07,0.71-1.6,0.45-2.02-2.55
											C89.3,57.37,90.47,55.16,90.2,56.9z"/>
									</g>
									<g>
										<path class="st32" d="M90.56,55.41c0.28,0.1,0.1,0.84-0.3,0.7C89.97,56.01,90.16,55.29,90.56,55.41z"/>
									</g>
								</g>
							</g>
						</g>
					</g>
				</g>
			</g>
			<g>
				
					<radialGradient id="SVGID_1_" cx="-453.5333" cy="-1474.2185" r="15.5186" gradientTransform="matrix(-0.7982 -0.6025 -0.6025 0.7982 -1151.4541 966.4395)" gradientUnits="userSpaceOnUse">
					<stop  offset="0.1184" style="stop-color:#F6A0A0"/>
					<stop  offset="1" style="stop-color:#FFFFFF"/>
				</radialGradient>
				<path class="st36" d="M92.24,77.08c1.11,5.16,4.92,5.51,8.91,3.77c7.01-3.05,10.69-8.11,9.52-11.79
					c-1.17-3.69-4.81-6.35-10.69-4.29C94.1,66.83,91,71.3,92.24,77.08z"/>
				<g>
					<path class="st4" d="M104.84,66.79c0.13,0.48-0.63,0.98-1.7,1.09c-1.08,0.12-2.04-0.21-2.19-0.71
						c-0.14-0.47,0.62-0.96,1.7-1.07C103.72,65.98,104.7,66.29,104.84,66.79z"/>
				</g>
				<g>
					<path class="st4" d="M107.25,67.74c-0.05,0.24-0.4,0.38-0.8,0.31c-0.38-0.07-0.66-0.32-0.61-0.56
						c0.06-0.24,0.41-0.39,0.81-0.32C107.03,67.24,107.31,67.49,107.25,67.74z"/>
				</g>
			</g>
			<g>
				
					<radialGradient id="SVGID_2_" cx="-252.1861" cy="-1363.3561" r="10.6462" gradientTransform="matrix(0.933 -0.3602 0.3602 0.933 789.8931 1245.5212)" gradientUnits="userSpaceOnUse">
					<stop  offset="0.1184" style="stop-color:#F6A0A0"/>
					<stop  offset="1" style="stop-color:#FFFFFF"/>
				</radialGradient>
				<path class="st37" d="M65.17,74.89c-1.71,3.19-4.28,2.71-6.59,0.81c-4.05-3.33-5.52-7.36-4.06-9.57
					c1.47-2.21,4.37-3.28,7.86-0.82C65.88,67.77,67.08,71.3,65.17,74.89z"/>
				<g>
					<path class="st4" d="M58.28,65.9c-0.18,0.29,0.23,0.76,0.92,1.04c0.69,0.28,1.39,0.24,1.58-0.06c0.18-0.28-0.23-0.75-0.92-1.03
						C59.17,65.57,58.46,65.59,58.28,65.9z"/>
				</g>
				<g>
					<path class="st4" d="M56.51,66.07c-0.01,0.17,0.19,0.33,0.47,0.36c0.27,0.03,0.49-0.09,0.51-0.26c0.01-0.17-0.2-0.33-0.47-0.36
						C56.75,65.78,56.52,65.9,56.51,66.07z"/>
				</g>
			</g>
			<g>
				<path class="st21" d="M73.8,70.01c-3.15-0.83-3.27-2.63-1.24-2.96c-1.61-0.44-3.69,0.32-3.91,2.16
					c-0.13,1.06,0.29,2.09,1.05,2.84c1.4,1.38,4.1,2.64,6.06,1.99c1-0.33,3.33-0.83,2.1-3.48C77.21,69.17,77.77,71.06,73.8,70.01z"
					/>
				<path class="st21" d="M70.67,68.36c0.16-0.5,0.5-0.85,0.92-1.07c-1.27,0.21-1.78,2.1-1.23,3.48c0.41,1.04,1.13,1.97,2.12,2.53
					c0.99,0.56,2.22,0.63,3.32,0.19c0.63-0.25,1.36-1.05,0.97-2.01c-0.09-0.22-0.2-0.44-0.29-0.66c-0.36,0.68-0.94,1.27-1.78,1.21
					c-1.06-0.07-2.28-0.51-3.02-1.32C71.19,70.2,70.41,69.12,70.67,68.36z"/>
				<path class="st30" d="M76.29,71.01c-0.94,2.11-4.14-0.05-4.94-1.2c-0.26-0.39-0.4-0.83-0.41-1.3c-0.02-0.86,0.81-1.18,1.5-1.28
					c0.64-0.08,0.89,0.03,1.47-0.28c0.21-0.12,0.33-0.16-0.06-0.04c-0.73,0.22-1.82-0.16-2.62,0.34c-0.91,0.58-0.74,1.75-0.3,2.59
					c0.84,1.59,4.33,3.67,5.4,1.28C76.44,70.91,76.38,70.8,76.29,71.01z"/>
				<path class="st38" d="M76.22,69.33c-0.57,0.06-1.13,0.05-1.69-0.12c-0.48-0.14-0.9-0.37-1.33-0.61
					c-0.37-0.22-0.61-0.55-0.98-0.76c-0.14-0.08-0.37-0.01-0.36,0.18c0.06,1.68,3.24,1.93,4.37,1.35
					C76.25,69.36,76.25,69.33,76.22,69.33z"/>
			</g>
			<path class="st17" d="M57.06,52.17c0,0,3.72-7.56,11.11-0.97C66.25,46.44,60.08,42.99,57.06,52.17z"/>
			<path class="st17" d="M85.19,50.58c0,0,7.1-11.31,15.05-0.76C97.93,42.96,90.45,39.1,85.19,50.58z"/>
			<g>
				<path class="st27" d="M56.8,51.05c0,0,3.72-7.56,11.11-0.97C65.99,45.32,59.83,41.87,56.8,51.05z"/>
				<path class="st28" d="M56.8,51.29c-0.03,0-0.06-0.01-0.09-0.02c-0.12-0.05-0.18-0.18-0.14-0.29c1.58-4.79,3.87-5.86,5.51-5.92
					c2.63-0.06,5.03,2.42,6.05,4.93c0.04,0.1,0.01,0.22-0.08,0.28c-0.09,0.06-0.21,0.06-0.3-0.02c-2.33-2.08-4.51-2.93-6.49-2.54
					c-2.79,0.54-4.24,3.42-4.25,3.45C56.97,51.24,56.89,51.29,56.8,51.29z M62.22,45.53c-0.04,0-0.08,0-0.12,0
					c-1.26,0.04-2.96,0.77-4.36,3.76c0.76-0.84,1.9-1.76,3.43-2.05c1.89-0.37,3.92,0.29,6.05,1.95
					C66.14,47.24,64.25,45.53,62.22,45.53z"/>
			</g>
			<g>
				<path class="st27" d="M84.93,49.46c0,0,7.1-11.31,15.05-0.76C97.67,41.84,90.19,37.98,84.93,49.46z"/>
				<path class="st28" d="M84.93,49.7c-0.04,0-0.08-0.01-0.11-0.03c-0.11-0.06-0.16-0.19-0.1-0.31c2.27-4.97,5.27-7.6,8.43-7.44
					c2.97,0.16,5.75,2.79,7.06,6.71c0.04,0.11-0.01,0.23-0.11,0.29c-0.1,0.05-0.23,0.03-0.3-0.07c-2.28-3.03-4.73-4.52-7.19-4.4
					c-4.31,0.18-7.44,5.09-7.47,5.14C85.09,49.66,85.01,49.7,84.93,49.7z M92.85,43.97c2.19,0,4.31,1.13,6.32,3.38
					c-1.38-2.89-3.69-4.82-6.05-4.95c-2.45-0.13-4.83,1.61-6.81,4.94c1.38-1.48,3.59-3.25,6.27-3.37
					C92.67,43.97,92.76,43.97,92.85,43.97z"/>
			</g>
			<path class="st39" d="M131.06,65.49c-0.65,1.93-0.46,4.08,0.71,5.76c0.07,0.11,0.11-0.04,0.08-0.11
				c-0.57-1.13-0.76-2.23-0.71-3.33c0.19,0.48,0.48,0.91,0.97,1.22c0.85,0.51,2.09,0.64,2.92,0.01c0.15-0.11,0-0.57-0.19-0.57
				c-0.65,0.02-1.24,0.24-1.9,0.2c-0.88-0.06-1.43-0.63-1.76-1.35c0.08-0.61,0.2-1.22,0.44-1.84c0.3-0.8,0.77-1.5,1.4-2.08
				c0.84-0.77,1.67-0.37,2.62-0.25c0.26,0.03,0.08-0.46-0.04-0.53C133.26,61.2,131.74,63.45,131.06,65.49z"/>
			<g>
				<path class="st17" d="M133.88,73.67c-0.96-0.33-1.81-1.07-1.83-2.15c-0.02-1.22,0.88-2.44,2.04-2.79
					c0.79-0.24,1.61-0.09,2.22,0.4c0.08-0.83-0.03-1.7-0.73-2.15c-0.63-0.4-1.43-0.32-2.11-0.56c-1.43-0.52-1.37-2.47-0.72-3.6
					c0.64-1.1,1.86-1.53,3.08-1.47c1.34,0.06,2.67,0.55,3.79,1.29c0.01,0.01,0.02,0.01,0.02,0.02c-0.28-2.31-1.24-4.18-2.92-4.71
					c-4.16-1.32-7.3,1.26-8.43,6.46c-3.93-4.49,0-12.64-3.93-17.13c-0.28,4.77-2.53,6.18-2.53,6.18s0.56-5.06-1.97-10.95
					c0.84,6.18-1.97,7.3-1.97,7.3s1.97-7.3-7.58-12.64c-9.55-5.34-7.58-9.83-7.58-9.83c-4.21,4.49-1.12,8.43-1.12,8.43
					s-5.05-3.93-3.93-9.55c-0.22,0.42-0.46,0.8-0.7,1.17c-0.03,2.98,1.06,6.88,5.65,10.29c0.06-0.32-0.96-2.61,0.06-4.91
					c0,0-0.13,1.98,5.36,5.1c5.48,3.12,10.2,7.06,9.67,13.8c0,0,1.9-0.84,2.42-2.21c1.58,6,1.58,8.21,1.58,8.21s2.11-1.9,2.74-4.95
					c0.95,8.32,5.16,33.38-21.38,43.49c0.01,0.05,0.01,0.11,0.02,0.16c11.76-3.27,17.14-10.11,17.14-10.11
					c4.03-3.7,7.21-6.69,8.33-12.31c2.69,1.24,4.9,1.02,6.64-0.04C134.76,73.89,134.31,73.82,133.88,73.67z"/>
			</g>
			<g class="st24">
				<path class="st27" d="M143.29,52.47c0.77-5.89-4.09-27.9-17.66-31.22c0,0,4.35-2.56,6.91-0.26c-3.33-6.4-7.93-2.3-7.93-2.3
					s0.26-4.86-4.86-6.65c2.56,2.05,1.28,6.14,1.28,6.14c-6.03-5.15-14.5-6.54-22.78-6.09c0.01,0.02,0.01,0.05,0.01,0.08
					c18.54-1.05,22.12,9.27,22.12,9.27s-4-1.26-6.95,1.26c8.64-2.32,14.32,6.95,14.32,6.95s-0.21-3.79-5.48-6.74
					c11.16,0.84,18.54,16.43,16.01,23.59c-2.53,7.16,1.69,10.32,1.69,10.32c-4.21,0.42-5.69-3.58-8.21-6.74
					c1.05,5.69-3.23,9.32-3.23,9.32s-0.31-1.39,0.15-6.65c0.93-10.21-4.8-14.55-4.8-14.55s0.93,6.5-0.77,7.74
					c-0.15-5.57-5.26-10.83-5.26-10.83s2.48,6.04,0.77,8.51c-0.31-3.09-2.01-6.65-9.59-10.83c-7.58-4.18-5.42-10.06-5.42-10.06
					s-5.26,2.17-4.18,8.05c-1.55-3.4-1.24-5.73-0.93-9.13c-3.1,6.5-7.74,8.51-7.74,8.51s2.79-4.8-2.01-7.27
					c-3.4,8.82-11.45,9.59-11.45,9.59s1.55-4.33-0.93-5.88c-1.55,6.5-8.36,8.82-8.36,8.82s0.93-3.56-1.86-4.02
					c-4.02,5.23-9.15,5.36-12.26,4.81c3.29,4.36,11.74,0.61,12.46-2.16c0,0,1.01,1.57-0.82,3.54c0,0,5.9,0.56,10.53-6.6
					c0,0,0.84,1.68-0.7,3.79c5.34,0.14,12.22-3.65,13.9-8.85c2.25,3.09-2.25,6.46-2.25,6.46s6.74,1.12,10.67-6.18
					c-1.12,5.62,3.93,9.55,3.93,9.55s-3.09-3.93,1.12-8.43c0,0-1.97,4.49,7.58,9.83c9.55,5.34,7.58,12.64,7.58,12.64
					s2.81-1.12,1.97-7.3c2.53,5.9,1.97,10.95,1.97,10.95s2.25-1.4,2.53-6.18c3.93,4.49,0,12.64,3.93,17.13
					c1.12-5.2,4.27-7.78,8.43-6.46c6.03,1.92,2.81,21.06-8.14,16.01c-1.12,5.62-4.3,8.61-8.33,12.31c0,0,21.75-3.07,22.01-27.13
					c2.81,4.35,5.63,2.05,5.63,2.05S142.52,58.35,143.29,52.47z"/>
			</g>
			<path class="st27" d="M110.73,26.12c3.84,2.85,6.07,7.49,6.45,11.48c0,0-1.1-4.25-6.45-7.41c-5.35-3.16-7.14-5.9-5.35-8.37
				c-3.02-0.96-5.9,3.43-5.9,3.43s-1.78-2.88,0.27-6.31c-1.78,0.82-3.84,6.72-6.86,8.23c2.2-5.76-6.18-7.41-6.18-7.41
				s0.82,4.67-4.25,7.96c0,0,1.92-3.02,0.96-6.45c-0.96-3.43-6.31,7.14-3.98,1.65c2.33-5.49-2.2-1.78-4.53,3.29
				c-2.33,5.08-5.21,5.76-5.21,5.76s3.16-2.47,2.88-7.96c-4.85,6.78-10,1.38-10.96-0.95c0,0,4.24,2.6,9.86-1.66
				c4.67-3.16,10.98-7.68,24.15-7.82c-6.86,0.96-9.33,3.71-9.33,3.71s3.29-1.65,12.21-2.2c-6.31,1.65-3.43,4.53,1.24,2.74
				c4.67-1.78,3.72-1.41,2.33,1.1c-0.95,1.71,0.59,2.57,3.9,0.61C109.31,17.58,104.72,21.66,110.73,26.12z"/>
			<path class="st27" d="M122.06,30.08c0,0,7.02,5.4,7.91,17.09c1.8-3.06-0.18-9.17-0.18-9.17s3.06,4.14,3.24-0.36
				c0.18-4.5,2.88,1.62,2.16,8.09c-0.72,6.48,5.94-10.61-5.76-19.25c2.88,5.76,2.88,8.45,0.18,5.04
				C126.92,28.1,133.22,37.82,122.06,30.08z"/>
		</g>
		<g class="st40">
			<path class="st4" d="M87.14,144.57c-0.56-1.17-1.28-2.26-1.89-3.41c-0.59-1.12-1.14-2.29-1.6-3.47
				c-0.95-2.38-1.57-4.92-1.86-7.47c-0.59-5.28,0.28-10.69,2.63-15.48c0.13-0.26-0.13-0.28-0.24-0.07
				c-2.69,4.91-4.04,10.49-3.65,16.1c0.19,2.68,0.8,5.31,1.76,7.81c0.92,2.42,2.21,5.18,4.21,6.88
				C86.79,145.73,87.26,144.82,87.14,144.57z"/>
			<path class="st4" d="M99.04,153.44c-1.89-0.13-3.77-0.15-5.64-0.45c-1.95-0.31-3.88-0.81-5.74-1.48
				c-1.73-0.62-3.43-1.4-5.01-2.35c-1.67-1.01-3.21-2.53-3.15-4.63c0.01-0.2-0.22,0.05-0.23,0.14c-0.56,4.26,3.93,6.58,7.26,7.86
				c3.79,1.45,8.23,2.25,12.26,1.53C98.98,154.04,99.31,153.46,99.04,153.44z"/>
		</g>
		<g>
			<g>
				<path class="st2" d="M113.88,94.44c0,0,8.23-0.28,16.42,17.07c7.97,17.34,7.53,27.01,11.97,30.38c4.18,3.52,5.22,5.51,6.14,7.74
					c0.92,2.23,0.65,5.59-0.29,4.96c-0.01,1.55-1.21,4.1-2.46,4.45c0.17,0.9-0.39,2.42-1.43,2.98c0.12,1.75-0.7,3.39-2.44,2.45
					c-1.74-0.93-2.48-6.58-2.85-7.79c-0.37-1.22-3.21-4.64-4.4-4.79c-1.19-0.14-1.41,1.32-1.05,3.44c0.36,2.12-0.66,4.03-2.19,3.65
					c-1.53-0.38-1.36-1.23-1.07-2.66c0.29-1.43,0.12-2.33,0.02-4.96c-0.28-5.12,2.34-7.18,2.34-7.18s-6.48-22.22-12.3-29.86
					C114.46,106.69,108.27,103.24,113.88,94.44z"/>
				<path class="st3" d="M142.72,164.98c-0.29,0-0.64-0.08-1.05-0.3c-1.34-0.72-2.05-3.66-2.66-6.61c-0.12-0.6-0.22-1.07-0.3-1.32
					c-0.34-1.12-3.14-4.49-4.2-4.62c-0.26-0.03-0.45,0.03-0.59,0.18c-0.38,0.4-0.45,1.46-0.2,2.99c0.24,1.42-0.1,2.79-0.87,3.5
					c-0.46,0.42-1.01,0.57-1.61,0.42c-1.76-0.44-1.53-1.54-1.25-2.94c0.21-1.04,0.17-1.78,0.1-3.24c-0.02-0.47-0.05-1.02-0.08-1.67
					c-0.25-4.59,1.77-6.77,2.3-7.27c-0.58-1.94-6.74-22.44-12.22-29.64c-1.13-1.49-2.26-2.8-3.36-4.06
					c-4.45-5.15-7.66-8.87-3.06-16.1c0.04-0.07,0.11-0.11,0.19-0.11c0.33,0,8.48-0.09,16.64,17.2c3.85,8.37,5.76,15.04,7.16,19.9
					c1.5,5.23,2.5,8.69,4.73,10.39c4.23,3.56,5.28,5.58,6.22,7.84c0.76,1.84,0.79,4.64,0.06,5.24c-0.1,0.09-0.22,0.13-0.34,0.13
					c-0.14,1.51-1.16,3.76-2.42,4.29c0.08,0.98-0.48,2.34-1.45,2.95c0.05,1.19-0.32,2.18-0.97,2.6
					C143.32,164.88,143.06,164.98,142.72,164.98z M134.38,151.65c0.06,0,0.12,0,0.19,0.01c1.35,0.16,4.23,3.76,4.6,4.95
					c0.09,0.28,0.19,0.76,0.31,1.37c0.41,1.96,1.16,5.61,2.42,6.29c0.54,0.29,0.99,0.32,1.34,0.09c0.53-0.34,0.82-1.25,0.75-2.32
					c-0.01-0.09,0.04-0.18,0.12-0.23c0.92-0.5,1.47-1.9,1.31-2.73c-0.02-0.12,0.05-0.24,0.17-0.27c1.09-0.3,2.28-2.74,2.29-4.22
					c0-0.09,0.05-0.17,0.13-0.21c0.08-0.04,0.17-0.04,0.24,0.01c0.08,0.06,0.11,0.04,0.13,0.02c0.42-0.34,0.59-2.78-0.2-4.69
					c-0.91-2.2-1.94-4.16-6.07-7.65c-2.35-1.79-3.37-5.31-4.89-10.63c-1.39-4.85-3.3-11.5-7.14-19.84
					c-7.47-15.83-15.03-16.86-16.07-16.92c-4.31,6.86-1.36,10.27,3.09,15.42c1.1,1.27,2.23,2.58,3.38,4.08
					c5.78,7.59,12.28,29.71,12.34,29.94c0.03,0.09-0.01,0.19-0.08,0.25c-0.02,0.02-2.52,2.06-2.25,6.98
					c0.03,0.65,0.05,1.2,0.08,1.67c0.08,1.45,0.12,2.25-0.11,3.36c-0.31,1.53-0.35,2.07,0.9,2.38c0.44,0.11,0.84,0,1.17-0.31
					c0.64-0.59,0.93-1.83,0.72-3.07c-0.29-1.73-0.18-2.87,0.32-3.4C133.78,151.76,134.05,151.65,134.38,151.65z"/>
			</g>
			<g>
				<path class="st3" d="M142.74,156.83c-0.36-0.91-0.77-1.81-1.23-2.69c-0.44-0.83-0.89-1.75-1.53-2.45
					c-0.04-0.05-0.14,0.1-0.12,0.15c0.4,0.88,0.96,1.71,1.4,2.57c0.44,0.86,0.83,1.75,1.18,2.65c0.71,1.83,1.22,3.72,1.52,5.65
					c0.03,0.19,0.34-0.12,0.32-0.25C143.96,160.54,143.46,158.65,142.74,156.83z"/>
				<path class="st3" d="M145.78,158.48c-0.05-0.43-0.1-0.87-0.16-1.3c-0.12-0.84-0.29-1.68-0.48-2.51
					c-0.38-1.6-0.84-3.26-1.64-4.71c-0.05-0.08-0.18,0.11-0.16,0.17c0.52,1.62,1.12,3.2,1.5,4.86c0.18,0.79,0.33,1.59,0.45,2.39
					c0.06,0.39,0.11,0.78,0.14,1.17c0.04,0.43,0,0.9,0.1,1.31c0.06,0.22,0.33-0.13,0.34-0.23
					C145.9,159.25,145.82,158.86,145.78,158.48z"/>
				<path class="st3" d="M147.99,153.19c-0.07-0.51-0.18-1.02-0.31-1.52c-0.26-0.98-0.63-1.89-1.17-2.77
					c-0.03-0.04-0.1,0.05-0.08,0.09c0.41,0.96,0.78,1.97,1.02,2.98c0.11,0.48,0.2,0.96,0.26,1.44c0.03,0.24,0.05,0.48,0.07,0.73
					c0.02,0.24,0,0.48,0.08,0.71c0.04,0.11,0.2-0.13,0.21-0.17C148.17,154.21,148.06,153.67,147.99,153.19z"/>
			</g>
			<g>
				<path class="st41" d="M138.94,156.68c-0.03-0.11-0.09-0.24-0.16-0.38C138.83,156.44,138.89,156.56,138.94,156.68z"/>
				<path class="st17" d="M148.53,149.96c-0.01,1.13-0.12,1.9-0.31,1.89c-0.56-0.02-1.77-3.03-1.77-3.03s0,0,1,3.16
					c0.71,2.9-2.01,5.1-2.18,4.52c-0.46-2.44-1.95-6.37-1.95-6.37s1,3.16,1.65,6.39c0.65,3.23-1.28,3.34-1.28,3.34
					s-1.09-4.25-3.7-8.16c1.39,2.29,4.5,12.4,2.57,12.51c-1.93,0.11-2.78-5.42-3.61-7.52c0.37,1.22,1.11,6.86,2.85,7.79
					c1.74,0.93,2.56-0.71,2.44-2.45c1.04-0.56,1.6-2.08,1.43-2.98c1.25-0.34,2.45-2.9,2.46-4.45
					C149.01,155.19,149.3,152.17,148.53,149.96z"/>
				<path class="st17" d="M133.73,150.87c-1.74,0.3-1.22,1.69-1.16,5.17c0.03,2-1.35,1.98-2.53,1.6c0,0.66,0.28,1.11,1.26,1.35
					c1.53,0.38,2.54-1.53,2.19-3.65c-0.36-2.12-0.14-3.59,1.05-3.44c1.09,0.13,3.53,2.98,4.24,4.41
					C137.8,154.13,135.37,150.59,133.73,150.87z"/>
			</g>
			<g>
				<path class="st21" d="M136.09,143.4c-1.98-3.28-3.51-10.96-7.23-20.19c-3.72-9.23-12.2-15.3-12.91-22.28
					c-0.72-6.97,2.44-4.85,5.57-2.32l0.1-0.01c-4.47-4.26-7.74-4.15-7.74-4.15c-5.61,8.8,0.58,12.25,6.4,19.89
					c5.82,7.64,12.37,29.93,12.37,29.93s-2.68,1.99-2.4,7.1C130.24,151.37,130.81,145.46,136.09,143.4z"/>
			</g>
			<g class="st42">
				<path class="st17" d="M148.4,149.63c-0.92-2.23-1.96-4.22-6.14-7.74c-3.56-2.71-3.98-9.48-8.13-21.01
					c-1.09,1.47-3.52,0-2.89,1.12c0.77,1.36,1.97,0.41,2.74,1.77c1.25,3.82,4.38,16.61,6.21,17.68c1.83,1.07,2.86,1.55,4.42,3.5
					c1.45,1.82-0.12,3.22-1.77,3.6c0.08,1-1.01,1.85-4.83,1.15c1.37,0.83,2.25,2.31,4.46,8.61c1.14,3.25,0.77,5.25,0.15,6.44
					c1.17,0.09,1.71-1.27,1.62-2.72c1.04-0.56,1.6-2.08,1.43-2.98c1.25-0.34,2.45-2.9,2.46-4.45
					C149.05,155.22,149.33,151.85,148.4,149.63z"/>
			</g>
			<g>
				<path class="st15" d="M121.34,98.87c5.36,6.45,10.31,13.3,11.54,21.62c0.02,0.15-0.18,0.1-0.2-0.02
					c-1.53-8.26-6.77-14.68-11.5-21.51C121.11,98.85,121.25,98.77,121.34,98.87z"/>
			</g>
			<path class="st15" d="M138.37,143.03c-0.26-0.11-0.58-0.07-0.85-0.02c-0.32,0.06-0.64,0.15-0.95,0.26
				c-0.61,0.21-1.18,0.5-1.71,0.85c-0.53,0.35-1.01,0.77-1.42,1.24c-0.38,0.43-0.78,0.93-0.98,1.46c-0.03,0.09,0.06,0.05,0.09,0.01
				c0.33-0.46,0.64-0.91,1.05-1.32c0.4-0.39,0.86-0.72,1.35-1c0.48-0.27,0.99-0.49,1.52-0.64c0.56-0.17,1.18-0.2,1.73-0.42
				C138.27,143.41,138.52,143.09,138.37,143.03z"/>
			<path class="st15" d="M142.85,160.75c-0.08-0.61-0.2-1.22-0.34-1.83c-0.28-1.22-0.68-2.42-1.18-3.57
				c-1.01-2.31-2.42-4.5-4.3-6.28c-0.05-0.04-0.16,0.11-0.13,0.15c1.65,1.97,3.07,4.1,4.04,6.45c0.49,1.18,0.88,2.4,1.16,3.64
				c0.14,0.61,0.24,1.22,0.32,1.83c0.08,0.57,0.07,1.2,0.25,1.75c0.04,0.13,0.24-0.15,0.25-0.2
				C143.02,162.06,142.93,161.38,142.85,160.75z"/>
		</g>
	</g>
	<g>
		<path class="st43" d="M99.09,76.25c-0.03-0.66-0.15-1.48-0.55-1.97c-0.34-0.41-0.86-0.45-1.33-0.32c-0.62,0.16-1.2,0.56-1.76,0.92
			c-0.73,0.47-1.46,0.95-2.2,1.4c-1.5,0.92-3.05,1.65-4.66,2.24c-3.16,1.16-6.43,1.81-9.69,1.94c-3.43,0.14-6.9-0.24-10.07-1.59
			c-0.67-0.29-1.31-0.65-1.98-0.96c-0.02-0.01-0.05-0.02-0.08-0.03c-0.14-0.11-0.31-0.17-0.5-0.19c-0.29-0.09-0.6-0.15-0.9-0.1
			c-0.79,0.13-1.05,0.87-1.01,1.62c-0.18,0.96,0.18,1.98,0.61,2.78c0.68,1.28,1.59,2.43,2.53,3.45c2.16,2.32,5.01,3.73,7.84,4.71
			c5.63,1.95,12.22,1.59,17.43-2.48c2.29-1.8,4.13-4.28,5.35-7.14C98.69,79.19,99.15,77.71,99.09,76.25z"/>
		<path class="st44" d="M98.24,78.79c-0.77,2.75-2.44,5.43-4.35,7.31c-4.52,4.43-10.65,5.43-16.08,4.14
			c-2.78-0.66-5.6-1.81-7.97-3.55c-1.16-0.85-2.21-1.9-3.14-3.06c-0.59-0.74-1.2-1.56-1.61-2.49c-0.01-0.06-0.01-0.12-0.03-0.18
			c0,0,0.01,0.01,0.01,0.01c-0.01-0.01-0.01-0.03-0.02-0.04c-0.05-0.25-0.11-0.5-0.16-0.76c-0.08-0.48-0.15-1.09,0.07-1.56
			c0.15-0.33,0.45-0.55,0.76-0.62c0.1-0.02,0.2-0.03,0.3-0.03c0.25,0.09,0.5,0.22,0.69,0.33c0.6,0.32,1.2,0.64,1.82,0.91
			c2.82,1.24,5.85,1.73,8.91,1.74c2.93,0.01,5.88-0.4,8.77-1.21c1.45-0.41,2.88-0.92,4.29-1.53c1.42-0.62,2.76-1.43,4.09-2.29
			c0.61-0.39,1.21-0.81,1.84-1.16c0.51-0.28,1.22-0.63,1.66-0.11c0.4,0.47,0.47,1.37,0.47,2.01C98.56,77.39,98.43,78.1,98.24,78.79z
			"/>
		<path class="st45" d="M68.87,81.08c0.56,1,1.4,1.66,2.34,2.12c2.54,1.23,5.39,1.68,8.19,1.61c2.65-0.07,5.31-0.65,7.83-1.79
			c1.15-0.52,2.32-1.12,3.33-1.98c0.9-0.77,1.68-1.71,2.35-2.75c0.39-0.61,0.74-1.27,1.04-1.96c-1.12,0.7-2.26,1.36-3.46,1.89
			c-1.4,0.61-2.84,1.13-4.29,1.53c-2.88,0.81-5.84,1.22-8.77,1.21c-3.06-0.01-6.09-0.5-8.91-1.74c-0.16-0.07-0.31-0.15-0.47-0.23
			C68.27,79.72,68.51,80.44,68.87,81.08z"/>
		<path class="st46" d="M90.86,86.27c-1.54-0.05-3.09,0.15-4.62,0.44c-1.41,0.27-2.8,0.59-4.17,1.11c-1.48,0.56-3.07,1.32-4.47,2.37
			c0.07,0.02,0.14,0.04,0.21,0.05c5.2,1.24,11.04,0.36,15.5-3.61C92.51,86.39,91.66,86.3,90.86,86.27z"/>
		<path class="st45" d="M73.07,83.51c2.18,1.13,4.66,1.18,7.06,1.06c3.06-0.15,6.14-0.65,9.11-1.74c2.4-0.88,4.72-2.15,6.79-3.88
			c0.89-0.75,1.79-1.62,2.53-2.62c-0.03-0.59-0.13-1.27-0.46-1.67c-0.44-0.52-1.15-0.17-1.66,0.11c-0.63,0.35-1.23,0.77-1.84,1.16
			c-1.33,0.85-2.67,1.67-4.09,2.29c-1.4,0.61-2.84,1.13-4.29,1.53c-2.88,0.81-5.84,1.22-8.77,1.21c-2.67-0.01-5.32-0.39-7.82-1.3
			C70.34,81.34,71.49,82.7,73.07,83.51z"/>
	</g>
</g>
</svg>
