<?xml version="1.0" encoding="utf-8"?>
<!-- Generator: Adobe Illustrator 24.0.1, SVG Export Plug-In . SVG Version: 6.00 Build 0)  -->
<svg version="1.1" id="Capa_1" xmlns="http://www.w3.org/2000/svg" xmlns:xlink="http://www.w3.org/1999/xlink" x="0px" y="0px"
	 viewBox="0 0 50 50" style="enable-background:new 0 0 50 50;" xml:space="preserve">
<style type="text/css">
	.st0{fill:#FBD0B4;}
	.st1{fill:#B56A4D;}
	.st2{fill:#EFC2A7;}
	.st3{opacity:0.6;fill:#FBC98F;enable-background:new    ;}
	.st4{fill:#FFFFFF;}
	.st5{fill:#654B28;}
	.st6{opacity:0.5;fill:#70727F;enable-background:new    ;}
	.st7{fill:#804236;}
	.st8{fill:#5A3426;}
	.st9{opacity:0.2;fill:#5A3426;enable-background:new    ;}
	.st10{opacity:0.5;}
	.st11{opacity:0.2;}
	.st12{fill:#70727F;}
	.st13{fill:#793936;}
	.st14{fill:#263259;}
	.st15{fill:#111C39;}
	.st16{opacity:0.5;fill:#263259;enable-background:new    ;}
	.st17{fill:#F7913D;}
	.st18{fill:#9B4A0D;}
	.st19{opacity:0.5;fill:#F7913D;enable-background:new    ;}
	.st20{fill:#FCEE21;}
	.st21{fill:#F7931E;}
	.st22{opacity:0.69;fill:#FCC521;enable-background:new    ;}
	.st23{opacity:0.4;fill:#A31D1D;enable-background:new    ;}
	.st24{fill:#9E4C0B;}
	.st25{fill:#582E18;}
	.st26{fill:#33160A;}
	.st27{opacity:0.6;fill:#FBD0B4;enable-background:new    ;}
	.st28{fill:#FEF6EC;}
	.st29{fill:#9E5116;}
	.st30{fill:#BBAC9A;}
	.st31{fill:#984C08;}
	.st32{fill:#A0A427;}
	.st33{opacity:0.6;}
	.st34{fill:#9A5648;}
	.st35{fill:#0A010B;}
	.st36{opacity:0.7;fill:url(#SVGID_1_);enable-background:new    ;}
	.st37{opacity:0.7;fill:url(#SVGID_2_);enable-background:new    ;}
	.st38{fill:#FCECE3;}
	.st39{fill:none;}
	.st40{opacity:0.5;fill:#582E18;enable-background:new    ;}
	.st41{fill:#FAD6BE;}
	.st42{fill:#7B1500;}
	.st43{fill:#FF8C6A;}
	.st44{fill:#FFFAF7;}
	.st45{opacity:0.6;fill:#C4B6A6;enable-background:new    ;}
	.st46{fill:#6D6F73;}
	.st47{opacity:0.7;fill:#6D6F73;enable-background:new    ;}
	.st48{fill:#A7A7A7;}
	.st49{fill:#D5F5FF;}
	.st50{fill:#4AA0C3;}
	.st51{opacity:0.3;fill:url(#SVGID_3_);enable-background:new    ;}
	.st52{opacity:0.3;fill:url(#SVGID_4_);enable-background:new    ;}
	.st53{fill:#424347;}
</style>
<g>
	<g>
		<g>
			<g>
				<path class="st0" d="M24.1,45.8c0-2.7,0.7-5.2,0.4-8.5c-0.1-2.4,0.2-4,0.2-4L21.4,33c0,0,0,1.4,0.2,3s0.4,7.5,0.4,9.6
					C22,45.6,22.7,46.8,24.1,45.8z"/>
				<path class="st1" d="M23.1,46.2c-0.1,0-0.2,0-0.3,0c-0.5-0.1-0.8-0.6-0.8-0.6c0,0,0,0,0,0c0-2-0.2-8-0.4-9.6
					c-0.2-1.6-0.2-3-0.2-3c0,0,0,0,0,0c0,0,0,0,0,0l3.3,0.3c0,0,0,0,0,0c0,0,0,0,0,0c0,0-0.3,1.7-0.2,4c0.2,1.9,0,3.6-0.2,5.2
					c-0.1,1.1-0.3,2.2-0.2,3.3c0,0,0,0,0,0C23.7,46.1,23.4,46.2,23.1,46.2z M22.1,45.6c0,0.1,0.3,0.5,0.8,0.6c0.4,0.1,0.8,0,1.2-0.3
					c0-1.1,0.1-2.2,0.2-3.3c0.2-1.6,0.4-3.2,0.2-5.1c-0.1-2.1,0.1-3.7,0.2-4l-3.2-0.3c0,0.2,0.1,1.5,0.2,2.9
					C21.9,37.6,22.1,43.6,22.1,45.6z"/>
			</g>
			<path class="st1" d="M22.7,35.8c-0.2,0.1-0.5,0.1-0.7-0.1c0,0-0.1,0,0,0.1c0.1,0.1,0.2,0.2,0.3,0.2S22.5,36,22.7,35.8
				C22.7,35.9,22.7,35.9,22.7,35.8C22.7,35.8,22.7,35.8,22.7,35.8z"/>
			<g>
				<path class="st2" d="M24.7,33.3L21.4,33c0,0,0,0.2,0,0.6c0.3,0.1,1,0.2,1.8,0.3c0.6,0.1,0.7,0.5,0.6,1.2S22.4,36,22,35.8
					c0.4,0.4,0.9,0.2,1.3,0.1c0.4-0.1,1,1.5,0.8,3.9c-0.2,2.4-0.8,5.1-1.3,5.2c-0.5,0-0.5-0.4-0.8-3.7c0.1,1.7,0.1,3.4,0.1,4.4
					c0,0,0.7,1.2,2,0.2c0-2.7,0.7-5.2,0.4-8.5C24.4,35,24.7,33.3,24.7,33.3z"/>
			</g>
			<path class="st3" d="M22.2,42.3c0-0.2,0-0.5,0-0.7c0-0.5-0.1-0.9-0.1-1.4c-0.1-0.9-0.1-1.8-0.2-2.7c0-0.5-0.1-1-0.1-1.6
				c0,0,0,0,0,0c0,0.9,0.1,1.8,0.2,2.8c0.1,0.9,0.1,1.8,0.2,2.8C22.1,41.7,22.1,42,22.2,42.3c-0.1,0.1-0.1,0.2-0.1,0.3
				c0,0.1,0,0.3,0,0.4c0,0,0.1,0,0.1,0C22.3,42.7,22.3,42.5,22.2,42.3z"/>
			<path class="st3" d="M21.9,35.6c0-0.1-0.1-0.2-0.1-0.3c0-0.1-0.1-0.3-0.1-0.4c-0.1-0.3-0.1-0.5-0.1-0.8c0,0,0,0,0,0
				c0,0.3,0,0.5,0,0.8c0,0.1,0.1,0.3,0.1,0.4C21.7,35.4,21.8,35.5,21.9,35.6C21.9,35.7,21.9,35.6,21.9,35.6z"/>
		</g>
		<g>
			<g>
				<path class="st4" d="M21.7,48.6c2.1-0.4,3.1-1.2,3.4-1.7c0,0,0,0,0,0c0.2,0.6,0.3,1-1.9,1.8s-3.3,0.9-5,0.4
					c-1.5-0.4-1.7-0.9-1.6-1.3C17.2,48.5,18.9,49.2,21.7,48.6z"/>
				<path class="st5" d="M21,49.5c-0.9,0.1-1.7,0.1-2.8-0.2c-1.3-0.3-1.8-0.8-1.7-1.4c0,0,0,0,0,0c0,0,0,0,0.1,0
					c0.4,0.5,2,1.2,4.6,0.8l0,0c0.1,0,0.3,0,0.4-0.1c2.1-0.4,3-1.2,3.4-1.7c0,0,0,0,0.1,0c0,0,0,0,0,0l0,0c0.2,0.7,0.2,1-1.9,1.8
					C22.4,49.2,21.7,49.4,21,49.5z M16.6,48c0,0.4,0.2,0.8,1.6,1.2c1.1,0.3,1.9,0.4,2.7,0.2c0.6-0.1,1.3-0.3,2.2-0.6
					c2-0.8,2-1.1,1.9-1.6c-0.4,0.5-1.4,1.2-3.4,1.6c-0.1,0-0.3,0.1-0.4,0.1l0,0C19,49.1,17.3,48.6,16.6,48z"/>
			</g>
			<path class="st6" d="M24.8,47.3c0.1-0.1,0.2-0.2,0.3-0.3c0,0,0,0,0,0c0.1,0.3,0.2,0.6-0.1,0.9C25,47.7,24.9,47.5,24.8,47.3z"/>
			<path class="st6" d="M24.3,47.7c0.2-0.1,0.3-0.2,0.4-0.3c0.1,0.2,0.1,0.4,0.2,0.6c-0.1,0.1-0.2,0.2-0.4,0.3
				C24.4,48.1,24.4,47.9,24.3,47.7z"/>
			<path class="st6" d="M23.6,48.1c0.2-0.1,0.4-0.2,0.6-0.3c0.1,0.2,0.1,0.4,0.1,0.6c-0.2,0.1-0.3,0.2-0.6,0.3
				C23.7,48.4,23.7,48.2,23.6,48.1z"/>
			<path class="st6" d="M22.7,48.4c0.3-0.1,0.6-0.2,0.8-0.3c0.1,0.2,0.1,0.3,0.2,0.5c-0.1,0.1-0.2,0.1-0.4,0.2
				c-0.2,0.1-0.3,0.1-0.4,0.2C22.8,48.8,22.7,48.6,22.7,48.4z"/>
			<path class="st6" d="M22,48.6c0.2,0,0.4-0.1,0.6-0.1c0,0.2,0.1,0.4,0.1,0.5c-0.2,0.1-0.4,0.1-0.5,0.2C22.1,49,22,48.8,22,48.6z"
				/>
			<path class="st6" d="M21.1,48.7c0.2,0,0.4-0.1,0.6-0.1c0,0,0.1,0,0.1,0c0.1,0.2,0.1,0.4,0.2,0.6c-0.3,0.1-0.5,0.1-0.8,0.2
				C21.2,49.2,21.2,49,21.1,48.7z"/>
			<path class="st6" d="M20.3,48.8c0.2,0,0.5,0,0.7-0.1c0,0.2,0.1,0.4,0.1,0.7c-0.2,0-0.4,0.1-0.7,0.1C20.4,49.3,20.3,49,20.3,48.8z
				"/>
			<path class="st6" d="M19.5,48.8c0.2,0,0.4,0,0.6,0c0,0.2,0.1,0.4,0.2,0.7c-0.2,0-0.5,0-0.7,0C19.5,49.3,19.5,49,19.5,48.8z"/>
			<path class="st6" d="M18.6,48.7c0.2,0,0.5,0.1,0.8,0.1c0,0.2,0,0.4,0.1,0.6c-0.3,0-0.6-0.1-0.8-0.2
				C18.6,49.1,18.6,48.9,18.6,48.7z"/>
			<path class="st6" d="M17.8,48.5c0.2,0.1,0.4,0.1,0.6,0.2c0,0.2,0,0.4,0,0.6c-0.1,0-0.1,0-0.2,0c-0.2-0.1-0.4-0.1-0.5-0.2
				C17.7,48.9,17.8,48.7,17.8,48.5z"/>
			<path class="st6" d="M16.9,48.6c-0.3-0.2-0.3-0.5-0.3-0.7c0.1,0.1,0.2,0.2,0.3,0.3C16.9,48.3,16.9,48.4,16.9,48.6z"/>
			<path class="st6" d="M17.1,48.2c0.2,0.1,0.3,0.2,0.5,0.3c0,0.2,0,0.3-0.1,0.5c-0.2-0.1-0.4-0.2-0.5-0.3
				C17,48.6,17.1,48.4,17.1,48.2z"/>
			<g>
				<path class="st4" d="M16.7,47.7c0.2-0.6,0.6-1.6,2.9-1.3c0,0,0.1,0,0.1,0c1.2,0.5,1.5,1.8,1.5,2.3c-2.5,0.4-4.1-0.3-4.6-0.9
					C16.6,47.8,16.6,47.7,16.7,47.7z"/>
				<path class="st5" d="M21.2,48.8L21.2,48.8c-2.3,0.3-4-0.2-4.6-0.9c0,0,0,0,0,0c0-0.1,0-0.1,0.1-0.2c0.1-0.5,0.5-1.1,1.6-1.3
					c0.4-0.1,0.8-0.1,1.3,0c0,0,0.1,0,0.1,0c0,0,0,0,0,0C20.9,46.8,21.2,48.2,21.2,48.8C21.2,48.8,21.2,48.8,21.2,48.8z M16.7,47.9
					c0.6,0.6,2.2,1.1,4.5,0.8c-0.1-0.6-0.4-1.8-1.5-2.3c0,0-0.1,0-0.1,0c-0.5-0.1-0.9-0.1-1.3,0c-1.1,0.2-1.4,0.8-1.5,1.2
					C16.7,47.7,16.7,47.8,16.7,47.9z"/>
			</g>
			<g>
				<g>
					<path class="st7" d="M20.3,46.2c0,0.1,0.2,0.1,0.4,0.2c0.5,0,0.9,0.7,1,0.8c0.1,0.1,1.2-0.2,1.1-0.3c-0.2-0.6-0.9-0.8-1.4-0.9
						c0.1-0.6,0.7-0.8,1-0.7c0.4,0.1,0.6,0.2,0.9,0.8c0.4,0.1,0.6-0.3,0.6-0.3l0-0.5c0,0,0.8-0.3,0.9,0.4c0,0.7,0.2,0.7,0.4,1.3
						c-0.4,0.5-1.3,1.3-3.4,1.7c-0.2,0-0.4,0.1-0.5,0.1c-0.1-0.5-0.3-1.9-1.5-2.3C19.9,46.4,20.1,46.3,20.3,46.2z"/>
					<path class="st5" d="M21.3,48.8l-0.1,0c0,0,0,0,0,0c0,0,0,0,0,0c-0.1-0.5-0.3-1.9-1.5-2.3c0,0,0,0,0-0.1c0,0,0,0,0.1,0
						c0.1,0,0.1,0,0.1,0c0.2,0,0.3-0.1,0.4-0.2c0,0,0,0,0.1,0c0,0,0,0,0,0c0,0.1,0.2,0.1,0.3,0.1c0.5,0,0.8,0.6,1,0.8c0,0,0,0,0,0
						c0,0,0,0,0.2,0c0.3-0.1,0.7-0.2,0.8-0.3c-0.2-0.5-0.8-0.7-1.3-0.9l-0.1,0c0,0,0,0,0-0.1c0.1-0.6,0.7-0.8,1.1-0.7
						c0.4,0.1,0.6,0.2,0.9,0.8c0.1,0,0.1,0,0.2,0c0.2,0,0.3-0.2,0.3-0.2l0-0.5c0,0,0,0,0-0.1c0,0,0.1,0,0.2,0c0.2,0,0.4,0,0.6,0.1
						c0.1,0.1,0.2,0.2,0.2,0.4c0,0.4,0.1,0.6,0.2,0.8c0.1,0.1,0.1,0.3,0.2,0.5c0,0,0,0,0,0.1c-0.4,0.5-1.3,1.3-3.5,1.7
						C21.6,48.7,21.4,48.8,21.3,48.8z M21.2,48.7L21.2,48.7c0.2,0,0.3-0.1,0.5-0.1c2.1-0.4,3-1.2,3.4-1.6c-0.1-0.2-0.1-0.3-0.2-0.4
						c-0.1-0.2-0.2-0.4-0.2-0.8c0-0.1-0.1-0.2-0.1-0.3c-0.1-0.1-0.4-0.1-0.5-0.1c0,0-0.1,0-0.1,0l0,0.5c0,0,0,0,0,0
						c0,0-0.1,0.3-0.4,0.3c-0.1,0-0.2,0-0.3,0c0,0,0,0,0,0c-0.3-0.6-0.5-0.7-0.9-0.8c-0.4-0.1-0.9,0.1-1,0.6l0,0
						c0.5,0.2,1.1,0.4,1.4,0.9c0,0,0,0.1,0,0.1c-0.1,0.1-0.6,0.3-0.9,0.3c-0.2,0-0.3,0-0.3,0c0,0,0,0,0,0c-0.1-0.2-0.5-0.7-0.9-0.7
						c-0.2,0-0.3-0.1-0.4-0.1c-0.1,0-0.2,0.1-0.4,0.1C20.9,46.9,21.2,48.1,21.2,48.7z"/>
				</g>
				<g>
					<path class="st8" d="M22.7,46.8c0.1,0.2-1,0.4-1.1,0.3c-0.1-0.1-0.5-0.7-1-0.8c-0.2,0-0.4-0.1-0.4-0.2c0.1,0,0.1-0.1,0.1-0.1
						s0.3-0.4,1-0.3C21.8,46,22.5,46.2,22.7,46.8z"/>
					<path class="st5" d="M21.9,47.2c-0.2,0-0.3,0-0.3,0c0,0,0,0,0,0c-0.1-0.2-0.5-0.7-0.9-0.7c-0.2,0-0.4-0.1-0.4-0.2
						c0,0,0,0,0-0.1c0,0,0.1,0,0.1,0c0,0,0.2-0.2,0.5-0.3c0.1,0,0.3,0,0.5,0l0.1,0c0.5,0.2,1.1,0.4,1.4,0.9c0,0,0,0.1,0,0.1
						C22.7,47,22.1,47.2,21.9,47.2z M21.7,47.1c0,0,0.1,0,0.2,0c0.3-0.1,0.7-0.2,0.8-0.3c-0.2-0.5-0.8-0.7-1.3-0.9l-0.1,0
						c-0.2,0-0.3,0-0.4,0c-0.3,0.1-0.5,0.3-0.5,0.3c0,0,0,0,0,0c0,0,0,0,0,0c0.1,0,0.2,0.1,0.3,0.1C21.1,46.3,21.5,46.9,21.7,47.1
						C21.6,47.1,21.6,47.1,21.7,47.1L21.7,47.1z"/>
				</g>
				<path class="st9" d="M20.3,46.1c0,0,0.3-0.4,1-0.3c0.5,0.2,1.1,0.3,1.4,0.9c0,0,0,0,0,0.1c-0.2-0.2-0.3-0.5-0.6-0.6
					c-0.2-0.1-0.5-0.3-0.7-0.1c-0.2,0.2,0,0.4,0,0.6c0.1,0.2,0.2,0.3,0.3,0.4c-0.1,0-0.1,0-0.2,0c-0.1-0.1-0.5-0.7-1-0.8
					C20.4,46.3,20.3,46.3,20.3,46.1C20.3,46.2,20.3,46.1,20.3,46.1z"/>
			</g>
			<g class="st10">
				<path class="st7" d="M20.3,46.2c0,0.1,0.2,0.1,0.4,0.2c0.5,0,0.9,0.7,1,0.8c0.1,0.1,1.2-0.2,1.1-0.3c-0.2-0.6-0.9-0.8-1.4-0.9
					c0.1-0.6,0.7-0.8,1-0.7c0.4,0.1,0.6,0.2,0.9,0.8c0.4,0.1,0.6-0.3,0.6-0.3l0-0.5c0,0,0.8-0.3,0.9,0.4c0,0.2,0,0.4,0.1,0.5
					c-0.2-0.3-0.2-0.7-0.5-0.6c-0.4,0,0.1,0.6-0.6,0.8c-0.8,0.2-0.6-0.1-0.8-0.5c-0.1-0.3-0.8-0.7-1.2-0.3c-0.2,0.2,1.1,0.3,1.2,1.3
					c0,0.3-1.3,0.7-1.5,0.4c-0.2-0.3-0.4-0.5-0.7-0.5c-0.3,0,0.5,0.6,0.6,1.3c0.1,0.5,0.3,0.6,1.4,0.3c-0.3,0.1-0.7,0.2-1.1,0.3
					c-0.2,0-0.4,0.1-0.5,0.1c-0.1-0.5-0.3-1.9-1.5-2.3C19.9,46.4,20.1,46.3,20.3,46.2z"/>
			</g>
			<g class="st11">
				<path class="st12" d="M16.6,47.9c0-0.1,0-0.1,0-0.2c0.2-0.6,0.6-1.6,2.9-1.3c0,0,0.1,0,0.1,0c0.6,0.2,0.9,0.6,1.1,1.1l0,0
					c0,0-0.6-0.7-1.6-0.6c-1.2,0.1-1.8,1.6,0,2C17.8,48.7,17,48.3,16.6,47.9z"/>
			</g>
			<g class="st11">
				<path class="st12" d="M16.6,47.9c0-0.1,0-0.1,0-0.2c0.2-0.6,0.6-1.6,2.9-1.3c0,0,0.1,0,0.1,0c0.1,0,0.2,0.1,0.3,0.2
					c-0.4-0.1-1.2-0.1-1.9,0.1c-0.9,0.4-1.1,1.1-0.7,1.7C17,48.2,16.8,48,16.6,47.9z"/>
			</g>
			<g>
				<g class="st10">
					<path class="st4" d="M20.2,48.5c-0.4,0-0.7-0.3-0.9-0.6c-0.1-0.3,0-0.6,0.4-0.6c0.2,0,0.5,0.1,0.6,0.2c0,0,0,0,0,0
						c0.1,0.1,0.1,0.1,0.2,0.2C20.7,48,20.8,48.5,20.2,48.5z"/>
				</g>
				<g class="st10">
					<path class="st4" d="M18.9,48.5c0.1,0.1,0.3,0,0.3-0.1c0,0,0,0,0,0c0,0,0,0,0,0l0,0c0,0,0,0,0-0.1c0,0,0-0.1,0-0.2
						c0-0.1-0.1-0.1-0.1-0.1c0,0-0.1,0-0.1,0c-0.1,0-0.2,0.2-0.2,0.3C18.8,48.5,18.9,48.5,18.9,48.5z"/>
				</g>
			</g>
			<path class="st13" d="M24.7,47c0,0-0.6,0.7-1.9,1c-0.6,0.2,0,0.2,0.9-0.2C24.6,47.4,24.9,46.8,24.7,47z"/>
		</g>
	</g>
	<g>
		<g>
			<g>
				<path class="st0" d="M32,45.5c-0.5-2.7-0.3-5.2-1.2-8.4c-0.6-2.3-0.6-4-0.6-4L27,33.5c0,0,0.3,1.4,0.8,2.9
					c0.5,1.5,1.9,7.3,2.2,9.3C30,45.7,30.9,46.7,32,45.5z"/>
				<path class="st1" d="M30.9,46.1C30.9,46.1,30.9,46.1,30.9,46.1c-0.6,0-0.9-0.4-1-0.4c0,0,0,0,0,0c-0.3-2-1.7-7.8-2.2-9.3
					c-0.5-1.5-0.8-2.9-0.8-2.9c0,0,0,0,0,0c0,0,0,0,0,0l3.3-0.3c0,0,0,0,0,0c0,0,0,0,0,0c0,0,0,1.7,0.6,4c0.5,1.9,0.7,3.5,0.8,5.1
					c0.1,1.1,0.2,2.2,0.4,3.3c0,0,0,0,0,0C31.7,45.9,31.3,46.1,30.9,46.1z M30,45.7c0.1,0.1,0.4,0.4,0.9,0.4c0,0,0,0,0,0
					c0.4,0,0.7-0.2,1.1-0.5c-0.2-1.1-0.3-2.2-0.4-3.3c-0.1-1.6-0.3-3.2-0.8-5.1c-0.5-2.1-0.6-3.7-0.6-4L27,33.5
					c0.1,0.2,0.3,1.5,0.8,2.8C28.3,37.9,29.7,43.7,30,45.7z"/>
			</g>
			<path class="st1" d="M28.7,36c-0.2,0.2-0.5,0.2-0.7,0.1c0,0,0,0.1,0,0.1c0.1,0.1,0.2,0.1,0.4,0.1S28.7,36.2,28.7,36
				C28.8,36,28.8,36,28.7,36C28.8,36,28.8,36,28.7,36z"/>
			<g>
				<path class="st2" d="M30.3,33.1L27,33.5c0,0,0.1,0.2,0.1,0.6c0.3,0,1,0,1.8-0.1c0.6,0,0.8,0.4,0.8,1c0,0.7-1.2,1.2-1.7,1.1
					c0.5,0.3,0.9,0.1,1.3-0.1c0.4-0.2,1.3,1.3,1.5,3.6c0.3,2.4,0.2,5.2-0.3,5.3c-0.5,0.1-0.5-0.3-1.5-3.5c0.4,1.7,0.8,3.4,0.9,4.3
					c0,0,0.9,1,2-0.1c-0.5-2.7-0.3-5.2-1.2-8.4C30.3,34.8,30.3,33.1,30.3,33.1z"/>
			</g>
			<path class="st3" d="M29.6,42.4c-0.1-0.2-0.1-0.4-0.2-0.7c-0.1-0.4-0.2-0.9-0.4-1.3c-0.2-0.9-0.5-1.8-0.7-2.6
				c-0.1-0.5-0.3-1-0.4-1.5c0,0,0,0,0,0c0.2,0.9,0.4,1.8,0.7,2.7c0.2,0.9,0.5,1.8,0.7,2.7c0.1,0.2,0.1,0.5,0.2,0.7
				c0,0.1,0.1,0.2,0.1,0.4c0,0.1,0.1,0.3,0.1,0.4c0,0,0.1,0,0.1-0.1C29.7,42.8,29.6,42.6,29.6,42.4z"/>
			<path class="st3" d="M28,35.9c-0.1-0.1-0.1-0.2-0.2-0.3c-0.1-0.1-0.1-0.2-0.2-0.4c-0.1-0.2-0.2-0.5-0.2-0.7c0,0,0,0,0,0
				c0,0.3,0.1,0.5,0.2,0.8c0,0.1,0.1,0.2,0.2,0.4C27.7,35.7,27.8,35.9,28,35.9C27.9,36,28,35.9,28,35.9z"/>
		</g>
		<g>
			<g>
				<path class="st4" d="M29.6,48.7c2.1-0.5,3-1.4,3.3-1.9c0,0,0,0,0,0c0.2,0.6,0.4,0.9-1.8,1.9c-2.2,1-3.3,1.1-5,0.7
					c-1.5-0.3-1.8-0.8-1.7-1.3C25.1,48.7,26.9,49.3,29.6,48.7z"/>
				<path class="st5" d="M29,49.5c-0.9,0.2-1.7,0.2-2.8-0.1c-1.3-0.3-1.8-0.7-1.8-1.3c0,0,0,0,0,0s0,0,0.1,0c0.5,0.4,2,1.1,4.7,0.6
					l0,0c0.1,0,0.3-0.1,0.4-0.1c2.1-0.5,3-1.4,3.3-1.8c0,0,0,0,0.1,0c0,0,0,0,0,0l0,0c0.2,0.7,0.2,1-1.8,1.9
					C30.3,49.2,29.6,49.4,29,49.5z M24.5,48.3c0,0.4,0.3,0.8,1.7,1.1c1.1,0.2,1.9,0.3,2.7,0.1c0.6-0.1,1.3-0.4,2.2-0.8
					c2-0.9,2-1.2,1.8-1.7c-0.4,0.5-1.3,1.3-3.3,1.8c-0.1,0-0.3,0.1-0.4,0.1l0,0C27,49.3,25.3,48.9,24.5,48.3z"/>
			</g>
			<path class="st6" d="M32.7,47.1c0.1-0.1,0.2-0.2,0.3-0.3c0,0,0,0,0,0c0.1,0.3,0.2,0.6-0.1,0.9C32.8,47.5,32.8,47.3,32.7,47.1z"/>
			<path class="st6" d="M32.2,47.6c0.1-0.1,0.3-0.2,0.4-0.3c0.1,0.2,0.1,0.4,0.2,0.6c-0.1,0.1-0.2,0.2-0.4,0.3
				C32.3,47.9,32.3,47.7,32.2,47.6z"/>
			<path class="st6" d="M31.5,48c0.2-0.1,0.4-0.2,0.6-0.3c0.1,0.2,0.1,0.4,0.2,0.6c-0.2,0.1-0.3,0.2-0.5,0.3
				C31.6,48.3,31.6,48.1,31.5,48z"/>
			<path class="st6" d="M30.6,48.4c0.3-0.1,0.5-0.2,0.8-0.3c0.1,0.2,0.1,0.3,0.2,0.5c-0.1,0.1-0.2,0.1-0.4,0.2
				c-0.1,0.1-0.3,0.1-0.4,0.2C30.7,48.7,30.6,48.5,30.6,48.4z"/>
			<path class="st6" d="M29.9,48.6c0.2-0.1,0.4-0.1,0.6-0.2c0.1,0.2,0.1,0.4,0.2,0.5c-0.2,0.1-0.4,0.1-0.5,0.2
				C30,49,30,48.8,29.9,48.6z"/>
			<path class="st6" d="M29,48.8c0.2,0,0.4-0.1,0.6-0.1c0,0,0.1,0,0.1,0c0.1,0.2,0.2,0.4,0.2,0.6c-0.3,0.1-0.5,0.2-0.8,0.2
				C29.2,49.2,29.1,49,29,48.8z"/>
			<path class="st6" d="M28.2,48.9c0.2,0,0.5-0.1,0.7-0.1C29,49,29,49.2,29,49.5c-0.2,0-0.4,0.1-0.6,0.1
				C28.3,49.3,28.3,49.1,28.2,48.9z"/>
			<path class="st6" d="M27.5,48.9c0.2,0,0.4,0,0.6,0c0.1,0.2,0.1,0.4,0.2,0.7c-0.2,0-0.5,0-0.7,0C27.5,49.4,27.5,49.2,27.5,48.9z"
				/>
			<path class="st6" d="M26.5,48.9c0.2,0,0.5,0,0.8,0c0,0.2,0.1,0.4,0.1,0.6c-0.3,0-0.6-0.1-0.9-0.1C26.5,49.3,26.5,49.1,26.5,48.9z
				"/>
			<path class="st6" d="M25.7,48.7c0.2,0.1,0.4,0.1,0.6,0.1c0,0.2,0,0.4,0,0.6c-0.1,0-0.1,0-0.2,0c-0.2,0-0.4-0.1-0.5-0.1
				C25.7,49.1,25.7,48.9,25.7,48.7z"/>
			<path class="st6" d="M24.8,48.9c-0.3-0.2-0.3-0.5-0.3-0.7c0.1,0.1,0.2,0.2,0.3,0.2C24.8,48.5,24.8,48.7,24.8,48.9z"/>
			<path class="st6" d="M25,48.5c0.2,0.1,0.3,0.2,0.6,0.2c0,0.2,0,0.3,0,0.5c-0.2-0.1-0.4-0.2-0.5-0.2C25,48.8,25,48.6,25,48.5z"/>
			<g>
				<path class="st4" d="M24.5,47.9c0.1-0.6,0.5-1.6,2.8-1.4c0,0,0.1,0,0.1,0c1.2,0.4,1.6,1.7,1.6,2.3c-2.4,0.5-4.1-0.1-4.6-0.6
					C24.5,48.1,24.5,48,24.5,47.9z"/>
				<path class="st5" d="M29.1,48.8L29.1,48.8c-2.3,0.5-4,0-4.7-0.6c0,0,0,0,0,0c0-0.1,0-0.1,0-0.2c0.1-0.5,0.4-1.2,1.5-1.4
					c0.4-0.1,0.8-0.1,1.3-0.1c0,0,0.1,0,0.1,0c0,0,0,0,0,0C28.7,46.9,29.1,48.2,29.1,48.8C29.2,48.8,29.1,48.8,29.1,48.8z
					 M24.5,48.1c0.6,0.6,2.3,1,4.5,0.6c-0.1-0.6-0.5-1.8-1.6-2.2c0,0-0.1,0-0.1,0c-0.5,0-0.9,0-1.3,0.1c-1.1,0.2-1.3,0.9-1.4,1.3
					C24.6,48,24.6,48.1,24.5,48.1z"/>
			</g>
			<g>
				<g>
					<path class="st7" d="M28.1,46.3c0,0.1,0.2,0.1,0.4,0.1c0.5,0,0.9,0.6,1,0.7c0.1,0.1,1.1-0.2,1.1-0.4c-0.3-0.6-0.9-0.7-1.4-0.9
						c0-0.6,0.6-0.8,1-0.7c0.4,0,0.6,0.2,1,0.8c0.4,0.1,0.6-0.3,0.6-0.3l0-0.5c0,0,0.8-0.3,0.9,0.4c0.1,0.7,0.2,0.7,0.4,1.3
						c-0.3,0.5-1.2,1.3-3.3,1.9c-0.2,0-0.4,0.1-0.5,0.1c-0.1-0.5-0.4-1.9-1.6-2.3C27.8,46.5,28,46.4,28.1,46.3z"/>
					<path class="st5" d="M29.2,48.8L29.2,48.8c-0.1,0-0.1,0-0.1,0c0,0,0,0,0,0c-0.1-0.5-0.4-1.8-1.6-2.2c0,0,0,0,0-0.1
						c0,0,0,0,0.1,0c0,0,0.1,0,0.1,0c0.2,0,0.3-0.1,0.4-0.2c0,0,0,0,0,0c0,0,0,0,0,0c0,0.1,0.2,0.1,0.3,0.1c0.5,0,0.9,0.5,1,0.7
						c0,0,0,0,0,0c0,0,0,0,0.2,0c0.3-0.1,0.7-0.2,0.8-0.3c-0.3-0.5-0.8-0.7-1.3-0.8l-0.1,0c0,0,0,0,0-0.1c0-0.6,0.7-0.9,1.1-0.8
						c0.4,0,0.6,0.2,1,0.8c0.1,0,0.1,0,0.2,0c0.2,0,0.3-0.2,0.3-0.2l0-0.5c0,0,0,0,0-0.1c0,0,0.1,0,0.2,0c0.2,0,0.4-0.1,0.6,0.1
						c0.1,0.1,0.2,0.2,0.2,0.4c0,0.4,0.1,0.6,0.2,0.8c0.1,0.1,0.1,0.3,0.2,0.5c0,0,0,0,0,0.1c-0.3,0.5-1.2,1.3-3.4,1.9
						C29.5,48.7,29.4,48.8,29.2,48.8z M29.2,48.7L29.2,48.7c0.2,0,0.3-0.1,0.5-0.1c2.1-0.5,2.9-1.3,3.3-1.8
						c-0.1-0.2-0.1-0.3-0.2-0.4c-0.1-0.2-0.2-0.4-0.2-0.8c0-0.1-0.1-0.2-0.2-0.3c-0.2-0.1-0.4-0.1-0.5-0.1c0,0-0.1,0-0.1,0l0,0.5
						c0,0,0,0,0,0c0,0-0.1,0.3-0.4,0.3c-0.1,0-0.2,0-0.3,0c0,0,0,0,0,0c-0.4-0.6-0.5-0.7-0.9-0.7c-0.4-0.1-0.9,0.2-0.9,0.6l0,0
						c0.5,0.1,1.1,0.3,1.4,0.9c0,0,0,0.1,0,0.1c-0.1,0.1-0.6,0.3-0.8,0.4c-0.2,0-0.3,0-0.3,0c0,0,0,0,0,0c-0.1-0.2-0.5-0.7-0.9-0.7
						c-0.2,0-0.3,0-0.4-0.1c-0.1,0.1-0.2,0.1-0.4,0.1C28.7,47,29,48.1,29.2,48.7z"/>
				</g>
				<g>
					<path class="st8" d="M30.5,46.8c0.1,0.2-1,0.5-1.1,0.4c-0.1-0.1-0.5-0.7-1-0.7c-0.2,0-0.4,0-0.4-0.1c0.1,0,0.1-0.1,0.1-0.1
						s0.2-0.4,0.9-0.3C29.6,46.1,30.2,46.2,30.5,46.8z"/>
					<path class="st5" d="M29.7,47.2c-0.2,0-0.3,0-0.3,0c0,0,0,0,0,0c-0.1-0.2-0.5-0.7-0.9-0.7c-0.2,0-0.4,0-0.4-0.2c0,0,0,0,0-0.1
						c0,0,0.1,0,0.1-0.1c0,0,0.2-0.3,0.5-0.3c0.1,0,0.3,0,0.5,0l0.1,0c0.5,0.1,1.1,0.3,1.4,0.9c0,0,0,0.1,0,0.1
						C30.5,47,30,47.2,29.7,47.2z M29.5,47.1c0,0,0.1,0,0.2,0c0.3-0.1,0.7-0.2,0.8-0.3c-0.3-0.5-0.8-0.7-1.3-0.8l-0.1,0
						c-0.2,0-0.3,0-0.4,0c-0.3,0.1-0.4,0.3-0.4,0.3c0,0,0,0,0,0c0,0,0,0,0,0c0.1,0,0.2,0.1,0.3,0.1C28.9,46.4,29.3,46.9,29.5,47.1
						C29.5,47.1,29.5,47.1,29.5,47.1L29.5,47.1z"/>
				</g>
				<path class="st9" d="M28.1,46.2c0,0,0.2-0.4,0.9-0.3c0.5,0.1,1.2,0.3,1.4,0.9c0,0,0,0,0,0.1c-0.2-0.2-0.4-0.4-0.6-0.6
					c-0.2-0.1-0.5-0.3-0.7-0.1c-0.1,0.2,0,0.4,0.1,0.6c0.1,0.2,0.2,0.3,0.3,0.4c-0.1,0-0.1,0-0.2,0c-0.1-0.1-0.5-0.7-1-0.7
					C28.2,46.4,28.1,46.4,28.1,46.2C28.1,46.3,28.1,46.2,28.1,46.2z"/>
			</g>
			<g class="st10">
				<path class="st7" d="M28.1,46.3c0,0.1,0.2,0.1,0.4,0.1c0.5,0,0.9,0.6,1,0.7c0.1,0.1,1.1-0.2,1.1-0.4c-0.3-0.6-0.9-0.7-1.4-0.9
					c0-0.6,0.6-0.8,1-0.7c0.4,0,0.6,0.2,1,0.8c0.4,0.1,0.6-0.3,0.6-0.3l0-0.5c0,0,0.8-0.3,0.9,0.4c0,0.2,0.1,0.4,0.1,0.5
					c-0.2-0.3-0.2-0.6-0.6-0.6c-0.4,0,0.2,0.6-0.6,0.8c-0.7,0.3-0.6-0.1-0.8-0.4c-0.2-0.3-0.9-0.6-1.2-0.2c-0.1,0.2,1.2,0.2,1.3,1.2
					c0.1,0.3-1.3,0.7-1.5,0.5c-0.2-0.3-0.4-0.5-0.7-0.5c-0.3,0,0.6,0.6,0.7,1.2c0.1,0.5,0.3,0.6,1.4,0.2c-0.3,0.1-0.7,0.2-1.1,0.3
					c-0.2,0-0.4,0.1-0.5,0.1c-0.1-0.5-0.4-1.9-1.6-2.3C27.8,46.5,28,46.4,28.1,46.3z"/>
			</g>
			<g class="st11">
				<path class="st12" d="M24.5,48.1c0-0.1,0-0.1,0-0.2c0.1-0.6,0.5-1.6,2.8-1.4c0,0,0.1,0,0.1,0c0.6,0.2,1,0.6,1.2,1h0
					c0,0-0.6-0.6-1.6-0.6c-1.2,0.1-1.7,1.6,0.1,2C25.8,48.9,24.9,48.5,24.5,48.1z"/>
			</g>
			<g class="st11">
				<path class="st12" d="M24.5,48.1c0-0.1,0-0.1,0-0.2c0.1-0.6,0.5-1.6,2.8-1.4c0,0,0.1,0,0.1,0c0.1,0,0.2,0.1,0.3,0.2
					c-0.4,0-1.2-0.1-1.9,0.2c-0.9,0.4-1,1.2-0.6,1.7C24.9,48.5,24.7,48.3,24.5,48.1z"/>
			</g>
			<g>
				<g class="st10">
					<path class="st4" d="M28.1,48.6c-0.4,0-0.7-0.2-0.9-0.5c-0.2-0.3-0.1-0.6,0.3-0.6c0.2,0,0.5,0.1,0.6,0.2c0,0,0,0,0,0
						c0.1,0.1,0.1,0.1,0.2,0.2C28.6,48.1,28.7,48.5,28.1,48.6z"/>
				</g>
				<g class="st10">
					<path class="st4" d="M26.9,48.7c0.1,0,0.3,0,0.3-0.1c0,0,0,0,0,0c0,0,0,0,0,0l0,0c0,0,0,0,0-0.1c0,0,0-0.1,0-0.2
						c0-0.1-0.1-0.1-0.1-0.1c0,0-0.1,0-0.1,0c-0.1,0-0.2,0.2-0.2,0.3C26.7,48.6,26.8,48.7,26.9,48.7z"/>
				</g>
			</g>
			<path class="st13" d="M32.5,46.8c0,0-0.6,0.7-1.8,1.1c-0.6,0.2,0.1,0.2,0.9-0.2C32.5,47.3,32.7,46.7,32.5,46.8z"/>
		</g>
	</g>
	<g>
		<g>
			<g>
				<path class="st14" d="M25.9,32.8c0,0-0.1,0-0.1,0.6c0,0.5,0.7,0.4,1.8,0.4c1.1,0,3.9-0.6,3.9-1.6c0-0.6-0.2-0.7-0.4-0.7
					C28.8,33.6,25.9,32.8,25.9,32.8z"/>
				<path class="st15" d="M27.7,33.9c0,0-0.1,0-0.1,0c-0.2,0-0.5,0-0.7,0c-0.7,0-1.2,0-1.2-0.4c0-0.6,0.1-0.6,0.1-0.6c0,0,0,0,0,0
					c0,0,2.9,0.8,5.1-1.2c0,0,0,0,0,0c0.1,0,0.2,0,0.2,0c0.1,0.1,0.2,0.3,0.2,0.7c0,0.2-0.1,0.4-0.3,0.5
					C30.5,33.5,28.6,33.9,27.7,33.9z M25.9,32.9c0,0-0.1,0.1-0.1,0.5c0,0.3,0.4,0.4,1.1,0.4c0.2,0,0.4,0,0.7,0
					c0.8,0,2.9-0.4,3.6-1.1c0.2-0.2,0.2-0.3,0.2-0.5c0-0.4-0.1-0.6-0.2-0.6c0,0-0.1,0-0.2,0C28.9,33.6,26.1,32.9,25.9,32.9z"/>
			</g>
			<path class="st16" d="M26.7,33c-0.5,0-0.8-0.1-0.8-0.1s-0.1,0-0.1,0.6c0,0.4,0.4,0.4,1,0.4C26.8,33.5,26.8,33.2,26.7,33z"/>
			<path class="st16" d="M31.1,31.6c-0.2,0.2-0.5,0.4-0.8,0.6c0.1,0.4,0.1,0.7,0.2,1.1c0.6-0.3,1-0.6,1-1
				C31.5,31.6,31.2,31.5,31.1,31.6z"/>
			<g>
				<path class="st14" d="M31.2,27.4c-1.1,0.5-6.9,3.1-10.7,0.7c0,0-0.1,2.8,0.1,3.9c0,0,0.8,0.7,4.9,0.8c0,0,0.1-1.1,0.2-1.3
					c0.1,0.3,0.3,1.3,0.3,1.3s2.9,0.8,5.2-1.3C31.1,30.4,31.2,28.5,31.2,27.4z"/>
				<path class="st15" d="M27.3,33c-0.8,0-1.4-0.2-1.4-0.2c0,0,0,0,0,0c0,0-0.1-0.8-0.2-1.2c-0.1,0.4-0.2,1.2-0.2,1.2c0,0,0,0,0,0
					c-4.1-0.1-4.9-0.8-4.9-0.8c0,0,0,0,0,0c-0.1-1.1-0.1-3.9-0.1-4c0,0,0,0,0,0c0,0,0,0,0,0c1.6,1,3.8,1.3,6.4,0.8
					c2.3-0.5,4.1-1.4,4.3-1.5c0,0,0,0,0,0c0,0,0,0,0,0c0,1-0.1,2.6-0.2,4.2c0,0,0,0,0,0C29.8,32.8,28.4,33,27.3,33z M25.9,32.8
					c0.3,0.1,3,0.7,5.1-1.2c0.1-1.5,0.2-3.1,0.2-4.1c-0.4,0.2-2.1,1-4.3,1.4c-2.6,0.5-4.7,0.3-6.4-0.8c0,0.4-0.1,2.9,0.1,3.9
					c0.1,0.1,1.1,0.7,4.8,0.8c0-0.2,0.1-1.1,0.2-1.3c0,0,0,0,0,0c0,0,0,0,0,0C25.8,31.8,25.9,32.6,25.9,32.8z"/>
			</g>
		</g>
		<g>
			<path class="st14" d="M26,31.1c-0.3,0.1-0.6,0-1,0c-0.3-0.1-0.6-0.2-0.9-0.3c0,0-0.1,0-0.1,0C24.6,31.2,25.3,31.3,26,31.1
				C26,31.2,26,31.1,26,31.1z"/>
			<path class="st14" d="M21.8,31.9c-0.2,0-0.4-0.2-0.5-0.4c-0.1-0.3-0.1-0.6-0.2-0.9c0,0,0,0,0,0c0,0.3,0,0.7,0.1,1
				c0.1,0.2,0.3,0.5,0.5,0.4C21.8,32,21.9,31.9,21.8,31.9z"/>
			<path class="st14" d="M26.7,32.1c0-0.1-0.1-0.2-0.2-0.2c-0.1-0.1-0.1-0.2-0.2-0.2c-0.1-0.1-0.1,0,0,0.1c0,0.1,0.1,0.2,0.1,0.3
				c0,0,0,0.1,0.1,0.1C26.6,32.1,26.7,32.2,26.7,32.1c0,0.1,0.1,0.3,0.1,0.3C26.8,32.4,26.7,32.2,26.7,32.1z"/>
		</g>
		<g class="st10">
			<path class="st14" d="M31.2,27.4c-1.1,0.5-6.9,3.1-10.7,0.7c0,0-0.1,2.8,0.1,3.9c0,0,0.8,0.7,4.9,0.8c0,0,0.1-1.1,0.2-1.3
				c0.1,0.3,0.3,1.3,0.3,1.3s2.9,0.8,5.2-1.3C31.1,30.4,31.2,28.5,31.2,27.4z M28.3,32.4c-1.7,0.2-2,0.2-2.1-1c0,0,0.6,0,1-0.5
				c-1.7,0.4-1.9,0.6-2.9,0.2c1,0.5,0.9,0.6,0.9,1c0,0.4,0,0.3-1.5,0.3c-1.5,0-2.4,0.1-2.4-0.7c0-0.8-0.3-1.5,0.1-1.2
				c0.4,0.3,0.4-0.2,0-0.8c0,0,2.8,2,7.2,0.4c1.2-0.5,1.6-0.4,1.1,0.2c-0.5,0.6,0.2,0.2,0.4,0.8C30.1,31.7,29.9,32.2,28.3,32.4z"/>
		</g>
		<g>
			<path class="st14" d="M20.3,32.6c0,0.5-0.1,0.6,0.6,0.8c0.7,0.2,3.8,0.4,4.2,0.3c0.4,0,0.5-0.5,0.5-0.7c0-0.2-0.2-0.2-0.2-0.2
				c-4.1-0.1-4.9-0.8-4.9-0.8S20.4,32.2,20.3,32.6z"/>
			<path class="st15" d="M25.1,33.8c-0.6,0-3.5-0.2-4.2-0.4c-0.7-0.2-0.7-0.3-0.7-0.7l0-0.1c0-0.5,0.3-0.6,0.3-0.6c0,0,0,0,0,0
				c0,0,0.9,0.7,4.9,0.8c0,0,0.1,0,0.1,0c0.1,0,0.1,0.1,0.1,0.2C25.7,33.3,25.7,33.8,25.1,33.8C25.2,33.8,25.2,33.8,25.1,33.8z
				 M20.3,32.6L20.3,32.6L20.3,32.6c0,0.5,0,0.6,0.7,0.7c0.7,0.2,3.8,0.4,4.2,0.3c0.4,0,0.4-0.4,0.4-0.7c0-0.2-0.1-0.2-0.2-0.2
				c-3.7-0.1-4.7-0.7-4.9-0.8C20.5,32.1,20.4,32.3,20.3,32.6L20.3,32.6z"/>
		</g>
		<path class="st16" d="M21.2,32.3c-0.5-0.2-0.6-0.3-0.6-0.3s-0.2,0.1-0.3,0.6c0,0.5-0.1,0.6,0.6,0.8c0,0,0.1,0,0.1,0
			C21.1,33.1,21.2,32.7,21.2,32.3z"/>
		<path class="st16" d="M25.5,32.8c-0.4,0-0.7,0-1,0c0,0.3-0.1,0.6-0.1,0.9c0.4,0,0.7,0,0.8,0c0.4,0,0.5-0.5,0.5-0.7
			C25.7,32.8,25.5,32.8,25.5,32.8z"/>
	</g>
	<g>
		<g>
			<g>
				<path class="st17" d="M31.6,25.9c-0.5-0.6-0.9-1.2-0.9-1.2c0.2-1.6,0.3-2.8,0.3-2.8s0.9-1.7,0.3-3.8c-0.8-2.5-3.4-2.6-3.4-2.6
					c-0.2,0-0.3,0-0.5,0c0,0.9-0.6,2.2-2.2,2.2c-1.5,0-1.5-1.3-1.5-1.9c-0.1,0-0.1,0-0.1,0s-1,0.1-1.5,0.4s-0.9,0.3-1.3,1
					C20.4,17.8,19,20,19,20s1.2-0.1,2.4,0.4L21.3,21l-0.5,3.4c-0.3,2,0,2.9,0,2.9s-0.3,0.3-0.4,0.5c-0.2,0.4,0,0.6,0,0.6
					s0.8,1.3,4.2,1.3c3.4,0.1,6.3-1.5,6.3-1.5C32.4,27.5,32,26.4,31.6,25.9z"/>
				<path class="st18" d="M24.8,29.7c-0.1,0-0.1,0-0.2,0c-3.3-0.1-4.1-1.2-4.2-1.4c0,0-0.2-0.2,0-0.6c0.1-0.2,0.3-0.4,0.4-0.5
					c-0.1-0.1-0.3-1,0-2.9l0.5-3.4l0.1-0.6c-1.2-0.5-2.3-0.4-2.3-0.4c0,0,0,0,0,0c0,0,0,0,0,0c0,0,1.4-2.3,1.7-2.9
					c0.3-0.6,0.7-0.7,1.1-0.9c0,0,0.1,0,0.1-0.1c0.5-0.2,1.5-0.4,1.6-0.4l0,0c0,0,0,0,0.1,0c0,0,0,0,0,0c0,0,0,0,0,0
					c0,0.3-0.1,1,0.3,1.4c0.2,0.3,0.6,0.4,1.1,0.4c0,0,0,0,0,0c1.5,0,2-1.2,2.1-2.2c0,0,0,0,0,0c0.2,0,0.3,0,0.5,0
					c0,0,2.6,0.2,3.4,2.7c0.7,2-0.2,3.7-0.3,3.8c0,0.1-0.1,1.2-0.3,2.8c0.1,0.1,0.5,0.7,0.9,1.2l0,0c0.3,0.4,0.5,0.9,0.4,1.3
					c-0.1,0.4-0.4,0.8-1,1C31,28.2,28.1,29.7,24.8,29.7z M19.4,20c0.4,0,1.2,0.1,2,0.4c0,0,0,0,0,0L21.3,21l-0.5,3.4
					c-0.3,2,0,2.8,0,2.8c0,0,0,0,0,0c0,0-0.3,0.3-0.4,0.5c-0.2,0.4,0,0.5,0,0.5c0,0,0,0,0,0c0,0,0.9,1.3,4.2,1.3c0.1,0,0.1,0,0.2,0
					c3.2,0,6.1-1.5,6.1-1.5c0.5-0.2,0.9-0.6,1-1c0.1-0.4-0.1-0.9-0.4-1.3c-0.5-0.6-0.9-1.2-0.9-1.2c0,0,0,0,0,0
					c0.2-1.6,0.3-2.8,0.3-2.8c0,0,0,0,0,0c0,0,0.9-1.8,0.3-3.8c-0.8-2.4-3.3-2.6-3.3-2.6c-0.1,0-0.3,0-0.4,0c0,0.5-0.2,1-0.5,1.4
					c-0.4,0.5-0.9,0.8-1.7,0.8c0,0,0,0,0,0c-0.5,0-0.9-0.2-1.2-0.4c-0.4-0.4-0.4-1-0.3-1.4c0,0-0.1,0-0.1,0c0,0-1,0.1-1.5,0.4
					c-0.1,0-0.1,0-0.2,0.1c-0.4,0.2-0.8,0.3-1.1,0.9c-0.3,0.6-1.5,2.5-1.7,2.8C19.2,20,19.3,20,19.4,20z"/>
			</g>
			<path class="st19" d="M23.6,15.8c0,0-1,0.1-1.5,0.4c-0.5,0.2-0.9,0.3-1.3,1C20.4,17.8,19,20,19,20s1.2-0.1,2.4,0.4L21.3,21
				l-0.5,3.4c-0.1,0.4-0.1,0.8-0.1,1.1l0,0c0,0,0.1-0.6,0.8-0.8c0.9-0.3,0.8,0,3,0.8c2.1,0.8,3.1,0.3,3.9-0.1c0.8-0.4,1.8-0.2,1.1,1
				c-0.3,0.5-0.7,1.3-1.6,1.6c0,0,1.4-0.3,1.9-0.7c0.5-0.4,1,1.1-2.3,1.7c-3.3,0.6-4.7,0.1-5.4-0.3c-0.7-0.4,0-0.5,0.4-0.3
				c0.4,0.2-1.2-0.6-1.8-2.1c0,0.7,0.2,1,0.2,1s-0.3,0.3-0.4,0.5c-0.2,0.4,0,0.6,0,0.6s0.8,1.3,4.2,1.3c3.4,0.1,6.3-1.5,6.3-1.5
				c1.4-0.6,1.1-1.7,0.6-2.3c-0.5-0.6-0.9-1.2-0.9-1.2c0.2-1.6,0.3-2.8,0.3-2.8s0.9-1.7,0.3-3.8c-0.8-2.5-3.4-2.6-3.4-2.6
				 M30.6,17.5c0.7,1.4,0.2,4.3-1,4.2c-1.2,0-1.1-1.4-0.9-1.9c0.3-0.9,1-1.3,1-1.3s-0.3-0.1-0.6,0.1c-0.2,0.1,0,0.1-0.1-0.9
				c0-0.3-0.3,1-2.4,1.5c-1.2,0.3-1.5,1.4-2.6,1.4c-0.8,0-1-0.6-1.6-1.1c-0.6-0.5-0.5-1.7-0.5-1.7c-0.2,0.3-0.4,0.9-0.5,0.8
				c-0.3-0.5-0.7-0.4-0.7-0.4c0.5,0.8-0.2,1.9-0.7,1.5c-0.6-0.4,0.1-1.3,0.8-2.4c0.4-0.7,0.6-0.9,1.5-1.1c0.8-0.2,1.2-0.3,1.2,0.2
				c0,0.5,0.1,1.5,1.6,1.6s2.3-1,2.4-2C27.6,15.5,29.7,15.7,30.6,17.5z"/>
		</g>
		<g>
			<g>
				<g>
					<g>
						<path class="st18" d="M29,17.9c0,0.1,0,0.3-0.1,0.4c0,0.1,0,0.3-0.1,0.4l0,0.2l-0.1,0.2c0,0.1,0,0.1-0.1,0.2l-0.1,0.2
							c0,0.1,0,0.1-0.1,0.2l-0.1,0.2c-0.1,0.1-0.1,0.3-0.2,0.4c-0.1,0.3-0.2,0.6-0.4,0.8c0,0,0,0-0.1,0h0c-0.1,0-0.2,0-0.3,0
							c-0.1,0-0.2,0.1-0.2,0.2l0,0l0,0c0,0,0,0,0,0v0l0,0l0,0c0,0,0,0,0,0.1c0,0.1,0,0.1,0,0.2c0,0.1,0.1,0.2,0.1,0.3
							c0.1,0.2,0.2,0.4,0.4,0.6c0.2,0.2,0.3,0.3,0.5,0.5c0.2,0.2,0.3,0.3,0.5,0.4c0.1,0.1,0.2,0.1,0.3,0.2c0.1,0,0.2,0.1,0.3,0.1
							c0.1,0,0.2,0,0.3,0c0,0,0.1,0,0.1-0.1c0,0,0,0,0.1-0.1c0,0,0,0,0.1-0.1c0.1-0.1,0.1-0.2,0.1-0.3c0-0.1,0-0.2,0-0.3v0
							c0,0,0,0,0,0l0.2-0.4c0-0.1,0.1-0.1,0.1-0.2l0.1-0.2l0.4-0.9l-0.4,0.9c-0.1,0.2-0.1,0.3-0.2,0.5l-0.2,0.5l0,0
							c0,0.1,0,0.2,0,0.4c0,0.1-0.1,0.2-0.1,0.3c0,0,0,0-0.1,0.1c0,0,0,0-0.1,0.1c-0.1,0-0.1,0.1-0.2,0.1c-0.1,0-0.3,0-0.4,0
							c-0.1,0-0.2-0.1-0.3-0.1c-0.1-0.1-0.2-0.1-0.3-0.2c-0.2-0.1-0.4-0.3-0.6-0.4c-0.2-0.2-0.3-0.3-0.5-0.5
							c-0.2-0.2-0.3-0.4-0.4-0.6c-0.1-0.1-0.1-0.2-0.1-0.3c0-0.1,0-0.1,0-0.2c0,0,0-0.1,0-0.1l0,0l0,0l0,0c0,0,0,0,0,0l0,0l0,0
							c0.1-0.1,0.2-0.2,0.3-0.2c0.1,0,0.2,0,0.4,0l-0.1,0c0.1-0.3,0.2-0.5,0.4-0.8c0.1-0.1,0.1-0.3,0.2-0.4l0.1-0.2
							c0-0.1,0.1-0.1,0.1-0.2l0.1-0.2c0-0.1,0-0.1,0.1-0.2l0.1-0.2l0.1-0.2c0-0.1,0.1-0.3,0.1-0.4C29,18.2,29,18.1,29,17.9z"/>
					</g>
					<g>
						<path class="st18" d="M30.7,24.2c0,0,0,0,0,0.1c0,0.1,0,0.2,0,0.3c0,0.1,0,0.3,0,0.4c0,0.2,0,0.3,0,0.5c0,0.2,0,0.3,0,0.5
							c0,0.2,0,0.3,0,0.4c0,0.1,0,0.2,0,0.3c0,0.1,0,0.1,0,0.1s0,0,0-0.1c0-0.1,0-0.2,0-0.3c0-0.1,0-0.3,0-0.4c0-0.2,0-0.3,0-0.5
							c0-0.1,0-0.2,0-0.2c0-0.1,0-0.2,0-0.2c0-0.2,0-0.3,0.1-0.4c0-0.1,0-0.2,0.1-0.3C30.7,24.2,30.7,24.2,30.7,24.2z"/>
					</g>
					<g>
						<path class="st18" d="M20.7,26.5C20.7,26.5,20.7,26.5,20.7,26.5c0,0.1,0,0.2,0.1,0.3c0,0.1,0.1,0.2,0.1,0.3
							c0,0.1,0,0.1,0.1,0.2c0,0.1,0,0.1,0.1,0.2c0,0.1,0,0.1,0.1,0.2c0,0.1,0,0.1,0.1,0.2c0,0.1,0,0.1,0.1,0.1c0,0,0.1,0.1,0.1,0.1
							c0,0,0,0.1,0.1,0.1c0,0,0,0.1,0.1,0.1c0,0,0,0.1,0,0.1s0,0-0.1-0.1c0,0,0,0-0.1-0.1c0,0-0.1-0.1-0.1-0.1c0,0-0.1-0.1-0.1-0.1
							c0,0-0.1-0.1-0.1-0.1c-0.1-0.1-0.1-0.2-0.2-0.3c0-0.1-0.1-0.2-0.1-0.4c0-0.1,0-0.2,0-0.3C20.6,26.6,20.7,26.5,20.7,26.5z"/>
					</g>
					<g>
						<path class="st18" d="M28.6,19.8c0,0,0-0.1,0.1-0.2c0-0.1,0.1-0.1,0.1-0.2c0-0.1,0.1-0.2,0.2-0.2c0.1-0.1,0.1-0.1,0.2-0.2
							c0,0,0.1-0.1,0.1-0.1s0.1,0,0.1-0.1c0.1,0,0.1-0.1,0.2-0.1c0,0,0.1,0,0.1,0s0,0,0,0c0,0-0.1,0.1-0.1,0.1c0,0-0.1,0.1-0.1,0.1
							c0,0-0.1,0.1-0.1,0.1c0,0-0.1,0.1-0.1,0.1c0,0-0.1,0.1-0.1,0.1c-0.1,0.1-0.2,0.3-0.3,0.4C28.6,19.7,28.6,19.8,28.6,19.8z"/>
					</g>
					<g>
						<g>
							<path class="st18" d="M21.8,18C21.8,18,21.8,18.1,21.8,18c0,0.1,0,0.2,0,0.3c0,0.1,0,0.2-0.1,0.3c0,0.1,0,0.2-0.1,0.3
								c0,0.1,0,0.2-0.1,0.3c0,0.1,0,0.2-0.1,0.3c0,0.1,0,0.2,0,0.2c0,0,0,0.1,0,0.1s0,0,0-0.1c0-0.1,0-0.1,0-0.2c0-0.1,0-0.2,0-0.3
								c0-0.1,0-0.2,0.1-0.3c0-0.1,0.1-0.2,0.1-0.3c0-0.1,0.1-0.2,0.1-0.3C21.7,18.2,21.8,18.2,21.8,18C21.8,18.1,21.8,18,21.8,18z"
								/>
						</g>
						<path class="st18" d="M20.9,18.3C20.9,18.3,20.9,18.3,20.9,18.3c0.1,0,0.1,0.1,0.2,0.1c0,0,0.1,0.1,0.1,0.1c0,0,0,0.1,0.1,0.1
							c0,0,0,0.1,0.1,0.1c0,0,0,0.1,0.1,0.1c0,0,0,0.1,0,0.1c0,0.1,0.1,0.1,0.1,0.2c0,0.1,0,0.2,0,0.2s0-0.1-0.1-0.2
							c0,0,0-0.1,0-0.1c0,0,0-0.1,0-0.1c0,0,0-0.1-0.1-0.1c0,0,0-0.1-0.1-0.1c0,0,0-0.1-0.1-0.1c0,0,0-0.1-0.1-0.1
							c0,0,0-0.1-0.1-0.1c0,0,0,0-0.1-0.1C20.9,18.4,20.9,18.4,20.9,18.3C20.9,18.3,20.9,18.3,20.9,18.3z"/>
					</g>
				</g>
				<g>
					<g>
						<path class="st20" d="M19,20c0,0-0.5,0-0.5,0.4c0,0.3,0.2,0.4,0.2,0.4s1-0.3,2.5,0.3l0.1-0.6C20.2,19.9,19,20,19,20z"/>
						<path class="st21" d="M21.3,21.1C21.3,21.1,21.3,21.1,21.3,21.1c-1.5-0.6-2.5-0.3-2.5-0.3c0,0,0,0,0,0c0,0-0.3-0.1-0.3-0.4
							C18.5,20,19,20,19,20c0.1,0,1.2-0.1,2.4,0.4c0,0,0,0,0,0L21.3,21.1C21.3,21.1,21.3,21.1,21.3,21.1
							C21.3,21.1,21.3,21.1,21.3,21.1z M19.6,20.7c0.4,0,1,0.1,1.7,0.3l0.1-0.6c-1.2-0.5-2.3-0.4-2.3-0.4c0,0,0,0,0,0
							c0,0-0.4,0-0.5,0.3c0,0.2,0.2,0.3,0.2,0.3C18.8,20.7,19.1,20.7,19.6,20.7z"/>
					</g>
					<path class="st22" d="M19.9,20c0.2,0.2,0.1,0.4-0.3,0.4c-0.4,0.1-0.7,0.1-1,0.1c0.1,0.1,0.2,0.2,0.2,0.2s1-0.3,2.5,0.3l0.1-0.6
						C20.9,20.2,20.3,20.1,19.9,20z"/>
				</g>
				<path class="st23" d="M20,18.8c0,0,0.4-0.9,0.9-1.5c0.4-0.6,0.6-0.8,1.4-1c0,0-0.6,0.2-0.9,0.7C20.9,17.5,20,18.8,20,18.8z"/>
			</g>
			<g>
				<g>
					<path class="st0" d="M26.6,19.7c-1.4,0.3-1.3,1.5-1.3,1.5c-0.3,0.1-1.4,0.3-1.4,0.3l-2.6,0.3c-0.4,0-0.8,0.1-1,0.2
						c-0.2,0.1-0.5,0.2-0.7,0c-0.2-0.2,0.1-0.5,0.1-0.5c-0.2-0.4,0.3-0.6,0.3-0.6c-0.1,0-0.1-0.2-0.1-0.2c-0.6-0.2-1.1,0-1.1,0
						c-0.8,1.6-0.9,2.9-0.2,3.6c0.7,0.7,2.2,0.1,2.2,0.1s2.9-0.7,4.6-1.6c0,0,0.9,0.4,2-0.6l0,0c-0.1-0.2-0.2-0.4-0.1-0.6
						c0.1-0.3,0.6-0.3,0.6-0.3s0.3-0.6,0.5-1.2c0-0.1,0.1-0.2,0.1-0.2C28.5,19.9,28,19.3,26.6,19.7z"/>
					<path class="st1" d="M19.6,24.7c-0.4,0-0.8-0.1-1-0.3c-0.7-0.7-0.7-2,0.2-3.6c0,0,0,0,0,0c0,0,0.5-0.3,1.2,0c0,0,0,0,0,0
						c0,0,0,0.1,0.1,0.1c0,0,0,0,0,0s0,0,0,0c0,0-0.3,0.1-0.3,0.4c0,0.1,0,0.2,0,0.2c0,0,0,0,0,0c0,0-0.2,0.2-0.1,0.4
						c0.1,0.2,0.5,0,0.6,0c0.2-0.1,0.6-0.2,1-0.2l2.5-0.3c0,0,1-0.2,1.4-0.3c0-0.2,0.1-1.2,1.4-1.5c1.1-0.3,1.7,0,1.9,0.2
						c0.1,0.1,0.1,0.1,0.1,0.1c0,0,0,0,0,0c0,0.1-0.1,0.2-0.1,0.2c-0.2,0.5-0.5,1.2-0.5,1.2c0,0,0,0,0,0c0,0-0.5,0-0.6,0.3
						c-0.1,0.1,0,0.3,0.1,0.6c0,0,0,0,0,0c-0.5,0.6-1.1,0.7-1.4,0.7c-0.3,0-0.5-0.1-0.6-0.1c-1.8,0.9-4.6,1.6-4.6,1.6
						C20.7,24.5,20.2,24.7,19.6,24.7z M18.8,20.8c-0.8,1.6-0.9,2.9-0.2,3.5c0.7,0.7,2.1,0.1,2.1,0.1c0,0,2.9-0.7,4.6-1.6
						c0,0,0,0,0,0c0,0,0.2,0.1,0.6,0.1c0.3,0,0.8-0.2,1.3-0.7c-0.1-0.2-0.1-0.4-0.1-0.6c0.1-0.3,0.5-0.3,0.6-0.3
						c0.1-0.1,0.3-0.7,0.5-1.1c0-0.1,0.1-0.1,0.1-0.2c-0.1-0.1-0.7-0.5-1.9-0.2l0,0c-1.4,0.3-1.3,1.5-1.3,1.5c0,0,0,0,0,0
						c-0.3,0.1-1.4,0.3-1.4,0.3l-2.6,0.3c-0.4,0-0.8,0.1-1,0.2c-0.1,0.1-0.5,0.2-0.7,0c-0.2-0.2,0-0.4,0.1-0.5c0-0.1,0-0.2,0-0.3
						c0.1-0.2,0.2-0.3,0.3-0.4c-0.1,0-0.1-0.1-0.1-0.1C19.3,20.6,18.9,20.8,18.8,20.8z M26.6,19.7L26.6,19.7L26.6,19.7z"/>
				</g>
				<g>
					<g>
						<g>
							<path class="st1" d="M28.4,20.2C28.4,20.2,28.4,20.2,28.4,20.2c-0.1,0-0.2,0-0.2-0.1c0,0-0.1,0-0.1,0c0,0-0.1,0-0.1,0
								c0,0-0.1,0-0.1,0c0,0-0.1,0-0.1,0s-0.1,0-0.1,0c0,0-0.1,0-0.1,0c0,0-0.1,0-0.1,0c0,0-0.1,0-0.1,0c-0.2,0-0.3,0-0.3,0
								s0.1,0,0.2-0.1c0,0,0.1,0,0.1,0c0,0,0.1,0,0.1,0c0,0,0.1,0,0.1,0c0.1,0,0.1,0,0.2,0c0.1,0,0.1,0,0.2,0c0.1,0,0.1,0,0.1,0
								c0,0,0.1,0,0.1,0c0,0,0.1,0,0.1,0c0,0,0.1,0,0.1,0C28.3,20.2,28.3,20.2,28.4,20.2C28.4,20.2,28.4,20.2,28.4,20.2z"/>
						</g>
					</g>
					<g>
						<g>
							<path class="st1" d="M28.2,20.7c0,0-0.1,0-0.3,0c-0.1,0-0.2,0-0.3,0c0,0-0.1,0-0.1,0c0,0-0.1,0-0.1,0c-0.1,0-0.1,0-0.1,0
								c0,0,0,0-0.1,0c0,0,0,0-0.1,0c-0.1,0-0.2,0-0.3,0c-0.1,0-0.3,0.1-0.3,0.1s0.1-0.1,0.2-0.1c0,0,0.1,0,0.1,0c0,0,0.1,0,0.1,0
								c0,0,0.1,0,0.1,0c0.1,0,0.1,0,0.2,0c0.1,0,0.1,0,0.2,0s0.1,0,0.1,0c0.1,0,0.2,0,0.3,0C28,20.6,28.1,20.6,28.2,20.7
								C28.2,20.6,28.2,20.7,28.2,20.7z"/>
						</g>
					</g>
					<g>
						<g>
							<path class="st1" d="M28,21.1c0,0-0.1,0-0.2,0.1c-0.1,0-0.1,0-0.2,0.1c-0.1,0-0.2,0-0.3,0.1c-0.1,0-0.2,0-0.3,0.1
								c-0.1,0-0.2,0-0.2,0.1c-0.1,0-0.2,0.1-0.2,0.1s0.1-0.1,0.2-0.1c0.1,0,0.1-0.1,0.2-0.1c0,0,0.1,0,0.1,0c0,0,0.1,0,0.1,0
								c0.1,0,0.2,0,0.3-0.1c0,0,0.1,0,0.1,0c0,0,0.1,0,0.1,0C27.9,21,28,21.1,28,21.1z"/>
							<path class="st2" d="M26.6,19.7c-1.4,0.3-1.3,1.5-1.3,1.5c-0.3,0.1-1.4,0.3-1.4,0.3l-2.6,0.3c-0.4,0-0.8,0.1-1,0.2
								c-0.2,0.1-0.5,0.2-0.7,0c-0.2-0.2,0.1-0.5,0.1-0.5c-0.2-0.4,0.3-0.6,0.3-0.6c-0.1,0-0.1-0.2-0.1-0.2c-0.6-0.2-1.1,0-1.1,0
								c-0.1,0.3-0.3,0.5-0.3,0.8c0.5-0.5,1.1-0.6,0.8,0.4c-0.3,1.4,0.5,0.3,2.3,0c1.8-0.2,3.5-0.4,3.7-0.6c0.1-0.1,0.1-0.3,0.2-0.7
								c0.1-0.4,0.4-0.7,1.2-0.9c0.8-0.2,1.3-0.1,1.3,0c0,0.1-0.7,0-1.3,0.4c0,0,0.4-0.1,0.9,0c0.6,0,0.5,0.3,0,0.3
								c-0.5,0-0.9,0.2-1.1,0.3c0,0,0.3,0,0.8-0.1c0.5-0.1,0.8,0.1,0.2,0.3c-0.6,0.2-1,0.5-1,0.5s0.2,0,0.5-0.1
								c0.4-0.1-0.1,0.9-1.7,1c-0.2,0-2.3,1.2-4.3,1.6c-1,0.2-1.8,0.4-2.4,0.4c0.7,0.6,2.1,0.1,2.1,0.1s2.9-0.7,4.6-1.6
								c0,0,0.9,0.4,2-0.6l0,0c-0.1-0.2-0.2-0.4-0.1-0.6c0.1-0.3,0.6-0.3,0.6-0.3s0.3-0.6,0.5-1.2c0-0.1,0.1-0.2,0.1-0.2
								C28.5,19.9,28,19.3,26.6,19.7z"/>
						</g>
					</g>
				</g>
			</g>
			<g>
				<path class="st20" d="M27.9,21.3c0,0-0.5-0.1-0.6,0.3c-0.1,0.3,0.2,0.9,0.8,1.6c0.7,0.7,1.4,1.1,1.8,0.8
					c0.4-0.3,0.2-0.8,0.2-0.8C29.6,21.7,27.9,21.3,27.9,21.3z"/>
				<path class="st21" d="M29.7,24.1c-0.4,0-1-0.3-1.5-0.9c-0.7-0.7-1-1.3-0.9-1.6c0.1-0.4,0.6-0.3,0.7-0.3c0,0,0,0,0,0
					c0,0,1.7,0.4,2.3,1.9c0,0,0.2,0.5-0.3,0.8C29.9,24.1,29.8,24.1,29.7,24.1z M27.9,21.3c-0.1,0-0.4,0-0.5,0.3
					c-0.1,0.3,0.2,0.8,0.8,1.5c0.7,0.8,1.4,1.1,1.8,0.8c0.4-0.3,0.2-0.8,0.2-0.8C29.6,21.8,28,21.4,27.9,21.3
					C27.9,21.4,27.9,21.3,27.9,21.3z"/>
			</g>
			<path class="st22" d="M30.2,23.2c-0.2-0.4-0.4-0.7-0.7-1c0.2,0.4-0.1,0.8-0.5,0.5c-0.5-0.3-1-0.6-1.2-0.7
				c-0.2-0.1-0.4-0.1-0.5-0.3c0,0.3,0.3,0.8,0.9,1.4c0.7,0.7,1.4,1.1,1.8,0.8C30.4,23.7,30.2,23.2,30.2,23.2z"/>
			<g>
				<g>
					<path class="st0" d="M20,20.9c0,0-0.5,0.3-0.3,0.6c0,0-0.3,0.3-0.1,0.5c0.2,0.2,0.5,0.1,0.7,0c0.2-0.1,0.5-0.2,1-0.2l2.6-0.3
						c0,0-0.6-0.8-1.1-1.3c-0.5-0.5-0.9-0.4-1.5-0.3c-0.6,0.1-0.6,0.3-0.6,0.3s-0.2,0-0.4,0.2c-0.2,0.2-0.2,0.3-0.2,0.3
						S19.9,20.9,20,20.9z"/>
					<path class="st1" d="M19.8,22.1c-0.1,0-0.2,0-0.3-0.1c-0.2-0.2,0-0.4,0.1-0.5c0-0.1,0-0.2,0-0.3c0.1-0.2,0.2-0.3,0.3-0.4
						c-0.1,0-0.1-0.1-0.1-0.2c0,0,0-0.2,0.3-0.3c0.2-0.1,0.4-0.2,0.4-0.2c0-0.1,0.1-0.3,0.6-0.3l0.1,0c0.6-0.1,1-0.1,1.5,0.3
						c0.5,0.5,1.1,1.3,1.1,1.3c0,0,0,0,0,0c0,0,0,0,0,0l-2.6,0.3c-0.4,0-0.8,0.1-1,0.2C20.2,22.1,20,22.1,19.8,22.1z M21.8,19.9
						c-0.2,0-0.3,0-0.5,0.1l-0.1,0c-0.6,0.1-0.6,0.3-0.6,0.3c0,0,0,0,0,0c0,0-0.2,0-0.4,0.2c-0.2,0.1-0.2,0.3-0.2,0.3
						c0,0,0,0.1,0.1,0.1c0,0,0,0,0,0s0,0,0,0c0,0-0.3,0.1-0.3,0.4c0,0.1,0,0.2,0,0.2c0,0,0,0,0,0c0,0-0.2,0.2-0.1,0.4
						c0.1,0.2,0.5,0,0.6,0c0.2-0.1,0.6-0.2,1-0.2l2.5-0.3c-0.1-0.2-0.6-0.8-1-1.2C22.4,20,22.1,19.9,21.8,19.9z"/>
				</g>
				<g>
					<g>
						<g>
							<path class="st1" d="M20.4,20.3c0,0,0.1-0.1,0.2-0.1c0,0,0.1,0,0.1,0c0,0,0.1,0,0.1,0c0.1,0,0.2,0,0.3,0c0.1,0,0.1,0,0.2,0
								c0.1,0,0.1,0,0.2,0c0,0,0.1,0,0.1,0c0,0,0.1,0,0.1,0c0.2,0,0.3,0.1,0.3,0.1s-0.1,0-0.3,0c-0.1,0-0.2,0-0.3,0
								c-0.1,0-0.2,0-0.3,0c-0.1,0-0.2,0-0.3,0c0,0-0.1,0-0.1,0s-0.1,0-0.1,0C20.5,20.3,20.4,20.3,20.4,20.3z"/>
						</g>
					</g>
					<g>
						<g>
							<path class="st1" d="M19.8,21.1C19.8,21.1,19.8,21,19.8,21.1c0.1-0.1,0.1-0.1,0.1-0.1c0,0,0.1,0,0.1-0.1c0,0,0.1,0,0.1-0.1
								c0.1,0,0.1,0,0.2-0.1c0.1,0,0.1,0,0.2-0.1c0.1,0,0.1,0,0.2,0c0.1,0,0.3,0,0.4,0c0.1,0,0.1,0,0.2,0c0.1,0,0.1,0,0.2,0
								c0.1,0,0.2,0,0.2,0c0.1,0,0.1,0,0.1,0s0,0-0.1,0c-0.1,0-0.1,0-0.2,0c0,0-0.1,0-0.2,0c-0.1,0-0.1,0-0.2,0c-0.1,0-0.1,0-0.2,0
								c-0.1,0-0.1,0-0.2,0c-0.1,0-0.1,0-0.2,0c-0.1,0-0.1,0-0.2,0c-0.1,0-0.1,0-0.2,0c0,0-0.1,0-0.1,0c0,0-0.1,0-0.1,0
								C20,21,19.9,21,19.8,21.1C19.8,21.1,19.8,21.1,19.8,21.1z"/>
						</g>
					</g>
					<g>
						<g>
							<path class="st1" d="M19.6,21.8C19.6,21.8,19.6,21.7,19.6,21.8c0-0.1,0.1-0.1,0.1-0.2c0,0,0-0.1,0.1-0.1c0,0,0.1-0.1,0.1-0.1
								c0,0,0.1-0.1,0.1-0.1c0.1,0,0.1,0,0.2-0.1c0.1,0,0.1,0,0.2,0c0.1,0,0.1,0,0.2,0c0.1,0,0.1,0,0.2,0c0.1,0,0.2,0,0.3,0
								c0.1,0,0.2,0,0.2,0c0.1,0,0.1,0,0.1,0s0,0-0.1,0c-0.1,0-0.1,0-0.2,0c-0.1,0-0.2,0-0.3,0c-0.1,0-0.2,0-0.3,0.1
								c-0.1,0-0.1,0-0.2,0c-0.1,0-0.1,0-0.2,0c-0.1,0-0.1,0-0.1,0.1c0,0-0.1,0-0.1,0.1c0,0-0.1,0-0.1,0.1
								C19.6,21.7,19.6,21.7,19.6,21.8C19.6,21.7,19.6,21.8,19.6,21.8z"/>
						</g>
					</g>
					<path class="st2" d="M22.7,20.3c-0.5-0.5-0.9-0.4-1.5-0.3c-0.6,0.1-0.6,0.3-0.6,0.3s-0.2,0-0.4,0.2c-0.2,0.2-0.2,0.3-0.2,0.3
						s0,0.1,0.1,0.2c0,0-0.5,0.3-0.3,0.6c0,0-0.3,0.3-0.1,0.5c0.2,0.2,0.5,0.1,0.7,0c0.2-0.1,0.5-0.2,1-0.2l2.6-0.3
						C23.8,21.5,23.2,20.8,22.7,20.3z M22.5,21.5c-0.9,0.2-1.4,0.1-2,0.3c-0.6,0.2-0.7,0.2-0.7,0.1c-0.1-0.2,0.5-0.6,1.6-0.6
						c0,0-0.4-0.2-1-0.1c-0.6,0.1-0.4-0.1,0-0.3c0.5-0.1,1.5-0.2,1.5-0.2s-0.5-0.2-1.3,0c-0.8,0.1-0.4-0.2,0.1-0.3
						c0.4-0.1,1.1-0.1,1.5,0c0.3,0.1,0-0.1-0.2-0.2c-0.2-0.1,0.4-0.3,0.9,0.2C23.2,20.9,23.4,21.3,22.5,21.5z"/>
				</g>
				<g>
					<path class="st0" d="M27.7,22.1c-0.2,0.2-0.4,0.4-0.7,0.5l0,0c-0.8,0.5-1.5,0.2-1.5,0.2c-0.8,0.4-1.7,0.7-2.6,1
						c0.8,0.5,2.2,1.2,3.5,1.3c1.5,0.1,2.6-1.2,3-1.7C28.8,22.4,28,22.1,27.7,22.1z"/>
					<path class="st1" d="M26.6,25.2c-0.1,0-0.1,0-0.2,0c-1.4-0.1-2.8-0.9-3.6-1.3c0,0,0,0,0,0c0,0,0,0,0,0c1-0.3,1.9-0.7,2.6-1
						c0,0,0,0,0,0c0,0,0.7,0.3,1.5-0.2c0.3-0.1,0.6-0.4,0.7-0.5c0,0,0,0,0,0c0.3,0.1,1.2,0.4,1.7,1.5c0,0,0,0,0,0
						C29,24,28,25.2,26.6,25.2z M22.9,23.9c0.8,0.5,2.2,1.2,3.5,1.3c1.5,0.1,2.5-1.1,2.9-1.7c-0.6-1-1.3-1.3-1.7-1.4
						c-0.2,0.2-0.4,0.4-0.7,0.5c-0.8,0.5-1.4,0.3-1.5,0.2C24.8,23.2,24,23.5,22.9,23.9z"/>
				</g>
			</g>
			<g>
				<g>
					<path class="st21" d="M27.4,21.9c0,0,0,0,0.1,0c0.1,0,0.2,0,0.3,0.1c0.1,0,0.1,0.1,0.2,0.1c0.1,0,0.2,0.1,0.2,0.1
						c0.1,0.1,0.2,0.1,0.2,0.2c0,0,0.1,0.1,0.1,0.1c0,0,0.1,0.1,0.1,0.1c0.1,0.1,0.1,0.1,0.2,0.2c0.1,0.1,0.1,0.2,0.2,0.2
						c0.1,0.1,0.1,0.2,0.1,0.2c0,0.1,0.1,0.1,0.1,0.2c0,0.1,0.1,0.1,0.1,0.2c0,0.1,0,0.1,0,0.1c0,0.1,0,0.1,0,0.1s0,0-0.1-0.1
						c0,0,0-0.1-0.1-0.1c0-0.1-0.1-0.1-0.1-0.2c0-0.1-0.1-0.1-0.1-0.2c0-0.1-0.1-0.1-0.2-0.2C29,23,29,23,28.9,22.9
						c-0.1-0.1-0.1-0.1-0.2-0.2c0,0-0.1-0.1-0.1-0.1c0,0-0.1-0.1-0.1-0.1c-0.1-0.1-0.2-0.1-0.2-0.2c-0.1,0-0.2-0.1-0.2-0.1
						c-0.1,0-0.1-0.1-0.2-0.1c-0.1-0.1-0.2-0.1-0.3-0.1C27.4,21.9,27.4,21.9,27.4,21.9z"/>
				</g>
			</g>
			<path class="st3" d="M25.2,21.5c0,0-1.6,0.2-3.1,0.4c-1.5,0.2-2.5,0.7-2.5,0.7c-0.2,0.1,1-0.3,2.6-0.5
				C23.7,21.9,25.2,21.5,25.2,21.5z"/>
		</g>
		<g>
			<path class="st2" d="M29.1,23.1c-0.9,0.9-2,1.8-3.2,1.5c-1.3-0.3-2.1-0.7-1.4-1c0.7-0.4,0.7-0.4,1.2-0.3c1.2,0,1.9-0.7,2.3-1.1
				c-0.1-0.1-0.2-0.1-0.3-0.1c-0.2,0.2-0.4,0.4-0.7,0.5c-0.8,0.5-1.5,0.2-1.5,0.2c-0.8,0.4-1.7,0.7-2.6,1c0.8,0.5,2.2,1.2,3.5,1.3
				c1.5,0.1,2.6-1.2,3-1.7C29.3,23.3,29.2,23.2,29.1,23.1z"/>
		</g>
		<g>
			<path class="st20" d="M25.2,17.9c1.7,0,2.3-1.6,2.3-2.7c-2.2,0.2-3.5,0.3-3.9,0.4C23.5,16.3,23.6,17.8,25.2,17.9z"/>
			<path class="st21" d="M25.2,17.9C25.2,17.9,25.2,17.9,25.2,17.9c-0.5,0-0.9-0.2-1.2-0.5c-0.5-0.5-0.5-1.4-0.4-1.8c0,0,0,0,0,0
				c0.4-0.1,1.7-0.2,3.9-0.4c0,0,0,0,0,0c0,0,0,0,0,0C27.5,16.4,26.8,17.9,25.2,17.9z M23.7,15.6c0,0.5,0,1.3,0.4,1.7
				c0.3,0.3,0.6,0.4,1.1,0.4l0,0c0,0,0,0,0,0c1.5,0,2.2-1.4,2.2-2.6C25.3,15.4,24,15.6,23.7,15.6z"/>
		</g>
		<g>
			<path class="st0" d="M25.2,17.3c1.4,0,1.8-1.1,1.8-1.9c-1.7,0.1-2.8,0.2-3.1,0.3C23.9,16.2,23.9,17.3,25.2,17.3z"/>
			<path class="st1" d="M25.2,17.4C25.2,17.4,25.2,17.4,25.2,17.4c-0.5,0-0.8-0.1-1-0.4c-0.3-0.4-0.3-0.9-0.3-1.3c0,0,0,0,0,0
				c0.3,0,1.3-0.2,3.1-0.3c0,0,0,0,0,0c0,0,0,0,0,0C27,16.3,26.5,17.4,25.2,17.4z M24,15.8c0,0.3,0,0.8,0.3,1.2
				c0.2,0.2,0.5,0.4,0.9,0.4c0,0,0,0,0,0c1.2,0,1.7-1,1.8-1.8C25.3,15.6,24.3,15.7,24,15.8z"/>
		</g>
		<path class="st2" d="M23.9,15.7c0,0.1,0,0.3,0,0.5c0.7,0.2,1.4,0.1,2.1,0.1c0,0,0,0,0,0c0,0.3-0.3,0.5-0.6,0.7
			c-0.2,0.1-0.5,0.2-0.7,0.3c0.1,0,0.2,0,0.4,0c1.4,0,1.8-1.1,1.8-1.9C25.3,15.6,24.3,15.7,23.9,15.7z"/>
	</g>
	<g>
		<g>
			<g>
				<g>
					<path class="st0" d="M18.9,10.2c0,0-0.5-0.6-1.2,0c-0.7,0.6-0.6,1.7,0.1,2.1c0.8,0.5,1.6,0.2,1.4-0.6
						C19.1,11,18.9,10.2,18.9,10.2z"/>
					<path class="st1" d="M18.6,12.6c-0.2,0-0.5-0.1-0.8-0.3c-0.3-0.2-0.5-0.6-0.6-1c0-0.4,0.1-0.9,0.5-1.2c0.2-0.2,0.5-0.3,0.7-0.3
						c0.3,0,0.5,0.3,0.5,0.3c0,0,0,0,0,0c0,0,0.2,0.9,0.4,1.6c0.1,0.3,0,0.6-0.2,0.7C18.9,12.6,18.8,12.6,18.6,12.6z M18.4,10
						c-0.2,0-0.4,0.1-0.6,0.3c-0.3,0.3-0.5,0.7-0.4,1.1c0,0.4,0.2,0.7,0.5,1c0.5,0.3,0.9,0.3,1.2,0.1c0.2-0.1,0.3-0.4,0.2-0.6
						c-0.2-0.7-0.3-1.5-0.4-1.6C18.8,10.2,18.7,10,18.4,10C18.4,10,18.4,10,18.4,10z"/>
				</g>
				<path class="st2" d="M19.3,11.8c-0.2-0.7-0.4-1.6-0.4-1.6s-0.5-0.6-1.2,0c-0.3,0.3-0.4,0.7-0.5,1c0.2-0.2,0.4-0.4,0.7-0.3
					c0.3,0,0.4,0.4,0.5,0.6c0,0.1-0.1,0.1-0.1,0c0,0-0.1-0.1-0.1-0.1c-0.1,0-0.1,0-0.1,0c-0.1,0.1-0.1,0.2,0,0.3
					c0.1,0.1,0.1,0.1,0.2,0.1c0,0,0.1,0,0.1,0c0.1,0,0.2,0.1,0.3,0.3c0,0.1,0,0.3-0.1,0.4C19.1,12.6,19.4,12.3,19.3,11.8z"/>
				<path class="st24" d="M18.6,11.2c0.1,0.3,0.1,0.7-0.1,1c0,0,0,0,0,0c0.1-0.2,0.1-0.4,0.1-0.6c0,0.1-0.1,0.2-0.2,0.2
					c-0.2,0.1-0.4,0.1-0.5,0c0,0,0-0.1,0-0.1c0.1,0,0.2,0,0.3,0c0.2,0,0.3-0.1,0.3-0.2c0-0.1,0-0.2-0.1-0.3
					c-0.1-0.1-0.1-0.3-0.2-0.4c-0.1-0.1-0.3-0.1-0.5,0c0,0,0-0.1,0-0.1C18.2,10.4,18.5,10.8,18.6,11.2z"/>
			</g>
			<g>
				<g>
					<path class="st0" d="M31,9.6c0,0,0.4-0.6,1.2-0.1c0.7,0.6,0.7,1.6,0.1,2.1c-0.7,0.6-1.6,0.3-1.5-0.4C30.9,10.5,31,9.6,31,9.6z"
						/>
					<path class="st1" d="M31.4,12c-0.1,0-0.3,0-0.4-0.1c-0.2-0.1-0.3-0.4-0.3-0.7c0.1-0.8,0.2-1.6,0.2-1.6c0,0,0,0,0,0
						c0,0,0.2-0.3,0.5-0.3c0.2,0,0.5,0,0.7,0.2c0.4,0.3,0.6,0.7,0.6,1.1c0,0.4-0.2,0.8-0.5,1.1C32,11.9,31.7,12,31.4,12z M31,9.6
						c0,0.1-0.1,0.9-0.2,1.6c0,0.3,0.1,0.5,0.3,0.6c0.3,0.1,0.7,0.1,1.1-0.2c0.3-0.2,0.5-0.6,0.4-1c0-0.4-0.2-0.8-0.6-1.1
						c-0.2-0.2-0.5-0.2-0.7-0.2C31.2,9.4,31.1,9.6,31,9.6z"/>
				</g>
				<path class="st2" d="M30.8,11.2c0.1-0.8,0.2-1.6,0.2-1.6s0.4-0.6,1.2-0.1c0.3,0.3,0.5,0.6,0.6,1c-0.2-0.2-0.5-0.3-0.7-0.2
					c-0.3,0.1-0.4,0.4-0.4,0.7c0,0.1,0.1,0.1,0.1,0c0,0,0.1-0.1,0.1-0.1c0.1,0,0.1,0,0.2,0c0.1,0.1,0.1,0.2,0.1,0.3
					c0,0.1-0.1,0.1-0.2,0.1c0,0-0.1,0-0.1,0c-0.1,0-0.2,0.2-0.3,0.3c0,0.1,0,0.3,0.1,0.4C31.1,12,30.7,11.8,30.8,11.2z"/>
				<path class="st24" d="M31.4,10.6c-0.1,0.4,0,0.7,0.2,1c0,0,0,0,0,0c-0.1-0.2-0.2-0.4-0.2-0.6c0,0.1,0.1,0.2,0.2,0.2
					c0.2,0.1,0.4,0.1,0.5-0.1c0,0,0-0.1,0-0.1c-0.1,0-0.2,0.1-0.3,0.1c-0.2,0-0.3-0.1-0.3-0.2c0-0.1,0-0.2,0-0.3
					c0-0.1,0.1-0.3,0.2-0.4c0.1-0.2,0.3-0.1,0.5-0.1c0,0,0-0.1,0-0.1C31.7,9.8,31.5,10.2,31.4,10.6z"/>
			</g>
			<g>
				<g>
					<path class="st0" d="M30.5,6.5c0,0,0.2,0.8-0.2,1c-0.2-1-0.6-1.2-1.7-1.6c-1.1-0.3-1.2-0.8-1.2-0.8S27.2,5.4,27.4,6
						c-0.6-0.3-0.6-0.8-0.6-0.8s-0.2,0.7-0.9,1.1c0.5-0.7-0.3-1.2-0.3-1.2s0,0.7-0.3,0.7c0-0.4-0.3-0.6-0.3-0.6
						c-0.3,0.9-1.6,1.1-1.6,1.1s0.3-0.2,0.3-0.8c-1.3,1.1-3.6,0.7-3.6,0.7s0.3,0.5,0.9,0.5c-0.3,0.3-1.5,0.7-2.2,0.2
						c0.1,1.1-0.1,3.5-0.1,3.5c0,1.9,1.1,5.7,6.1,5.7c4.8-0.1,6.3-2.8,6.5-6.6C31.6,7.7,30.5,6.5,30.5,6.5z"/>
					<path class="st1" d="M24.6,16c-2.1,0-3.7-0.7-4.7-2.1c-1.1-1.4-1.2-3.1-1.2-3.6c0,0,0.2-2.4,0.1-3.5c0,0,0,0,0,0c0,0,0,0,0,0
						c0.3,0.3,0.8,0.3,1.1,0.3c0.4,0,0.8-0.2,1-0.4c-0.6,0-0.9-0.5-0.9-0.5c0,0,0,0,0,0c0,0,0,0,0,0c0,0,2.3,0.4,3.5-0.7
						c0,0,0,0,0,0c0,0,0,0,0,0c0,0.4-0.1,0.7-0.2,0.8c0.3-0.1,1.2-0.4,1.4-1.1c0,0,0,0,0,0c0,0,0,0,0,0c0,0,0.3,0.2,0.3,0.6
						c0.2-0.1,0.2-0.5,0.2-0.7c0,0,0,0,0,0c0,0,0,0,0,0c0,0,0.4,0.3,0.4,0.6c0,0.1,0,0.3-0.1,0.4c0.6-0.4,0.8-1,0.8-1c0,0,0,0,0,0
						c0,0,0,0,0,0c0,0,0,0.5,0.5,0.8c-0.1-0.6,0.1-0.9,0.1-0.9c0,0,0,0,0,0c0,0,0,0,0,0c0,0,0.1,0.4,1.2,0.8
						c1.1,0.3,1.5,0.6,1.7,1.5c0.3-0.2,0.1-0.9,0.1-0.9c0,0,0,0,0,0c0,0,0,0,0,0c0,0,1.1,1.3,0.8,3c-0.1,2.1-0.6,3.6-1.5,4.7
						c-1.1,1.3-2.7,1.9-5,1.9C24.7,16,24.7,16,24.6,16z M18.9,6.9c0.1,1.1-0.1,3.4-0.1,3.4c0,0.5,0.1,2.1,1.2,3.5
						c1.1,1.4,2.7,2.1,4.8,2.1c2.3,0,3.9-0.7,4.9-1.9c0.9-1,1.4-2.6,1.5-4.6c0.2-1.4-0.4-2.5-0.7-2.8c0,0.3,0.1,0.7-0.2,0.9
						c0,0,0,0,0,0c0,0,0,0,0,0c-0.2-1-0.5-1.2-1.6-1.5c-0.9-0.3-1.1-0.6-1.2-0.7c-0.1,0.1-0.2,0.4-0.1,0.9c0,0,0,0,0,0c0,0,0,0,0,0
						c-0.4-0.2-0.5-0.5-0.6-0.7c-0.1,0.2-0.4,0.6-0.9,1c0,0,0,0,0,0c0,0,0,0,0,0C26,6.1,26,5.9,26,5.7c0-0.3-0.2-0.5-0.3-0.5
						c0,0.2-0.1,0.6-0.3,0.7c0,0,0,0,0,0c0,0,0,0,0,0c0-0.3-0.2-0.5-0.2-0.5c-0.3,0.8-1.5,1.1-1.6,1.1c0,0,0,0,0,0c0,0,0,0,0,0
						c0,0,0.2-0.2,0.2-0.7c-1.2,0.9-3,0.7-3.5,0.7c0.1,0.1,0.4,0.4,0.9,0.4h0c0,0,0,0,0,0s0,0,0,0C21,6.9,20.5,7.1,20,7.1
						C19.7,7.2,19.3,7.2,18.9,6.9z"/>
				</g>
				<g>
					<path class="st25" d="M18.4,5.6c-0.6,0.2-0.9,0.8-0.9,0.8c-0.3-1.5,1.4-1.9,1.4-1.9c-1.2-0.3-1.1-0.8-1-1.3
						c0.2,0.4,0.6,0.9,1.4-0.3c1.3-1.9,3.8-2.5,6-2.3c0.5,0,1,0.1,1.5,0.3c0.1,0.1,0.9,0.3,0.9,0.5c0,0-0.1-0.8-0.8-1
						c0.7,0,1.3,0.5,1.3,1c0.6-0.9,1.2,0.2,1.2,0.2s-0.6-0.4-0.8,0.1c0,0,1.5,0.3,2.1,1.7c0.3,0.5,0.8,0.2,0.8-0.2
						c0.5,1-0.4,0.9-0.6,0.8c0,0,0.4,0.3,0.5,1.1c0.1,0.8,0.2,1.4,0.8,1.2c0,0-0.3,0.7-0.7,0.1c0.1,0.4,0.5,2-0.2,2.9
						c0.3-1.7-0.8-2.9-0.8-2.9s0.2,0.8-0.2,1c-0.2-1-0.6-1.2-1.7-1.6c-1.1-0.3-1.2-0.8-1.2-0.8S27.2,5.4,27.4,6
						c-0.6-0.3-0.6-0.8-0.6-0.8s-0.2,0.7-0.9,1.1c0.5-0.7-0.3-1.2-0.3-1.2s0,0.7-0.3,0.7c0-0.4-0.3-0.6-0.3-0.6
						c-0.3,0.9-1.6,1.1-1.6,1.1s0.3-0.2,0.3-0.8c-1.3,1.1-3.6,0.7-3.6,0.7s0.3,0.5,0.9,0.5c-0.3,0.3-1.5,0.7-2.2,0.2
						c0.1,1.1-0.1,3.5-0.1,3.5c-0.4-0.8-0.5-1.6-0.4-2.1c-0.5,0.4-1-0.2-1-0.2s1,0,1.1-0.6c0,0-0.9,0.4-1.5-0.5
						C17.7,7.2,18.5,6.7,18.4,5.6z"/>
					<path class="st26" d="M18.7,10.3C18.7,10.3,18.7,10.3,18.7,10.3c-0.4-0.7-0.5-1.5-0.4-2.1c-0.5,0.3-1-0.2-1-0.2c0,0,0,0,0,0
						c0,0,0,0,0,0c0,0,0.9,0,1.1-0.5c-0.2,0.1-1,0.2-1.5-0.6c0,0,0,0,0,0c0,0,0,0,0,0c0.3,0.1,0.7,0.1,1-0.1
						c0.3-0.2,0.4-0.6,0.4-1.1c-0.5,0.2-0.8,0.8-0.8,0.8c0,0,0,0,0,0c0,0,0,0,0,0c-0.2-1.3,0.9-1.7,1.3-1.9C18.3,4.5,18,4.3,17.9,4
						c-0.1-0.3-0.1-0.5,0-0.7c0,0,0,0,0,0c0,0,0,0,0,0c0.1,0.3,0.3,0.4,0.5,0.4c0.3,0,0.6-0.2,0.9-0.8c0.6-0.9,1.5-1.6,2.7-2
						c1-0.3,2.1-0.4,3.4-0.4c0.6,0,1.1,0.1,1.5,0.3l0,0c0.4,0.2,0.7,0.3,0.8,0.4c-0.1-0.2-0.2-0.7-0.7-0.8c0,0,0,0,0,0c0,0,0,0,0,0
						c0.4,0,0.7,0.1,1,0.3c0.2,0.2,0.3,0.4,0.3,0.6c0.2-0.2,0.3-0.3,0.5-0.3c0.4,0,0.7,0.6,0.7,0.6c0,0,0,0,0,0c0,0,0,0,0,0
						c0,0-0.3-0.2-0.5-0.1c-0.1,0-0.2,0.1-0.2,0.2c0.2,0.1,1.6,0.5,2.1,1.7c0.1,0.2,0.3,0.3,0.4,0.3c0.1,0,0.2-0.2,0.2-0.4
						c0,0,0,0,0,0c0,0,0,0,0,0c0.2,0.4,0.2,0.7,0,0.8c-0.1,0.1-0.4,0.1-0.6,0.1c0.1,0.2,0.3,0.5,0.4,1l0,0.1c0.1,0.5,0.1,0.9,0.4,1
						c0.1,0.1,0.2,0,0.4,0c0,0,0,0,0,0c0,0,0,0,0,0c0,0-0.1,0.3-0.4,0.3c-0.1,0-0.2,0-0.3-0.1c0.1,0.2,0.1,0.6,0.2,1.1
						c0,0.5-0.1,1.2-0.5,1.7c0,0,0,0,0,0c0,0,0,0,0,0c0.2-1.4-0.4-2.5-0.7-2.8c0,0.3,0.1,0.7-0.2,0.9c0,0,0,0,0,0c0,0,0,0,0,0
						c-0.2-1-0.5-1.2-1.6-1.5c-0.9-0.3-1.1-0.6-1.2-0.7c-0.1,0.1-0.2,0.4-0.1,0.9c0,0,0,0,0,0c0,0,0,0,0,0c-0.4-0.2-0.5-0.5-0.6-0.7
						c-0.1,0.2-0.4,0.6-0.9,1c0,0,0,0,0,0c0,0,0,0,0,0C26,6.1,26,5.9,26,5.7c0-0.3-0.2-0.5-0.3-0.5c0,0.2-0.1,0.6-0.3,0.7
						c0,0,0,0,0,0c0,0,0,0,0,0c0-0.3-0.2-0.5-0.2-0.5c-0.3,0.8-1.5,1.1-1.6,1.1c0,0,0,0,0,0c0,0,0,0,0,0c0,0,0.2-0.2,0.2-0.7
						c-0.7,0.5-1.6,0.7-2.2,0.7c-0.6,0-1,0-1.2,0c0.1,0.1,0.4,0.4,0.9,0.4h0c0,0,0,0,0,0s0,0,0,0C21,6.9,20.5,7.1,20,7.1
						c-0.3,0-0.8,0-1.1-0.2C19,8,18.8,10.3,18.7,10.3C18.8,10.3,18.8,10.3,18.7,10.3C18.7,10.3,18.7,10.3,18.7,10.3z M18.4,8.2
						C18.4,8.2,18.4,8.2,18.4,8.2C18.4,8.2,18.4,8.2,18.4,8.2c0,0.4-0.1,1.1,0.3,2c0-0.5,0.2-2.4,0.1-3.3c0,0,0,0,0,0c0,0,0,0,0,0
						c0.3,0.3,0.8,0.3,1.1,0.3c0.4,0,0.8-0.2,1-0.4c-0.6,0-0.9-0.5-0.9-0.5c0,0,0,0,0,0c0,0,0,0,0,0c0,0,2.3,0.4,3.5-0.7
						c0,0,0,0,0,0c0,0,0,0,0,0c0,0.4-0.1,0.7-0.2,0.8c0.3-0.1,1.2-0.4,1.4-1.1c0,0,0,0,0,0c0,0,0,0,0,0c0,0,0.3,0.2,0.3,0.6
						c0.2-0.1,0.2-0.5,0.2-0.7c0,0,0,0,0,0c0,0,0,0,0,0c0,0,0.4,0.3,0.4,0.6c0,0.1,0,0.3-0.1,0.4c0.6-0.4,0.8-1,0.8-1c0,0,0,0,0,0
						c0,0,0,0,0,0c0,0,0,0.5,0.5,0.8c-0.1-0.6,0.1-0.9,0.1-0.9c0,0,0,0,0,0c0,0,0,0,0,0c0,0,0.1,0.4,1.2,0.8
						c1.1,0.3,1.5,0.6,1.7,1.5c0.3-0.2,0.1-0.9,0.1-0.9c0,0,0,0,0,0c0,0,0,0,0,0c0,0,1,1.2,0.8,2.8c0.6-0.9,0.3-2.4,0.1-2.7
						c0,0,0,0,0,0c0,0,0,0,0,0c0.1,0.2,0.2,0.3,0.4,0.2c0.1,0,0.2-0.1,0.3-0.2c-0.1,0-0.3,0-0.3,0c-0.2-0.1-0.3-0.6-0.4-1.1l0-0.1
						c-0.1-0.8-0.5-1.1-0.5-1.1c0,0,0,0,0,0c0,0,0,0,0,0c0.1,0.1,0.5,0.1,0.6,0c0.1-0.1,0.1-0.3,0-0.6c0,0.2-0.1,0.3-0.3,0.3
						c-0.2,0.1-0.4-0.1-0.5-0.3c-0.6-1.3-2.1-1.7-2.1-1.7c0,0,0,0,0,0c0,0,0,0,0,0c0.1-0.2,0.1-0.2,0.3-0.3c0.2-0.1,0.3,0,0.4,0.1
						c-0.1-0.2-0.3-0.4-0.6-0.4c-0.2,0-0.3,0.1-0.5,0.3c0,0,0,0,0,0c0,0,0,0,0,0c0-0.2-0.1-0.4-0.3-0.6c-0.1-0.1-0.4-0.3-0.7-0.3
						c0.5,0.3,0.6,0.9,0.6,1v0l0,0c0,0,0,0,0,0c0,0,0,0,0,0l0,0l0,0l0,0l0,0c0-0.1-0.1-0.2-0.8-0.5l0,0c-0.4-0.2-0.9-0.3-1.5-0.3
						c-3.8-0.3-5.5,1.5-6,2.3c-0.4,0.5-0.7,0.8-0.9,0.8c0,0,0,0,0,0c-0.2,0-0.3-0.1-0.5-0.4c-0.1,0.2-0.1,0.4,0,0.6
						c0.1,0.2,0.4,0.4,0.9,0.5c0,0,0,0,0,0s0,0,0,0c0,0-0.4,0.1-0.8,0.4c-0.5,0.3-0.7,0.8-0.6,1.3c0.1-0.2,0.4-0.6,0.8-0.8
						c0,0,0,0,0,0c0,0,0,0,0,0c0.1,0.5-0.1,0.9-0.4,1.2C17.8,7,17.4,7.1,17.1,7c0.6,0.8,1.4,0.4,1.4,0.4c0,0,0,0,0,0c0,0,0,0,0,0
						C18.4,8,17.7,8,17.4,8.1C17.6,8.2,18,8.4,18.4,8.2C18.4,8.2,18.4,8.2,18.4,8.2z"/>
				</g>
				<g>
					<path class="st2" d="M30.5,6.5c0,0,0.2,0.8-0.2,1c-0.2-1-0.6-1.2-1.7-1.6c-1.1-0.3-1.2-0.8-1.2-0.8S27.2,5.4,27.4,6
						c-0.6-0.3-0.6-0.8-0.6-0.8s-0.2,0.7-0.9,1.1c0.5-0.7-0.3-1.2-0.3-1.2s0,0.7-0.3,0.7c0-0.4-0.3-0.6-0.3-0.6
						c-0.3,0.9-1.6,1.1-1.6,1.1s0.3-0.2,0.3-0.8c-1.3,1.1-3.6,0.7-3.6,0.7s0.3,0.5,0.9,0.5c-0.3,0.3-1.5,0.7-2.2,0.2
						c0,0.5,0,1.4,0,2.1c0.2-0.4,0.4-1,0.3-1.6c0.7,0.4,2.1-0.1,2.6-0.6c0,0-0.3,0-0.6-0.3c1,0.4,2.3-0.5,2.3-0.5S23.3,6.3,23,6.6
						c0,0,1.3,0,1.9-0.8c0.1,0.5-0.1,0.8-0.1,0.8s0.6-0.3,0.7-0.7c0.1,0.5-0.1,0.9-0.1,0.9s0.9-0.3,1.2-0.9c0,0,0.7,0.8,1.2,0.7
						c-0.3-0.7-0.2-0.9-0.2-0.9s0.5,0.6,1.4,0.7C30,6.5,30.2,7.5,30,8.1c0.4-0.2,0.5-0.6,0.5-0.6s1.8,6.7-4.1,8.3
						c3.5-0.6,4.6-3.1,4.8-6.4C31.6,7.7,30.5,6.5,30.5,6.5z"/>
				</g>
			</g>
			<g>
				<g>
					<path class="st27" d="M19.7,10.7c0,0,1-0.1,1.9,0.8c0-0.3,0-0.3,0-0.3s1.1-0.2,1-1.8c0-0.5-0.4-1.3-0.9-1.5
						c-0.6-0.2-1,0.2-1.2,0.7c-0.1,0.3-0.2,0.7-0.2,1c0,0.1,0,0.7,0.1,0.7C20.4,10.3,20,10.4,19.7,10.7z"/>
					<path class="st1" d="M19.9,10.6C19.9,10.6,19.9,10.6,19.9,10.6c0.1,0,0.2,0,0.3,0c0,0,0.1,0,0.1,0c0.1,0,0.1,0,0.2,0
						c0.1,0,0.1,0,0.2,0c0.1,0,0.1,0,0.2,0.1c0.1,0,0.1,0,0.2,0.1c0,0,0.1,0.1,0.1,0.1c0,0,0.1,0.1,0.1,0.1c0,0,0.1,0.1,0.1,0.1
						c0.1,0.1,0.2,0.2,0.2,0.2s-0.1-0.1-0.2-0.2c0,0-0.1-0.1-0.1-0.1c0,0-0.1-0.1-0.1-0.1c0,0-0.1-0.1-0.1-0.1c0,0-0.1,0-0.2-0.1
						c-0.1,0-0.1-0.1-0.2-0.1c-0.1,0-0.1,0-0.2-0.1c-0.1,0-0.1,0-0.1,0c0,0-0.1,0-0.1,0C20.1,10.6,20,10.6,19.9,10.6
						C19.9,10.6,19.9,10.6,19.9,10.6z"/>
					<g>
						<g>
							<path class="st28" d="M22.5,9.2c0.1,0.5,0,1-0.3,1.3c-0.2,0.3-0.7,0.5-1,0.4c-0.4-0.1-0.6-0.5-0.7-0.9
								c-0.1-0.7,0.1-1.6,0.7-1.9c0.6-0.3,1.1,0.2,1.2,0.8C22.4,9,22.4,9.1,22.5,9.2z"/>
							<path class="st29" d="M22.5,9.2C22.5,9.2,22.5,9.3,22.5,9.2c0,0.1,0,0.2,0,0.3c0,0.1,0,0.2,0,0.4c0,0.1-0.1,0.3-0.2,0.5
								c0,0,0,0.1-0.1,0.1c0,0-0.1,0.1-0.1,0.1c0,0-0.1,0.1-0.1,0.1c0,0-0.1,0.1-0.1,0.1c-0.2,0.1-0.4,0.2-0.7,0.1
								c-0.1,0-0.1,0-0.2-0.1c-0.1,0-0.1-0.1-0.2-0.1c-0.1-0.1-0.2-0.2-0.2-0.3c-0.1-0.2-0.2-0.5-0.2-0.7c0-0.3,0-0.5,0-0.7
								c0.1-0.2,0.1-0.5,0.3-0.7c0.1-0.2,0.3-0.3,0.5-0.4c0.2-0.1,0.4,0,0.6,0.1c0.2,0.1,0.3,0.2,0.3,0.4c0.1,0.1,0.1,0.2,0.2,0.4
								C22.4,9.1,22.5,9.2,22.5,9.2z M22.5,9.2c0,0,0-0.1-0.1-0.3c0-0.1-0.1-0.2-0.2-0.3S22,8.3,21.9,8.2c-0.2-0.1-0.4-0.2-0.6-0.1
								c-0.2,0.1-0.4,0.2-0.5,0.4c-0.3,0.4-0.3,0.9-0.3,1.4c0,0.2,0.1,0.5,0.2,0.7c0.1,0.2,0.3,0.4,0.5,0.4c0.2,0.1,0.4,0,0.6-0.1
								c0,0,0.1-0.1,0.1-0.1c0,0,0.1-0.1,0.1-0.1c0,0,0.1-0.1,0.1-0.1c0,0,0-0.1,0.1-0.1c0.1-0.2,0.1-0.3,0.2-0.5c0-0.1,0-0.3,0-0.4
								C22.5,9.5,22.5,9.4,22.5,9.2C22.5,9.3,22.5,9.2,22.5,9.2z"/>
						</g>
						<g class="st10">
							<path class="st30" d="M21.2,8.1C21.2,8.1,21.2,8.1,21.2,8.1c-0.5,0.3-0.7,1.1-0.6,1.7c0.1,0.4,0.3,0.7,0.7,0.8
								c0.3,0.1,0.7-0.1,0.9-0.4c0.2-0.3,0.3-0.8,0.2-1.2c0-0.1,0-0.2-0.1-0.3c0,0,0-0.1,0-0.1c0,0.1,0.1,0.1,0.1,0.2
								c0,0.1,0.1,0.2,0.1,0.3c0.1,0.5,0,1-0.3,1.3c-0.2,0.3-0.7,0.5-1,0.4c-0.4-0.1-0.6-0.5-0.7-0.9C20.4,9.4,20.5,8.4,21.2,8.1z"
								/>
						</g>
						<g>
							<path class="st31" d="M20.8,9.6c0,0.6,0.2,1.1,0.6,1.2c0.4,0.1,0.8-0.3,0.9-0.9c0-0.6-0.3-1.2-0.7-1.3
								C21.1,8.5,20.8,8.9,20.8,9.6z"/>
							<g>
								<path class="st32" d="M21.4,10.8c0.4,0.1,0.8-0.3,0.9-0.9c0-0.6-0.3-1.2-0.7-1.3c-0.4,0-0.7,0.4-0.8,1
									C20.7,10.2,20.9,10.7,21.4,10.8z M20.8,9.5c0-0.6,0.4-1,0.7-0.9c0.4,0,0.7,0.6,0.7,1.2c0,0.6-0.4,0.9-0.8,0.9
									C21,10.5,20.8,10.1,20.8,9.5z"/>
							</g>
							<g class="st33">
								<path class="st34" d="M21.4,10.8c0.4,0.1,0.8-0.3,0.9-0.9c0-0.6-0.3-1.2-0.7-1.3c-0.4,0-0.7,0.4-0.8,1
									C20.7,10.2,20.9,10.7,21.4,10.8z M21,9.1c0.2-0.1,0.2,0,0.1,0.1c-0.1,0.1-0.3,0.6-0.1,1c0.1,0.2,0.2,0.2,0.3,0.3
									c0,0.1-0.3,0-0.4-0.3C20.7,9.7,20.9,9.2,21,9.1z"/>
							</g>
							<g class="st33">
								<path class="st34" d="M21,9.7C21,9.3,21.3,9,21.5,9c0,0,0,0,0.1,0c0-0.1,0.1-0.1,0.2-0.1c0.1,0,0.2,0.2,0.3,0.4
									c0,0.1,0,0.2,0,0.2c0,0.1,0,0.2,0,0.3c0,0.4-0.3,0.7-0.6,0.6C21.1,10.4,21,10.1,21,9.7z"/>
							</g>
							<path class="st35" d="M21.1,9.7c0,0.3,0.1,0.6,0.3,0.6c0.2,0,0.4-0.2,0.5-0.5c0-0.3-0.2-0.6-0.4-0.6
								C21.3,9.2,21.1,9.4,21.1,9.7z"/>
							<g class="st33">
								<path class="st34" d="M21.4,9.3c0.1,0.3,0.4,0.5,0.6,0.5c0.2-0.1,0.2-0.4,0.1-0.6c-0.1-0.3-0.3-0.5-0.5-0.5
									C21.4,8.7,21.3,9,21.4,9.3z"/>
							</g>
							<path class="st4" d="M21.5,9.3c0.1,0.2,0.3,0.4,0.4,0.3c0.1,0,0.2-0.3,0.1-0.5c-0.1-0.2-0.3-0.4-0.4-0.4
								C21.5,8.8,21.5,9.1,21.5,9.3z"/>
							<g>
								<path class="st31" d="M21,9.4c0,0.2-0.1,0.7,0.3,0.9c0.2,0.1-0.3,0.1-0.4-0.4C20.8,9.5,21,9.1,21,9.4z"/>
							</g>
							<g>
								<path class="st31" d="M21,9.1c0,0,0,0.1-0.1,0.1C20.9,9.2,20.9,9.1,21,9.1z"/>
							</g>
						</g>
					</g>
				</g>
			</g>
			<g>
				<g>
					<g>
						<g>
							<path class="st27" d="M29.3,10.3c0,0-1.1-0.1-2.1,0.8c0-0.3,0-0.3,0-0.3s-1.2-0.2-1-1.9c0.1-0.5,0.4-1.1,0.9-1.3
								c0.6-0.2,1.1,0.2,1.3,0.7c0.1,0.3,0.2,0.6,0.2,0.9c0,0.1,0,0.7-0.1,0.6C28.6,9.9,29.1,9.9,29.3,10.3z"/>
							<path class="st1" d="M29.2,10.2C29.2,10.2,29.1,10.2,29.2,10.2c-0.1,0-0.2,0-0.3,0c0,0-0.1,0-0.1,0c-0.1,0-0.1,0-0.2,0
								c-0.1,0-0.1,0-0.2,0.1c-0.1,0-0.1,0-0.2,0.1c-0.1,0-0.1,0-0.2,0.1c-0.1,0-0.1,0.1-0.2,0.1s-0.1,0.1-0.1,0.1
								c0,0-0.1,0.1-0.1,0.1c-0.1,0.1-0.3,0.2-0.3,0.2s0.1-0.1,0.2-0.2c0,0,0.1-0.1,0.1-0.1s0.1-0.1,0.1-0.1c0,0,0.1-0.1,0.2-0.1
								c0.1,0,0.1-0.1,0.2-0.1c0.1,0,0.1-0.1,0.2-0.1c0.1,0,0.1,0,0.2,0c0.1,0,0.1,0,0.2,0c0.1,0,0.1,0,0.2,0
								C28.9,10.2,29,10.2,29.2,10.2C29.1,10.2,29.2,10.2,29.2,10.2z"/>
							<g>
								<g>
									<path class="st28" d="M26.5,8.9c-0.1,0.4,0,0.9,0.2,1.3c0.2,0.3,0.6,0.5,1,0.4c0.4-0.1,0.6-0.5,0.7-0.9
										c0.1-0.6,0-1.5-0.7-1.8c-0.5-0.3-1.1,0.2-1.2,0.7C26.6,8.7,26.5,8.8,26.5,8.9z"/>
									<path class="st29" d="M26.5,8.9C26.5,8.9,26.5,8.9,26.5,8.9c0,0.1,0,0.2,0,0.3c0,0.1,0,0.1,0,0.2c0,0.1,0,0.1,0,0.2
										c0,0.1,0.1,0.3,0.2,0.5c0.1,0.2,0.2,0.3,0.4,0.4c0.2,0.1,0.4,0.1,0.6,0.1c0.2-0.1,0.4-0.2,0.5-0.4c0.1-0.2,0.2-0.4,0.2-0.6
										c0-0.2,0-0.5,0-0.7c0-0.2-0.1-0.4-0.3-0.6C28,8,27.9,7.9,27.7,7.8c-0.2-0.1-0.4,0-0.5,0.1C27,8,26.9,8.1,26.8,8.2
										c-0.1,0.1-0.1,0.2-0.2,0.3C26.6,8.6,26.6,8.7,26.5,8.9C26.5,8.8,26.5,8.9,26.5,8.9z M26.5,8.9C26.5,8.9,26.5,8.8,26.5,8.9
										c0-0.1,0-0.2,0.1-0.3c0-0.1,0.1-0.2,0.2-0.3C26.8,8.1,27,8,27.1,7.9c0.2-0.1,0.4-0.2,0.6-0.1c0.2,0,0.4,0.2,0.5,0.4
										c0.1,0.2,0.2,0.4,0.3,0.6c0.1,0.2,0.1,0.5,0,0.7c0,0.2-0.1,0.5-0.3,0.7c-0.1,0.1-0.2,0.2-0.3,0.3c-0.1,0-0.1,0.1-0.2,0.1
										c-0.1,0-0.1,0-0.2,0.1c-0.2,0-0.5,0-0.6-0.1c-0.1-0.1-0.2-0.1-0.2-0.2c0,0-0.1-0.1-0.1-0.1c0,0,0-0.1-0.1-0.1
										c-0.1-0.2-0.1-0.3-0.2-0.5c0-0.1,0-0.1,0-0.2c0-0.1,0-0.1,0-0.2C26.5,9.1,26.5,9,26.5,8.9C26.5,8.9,26.5,8.9,26.5,8.9z"/>
								</g>
								<g class="st10">
									<path class="st30" d="M27.8,7.8C27.8,7.8,27.8,7.8,27.8,7.8c0.5,0.2,0.7,1.1,0.5,1.7c-0.1,0.3-0.3,0.7-0.7,0.8
										c-0.3,0.1-0.7-0.1-0.9-0.3c-0.2-0.3-0.3-0.8-0.2-1.2c0-0.1,0-0.2,0.1-0.3c0,0,0-0.1,0-0.1c0,0.1-0.1,0.1-0.1,0.2
										c0,0.1-0.1,0.2-0.1,0.3c-0.1,0.4,0,0.9,0.2,1.3c0.2,0.3,0.6,0.5,1,0.4c0.4-0.1,0.6-0.5,0.7-0.9C28.6,9,28.4,8.1,27.8,7.8z"
										/>
								</g>
								<g>
									<path class="st31" d="M26.8,9.2c0,0.6,0.2,1.1,0.6,1.2c0.4,0.1,0.8-0.3,0.9-0.9c0-0.6-0.3-1.2-0.7-1.3
										C27.1,8.1,26.8,8.5,26.8,9.2z"/>
									<g>
										<path class="st32" d="M27.4,10.3c0.4,0.1,0.8-0.3,0.9-0.9c0-0.6-0.3-1.2-0.7-1.3c-0.4,0-0.7,0.4-0.8,1
											C26.7,9.8,27,10.3,27.4,10.3z M26.8,9.1c0-0.6,0.4-1,0.7-0.9c0.4,0,0.7,0.6,0.7,1.2c0,0.6-0.4,0.9-0.8,0.9
											C27,10.1,26.8,9.7,26.8,9.1z"/>
									</g>
									<g class="st33">
										<path class="st34" d="M27.4,10.3c0.4,0.1,0.8-0.3,0.9-0.9c0-0.6-0.3-1.2-0.7-1.3c-0.4,0-0.7,0.4-0.8,1
											C26.7,9.8,27,10.3,27.4,10.3z M27,8.7c0.2-0.1,0.2,0,0.1,0.1c-0.1,0.1-0.3,0.6-0.1,1c0.1,0.2,0.2,0.2,0.3,0.3
											c0,0.1-0.3,0-0.4-0.3C26.7,9.3,26.9,8.8,27,8.7z"/>
									</g>
									<g class="st33">
										<path class="st34" d="M27,9.3c0-0.4,0.3-0.7,0.6-0.6c0,0,0,0,0.1,0c0-0.1,0.1-0.1,0.2-0.1c0.1,0,0.2,0.2,0.3,0.4
											c0,0.1,0,0.2,0,0.2c0,0.1,0,0.2,0,0.3c0,0.4-0.3,0.7-0.6,0.6C27.1,10,27,9.7,27,9.3z"/>
									</g>
									<path class="st35" d="M27.1,9.3c0,0.3,0.1,0.6,0.3,0.6s0.4-0.2,0.5-0.5c0-0.3-0.2-0.6-0.4-0.6C27.3,8.8,27.1,9,27.1,9.3z"
										/>
									<g class="st33">
										<path class="st34" d="M27.4,8.9c0.1,0.3,0.4,0.5,0.6,0.5c0.2-0.1,0.2-0.3,0.1-0.6c-0.1-0.3-0.3-0.5-0.5-0.5
											C27.4,8.3,27.3,8.6,27.4,8.9z"/>
									</g>
									<path class="st4" d="M27.5,8.9c0.1,0.2,0.3,0.4,0.4,0.3c0.1,0,0.2-0.3,0.1-0.5c-0.1-0.2-0.3-0.4-0.4-0.4
										C27.5,8.4,27.5,8.7,27.5,8.9z"/>
									<g>
										<path class="st31" d="M27,9c0,0.2-0.1,0.7,0.3,0.9c0.2,0.1-0.3,0.1-0.4-0.4C26.8,9.1,27,8.7,27,9z"/>
									</g>
									<g>
										<path class="st31" d="M27,8.7c0,0,0,0.1-0.1,0.1C26.9,8.8,27,8.7,27,8.7z"/>
									</g>
								</g>
							</g>
						</g>
					</g>
				</g>
			</g>
			<g>
				
					<radialGradient id="SVGID_1_" cx="-545.5579" cy="1584.3978" r="2.6903" gradientTransform="matrix(-0.7982 -0.6025 0.6025 -0.7982 -1361.6316 946.027)" gradientUnits="userSpaceOnUse">
					<stop  offset="0.1184" style="stop-color:#F6A0A0"/>
					<stop  offset="1" style="stop-color:#FFFFFF"/>
				</radialGradient>
				<path class="st36" d="M27.3,12.5c0.2,0.9,0.9,1,1.5,0.7c1.2-0.5,1.9-1.4,1.6-2c-0.2-0.6-0.8-1.1-1.9-0.7
					C27.6,10.7,27.1,11.5,27.3,12.5z"/>
				<g>
					<path class="st4" d="M29.5,10.7c0,0.1-0.1,0.2-0.3,0.2s-0.4,0-0.4-0.1c0-0.1,0.1-0.2,0.3-0.2C29.3,10.6,29.5,10.6,29.5,10.7z"
						/>
				</g>
				<g>
					<path class="st4" d="M29.9,10.9c0,0-0.1,0.1-0.1,0.1c-0.1,0-0.1-0.1-0.1-0.1c0,0,0.1-0.1,0.1-0.1
						C29.9,10.8,29.9,10.8,29.9,10.9z"/>
				</g>
			</g>
			<g>
				
					<radialGradient id="SVGID_2_" cx="-304.4734" cy="1456.7585" r="2.4292" gradientTransform="matrix(0.933 -0.3602 -0.3602 -0.933 829.8931 1260.1312)" gradientUnits="userSpaceOnUse">
					<stop  offset="0.1184" style="stop-color:#F6A0A0"/>
					<stop  offset="1" style="stop-color:#FFFFFF"/>
				</radialGradient>
				<path class="st37" d="M21.5,13.1c-0.4,0.7-1,0.6-1.5,0.2c-0.9-0.8-1.3-1.7-0.9-2.2c0.3-0.5,1-0.7,1.8-0.2
					C21.6,11.4,21.9,12.2,21.5,13.1z"/>
				<g>
					<path class="st4" d="M19.9,11c0,0.1,0.1,0.2,0.2,0.2c0.2,0.1,0.3,0.1,0.4,0c0-0.1-0.1-0.2-0.2-0.2C20.1,10.9,19.9,10.9,19.9,11
						z"/>
				</g>
				<g>
					<path class="st4" d="M19.5,11c0,0,0,0.1,0.1,0.1c0.1,0,0.1,0,0.1-0.1c0,0,0-0.1-0.1-0.1C19.5,11,19.5,11,19.5,11z"/>
				</g>
			</g>
			<path class="st2" d="M20,8.3c0,0,0.8-1.6,2.4-0.2C22,7,20.7,6.3,20,8.3z"/>
			<path class="st2" d="M26.1,7.9c0,0,1.2-2,2.6-0.1C28.3,6.6,27,5.9,26.1,7.9z"/>
			<g>
				<path class="st25" d="M20,8c0,0,0.8-1.6,2.4-0.2C22,6.8,20.6,6.1,20,8z"/>
				<path class="st26" d="M20,8.1C20,8.1,20,8.1,20,8.1C20,8.1,20,8,20,8.1c0.3-1.1,0.8-1.3,1.1-1.3c0,0,0,0,0,0
					c0.5,0,1,0.5,1.3,1.1c0,0,0,0,0,0c0,0,0,0,0,0c-0.5-0.4-1-0.6-1.4-0.6C20.3,7.4,20,8,20,8.1C20,8.1,20,8.1,20,8.1z M21.2,6.8
					C21.2,6.8,21.1,6.8,21.2,6.8c-0.3,0-0.7,0.2-1,0.9c0.2-0.2,0.4-0.4,0.8-0.5c0.4-0.1,0.9,0.1,1.3,0.5C22.1,7.2,21.6,6.8,21.2,6.8
					z"/>
			</g>
			<g>
				<path class="st25" d="M26,7.7c0,0,1.2-2,2.6-0.1C28.2,6.4,26.9,5.7,26,7.7z"/>
				<path class="st26" d="M26,7.8C26,7.8,26,7.8,26,7.8C26,7.7,26,7.7,26,7.8c0.4-0.9,0.9-1.4,1.4-1.3c0.5,0,1,0.5,1.2,1.2
					c0,0,0,0,0,0c0,0,0,0,0,0c-0.4-0.5-0.8-0.8-1.2-0.8c0,0,0,0,0,0C26.6,6.9,26.1,7.7,26,7.8C26.1,7.7,26,7.8,26,7.8z M27.4,6.5
					c-0.4,0-0.8,0.3-1.2,0.9c0.2-0.3,0.6-0.6,1.1-0.6c0.4,0,0.8,0.2,1.2,0.6C28.3,6.9,27.9,6.5,27.4,6.5C27.4,6.5,27.4,6.5,27.4,6.5
					z"/>
			</g>
			<g>
				<g>
					<path class="st1" d="M24.4,10.1C24.4,10.1,24.4,10.1,24.4,10.1c0,0.1,0.1,0.2,0,0.3c0,0,0,0.1-0.1,0.1c0,0,0,0-0.1,0.1
						c0,0-0.1,0-0.1,0c0,0-0.1,0-0.1,0c0,0-0.1,0-0.1,0c0,0-0.1,0-0.1,0c0,0,0,0,0,0c0,0,0,0.1,0,0.2C24,11,24,11,24,11.1
						c0,0,0.1,0.1,0.1,0.1c0,0,0.1,0.1,0.1,0.1c0,0,0.1,0,0.1,0.1c0,0,0.1,0,0.1,0c0.1,0,0.1,0,0.1,0s0,0-0.1,0c0,0-0.1,0-0.1,0
						c0,0-0.1,0-0.1-0.1c0,0-0.1-0.1-0.1-0.1c0,0-0.1-0.1-0.1-0.1c0,0-0.1-0.1-0.1-0.2c0-0.1-0.1-0.1,0-0.2c0,0,0-0.1,0.1-0.1
						c0,0,0.1,0,0.1,0c0,0,0.1,0,0.1,0c0,0,0.1,0,0.1,0c0,0,0,0,0.1,0c0,0,0,0,0.1,0c0,0,0.1-0.1,0.1-0.1
						C24.4,10.3,24.4,10.2,24.4,10.1C24.4,10.1,24.4,10.1,24.4,10.1z"/>
					<path class="st38" d="M24.2,9c0,0,0.6,1,0.3,1.4C24.4,10.7,25.2,10.2,24.2,9z"/>
					<path class="st38" d="M24.3,10.6c0,0,0,0.1-0.1,0.1c-0.1,0-0.1,0.1-0.1,0c0,0,0-0.1,0.1-0.1C24.2,10.6,24.3,10.6,24.3,10.6z"/>
				</g>
				<path class="st27" d="M24.3,9.5c0,0,0.1,0.9-0.5,1.1c-0.4,0.1-0.4,0.6,0.6,0.8c0.5,0.1,0.9-0.3,0.7-0.6c-0.1-0.2-0.5,0.6-1.2,0
					c-0.1-0.2,0.1-0.1,0.4-0.3C24.5,10.3,24.5,9.9,24.3,9.5z"/>
			</g>
			<g>
				<path class="st39" d="M25.1,0.7c-0.3,0-0.7,0-1.1,0C24.3,0.7,24.7,0.7,25.1,0.7z"/>
				<path class="st40" d="M31.4,5.3c-0.1-0.8-0.5-1.1-0.5-1.1c0.2,0.1,1.1,0.2,0.6-0.8c0,0.4-0.4,0.7-0.8,0.2
					c-0.6-1.3-2.1-1.7-2.1-1.7c0.2-0.5,0.8-0.1,0.8-0.1s-0.6-1.1-1.2-0.2c0-0.4-0.5-1-1.3-1c0.7,0.2,0.8,1,0.8,1
					c0-0.2-0.8-0.5-0.9-0.5c-0.5-0.2-1-0.3-1.5-0.3c-0.1,0-0.2,0-0.3,0c1.9,0.2,2.8,1.2,2.8,1.2s-1-0.2-1.4,0.5
					c1.8-0.7,2.7,0.4,2.8,0.7c-0.1-0.2-0.3-0.7-0.9-0.9c0.5-0.1,1.2,0.3,1.6,0.9s1,0.8,1,0.8c-0.3,0.1-0.5-0.1-0.9-0.2
					c1,0.6,1.2,1.8,1.1,2.9c-0.5-0.9-1.1-1.2-1.1-1.2c0.5,0.7,0.2,1,0.2,1s-0.3-0.8-1.2-1c-0.9-0.2-1.3-0.6-1.8-1.1
					C27.3,5,27,5.2,27,5.2s0.1-0.7-0.4-1.1c0.2,0.4,0.1,1-0.3,1.4c0-0.5-0.2-1-1.1-1.4c0.5,0.6,0.2,1.2,0.2,1.2s-0.1-0.7-0.6-0.8
					c0,0.9-0.7,1-0.7,1c0.4-0.6,0-1.2,0-1.2s-0.7,1.2-2.5,1.4c-1.8,0.2-1.4-0.8-1.4-0.8s-0.9,0.6-0.6,1.2c-0.5-0.3-0.7-0.9-0.4-1.2
					c-0.9,0.1-1.4,0.6-1.7,1c0,0.2,0,0.3,0,0.5c0,0,0.3-0.6,0.9-0.8c0.1,1-0.7,1.6-1.4,1.3c0.6,0.9,1.5,0.5,1.5,0.5
					C18.3,8.1,17.3,8,17.3,8s0.5,0.5,1,0.2c-0.1,0.5,0,1.3,0.4,2.1c0,0,0.2-2.4,0.1-3.5c0.7,0.6,2,0.2,2.2-0.2
					c-0.7,0-0.9-0.5-0.9-0.5s2.3,0.4,3.6-0.7c0,0.7-0.3,0.8-0.3,0.8s1.3-0.2,1.6-1.1c0,0,0.3,0.3,0.3,0.6c0.3-0.1,0.3-0.7,0.3-0.7
					s0.7,0.5,0.3,1.2c0.7-0.4,0.9-1.1,0.9-1.1s0,0.5,0.6,0.8c-0.2-0.6,0.1-0.9,0.1-0.9s0.1,0.5,1.2,0.8c1.1,0.3,1.5,0.6,1.7,1.6
					c0.4-0.2,0.2-1,0.2-1s1.1,1.2,0.8,2.9c0.7-0.9,0.4-2.5,0.2-2.9c0.4,0.6,0.7-0.1,0.7-0.1C31.6,6.7,31.5,6.1,31.4,5.3z"/>
			</g>
			<path class="st25" d="M18,3.7c0,0,0.6,0.7,1.2-0.2s2.6-3,6.1-2.5c0,0-1.4,0-1.6,0.5C23.6,2,25.7,0.7,25,2c-0.7,1.3,1.3-1.2,0.7,0
				c-0.7,1.2,0.1,0.9,0.6,0.7s1,0.7,0.9,1.4c-0.5-0.9-1-0.9-1-0.9s0.6,0.7,0.3,1.4c0,0-0.4-1.1-1.9-1.3c0.4,0.3,0.6,0.9,0.6,0.9
				s-0.7-0.9-1.4-1c0.7,0.6,0.8,1.3,0.6,1.7c0-0.7-0.4-1.1-1-1.3c0.3,0.5-0.5,1.4-1.6,1.6c0,0,1.5-1,0.8-2c-0.6-0.9-1.3,1.4-1.2,0.3
				c0.1-1.1-1.6,1.3-1.1,0.2C20.8,2.4,18.9,5.3,18,3.7z"/>
			<path class="st25" d="M27.7,3c0,0-0.2,0.9,0.6,1.4c0.8,0.5,1.3,0.8,1.5,1.2c0-0.5-0.2-0.8-0.7-1c-0.4-0.3,0.3,0,0.3-0.2
				c0-0.2,0-0.5,0.3-0.2C30,4.5,29.9,4,29.8,3.9c-0.1-0.1,0.6,0.5,0.7,1.1c0-0.5-0.4-1.2-0.9-1.4c-0.5-0.2-0.4-0.6-0.8-0.8
				c0.2,0.4,0.4,1.1,0,0.7c-0.4-0.4,0,0.8-0.3,0.3C28.1,3.2,28.2,4.5,27.7,3z"/>
		</g>
	</g>
	<g>
		<path class="st41" d="M22.9,13.4c0.1,0.3,0.3,0.6,0.5,0.8c0.5,0.3,1.2,0.4,1.8,0.2c0.7-0.2,0.9-0.5,1.2-1c0.1-0.2,0.1-0.5,0.3-0.6
			c0.1-0.1,0.4,0,0.3-0.2c0,0,0,0,0-0.1c0,0,0,0,0,0c0,0,0,0-0.1,0c-0.1,0.2-0.6,0.3-0.9,0.3c-0.6,0.1-1.2,0.1-1.8,0.2
			c-0.3,0-0.6,0-1,0.1c-0.1,0-0.3,0-0.4,0c-0.1,0-0.2-0.1-0.3-0.1C22.4,13.2,22.8,13.2,22.9,13.4z"/>
		<path class="st42" d="M24.9,14.3c-0.3,0-0.7,0-1-0.1c-0.4-0.1-0.7-0.6-0.9-1c0.1,0,0.3-0.1,0.4-0.1c0.1,0,0.2,0,0.3,0
			c0.7,0,1.4,0,2.1-0.1c0.2,0,0.4-0.1,0.6-0.1C26.3,13.6,25.7,14.3,24.9,14.3z"/>
		<path class="st43" d="M23.7,14.1c0.1,0,0.1,0.1,0.2,0.1c0.3,0.1,0.7,0.2,1,0.1c0.3,0,0.6-0.2,0.9-0.4
			C25.1,13.9,24.4,13.9,23.7,14.1z"/>
		<path class="st44" d="M26,13.4c0.1-0.1,0.1-0.3,0.2-0.5c-0.1,0-0.2,0.1-0.3,0.1c-0.7,0.1-1.4,0.1-2.1,0.1c-0.1,0-0.2,0-0.3,0
			c0,0,0,0,0,0c0,0.1,0,0.2,0.1,0.3C24,14,25.3,13.9,26,13.4C26,13.4,26,13.4,26,13.4z"/>
		<path class="st45" d="M25.8,13c-0.7,0.1-1.4,0.1-2.1,0.1c-0.1,0-0.2,0-0.3,0c0,0,0,0,0,0c0,0.1,0,0.2,0.1,0.3c0,0,0.1,0.1,0.1,0.1
			c-0.1-0.2-0.1-0.2,0.1-0.2c0.7,0,1.4,0.1,2-0.1c0.1,0,0.1,0,0.1,0.1c0,0.1-0.1,0.2-0.2,0.3c0.1,0,0.2-0.1,0.2-0.2c0,0,0,0,0,0
			c0.1-0.1,0.1-0.3,0.2-0.5C26,12.9,25.9,12.9,25.8,13z"/>
		<path class="st1" d="M26.9,12.2L26.9,12.2c0,0.1-0.1,0.2-0.2,0.3c0,0,0,0,0,0c-0.2,0.1-0.4,0.1-0.5,0.2c-0.3,0.1-0.6,0.2-0.9,0.2
			C24.6,13,24,13,23.4,13c0,0,0,0,0,0c-0.2,0-0.7,0.1-0.7-0.1c0,0,0,0,0,0c0,0,0,0,0,0c0,0,0,0.1,0,0.1c0,0.2,0.2,0.2,0.4,0.2
			c0.1,0.4,0.4,0.8,0.7,1c0.3,0.2,0.8,0.2,1.2,0.2c0.9,0,1.5-0.7,1.7-1.6c0,0,0,0,0,0c0.1,0,0.2-0.1,0.3-0.1
			C27,12.6,27,12.4,26.9,12.2z M24.9,14.3c-0.3,0-0.7,0-1-0.1c-0.4-0.1-0.7-0.6-0.9-1c0.1,0,0.3-0.1,0.4-0.1c0.1,0,0.2,0,0.3,0
			c0.7,0,1.4,0,2.1-0.1c0.2,0,0.4-0.1,0.6-0.1C26.3,13.6,25.7,14.3,24.9,14.3z"/>
		<g>
			<path class="st41" d="M24.3,15.2c0.2,0.1,0.5,0.1,0.8,0c0.3-0.1,0.6-0.4,0.8-0.7c-0.4,0.1-0.8,0.3-1.2,0.3c-0.4,0-0.7,0-1-0.2
				C23.9,14.9,24.1,15.1,24.3,15.2z"/>
			<path class="st2" d="M25.2,14.9c0.2-0.1,0.4-0.1,0.6-0.2c0-0.1,0.1-0.1,0.1-0.2c-0.4,0.1-0.8,0.3-1.2,0.3c-0.3,0-0.7,0-0.9-0.1
				C24.2,14.9,24.6,15.1,25.2,14.9z"/>
			<path class="st1" d="M25.5,14.7c-0.4,0.1-0.8,0.2-1.2,0.1c0,0,0,0,0,0C24.6,15,25.1,14.9,25.5,14.7
				C25.5,14.7,25.5,14.7,25.5,14.7z"/>
		</g>
	</g>
</g>
<g>
	<g>
		<path class="st46" d="M18.9,8.5c0,0,0,0.1,0,0.2c0,0,0.3,0.3,0.4,0.5c0.1,0.1,0.1,0,0.1-0.1c0-0.2,0-0.2-0.1-0.3
			C19.1,8.6,18.9,8.5,18.9,8.5z"/>
		<path class="st47" d="M18.9,8.5c0,0,0,0.1,0,0.1c0.1,0.1,0.3,0.3,0.4,0.3c0,0,0.1-0.1,0-0.1c0,0.1,0,0.1,0,0.2
			c0,0.2,0,0.3-0.1,0.1c-0.1-0.1-0.4-0.5-0.4-0.5C18.9,8.6,18.8,8.5,18.9,8.5C18.8,8.5,18.9,8.5,18.9,8.5z"/>
		<path class="st48" d="M18.9,8.5l0.4,0.2c0,0,0,0.1,0,0.1L18.9,8.5z"/>
	</g>
	<path class="st49" d="M19.6,9.7c-0.1-0.5-0.2-1.2,0.2-1.7c0.2-0.2,0.4-0.3,0.7-0.4c-0.3,0.1-0.6,0.2-0.8,0.4
		c-0.3,0.4-0.3,0.9-0.3,1.4c0.1,0.5,0.2,1.1,0.5,1.5c0.3,0.4,0.7,0.6,1.2,0.7c-0.2-0.1-0.5-0.2-0.7-0.3
		C19.9,10.9,19.7,10.3,19.6,9.7z"/>
	<path class="st49" d="M23.6,9.3c0,0.9-0.3,1.9-1.2,2.3c0.9-0.3,1.3-1.1,1.3-2c0-0.4,0-0.8-0.2-1.1c-0.2-0.5-0.7-0.8-1.2-0.8
		c0.3,0.1,0.5,0.2,0.8,0.4C23.5,8.3,23.6,8.9,23.6,9.3z"/>
	<path class="st50" d="M23.4,8C23,7.6,22.5,7.5,22,7.5c-0.1,0-0.1,0-0.2,0c0,0,0,0-0.1,0c-0.6,0-1.8,0-2.2,0.5
		c-0.4,0.4-0.3,1.2-0.2,1.7c0.1,0.6,0.3,1.2,0.8,1.6c0.4,0.3,0.7,0.4,1.3,0.4c0.1,0,0.6,0,0.8,0c1.3-0.2,1.7-1.3,1.7-2.4
		C23.8,8.9,23.7,8.3,23.4,8z M19.8,10.9c-0.3-0.4-0.4-1-0.5-1.5c-0.1-0.5-0.1-1,0.3-1.4c0.2-0.2,0.5-0.4,0.8-0.4
		c-0.3,0.1-0.5,0.2-0.7,0.4c-0.4,0.4-0.3,1.2-0.2,1.7c0.1,0.6,0.3,1.2,0.8,1.6c0.2,0.2,0.4,0.3,0.7,0.3
		C20.6,11.6,20.1,11.3,19.8,10.9z M20.1,10.9c-0.3-0.4-0.4-1-0.5-1.5c-0.1-0.5-0.1-1,0.3-1.4c0.4-0.4,1.4-0.4,2-0.5
		c0.6,0,1.3,0.2,1.5,0.9c0.1,0.4,0.2,0.8,0.2,1.1c0,0.9-0.5,1.8-1.5,2c-0.1,0-0.6,0-0.7,0C20.8,11.6,20.4,11.3,20.1,10.9z M23.6,9.3
		c0-0.4-0.1-1-0.5-1.3c-0.2-0.2-0.5-0.3-0.8-0.4c0.5,0.1,1,0.3,1.2,0.8c0.1,0.4,0.2,0.8,0.2,1.1c0,0.9-0.4,1.7-1.3,2
		C23.3,11.2,23.6,10.2,23.6,9.3z"/>
	
		<radialGradient id="SVGID_3_" cx="79.693" cy="113.9263" r="5.2572" gradientTransform="matrix(0.9988 4.940000e-02 4.630000e-02 -0.938 -64.0905 115.0021)" gradientUnits="userSpaceOnUse">
		<stop  offset="0.203" style="stop-color:#FCFFF7"/>
		<stop  offset="0.7862" style="stop-color:#009DF1"/>
	</radialGradient>
	<path class="st51" d="M20.1,10.9c-0.3-0.4-0.4-1-0.5-1.5c-0.1-0.5-0.1-1,0.3-1.4c0.4-0.4,1.4-0.4,2-0.5c0.6,0,1.3,0.2,1.5,0.9
		c0.1,0.4,0.2,0.8,0.2,1.1c0,0.9-0.5,1.8-1.5,2c-0.1,0-0.6,0-0.7,0C20.8,11.6,20.4,11.3,20.1,10.9z"/>
	<path class="st4" d="M19.7,10.6c0,0-0.3-0.7-0.4-1.5c0-0.8,0.3-1.2,1-1.4c0.6-0.1,1.9-0.1,2.3,0c0,0-2-0.2-2.6,1.1
		C19.5,9.7,19.7,10.6,19.7,10.6z"/>
	<path class="st44" d="M23.3,10.4c-0.3,0.6-0.7,0.9-1.4,1.1c-0.7,0.1-1.7-0.2-2.1-0.7c0,0,0,0,0,0c0.3,0.6,1.4,0.9,2.1,0.8
		C22.6,11.5,23.2,11.1,23.3,10.4C23.4,10.4,23.4,10.4,23.3,10.4z"/>
	<g>
		<path class="st46" d="M23.7,9.1c-0.1,0.3-0.1,0.7,0.2,0.5c0,0,0.1-0.6,0.8-0.7c0.7-0.1,0.9,0.3,1,0.5s0.2,0.1,0.2,0
			c0,0,0.1-0.9-1.3-0.8C24.2,8.7,23.8,8.8,23.7,9.1z"/>
		<path class="st47" d="M25.4,8.7C25.5,8.7,25.5,8.8,25.4,8.7c0.1,0.2,0,0.3-0.1,0.3c-0.5-0.2-1-0.2-1.4,0.2c-0.1,0.1-0.2,0-0.2-0.1
			c0,0,0,0,0-0.1C23.8,9,23.7,9,23.7,9.1c-0.1,0.3-0.1,0.7,0.2,0.5c0,0,0.1-0.6,0.8-0.7c0.7-0.1,0.9,0.3,1,0.5
			c0.1,0.2,0.2,0.1,0.2,0C26,9.5,26,8.9,25.4,8.7z"/>
		<path class="st48" d="M25.5,8.8C25.1,8.5,24.1,8.8,24,9c0,0,0,0,0,0c0.2-0.1,0.4-0.2,0.7-0.2C24.9,8.7,25.1,8.7,25.5,8.8
			C25.4,8.8,25.5,8.9,25.5,8.8z"/>
	</g>
	<g>
		<path class="st49" d="M26,9.5c-0.1-0.5-0.2-1.2,0.2-1.7c0.2-0.2,0.4-0.3,0.7-0.4c-0.3,0.1-0.6,0.2-0.8,0.4
			c-0.3,0.4-0.3,0.9-0.3,1.4c0.1,0.5,0.2,1.1,0.5,1.5c0.3,0.4,0.7,0.6,1.2,0.7c-0.2-0.1-0.5-0.2-0.7-0.3C26.3,10.6,26.1,10.1,26,9.5
			z"/>
		<path class="st49" d="M30,9c0,0.9-0.3,1.9-1.2,2.3c0.9-0.3,1.3-1.1,1.3-2c0-0.4,0-0.8-0.2-1.1c-0.2-0.5-0.7-0.8-1.2-0.8
			c0.3,0.1,0.5,0.2,0.8,0.4C29.9,8,30,8.6,30,9z"/>
		<path class="st50" d="M29.8,7.7c-0.4-0.3-0.9-0.4-1.4-0.4c-0.1,0-0.1,0-0.2,0c0,0,0,0-0.1,0c-0.6,0-1.8,0-2.2,0.5
			c-0.4,0.4-0.3,1.2-0.2,1.7c0.1,0.6,0.3,1.2,0.8,1.6c0.3,0.3,0.7,0.4,1.3,0.4c0.1,0,0.6,0,0.8,0c1.3-0.2,1.7-1.3,1.7-2.4
			C30.2,8.6,30.2,8,29.8,7.7z M26.2,10.7c-0.3-0.4-0.4-1-0.5-1.5c-0.1-0.5-0.1-1,0.3-1.4c0.2-0.2,0.5-0.4,0.8-0.4
			c-0.3,0.1-0.5,0.2-0.7,0.4c-0.4,0.4-0.3,1.2-0.2,1.7c0.1,0.6,0.3,1.2,0.8,1.6c0.2,0.2,0.4,0.3,0.7,0.3
			C27,11.3,26.5,11.1,26.2,10.7z M26.5,10.7c-0.3-0.4-0.4-1-0.5-1.5c-0.1-0.5-0.1-1,0.3-1.4c0.4-0.4,1.4-0.4,2-0.5
			c0.6,0,1.3,0.2,1.5,0.9c0.1,0.4,0.2,0.8,0.2,1.1c0,0.9-0.5,1.8-1.5,2c-0.1,0-0.6,0-0.7,0C27.2,11.3,26.8,11.1,26.5,10.7z M30,9
			c0-0.4-0.1-1-0.5-1.3c-0.2-0.2-0.5-0.3-0.8-0.4c0.5,0.1,1,0.3,1.2,0.8c0.1,0.4,0.2,0.8,0.2,1.1c0,0.9-0.4,1.7-1.3,2
			C29.7,10.9,30,10,30,9z"/>
		
			<radialGradient id="SVGID_4_" cx="86.0723" cy="114.5467" r="5.2567" gradientTransform="matrix(0.9988 4.940000e-02 4.630000e-02 -0.938 -64.0905 115.0021)" gradientUnits="userSpaceOnUse">
			<stop  offset="0.203" style="stop-color:#FCFFF7"/>
			<stop  offset="0.7862" style="stop-color:#009DF1"/>
		</radialGradient>
		<path class="st52" d="M26.5,10.7c-0.3-0.4-0.4-1-0.5-1.5c-0.1-0.5-0.1-1,0.3-1.4c0.4-0.4,1.4-0.4,2-0.5c0.6,0,1.3,0.2,1.5,0.9
			c0.1,0.4,0.2,0.8,0.2,1.1c0,0.9-0.5,1.8-1.5,2c-0.1,0-0.6,0-0.7,0C27.2,11.3,26.8,11.1,26.5,10.7z"/>
		<path class="st4" d="M26.1,10.3c0,0-0.3-0.7-0.4-1.5c0-0.8,0.3-1.2,1-1.4c0.6-0.1,1.9-0.1,2.3,0c0,0-2-0.2-2.6,1.1
			C25.9,9.5,26.1,10.3,26.1,10.3z"/>
		<path class="st44" d="M29.8,10.1c-0.3,0.6-0.7,0.9-1.4,1.1c-0.7,0.1-1.7-0.2-2.1-0.7c0,0,0,0,0,0c0.3,0.6,1.4,0.9,2.1,0.8
			C29,11.3,29.6,10.8,29.8,10.1C29.8,10.1,29.8,10.1,29.8,10.1z"/>
	</g>
	<g>
		<path class="st46" d="M31.2,7.5c0,0,0,0.1,0,0.2c0,0-0.9,0.5-1.1,0.6c-0.2,0.1-0.2,0-0.2-0.1c0-0.1-0.1-0.2,0.1-0.3
			C30.3,7.8,31.2,7.5,31.2,7.5z"/>
		<path class="st47" d="M31.1,7.5c0,0,0,0.1-0.1,0.1c-0.2,0.1-1,0.5-1.1,0.5c-0.1,0-0.1-0.1-0.1-0.1c-0.1,0.1,0,0.1,0,0.2
			c0,0.1,0,0.3,0.2,0.1c0.2-0.1,1.1-0.6,1.1-0.6C31.2,7.7,31.2,7.5,31.1,7.5C31.2,7.5,31.2,7.5,31.1,7.5z"/>
		<path class="st48" d="M31.1,7.6L30,8C30,8,29.9,8,30,8L31.1,7.6z"/>
	</g>
	<g>
		<g>
			<path class="st53" d="M23.5,8.4c-0.2-0.6-1-0.8-1.6-0.9c-0.2,0-0.5,0-0.7,0c-0.6,0-1.3,0.1-1.8,0.5C19,8.3,19,8.7,19,9.1
				c0.1,1.1,0.4,2.3,1.7,2.5c0.7,0.1,1.4,0.1,2-0.2c0.5-0.2,0.7-0.7,0.9-1.2C23.7,9.7,23.7,8.9,23.5,8.4z M23.3,10
				c-0.1,0.4-0.2,0.8-0.5,1.1c-0.5,0.5-1.4,0.5-2,0.4c-1.1-0.3-1.3-1.4-1.4-2.4c0-0.4,0-0.7,0.3-1c0.4-0.4,1.1-0.5,1.7-0.5
				c0.7,0,1.6,0,1.9,0.7C23.4,8.8,23.4,9.5,23.3,10z"/>
			<path class="st48" d="M19.2,9.7c0,0-0.3-1.1,0.1-1.6c0.4-0.5,1.1-0.6,2.1-0.6c0,0-1.3,0.1-1.7,0.4C19.3,8.2,19.1,8.4,19.2,9.7z"
				/>
		</g>
		<g>
			<path class="st53" d="M30,8.1c-0.2-0.6-1-0.8-1.6-0.9c-0.2,0-0.5,0-0.7,0c-0.6,0-1.3,0.1-1.8,0.5c-0.3,0.3-0.4,0.7-0.4,1.1
				c0.1,1.1,0.4,2.3,1.7,2.5c0.7,0.1,1.4,0.1,2-0.2c0.5-0.2,0.7-0.7,0.9-1.2C30.2,9.3,30.2,8.6,30,8.1z M29.8,9.7
				c-0.1,0.4-0.2,0.8-0.5,1.1c-0.5,0.5-1.4,0.5-2,0.4c-1.1-0.3-1.3-1.4-1.4-2.4c0-0.4,0-0.7,0.3-1c0.4-0.4,1.1-0.5,1.7-0.5
				c0.7,0,1.6,0,1.9,0.7C29.9,8.5,29.9,9.2,29.8,9.7z"/>
			<path class="st48" d="M25.7,9.4c0,0-0.3-1.1,0.1-1.6c0.4-0.5,1.1-0.6,2.1-0.6c0,0-1.3,0.1-1.7,0.4C25.7,7.9,25.5,8.1,25.7,9.4z"
				/>
		</g>
	</g>
</g>
</svg>
