<?xml version="1.0" encoding="utf-8"?>
<!-- Generator: Adobe Illustrator 24.0.1, SVG Export Plug-In . SVG Version: 6.00 Build 0)  -->
<svg version="1.1" id="Capa_1" xmlns="http://www.w3.org/2000/svg" xmlns:xlink="http://www.w3.org/1999/xlink" x="0px" y="0px"
	 viewBox="0 0 200 200" style="enable-background:new 0 0 200 200;" xml:space="preserve">
<style type="text/css">
	.st0{fill:#FBD0B4;}
	.st1{fill:#B56A4D;}
	.st2{fill:#F7931E;}
	.st3{fill:#F77A1E;}
	.st4{fill:#EFC2A7;}
	.st5{fill:none;}
	.st6{fill:#775E47;}
	.st7{fill:#7F3837;}
	.st8{opacity:0.7;fill:#7F3837;}
	.st9{fill:#DBDCE9;}
	.st10{fill:#663732;}
	.st11{opacity:0.2;fill:#663732;}
	.st12{opacity:0.4;fill:#7A3538;}
	.st13{opacity:0.4;fill:#BAB8BA;}
	.st14{opacity:0.5;fill:#9999A1;}
	.st15{opacity:0.2;fill:#9999A1;}
	.st16{opacity:0.5;fill:#FFFFFF;}
	.st17{opacity:0.6;fill:#9999A1;}
	.st18{fill:#775F47;}
	.st19{fill:#7F3937;}
	.st20{opacity:0.7;fill:#7F3937;}
	.st21{fill:#663832;}
	.st22{opacity:0.2;fill:#663832;}
	.st23{opacity:0.4;fill:#7A3537;}
	.st24{opacity:0.4;fill:#BAB8B9;}
	.st25{fill:#C63F93;}
	.st26{fill:#771154;}
	.st27{opacity:0.55;}
	.st28{opacity:0.55;fill:#C63F93;}
	.st29{opacity:0.2;fill:#864EC8;}
	.st30{opacity:0.6;fill:#FBC98F;}
	.st31{fill:#6F4F9C;}
	.st32{fill:#3B2066;}
	.st33{opacity:0.5;}
	.st34{opacity:0.5;fill:#6F4F9C;}
	.st35{opacity:0.45;fill:#FFFFFF;}
	.st36{fill:#9E4C0B;}
	.st37{opacity:0.6;fill:#FBD0B4;}
	.st38{fill:#FEF6EC;}
	.st39{fill:#9E5116;}
	.st40{fill:#BBAC9A;}
	.st41{fill:#984C08;}
	.st42{fill:#A0A427;}
	.st43{opacity:0.6;}
	.st44{fill:#9A5648;}
	.st45{fill:#0A010B;}
	.st46{fill:#FFFFFF;}
	.st47{opacity:0.7;fill:url(#SVGID_1_);}
	.st48{fill:#A05B23;}
	.st49{fill:#602E09;}
	.st50{opacity:0.7;fill:url(#SVGID_2_);}
	.st51{fill:#FCECE3;}
	.st52{fill:#A04C0B;}
	.st53{fill:#8C0C00;}
	.st54{opacity:0.6;fill:#B8A997;}
	.st55{fill:#582E18;}
	.st56{fill:#33160A;}
</style>
<g>
	<g>
		<g>
			<g>
				<path class="st0" d="M82.38,130.16c0,0,0,6.29,0,12.4c0,6.11-1.58,17.06-0.52,36.11l7.73-0.02c0,0,2.7-19.18,2.98-35.48
					c1.04-8.08,1.31-12.29,1.31-12.29L82.38,130.16z"/>
				<path class="st1" d="M81.86,178.81c-0.07,0-0.13-0.06-0.14-0.13c-0.75-13.52-0.17-23.14,0.22-29.5c0.17-2.71,0.3-4.85,0.3-6.63
					v-12.4c0-0.04,0.02-0.07,0.04-0.1c0.03-0.02,0.07-0.03,0.1-0.04l11.5,0.72c0.04,0,0.07,0.02,0.09,0.05
					c0.02,0.03,0.04,0.06,0.03,0.1c0,0.04-0.28,4.31-1.32,12.3c-0.28,16.1-2.95,35.29-2.98,35.48c-0.01,0.07-0.07,0.12-0.13,0.12
					L81.86,178.81C81.86,178.81,81.86,178.81,81.86,178.81z M82.51,130.31v12.26c0,1.78-0.13,3.93-0.3,6.64
					c-0.39,6.33-0.97,15.9-0.23,29.34l7.48-0.02c0.22-1.63,2.69-19.9,2.96-35.35c0.93-7.21,1.25-11.38,1.31-12.17L82.51,130.31z"/>
			</g>
			<g>
				<path class="st2" d="M81.5,163.51c-0.05,4.38,0.03,9.4,0.35,15.17l7.73-0.02c0,0,0.91-6.49,1.73-15.12
					C88.17,164.55,84.6,164.49,81.5,163.51z"/>
				<path class="st3" d="M81.86,178.81c-0.07,0-0.13-0.06-0.14-0.13c-0.29-5.22-0.41-10.19-0.35-15.18c0-0.04,0.02-0.08,0.06-0.11
					c0.03-0.02,0.08-0.03,0.12-0.02c3.15,0.99,6.7,1.01,9.73,0.03c0.04-0.01,0.09,0,0.13,0.02c0.04,0.03,0.05,0.07,0.05,0.12
					c-0.81,8.53-1.72,15.06-1.73,15.12c-0.01,0.07-0.07,0.12-0.13,0.12L81.86,178.81C81.86,178.81,81.86,178.81,81.86,178.81z
					 M81.64,163.69c-0.05,4.88,0.07,9.74,0.35,14.85l7.48-0.02c0.12-0.91,0.95-6.99,1.69-14.79
					C88.18,164.64,84.73,164.63,81.64,163.69z"/>
			</g>
			<path class="st1" d="M89.68,143.6c-0.45,0.09-0.9,0.23-1.36,0.27c-0.49,0.05-0.98,0.02-1.47-0.05c-0.97-0.16-1.86-0.61-2.55-1.31
				c-0.06-0.06-0.22,0.16-0.17,0.23c0.63,0.78,1.51,1.33,2.48,1.6c0.97,0.27,2.13,0.21,2.98-0.35
				C89.68,143.94,89.9,143.56,89.68,143.6z"/>
			<g>
				<path class="st4" d="M82.38,130.16c0,0,0,6.29,0,12.4c0,6.11-1.58,17.06-0.52,36.11l7.73-0.02c0,0,2.7-19.18,2.98-35.48
					c1.04-8.08,1.31-12.29,1.31-12.29L82.38,130.16z M83.86,135.82c0.09-3.68,6.47-1.8,6.56,1.62c0.09,3.41-0.54,6.65-3.68,5.39
					C83.59,141.57,83.86,135.82,83.86,135.82z M90.3,162.06c-0.48,8.27-2.24,13.03-4.16,12.55c-1.92-0.48-3.11-0.36-3.23-9.46
					c-0.12-9.22,0.96-15.81,0.96-15.81c0.72-3.71,2.11-4.5,4.86-3.43C91.48,146.98,90.77,153.8,90.3,162.06z"/>
			</g>
			<g>
				<path class="st5" d="M86.73,142.83c3.14,1.26,3.77-1.98,3.68-5.39c-0.09-3.41-6.47-5.3-6.56-1.62
					C83.86,135.82,83.59,141.57,86.73,142.83z"/>
				<path class="st5" d="M88.72,145.91c-2.76-1.08-4.15-0.29-4.86,3.43c0,0-1.08,6.59-0.96,15.81c0.12,9.1,1.32,8.99,3.23,9.46
					c1.92,0.48,3.68-4.28,4.16-12.55C90.77,153.8,91.48,146.98,88.72,145.91z"/>
				<path class="st4" d="M93.88,130.88l-11.5-0.72c0,0,0,1,0,2.58c1.96,0.24,4.89,0.58,7.47,0.85c2.41,0.33,2.04,3.99,1.93,7.22
					c-0.12,3.23-3.08,3.44-5.66,2.95c1.39,1.6,3.27,1.81,4.53,1.46c1.25-0.35,1,9.02,0.76,16.33c-0.01,0.33-0.01,0.64,0.01,0.94
					c0.55-5.98,1.04-12.87,1.15-19.32C93.61,135.1,93.88,130.88,93.88,130.88z"/>
			</g>
		</g>
		<g>
			<g>
				<path class="st6" d="M92.96,190.72c-0.05-1.45-0.29-2.92-0.55-4.3c-0.24-1.28-0.49-2.54-0.82-3.79c-0.25-0.94-0.6-1.87-0.8-2.83
					c0.47-0.77,0.68-1.81,0.23-2.67c-0.62-1.19-1.6-1.64-2.71-1.83c-0.03-0.01-0.05,0.01-0.08,0.03c-0.06,0.01-0.14,0.08-0.13,0.16
					c0.03,0.24-0.04,0.47-0.09,0.69c-0.01,0.05-0.02,0.1-0.02,0.15c-0.53-0.32-1.16-0.57-1.73-0.57c-0.81,0-1.92,0.25-2.8,0.77
					c-0.01-0.14-0.09-0.3-0.13-0.42c-0.03-0.1-0.07-0.19-0.1-0.29c-0.02-0.06-0.02-0.15-0.06-0.19c-0.01-0.01-0.02-0.01-0.03-0.01
					c-0.03-0.03-0.07-0.05-0.13-0.02c-0.41,0.24-0.88,0.29-1.3,0.52c-0.44,0.23-0.88,0.54-1.21,0.96c-0.49,0.63-0.54,1.54-0.09,2.21
					c0.03,0.04,0.06,0.05,0.1,0.04c-0.9,2.96-1.97,6-3.42,8.6c-0.47,0.84-0.83,1.91-0.89,2.96c-0.32,2-0.14,4.28,1.11,5.7
					c1.43,1.63,3.88,2.12,5.74,2.3c1.23,0.12,2.49,0.03,3.71-0.17c0.93-0.15,2.13-0.44,2.99-0.91c0.79-0.44,1.56-1,2.27-1.62
					c0.28-0.64,0.48-1.31,0.62-2.01c0.07-0.45,0.12-0.9,0.14-1.35c0.03-0.01,0.05-0.03,0.07-0.05
					C92.92,192.09,92.96,191.4,92.96,190.72z"/>
				<path class="st7" d="M78.61,185.71c0.53-1.27,1.01-2.59,1.4-3.92c0.32-1.08,0.83-2.19,0.91-3.34c0.01-0.11-0.11-0.1-0.14-0.01
					c-0.05,0.16-0.1,0.32-0.14,0.48c-0.29-1.11,0.2-1.74,1.01-2.29c0.43-0.29,0.98-0.37,1.37-0.72c0.01,0.07,0.02,0.14,0.03,0.2
					c0.02,0.13,0.07,0.44,0.17,0.58c-0.37,0.26-0.69,0.57-0.9,0.94c-0.01,0-0.01-0.01-0.01-0.01c-0.29-0.12-0.66-0.1-0.86-0.43
					c-0.05-0.09-0.18,0.04-0.15,0.13c0.09,0.23,0.23,0.38,0.42,0.47c0.11,0.06,0.29,0.17,0.44,0.18c-0.2,0.59-0.14,1.3,0.32,2.15
					c0.03,0.06,0.13-0.03,0.11-0.09c-1.4-3.27,2.68-3.87,4.37-3.71c0.65,0.06,1.78,0.71,2.3,1.26c0.63,0.66,0.09,2.13-0.19,2.82
					c-0.08,0.19,0.15,0.25,0.23,0.1c0.38-0.74,0.93-2.13,0.4-2.97c-0.37-0.57-0.91-0.71-1.42-1.03c0,0,0,0,0,0
					c0.06-0.16,0.02-0.39,0.04-0.56c0.01-0.12,0.01-0.25,0-0.37c0.73,0.29,1.44,0.63,1.98,1.31c0.59,0.74,0.61,1.58,0.39,2.43
					c-0.04-0.22-0.06-0.45-0.08-0.68c-0.01-0.12-0.15-0.05-0.16,0.03c-0.23,2.05,0.76,4.15,1.22,6.09c0.38,1.62,0.59,3.21,0.74,4.83
					c-1.04-1.48-2.4-2.1-3.97-2.53c-1.87-0.51-3.62-0.68-5.52-0.39c-2.31,0.36-4.74,1.28-6.2,3.53
					C77.02,188.67,77.99,187.21,78.61,185.71z"/>
				<path class="st8" d="M91.68,184.75c-0.46-1.94-1.45-4.04-1.22-6.09c0.01-0.09,0.15-0.15,0.16-0.03
					c0.01,0.23,0.04,0.45,0.08,0.68c0.23-0.86,0.21-1.69-0.39-2.43c-0.54-0.68-1.25-1.02-1.98-1.31c0.01,0.12,0.01,0.24,0,0.37
					c-0.02,0.18,0.02,0.4-0.04,0.56c0,0,0,0,0,0c0.51,0.32,1.05,0.46,1.42,1.03c0.53,0.83-0.03,2.23-0.4,2.97
					c-0.07,0.15-0.3,0.09-0.23-0.1c0.28-0.69,0.82-2.16,0.19-2.82c-0.52-0.54-1.65-1.2-2.3-1.26c-0.3-0.03-0.66-0.03-1.06,0
					c0.36,0.25,0.66,0.7,0.49,1.21c-0.26,0.8-0.93,0.88-1.55,0.99c-0.79,0.14-1.4,0.39-1.93,1.07c0.01,0.04,0.01,0.08,0,0.14
					c-0.11,0.37-0.73,5.21-0.65,5.21c1.04,0.01,2.09-0.03,3.08,0.45c0.51,0.25,0.82,0.7,0.96,1.23c0.71,0.09,1.42,0.23,2.15,0.43
					c1.57,0.43,2.93,1.05,3.97,2.53C92.28,187.96,92.07,186.37,91.68,184.75z"/>
				<path class="st9" d="M76.66,190.67c1.64-2.39,4-3.29,6.52-3.72c1.62-0.27,3.18-0.09,4.77,0.35c0.84,0.23,1.67,0.52,2.46,0.92
					c0.81,0.42,1.36,1.2,1.97,1.94c0.02,0.02,0.04,0.03,0.06,0.04c-0.08,0.88-0.25,1.7-0.66,2.48c-0.58,1.09-1.97,1.71-2.92,2.14
					c-1.91,0.87-3.84,1.2-5.87,1.03c-2.35-0.2-5.15-1.25-6.25-3.86C76.64,191.54,76.62,191.1,76.66,190.67z"/>
				<path class="st9" d="M88.59,197.72c-2.11,0.62-4.04,0.99-6.22,0.7c-1.5-0.2-3.07-0.76-4.36-1.74c-1.24-0.95-1.62-2.66-1.65-4.37
					c0.16,0.52,0.44,0.99,0.88,1.36c0.03,0.02,0.06,0.02,0.09,0.01c1.46,1.94,4.16,2.35,6.44,2.48c2.27,0.13,4.5-0.49,6.55-1.67
					c1.19-0.69,1.94-1.6,2.23-2.87c-0.04,0.83-0.15,1.65-0.28,2.47c-0.05,0.3-0.1,0.61-0.16,0.9c-0.07,0.24-0.16,0.48-0.26,0.71
					c-0.17,0.15-0.35,0.3-0.53,0.45C90.47,196.83,89.58,197.43,88.59,197.72z"/>
				<path class="st6" d="M90.16,182.42c-0.06-0.33-0.14-0.61-0.25-0.86c-0.2-0.33-0.43-0.64-0.58-0.99
					c-1.97-1.65-5.17-1.73-7.25-0.29c-0.02-0.02-0.04-0.03-0.07-0.02c-0.32,0.12-0.58,0.39-0.8,0.69c-0.14,0.19-0.24,0.43-0.36,0.64
					c-0.05,0.09-0.09,0.18-0.13,0.28c-0.01,0.02-0.02,0.03-0.02,0.05c-0.23,0.61-0.36,1.23-0.53,1.87
					c-0.11,0.39-0.54,1.44-0.21,1.83c0.4,0.47,0.93,0.17,1.39-0.05c1.42-0.68,2.75-1.1,4.29-0.92c1.29,0.15,2.39,0.92,3.59,1.44
					c0.45,0.2,1.01,0.01,1.22-0.54C90.8,184.58,90.33,183.36,90.16,182.42z"/>
				<path class="st10" d="M89.04,185.44c-1.4-0.44-2.64-1.01-4.12-1.08c-1.3-0.07-2.59,0.38-3.78,0.95
					c-0.7,0.34-0.95-0.54-0.77-1.19c0.05-0.17,0.1-0.33,0.14-0.5c0.22-0.94,0.52-1.65,0.9-2.43c0.16-0.24,0.36-0.41,0.55-0.61
					c2.02-1.34,5.2-1.02,7.14,0.48c0.34,0.45,0.6,0.84,0.73,1.54C90.02,183.63,90.79,185.98,89.04,185.44z"/>
				<path class="st11" d="M89.83,182.6c-0.13-0.7-0.39-1.08-0.73-1.54c-0.85-0.66-1.94-1.09-3.07-1.25c0.27,0.12,0.54,0.28,0.8,0.51
					c0.72,0.62,1.07,2.4,0.08,2.95c-0.32,0.17-0.69-0.03-1.01-0.05c-0.64-0.05-1.28-0.03-1.92,0.09c-0.87,0.17-1.71,0.44-2.56,0.72
					c-0.36,0.12-0.74,0.2-1.05,0.15c-0.15,0.64,0.1,1.47,0.78,1.14c1.19-0.58,2.49-1.02,3.78-0.95c1.48,0.07,2.72,0.65,4.12,1.08
					C90.79,185.98,90.02,183.63,89.83,182.6z"/>
			</g>
			<path class="st12" d="M84.68,180.18c-0.82,0.08-1.83,0.17-2.56,0.68c-0.65,0.46-0.96,1.54-1.15,2.37
				c-0.03,0.15,0.11,0.17,0.17,0.07c0.45-0.77,0.65-1.75,1.42-2.18c0.65-0.36,1.42-0.52,2.11-0.73
				C84.76,180.35,84.79,180.17,84.68,180.18z"/>
			<path class="st13" d="M84.96,176.99c-0.52-0.02-1.01,0.01-1.51,0.22c-0.35,0.15-1.18,0.99-0.72,1.47
				c0.08,0.09,0.21,0.06,0.28-0.04c0.12-0.16,0.18-0.34,0.28-0.51c0.1-0.17,0.32-0.28,0.46-0.38c0.37-0.26,0.79-0.42,1.19-0.61
				C84.99,177.12,85.05,176.99,84.96,176.99z"/>
			<g>
				<path class="st14" d="M84.53,196.16c-0.01,0.78,0,1.55,0,2.33c0.3-0.02,0.6-0.04,0.9-0.08c-0.01-0.46-0.04-0.92-0.05-1.38
					c0-0.31-0.01-0.61-0.01-0.92C85.09,196.14,84.81,196.16,84.53,196.16z"/>
				<path class="st14" d="M77.98,196.65c0.01,0.01,0.02,0.02,0.03,0.03c0.19,0.15,0.39,0.28,0.6,0.41
					c-0.05-0.78-0.11-1.56-0.14-2.34c-0.22-0.15-0.43-0.32-0.63-0.51C77.9,195.04,77.94,195.84,77.98,196.65z"/>
				<path class="st14" d="M77.37,193.72c-0.01-0.01-0.03-0.03-0.04-0.04c-0.03,0.01-0.06,0.01-0.09-0.01
					c-0.44-0.37-0.72-0.84-0.88-1.36c0.03,1.46,0.31,2.91,1.15,3.9C77.48,195.37,77.43,194.54,77.37,193.72z"/>
				<path class="st14" d="M79.05,197.35c0.31,0.17,0.63,0.32,0.96,0.45c-0.04-0.77-0.08-1.55-0.11-2.32
					c-0.35-0.13-0.67-0.28-0.99-0.46C78.96,195.79,79.01,196.57,79.05,197.35z"/>
				<path class="st14" d="M80.35,195.62c0.03,0.78,0.08,1.57,0.11,2.35c0.29,0.1,0.59,0.19,0.89,0.26
					c-0.01-0.78,0.01-1.57,0.05-2.35C81.05,195.81,80.69,195.72,80.35,195.62z"/>
				<path class="st14" d="M82.76,196.07c-0.31-0.03-0.62-0.07-0.93-0.12c-0.04,0.79-0.06,1.58-0.05,2.37
					c0.2,0.04,0.39,0.07,0.59,0.1c0.14,0.02,0.27,0.03,0.41,0.04C82.79,197.66,82.79,196.87,82.76,196.07z"/>
				<path class="st14" d="M84.1,196.16c-0.11,0-0.22,0-0.33-0.01c-0.19-0.01-0.38-0.02-0.57-0.04c0.03,0.79,0.03,1.59,0.01,2.38
					c0.3,0.02,0.59,0.02,0.89,0.01C84.09,197.73,84.09,196.94,84.1,196.16z"/>
				<path class="st14" d="M85.8,196.06c0,0.4,0.01,0.79,0.02,1.19c0.02,0.37,0.04,0.73,0.04,1.1c0.3-0.05,0.6-0.1,0.9-0.16v-2.3
					C86.44,195.96,86.12,196.02,85.8,196.06z"/>
				<path class="st14" d="M87.19,195.79v2.31c0.36-0.09,0.73-0.18,1.1-0.29c0.02-0.79,0.02-1.59,0.04-2.38
					C87.95,195.56,87.58,195.68,87.19,195.79z"/>
				<path class="st14" d="M88.76,195.24c-0.03,0.81-0.02,1.62-0.04,2.43c0.28-0.09,0.56-0.21,0.83-0.35
					c0.07-0.86,0.14-1.71,0.25-2.56C89.45,194.94,89.11,195.1,88.76,195.24z"/>
				<path class="st14" d="M90.32,194.48c-0.02,0.01-0.05,0.02-0.07,0.04c-0.12,0.85-0.19,1.7-0.26,2.56
					c0.3-0.18,0.59-0.38,0.88-0.59c0.02-0.82,0.04-1.63,0.1-2.44C90.77,194.2,90.55,194.35,90.32,194.48z"/>
				<path class="st14" d="M91.42,193.65c-0.08,0.83-0.11,1.67-0.13,2.5c0.01-0.01,0.01-0.01,0.02-0.01c0.18-0.15,0.36-0.3,0.53-0.45
					c0.1-0.23,0.19-0.47,0.26-0.71c0.07-0.29,0.11-0.6,0.16-0.9c0.14-0.82,0.25-1.64,0.28-2.47
					C92.36,192.43,91.98,193.1,91.42,193.65z"/>
			</g>
			<path class="st15" d="M92.38,190.16c-0.61-0.74-1.16-1.52-1.97-1.94c-0.79-0.41-1.62-0.69-2.46-0.92
				c-1.05-0.29-2.08-0.47-3.13-0.48c0.56,0.23,1.07,0.58,1.46,1.06c1.76,2.12,0.36,4.89-1.59,5.77c-1.8,0.81-4.47,0.77-6.15-0.49
				c-1.06-0.79-1.43-1.98-1.16-3.41c-0.26,0.28-0.5,0.58-0.73,0.92c-0.04,0.44-0.02,0.88,0.09,1.33c1.1,2.61,3.89,3.66,6.25,3.86
				c2.03,0.17,3.96-0.16,5.87-1.03c0.95-0.43,2.34-1.05,2.92-2.14c0.41-0.77,0.57-1.59,0.66-2.48
				C92.42,190.2,92.4,190.18,92.38,190.16z"/>
			<path class="st15" d="M92.38,190.16c-0.61-0.74-1.16-1.52-1.97-1.94c-0.09-0.05-0.18-0.09-0.28-0.13
				c-0.17,1.81-0.23,3.6-1.58,4.89c-1.45,1.4-3.13,2.17-4.99,2.32c-1.62,0.13-3.2,0.09-4.63-0.77c1.23,0.8,2.72,1.19,4.06,1.3
				c2.03,0.17,3.96-0.16,5.87-1.03c0.95-0.43,2.34-1.05,2.92-2.14c0.41-0.77,0.57-1.59,0.66-2.48
				C92.42,190.2,92.4,190.18,92.38,190.16z"/>
			<path class="st12" d="M81.36,178.74c-0.13,0.13-0.54,0.49-0.5,0.78c0.12,1.08-0.44,2.27-0.74,3.28
				c-0.36,1.19-0.84,2.49-1.48,3.49c-0.19,0.3-0.36,0.61-0.42,0.96c-0.08,0.12-0.19,0.21-0.24,0.35c-0.09,0.24-0.09,0.46,0.15,0.54
				c0.23,0.08,0.58-0.19,0.76-0.33c0.36-0.28,0.72-0.56,1.09-0.83c0.04-0.03,0.05-0.13-0.01-0.12c-0.44,0.07-0.83,0.16-1.19,0.5
				c-0.04,0.03-0.08,0.06-0.12,0.09c-0.01-0.01-0.01-0.03-0.02-0.04c-0.12-0.11,1.54-4.2,1.66-4.59c0.27-0.86,0.53-1.69,0.83-2.54
				c0.17-0.47-0.04-1.03,0.28-1.51C81.43,178.74,81.38,178.71,81.36,178.74z"/>
			<path class="st16" d="M83.74,188.87c-1.04-1.5-3.54-1.2-4.68-0.03c-0.46,0.47-1.11,1.23-1.09,2.03c0.06,2.2,2.61,2.13,3.84,1.64
				C82.87,192.07,84.73,190.31,83.74,188.87z"/>
			<path class="st16" d="M85.15,191.43c-0.21-0.37-0.63-0.31-0.93-0.16c-0.14,0.07-0.27,0.17-0.37,0.29
				c-0.17,0.14-0.31,0.35-0.34,0.59c-0.07,0.43,0.22,0.66,0.54,0.68c0.03,0,0.05,0,0.08,0c0.33,0.03,0.72-0.13,0.88-0.36
				c0.03-0.04,0.04-0.09,0.05-0.13C85.26,192.1,85.34,191.78,85.15,191.43z"/>
			<path class="st17" d="M80.75,196.47c1.84,0.8,3.44,0.54,5.35,0.35c0.95-0.1,1.86,0.05,2.8-0.22c0.54-0.15,1.09-0.29,1.65-0.2
				c0.12,0.02,0.23,0.05,0.34,0.08c0.14-0.11,0.29-0.22,0.43-0.33c0.18-0.15,0.36-0.3,0.53-0.45c0.1-0.23,0.19-0.47,0.26-0.71
				c0.07-0.29,0.11-0.6,0.16-0.9c0.14-0.82,0.25-1.64,0.28-2.47c-0.29,1.28-1.04,2.19-2.23,2.87c-2.05,1.18-4.28,1.8-6.55,1.67
				c-2.28-0.13-4.97-0.54-6.44-2.48c-0.03,0.01-0.06,0.01-0.09-0.01c-0.44-0.37-0.72-0.84-0.88-1.36c0,0.17,0.01,0.34,0.02,0.51
				C77.06,194.79,79.23,195.81,80.75,196.47z"/>
		</g>
	</g>
	<g>
		<g>
			<g>
				<path class="st0" d="M116.49,130.11c0,0,0.15,6.29,0.3,12.4c0.15,6.11,1.99,17.02,1.39,36.09l-7.73,0.17
					c0,0-3.16-19.11-3.83-35.4c-1.24-8.05-1.61-12.26-1.61-12.26L116.49,130.11z"/>
				<path class="st1" d="M110.45,178.9c-0.07,0-0.12-0.05-0.13-0.11c-0.03-0.19-3.17-19.31-3.83-35.42
					c-1.22-7.95-1.61-12.21-1.61-12.25c0-0.04,0.01-0.07,0.03-0.1c0.02-0.03,0.06-0.05,0.09-0.05l11.48-1c0.04,0,0.07,0.01,0.1,0.03
					c0.03,0.02,0.04,0.06,0.05,0.1l0.3,12.4c0.04,1.77,0.23,3.91,0.46,6.62c0.54,6.35,1.36,15.94,0.94,29.48
					c0,0.07-0.06,0.13-0.13,0.13L110.45,178.9C110.46,178.9,110.46,178.9,110.45,178.9z M105.16,131.23
					c0.07,0.78,0.5,4.94,1.6,12.11c0.64,15.45,3.55,33.66,3.81,35.28l7.48-0.16c0.42-13.46-0.4-23-0.94-29.32
					c-0.23-2.71-0.41-4.85-0.46-6.63l-0.3-12.25L105.16,131.23z"/>
			</g>
			<g>
				<path class="st2" d="M118.17,163.42c0.15,4.37,0.19,9.4,0.01,15.17l-7.73,0.17c0,0-1.07-6.46-2.09-15.07
					C111.53,164.63,115.09,164.48,118.17,163.42z"/>
				<path class="st3" d="M110.45,178.9c-0.07,0-0.12-0.05-0.13-0.11c-0.01-0.07-1.08-6.57-2.09-15.08
					c-0.01-0.04,0.01-0.09,0.05-0.12c0.03-0.03,0.08-0.04,0.13-0.03c3.05,0.9,6.6,0.8,9.73-0.27c0.04-0.01,0.09-0.01,0.12,0.02
					c0.04,0.02,0.06,0.06,0.06,0.11c0.17,5,0.18,9.96,0.01,15.18c0,0.07-0.06,0.13-0.13,0.13L110.45,178.9
					C110.46,178.9,110.46,178.9,110.45,178.9z M108.52,163.88c0.93,7.79,1.9,13.84,2.05,14.75l7.48-0.16
					c0.16-5.1,0.15-9.97-0.01-14.85C114.97,164.62,111.52,164.72,108.52,163.88z"/>
			</g>
			<path class="st1" d="M109.52,143.72c0.45,0.08,0.91,0.2,1.37,0.24c0.49,0.04,0.99,0,1.46-0.09c0.97-0.18,1.85-0.65,2.52-1.37
				c0.06-0.06,0.22,0.16,0.17,0.23c-0.61,0.8-1.48,1.37-2.44,1.66c-0.97,0.29-2.12,0.26-2.99-0.28
				C109.53,144.06,109.29,143.68,109.52,143.72z"/>
			<g>
				<path class="st4" d="M105.01,131.11c0,0,0.37,4.21,1.61,12.26c0.67,16.29,3.83,35.4,3.83,35.4l7.73-0.17
					c0.6-19.07-1.24-29.98-1.39-36.09c-0.15-6.11-0.3-12.4-0.3-12.4L105.01,131.11z M112.44,142.88c-3.11,1.33-3.82-1.89-3.81-5.3
					c0.01-3.42,6.34-5.46,6.52-1.77C115.15,135.81,115.56,141.55,112.44,142.88z M110.53,146c2.73-1.14,4.14-0.39,4.95,3.31
					c0,0,1.24,6.56,1.34,15.79c0.1,9.11-1.1,9.01-3.01,9.54c-1.9,0.53-3.78-4.19-4.46-12.44C108.67,153.94,107.8,147.15,110.53,146z
					"/>
			</g>
			<g>
				<path class="st5" d="M112.44,142.88c-3.11,1.33-3.82-1.89-3.81-5.3c0.01-3.42,6.34-5.46,6.52-1.77
					C115.15,135.81,115.56,141.55,112.44,142.88z"/>
				<path class="st5" d="M110.53,146c2.73-1.14,4.14-0.39,4.95,3.31c0,0,1.24,6.56,1.34,15.79c0.1,9.11-1.1,9.01-3.01,9.54
					c-1.9,0.53-3.78-4.19-4.46-12.44C108.67,153.94,107.8,147.15,110.53,146z"/>
				<path class="st4" d="M105.01,131.11l11.48-1c0,0,0.02,1,0.06,2.58c-1.96,0.29-4.87,0.7-7.45,1.03
					c-2.41,0.39-1.94,4.04-1.75,7.27c0.19,3.23,3.16,3.36,5.73,2.81c-1.35,1.64-3.23,1.89-4.49,1.57
					c-1.26-0.32-0.78,9.04-0.37,16.34c0.02,0.33,0.02,0.64,0.02,0.94c-0.69-5.97-1.35-12.84-1.62-19.28
					C105.38,135.31,105.01,131.11,105.01,131.11z"/>
			</g>
		</g>
		<g>
			<g>
				<path class="st18" d="M107.37,190.91c0.01-1.45,0.22-2.93,0.44-4.32c0.21-1.28,0.43-2.56,0.73-3.81
					c0.23-0.95,0.55-1.88,0.74-2.85c-0.48-0.76-0.72-1.8-0.3-2.67c0.59-1.2,1.56-1.68,2.67-1.9c0.03-0.01,0.05,0.01,0.08,0.02
					c0.06,0.01,0.14,0.08,0.13,0.15c-0.02,0.24,0.05,0.46,0.1,0.69c0.01,0.05,0.02,0.1,0.03,0.15c0.52-0.33,1.14-0.59,1.72-0.61
					c0.81-0.02,1.93,0.2,2.82,0.7c0.01-0.14,0.09-0.3,0.12-0.42c0.03-0.1,0.07-0.19,0.1-0.29c0.02-0.06,0.02-0.15,0.06-0.2
					c0.01-0.01,0.02-0.01,0.03-0.01c0.03-0.03,0.07-0.05,0.13-0.02c0.41,0.23,0.89,0.27,1.31,0.48c0.44,0.22,0.89,0.52,1.23,0.93
					c0.51,0.62,0.57,1.52,0.14,2.21c-0.03,0.04-0.06,0.05-0.09,0.05c0.97,2.94,2.11,5.95,3.63,8.51c0.49,0.82,0.88,1.89,0.96,2.93
					c0.37,1.99,0.25,4.27-0.97,5.73c-1.39,1.66-3.82,2.21-5.68,2.44c-1.23,0.15-2.48,0.09-3.71-0.08c-0.94-0.13-2.14-0.39-3.01-0.84
					c-0.8-0.42-1.58-0.96-2.31-1.57c-0.29-0.63-0.51-1.3-0.67-1.99c-0.08-0.44-0.14-0.89-0.18-1.35c-0.03-0.01-0.05-0.03-0.08-0.05
					C107.44,192.27,107.39,191.59,107.37,190.91z"/>
				<path class="st19" d="M121.59,185.55c-0.56-1.25-1.07-2.56-1.49-3.89c-0.34-1.07-0.89-2.17-0.99-3.32
					c-0.01-0.11,0.11-0.1,0.14-0.02c0.05,0.16,0.1,0.32,0.16,0.47c0.26-1.12-0.24-1.74-1.07-2.26c-0.44-0.28-0.99-0.34-1.39-0.69
					c-0.01,0.07-0.02,0.14-0.03,0.2c-0.02,0.13-0.06,0.44-0.15,0.58c0.38,0.25,0.7,0.55,0.92,0.92c0.01,0,0.01-0.01,0.01-0.01
					c0.29-0.13,0.66-0.12,0.85-0.45c0.05-0.09,0.18,0.04,0.15,0.13c-0.08,0.24-0.22,0.38-0.41,0.48c-0.11,0.06-0.29,0.18-0.44,0.2
					c0.21,0.58,0.17,1.3-0.27,2.15c-0.03,0.06-0.14-0.03-0.11-0.09c1.32-3.3-2.77-3.8-4.46-3.6c-0.65,0.08-1.76,0.76-2.27,1.31
					c-0.61,0.68-0.04,2.13,0.26,2.81c0.08,0.19-0.15,0.25-0.22,0.11c-0.39-0.73-0.99-2.11-0.47-2.95c0.35-0.58,0.89-0.73,1.39-1.07
					c0,0,0,0,0,0c-0.06-0.16-0.03-0.38-0.05-0.56c-0.01-0.12-0.02-0.25-0.01-0.37c-0.72,0.31-1.42,0.67-1.95,1.36
					c-0.58,0.75-0.57,1.59-0.33,2.44c0.03-0.23,0.05-0.45,0.06-0.68c0-0.12,0.14-0.05,0.16,0.03c0.28,2.05-0.66,4.17-1.07,6.12
					c-0.35,1.63-0.52,3.22-0.62,4.84c1.01-1.51,2.35-2.16,3.91-2.63c1.85-0.56,3.6-0.77,5.51-0.52c2.32,0.31,4.77,1.17,6.28,3.38
					C123.25,188.47,122.25,187.03,121.59,185.55z"/>
				<path class="st20" d="M108.5,184.9c0.41-1.95,1.35-4.07,1.07-6.12c-0.01-0.08-0.15-0.15-0.16-0.03
					c-0.01,0.23-0.03,0.45-0.06,0.68c-0.25-0.85-0.25-1.69,0.33-2.44c0.53-0.69,1.23-1.05,1.95-1.36c-0.01,0.12,0,0.24,0.01,0.37
					c0.02,0.18-0.01,0.4,0.05,0.56c0,0,0,0,0,0c-0.5,0.33-1.04,0.48-1.39,1.07c-0.51,0.84,0.08,2.23,0.47,2.95
					c0.08,0.15,0.3,0.08,0.22-0.11c-0.29-0.69-0.87-2.14-0.26-2.81c0.5-0.56,1.62-1.24,2.27-1.31c0.29-0.03,0.66-0.05,1.06-0.03
					c-0.35,0.25-0.64,0.71-0.46,1.23c0.28,0.79,0.95,0.86,1.58,0.95c0.79,0.12,1.41,0.35,1.96,1.03c-0.01,0.04-0.01,0.08,0.01,0.14
					c0.12,0.37,0.85,5.19,0.77,5.19c-1.04,0.04-2.09,0.02-3.07,0.52c-0.5,0.26-0.8,0.72-0.93,1.25c-0.71,0.11-1.42,0.27-2.14,0.49
					c-1.56,0.47-2.91,1.12-3.91,2.63C107.99,188.13,108.16,186.53,108.5,184.9z"/>
				<path class="st9" d="M123.67,190.46c-1.7-2.35-4.08-3.2-6.61-3.56c-1.63-0.23-3.18-0.01-4.76,0.47
					c-0.83,0.25-1.65,0.56-2.44,0.98c-0.8,0.44-1.33,1.23-1.93,1.98c-0.02,0.02-0.04,0.03-0.06,0.04c0.1,0.88,0.29,1.7,0.72,2.46
					c0.6,1.08,2.01,1.66,2.97,2.07c1.93,0.82,3.87,1.11,5.9,0.89c2.35-0.25,5.12-1.37,6.15-4.01
					C123.7,191.34,123.72,190.89,123.67,190.46z"/>
				<path class="st9" d="M111.91,197.8c2.12,0.57,4.07,0.9,6.24,0.55c1.5-0.24,3.05-0.83,4.31-1.85c1.22-0.98,1.55-2.7,1.54-4.41
					c-0.15,0.52-0.41,1-0.84,1.38c-0.03,0.02-0.06,0.02-0.09,0.01c-1.42,1.97-4.1,2.45-6.38,2.63c-2.27,0.18-4.51-0.38-6.59-1.51
					c-1.21-0.66-1.97-1.55-2.29-2.82c0.06,0.83,0.19,1.64,0.34,2.46c0.06,0.3,0.11,0.61,0.18,0.9c0.08,0.24,0.17,0.48,0.28,0.71
					c0.17,0.15,0.35,0.29,0.54,0.44C110.01,196.95,110.91,197.53,111.91,197.8z"/>
				<path class="st18" d="M109.97,182.54c0.05-0.33,0.12-0.61,0.23-0.87c0.19-0.34,0.41-0.65,0.56-1.01
					c1.93-1.7,5.13-1.85,7.25-0.46c0.02-0.02,0.04-0.03,0.07-0.02c0.32,0.12,0.59,0.37,0.82,0.67c0.14,0.18,0.25,0.42,0.37,0.63
					c0.05,0.09,0.1,0.18,0.13,0.28c0.01,0.02,0.02,0.03,0.03,0.05c0.25,0.61,0.39,1.23,0.58,1.86c0.12,0.39,0.57,1.43,0.25,1.82
					c-0.39,0.48-0.92,0.19-1.39-0.02c-1.44-0.65-2.77-1.03-4.31-0.82c-1.29,0.18-2.37,0.98-3.55,1.53
					c-0.45,0.21-1.01,0.03-1.23-0.51C109.39,184.71,109.82,183.49,109.97,182.54z"/>
				<path class="st21" d="M111.16,185.53c1.39-0.47,2.61-1.07,4.09-1.18c1.29-0.1,2.6,0.31,3.81,0.86c0.71,0.32,0.94-0.57,0.74-1.21
					c-0.05-0.17-0.11-0.33-0.15-0.5c-0.24-0.93-0.56-1.63-0.96-2.41c-0.16-0.24-0.37-0.4-0.56-0.59c-2.05-1.29-5.23-0.89-7.12,0.65
					c-0.33,0.46-0.58,0.86-0.7,1.56C110.14,183.75,109.43,186.12,111.16,185.53z"/>
				<path class="st22" d="M110.31,182.71c0.12-0.7,0.36-1.09,0.7-1.56c0.83-0.68,1.92-1.14,3.04-1.33
					c-0.27,0.13-0.53,0.29-0.78,0.52c-0.7,0.63-1.01,2.43,0,2.95c0.32,0.17,0.69-0.05,1.01-0.08c0.64-0.06,1.28-0.06,1.92,0.05
					c0.88,0.15,1.72,0.4,2.58,0.66c0.36,0.11,0.75,0.18,1.05,0.12c0.17,0.64-0.06,1.47-0.75,1.16c-1.21-0.55-2.51-0.96-3.81-0.86
					c-1.48,0.11-2.7,0.71-4.09,1.18C109.43,186.12,110.14,183.75,110.31,182.71z"/>
			</g>
			<path class="st23" d="M115.39,180.17c0.82,0.06,1.83,0.12,2.57,0.62c0.67,0.44,1,1.52,1.2,2.34c0.04,0.15-0.1,0.18-0.17,0.07
				c-0.47-0.76-0.7-1.74-1.47-2.14c-0.66-0.35-1.43-0.48-2.13-0.68C115.32,180.34,115.28,180.16,115.39,180.17z"/>
			<path class="st24" d="M115.03,176.98c0.52-0.03,1.01-0.02,1.51,0.18c0.35,0.14,1.2,0.96,0.76,1.45
				c-0.08,0.09-0.21,0.06-0.28-0.03c-0.12-0.16-0.19-0.34-0.29-0.51c-0.1-0.17-0.32-0.27-0.47-0.37c-0.37-0.25-0.8-0.4-1.2-0.58
				C115.01,177.12,114.95,176.99,115.03,176.98z"/>
			<g>
				<path class="st14" d="M115.93,196.14c0.03,0.78,0.04,1.55,0.06,2.33c-0.3-0.01-0.6-0.03-0.9-0.06c0-0.46,0.02-0.92,0.01-1.38
					c0-0.31-0.01-0.61-0.02-0.92C115.37,196.14,115.65,196.14,115.93,196.14z"/>
				<path class="st14" d="M122.49,196.47c-0.01,0.01-0.02,0.02-0.03,0.03c-0.19,0.15-0.39,0.29-0.59,0.42
					c0.03-0.78,0.07-1.56,0.08-2.34c0.22-0.16,0.42-0.33,0.61-0.52C122.53,194.86,122.51,195.67,122.49,196.47z"/>
				<path class="st14" d="M123.03,193.52c0.01-0.01,0.03-0.03,0.04-0.04c0.03,0.01,0.06,0.01,0.09-0.01
					c0.43-0.38,0.7-0.86,0.84-1.38c0.01,1.46-0.24,2.91-1.06,3.92C122.96,195.18,122.99,194.35,123.03,193.52z"/>
				<path class="st14" d="M121.43,197.19c-0.31,0.17-0.63,0.33-0.95,0.47c0.02-0.77,0.04-1.55,0.05-2.33
					c0.34-0.13,0.67-0.3,0.98-0.48C121.49,195.63,121.46,196.41,121.43,197.19z"/>
				<path class="st14" d="M120.1,195.5c-0.01,0.79-0.04,1.57-0.06,2.35c-0.29,0.11-0.59,0.2-0.88,0.28
					c-0.01-0.78-0.05-1.57-0.11-2.35C119.4,195.7,119.75,195.61,120.1,195.5z"/>
				<path class="st14" d="M117.7,196.01c0.31-0.04,0.62-0.09,0.93-0.15c0.06,0.79,0.09,1.58,0.1,2.37
					c-0.19,0.04-0.39,0.08-0.58,0.11c-0.14,0.02-0.27,0.03-0.41,0.05C117.71,197.6,117.69,196.81,117.7,196.01z"/>
				<path class="st14" d="M116.36,196.13c0.11,0,0.22,0,0.33-0.01c0.19-0.01,0.38-0.03,0.57-0.05c-0.01,0.8,0.01,1.59,0.04,2.38
					c-0.3,0.02-0.59,0.03-0.89,0.03C116.41,197.7,116.39,196.91,116.36,196.13z"/>
				<path class="st14" d="M114.66,196.07c0.01,0.4,0.01,0.79,0.01,1.19c-0.01,0.37-0.02,0.73-0.01,1.1c-0.3-0.04-0.6-0.08-0.9-0.14
					l-0.06-2.3C114.01,195.99,114.33,196.04,114.66,196.07z"/>
				<path class="st14" d="M113.26,195.83l0.06,2.3c-0.37-0.08-0.73-0.16-1.11-0.26c-0.04-0.79-0.05-1.59-0.09-2.38
					C112.49,195.62,112.87,195.74,113.26,195.83z"/>
				<path class="st14" d="M111.68,195.33c0.04,0.81,0.06,1.62,0.1,2.43c-0.29-0.09-0.56-0.2-0.83-0.33
					c-0.09-0.85-0.18-1.71-0.31-2.56C110.98,195.04,111.33,195.19,111.68,195.33z"/>
				<path class="st14" d="M110.1,194.6c0.02,0.01,0.05,0.02,0.07,0.04c0.14,0.85,0.23,1.7,0.33,2.55c-0.3-0.17-0.6-0.36-0.89-0.57
					c-0.04-0.81-0.08-1.63-0.16-2.44C109.65,194.33,109.86,194.47,110.1,194.6z"/>
				<path class="st14" d="M108.98,193.8c0.1,0.83,0.15,1.67,0.19,2.5c-0.01-0.01-0.01-0.01-0.02-0.01
					c-0.19-0.14-0.37-0.29-0.54-0.44c-0.11-0.23-0.2-0.46-0.28-0.71c-0.07-0.29-0.13-0.6-0.18-0.9c-0.16-0.82-0.29-1.63-0.34-2.46
					C108.01,192.6,108.41,193.26,108.98,193.8z"/>
			</g>
			<path class="st15" d="M107.93,190.33c0.59-0.75,1.12-1.55,1.93-1.98c0.78-0.43,1.61-0.73,2.44-0.98
				c1.04-0.32,2.07-0.52,3.11-0.55c-0.56,0.24-1.05,0.6-1.44,1.09c-1.7,2.16-0.24,4.9,1.73,5.72c1.82,0.77,4.49,0.66,6.13-0.64
				c1.04-0.82,1.39-2.01,1.08-3.44c0.26,0.27,0.52,0.57,0.76,0.9c0.05,0.44,0.04,0.88-0.06,1.33c-1.03,2.63-3.81,3.75-6.15,4.01
				c-2.03,0.22-3.96-0.06-5.9-0.89c-0.96-0.41-2.37-0.99-2.97-2.07c-0.43-0.76-0.61-1.58-0.72-2.46
				C107.89,190.37,107.91,190.36,107.93,190.33z"/>
			<path class="st15" d="M107.93,190.33c0.59-0.75,1.12-1.55,1.93-1.98c0.09-0.05,0.18-0.09,0.27-0.14c0.21,1.8,0.32,3.59,1.7,4.86
				c1.49,1.36,3.19,2.1,5.04,2.2c1.62,0.09,3.2,0.01,4.61-0.88c-1.21,0.83-2.69,1.26-4.03,1.4c-2.03,0.22-3.96-0.06-5.9-0.89
				c-0.96-0.41-2.37-0.99-2.97-2.07c-0.43-0.76-0.61-1.58-0.72-2.46C107.89,190.37,107.91,190.36,107.93,190.33z"/>
			<path class="st23" d="M118.68,178.65c0.14,0.13,0.55,0.48,0.52,0.77c-0.09,1.08,0.49,2.26,0.82,3.26
				c0.39,1.18,0.9,2.47,1.56,3.45c0.2,0.29,0.37,0.6,0.44,0.95c0.09,0.11,0.19,0.21,0.25,0.35c0.1,0.24,0.1,0.46-0.13,0.54
				c-0.23,0.08-0.58-0.18-0.76-0.31c-0.37-0.27-0.74-0.54-1.11-0.8c-0.04-0.03-0.05-0.12,0.01-0.12c0.44,0.06,0.84,0.14,1.2,0.47
				c0.04,0.03,0.08,0.06,0.12,0.09c0.01-0.01,0.01-0.03,0.02-0.04c0.12-0.12-1.64-4.16-1.77-4.55c-0.29-0.85-0.57-1.68-0.9-2.52
				c-0.18-0.47,0.02-1.03-0.31-1.51C118.61,178.65,118.65,178.62,118.68,178.65z"/>
			<path class="st16" d="M118.56,192.42c1.24,0.47,3.79,0.47,3.8-1.73c0-0.8-0.67-1.54-1.14-2c-1.16-1.14-3.68-1.38-4.67,0.15
				C115.59,190.29,117.49,192.01,118.56,192.42z"/>
			<path class="st16" d="M115.31,192.33c0.01,0.04,0.02,0.09,0.05,0.13c0.17,0.22,0.56,0.37,0.89,0.34c0.03,0,0.05,0,0.08,0
				c0.32-0.03,0.6-0.26,0.53-0.69c-0.04-0.24-0.18-0.44-0.36-0.58c-0.11-0.12-0.24-0.22-0.38-0.28c-0.3-0.14-0.73-0.19-0.92,0.19
				C115.01,191.78,115.11,192.09,115.31,192.33z"/>
			<path class="st17" d="M119.72,196.36c-1.82,0.84-3.43,0.62-5.34,0.48c-0.95-0.07-1.85,0.09-2.8-0.16
				c-0.54-0.14-1.1-0.27-1.65-0.16c-0.12,0.02-0.23,0.05-0.34,0.08c-0.15-0.11-0.29-0.21-0.44-0.32c-0.19-0.14-0.37-0.29-0.54-0.44
				c-0.11-0.23-0.2-0.46-0.28-0.71c-0.07-0.29-0.13-0.6-0.18-0.9c-0.16-0.82-0.29-1.63-0.34-2.46c0.32,1.27,1.09,2.16,2.29,2.82
				c2.08,1.13,4.32,1.69,6.59,1.51c2.28-0.18,4.96-0.66,6.38-2.63c0.03,0.01,0.06,0.01,0.09-0.01c0.43-0.38,0.7-0.86,0.84-1.38
				c0,0.17,0,0.34-0.01,0.51C123.37,194.59,121.22,195.67,119.72,196.36z"/>
		</g>
	</g>
	<g>
		<g>
			<g>
				<path class="st25" d="M79.3,127.28l0.23-2.48c-1.68-0.03-2.26-0.24-2.65,2.33c-0.39,2.57,0.58,3.8,3.77,4.62
					c3.19,0.82,11.21,1.28,14.48,0.6c0.99-0.2,2.1-0.57,2.32-2.35c0.23-1.77,0.81-3.5-1.31-3.76c-0.02,0.21-0.07,0.86-0.23,2.91
					C88.65,130.63,79.3,127.28,79.3,127.28z"/>
				<path class="st26" d="M90.58,132.81c-3.59,0-7.85-0.38-9.97-0.93c-3.22-0.83-4.27-2.12-3.87-4.77c0.38-2.51,0.99-2.49,2.45-2.45
					l0.33,0.01c0.04,0,0.07,0.02,0.1,0.05c0.02,0.03,0.04,0.07,0.03,0.1l-0.22,2.37c1.02,0.35,9.61,3.19,16.33,1.86l0.22-2.81
					c0-0.04,0.02-0.07,0.05-0.09c0.03-0.02,0.06-0.03,0.1-0.03c0.64,0.08,1.09,0.29,1.36,0.65c0.47,0.62,0.33,1.58,0.17,2.59
					c-0.03,0.22-0.07,0.45-0.1,0.67c-0.22,1.78-1.3,2.24-2.43,2.47C94.05,132.71,92.4,132.81,90.58,132.81z M78.73,124.92
					c-1.05,0-1.42,0.23-1.72,2.23c-0.38,2.51,0.58,3.67,3.67,4.47c3.18,0.82,11.18,1.27,14.42,0.6c0.96-0.2,2-0.55,2.22-2.24
					c0.03-0.23,0.06-0.46,0.1-0.68c0.15-0.95,0.28-1.85-0.12-2.39c-0.21-0.27-0.54-0.44-1.03-0.52l-0.22,2.77
					c0,0.06-0.05,0.11-0.11,0.12c-7.2,1.47-16.58-1.85-16.68-1.88c-0.06-0.02-0.09-0.08-0.09-0.14l0.21-2.34l-0.19,0
					C79.02,124.92,78.87,124.92,78.73,124.92z"/>
			</g>
			<g>
				<path class="st25" d="M118.94,127.88c0-2.68,0-3.28,0-3.42c-0.01,0-0.01,0-0.02,0c-0.33-8.83-0.87-18.45-3.59-23.96
					c0,0-14.83-2.14-32.05,0.49c0,0-3.53,8.84-3.76,23.81l-0.23,2.48c0,0,9.35,3.36,16.61,1.88c0.16-2.06,0.22-2.71,0.23-2.91
					c0,0-0.01,0-0.01,0c0.38-4.82,0.58-6.57,2.51-8.26c1.09-0.19,1.09-0.19,1.09-0.19s2.06,0.32,2.61,8.46l0.22,2.92
					C102.54,129.16,111.67,130.47,118.94,127.88z"/>
				<path class="st26" d="M91.87,129.66c-6.24,0-12.54-2.23-12.62-2.26c-0.06-0.02-0.09-0.08-0.09-0.14l0.23-2.48
					c0.23-14.81,3.74-23.76,3.77-23.84c0.02-0.04,0.06-0.08,0.11-0.08c17.03-2.6,31.94-0.51,32.09-0.49
					c0.04,0.01,0.08,0.03,0.1,0.07c2.69,5.45,3.25,14.81,3.6,23.95c0.01,0.02,0.02,0.04,0.02,0.06v3.42c0,0.06-0.04,0.11-0.09,0.13
					c-7.21,2.58-16.37,1.3-16.47,1.29c-0.06-0.01-0.11-0.06-0.12-0.12l-0.22-2.92c-0.5-7.45-2.28-8.26-2.48-8.33l-1.02,0.18
					c-1.83,1.62-2.05,3.25-2.43,8.09c0.01,0.02,0.01,0.04,0.01,0.06l-0.23,2.91c0,0.06-0.05,0.11-0.11,0.12
					C94.62,129.55,93.25,129.66,91.87,129.66z M79.44,127.18c1.02,0.35,9.61,3.19,16.33,1.86l0.22-2.76
					c-0.01-0.02-0.01-0.03-0.01-0.05c0.39-4.99,0.61-6.65,2.55-8.35c0.02-0.02,0.04-0.03,0.07-0.03l1.09-0.19c0.01,0,0.03,0,0.04,0
					c0.09,0.01,2.17,0.43,2.72,8.58l0.21,2.81c1.04,0.13,9.43,1.11,16.14-1.26v-3.26c-0.01-0.02-0.02-0.04-0.02-0.06
					c-0.34-9.09-0.9-18.42-3.54-23.84c-1.13-0.15-15.5-2-31.86,0.49c-0.33,0.88-3.51,9.63-3.73,23.69L79.44,127.18z M118.94,127.88
					L118.94,127.88L118.94,127.88z"/>
			</g>
			<g>
				<path class="st25" d="M121.23,127.01c-0.34-2.44-0.97-2.65-2.3-2.55c0,0.14,0,0.74,0,3.42c-7.26,2.6-16.4,1.28-16.4,1.28
					l-0.22-2.92c-1.54,0.41-1.54,1.07-1.37,2.39c0.17,1.32,0.23,3.11,2.08,3.41c1.86,0.3,8.56,1.2,14.37-0.54
					C121.35,130.24,121.57,129.46,121.23,127.01z"/>
				<path class="st26" d="M109.4,132.67c-2.92,0-5.35-0.33-6.39-0.5c-1.81-0.29-2.01-1.91-2.16-3.21l-0.04-0.32
					c-0.17-1.32-0.19-2.09,1.47-2.54c0.04-0.01,0.08,0,0.11,0.02c0.03,0.02,0.05,0.06,0.06,0.1l0.21,2.81
					c1.04,0.13,9.43,1.11,16.14-1.26v-3.32c0-0.07,0.05-0.13,0.13-0.13c1.4-0.1,2.09,0.13,2.44,2.67c0.36,2.59,0.02,3.38-3.92,4.64
					C114.78,132.43,111.91,132.67,109.4,132.67z M102.19,126.41c-1.28,0.39-1.27,0.97-1.11,2.19l0.04,0.32
					c0.15,1.27,0.32,2.72,1.93,2.98c1.91,0.31,8.58,1.18,14.31-0.53c3.96-1.26,4.05-2.05,3.74-4.34c-0.32-2.36-0.92-2.51-2.03-2.45
					v3.29c0,0.06-0.04,0.11-0.09,0.13c-7.21,2.58-16.37,1.3-16.47,1.29c-0.06-0.01-0.11-0.06-0.12-0.12L102.19,126.41z"/>
			</g>
			<g class="st27">
				<path class="st25" d="M118.92,124.46c-0.33-8.83-0.87-18.45-3.59-23.96c0,0-14.83-2.14-32.05,0.49c0,0-3.53,8.84-3.76,23.81
					l-0.23,2.48c0,0,9.35,3.36,16.61,1.88c0.16-2.06,0.22-2.71,0.23-2.91c0,0-0.01,0-0.01,0c0.38-4.82,0.58-6.57,2.51-8.26
					c1.09-0.19,1.09-0.19,1.09-0.19s2.06,0.32,2.61,8.46l0.22,2.92c0,0,9.14,1.32,16.4-1.28c0-2.68,0-3.28,0-3.42
					C118.93,124.46,118.92,124.46,118.92,124.46z M103.86,126.21c-0.6-5.99-1.68-7.67-0.36-8.03c1.32-0.36,4.79-0.96,6.83-5.39
					c-4.31,2.28-12.34,5.99-22.16,1.32c2.16,3.47,5.99,2.76,5.39,6.35c-0.6,3.59-0.6,6.95-0.6,6.95s-5.99,0.6-11.38-1.56
					c-0.6-6.83-0.12-12.7,0.48-15.57c0.6-2.88,1.44-1.32,3.23-0.12c1.8,1.2-4.07-7.79,0.6-4.79c0,0,8.27,5.99,25.88,0.6
					c2.88-0.96,0.12,2.04-2.4,4.07c-1.56,1.32,0,1.44,2.76-0.24c2.76-1.68,3,3,4.19,15.81
					C109.97,128.49,103.86,126.21,103.86,126.21z"/>
			</g>
		</g>
		<path class="st26" d="M108.96,113.74c-2.09,1.55-4.43,2.68-6.98,3.23c-2.55,0.55-5.23,0.54-7.78-0.03
			c-1.45-0.32-2.85-0.84-4.17-1.5c-0.09-0.04-0.24,0.2-0.15,0.25c4.52,2.78,10.48,2.85,15.28,0.75c1.38-0.6,2.68-1.39,3.81-2.39
			C109.04,113.97,109.14,113.6,108.96,113.74z"/>
		<g>
			<path class="st28" d="M118.92,124.46c-0.33-8.83-0.87-18.45-3.59-23.96c0,0-14.83-2.14-32.05,0.49c0,0-0.27,0.68-0.67,1.99
				c4.76,2.09,16.61,6.09,30.23,1.67c3.23-1.44,3.11,0.6,1.2,2.64c-1.92,2.04,2.04-0.48,2.88,3.35c0.84,3.83,0.72,12.94,0.96,15.93
				c-2.97,1.21-6.04,2.52-15.39,1.99l0.04,0.6c0,0,9.14,1.32,16.4-1.28c0-2.68,0-3.28,0-3.42
				C118.93,124.46,118.92,124.46,118.92,124.46z"/>
		</g>
		<path class="st25" d="M107.87,112.67c-3.15,1.14-6.17,2.57-9.58,2.75c-2.92,0.16-6.04-0.48-8.31-2.44
			c-0.1-0.09-0.34,0.26-0.23,0.37c4.94,4.77,12.62,2.92,17.99-0.06C107.9,113.21,108.19,112.56,107.87,112.67z"/>
		<path class="st25" d="M82.8,122c-0.06-0.84-0.12-1.68-0.19-2.52c-0.12-1.68-0.23-3.37-0.35-5.05c-0.02-0.24-0.37,0.17-0.37,0.33
			c0.05,1.74,0.13,3.47,0.18,5.21c0.03,0.87,0.05,1.74,0.08,2.61c0.01,0.4,0.03,0.8,0.04,1.21c0.01,0.4-0.03,0.83,0.13,1.21
			c0.14,0.34,0.57-0.42,0.58-0.53C83.05,123.68,82.86,122.8,82.8,122z"/>
		<path class="st25" d="M104.78,122.2c-0.06-0.56-0.14-1.12-0.21-1.69c-0.07-0.53-0.1-1.1-0.27-1.61c-0.07-0.19-0.34,0.24-0.35,0.32
			c-0.05,0.58,0.01,1.16,0.05,1.74c0.04,0.59,0.07,1.18,0.12,1.77c0.09,1.14,0.11,2.31,0.35,3.43c0.09,0.41,0.6-0.26,0.6-0.46
			C105.08,124.53,104.91,123.36,104.78,122.2z"/>
		<g class="st27">
			<path class="st25" d="M96.13,126.24c-0.02,0.21-0.07,0.86-0.23,2.91c-7.25,1.48-16.61-1.88-16.61-1.88l0.23-2.48
				c-1.4-0.03-2.04-0.17-2.43,1.27c0.4-0.28,0.76-0.22,0.97,0.64c0.61,2.53,2.62,2.83,9.92,3.54c4.08,0.4,5.91-0.57,5.77,2.3
				c0.52-0.05,0.99-0.11,1.38-0.2c0.99-0.2,2.1-0.57,2.32-2.35C97.67,128.23,98.26,126.5,96.13,126.24z"/>
		</g>
		<g class="st27">
			<path class="st25" d="M121.23,127.01c-0.34-2.44-0.97-2.65-2.3-2.55c0,0.14,0,0.74,0,3.42c-7.26,2.6-16.4,1.28-16.4,1.28
				l-0.22-2.92c-1.42,0.38-1.53,0.97-1.4,2.09c0.27-0.2,0.58-0.04,0.91,0.92c0.48,1.53,6.02,1.72,14.83,0.55
				c2.03-0.37,2.42,0.15,2.52,1.06C121.41,129.91,121.51,129.03,121.23,127.01z"/>
		</g>
		<path class="st29" d="M89.57,131.49c-4.08-0.23-8.33-0.07-11.84-2.53c-0.09-0.06-0.27,0.21-0.18,0.29
			c3.33,2.59,7.84,2.81,11.88,2.55C89.54,131.79,89.71,131.5,89.57,131.49z"/>
		<path class="st29" d="M113.79,131.38c-4.09,0.18-8.3,0.77-12.04-1.33c-0.1-0.06-0.25,0.24-0.15,0.3
			c3.57,2.24,8.08,2.01,12.08,1.35C113.78,131.68,113.92,131.37,113.79,131.38z"/>
	</g>
	<g>
		<g>
			<path class="st0" d="M113.05,75.79c0,0,2.11,6.25,3.18,9.31c1.08,3.06,1.61,5.02,2.41,8.54c1.44,6.32,2.75,9.44,3.48,11.42
				c0.74,1.98,1.36,3.12,0.4,4.42c-0.96,1.3-0.91,2.61-1.08,4.65c-0.18,2.17-0.42,2.95-0.84,3.83c-0.42,0.88-0.55,1.41,0.62,1.48
				c1.17,0.07,1.77-1.37,2.03-2.38c0.26-1.02,0.84-2.04,0.84-2.04s1.27,2.06,1.06,4.69c-0.21,2.64-0.69,4.73-0.06,5.3
				c0.63,0.57,1.39-1.28,1.68-1.76c0.28,0.77,1.3,0.29,2.31-1.75c0.32,0.81,1.25-0.36,1.64-2.06c0.39-1.71,1.35-6.17-0.87-9.82
				c-2.22-3.65-1.57-4.02-3.47-11.92c-1.26-5.21-2.58-8.63-3.65-13.06c-1.08-4.43-2.22-10.06-2.22-10.06L113.05,75.79z"/>
			<path class="st1" d="M125.35,125.25c-0.12,0-0.24-0.05-0.34-0.14c-0.52-0.47-0.38-1.73-0.18-3.49c0.07-0.58,0.14-1.24,0.19-1.93
				c0.16-2.08-0.62-3.81-0.92-4.4c-0.18,0.35-0.53,1.08-0.72,1.79c-0.25,0.96-0.85,2.56-2.17,2.49c-0.52-0.03-0.83-0.15-0.97-0.38
				c-0.19-0.33,0-0.79,0.24-1.29c0.42-0.89,0.66-1.69,0.83-3.78c0.02-0.29,0.04-0.57,0.06-0.84c0.11-1.59,0.19-2.73,1.04-3.88
				c0.81-1.1,0.44-2.06-0.17-3.65c-0.08-0.21-0.16-0.42-0.25-0.65c-0.08-0.22-0.17-0.46-0.27-0.72c-0.77-2.03-1.94-5.11-3.22-10.72
				c-0.84-3.7-1.38-5.61-2.41-8.53c-1.07-3.03-3.16-9.25-3.18-9.31c-0.01-0.04-0.01-0.08,0.01-0.11c0.02-0.03,0.06-0.06,0.09-0.06
				l7.47-1.21c0.07-0.01,0.14,0.04,0.15,0.11c0.01,0.06,1.15,5.68,2.22,10.06c0.51,2.11,1.07,3.96,1.67,5.93
				c0.65,2.16,1.33,4.39,1.99,7.13c0.62,2.57,0.98,4.38,1.24,5.7c0.55,2.8,0.74,3.74,2.22,6.19c2.29,3.77,1.23,8.4,0.88,9.92
				c-0.3,1.32-0.94,2.39-1.45,2.43c-0.08,0.01-0.2-0.01-0.31-0.12c-0.66,1.26-1.39,1.98-1.93,1.95c-0.16-0.01-0.29-0.08-0.39-0.2
				c-0.03,0.05-0.06,0.1-0.09,0.16c-0.4,0.77-0.8,1.47-1.26,1.55C125.41,125.25,125.38,125.25,125.35,125.25z M124.1,114.88
				c0.05,0,0.09,0.02,0.12,0.06c0.05,0.09,1.29,2.13,1.08,4.77c-0.05,0.69-0.13,1.35-0.19,1.94c-0.18,1.61-0.32,2.88,0.09,3.25
				c0.09,0.08,0.16,0.08,0.2,0.07c0.36-0.07,0.82-0.94,1.06-1.41c0.08-0.16,0.16-0.3,0.21-0.39c0.03-0.04,0.08-0.07,0.13-0.06
				c0.05,0.01,0.1,0.04,0.11,0.09c0.09,0.24,0.23,0.25,0.28,0.25c0.01,0,0.01,0,0.02,0c0.38,0,1.07-0.62,1.77-2.02
				c0.02-0.05,0.07-0.07,0.13-0.08c0.05,0,0.1,0.04,0.12,0.09c0.07,0.19,0.15,0.18,0.18,0.18c0.3-0.02,0.9-0.88,1.2-2.22
				c0.34-1.49,1.38-6.04-0.85-9.72c-1.51-2.49-1.7-3.44-2.26-6.27c-0.26-1.32-0.62-3.12-1.24-5.68c-0.66-2.73-1.33-4.96-1.98-7.11
				c-0.6-1.97-1.16-3.83-1.67-5.95c-0.98-4.02-2.02-9.08-2.19-9.94l-7.18,1.16c0.33,0.97,2.16,6.4,3.13,9.16
				c1.03,2.92,1.57,4.84,2.42,8.55c1.28,5.59,2.44,8.66,3.21,10.68c0.1,0.26,0.19,0.5,0.27,0.72c0.08,0.23,0.17,0.44,0.25,0.65
				c0.62,1.62,1.03,2.69,0.13,3.9c-0.8,1.08-0.88,2.2-0.99,3.74c-0.02,0.27-0.04,0.55-0.06,0.84c-0.18,2.14-0.42,2.95-0.85,3.88
				c-0.24,0.5-0.36,0.84-0.25,1.03c0.08,0.14,0.34,0.23,0.75,0.25c0.02,0,0.05,0,0.07,0c1.07,0,1.6-1.42,1.82-2.29
				c0.27-1.02,0.83-2.03,0.86-2.07C124.01,114.91,124.05,114.88,124.1,114.88C124.1,114.88,124.1,114.88,124.1,114.88z"/>
		</g>
		<g>
			<path class="st1" d="M126.73,115.77c-0.01-0.05-0.08,0.04-0.08,0.07c0.24,1.37,0.35,2.78,0.31,4.17c-0.02,0.67-0.06,1.34-0.17,2
				c-0.12,0.7-0.33,1.37-0.48,2.07c-0.03,0.15,0.12,0.06,0.15-0.02c0.23-0.6,0.34-1.26,0.45-1.9c0.13-0.73,0.22-1.47,0.26-2.21
				C127.24,118.53,127.1,117.14,126.73,115.77z"/>
			<path class="st1" d="M128.33,115.58c-0.01-0.08-0.12,0.06-0.12,0.11c0.18,2.6-0.25,5.28-1.51,7.59c-0.11,0.2,0.05,0.3,0.16,0.1
				c0.64-1.19,1.12-2.46,1.39-3.79c0.14-0.66,0.22-1.35,0.24-2.02C128.51,116.89,128.44,116.25,128.33,115.58z"/>
			<path class="st1" d="M129.85,114.59c-0.01-0.06-0.09,0.04-0.09,0.08c0.07,1.28,0.04,2.6-0.12,3.87
				c-0.08,0.64-0.19,1.27-0.35,1.89c-0.14,0.57-0.42,1.14-0.5,1.72c-0.02,0.13,0.13,0.03,0.16-0.02c0.29-0.53,0.41-1.18,0.55-1.77
				c0.15-0.63,0.27-1.26,0.35-1.9C130.02,117.17,130.04,115.88,129.85,114.59z"/>
		</g>
		<g>
			<path class="st4" d="M121.72,117.39c0.52-1.73,0.6-3.18,1.25-5.91c0.64-2.74,2.28-3.32,4.64-4.11c-3.49,0.24-4.62-5.05-5.65-10.8
				c-1.04-5.75,0-4.99-1.79-9.33c-2.54-7.73-3.39-9.14-0.85-9.71c0.68-0.15,1.25-0.32,1.72-0.49c-0.31-1.48-0.51-2.47-0.51-2.47
				l-7.47,1.21c0,0,2.11,6.25,3.18,9.31c1.08,3.06,1.61,5.02,2.41,8.54c1.44,6.32,2.75,9.44,3.48,11.42
				c0.74,1.98,1.36,3.12,0.4,4.42c-0.96,1.3-0.91,2.61-1.08,4.65c-0.18,2.17-0.42,2.95-0.84,3.83c-0.33,0.69-0.47,1.16,0.03,1.37
				C120.69,118.92,121.36,118.59,121.72,117.39z"/>
			<path class="st4" d="M125.67,121.72c0.25-1.6,0.51-2.07-0.03-4.13c-0.54-2.07-1.25-3.8-1.42-3.25c-0.06,0.18-0.11,0.45-0.15,0.73
				c0.02-0.03,0.03-0.05,0.03-0.05s1.27,2.06,1.06,4.69c-0.21,2.64-0.69,4.73-0.06,5.3c0.18,0.17,0.38,0.12,0.57-0.03
				C125.29,124.67,125.45,123.11,125.67,121.72z"/>
			<path class="st4" d="M130.67,117.61c-0.09-1.38-0.54-3.29-0.75-3.32c-0.21-0.03-0.09,0.42,0.03,2.19
				c0.12,1.77-0.39,3.89-0.93,3.74c-0.54-0.15-0.06-1.83-0.21-3.77c-0.15-1.95-0.54-1.71-0.48-0.48c0.06,1.53-0.09,4.16-0.42,4.13
				c-0.33-0.03-0.42-1.71-0.66-3.38c-0.24-1.68-0.75-1.68-0.61-0.87c0.14,0.8,0.4,2.22,0.49,2.88c0.07,0.48-0.23,3.15-0.4,4.61
				c0.02-0.03,0.03-0.05,0.04-0.08c0.28,0.77,1.3,0.29,2.31-1.75c0.32,0.81,1.25-0.36,1.64-2.06c0.06-0.26,0.13-0.6,0.21-0.98
				C130.8,118.38,130.7,118.1,130.67,117.61z"/>
		</g>
		<path class="st30" d="M124.07,90.71c0,0,1.96,5.19,3.69,14.48C126.51,101.29,124.75,92.46,124.07,90.71z"/>
		<path class="st30" d="M128.86,108.33c0,0,2.3,3.79,2.14,7.93C131.38,113.04,130.7,111.09,128.86,108.33z"/>
		<path class="st30" d="M126.48,115.81c0,0,0.37,2.35,0.26,4.83c-0.11,2.47-0.63,3.62-0.63,3.62S127.66,120.87,126.48,115.81z"/>
	</g>
	<g>
		<g>
			<path class="st0" d="M86.68,75.79c0,0-2.11,6.25-3.18,9.31c-1.08,3.06-1.61,5.02-2.41,8.54c-1.44,6.32-2.75,9.44-3.48,11.42
				c-0.74,1.98-1.36,3.12-0.4,4.42c0.96,1.3,0.91,2.61,1.08,4.65c0.18,2.17,0.42,2.95,0.84,3.83c0.42,0.88,0.55,1.41-0.62,1.48
				c-1.17,0.07-1.77-1.37-2.03-2.38c-0.26-1.02-0.84-2.04-0.84-2.04s-1.27,2.06-1.06,4.69c0.21,2.64,0.69,4.73,0.06,5.3
				c-0.63,0.57-1.39-1.28-1.68-1.76c-0.28,0.77-1.3,0.29-2.31-1.75c-0.32,0.81-1.25-0.36-1.64-2.06c-0.39-1.71-1.35-6.17,0.87-9.82
				c2.22-3.65,1.57-4.02,3.47-11.92c1.26-5.21,2.58-8.63,3.65-13.06c1.08-4.43,2.22-10.06,2.22-10.06L86.68,75.79z"/>
			<path class="st1" d="M74.37,125.25c-0.03,0-0.06,0-0.09-0.01c-0.46-0.08-0.85-0.78-1.26-1.55c-0.03-0.06-0.06-0.11-0.09-0.16
				c-0.1,0.12-0.23,0.19-0.39,0.2c-0.57,0.02-1.27-0.69-1.93-1.95c-0.11,0.11-0.23,0.13-0.31,0.12c-0.51-0.04-1.15-1.11-1.45-2.43
				c-0.35-1.52-1.4-6.15,0.88-9.92c1.48-2.44,1.67-3.39,2.22-6.19c0.26-1.32,0.62-3.12,1.24-5.69c0.66-2.74,1.33-4.97,1.99-7.13
				c0.59-1.97,1.16-3.83,1.67-5.93c1.07-4.38,2.2-10,2.21-10.06c0.01-0.07,0.08-0.12,0.15-0.11l7.47,1.21
				c0.04,0.01,0.07,0.03,0.09,0.06c0.02,0.03,0.03,0.08,0.01,0.11c-0.02,0.06-2.12,6.28-3.18,9.31c-1.02,2.91-1.57,4.82-2.41,8.53
				c-1.28,5.61-2.45,8.69-3.22,10.72c-0.1,0.26-0.19,0.49-0.27,0.72c-0.08,0.23-0.17,0.44-0.25,0.65c-0.61,1.59-0.98,2.55-0.17,3.65
				c0.85,1.15,0.93,2.29,1.04,3.88c0.02,0.27,0.04,0.54,0.06,0.84c0.17,2.1,0.41,2.89,0.83,3.78c0.23,0.49,0.43,0.96,0.24,1.29
				c-0.14,0.23-0.45,0.36-0.97,0.38c-0.03,0-0.06,0-0.09,0c-1.24,0-1.84-1.55-2.08-2.49c-0.19-0.71-0.53-1.44-0.72-1.79
				c-0.3,0.59-1.09,2.32-0.92,4.4c0.05,0.68,0.13,1.35,0.19,1.93c0.2,1.75,0.34,3.02-0.18,3.48
				C74.61,125.21,74.5,125.25,74.37,125.25z M72.95,123.12c0.05,0,0.09,0.02,0.12,0.06c0.06,0.09,0.13,0.23,0.21,0.39
				c0.24,0.47,0.7,1.35,1.06,1.41c0.04,0.01,0.11,0.01,0.2-0.07c0.41-0.37,0.27-1.64,0.09-3.25c-0.07-0.58-0.14-1.25-0.19-1.94
				c-0.21-2.65,1.02-4.69,1.08-4.77c0.03-0.04,0.07-0.06,0.12-0.06c0.05,0,0.09,0.03,0.12,0.07c0.02,0.04,0.59,1.05,0.86,2.07
				c0.22,0.86,0.76,2.29,1.82,2.29c0.02,0,0.05,0,0.07,0c0.41-0.02,0.67-0.11,0.75-0.25c0.11-0.19-0.01-0.54-0.25-1.03
				c-0.44-0.92-0.68-1.74-0.85-3.88c-0.02-0.3-0.04-0.58-0.06-0.84c-0.11-1.54-0.19-2.66-0.99-3.74c-0.9-1.22-0.49-2.29,0.13-3.91
				c0.08-0.2,0.16-0.42,0.24-0.64c0.08-0.22,0.17-0.46,0.27-0.72c0.77-2.03,1.93-5.09,3.21-10.68c0.85-3.71,1.39-5.63,2.42-8.55
				c0.97-2.76,2.8-8.18,3.13-9.16l-7.18-1.16c-0.18,0.86-1.21,5.92-2.19,9.94c-0.51,2.11-1.08,3.98-1.67,5.95
				c-0.65,2.15-1.32,4.38-1.98,7.11c-0.62,2.57-0.97,4.37-1.23,5.68c-0.56,2.83-0.75,3.79-2.26,6.28c-2.23,3.68-1.19,8.23-0.85,9.72
				c0.31,1.34,0.91,2.2,1.2,2.22c0.02,0,0.1,0.01,0.18-0.18c0.02-0.05,0.07-0.08,0.12-0.09c0.05,0,0.1,0.03,0.13,0.08
				c0.71,1.42,1.4,2.05,1.79,2.02c0.05,0,0.19-0.01,0.28-0.25c0.02-0.05,0.06-0.08,0.11-0.09
				C72.94,123.12,72.94,123.12,72.95,123.12z"/>
		</g>
		<g>
			<path class="st1" d="M73,115.77c0.01-0.05,0.08,0.04,0.08,0.07c-0.24,1.37-0.35,2.78-0.31,4.17c0.02,0.67,0.06,1.34,0.17,2
				c0.12,0.7,0.33,1.37,0.48,2.07c0.03,0.15-0.12,0.06-0.15-0.02c-0.23-0.6-0.34-1.26-0.45-1.9c-0.13-0.73-0.22-1.47-0.26-2.21
				C72.49,118.53,72.63,117.14,73,115.77z"/>
			<path class="st1" d="M71.4,115.58c0.01-0.08,0.12,0.06,0.12,0.11c-0.18,2.6,0.25,5.28,1.51,7.59c0.11,0.2-0.05,0.3-0.16,0.1
				c-0.64-1.19-1.12-2.46-1.39-3.79c-0.14-0.66-0.22-1.35-0.24-2.02C71.21,116.89,71.28,116.25,71.4,115.58z"/>
			<path class="st1" d="M69.87,114.59c0.01-0.06,0.09,0.04,0.09,0.08c-0.07,1.28-0.04,2.6,0.12,3.87c0.08,0.64,0.19,1.27,0.35,1.89
				c0.14,0.57,0.42,1.14,0.5,1.72c0.02,0.13-0.13,0.03-0.16-0.02c-0.29-0.53-0.41-1.18-0.55-1.77c-0.15-0.63-0.27-1.26-0.35-1.9
				C69.7,117.17,69.69,115.88,69.87,114.59z"/>
		</g>
		<g>
			<path class="st4" d="M78.01,117.39c-0.52-1.73-0.6-3.18-1.25-5.91c-0.64-2.74-2.28-3.32-4.64-4.11c3.49,0.24,4.62-5.05,5.65-10.8
				c1.04-5.75,0-4.99,1.79-9.33c2.54-7.73,3.39-9.14,0.85-9.71c-0.68-0.15-1.25-0.32-1.72-0.49c0.31-1.48,0.51-2.47,0.51-2.47
				l7.47,1.21c0,0-2.11,6.25-3.18,9.31c-1.08,3.06-1.61,5.02-2.41,8.54c-1.44,6.32-2.75,9.44-3.48,11.42
				c-0.74,1.98-1.36,3.12-0.4,4.42c0.96,1.3,0.91,2.61,1.08,4.65c0.18,2.17,0.42,2.95,0.84,3.83c0.33,0.69,0.47,1.16-0.03,1.37
				C79.04,118.92,78.37,118.59,78.01,117.39z"/>
			<path class="st4" d="M74.06,121.72c-0.25-1.6-0.51-2.07,0.03-4.13c0.54-2.07,1.25-3.8,1.42-3.25c0.06,0.18,0.11,0.45,0.15,0.73
				c-0.02-0.03-0.03-0.05-0.03-0.05s-1.27,2.06-1.06,4.69c0.21,2.64,0.69,4.73,0.06,5.3c-0.18,0.17-0.38,0.12-0.57-0.03
				C74.43,124.67,74.28,123.11,74.06,121.72z"/>
			<path class="st4" d="M69.06,117.61c0.09-1.38,0.54-3.29,0.75-3.32c0.21-0.03,0.09,0.42-0.03,2.19c-0.12,1.77,0.39,3.89,0.93,3.74
				c0.54-0.15,0.06-1.83,0.21-3.77c0.15-1.95,0.54-1.71,0.48-0.48c-0.06,1.53,0.09,4.16,0.42,4.13c0.33-0.03,0.42-1.71,0.66-3.38
				c0.24-1.68,0.75-1.68,0.61-0.87c-0.14,0.8-0.4,2.22-0.49,2.88c-0.07,0.48,0.23,3.15,0.4,4.61c-0.02-0.03-0.03-0.05-0.04-0.08
				c-0.28,0.77-1.3,0.29-2.31-1.75c-0.32,0.81-1.25-0.36-1.64-2.06c-0.06-0.26-0.13-0.6-0.21-0.98
				C68.92,118.38,69.02,118.1,69.06,117.61z"/>
		</g>
		<path class="st30" d="M75.65,90.71c0,0-1.96,5.19-3.69,14.48C73.22,101.29,74.98,92.46,75.65,90.71z"/>
		<path class="st30" d="M70.87,108.33c0,0-2.3,3.79-2.14,7.93C68.34,113.04,69.03,111.09,70.87,108.33z"/>
		<path class="st30" d="M73.24,115.81c0,0-0.37,2.35-0.26,4.83c0.11,2.47,0.63,3.62,0.63,3.62S72.07,120.87,73.24,115.81z"/>
	</g>
	<g>
		<g>
			<path class="st0" d="M111.7,66.01c0.23-3.52,0.18-5.88,0.18-5.88c-1.65-2.39-6.16-3.36-6.95-3.9c-0.79-0.54-0.62-4.89-0.62-4.89
				l-10.1,0.32c0,0,0.38,3.9-0.42,4.44c-0.79,0.54-5.65,1.64-7.3,4.03c0,0-0.04,2.36,0.18,5.88H111.7z"/>
			<path class="st1" d="M111.7,66.14H86.68c-0.07,0-0.13-0.06-0.13-0.13c-0.22-3.48-0.18-5.87-0.18-5.89c0-0.03,0.01-0.05,0.02-0.07
				c1.23-1.78,4.2-2.86,5.97-3.51c0.65-0.24,1.16-0.42,1.36-0.56c0.53-0.36,0.5-2.83,0.36-4.31c0-0.04,0.01-0.07,0.03-0.1
				c0.02-0.03,0.06-0.04,0.1-0.05l10.1-0.32c0.04,0,0.07,0.01,0.1,0.04c0.03,0.03,0.04,0.06,0.04,0.1
				c-0.07,1.65,0.03,4.41,0.56,4.77c0.2,0.14,0.69,0.31,1.3,0.54c1.67,0.61,4.45,1.62,5.68,3.4c0.02,0.02,0.02,0.05,0.02,0.07
				c0,0.02,0.04,2.41-0.18,5.89C111.83,66.09,111.78,66.14,111.7,66.14z M86.81,65.87h24.77c0.2-3.16,0.18-5.38,0.18-5.7
				c-1.19-1.69-3.9-2.67-5.53-3.26c-0.66-0.24-1.13-0.41-1.36-0.57c-0.77-0.52-0.71-4.01-0.69-4.86l-9.81,0.31
				c0.07,0.79,0.29,3.9-0.49,4.42c-0.23,0.15-0.73,0.34-1.42,0.59c-1.73,0.63-4.62,1.69-5.82,3.38
				C86.63,60.5,86.61,62.72,86.81,65.87z"/>
		</g>
		<g>
			<path class="st0" d="M111.7,66.01c0.23-3.52,0.18-5.88,0.18-5.88c-1.65-2.39-6.16-3.36-6.95-3.9c-0.79-0.54-0.62-4.89-0.62-4.89
				l-10.1,0.32c0,0,0.38,3.9-0.42,4.44c-0.79,0.54-5.65,1.64-7.3,4.03c0,0-0.04,2.36,0.18,5.88H111.7z"/>
			<path class="st1" d="M111.7,66.14H86.68c-0.07,0-0.13-0.06-0.13-0.13c-0.22-3.48-0.18-5.87-0.18-5.89c0-0.03,0.01-0.05,0.02-0.07
				c1.23-1.78,4.2-2.86,5.97-3.51c0.65-0.24,1.16-0.42,1.36-0.56c0.53-0.36,0.5-2.83,0.36-4.31c0-0.04,0.01-0.07,0.03-0.1
				c0.02-0.03,0.06-0.04,0.1-0.05l10.1-0.32c0.04,0,0.07,0.01,0.1,0.04c0.03,0.03,0.04,0.06,0.04,0.1
				c-0.07,1.65,0.03,4.41,0.56,4.77c0.2,0.14,0.69,0.31,1.3,0.54c1.67,0.61,4.45,1.62,5.68,3.4c0.02,0.02,0.02,0.05,0.02,0.07
				c0,0.02,0.04,2.41-0.18,5.89C111.83,66.09,111.78,66.14,111.7,66.14z M86.81,65.87h24.77c0.2-3.16,0.18-5.38,0.18-5.7
				c-1.19-1.69-3.9-2.67-5.53-3.26c-0.66-0.24-1.13-0.41-1.36-0.57c-0.77-0.52-0.71-4.01-0.69-4.86l-9.81,0.31
				c0.07,0.79,0.29,3.9-0.49,4.42c-0.23,0.15-0.73,0.34-1.42,0.59c-1.73,0.63-4.62,1.69-5.82,3.38
				C86.63,60.5,86.61,62.72,86.81,65.87z"/>
		</g>
		<g>
			<path class="st0" d="M104.43,54.78c-0.19-1.45-0.12-3.44-0.12-3.44l-10.1,0.32c0,0,0.24,2.5-0.07,3.77
				C95.96,55.99,99.99,56.8,104.43,54.78z"/>
			<path class="st0" d="M111.89,60.13c-1.6-2.31-5.85-3.29-6.85-3.84c-1.07,1.25-2.8,2.76-6.03,2.72c-2.92-0.04-4.82-1.68-5.71-2.67
				c-1.5,0.61-5.37,1.71-6.81,3.8c0,0-0.04,2.36,0.18,5.88h25.03C111.93,62.49,111.89,60.13,111.89,60.13z"/>
		</g>
		<g>
			<path class="st31" d="M114.23,76.71c3.58-0.12,7.75-1.67,7.75-1.67s-2.98-8.59-5.37-12.76c-2.38-4.17-10.49-6.44-10.49-6.44
				c-7.27,8.94-13.71,0.12-13.71,0.12s-5.01,1.79-8.7,4.17c-3.7,2.38-6.68,13.47-7.27,14.79c5.48,2.74,7.27,2.15,7.27,2.15
				s-1.28,19.67-1.52,24.46c16.05,7.43,30.91,1.44,34.02,0.24C114.53,83.8,114.23,76.71,114.23,76.71z"/>
			<path class="st32" d="M98.96,105.33c-6.96,0-12.66-1.74-16.83-3.67c-0.05-0.02-0.08-0.07-0.08-0.13
				c0.22-4.5,1.38-22.32,1.51-24.29c-0.59,0.08-2.62,0.09-7.19-2.19c-0.07-0.03-0.09-0.11-0.06-0.18c0.11-0.24,0.31-0.85,0.59-1.68
				c1.2-3.64,3.71-11.21,6.74-13.16c3.67-2.37,8.68-4.17,8.73-4.19c0.06-0.02,0.12,0,0.15,0.05c0.03,0.04,2.77,3.73,6.6,3.83
				c2.39,0.04,4.71-1.27,6.9-3.95c0.03-0.04,0.09-0.06,0.14-0.05c0.02,0.01,2.06,0.58,4.37,1.66c3.11,1.46,5.2,3.08,6.2,4.84
				c2.36,4.14,5.35,12.7,5.38,12.78c0.02,0.07-0.01,0.15-0.08,0.17c-0.04,0.02-4.13,1.52-7.66,1.67c0.05,1.07,0.44,8.48,1.97,24.92
				c0.01,0.06-0.03,0.12-0.09,0.14l-0.18,0.07C109.76,104.4,104.02,105.33,98.96,105.33z M82.32,101.45c7.17,3.3,18.81,6,33.65,0.27
				l0.09-0.03c-1.65-17.69-1.96-24.89-1.97-24.97c0-0.04,0.01-0.07,0.04-0.1c0.02-0.03,0.06-0.04,0.09-0.04
				c3.17-0.11,6.86-1.36,7.58-1.62c-0.38-1.08-3.12-8.77-5.31-12.61c-2.2-3.85-9.46-6.09-10.33-6.35c-2.22,2.71-4.59,4.06-7.06,3.98
				c-3.64-0.1-6.31-3.3-6.75-3.86c-0.7,0.26-5.22,1.95-8.58,4.13c-2.95,1.9-5.43,9.41-6.63,13.02c-0.24,0.73-0.43,1.28-0.55,1.59
				c5.25,2.6,7.04,2.09,7.06,2.08c0.04-0.01,0.09-0.01,0.12,0.02c0.04,0.03,0.05,0.07,0.05,0.12
				C83.83,77.27,82.57,96.56,82.32,101.45z"/>
		</g>
		<g class="st33">
			<path class="st31" d="M84.52,93.33c-0.3-7.11,1.78-13.92,4.3-14.07c-3.26-0.59-4.3-2.67-2.96-11.7c-2.22,2.07-3.26,4.89-4,7.26
				c0,0-1.48,0.59-4-0.89c1.19-5.78,2.23-10.24,5.85-13.79c-3.7,2.38-6.68,13.47-7.27,14.79c5.48,2.74,7.27,2.15,7.27,2.15
				s-1.28,19.67-1.52,24.46c16.05,7.43,30.91,1.44,34.02,0.24c-1.68-17.97-1.98-25.06-1.98-25.06c3.58-0.12,7.75-1.67,7.75-1.67
				s-2.98-8.59-5.37-12.76c-2.38-4.17-10.49-6.44-10.49-6.44c-7.27,8.94-13.71,0.12-13.71,0.12s-0.59,0.21-1.51,0.58
				c2.19,2.85,7.97,8.5,15.82,1.87c5.26,1,7.76,1,11.53,9.71c1.74,5.01,2.27,6.46,2.27,6.46s-2.69,1.2-5.27,0.99
				c0,0-0.82-7-3.54-9.56c1.13,10.68,0.29,12.73-12.83,13.69c5.06,0.84,11.18,0.51,11.8,3.49c2.25,10.84,2.66,13.31-2.13,15.47
				c3.83-0.24,4.63-0.38,5.13,1.37c0.5,1.75-6.85,4.43-20.88,2.76c-14.03-1.67-10.02-4.26-7.77-4.68
				C84.53,96.86,84.52,93.33,84.52,93.33z"/>
		</g>
		<g>
			<path class="st32" d="M84.18,71.46c-0.09,0.95-0.18,1.89-0.26,2.84c-0.04,0.47-0.08,0.94-0.12,1.41
				c-0.04,0.44-0.09,0.88-0.08,1.32c0.01,0.16,0.22-0.11,0.23-0.17c0.15-0.9,0.15-1.85,0.21-2.76c0.06-0.91,0.11-1.82,0.15-2.73
				C84.32,71.26,84.19,71.4,84.18,71.46z"/>
			<path class="st32" d="M113.81,73.11c-0.2-1.13-0.38-2.27-0.63-3.39c-0.02-0.1-0.15,0.07-0.14,0.13c0.14,1.16,0.35,2.31,0.54,3.47
				c0.19,1.13,0.3,2.31,0.6,3.41c0.04,0.14,0.2-0.1,0.19-0.18C114.28,75.4,114.01,74.24,113.81,73.11z"/>
		</g>
		<g class="st33">
			<path class="st34" d="M114.23,76.71c0.11,0,0.23-0.01,0.34-0.02c-0.18-0.95-0.43-2.12-0.76-3.59c-1.34-5.94-1.12-4.63-1.12-4.63
				s2.08,10.62-5.47,11.16c4.49,0.88,5.91,0.44,6.68,7.77c0.54,5.16,0.75,11.57,0.83,14.91c0.63-0.23,1.13-0.42,1.48-0.56
				C114.53,83.8,114.23,76.71,114.23,76.71z"/>
		</g>
		<path class="st35" d="M88.24,81.26c0,0-2.16,8.04-1.73,16.77c0,2.57,4.45,2.4,13.46,2.97c-9.58,1.29-17.59-1.01-13.96-2.08
			C85.44,94.86,84.9,86.5,88.24,81.26z"/>
		<path class="st35" d="M83.66,60.77c-0.77,0.81-1.43,1.79-1.97,2.77c-0.57,1.01-1.03,2.08-1.39,3.18
			c-0.37,1.11-0.63,2.25-0.79,3.41c-0.08,0.59-0.13,1.19-0.15,1.79c-0.02,0.54-0.08,1.19,0.07,1.71c0.09,0.3,0.41-0.2,0.42-0.32
			c0.06-0.56-0.01-1.14,0.01-1.71c0.02-0.56,0.06-1.12,0.12-1.67c0.13-1.08,0.36-2.15,0.68-3.19c0.32-1.04,0.74-2.05,1.24-3.02
			c0.52-1.02,1.15-1.94,1.79-2.88C83.73,60.8,83.72,60.71,83.66,60.77z"/>
	</g>
	<g>
		<g>
			<g>
				<path class="st0" d="M79.17,34.79c0,0-1.56-1.91-3.73,0.11c-2.16,2.02-1.8,5.33,0.36,6.77c2.46,1.64,5.12,0.58,4.54-1.8
					C79.77,37.49,79.17,34.79,79.17,34.79z"/>
				<path class="st1" d="M78.2,42.58c-0.79,0-1.66-0.27-2.47-0.81c-1.07-0.71-1.74-1.88-1.85-3.21c-0.11-1.4,0.42-2.76,1.47-3.74
					c0.73-0.68,1.47-1,2.22-0.95c1.03,0.07,1.65,0.82,1.68,0.85c0.01,0.01,0.02,0.03,0.02,0.05c0.01,0.03,0.6,2.73,1.17,5.08
					c0.23,0.97-0.04,1.81-0.75,2.3C79.3,42.44,78.77,42.58,78.2,42.58z M77.43,34.09c-0.63,0-1.27,0.3-1.91,0.89
					c-1,0.93-1.51,2.23-1.4,3.55c0.1,1.26,0.74,2.37,1.75,3.04c1.5,1,2.95,0.91,3.71,0.38c0.62-0.44,0.86-1.19,0.65-2.05
					c-0.54-2.22-1.1-4.75-1.17-5.05c-0.1-0.12-0.67-0.69-1.5-0.75C77.52,34.09,77.48,34.09,77.43,34.09z"/>
			</g>
			<path class="st4" d="M80.34,39.87c-0.58-2.38-1.17-5.08-1.17-5.08s-1.56-1.91-3.73,0.11c-0.97,0.91-1.43,2.08-1.45,3.22
				c0.56-0.62,1.4-1.14,2.26-1.02c1.02,0.14,1.38,1.17,1.45,2.07c0,0.21-0.36,0.42-0.38,0.13c0-0.1-0.25-0.19-0.33-0.2
				c-0.16-0.03-0.34,0.02-0.48,0.1c-0.34,0.2-0.35,0.56-0.08,0.83c0.17,0.17,0.39,0.32,0.64,0.29c0.16-0.02,0.31-0.08,0.47-0.08
				c0.43-0.01,0.79,0.42,0.89,0.81c0.11,0.45-0.03,0.96-0.28,1.41C79.66,42.47,80.73,41.47,80.34,39.87z"/>
			<path class="st36" d="M78.3,37.92c0.37,1.1,0.26,2.32-0.4,3.28c-0.04,0.06-0.06-0.02-0.04-0.06c0.32-0.64,0.43-1.26,0.4-1.89
				c-0.11,0.27-0.27,0.52-0.55,0.69c-0.48,0.29-1.19,0.36-1.66,0.01c-0.09-0.06,0-0.33,0.11-0.32c0.37,0.01,0.71,0.14,1.08,0.11
				c0.5-0.03,0.81-0.36,1-0.77c-0.04-0.35-0.12-0.69-0.25-1.05c-0.17-0.46-0.44-0.86-0.8-1.18c-0.48-0.44-0.95-0.21-1.49-0.14
				c-0.15,0.02-0.04-0.26,0.02-0.3C77.05,35.48,77.92,36.76,78.3,37.92z"/>
		</g>
		<g>
			<g>
				<path class="st0" d="M116.34,33.63c0,0,1.44-2,3.73-0.12c2.28,1.88,2.13,5.21,0.06,6.78c-2.36,1.79-5.07,0.89-4.64-1.52
					C115.91,36.37,116.34,33.63,116.34,33.63z"/>
				<path class="st1" d="M116.25,41.01c-0.74-0.45-1.06-1.27-0.89-2.25c0.42-2.38,0.85-5.11,0.86-5.14c0-0.02,0.01-0.04,0.02-0.05
					c0.02-0.03,0.61-0.82,1.63-0.96c0.74-0.09,1.5,0.18,2.27,0.81c1.11,0.91,1.73,2.24,1.7,3.65c-0.03,1.33-0.63,2.55-1.65,3.32
					c-0.77,0.58-1.62,0.91-2.41,0.96C117.22,41.38,116.69,41.27,116.25,41.01z M117.9,32.84c-0.83,0.11-1.36,0.72-1.45,0.84
					c-0.05,0.3-0.45,2.87-0.85,5.12c-0.16,0.88,0.13,1.61,0.78,2.01c0.79,0.49,2.24,0.49,3.68-0.61c0.96-0.73,1.53-1.88,1.56-3.14
					c0.03-1.33-0.56-2.59-1.62-3.46c-0.67-0.55-1.33-0.81-1.96-0.78C117.99,32.83,117.95,32.83,117.9,32.84z"/>
			</g>
			<path class="st4" d="M115.48,38.77c0.43-2.41,0.86-5.14,0.86-5.14s1.44-2,3.73-0.12c1.03,0.85,1.56,1.99,1.64,3.13
				c-0.6-0.58-1.47-1.05-2.32-0.87c-1.01,0.2-1.3,1.26-1.32,2.15c0.01,0.21,0.38,0.39,0.39,0.1c-0.01-0.1,0.24-0.2,0.32-0.22
				c0.16-0.04,0.34,0,0.48,0.07c0.35,0.18,0.38,0.53,0.13,0.82c-0.16,0.18-0.37,0.34-0.62,0.33c-0.16-0.01-0.31-0.06-0.48-0.05
				c-0.43,0.02-0.76,0.47-0.84,0.86c-0.08,0.46,0.09,0.96,0.36,1.39C116.33,41.33,115.19,40.4,115.48,38.77z"/>
			<path class="st36" d="M117.4,36.7c-0.3,1.12-0.12,2.33,0.6,3.24c0.05,0.06,0.06-0.03,0.04-0.06c-0.36-0.62-0.51-1.24-0.52-1.86
				c0.12,0.27,0.3,0.5,0.59,0.66c0.5,0.26,1.21,0.29,1.66-0.09c0.08-0.07-0.02-0.33-0.13-0.32c-0.37,0.03-0.7,0.18-1.07,0.18
				c-0.5,0-0.83-0.31-1.05-0.71c0.02-0.35,0.07-0.7,0.19-1.06c0.14-0.47,0.38-0.88,0.72-1.23c0.45-0.46,0.93-0.27,1.48-0.23
				c0.15,0.01,0.03-0.26-0.04-0.3C118.5,34.19,117.71,35.52,117.4,36.7z"/>
		</g>
		<g>
			<g>
				<path class="st0" d="M114.89,22.58c0,0,0.6,1.32-0.6,1.92c0.36-0.96,0.6-1.92-3.11-3.12c-3.71-1.2-4.19-2.99-4.19-2.99
					s-0.72,0.48,0.72,2.64c-2.4-0.72-3.47-2.76-3.83-3.71c-0.84,2.64-3.23,2.88-3.23,2.88s0.72-1.44-0.84-2.88
					c0,1.8-1.56,2.52-1.56,2.52s0,0-0.72-1.8c-1.44,2.52-4.31,3-4.31,3s0,0,0.24-1.68c-3.83,3.95-13.66,3.23-13.66,3.23
					s1.44,2.16,3.59,2.04c-1.08,1.2-2.88,1.44-5.39,0.84c-0.72,4.55,0.7,9.74,0.7,9.74s2.08,20.53,19.97,19.97
					c16.95-0.61,18.38-22.05,18.38-22.05C118.24,24.74,114.89,22.58,114.89,22.58z"/>
				<path class="st1" d="M97.96,55.32c-8.86,0-13.65-5.33-16.12-9.86c-2.74-5.03-3.29-10.19-3.29-10.25
					c-0.01-0.03-1.41-5.25-0.7-9.78c0.01-0.04,0.03-0.07,0.06-0.09c0.03-0.02,0.07-0.03,0.11-0.02c2.34,0.56,3.99,0.37,5.03-0.57
					c-2.02-0.09-3.32-2.01-3.38-2.1c-0.03-0.04-0.03-0.1,0-0.14c0.03-0.04,0.07-0.07,0.13-0.07c0.1,0.01,9.8,0.67,13.55-3.19
					c0.04-0.04,0.1-0.05,0.16-0.03c0.05,0.03,0.08,0.08,0.07,0.14l-0.21,1.48c0.65-0.16,2.85-0.82,4.03-2.89
					c0.03-0.04,0.08-0.07,0.13-0.07c0.05,0,0.1,0.04,0.12,0.08l0.66,1.66c0.36-0.21,1.35-0.92,1.35-2.33c0-0.05,0.03-0.1,0.08-0.12
					c0.05-0.02,0.11-0.01,0.15,0.02c1.24,1.15,1.09,2.32,0.95,2.8c0.6-0.13,2.24-0.66,2.9-2.75c0.02-0.05,0.07-0.09,0.13-0.09
					c0.07,0,0.11,0.03,0.13,0.09c0.24,0.63,1.16,2.67,3.38,3.51c-1.19-1.93-0.55-2.44-0.47-2.5c0.04-0.02,0.08-0.03,0.12-0.01
					c0.04,0.01,0.07,0.05,0.08,0.09c0,0.02,0.52,1.75,4.1,2.9c1.9,0.61,2.94,1.22,3.27,1.9c0.17,0.35,0.14,0.68,0.05,1.01
					c0.64-0.58,0.24-1.49,0.22-1.53c-0.02-0.05-0.01-0.12,0.03-0.16c0.05-0.04,0.11-0.04,0.16-0.01c0.14,0.09,3.41,2.3,2.22,10.68
					c0,0.04-0.39,5.44-2.85,10.83c-2.28,5-6.84,11.02-15.66,11.33C98.43,55.32,98.19,55.32,97.96,55.32z M78.1,25.62
					c-0.65,4.44,0.7,9.49,0.72,9.54c0.01,0.07,0.55,5.19,3.27,10.17c2.5,4.58,7.4,10,16.57,9.7c8.68-0.31,13.18-6.24,15.42-11.17
					c2.44-5.35,2.82-10.7,2.83-10.76c0.95-6.62-0.97-9.32-1.77-10.13c0.08,0.48,0.05,1.22-0.79,1.64c-0.05,0.02-0.11,0.02-0.15-0.02
					c-0.04-0.04-0.06-0.1-0.04-0.15c0.16-0.42,0.27-0.79,0.08-1.18c-0.29-0.6-1.31-1.18-3.11-1.76c-2.94-0.95-3.89-2.26-4.17-2.82
					c-0.07,0.28-0.03,0.93,0.85,2.26c0.03,0.05,0.03,0.11,0,0.16c-0.03,0.05-0.09,0.06-0.15,0.05c-2.28-0.69-3.37-2.55-3.79-3.47
					c-0.94,2.38-3.21,2.63-3.23,2.63c-0.04,0-0.1-0.02-0.12-0.06c-0.03-0.04-0.03-0.09-0.01-0.14c0.03-0.05,0.59-1.24-0.6-2.5
					c-0.17,1.64-1.61,2.32-1.62,2.33c-0.03,0.02-0.07,0.02-0.11,0c-0.03-0.01-0.06-0.04-0.08-0.08l-0.62-1.54
					c-1.49,2.34-4.15,2.81-4.27,2.83c-0.04,0.01-0.09-0.01-0.12-0.04c-0.03-0.03-0.05-0.07-0.04-0.12l0.18-1.29
					c-2.05,1.86-5.49,2.59-8.06,2.86c-2.33,0.25-4.38,0.19-5.12,0.15c0.44,0.54,1.66,1.85,3.3,1.75c0.06,0,0.11,0.03,0.13,0.08
					c0.02,0.05,0.02,0.11-0.02,0.15C82.4,25.9,80.64,26.2,78.1,25.62z"/>
			</g>
		</g>
		<g>
			<g>
				<g>
					<g>
						<path class="st37" d="M111.77,35.8c0,0-3.08-0.27-5.89,2.33c0.11-0.88,0.11-0.88,0.11-0.88s-3.47-0.58-2.96-5.33
							c0.15-1.4,1.07-3.25,2.6-3.72c1.72-0.52,3.2,0.64,3.78,2.07c0.33,0.82,0.54,1.7,0.59,2.57c0.01,0.16-0.08,1.86-0.18,1.84
							C109.83,34.7,111.02,34.89,111.77,35.8z"/>
						<path class="st1" d="M111.28,35.61c0,0-0.09-0.01-0.24,0c-0.15-0.01-0.37,0.03-0.63,0.06c-0.13,0.02-0.27,0.05-0.42,0.08
							c-0.15,0.03-0.3,0.06-0.46,0.11c-0.16,0.05-0.32,0.1-0.48,0.15c-0.16,0.05-0.32,0.13-0.48,0.2c-0.16,0.07-0.32,0.13-0.48,0.21
							c-0.15,0.09-0.3,0.17-0.44,0.25c-0.14,0.08-0.28,0.16-0.41,0.23c-0.13,0.08-0.24,0.17-0.34,0.25
							c-0.42,0.31-0.72,0.51-0.72,0.51s0.24-0.26,0.64-0.62c0.1-0.09,0.2-0.2,0.33-0.29c0.13-0.09,0.26-0.18,0.4-0.27
							c0.14-0.09,0.29-0.18,0.44-0.28c0.16-0.08,0.33-0.15,0.49-0.22c0.17-0.07,0.33-0.15,0.5-0.2c0.17-0.04,0.34-0.09,0.51-0.13
							c0.16-0.05,0.33-0.06,0.48-0.08c0.15-0.01,0.3-0.04,0.43-0.04c0.27,0,0.49,0.01,0.65,0.04
							C111.19,35.58,111.28,35.61,111.28,35.61z"/>
						<g>
							<g>
								<path class="st38" d="M103.77,31.83c-0.2,1.27,0.02,2.63,0.7,3.66c0.53,0.79,1.84,1.37,2.81,1.08
									c1.11-0.33,1.85-1.42,2.08-2.47c0.39-1.8-0.1-4.37-1.88-5.21c-1.56-0.73-3.04,0.63-3.51,2.08
									C103.88,31.26,103.81,31.54,103.77,31.83z"/>
								<path class="st39" d="M103.77,31.83c0,0-0.01,0.08-0.03,0.24c-0.02,0.16-0.03,0.39-0.04,0.69c0.01,0.15,0.02,0.31,0.03,0.49
									c0.03,0.18,0.05,0.37,0.09,0.57c0.08,0.41,0.23,0.85,0.47,1.3c0.23,0.46,0.63,0.86,1.14,1.12c0.51,0.26,1.13,0.41,1.73,0.26
									c0.61-0.15,1.12-0.57,1.49-1.1c0.38-0.54,0.6-1.16,0.66-1.84c0.08-0.66,0.05-1.34-0.08-1.98c-0.14-0.64-0.38-1.25-0.75-1.76
									c-0.38-0.49-0.87-0.88-1.44-1.02c-0.55-0.16-1.12-0.02-1.55,0.23c-0.44,0.25-0.77,0.6-1.01,0.94
									c-0.24,0.34-0.4,0.67-0.49,0.95c-0.08,0.28-0.13,0.51-0.17,0.67C103.79,31.75,103.77,31.83,103.77,31.83z M103.77,31.83
									c0,0,0.02-0.08,0.06-0.24c0.04-0.16,0.08-0.39,0.16-0.67c0.09-0.28,0.25-0.62,0.48-0.96c0.23-0.34,0.56-0.69,1-0.97
									c0.43-0.27,1.02-0.44,1.61-0.29c0.59,0.13,1.13,0.52,1.54,1.02c0.41,0.51,0.68,1.15,0.83,1.82
									c0.14,0.67,0.19,1.37,0.11,2.06c-0.06,0.68-0.32,1.38-0.73,1.93c-0.2,0.29-0.45,0.52-0.72,0.73
									c-0.15,0.09-0.3,0.18-0.45,0.25c-0.16,0.05-0.28,0.13-0.47,0.15c-0.66,0.13-1.3-0.05-1.82-0.34
									c-0.26-0.14-0.49-0.32-0.69-0.52c-0.09-0.11-0.17-0.21-0.25-0.32c-0.07-0.12-0.13-0.23-0.19-0.34
									c-0.23-0.46-0.37-0.91-0.45-1.32c-0.04-0.2-0.06-0.4-0.08-0.58c-0.01-0.18-0.01-0.35-0.02-0.49
									c0.01-0.3,0.02-0.53,0.05-0.69C103.76,31.92,103.77,31.83,103.77,31.83z"/>
							</g>
							<g class="st33">
								<path class="st40" d="M107.48,28.9c-0.06-0.03-0.11-0.04-0.16-0.06c1.62,0.78,2.07,3.12,1.71,4.77
									c-0.21,0.97-0.89,1.97-1.91,2.27c-0.89,0.27-2.1-0.27-2.58-0.99c-0.63-0.94-0.83-2.19-0.65-3.36
									c0.04-0.27,0.1-0.53,0.19-0.78c0.03-0.1,0.07-0.2,0.11-0.3c-0.09,0.18-0.17,0.36-0.22,0.54c-0.09,0.28-0.16,0.56-0.2,0.85
									c-0.2,1.27,0.02,2.63,0.7,3.66c0.53,0.79,1.84,1.37,2.81,1.08c1.11-0.33,1.85-1.42,2.08-2.47
									C109.75,32.3,109.26,29.74,107.48,28.9z"/>
							</g>
							<g>
								<path class="st41" d="M104.47,32.66c-0.11,1.73,0.53,3.16,1.76,3.38c1.22,0.22,2.35-0.89,2.42-2.62
									c0.05-1.74-0.91-3.46-2.01-3.59C105.53,29.68,104.57,30.92,104.47,32.66z"/>
								<g>
									<path class="st42" d="M106.23,36.04c1.22,0.22,2.35-0.89,2.42-2.62c0.05-1.74-0.91-3.46-2.01-3.59
										c-1.11-0.14-2.07,1.1-2.17,2.84C104.36,34.39,105,35.81,106.23,36.04z M104.62,32.49c0.1-1.59,1.01-2.72,2.03-2.59
										c1.02,0.13,1.89,1.7,1.85,3.3c-0.04,1.6-1.1,2.63-2.25,2.42C105.09,35.41,104.52,34.09,104.62,32.49z"/>
								</g>
								<g class="st43">
									<path class="st44" d="M106.23,36.04c1.22,0.22,2.35-0.89,2.42-2.62c0.05-1.74-0.91-3.46-2.01-3.59
										c-1.11-0.14-2.07,1.1-2.17,2.84C104.36,34.39,105,35.81,106.23,36.04z M105.23,31.26c0.44-0.42,0.47-0.11,0.28,0.29
										c-0.18,0.4-0.76,1.75-0.18,2.73c0.28,0.47,0.7,0.69,0.71,0.84c0.01,0.14-0.94,0.1-1.26-0.87
										C104.41,33.12,104.78,31.69,105.23,31.26z"/>
								</g>
								<g class="st43">
									<path class="st44" d="M105.11,32.99c0.09-1.17,0.79-1.97,1.6-1.81c0.05,0.01,0.1,0.02,0.16,0.04
										c0.1-0.19,0.26-0.32,0.44-0.31c0.35,0.02,0.7,0.49,0.76,1.06c0.03,0.25,0,0.47-0.07,0.65c0.08,0.29,0.12,0.61,0.11,0.93
										c-0.05,1.17-0.86,1.91-1.72,1.75C105.53,35.15,105.04,34.16,105.11,32.99z"/>
								</g>
								<path class="st45" d="M105.5,33.02c-0.07,0.87,0.33,1.63,0.99,1.75c0.65,0.13,1.26-0.44,1.3-1.32
									c0.04-0.87-0.45-1.67-1.07-1.79C106.1,31.54,105.56,32.14,105.5,33.02z"/>
								<g class="st43">
									<path class="st44" d="M106.29,31.97c0.29,0.83,1.05,1.44,1.59,1.29c0.55-0.16,0.69-0.99,0.37-1.8
										c-0.31-0.81-0.96-1.51-1.48-1.31C106.25,30.34,106,31.14,106.29,31.97z"/>
								</g>
								<path class="st46" d="M106.69,31.87c0.22,0.64,0.78,1.09,1.18,0.98c0.4-0.11,0.5-0.75,0.26-1.36
									c-0.23-0.61-0.73-1.14-1.12-1C106.63,30.63,106.47,31.24,106.69,31.87z"/>
								<g>
									<path class="st41" d="M105.03,32.23c-0.11,0.68-0.19,2.04,0.72,2.65c0.54,0.35-0.8,0.22-1.01-1.27
										C104.58,32.46,105.16,31.36,105.03,32.23z"/>
								</g>
								<g>
									<path class="st41" d="M105.21,31.49c0.14,0.05,0.05,0.42-0.15,0.35C104.91,31.78,105.01,31.43,105.21,31.49z"/>
								</g>
							</g>
						</g>
					</g>
				</g>
			</g>
		</g>
		<g>
			
				<radialGradient id="SVGID_1_" cx="-445.1613" cy="-1502.6512" r="7.6645" gradientTransform="matrix(-0.7982 -0.6025 -0.6025 0.7982 -1151.4541 966.4395)" gradientUnits="userSpaceOnUse">
				<stop  offset="0.1184" style="stop-color:#F6A0A0"/>
				<stop  offset="1" style="stop-color:#FFFFFF"/>
			</radialGradient>
			<path class="st47" d="M106,42.2c0.55,2.55,2.43,2.72,4.4,1.86c3.46-1.51,5.28-4,4.7-5.82c-0.58-1.82-2.38-3.14-5.28-2.12
				C106.91,37.14,105.38,39.34,106,42.2z"/>
			<g>
				<path class="st46" d="M112.22,37.12c0.07,0.24-0.31,0.48-0.84,0.54c-0.53,0.06-1.01-0.1-1.08-0.35
					c-0.07-0.23,0.31-0.47,0.84-0.53C111.67,36.72,112.15,36.87,112.22,37.12z"/>
			</g>
			<g>
				<path class="st46" d="M113.41,37.59c-0.03,0.12-0.2,0.19-0.39,0.16c-0.19-0.03-0.32-0.16-0.3-0.28c0.03-0.12,0.2-0.19,0.4-0.16
					C113.3,37.34,113.44,37.47,113.41,37.59z"/>
			</g>
		</g>
		<path class="st4" d="M102.51,29.11c0,0,3.51-5.59,7.43-0.37C108.81,25.35,105.11,23.44,102.51,29.11z"/>
		<g>
			<path class="st48" d="M102.39,28.56c0,0,3.51-5.59,7.43-0.37C108.68,24.79,104.98,22.89,102.39,28.56z"/>
			<path class="st49" d="M102.39,28.67c-0.02,0-0.03,0-0.05-0.01c-0.05-0.03-0.07-0.09-0.05-0.14c1.12-2.45,2.59-3.75,4.15-3.67
				c1.46,0.08,2.83,1.37,3.48,3.3c0.02,0.05-0.01,0.1-0.05,0.13c-0.05,0.02-0.1,0.01-0.13-0.03c-1.09-1.45-2.25-2.18-3.44-2.18
				c-0.04,0-0.08,0-0.12,0c-2.13,0.09-3.68,2.52-3.7,2.55C102.45,28.65,102.42,28.67,102.39,28.67z M106.3,25.06
				c-1.2,0-2.35,0.89-3.31,2.55c0.67-0.74,1.79-1.69,3.17-1.75c1.14-0.05,2.26,0.53,3.31,1.73c-0.68-1.5-1.83-2.47-3.04-2.54
				C106.39,25.06,106.34,25.06,106.3,25.06z"/>
		</g>
		<g>
			<g>
				<path class="st37" d="M83.09,36.43c0,0,2.8-0.22,5.31,2.28c-0.09-0.83-0.09-0.83-0.09-0.83s3.15-0.51,2.74-5.02
					c-0.12-1.33-1.05-3.62-2.43-4.08c-1.55-0.52-2.91,0.57-3.45,1.92c-0.31,0.77-0.42,1.91-0.47,2.73
					c-0.01,0.15,0.07,1.99,0.17,1.97C84.86,35.4,83.79,35.57,83.09,36.43z"/>
				<path class="st1" d="M83.54,36.25c0,0,0.08-0.03,0.22-0.04c0.14-0.02,0.35-0.03,0.59-0.03c0.12,0.01,0.26,0.03,0.4,0.04
					c0.14,0.01,0.29,0.03,0.44,0.08c0.15,0.04,0.3,0.09,0.46,0.13c0.15,0.05,0.3,0.13,0.45,0.19c0.15,0.07,0.3,0.14,0.44,0.22
					c0.14,0.09,0.27,0.18,0.39,0.27c0.13,0.09,0.25,0.17,0.36,0.26c0.11,0.09,0.2,0.19,0.29,0.27c0.35,0.35,0.56,0.59,0.56,0.59
					s-0.27-0.19-0.65-0.49c-0.09-0.07-0.19-0.16-0.31-0.24c-0.12-0.07-0.25-0.14-0.37-0.22c-0.13-0.08-0.26-0.16-0.39-0.25
					c-0.14-0.08-0.29-0.13-0.43-0.2c-0.14-0.07-0.28-0.15-0.43-0.2c-0.15-0.05-0.29-0.09-0.44-0.14c-0.14-0.05-0.28-0.09-0.42-0.11
					c-0.13-0.03-0.26-0.06-0.38-0.08c-0.24-0.02-0.44-0.06-0.58-0.06C83.62,36.25,83.54,36.25,83.54,36.25z"/>
				<g>
					<g>
						<path class="st38" d="M90.63,32.41c0.18,1.3-0.04,2.69-0.73,3.73c-0.53,0.8-1.81,1.38-2.76,1.07c-1.08-0.35-1.79-1.47-2-2.55
							c-0.36-1.85,0.14-4.46,1.89-5.29c1.53-0.73,2.96,0.68,3.4,2.17C90.53,31.82,90.59,32.11,90.63,32.41z"/>
						<path class="st39" d="M90.63,32.41c0,0,0.01,0.08,0.03,0.24c0.02,0.16,0.03,0.39,0.04,0.7c0,0.3-0.03,0.66-0.1,1.08
							c-0.08,0.41-0.22,0.86-0.44,1.33c-0.06,0.11-0.13,0.23-0.19,0.35c-0.07,0.12-0.16,0.22-0.24,0.33c-0.1,0.1-0.21,0.2-0.31,0.3
							c-0.12,0.08-0.24,0.17-0.37,0.25c-0.51,0.29-1.16,0.48-1.82,0.33c-0.18-0.03-0.31-0.11-0.46-0.17
							c-0.15-0.08-0.3-0.17-0.44-0.27c-0.26-0.22-0.51-0.47-0.69-0.76c-0.38-0.57-0.62-1.28-0.67-1.96c-0.07-0.7-0.02-1.4,0.13-2.07
							c0.14-0.67,0.42-1.31,0.81-1.84c0.4-0.51,0.94-0.92,1.53-1.06c0.6-0.15,1.19,0.03,1.61,0.32c0.43,0.29,0.74,0.66,0.96,1.01
							c0.22,0.35,0.37,0.69,0.45,0.98C90.57,32.07,90.63,32.41,90.63,32.41z M90.63,32.41c0,0-0.07-0.34-0.21-0.92
							c-0.09-0.29-0.24-0.62-0.46-0.97c-0.22-0.35-0.54-0.71-0.97-0.98c-0.42-0.27-1-0.42-1.54-0.26c-0.56,0.15-1.05,0.55-1.42,1.05
							c-0.71,1.04-0.97,2.45-0.83,3.78c0.05,0.68,0.26,1.31,0.61,1.87c0.36,0.55,0.84,0.99,1.45,1.16c0.59,0.16,1.22,0,1.73-0.26
							c0.13-0.07,0.24-0.15,0.36-0.23c0.11-0.09,0.21-0.18,0.31-0.27c0.08-0.11,0.18-0.21,0.25-0.32c0.07-0.11,0.14-0.22,0.2-0.33
							c0.24-0.45,0.38-0.91,0.46-1.31c0.08-0.41,0.11-0.77,0.12-1.07c0-0.3-0.01-0.54-0.03-0.7C90.64,32.49,90.63,32.41,90.63,32.41
							z"/>
					</g>
					<g class="st33">
						<path class="st40" d="M87.04,29.36c0.05-0.03,0.11-0.04,0.16-0.06c-1.59,0.77-2.05,3.16-1.72,4.85
							c0.19,0.99,0.85,2.02,1.84,2.34c0.87,0.28,2.05-0.25,2.53-0.98c0.63-0.96,0.84-2.23,0.67-3.42c-0.04-0.27-0.1-0.54-0.17-0.8
							c-0.03-0.1-0.07-0.21-0.11-0.31c0.08,0.18,0.16,0.37,0.21,0.56c0.08,0.28,0.15,0.57,0.19,0.87c0.18,1.3-0.04,2.69-0.73,3.73
							c-0.53,0.8-1.81,1.38-2.76,1.07c-1.08-0.35-1.79-1.47-2-2.55C84.79,32.81,85.29,30.2,87.04,29.36z"/>
					</g>
					<g>
						<path class="st41" d="M85.94,33.21c-0.11,1.73,0.53,3.16,1.76,3.38c1.22,0.22,2.35-0.89,2.42-2.62
							c0.05-1.74-0.91-3.46-2.01-3.59C87,30.23,86.04,31.48,85.94,33.21z"/>
						<g>
							<path class="st42" d="M87.7,36.59c1.22,0.22,2.35-0.89,2.42-2.62c0.05-1.74-0.91-3.46-2.01-3.59
								c-1.11-0.14-2.07,1.1-2.17,2.84C85.84,34.94,86.47,36.36,87.7,36.59z M86.09,33.04c0.1-1.59,1.01-2.72,2.03-2.59
								c1.02,0.13,1.89,1.7,1.85,3.3c-0.04,1.6-1.1,2.63-2.25,2.42C86.56,35.96,85.99,34.64,86.09,33.04z"/>
						</g>
						<g class="st43">
							<path class="st44" d="M87.7,36.59c1.22,0.22,2.35-0.89,2.42-2.62c0.05-1.74-0.91-3.46-2.01-3.59
								c-1.11-0.14-2.07,1.1-2.17,2.84C85.84,34.94,86.47,36.36,87.7,36.59z M86.7,31.81c0.44-0.42,0.47-0.11,0.28,0.29
								c-0.18,0.4-0.76,1.75-0.18,2.73c0.28,0.47,0.7,0.69,0.71,0.84c0.01,0.14-0.94,0.1-1.26-0.87
								C85.89,33.67,86.26,32.24,86.7,31.81z"/>
						</g>
						<g class="st43">
							<path class="st44" d="M86.58,33.54c0.09-1.17,0.79-1.97,1.6-1.81c0.05,0.01,0.1,0.02,0.16,0.04c0.1-0.18,0.26-0.32,0.44-0.31
								c0.35,0.02,0.7,0.49,0.76,1.06c0.03,0.25,0,0.47-0.07,0.65c0.08,0.29,0.12,0.61,0.11,0.93c-0.05,1.17-0.86,1.91-1.72,1.75
								C87,35.7,86.51,34.72,86.58,33.54z"/>
						</g>
						<path class="st45" d="M86.97,33.57c-0.07,0.87,0.33,1.63,0.99,1.75c0.65,0.13,1.26-0.44,1.3-1.32
							c0.04-0.87-0.45-1.67-1.07-1.79C87.57,32.09,87.03,32.7,86.97,33.57z"/>
						<g class="st43">
							<path class="st44" d="M87.76,32.53c0.29,0.83,1.05,1.44,1.59,1.29c0.55-0.16,0.69-0.99,0.37-1.8
								c-0.31-0.81-0.96-1.51-1.48-1.31C87.72,30.9,87.48,31.69,87.76,32.53z"/>
						</g>
						<path class="st46" d="M88.17,32.42c0.22,0.64,0.78,1.09,1.18,0.98c0.4-0.11,0.5-0.75,0.26-1.36c-0.23-0.61-0.73-1.14-1.12-1
							C88.1,31.18,87.94,31.79,88.17,32.42z"/>
						<g>
							<path class="st41" d="M86.5,32.78c-0.11,0.68-0.19,2.04,0.72,2.65c0.54,0.35-0.8,0.22-1.01-1.27
								C86.05,33.01,86.63,31.91,86.5,32.78z"/>
						</g>
						<g>
							<path class="st41" d="M86.68,32.04c0.14,0.05,0.05,0.42-0.15,0.35C86.38,32.34,86.48,31.98,86.68,32.04z"/>
						</g>
					</g>
				</g>
			</g>
		</g>
		<g>
			
				<radialGradient id="SVGID_2_" cx="-220.3402" cy="-1381.1155" r="6.7478" gradientTransform="matrix(0.933 -0.3602 0.3602 0.933 789.8931 1245.5212)" gradientUnits="userSpaceOnUse">
				<stop  offset="0.1184" style="stop-color:#F6A0A0"/>
				<stop  offset="1" style="stop-color:#FFFFFF"/>
			</radialGradient>
			<path class="st50" d="M87.88,42.99c-1.08,2.02-2.71,1.72-4.18,0.51c-2.57-2.11-3.5-4.67-2.57-6.07c0.93-1.4,2.77-2.08,4.98-0.52
				C88.33,38.48,89.09,40.72,87.88,42.99z"/>
			<g>
				<path class="st46" d="M83.51,37.29c-0.11,0.18,0.15,0.48,0.58,0.66c0.44,0.18,0.88,0.16,1-0.04c0.11-0.18-0.15-0.48-0.58-0.65
					C84.08,37.08,83.63,37.09,83.51,37.29z"/>
			</g>
			<g>
				<path class="st46" d="M82.39,37.4c-0.01,0.11,0.12,0.21,0.3,0.23c0.17,0.02,0.31-0.05,0.32-0.16c0-0.11-0.13-0.21-0.3-0.23
					C82.54,37.22,82.4,37.29,82.39,37.4z"/>
			</g>
		</g>
		<path class="st4" d="M83.93,29.73c0,0,2.22-4.52,6.64-0.58C89.42,26.3,85.74,24.25,83.93,29.73z"/>
		<g>
			<path class="st48" d="M83.78,29.06c0,0,2.22-4.52,6.64-0.58C89.27,25.64,85.59,23.58,83.78,29.06z"/>
			<path class="st49" d="M83.78,29.16c-0.01,0-0.03,0-0.04-0.01c-0.05-0.02-0.07-0.08-0.06-0.13c0.94-2.84,2.29-3.48,3.26-3.51
				c1.55-0.06,2.97,1.43,3.57,2.92c0.02,0.04,0,0.09-0.04,0.12c-0.04,0.03-0.09,0.02-0.13-0.01c-1.4-1.25-2.71-1.76-3.91-1.53
				c-1.69,0.33-2.56,2.06-2.57,2.08C83.85,29.14,83.81,29.16,83.78,29.16z M87.01,25.73c-0.02,0-0.05,0-0.07,0
				c-0.8,0.03-1.89,0.51-2.75,2.53c0.44-0.55,1.17-1.22,2.21-1.43c1.16-0.22,2.41,0.2,3.74,1.28C89.5,26.86,88.3,25.73,87.01,25.73z
				"/>
		</g>
		<g>
			<g>
				<path class="st1" d="M97.01,37.57c0,0,0.04,0.08,0.08,0.23c0.03,0.15,0.07,0.38-0.03,0.64c-0.05,0.13-0.13,0.26-0.24,0.38
					c-0.05,0.06-0.12,0.11-0.18,0.16c-0.07,0.05-0.14,0.09-0.22,0.13c-0.08,0.03-0.16,0.07-0.24,0.1c-0.08,0.03-0.17,0.05-0.25,0.08
					c-0.05,0.02-0.18,0.05-0.21,0.08c-0.04,0.03-0.07,0.08-0.09,0.14c-0.04,0.13,0.02,0.29,0.07,0.44c0.07,0.14,0.14,0.29,0.24,0.41
					c0.09,0.13,0.19,0.24,0.3,0.34c0.1,0.11,0.21,0.19,0.31,0.26c0.11,0.07,0.2,0.13,0.3,0.17c0.09,0.05,0.18,0.07,0.25,0.09
					c0.15,0.03,0.23,0.04,0.23,0.04s-0.09,0.01-0.24,0c-0.07-0.02-0.17-0.02-0.27-0.06c-0.11-0.03-0.22-0.08-0.34-0.15
					c-0.12-0.07-0.24-0.15-0.36-0.25c-0.12-0.1-0.24-0.21-0.34-0.35c-0.11-0.13-0.21-0.28-0.28-0.44c-0.07-0.17-0.14-0.35-0.09-0.57
					c0.03-0.1,0.09-0.21,0.2-0.28c0.1-0.07,0.16-0.06,0.27-0.1c0.08-0.02,0.16-0.04,0.24-0.06c0.07-0.03,0.15-0.06,0.22-0.08
					c0.07-0.04,0.14-0.07,0.2-0.11c0.06-0.04,0.12-0.08,0.17-0.13c0.1-0.09,0.19-0.2,0.24-0.31c0.11-0.22,0.12-0.44,0.11-0.59
					C97.04,37.66,97.01,37.57,97.01,37.57z"/>
				<path class="st51" d="M96.4,34.67c0,0,1.65,2.7,0.73,4.06C96.88,39.28,99.13,38.06,96.4,34.67z"/>
				<path class="st51" d="M96.63,39.22c0.06,0.08-0.04,0.24-0.21,0.36c-0.17,0.12-0.36,0.16-0.41,0.08
					c-0.06-0.08,0.04-0.24,0.21-0.36C96.39,39.17,96.57,39.14,96.63,39.22z"/>
			</g>
			<path class="st37" d="M96.75,35.9c0,0,0.4,2.6-1.49,3.06c-1.19,0.37-1.17,1.79,1.6,2.37c1.56,0.18,2.45-0.96,2.09-1.66
				c-0.37-0.7-1.32,1.64-3.36,0.1c-0.39-0.52,0.32-0.25,1.01-0.9C97.29,38.22,97.27,37.17,96.75,35.9z"/>
		</g>
		<g>
			<path class="st0" d="M106.18,45.98c-0.13-0.67-0.38-1.31-0.82-1.81c-0.83-0.93-2.38-0.77-3.52-0.69
				c-0.08,0.04-0.15,0.08-0.21,0.14c0.69,0.15,2.04,0.47,1.98,0.48c-0.02,0-0.07,0.01-0.12,0.02c0.01,0.01,0.14,0.07,0.2,0.1
				c-0.86,0.14-1.7,0.36-2.58,0.44c-1.1,0.1-2.21,0.14-3.31,0.19c-1.24,0.05-2.49,0.12-3.73,0.08c-0.23-0.01-0.71,0.03-1.19,0
				c-0.54,0.02-1.07-0.01-1.55-0.11c-0.14-0.03-0.16-0.2-0.1-0.3c0.03-0.05,0.06-0.1,0.09-0.15c-0.13,0.04-0.25,0.08-0.37,0.14
				c-0.03,0.01-0.08,0.03-0.13,0.05c-0.22,0.24-0.39,0.54-0.48,0.85c0.38,0.25,0.75,0.47,1.1,0.72c0.03,0.02,0.06,0.04,0.09,0.07
				c0.3,0.23,0.59,0.48,0.86,0.81c0.07,0.08,0.13,0.16,0.19,0.24c0.2,0.21,0.39,0.43,0.58,0.66c0.61,0.75,1.02,1.65,1.97,2.01
				c0.85,0.32,2.04,0.05,2.91-0.02c0.97-0.08,2-0.1,2.94-0.37c0.62-0.17,1.13-0.68,1.47-1.2c0.29-0.45,0.56-0.91,0.83-1.37
				c0.09-0.15,0.18-0.31,0.28-0.46c0.04-0.07,0.08-0.14,0.11-0.21c0.23-0.41,0.5-0.91,0.94-1.12c0.39-0.18,0.6,0.18,0.76,0.51
				c0.01-0.01,0.01-0.02,0.02-0.03c0.02,0.06,0.03,0.11,0.05,0.17c0.02,0.04,0.04,0.08,0.06,0.11c0.12,0.21,0.18,0.45,0.26,0.68
				c0.05,0.13,0.11,0.49,0.21,0.65C106.12,46.84,106.18,46.41,106.18,45.98z"/>
			<path class="st4" d="M99.33,50.94c-0.69,0.2-1.39,0.33-2.09,0.33c-0.56,0.05-1.13,0.01-1.71-0.2c-0.01,0-0.01-0.01-0.02-0.01
				c0.18,0.31,0.45,0.63,0.77,0.89c0.33,0.13,0.67,0.21,0.84,0.24c0.59,0.12,1.13-0.05,1.59-0.37
				C98.94,51.54,99.14,51.25,99.33,50.94z"/>
			<g>
				<g>
					<g>
						<path class="st52" d="M105.51,44.71c-0.03-0.11-0.07-0.21-0.1-0.31c-0.21-0.26-0.46-0.44-0.8-0.39
							c-0.14,0.02-0.4,0.08-0.66,0.12c0.16,0.12,0.48,0.23,0.55,0.26c0.02,0.01,0.05,0.02,0.07,0.03c-0.37,0.15-0.88,0.28-0.96,0.29
							c-1.14,0.2-2.29,0.32-3.45,0.39c-2.15,0.12-4.49,0.31-6.72,0.16c-0.76,0-1.53-0.07-2.24-0.27c-0.17-0.05-0.23-0.29-0.09-0.4
							c0.07-0.06,0.14-0.11,0.21-0.17c-0.22,0.05-0.43,0.13-0.62,0.28c-0.18,0.19-0.28,0.44-0.33,0.7c0.04-0.02,0.08-0.04,0.12-0.05
							c1.6,0.21,2.88,2.51,3.67,3.69c0.55,0.83,1.62,0.71,2.65,0.61c1.72-0.07,3.23-0.2,3.84-0.39c0.47-0.11,0.78-0.14,1.04-0.48
							c1.03-1.38,1.38-3.16,2.94-4.02c0.11-0.03,0.21-0.08,0.3-0.12c0.08,0.06,0.15,0.14,0.19,0.23c0.13,0.28,0.14,0.56,0.45,0.7
							c0,0,0.01,0,0.01,0C105.55,45.27,105.59,44.99,105.51,44.71z"/>
						<path class="st53" d="M102.77,46.33c-0.33,0.53-0.59,1.1-0.88,1.65c-0.37,0.7-0.9,0.97-1.5,1.09
							c-0.79,0.01-1.58,0.11-2.35,0.17c-1.01,0.08-2.21,0.37-3.18-0.03c-0.61-0.48-0.96-1.36-1.4-2.04
							c-0.42-0.64-1.01-1.4-1.73-1.77c2.09,0.12,4.09,0.08,4.82,0.05c2.12-0.09,4.17-0.19,6.28-0.44c0.35-0.04,0.78-0.07,1.21-0.14
							C103.52,45.25,103.12,45.76,102.77,46.33z"/>
						<path class="st46" d="M101.55,45.98c-0.73,0.12-1.46,0.16-2.2,0.23c-1.72,0.16-3.44,0.36-5.16,0.42
							c-0.11,0.55-0.02,1.09,0.01,1.66c0,0.06,0.01,0.12,0.01,0.18c0.19,0.29,0.39,0.55,0.64,0.75c0.97,0.4,2.18,0.11,3.18,0.03
							c0.78-0.06,1.57-0.16,2.35-0.17c0.61-0.12,1.14-0.39,1.5-1.09c0.16-0.3,0.31-0.61,0.47-0.91
							C102.24,46.44,102.01,45.9,101.55,45.98z"/>
						<path class="st54" d="M101.55,45.98c-0.73,0.12-1.46,0.16-2.2,0.23c-1.72,0.16-3.44,0.36-5.16,0.42
							c-0.06,0.3-0.06,0.61-0.04,0.91c0.08-0.09,0.18-0.16,0.32-0.17c1.2-0.1,2.45,0.16,3.66,0.13c0.83-0.02,1.79-0.01,2.6-0.25
							c0.29-0.08,0.39-0.12,0.63,0.04c0.32,0.2,0.25,0.75,0.14,1.21c0.14-0.14,0.27-0.31,0.38-0.52c0.16-0.3,0.31-0.61,0.47-0.91
							C102.24,46.44,102.01,45.9,101.55,45.98z"/>
						<path class="st46" d="M94.96,47.13c1.27,0.14,2.56,0.19,3.83,0.06c0.6-0.06,1.2-0.14,1.8-0.26c0.53-0.11,1.39-0.17,1.77-0.58
							c0.34-0.37,0.51-0.85,0.6-1.35c-0.05,0.01-0.1,0.01-0.15,0.02c-2.11,0.25-4.16,0.35-6.28,0.44c-0.63,0.03-2.18,0.06-3.92-0.01
							C93.17,46.31,93.76,47,94.96,47.13z"/>
					</g>
					<path class="st52" d="M97.21,51.12c-0.56,0-1.12,0.02-1.63-0.16c0.17,0.24,0.39,0.43,0.63,0.59c0.62,0.16,1.4,0.05,2.05-0.14
						c0.16-0.1,0.32-0.22,0.47-0.34C98.23,51.13,97.72,51.12,97.21,51.12z"/>
				</g>
				<path class="st51" d="M94,44.96c-0.91-0.05-1.85-0.06-2.68-0.47c0,0,0,0.01,0,0.01c-0.22,1.03,4.63,0.58,5.26,0.58
					c0.05,0,0.11-0.1,0.05-0.11C95.75,44.98,94.87,45,94,44.96z"/>
				<path class="st51" d="M97.86,50.22c-1.05-0.07-2.09,0.29-3.09-0.29c0,0-0.01,0-0.01,0c0.13,0.39,0.38,0.64,0.7,0.79
					c0.08,0.02,0.15,0.04,0.22,0.06c0.52,0.13,1.08,0.03,1.61-0.13C97.5,50.52,97.69,50.38,97.86,50.22z"/>
			</g>
		</g>
		<g>
			<path class="st55" d="M121.24,25.46c1.08,0.6,2.28,0.36,2.76-2.4c-0.36,1.2-2.52,1.2-2.28,0.12c0.24-1.08,1.32-4.43-0.96-7.19
				c1.56,0.96,2.88-0.36,2.28-2.28c0,1.56-1.68,2.52-2.76,0.12c-2.76-8.75-12.82-9.58-12.82-9.58s0.72-1.44,2.52-1.08
				c-1.2-1.8-3.83-1.08-4.43,0.36c-1.56-3.83-4.43-1.92-4.43-1.92s2.52,0.24,2.28,2.04c-14.38-3.23-22.4,3.71-25.88,8.27
				c-3.47,4.55-6.71,3.11-6.71,3.11s0.72,2.52,4.91,1.56c-3.59,2.4-2.64,5.99-2.64,5.99s0.6-2.88,3.11-3
				c0.36,3.11-0.96,5.15-3.83,5.15c1.08,1.56,3.59,0.84,3.59,0.84c-0.12,5.75,2.73,9.62,2.73,9.62s-1.42-5.19-0.7-9.74
				c2.52,0.6,4.31,0.36,5.39-0.84c-2.16,0.12-3.59-2.04-3.59-2.04s9.82,0.72,13.66-3.23c-0.24,1.68-0.24,1.68-0.24,1.68
				s2.88-0.48,4.31-3c0.72,1.8,0.72,1.8,0.72,1.8s1.56-0.72,1.56-2.52c1.56,1.44,0.84,2.88,0.84,2.88s2.4-0.24,3.23-2.88
				c0.36,0.96,1.44,3,3.83,3.71c-1.44-2.16-0.72-2.64-0.72-2.64s0.48,1.8,4.19,2.99c3.71,1.2,3.47,2.16,3.11,3.12
				c1.2-0.6,0.6-1.92,0.6-1.92s3.35,2.16,2.16,10.54C121.12,31.93,122.19,27.13,121.24,25.46z"/>
			<path class="st56" d="M78.69,35.34c-0.04,0-0.08-0.02-0.11-0.06c-0.03-0.04-2.82-3.9-2.76-9.53c-0.61,0.14-2.6,0.46-3.57-0.94
				c-0.03-0.04-0.03-0.1-0.01-0.14c0.02-0.04,0.07-0.07,0.12-0.07c1.22,0,2.17-0.37,2.82-1.1c0.75-0.85,1.06-2.15,0.9-3.78
				c-2.27,0.2-2.86,2.85-2.86,2.88c-0.01,0.06-0.07,0.11-0.13,0.11c-0.06,0.01-0.12-0.04-0.13-0.1c-0.01-0.03-0.85-3.37,2.19-5.77
				c-3.75,0.61-4.46-1.75-4.47-1.77c-0.01-0.05,0-0.1,0.04-0.14c0.04-0.03,0.1-0.04,0.14-0.02c0.03,0.01,3.19,1.33,6.55-3.07
				c3.43-4.5,11.35-11.56,25.86-8.35c0.01-0.33-0.08-0.62-0.27-0.87c-0.58-0.73-1.88-0.86-1.89-0.86c-0.06-0.01-0.1-0.05-0.12-0.1
				c-0.01-0.06,0.01-0.11,0.06-0.15c0.05-0.03,1.19-0.78,2.46-0.39c0.85,0.26,1.54,0.97,2.05,2.1c0.41-0.66,1.22-1.14,2.12-1.23
				c1-0.09,1.87,0.31,2.41,1.11c0.03,0.05,0.03,0.1,0,0.15c-0.03,0.05-0.09,0.07-0.14,0.06c-1.32-0.26-2.01,0.48-2.26,0.84
				c1.49,0.19,10.2,1.64,12.72,9.65c0.43,0.95,1.03,1.46,1.6,1.34c0.52-0.11,0.89-0.71,0.89-1.42c0-0.07,0.05-0.12,0.11-0.13
				c0.07-0.01,0.13,0.03,0.15,0.09c0.32,1.03,0.13,1.98-0.5,2.47c-0.4,0.31-0.93,0.38-1.47,0.2c1.72,2.49,1.03,5.31,0.72,6.56
				c-0.03,0.12-0.05,0.22-0.07,0.3c-0.09,0.4,0.23,0.54,0.42,0.59c0.52,0.14,1.39-0.09,1.59-0.78c0.02-0.07,0.09-0.11,0.16-0.09
				c0.07,0.02,0.11,0.08,0.1,0.16c-0.25,1.43-0.72,2.33-1.39,2.65c-0.36,0.17-0.78,0.17-1.23,0c0.33,0.93,0.22,2.34-0.31,3.67
				c-0.45,1.12-1.58,3.1-4.12,3.85c-0.05,0.01-0.09,0-0.13-0.03c-0.03-0.03-0.05-0.08-0.04-0.12c0.94-6.59-0.97-9.3-1.77-10.12
				c0.08,0.48,0.04,1.22-0.79,1.64c-0.05,0.02-0.11,0.02-0.15-0.02c-0.04-0.04-0.06-0.1-0.04-0.15c0.16-0.42,0.27-0.79,0.08-1.18
				c-0.29-0.6-1.31-1.18-3.11-1.76c-2.94-0.95-3.89-2.26-4.17-2.82c-0.07,0.28-0.03,0.93,0.85,2.26c0.03,0.05,0.03,0.11,0,0.16
				c-0.03,0.05-0.09,0.06-0.15,0.05c-2.28-0.69-3.37-2.55-3.79-3.47c-0.94,2.38-3.21,2.63-3.23,2.63c-0.04,0-0.1-0.02-0.12-0.06
				c-0.03-0.04-0.03-0.09-0.01-0.14c0.03-0.05,0.59-1.24-0.6-2.5c-0.17,1.64-1.61,2.32-1.62,2.33c-0.03,0.02-0.07,0.02-0.11,0
				c-0.03-0.01-0.06-0.04-0.08-0.08l-0.62-1.54c-1.49,2.34-4.15,2.81-4.27,2.83c-0.04,0.01-0.09-0.01-0.12-0.04
				c-0.03-0.03-0.05-0.07-0.04-0.12l0.18-1.29c-3.65,3.32-11.53,3.1-13.18,3.02c0.44,0.54,1.67,1.84,3.3,1.75
				c0.06,0,0.11,0.03,0.13,0.08c0.02,0.05,0.02,0.11-0.02,0.15c-1.07,1.19-2.84,1.49-5.38,0.91c-0.65,4.44,0.7,9.49,0.72,9.54
				c0.02,0.06-0.01,0.13-0.07,0.16C78.73,35.33,78.71,35.34,78.69,35.34z M75.95,25.44c0.03,0,0.06,0.01,0.08,0.03
				c0.03,0.03,0.05,0.07,0.05,0.11c-0.09,4.27,1.49,7.52,2.28,8.87c-0.36-1.63-1.06-5.53-0.51-9.01c0.01-0.04,0.03-0.07,0.06-0.09
				c0.03-0.02,0.07-0.03,0.11-0.02c2.34,0.56,3.99,0.37,5.03-0.57c-2.02-0.09-3.32-2.01-3.38-2.1c-0.03-0.04-0.03-0.1,0-0.14
				c0.03-0.04,0.07-0.07,0.13-0.07c0.1,0.01,9.8,0.67,13.55-3.19c0.04-0.04,0.1-0.05,0.16-0.03c0.05,0.03,0.08,0.08,0.07,0.14
				l-0.21,1.48c0.65-0.16,2.85-0.82,4.03-2.89c0.03-0.04,0.08-0.07,0.13-0.07c0.05,0,0.1,0.04,0.12,0.08l0.66,1.66
				c0.36-0.21,1.35-0.92,1.35-2.33c0-0.05,0.03-0.1,0.08-0.12c0.05-0.02,0.11-0.01,0.15,0.02c1.24,1.15,1.09,2.32,0.95,2.8
				c0.6-0.13,2.24-0.66,2.9-2.75c0.02-0.05,0.07-0.09,0.13-0.09c0.07,0,0.11,0.03,0.13,0.09c0.24,0.63,1.16,2.67,3.38,3.51
				c-1.19-1.93-0.55-2.44-0.47-2.5c0.04-0.02,0.08-0.03,0.12-0.01c0.04,0.01,0.07,0.05,0.08,0.09c0,0.02,0.52,1.75,4.1,2.9
				c1.9,0.61,2.94,1.22,3.27,1.9c0.17,0.35,0.14,0.68,0.05,1.01c0.64-0.58,0.24-1.49,0.22-1.53c-0.02-0.05-0.01-0.12,0.03-0.16
				c0.05-0.04,0.11-0.04,0.16-0.01c0.14,0.09,3.36,2.26,2.25,10.46c2.28-0.76,3.32-2.59,3.74-3.63c0.57-1.41,0.64-2.96,0.17-3.78
				c-0.03-0.05-0.02-0.12,0.02-0.16c0.04-0.04,0.11-0.05,0.16-0.02c0.5,0.28,0.94,0.33,1.32,0.15c0.48-0.23,0.85-0.82,1.09-1.77
				c-0.41,0.35-1.02,0.48-1.51,0.35c-0.48-0.12-0.72-0.47-0.62-0.91c0.02-0.09,0.05-0.19,0.07-0.31c0.31-1.28,1.04-4.28-1-6.76
				c-0.04-0.05-0.04-0.13,0-0.18c0.04-0.05,0.12-0.06,0.17-0.03c0.62,0.38,1.23,0.4,1.67,0.06c0.39-0.3,0.58-0.85,0.54-1.48
				c-0.18,0.49-0.54,0.84-0.97,0.94c-0.34,0.07-1.2,0.07-1.91-1.51c-2.7-8.57-12.61-9.5-12.71-9.5c-0.04,0-0.09-0.03-0.11-0.07
				c-0.02-0.04-0.02-0.09,0-0.13c0.01-0.01,0.69-1.34,2.33-1.2c-0.48-0.55-1.18-0.81-1.96-0.74c-0.91,0.09-1.75,0.63-2.04,1.33
				c-0.02,0.05-0.07,0.08-0.12,0.08h0c-0.05,0-0.1-0.03-0.12-0.08c-0.49-1.21-1.16-1.95-2-2.21c-0.76-0.23-1.48-0.01-1.89,0.18
				c0.47,0.1,1.24,0.35,1.67,0.9c0.27,0.34,0.38,0.76,0.32,1.22c-0.01,0.04-0.03,0.07-0.06,0.09c-0.03,0.02-0.07,0.03-0.11,0.02
				C88.9,0.53,81.02,7.54,77.62,12c-1.82,2.39-3.59,3.12-4.74,3.32c-0.84,0.14-1.48,0.03-1.83-0.06c0.31,0.6,1.41,1.94,4.64,1.2
				c0.06-0.01,0.13,0.02,0.15,0.08c0.03,0.06,0.01,0.13-0.05,0.17c-2.63,1.75-2.76,4.19-2.67,5.28c0.33-0.87,1.19-2.44,3.06-2.53
				c0.07,0,0.13,0.05,0.14,0.12c0.2,1.77-0.12,3.19-0.95,4.12c-0.65,0.73-1.57,1.13-2.74,1.18c1.08,1.19,3.26,0.59,3.28,0.58
				C75.93,25.44,75.94,25.44,75.95,25.44z"/>
		</g>
		<g>
			<path class="st4" d="M114.89,22.58c0,0,0.6,1.32-0.6,1.92c0.36-0.96,0.6-1.92-3.11-3.12c-3.71-1.2-4.19-2.99-4.19-2.99
				s-0.72,0.48,0.72,2.64c-2.4-0.72-3.47-2.76-3.83-3.71c-0.84,2.64-3.23,2.88-3.23,2.88s0.72-1.44-0.84-2.88
				c0,1.8-1.56,2.52-1.56,2.52s0,0-0.72-1.8c-1.44,2.52-4.31,3-4.31,3s0,0,0.24-1.68c-3.83,3.95-13.66,3.23-13.66,3.23
				s1.44,2.16,3.59,2.04c-1.08,1.2-2.88,1.44-5.39,0.84c-0.19,1.19-0.23,2.43-0.19,3.6c0.28-0.68,0.58-1.49,0.89-2.41
				c1.87,1.11,3.97,0.94,6.67-2.14c-1.65-0.11-2.81-0.94-2.81-0.94s6.11,0.26,9.47-1.36c-0.9,1.7-1.43,1.92-1.51,1.95
				c0.11-0.03,4.56-1.32,6.16-3.46c-0.22,1.95-0.43,2.49-0.43,2.49s2.49-1.41,3.25-2.92c0,2.27-0.43,2.82-0.43,2.82
				s3.79-1.52,4.55-3.36c0.22,2.06,4.33,3.03,6.28,2.92c-0.97-0.97-0.97-0.97-0.97-0.97s1.52,0.54,3.25,1.08
				c1.73,0.54,1.62,1.73,0.87,2.71c1.41,0,2.17-0.54,2.17-0.54s4.12,8.02-1.95,20.8c-0.02,0.07-0.03,0.13-0.05,0.2
				c3.39-6.04,3.85-12.79,3.85-12.79C118.24,24.74,114.89,22.58,114.89,22.58z"/>
		</g>
		<g class="st33">
			<path class="st48" d="M121.72,23.18c0.24-1.08,1.32-4.43-0.96-7.19c1.56,0.96,2.88-0.36,2.28-2.28c0,1.56-1.68,2.52-2.76,0.12
				c-2.76-8.75-12.82-9.58-12.82-9.58s0.72-1.44,2.52-1.08c-1.2-1.8-3.83-1.08-4.43,0.36c-1.56-3.83-4.43-1.92-4.43-1.92
				s2.52,0.24,2.28,2.04c-6.87-1.55-12.29-0.76-16.46,0.97c0.47-0.11,0.98-0.27,1.55-0.48c8.94-3.23,16.27,0.86,16.27,0.86
				s-3.56-0.22-4.74,1.94c7.22-1.83,12.18,1.66,12.18,1.66s-0.28-1.78-4.31-3.17c6.36,0.11,10.67,7.22,12.5,9.38
				c-0.75,0-1.4-0.86-3.66-1.62c3.56,2.48,3.99,7.44,1.72,12.5c0-2.48-1.29-4.63-4.96-7c0.86,0.97,0.97,1.72,0.65,2.91
				c-0.22-0.86-1.4-1.94-4.74-3.34c-3.34-1.4-2.37-3.56-2.37-3.56s-2.05,1.08-1.4,3.45c-1.83-1.29-2.69-4.63-2.69-4.63
				c0.43,2.69-1.4,4.85-1.4,4.85s-0.22-1.94-3.02-4.85c0.54,1.29-0.11,3.88-0.11,3.88s0-1.4-1.51-2.91
				c0.86,2.26-2.37,4.96-2.37,4.96s0.11-0.75,0.11-2.59c-7.65,6.36-14.01,2.16-12.61,0.43c-1.29,0-3.66,1.29-3.45,3.34
				c-1.94-1.62-0.43-3.23-0.43-3.23c-2.96,0.17-4.41,1.81-5.13,3.35c-0.13,1.06,0.07,1.83,0.07,1.83s0.6-2.88,3.11-3
				c0.36,3.11-0.96,5.15-3.83,5.15c1.08,1.56,3.59,0.84,3.59,0.84c-0.12,5.75,2.73,9.62,2.73,9.62s-1.42-5.19-0.7-9.74
				c2.52,0.6,4.31,0.36,5.39-0.84c-2.16,0.12-3.59-2.04-3.59-2.04s9.82,0.72,13.66-3.23c-0.24,1.68-0.24,1.68-0.24,1.68
				s2.88-0.48,4.31-3c0.72,1.8,0.72,1.8,0.72,1.8s1.56-0.72,1.56-2.52c1.56,1.44,0.84,2.88,0.84,2.88s2.4-0.24,3.23-2.88
				c0.36,0.96,1.44,3,3.83,3.71c-1.44-2.16-0.72-2.64-0.72-2.64s0.48,1.8,4.19,2.99c3.71,1.2,3.47,2.16,3.11,3.12
				c1.2-0.6,0.6-1.92,0.6-1.92s3.35,2.16,2.16,10.54c4.07-1.2,5.15-5.99,4.19-7.67c1.08,0.6,2.28,0.36,2.76-2.4
				C123.63,24.26,121.48,24.26,121.72,23.18z"/>
		</g>
		<path class="st55" d="M105.18,13.85c0.22-4.63-1.94-7.22-2.91-5.82c-0.97,1.4-4.53,2.91-2.8-0.11c1.72-3.02-5.5,2.59-3.02-0.75
			c2.48-3.34-2.8,0-2.69-1.51c0.11-1.51,2.48-1.83,6.47-1.4c-7.76-2.48-17.35,2.05-20.69,6.68c-3.45,4.53-5.39,4.53-5.39,4.53
			s3.56,1.08,7.11-2.37c0,0,0.32,1.19-1.4,2.59c3.02-1.19,5.6-5.71,6.25-3.13c0.65,2.59,2.69,2.59,4.53,0.65
			c1.83-1.94,3.45,0.75,0.22,3.34c3.34,0,3.88-2.37,3.77-3.99c1.51,1.51,0.97,4.53,0.97,4.53s2.05-3.34,0.54-5.39
			c3.02,0.43,5.28,3.02,5.5,4.42c0,0,2-2.3,0.11-5.36C101.74,10.75,104.32,10.65,105.18,13.85z"/>
		<path class="st55" d="M106.93,8.52c0,0-1.13,3.76,2.44,6.39c2.72,1.97,2.91,3.19,2.91,3.19s0.94-1.97-1.5-3.76
			c-2.44-1.78,1.88,0.66,2.07-1.22c0.19-1.88,2.35,2.25,1.88-0.19c-0.47-2.44,2.07,0.38,2.72,3.76c-0.94-5.35-4.88-7.7-7.8-8.45
			c2.91,1.69,4.04,4.23,0.85,2.35C107.3,8.71,109.56,16.79,106.93,8.52z"/>
	</g>
</g>
</svg>
