<?xml version="1.0" encoding="utf-8"?>
<!-- Generator: Adobe Illustrator 24.0.1, SVG Export Plug-In . SVG Version: 6.00 Build 0)  -->
<svg version="1.1" id="Capa_1" xmlns="http://www.w3.org/2000/svg" xmlns:xlink="http://www.w3.org/1999/xlink" x="0px" y="0px"
	 viewBox="0 0 584.7 584.7" style="enable-background:new 0 0 584.7 584.7;" xml:space="preserve">
<style type="text/css">
	.st0{fill:#FFFFFF;stroke:#FFFFFF;stroke-miterlimit:10;}
	.st1{fill:#F2F2F2;}
	.st2{fill:#F2F2F2;stroke:#F2F2F2;stroke-miterlimit:10;}
</style>
<g id="Capa_3">
	<path class="st0" d="M455.4,159.8c-71.5-32.4-150.2-22-197.2,24.8c-35.2,35.1-41.7,79.8-43.2,97.6C198.6,351.7,179.3,412,160.6,411
		c-2.5-0.1-2.8-1.2-6.7-2.4c-25.2-7.3-40.3,30.8-73.3,34.4C51.9,446.1,19,422.2,19,422.2l0,0c0,0-8,1.6,0,11.2
		c2.1,2.5,5.2,7,10.5,12.9c63.3,70.9,116.7,67.1,116.7,67.1c9.9,1.3,15.8,0.9,30.3,3.6c24.7,4.6,31.1,10,47.5,14.2
		c0,0,15.6,4,91.8-4.3l0,0c0,0,129.6-17.6,199.2-148.8c14.2-26.8,37.7-73.1,22.3-126.1c-10.6-36.6-35.1-59.8-48.7-70.9
		C477.5,174,466.4,166.9,455.4,159.8z"/>
</g>
<g id="Capa_5">
	<g>
		<g>
			<path class="st1" d="M89.4,463.8c9.7,1.2,19.4,1.9,29.2,2.4s19.5,0.7,29.3,0.5s19.5-0.6,29.3-1.3c2.4-0.2,4.9-0.4,7.3-0.6
				l7.3-0.8c4.8-0.6,9.7-1.2,14.5-2.1c9.6-1.6,19.2-3.5,28.6-6.1c9.4-2.6,18.7-5.5,27.7-9.3c2.3-0.9,4.5-1.9,6.7-2.9s4.4-2,6.6-3.2
				c2.1-1.2,4.3-2.2,6.4-3.5l6.3-3.8c8.2-5.3,15.9-11.3,22.9-18.2c-6.9,7-14.5,13.2-22.6,18.6l-6.2,3.9c-2.1,1.2-4.3,2.3-6.4,3.5
				s-4.4,2.2-6.6,3.3c-2.2,1-4.4,2.1-6.7,3c-2.3,0.9-4.5,1.9-6.8,2.8l-6.9,2.5l-1.7,0.6l-1.8,0.5l-3.5,1.1l-3.5,1.1
				c-1.2,0.3-2.4,0.6-3.5,1c-9.4,2.6-19,4.6-28.7,6.2c-4.8,0.8-9.7,1.4-14.5,2l-7.3,0.8c-2.4,0.3-4.9,0.4-7.3,0.6
				c-9.8,0.7-19.5,1.2-29.3,1.2C128.3,467.5,108.7,466.5,89.4,463.8z"/>
		</g>
		<g>
			<path class="st1" d="M493.3,314.1"/>
		</g>
		<g>
			<path class="st1" d="M470.8,336.6c1.7-2,3.5-4,5.4-5.9c1.8-1.9,3.7-3.8,5.6-5.7c1.9-1.9,3.8-3.7,5.7-5.6l2.9-2.7
				c1-0.9,2-1.8,3-2.6c-0.9,1-1.8,2-2.6,3L488,320c-1.8,1.9-3.7,3.8-5.6,5.7c-1.9,1.9-3.8,3.7-5.7,5.6
				C474.8,333,472.8,334.9,470.8,336.6z"/>
		</g>
		<g>
			<path class="st1" d="M482.1,386.4c-2.3,0.6-4.6,0.8-7,0.7c-2.4-0.1-4.7-0.5-7-1c-2.3-0.6-4.5-1.4-6.6-2.4
				c-1.1-0.5-2.1-1.1-3.1-1.6c-1-0.6-2-1.3-2.9-1.9c2.1,1,4.2,2,6.4,2.8c0.5,0.2,1.1,0.4,1.6,0.6s1.1,0.4,1.6,0.6
				c1.1,0.4,2.2,0.7,3.3,1c2.2,0.6,4.5,1,6.8,1.2c1.1,0.1,2.3,0.2,3.5,0.2C479.7,386.6,480.9,386.6,482.1,386.4z"/>
		</g>
		<g>
			<path class="st1" d="M421.7,435.1c0.8-0.9,1.5-1.9,2.1-2.9s1.3-2,1.7-3.1c1-2.1,1.8-4.4,2.4-6.7c0.2-1.2,0.6-2.3,0.7-3.5
				c0.1-0.6,0.2-1.2,0.3-1.8c0-0.6,0.1-1.2,0.2-1.8c0.1-0.6,0.1-1.2,0.1-1.8v-1.8c0-1.2-0.1-2.4-0.1-3.6c0.2,1.2,0.4,2.4,0.6,3.6
				l0.1,1.8c0,0.6,0.1,1.2,0,1.8c0,2.4-0.4,4.9-0.9,7.2c-0.6,2.4-1.5,4.7-2.7,6.8C425.1,431.6,423.6,433.6,421.7,435.1z"/>
		</g>
		<g>
			<path class="st1" d="M349.7,435.1c1.3-0.8,2.4-1.8,3.4-3c0.5-0.5,1-1.1,1.5-1.7s0.9-1.2,1.4-1.8c1.8-2.4,3.3-5.1,4.6-7.8
				c1.4-2.7,2.4-5.5,3.5-8.4l1.4-4.3c0.4-1.5,0.9-2.9,1.3-4.4c-0.3,1.5-0.6,3-0.9,4.5l-1.2,4.4c-0.5,1.5-0.9,2.9-1.5,4.3
				s-1.1,2.8-1.8,4.2c-0.7,1.4-1.4,2.7-2.2,4l-1.3,1.9c-0.4,0.6-0.9,1.2-1.4,1.8C354.7,431.5,352.5,433.8,349.7,435.1z"/>
		</g>
		<g>
			<path class="st1" d="M332.7,214.8c-0.9,2.3-1.9,4.6-2.8,6.9c-0.9,2.3-1.8,4.6-2.6,6.9c-1.7,4.6-3.3,9.3-4.7,14
				c-1.5,4.7-2.7,9.5-3.6,14.3c-0.4,2.4-0.8,4.9-1,7.3c-0.2,2.5-0.2,4.9,0.1,7.4c-1-4.9-0.5-9.9,0.2-14.8c0.8-4.9,2-9.7,3.4-14.5
				c1.5-4.7,3.1-9.4,5-14C328.5,223.7,330.4,219.2,332.7,214.8z"/>
		</g>
		<g>
			<path class="st1" d="M278.9,260.6c2,1.9,3.7,4.1,5.1,6.4c1.5,2.3,2.6,4.8,3.6,7.4c0.5,1.3,0.8,2.6,1.2,4c0.2,1.4,0.6,2.7,0.6,4.1
				c0.1,0.7,0.1,1.4,0.2,2.1v2.1c0,0.7-0.1,1.4-0.1,2c-0.1,0.7-0.1,1.4-0.2,2c-0.1-1.4,0-2.7-0.1-4.1l-0.2-2c-0.1-0.7-0.2-1.3-0.3-2
				c-0.2-1.3-0.5-2.6-0.8-4c-0.4-1.3-0.7-2.6-1.2-3.9c-0.9-2.5-2-5-3.3-7.4l-1-1.8l-1.1-1.7C280.5,262.8,279.7,261.7,278.9,260.6z"
				/>
		</g>
		<g>
			<path class="st1" d="M241.5,314.1c3.2-1.8,6.6-3.2,10.1-4.3c3.5-1.2,7.1-2,10.8-2.4c3.7-0.4,7.4-0.3,11,0.7
				c1.8,0.5,3.5,1.2,5.1,2.3c1.5,1,2.9,2.3,4,3.8c-2.5-2.7-5.7-4.6-9.2-5.3c-3.5-0.8-7.2-0.8-10.7-0.5c-3.6,0.4-7.1,1.2-10.6,2.2
				c-1.8,0.5-3.5,1.1-5.2,1.7C244.9,312.7,243.2,313.4,241.5,314.1z"/>
		</g>
		<g>
			<path class="st1" d="M215.6,410.6c2.1-1.1,4.2-2.1,6.3-3c2.1-1,4.3-1.9,6.4-2.8c2.2-0.9,4.3-1.8,6.5-2.6l3.3-1.2
				c1.1-0.4,2.2-0.8,3.3-1.1c-1,0.5-2.1,1-3.1,1.6l-3.2,1.5c-2.1,1-4.3,1.9-6.4,2.8c-2.2,0.9-4.3,1.8-6.5,2.6
				C220.1,409.1,217.9,409.9,215.6,410.6z"/>
		</g>
		<g>
			<path class="st1" d="M345,222.7c-1.3,0.5-2.5,0.9-3.8,1.5c-1.2,0.5-2.5,1.1-3.6,1.8c-2.4,1.3-4.6,2.7-6.7,4.4s-3.9,3.6-5.5,5.8
				l-1.1,1.7c-0.3,0.6-0.6,1.2-0.9,1.8l-0.5,0.9c-0.1,0.3-0.2,0.6-0.3,0.9c-0.2,0.6-0.5,1.3-0.7,1.9c0.5-2.7,1.4-5.3,2.9-7.6
				s3.3-4.4,5.5-6.1c2.2-1.7,4.5-3.2,7-4.3C339.7,224.1,342.3,223.2,345,222.7z"/>
		</g>
		<g>
			<path class="st1" d="M509.2,317.2c-1.1,0-2.2,0-3.2,0c-1.1,0-2.1,0.1-3.2,0.2c-2.1,0.2-4.2,0.5-6.3,1c-2.1,0.4-4.1,1.1-6.1,1.8
				c-0.5,0.2-1,0.4-1.5,0.6l-1.5,0.7c-1,0.4-1.9,1-2.9,1.4c1.7-1.3,3.6-2.5,5.6-3.4c1-0.5,2-0.8,3-1.2c1-0.3,2.1-0.6,3.2-0.9
				c2.1-0.5,4.3-0.8,6.5-0.8C504.8,316.6,507,316.7,509.2,317.2z"/>
		</g>
		<g>
			<path class="st1" d="M170.2,501.4c2.7-0.3,5.4-0.9,8-1.7c2.6-0.7,5.2-1.7,7.6-2.8c4.9-2.2,9.6-5.1,13.6-8.7
				c4.1-3.5,7.5-7.8,10.2-12.5s4.7-9.8,6.1-15c-0.3,1.3-0.6,2.7-0.9,4c-0.4,1.3-0.7,2.6-1.2,3.9l-0.7,1.9c-0.2,0.6-0.5,1.3-0.8,1.9
				c-0.5,1.3-1.2,2.5-1.8,3.7c-2.6,4.8-6.1,9.2-10.2,12.8c-4.1,3.6-8.9,6.6-13.9,8.6C181,499.7,175.6,501.1,170.2,501.4z"/>
		</g>
		<g>
			<path class="st1" d="M144.6,426.1c-0.9,1.2-1.7,2.5-2.3,3.9c-0.3,0.7-0.6,1.4-0.9,2.1c-0.2,0.7-0.5,1.4-0.6,2.1
				c-0.7,2.9-0.7,6,0.3,8.7c1,2.8,2.8,5.2,4.9,7.2c1,1.1,2.3,1.9,3.5,2.8c1.3,0.8,2.5,1.6,3.8,2.3c2.6,1.5,5.4,2.6,8.2,3.7
				c2.8,1,5.7,2,8.6,2.8c2.9,0.8,5.8,1.5,8.8,2.1c2.9,0.6,5.9,1.1,8.9,1.1c-1.5,0.2-3,0.1-4.5,0s-3-0.3-4.5-0.5
				c-3-0.5-6-1.1-8.9-1.8c-5.9-1.5-11.6-3.5-17-6.4c-1.4-0.7-2.6-1.6-3.9-2.4c-1.2-1-2.5-1.8-3.5-2.9c-2.2-2.1-4.1-4.6-5-7.6
				s-0.8-6.2,0-9.1c0.2-0.7,0.5-1.4,0.7-2.2c0.3-0.7,0.6-1.4,1-2.1C142.7,428.5,143.6,427.2,144.6,426.1z"/>
		</g>
		<g>
			<path class="st1" d="M221.4,510.2c-2.7-1.4-5.2-3.1-7.5-5.1s-4.4-4.2-6.1-6.7c-1.7-2.5-2.9-5.5-3.2-8.5c-0.1-1.5,0-3.1,0.3-4.6
				s0.9-2.9,1.7-4.2c-1.1,2.8-1.6,5.8-1.2,8.7c0.5,2.9,1.6,5.6,3.3,8.1c1.6,2.5,3.6,4.7,5.8,6.7c1.1,1,2.2,2,3.4,2.9
				C218.9,508.4,220.1,509.3,221.4,510.2z"/>
		</g>
		<g>
			<path class="st1" d="M54.2,445.5c2.5,1.5,4.8,3.3,7.1,5.1c2.3,1.9,4.5,3.8,6.5,5.9c-2.5-1.5-4.8-3.3-7.1-5.1
				C58.4,449.6,56.2,447.6,54.2,445.5z"/>
		</g>
		<g>
			<path class="st1" d="M54.2,464.9c2.3-0.4,4.5-0.5,6.8-0.5s4.5,0.1,6.8,0.5c-2.3,0.4-4.5,0.5-6.8,0.5
				C58.7,465.4,56.4,465.3,54.2,464.9z"/>
		</g>
	</g>
</g>
<g id="Capa_2_1_">
	<path class="st2" d="M444.7,155.3c0,0,0.8,27.1-8.7,49.6s-32,69.2-32,69.2l2.4,4l41.9-91.1c0,0,14.2-23.3,12.7-31.8
		C459.3,146.7,444.7,155.3,444.7,155.3z"/>
	<path class="st2" d="M493.3,23c0,0,22.4,30.4,33.6,22.4s-24.8,43.2-24.8,43.2l-52.8,87.2l-4.7-10.4c0,0,52.3-62.4,52.1-107.2
		C496.6,13.4,493.3,23,493.3,23z"/>
	<path class="st2" d="M510.6,23.8c11.4,2.2,19.2,7.9,19.9,13c0.5,4.4-1.4,7.5-1.4,7.5c-0.7,1.2-1.7,2.2-2.4,2.7
		c-5.8,3.9-23.6-5.3-31.2-20.2c-1-1.9-1.6-3.5-1.9-4.3c0.7-0.6,3.9-3.1,8.5-2.8C507.2,19.9,510.1,23.2,510.6,23.8z"/>
	<path class="st2" d="M550.2,236.6"/>
</g>
<g id="Cruz">
	<path class="st2" d="M391.3,259.5c0,0,3.6,7.1,17.8,8.3c14.2,1.2,28.5,0,28.5,0c-3.8,20.6-13.3,43.3-20.2,52
		c-6.9,8.7-9.6,9.6-16.4,15.4c-1.5,1.3-6.9,4.9-6.2,6.5c0.4,1,3.5,3.6,7,5c5.9,2.4,23.1,6.5,42.9-1c0,0-21.8,28.5-24.1,53.8
		c0,0-25.7-5.1-42.3-30.5c0,0-32.4,56.6-54.2,57c0,0-22.2,3.6-34.8-46.7c0,0,50.8-5.7,52.4-30.7c0,0-10.9-8.5-21.2-12.1
		c-10.3-3.6-23.7-5.9-24.5-15.8c0,0,23.3-11.9,26.9-22.9c4.5-13.1,8.7-0.2,8.7-0.2c2.8,3.6,20.4,23.5,30.5,21.2
		C381,315.4,392.6,293.5,391.3,259.5z"/>
</g>
</svg>
